<svg xmlns="http://www.w3.org/2000/svg" width="322.867" height="66" viewBox="0 0 322.867 66">
    <defs>
        <style>
            .cls-1{fill:#fff}
        </style>
    </defs>
    <g id="logo" transform="translate(-72.3 -21.376)">
        <g id="그룹_1213" transform="translate(72.3 34.437)">
            <g id="그룹_1209" transform="translate(0 14.818)">
                <path id="패스_1337" d="M250.671 386.2c-.612 2.852-3.1 3.535-7.891 3.535H207.9l-12.395 10.94 2.933-10.94h-10.122l-6.346 23.683h10.122l3-11.21 8.633 11.21h11.515l-9.166-11.9 12.12-10.7 16.526 22.606h8.139c-.985-1.432-12.9-17.271-14.534-19.666h13.719c9.882-.009 9.425-6.358 8.627-7.558z" class="cls-1" transform="translate(-181.97 -386.195)"/>
            </g>
            <g id="그룹_1210" transform="translate(7.992)">
                <path id="패스_1338" d="M277.664 334.683a10.551 10.551 0 0 1 6.961 7.8c.611-2.425-.323-10.47-10.577-12.679a61.952 61.952 0 0 0-10.545-.538h-42.655l-1.117 4.172h48.451a27.268 27.268 0 0 1 9.482 1.245z" class="cls-1" transform="translate(-217.894 -329.266)"/>
                <path id="패스_1339" fill="#72bf44" d="M279.419 366.728c0-5.31-3.952-9.611-10.789-10.486-1.114-.143-3.132-.206-4.3-.222h-50.57l-1.088 4.063h51.347a30.868 30.868 0 0 1 4.684.256c4.6.823 7.075 3.543 6.668 6.7-.546 4.246-4.435 7.38-13.556 7.265h-5.2l12.315 16.787h7.793l-9.579-13.012c7.481-1.079 12.275-5.567 12.275-11.351z" transform="translate(-212.675 -349.056)"/>
            </g>
        </g>
        <text id="철도재산포털" fill="#fff" font-family="NotoSansCJKkr-Regular, Noto Sans CJK KR" font-size="45px" letter-spacing="-0.05em" transform="translate(157.167 73.376)">
            <tspan x="0" y="0">철도재산포털</tspan>
        </text>
    </g>
</svg>
