<svg xmlns="http://www.w3.org/2000/svg" xmlns:xlink="http://www.w3.org/1999/xlink" width="50" height="50" viewBox="0 0 50 50">
  <defs>
    <clipPath id="clip-path">
      <rect id="사각형_74" data-name="사각형 74" width="24" height="21" fill="#9099a7"/>
    </clipPath>
  </defs>
  <g id="그룹_407" data-name="그룹 407" transform="translate(-1294.667 -345)">
    <circle id="타원_18" data-name="타원 18" cx="25" cy="25" r="25" transform="translate(1294.667 345)" fill="#f5f6f8"/>
    <g id="그룹_282" data-name="그룹 282" transform="translate(1307.667 360)">
      <g id="그룹_281" data-name="그룹 281" clip-path="url(#clip-path)">
        <path id="패스_1170" data-name="패스 1170" d="M0,15H2.575A3.87,3.87,0,0,0,2,17a4,4,0,0,0,8,0,3.88,3.88,0,0,0-.575-2h5.149A3.879,3.879,0,0,0,14,17a4,4,0,0,0,8,0,3.87,3.87,0,0,0-.575-2H24V13H0Zm18,0a2,2,0,1,1-2,2,2,2,0,0,1,2-2M6,15a2,2,0,1,1-2,2,2,2,0,0,1,2-2M4.347,12a6.5,6.5,0,0,1,0-10H19.653a6.5,6.5,0,0,1,0,10h2.7A8.463,8.463,0,0,0,20.6.2L20.333,0H3.667L3.4.2A8.463,8.463,0,0,0,1.648,12Zm9.005-8.181L11.938,2.4,9.171,5.172A4,4,0,0,0,12,12h0a4,4,0,0,0,2.823-6.828l-.235-.234L13.179,6.352l.235.234A2,2,0,0,1,12,10h0a2,2,0,0,1-1.416-3.414Z" fill="#9099a7"/>
      </g>
    </g>
  </g>
</svg>
