<svg id="그룹_5346" data-name="그룹 5346" xmlns="http://www.w3.org/2000/svg" width="21.093" height="11.224" viewBox="0 0 21.093 11.224">
    <defs>
        <style>
            .cls-1{fill:#d8250e}
        </style>
    </defs>
    <path id="패스_8220" data-name="패스 8220" class="cls-1" d="M20.949 5.2a11.205 11.205 0 0 0-.884-.969 15.61 15.61 0 0 0-2.129-1.759 14.45 14.45 0 0 0-3.3-1.7A12.905 12.905 0 0 0 10.268 0a11.886 11.886 0 0 0-4.185.76 13.1 13.1 0 0 0-3.116 1.693 13.4 13.4 0 0 0-2.84 2.766.672.672 0 0 0 0 .786 13.4 13.4 0 0 0 2.84 2.766 13.1 13.1 0 0 0 3.116 1.693 11.886 11.886 0 0 0 4.186.76 12.905 12.905 0 0 0 4.371-.766 14.453 14.453 0 0 0 3.3-1.7A15.615 15.615 0 0 0 20.065 7a11.234 11.234 0 0 0 .884-.969.672.672 0 0 0 0-.832M5.5 7.743a5.448 5.448 0 0 0 .851 1.389 11.8 11.8 0 0 1-2.6-1.446A13.037 13.037 0 0 1 2.29 6.437a1.159 1.159 0 0 1 0-1.649 13.044 13.044 0 0 1 1.468-1.25 11.8 11.8 0 0 1 2.6-1.446A5.481 5.481 0 0 0 5.5 7.743m5.044 2a4.131 4.131 0 1 1 4.131-4.131 4.136 4.136 0 0 1-4.131 4.131m8.119-3.272a14.427 14.427 0 0 1-1.488 1.179 13.4 13.4 0 0 1-2.255 1.256 5.471 5.471 0 0 0 0-6.588 13.4 13.4 0 0 1 2.254 1.257 14.418 14.418 0 0 1 1.491 1.178 1.159 1.159 0 0 1 0 1.72"/>
    <path id="패스_8221" data-name="패스 8221" class="cls-1" d="M121.653 50.026a2.063 2.063 0 1 0 2.063 2.063 2.063 2.063 0 0 0-2.063-2.063" transform="translate(-111.107 -46.477)"/>
</svg>
