<svg xmlns="http://www.w3.org/2000/svg" width="14.154" height="13.998" viewBox="0 0 14.154 13.998">
    <defs>
        <style>
            .cls-1{fill:#0cc7ba;stroke:#0cc7ba;stroke-linejoin:round;stroke-width:.5px}
        </style>
    </defs>
    <g id="그룹_5373" data-name="그룹 5373" transform="translate(.25 .25)">
        <path id="패스_8227" data-name="패스 8227" class="cls-1" d="M6.746 0a6.7 6.7 0 0 1 4.772 1.977 6.786 6.786 0 0 1 1.158 8 .579.579 0 0 0-.056.408l.68 2.915-2.918-.679a.584.584 0 0 0-.409.056 6.763 6.763 0 0 1-3.226.819A6.749 6.749 0 0 1 1.973 1.977 6.705 6.705 0 0 1 6.746 0M2.305 11.189a6.286 6.286 0 0 0 7.441 1.077 1.05 1.05 0 0 1 .739-.1l2.184.508-.508-2.185a1.048 1.048 0 0 1 .1-.739 6.314 6.314 0 0 0-1.077-7.442 6.279 6.279 0 1 0-8.88 8.881"/>
        <path id="패스_8228" data-name="패스 8228" class="cls-1" d="M24.758 49.561a1.049 1.049 0 1 1-1.049 1.049 1.05 1.05 0 0 1 1.049-1.049" transform="translate(-14.599 -43.744)"/>
        <path id="패스_8229" data-name="패스 8229" class="cls-1" d="M49.568 49.561a1.049 1.049 0 1 1-1.049 1.049 1.05 1.05 0 0 1 1.049-1.049" transform="translate(-42.824 -43.744)"/>
        <path id="패스_8230" data-name="패스 8230" class="cls-1" d="M74.379 49.561a1.049 1.049 0 1 1-1.049 1.049 1.05 1.05 0 0 1 1.049-1.049" transform="translate(-71.05 -43.744)"/>
    </g>
</svg>
