<svg data-name="그룹 5352" xmlns="http://www.w3.org/2000/svg" width="54.402" height="41.224" viewBox="0 0 54.402 41.224">
    <path data-name="패스 8225" d="M46.331 12.486v-.347l.04-3.974c.024-1.932-1.95-2.4-2.738-2.4h-2.987V3.709H19.428L16.46 0H2.7A2.711 2.711 0 0 0 0 2.7v32.519a2.713 2.713 0 0 0 1.866 2.566L3.948 31.7V5.75h34.658v2.989H7.385v12.927l.709-2.08.016-.042.015-.042v-.009l.013-.033.015-.042.007-.018.009-.026.015-.042.011-.026.005-.016.016-.042.013-.035v-.007l.016-.04.016-.042.015-.038.018-.042v-.011L8.32 19l.016-.04.007-.02.011-.022.018-.04.011-.029.005-.013.02-.04.015-.037v-.005l.007-.016.029-.064.018-.038.018-.04.015-.031.005-.009.02-.04.009-.02.011-.02.02-.04.025-.036.005-.011.02-.04.02-.037.022-.04.02-.038v-.007l.018-.033.022-.04.005-.015.015-.024.022-.04.013-.022.009-.018.022-.038.024-.038.022-.04.046-.077.024-.038v-.009l.018-.031.024-.038.009-.015.02-.032.024-.038.015-.022.009-.016.024-.037.02-.033v-.005l.026-.038.024-.038.024-.037.024-.038.026-.038.026-.037.026-.037.026-.038.016-.024.009-.013.026-.037.022-.033.026-.038.027-.037v-6.262h33.185v1.7h3.725zm.455 28.738H3.928l7.065-20.646a7.689 7.689 0 0 1 2.709-3.55 6.905 6.905 0 0 1 4-1.477h33.783a3.75 3.75 0 0 1 1.216.185 2.469 2.469 0 0 1 1.25.918 2.785 2.785 0 0 1 .451 1.6 4.575 4.575 0 0 1-.265 1.482z" style="fill:#cecece;fill-rule:evenodd"/>
</svg>
