<svg xmlns="http://www.w3.org/2000/svg" width="42" height="26" viewBox="0 0 42 26">
    <path data-name="패스 951" d="M-355.677-173.7c-.826.81-4.265 3.968-5.628 5.229-1.766 1.657-7.084 6.375-7.516 6.779l-4.363 4.167q-.634.65-1.914 1.765a.6.6 0 0 1-.854-.039q-1.532-1.577-4.54-4.775t-4.54-4.775q-1.631-1.679-4.987-4.931c-2.237-2.168-3.11-3.019-4.2-4.138q-.309-.318.123-.742t1.331-1.221q.9-.8 1.317-1.207.475-.466 1.362-1.435t1.362-1.435q.216-.212.469.077l.168.2c1.647 1.927 3.377 3.987 6.767 7.766l3.7 3.835q1.8 1.853 2.644 2.693l.366.319a.328.328 0 0 0 .427.005l.375-.367c.864-.848 6.333-5.849 7.967-7.632s5.229-5.22 6.093-6.068q.389-.382.712-.049a30.584 30.584 0 0 1 3.788 4.623.722.722 0 0 1 .133.745 4.2 4.2 0 0 1-.562.611z" transform="translate(394.888 180.959)" style="fill:#00a59a"/>
    <path data-name="패스 952" d="M-233.5 70.716a.523.523 0 0 1-.174.363c-2.169 1.969-3.594 3.147-4.719 4.136a.693.693 0 0 1-.931.009q-1.353-1.16-2.02-1.831l-4.6-4.318c-.456-.416-6.072-5.323-7.934-7.042-1.443-1.306-5.066-4.585-5.936-5.424a4.277 4.277 0 0 1-.59-.628q-.162-.306.174-.74a31.551 31.551 0 0 1 4.3-4.488q.366-.321.775.078c.909.878 4.7 4.441 6.41 6.28s7.483 7.032 8.394 7.909l.395.381c.173.106.669.531.81.628.312.216 5.448 4.378 5.644 4.482z" transform="translate(275.452 -50.005)" style="opacity:.3;isolation:isolate;fill:#00a59a"/>
</svg>
