<svg xmlns="http://www.w3.org/2000/svg" width="24.973" height="24.809" viewBox="0 0 24.973 24.809">
    <defs>
        <radialGradient id="a" cx=".5" cy=".5" r=".5" gradientUnits="objectBoundingBox">
            <stop offset="0" stop-color="#5473e8"/>
            <stop offset="1" stop-color="#385cf1"/>
        </radialGradient>
        <filter id="b" x="1.343" y=".876" width="23.63" height="23.933" filterUnits="userSpaceOnUse">
            <feOffset dx="1" dy="1"/>
            <feGaussianBlur stdDeviation="1.5" result="blur"/>
            <feFlood flood-opacity=".4"/>
            <feComposite operator="in" in2="blur"/>
            <feComposite in="SourceGraphic"/>
        </filter>
    </defs>
    <g transform="translate(-1304 -421.314)">
        <circle data-name="타원 123" cx="12" cy="12" r="12" transform="translate(1304 421.314)" style="fill:url(#a)"/>
        <g style="filter:url(#b)">
            <path data-name="패스 8867" d="M12.276 11.89a6.88 6.88 0 0 0 1.784-4.745 6.914 6.914 0 0 0-1.416-4.321 7.6 7.6 0 0 0-.65-.745A6.727 6.727 0 0 0 7.048 0 6.9 6.9 0 0 0 3.52.956 7.024 7.024 0 0 0 0 7.1a6.981 6.981 0 0 0 2.016 5.007 6.732 6.732 0 0 0 2.044 1.472 7.117 7.117 0 0 0 3.02.628 6.762 6.762 0 0 0 3.305-.813l1.2 1.539h3.045zm-8.4-8.065a4.268 4.268 0 0 1 3.172-1.306 4.206 4.206 0 0 1 3.139 1.342 4.522 4.522 0 0 1 1.3 3.264 4.7 4.7 0 0 1-.818 2.685L9.451 8.239H6.379L8.8 11.355a4.222 4.222 0 0 1-1.732.359 4.432 4.432 0 0 1-2.865-1.021 4.324 4.324 0 0 1-1.61-3.548 4.547 4.547 0 0 1 1.279-3.32" transform="translate(1308.84 425.69)" style="fill:#fff"/>
        </g>
    </g>
</svg>
