<svg id="save" xmlns="http://www.w3.org/2000/svg" width="11.996" height="12.299" viewBox="0 0 11.996 12.299">
    <defs>
        <style>
            .cls-1{fill:#6b6b6b}
        </style>
    </defs>
    <g id="그룹_3453" data-name="그룹 3453" transform="translate(2.676)">
        <g id="그룹_3451" data-name="그룹 3451" transform="translate(0 3.572)">
            <path id="패스_7946" data-name="패스 7946" class="cls-1" d="M1027.529 763.127a.52.52 0 0 1-.307-.1l-2.8-2.037a.522.522 0 0 1 .613-.844l2.494 1.814 2.495-1.814a.522.522 0 0 1 .614.844l-2.8 2.037a.526.526 0 0 1-.307.1z" transform="translate(-1024.206 -760.045)"/>
        </g>
        <g id="그룹_3452" data-name="그룹 3452" transform="translate(2.801)">
            <path id="패스_7947" data-name="패스 7947" class="cls-1" d="M1030.1 759.852a.522.522 0 0 1-.522-.522v-5.61a.522.522 0 1 1 1.043 0v5.61a.522.522 0 0 1-.522.522z" transform="translate(-1029.574 -753.199)"/>
        </g>
    </g>
    <g id="그룹_3454" data-name="그룹 3454" transform="translate(0 7.562)">
        <path id="패스_7948" data-name="패스 7948" class="cls-1" d="M1030.548 772.438H1019.6a.521.521 0 0 1-.522-.522v-3.694a.522.522 0 0 1 .522-.522h3.39a.522.522 0 0 1 .522.522v.738h3.129v-.738a.521.521 0 0 1 .522-.522h3.39a.521.521 0 0 1 .521.522v3.694a.521.521 0 0 1-.521.522zm-10.431-1.044h9.91v-2.65h-2.347v.216a1.044 1.044 0 0 1-1.043 1.044h-3.129a1.045 1.045 0 0 1-1.043-1.044v-.216h-2.347v2.65z" transform="translate(-1019.074 -767.701)"/>
    </g>
    <g id="그룹_3459" data-name="그룹 3459" transform="translate(0 5.388)">
        <g id="그룹_3456" data-name="그룹 3456">
            <g id="그룹_3455" data-name="그룹 3455">
                <path id="패스_7949" data-name="패스 7949" class="cls-1" d="M1019.6 766.75a.522.522 0 0 1-.374-.885l2.109-2.176a.522.522 0 1 1 .749.726l-2.108 2.176a.521.521 0 0 1-.375.159z" transform="translate(-1019.075 -763.531)"/>
            </g>
        </g>
        <g id="그룹_3458" data-name="그룹 3458" transform="translate(8.843)">
            <g id="그룹_3457" data-name="그룹 3457">
                <path id="패스_7950" data-name="패스 7950" class="cls-1" d="M1038.663 766.75a.517.517 0 0 1-.374-.159l-2.109-2.176a.522.522 0 1 1 .749-.726l2.109 2.176a.522.522 0 0 1-.375.885z" transform="translate(-1036.032 -763.531)"/>
            </g>
        </g>
    </g>
</svg>
