<svg xmlns="http://www.w3.org/2000/svg" width="46" height="46" viewBox="0 0 46 46">
  <g id="icon_영역그리기" data-name="icon / 영역그리기" transform="translate(-232 -308.383)">
    <g id="사각형_9199" data-name="사각형 9199" transform="translate(232 308.383)" fill="#fff" stroke="#707070" stroke-width="1" opacity="0">
      <rect width="46" height="46" stroke="none"/>
      <rect x="0.5" y="0.5" width="45" height="45" fill="none"/>
    </g>
    <path id="패스_3213" data-name="패스 3213" d="M333.7,54.327l-9.6,9.48-1.8-1.818-1.311-1.321-1.982-2,9.669-9.55L327.352,47.8,316.61,58.427a.916.916,0,0,0-.214.331l-3.754,10.008a.931.931,0,0,0,.872,1.258.92.92,0,0,0,.294-.048l9.92-3.306a.924.924,0,0,0,.363-.225l10.922-10.8Zm-15.839,5.836,4.849,4.886-5.376,1.791-1.443-1.424Z" transform="translate(-67.461 271.758)" fill="#353990"/>
    <path id="패스_3214" data-name="패스 3214" d="M11.645,5.384,6.88.621a2.133,2.133,0,0,0-3.009,0L1.32,3.3l0,0L0,4.608l7.776,7.778L9.092,11.07h0l2.553-2.677A2.132,2.132,0,0,0,11.645,5.384ZM10.329,7.076,7.776,9.753,2.637,4.613,5.188,1.937a.272.272,0,0,1,.376,0L10.329,6.7a.272.272,0,0,1,0,.376Z" transform="matrix(1, 0.014, -0.014, 1, 260.816, 314.098)" fill="#353990"/>
    <path id="패스_3226" data-name="패스 3226" d="M314.7,43.5h-8.729V67.89h24.541V63.377" transform="translate(-67.098 279.086)" fill="none" stroke="#353990" stroke-linecap="round" stroke-linejoin="round" stroke-width="2"/>
  </g>
</svg>
