<svg id="조회" xmlns="http://www.w3.org/2000/svg" width="26" height="26" viewBox="0 0 26 26">
  <g id="off" transform="translate(-375 -180)" opacity="0">
    <g id="타원_1099" data-name="타원 1099" transform="translate(375 180)" fill="#fff" stroke="#d8dee3" stroke-width="1">
      <circle cx="13" cy="13" r="13" stroke="none"/>
      <circle cx="13" cy="13" r="12.5" fill="none"/>
    </g>
    <path id="패스_63699" data-name="패스 63699" d="M311.041,56.486h-4.065V43.5H318.42V49" transform="translate(74.675 142.33)" fill="none" stroke="#999" stroke-linecap="round" stroke-linejoin="round" stroke-width="1.5"/>
    <path id="패스_63700" data-name="패스 63700" d="M0,0V2.323" transform="translate(386.435 194.183) rotate(90)" fill="none" stroke="#999" stroke-linecap="round" stroke-width="1.5"/>
    <path id="패스_63701" data-name="패스 63701" d="M0,0V6.439" transform="translate(390.552 188.892) rotate(90)" fill="none" stroke="#999" stroke-linecap="round" stroke-width="1.5"/>
    <path id="패스_63702" data-name="패스 63702" d="M0,0V6.439" transform="translate(390.552 191.537) rotate(90)" fill="none" stroke="#999" stroke-linecap="round" stroke-width="1.5"/>
    <g id="그룹_3663" data-name="그룹 3663" transform="translate(387.946 193.536)">
      <path id="_2" data-name="2" d="M320.891,27.23a4.442,4.442,0,0,0,.189-1.212,2.942,2.942,0,0,0-3.038-3.026,3.02,3.02,0,1,0,0,6.04,3.3,3.3,0,0,0,1.753-.454" transform="translate(-315.003 -22.992)" fill="none" stroke="#999" stroke-linecap="round" stroke-width="1.5"/>
      <path id="_1" data-name="1" d="M328.5,36.736l-1.677-1.855" transform="translate(-321.973 -29.271)" fill="none" stroke="#999" stroke-linecap="round" stroke-width="1.5"/>
    </g>
  </g>
  <g id="on" transform="translate(-375 -180)">
    <circle id="타원_1099-2" data-name="타원 1099" cx="13" cy="13" r="13" transform="translate(375 180)" fill="#353990"/>
    <path id="패스_63699-2" data-name="패스 63699" d="M311.041,56.486h-4.065V43.5H318.42V49" transform="translate(74.675 142.33)" fill="none" stroke="#fff" stroke-linecap="round" stroke-linejoin="round" stroke-width="1.5"/>
    <path id="패스_63700-2" data-name="패스 63700" d="M0,0V2.323" transform="translate(386.435 194.183) rotate(90)" fill="none" stroke="#fff" stroke-linecap="round" stroke-width="1.5"/>
    <path id="패스_63701-2" data-name="패스 63701" d="M0,0V6.439" transform="translate(390.552 188.892) rotate(90)" fill="none" stroke="#fff" stroke-linecap="round" stroke-width="1.5"/>
    <path id="패스_63702-2" data-name="패스 63702" d="M0,0V6.439" transform="translate(390.552 191.537) rotate(90)" fill="none" stroke="#fff" stroke-linecap="round" stroke-width="1.5"/>
    <g id="그룹_3663-2" data-name="그룹 3663" transform="translate(387.946 193.536)">
      <path id="_2-2" data-name="2" d="M320.891,27.23a4.442,4.442,0,0,0,.189-1.212,2.942,2.942,0,0,0-3.038-3.026,3.02,3.02,0,1,0,0,6.04,3.3,3.3,0,0,0,1.753-.454" transform="translate(-315.003 -22.992)" fill="none" stroke="#fff" stroke-linecap="round" stroke-width="1.5"/>
      <path id="_1-2" data-name="1" d="M328.5,36.736l-1.677-1.855" transform="translate(-321.973 -29.271)" fill="none" stroke="#fff" stroke-linecap="round" stroke-width="1.5"/>
    </g>
  </g>
</svg>
