<svg xmlns="http://www.w3.org/2000/svg" xmlns:xlink="http://www.w3.org/1999/xlink" width="30" height="30" viewBox="0 0 30 30">
  <defs>
    <linearGradient id="linear-gradient" x2="1" y2="1" gradientUnits="objectBoundingBox">
      <stop offset="0" stop-color="#1b36eb"/>
      <stop offset="1" stop-color="#9e54ff"/>
    </linearGradient>
  </defs>
  <g id="그룹_3670" data-name="그룹 3670" transform="translate(-1809 -313)">
    <rect id="아이콘박스" width="30" height="30" rx="5" transform="translate(1809 313)" fill="url(#linear-gradient)"/>
    <g id="icon" transform="translate(-36 23)">
      <path id="패스_10423" data-name="패스 10423" d="M131.227,146.762a.854.854,0,0,0-.742-.371A1.484,1.484,0,0,0,129,147.875V137.484A1.484,1.484,0,0,1,130.484,136a.741.741,0,0,1,.742.371Z" transform="translate(1723.883 162.492)" fill="none" stroke="#fff" stroke-linejoin="round" stroke-width="1.4"/>
      <path id="패스_10424" data-name="패스 10424" d="M142.65,140h1.3v10.4H130.3a1.3,1.3,0,0,1-1.3-1.3" transform="translate(1723.883 161.267)" fill="none" stroke="#fff" stroke-linecap="round" stroke-linejoin="round" stroke-width="1.4"/>
      <line id="선_44" data-name="선 44" x2="2" transform="translate(1855.5 301.211)" fill="none" stroke="#fff" stroke-linecap="round" stroke-linejoin="round" stroke-width="1.4"/>
      <path id="패스_10425" data-name="패스 10425" d="M150.348,143.375c1.021-3.3,4.062-4.282,4.062-7.312a4.062,4.062,0,0,0-8.125,0C146.286,139.093,149.328,140.071,150.348,143.375Z" transform="translate(1711.214 165.667)" fill="none" stroke="#fff" stroke-linejoin="round" stroke-width="1.4"/>
      <circle id="타원_614" data-name="타원 614" cx="1.09" cy="1.09" r="1.09" transform="translate(1860.5 300.7)" fill="none" stroke="#fff" stroke-linejoin="round" stroke-width="1.4"/>
    </g>
  </g>
</svg>
