<svg id="그룹_3678" data-name="그룹 3678" xmlns="http://www.w3.org/2000/svg" xmlns:xlink="http://www.w3.org/1999/xlink" width="19.914" height="18" viewBox="0 0 19.914 18">
  <defs>
    <clipPath id="clip-path">
      <rect id="사각형_9336" data-name="사각형 9336" width="19.914" height="18" fill="#353990"/>
    </clipPath>
  </defs>
  <g id="그룹_3677" data-name="그룹 3677" clip-path="url(#clip-path)">
    <path id="패스_63741" data-name="패스 63741" d="M9.953,158.379a3.09,3.09,0,0,1-1.1-.213l-.008,0L.676,154.879a1.048,1.048,0,0,1,0-1.96l.851-.336a.422.422,0,1,1,.31.786l-.856.338-.011,0a.2.2,0,0,0,0,.377l.013.005,8.168,3.285a2.087,2.087,0,0,0,1.583,0l8.192-3.286.013,0a.2.2,0,0,0,0-.377l-.011,0-.856-.338a.422.422,0,1,1,.31-.786l.851.336a1.048,1.048,0,0,1,0,1.96l-8.189,3.285a2.969,2.969,0,0,1-1.1.216" transform="translate(0 -143.346)" fill="#353990"/>
    <path id="패스_63742" data-name="패스 63742" d="M9.954,87.646a2.9,2.9,0,0,1-1.116-.235L.676,84.151a1.048,1.048,0,0,1,0-1.96l3.979-1.6a.423.423,0,1,1,.315.784l-3.985,1.6-.013,0a.2.2,0,0,0,0,.377l.012,0,8.172,3.264a1.9,1.9,0,0,0,1.568,0l.01,0,8.195-3.264.012,0a.2.2,0,0,0,0-.377l-.013,0-3.985-1.6a.423.423,0,1,1,.315-.784l3.979,1.6a1.048,1.048,0,0,1,0,1.96l-8.185,3.26a2.774,2.774,0,0,1-1.1.235" transform="translate(0 -75.702)" fill="#353990"/>
    <path id="패스_63743" data-name="패스 63743" d="M157.894,213.452h-.068a.423.423,0,0,1,0-.845h.068a.423.423,0,1,1,0,.845" transform="translate(-147.903 -199.775)" fill="#353990"/>
    <path id="패스_63744" data-name="패스 63744" d="M63.526,175.407h-.068a.423.423,0,1,1,0-.845h.068a.423.423,0,0,1,0,.845" transform="translate(-59.231 -164.026)" fill="#353990"/>
    <path id="패스_63745" data-name="패스 63745" d="M87.376,184.731h-.045a.423.423,0,0,1,0-.845h.045a.423.423,0,1,1,0,.845" transform="translate(-81.662 -172.787)" fill="#353990"/>
    <path id="패스_63746" data-name="패스 63746" d="M110.874,194.429h-.045a.423.423,0,1,1,0-.845h.045a.423.423,0,1,1,0,.845" transform="translate(-103.742 -181.9)" fill="#353990"/>
    <path id="패스_63747" data-name="패스 63747" d="M134.373,203.754h-.045a.422.422,0,1,1,0-.845h.045a.422.422,0,0,1,0,.845" transform="translate(-125.823 -190.662)" fill="#353990"/>
    <path id="패스_63748" data-name="패스 63748" d="M40,165.709H39.96a.423.423,0,1,1,0-.845H40a.423.423,0,0,1,0,.845" transform="translate(-37.151 -154.913)" fill="#353990"/>
    <path id="패스_63749" data-name="패스 63749" d="M276.111,165.709h-.045a.423.423,0,1,1,0-.845h.045a.423.423,0,1,1,0,.845" transform="translate(-259.006 -154.913)" fill="#353990"/>
    <path id="패스_63750" data-name="패스 63750" d="M181.743,203.754H181.7a.422.422,0,0,1,0-.845h.045a.422.422,0,1,1,0,.845" transform="translate(-170.334 -190.662)" fill="#353990"/>
    <path id="패스_63751" data-name="패스 63751" d="M205.242,194.429H205.2a.423.423,0,1,1,0-.845h.045a.423.423,0,1,1,0,.845" transform="translate(-192.414 -181.9)" fill="#353990"/>
    <path id="패스_63752" data-name="패스 63752" d="M228.741,184.731H228.7a.423.423,0,0,1,0-.845h.045a.423.423,0,1,1,0,.845" transform="translate(-214.495 -172.787)" fill="#353990"/>
    <path id="패스_63753" data-name="패스 63753" d="M252.262,175.407h-.068a.423.423,0,1,1,0-.845h.068a.423.423,0,1,1,0,.845" transform="translate(-236.576 -164.026)" fill="#353990"/>
    <path id="패스_63754" data-name="패스 63754" d="M141.026,18a.423.423,0,0,1-.423-.423V15.641a.423.423,0,0,1,.845,0v1.936a.423.423,0,0,1-.423.423m0-9.658a.423.423,0,0,1-.423-.423V2.831a.214.214,0,0,0-.208-.23h-.473a.423.423,0,0,1-.358-.647L140.668.2a.422.422,0,0,1,.356-.2h0a.423.423,0,0,1,.356.195l1.126,1.756a.422.422,0,1,1-.711.456l-.766-1.2-.364.579a1.058,1.058,0,0,1,.783,1.041V7.919a.423.423,0,0,1-.423.423" transform="translate(-131.08)" fill="#353990"/>
    <path id="패스_63755" data-name="패스 63755" d="M189.142,64.324a.423.423,0,0,1-.423-.423V62.078a.423.423,0,0,1,.845,0V63.9a.423.423,0,0,1-.423.423m0-9.726a.423.423,0,0,1-.423-.423V53.163a.206.206,0,0,0-.208-.208h-.473a.422.422,0,0,1-.358-.647l1.1-1.756a.422.422,0,0,1,.356-.2h0a.423.423,0,0,1,.356.194l1.126,1.756a.422.422,0,1,1-.711.456l-.766-1.2-.364.58a1.055,1.055,0,0,1,.783,1.018v1.013a.423.423,0,0,1-.423.423" transform="translate(-176.292 -47.315)" fill="#353990"/>
    <path id="패스_63756" data-name="패스 63756" d="M92.932,64.324a.423.423,0,0,1-.423-.423V62.078a.423.423,0,0,1,.845,0V63.9a.423.423,0,0,1-.423.423m0-9.726a.423.423,0,0,1-.423-.423V53.163a.228.228,0,0,0-.23-.208h-.473a.422.422,0,0,1-.356-.65l1.126-1.756a.423.423,0,0,1,.356-.194h0a.422.422,0,0,1,.356.2l1.1,1.756a.422.422,0,1,1-.715.449l-.749-1.192-.372.58a1.059,1.059,0,0,1,.8,1.017v1.013a.423.423,0,0,1-.423.423" transform="translate(-85.868 -47.315)" fill="#353990"/>
  </g>
</svg>
