<svg xmlns="http://www.w3.org/2000/svg" width="26" height="26" viewBox="0 0 26 26">
  <g id="icon" transform="translate(-447 -824)">
    <rect id="area" width="26" height="26" transform="translate(447 824)" fill="none"/>
    <path id="패스_63785" data-name="패스 63785" d="M23.374,17.6a.939.939,0,0,1-.938.938H1.717A.939.939,0,0,1,.779,17.6V7.017H15.328v6.11a.389.389,0,0,0,.639.3l1.584-1.32,1.584,1.32a.39.39,0,0,0,.639-.3V7.017h3.6ZM16.107,7.017h2.887V12.3l-1.194-1a.389.389,0,0,0-.5,0l-1.194,1ZM.779,1.37A.591.591,0,0,1,1.37.779H8.747a.938.938,0,0,1,.857.558L10.651,3.7a.39.39,0,0,0,.356.232H22.436a.939.939,0,0,1,.938.938v1.37H.779ZM22.436,3.151H11.261l-.944-2.13A1.718,1.718,0,0,0,8.747,0H1.37A1.371,1.371,0,0,0,0,1.37V17.6a1.719,1.719,0,0,0,1.717,1.717h20.72A1.719,1.719,0,0,0,24.153,17.6V4.868a1.719,1.719,0,0,0-1.717-1.717" transform="translate(448 827)" fill="#fff"/>
  </g>
</svg>
