<svg xmlns="http://www.w3.org/2000/svg" width="20" height="20" viewBox="0 0 20 20">
  <g id="그룹_3660" data-name="그룹 3660" transform="translate(-12 -11.678)">
    <rect id="사각형_9209" data-name="사각형 9209" width="20" height="20" transform="translate(12 11.678)" fill="none"/>
    <path id="_2" data-name="2" d="M315.414,30.486A7.083,7.083,0,0,0,322.561,38a7.5,7.5,0,1,0,0-14.993,6.146,6.146,0,0,0-4.48,1.664" transform="translate(-299.936 -8.676)" fill="none" stroke="#fff" stroke-linecap="round" stroke-width="1.5"/>
    <path id="다각형_3" data-name="다각형 3" d="M3.608.776a1,1,0,0,1,1.458,0L7.093,2.935A1,1,0,0,1,6.364,4.62H2.311a1,1,0,0,1-.729-1.684Z" transform="matrix(-0.719, -0.695, 0.695, -0.719, 18.417, 22.027)" fill="#fff"/>
  </g>
</svg>
