<svg id="즐겨찾기" xmlns="http://www.w3.org/2000/svg" width="26" height="26" viewBox="0 0 26 26">
  <g id="on" transform="translate(-287 -178)">
    <circle id="타원_1088" data-name="타원 1088" cx="13" cy="13" r="13" transform="translate(287 178)" fill="#353990"/>
    <g id="그룹_1166" data-name="그룹 1166" transform="translate(294.098 185)">
      <path id="패스_63656" data-name="패스 63656" d="M22.306,45.6l-.392,1.795a.34.34,0,0,0,.138.337.338.338,0,0,0,.363.017l1.49-.949,1.49.949a.338.338,0,0,0,.5-.353L25.5,45.6l1.3-1.227a.338.338,0,0,0-.214-.571L24.9,43.6l-.689-1.587a.338.338,0,0,0-.62,0L22.906,43.6l-1.683.2a.338.338,0,0,0-.214.572Z" transform="translate(-17.892 -39.119)" fill="#fff"/>
      <path id="패스_63657" data-name="패스 63657" d="M10.014,0H.209A.2.2,0,0,0,0,.188V13.824a.184.184,0,0,0,.1.158A.232.232,0,0,0,.3,14l4.817-1.951L9.928,14a.229.229,0,0,0,.2-.014.184.184,0,0,0,.1-.158V.188A.2.2,0,0,0,10.014,0M9.805,13.533,5.2,11.666a.23.23,0,0,0-.172,0L.419,13.533V.377H9.805Z" transform="translate(0.901 -1)" fill="#fff" stroke="#fff" stroke-width="0.8"/>
    </g>
  </g>
  <g id="off" transform="translate(-287 -178)" opacity="0">
    <g id="타원_1088-2" data-name="타원 1088" transform="translate(287 178)" fill="#fff" stroke="#d8dee3" stroke-width="1">
      <circle cx="13" cy="13" r="13" stroke="none"/>
      <circle cx="13" cy="13" r="12.5" fill="none"/>
    </g>
    <g id="그룹_1166-2" data-name="그룹 1166" transform="translate(294.098 185)">
      <path id="패스_63656-2" data-name="패스 63656" d="M22.306,45.6l-.392,1.795a.34.34,0,0,0,.138.337.338.338,0,0,0,.363.017l1.49-.949,1.49.949a.338.338,0,0,0,.5-.353L25.5,45.6l1.3-1.227a.338.338,0,0,0-.214-.571L24.9,43.6l-.689-1.587a.338.338,0,0,0-.62,0L22.906,43.6l-1.683.2a.338.338,0,0,0-.214.572Z" transform="translate(-17.892 -39.119)" fill="#999"/>
      <path id="패스_63657-2" data-name="패스 63657" d="M10.014,0H.209A.2.2,0,0,0,0,.188V13.824a.184.184,0,0,0,.1.158A.232.232,0,0,0,.3,14l4.817-1.951L9.928,14a.229.229,0,0,0,.2-.014.184.184,0,0,0,.1-.158V.188A.2.2,0,0,0,10.014,0M9.805,13.533,5.2,11.666a.23.23,0,0,0-.172,0L.419,13.533V.377H9.805Z" transform="translate(0.901 -1)" fill="#999" stroke="#999" stroke-width="0.8"/>
    </g>
  </g>
</svg>
