<svg xmlns="http://www.w3.org/2000/svg" width="19.463" height="10.277" viewBox="0 0 19.463 10.277">
  <g id="그룹_3649" data-name="그룹 3649" transform="translate(-295.268 -194.3)">
    <path id="패스_3469" data-name="패스 3469" d="M74.557,321.137c-.171-.189-4.246-4.625-9.38-4.625s-9.209,4.436-9.38,4.625a.471.471,0,0,0,0,.627c.171.189,4.246,4.625,9.38,4.625s9.209-4.436,9.38-4.625A.471.471,0,0,0,74.557,321.137Zm-17.814.313a16.036,16.036,0,0,1,4.936-3.3,5.062,5.062,0,0,0,.01,6.6A16.076,16.076,0,0,1,56.742,321.45Zm8.434,4a4.01,4.01,0,1,1,3.845-4.007A3.932,3.932,0,0,1,65.176,325.453Zm3.487-.7a5.062,5.062,0,0,0,.014-6.6,16.094,16.094,0,0,1,4.934,3.3A16.019,16.019,0,0,1,68.663,324.756Z" transform="translate(239.823 -122.012)" fill="#353990" stroke="#353990" stroke-width="0.4"/>
    <path id="패스_3470" data-name="패스 3470" d="M97.17,331.69a1.86,1.86,0,1,0,1.86,1.86A1.86,1.86,0,0,0,97.17,331.69Z" transform="translate(207.69 -134.19)" fill="#353990" stroke="#353990" stroke-width="0.4"/>
  </g>
</svg>
