<svg xmlns="http://www.w3.org/2000/svg" width="20" height="20" viewBox="0 0 20 20">
  <g id="icon_저장" data-name="icon / 저장" transform="translate(-46 -826)">
    <rect id="area" width="20" height="20" transform="translate(46 826)" fill="none" opacity="0.5"/>
    <g id="패스_63676" data-name="패스 63676" transform="translate(48 828)" fill="none">
      <path d="M2.4,0h9.65L16,4.3v9.3A2.4,2.4,0,0,1,13.6,16H2.4A2.4,2.4,0,0,1,0,13.6V2.4A2.4,2.4,0,0,1,2.4,0Z" stroke="none"/>
      <path d="M 2.400074005126953 1.500003814697266 C 1.903774261474609 1.500003814697266 1.500003814697266 1.903774261474609 1.500003814697266 2.400074005126953 L 1.500003814697266 13.60041427612305 C 1.500003814697266 14.09671401977539 1.903774261474609 14.50048446655273 2.400074005126953 14.50048446655273 L 13.60041427612305 14.50048446655273 C 14.09671401977539 14.50048446655273 14.50048446655273 14.09671401977539 14.50048446655273 13.60041427612305 L 14.50048446655273 4.884513854980469 L 11.39145660400391 1.500003814697266 L 2.400074005126953 1.500003814697266 M 2.400074005126953 3.814697265625e-06 L 12.05036449432373 3.814697265625e-06 L 16.00048446655273 4.30013370513916 L 16.00048446655273 13.60041427612305 C 16.00048446655273 14.92593383789062 14.92593383789062 16.00048446655273 13.60041427612305 16.00048446655273 L 2.400074005126953 16.00048446655273 C 1.074543952941895 16.00048446655273 3.814697265625e-06 14.92593383789062 3.814697265625e-06 13.60041427612305 L 3.814697265625e-06 2.400074005126953 C 3.814697265625e-06 1.074543952941895 1.074543952941895 3.814697265625e-06 2.400074005126953 3.814697265625e-06 Z" stroke="none" fill="#fff"/>
    </g>
    <rect id="사각형_9110" data-name="사각형 9110" width="10" height="5" rx="0.5" transform="translate(51 836)" fill="#fff"/>
    <rect id="사각형_9111" data-name="사각형 9111" width="3" height="5" transform="translate(56 828)" fill="#fff"/>
  </g>
</svg>
