<svg xmlns="http://www.w3.org/2000/svg" xmlns:xlink="http://www.w3.org/1999/xlink" width="24" height="136" viewBox="0 0 24 136">
  <defs>
    <clipPath id="clip-path">
      <rect width="24" height="136" fill="none"/>
    </clipPath>
  </defs>
  <g id="조절바" transform="translate(-1861 -359)">
    <g id="반복_그리드_7" data-name="반복 그리드 7" transform="translate(1861 359)" clip-path="url(#clip-path)">
      <g transform="translate(-1860 -359)">
        <rect id="사각형_9115" data-name="사각형 9115" width="24" height="1" transform="translate(1860 359)" fill="#d8dee3"/>
      </g>
      <g transform="translate(-1860 -350)">
        <rect id="사각형_9115-2" data-name="사각형 9115" width="24" height="1" transform="translate(1860 359)" fill="#d8dee3"/>
      </g>
      <g transform="translate(-1860 -341)">
        <rect id="사각형_9115-3" data-name="사각형 9115" width="24" height="1" transform="translate(1860 359)" fill="#d8dee3"/>
      </g>
      <g transform="translate(-1860 -332)">
        <rect id="사각형_9115-4" data-name="사각형 9115" width="24" height="1" transform="translate(1860 359)" fill="#d8dee3"/>
      </g>
      <g transform="translate(-1860 -323)">
        <rect id="사각형_9115-5" data-name="사각형 9115" width="24" height="1" transform="translate(1860 359)" fill="#d8dee3"/>
      </g>
      <g transform="translate(-1860 -314)">
        <rect id="사각형_9115-6" data-name="사각형 9115" width="24" height="1" transform="translate(1860 359)" fill="#d8dee3"/>
      </g>
      <g transform="translate(-1860 -305)">
        <rect id="사각형_9115-7" data-name="사각형 9115" width="24" height="1" transform="translate(1860 359)" fill="#d8dee3"/>
      </g>
      <g transform="translate(-1860 -296)">
        <rect id="사각형_9115-8" data-name="사각형 9115" width="24" height="1" transform="translate(1860 359)" fill="#d8dee3"/>
      </g>
      <g transform="translate(-1860 -287)">
        <rect id="사각형_9115-9" data-name="사각형 9115" width="24" height="1" transform="translate(1860 359)" fill="#d8dee3"/>
      </g>
      <g transform="translate(-1860 -278)">
        <rect id="사각형_9115-10" data-name="사각형 9115" width="24" height="1" transform="translate(1860 359)" fill="#d8dee3"/>
      </g>
      <g transform="translate(-1860 -269)">
        <rect id="사각형_9115-11" data-name="사각형 9115" width="24" height="1" transform="translate(1860 359)" fill="#d8dee3"/>
      </g>
      <g transform="translate(-1860 -260)">
        <rect id="사각형_9115-12" data-name="사각형 9115" width="24" height="1" transform="translate(1860 359)" fill="#d8dee3"/>
      </g>
      <g transform="translate(-1860 -251)">
        <rect id="사각형_9115-13" data-name="사각형 9115" width="24" height="1" transform="translate(1860 359)" fill="#d8dee3"/>
      </g>
      <g transform="translate(-1860 -242)">
        <rect id="사각형_9115-14" data-name="사각형 9115" width="24" height="1" transform="translate(1860 359)" fill="#d8dee3"/>
      </g>
      <g transform="translate(-1860 -233)">
        <rect id="사각형_9115-15" data-name="사각형 9115" width="24" height="1" transform="translate(1860 359)" fill="#d8dee3"/>
      </g>
      <g transform="translate(-1860 -224)">
        <rect id="사각형_9115-16" data-name="사각형 9115" width="24" height="1" transform="translate(1860 359)" fill="#d8dee3"/>
      </g>
    </g>
  </g>
</svg>
