<svg id="정보조회" xmlns="http://www.w3.org/2000/svg" xmlns:xlink="http://www.w3.org/1999/xlink" width="30" height="30" viewBox="0 0 30 30">
  <defs>
    <linearGradient id="linear-gradient" x2="1" y2="1" gradientUnits="objectBoundingBox">
      <stop offset="0" stop-color="#1b36eb"/>
      <stop offset="1" stop-color="#9e54ff"/>
    </linearGradient>
  </defs>
  <rect id="아이콘박스" width="30" height="30" rx="5" fill="#f6f6fe"/>
  <g id="그룹_3651" data-name="그룹 3651" transform="translate(-1844 -320)">
    <g id="사각형_2598" data-name="사각형 2598" transform="translate(1850 327)" fill="none" stroke="#8587bc" stroke-width="1.3">
      <rect width="18" height="16" rx="2" stroke="none"/>
      <rect x="0.65" y="0.65" width="16.7" height="14.7" rx="1.35" fill="none"/>
    </g>
    <path id="패스_63650" data-name="패스 63650" d="M-8.122-13.753H9" transform="translate(1858.381 344.75)" fill="none" stroke="#8587bc" stroke-width="1.3"/>
    <circle id="타원_1082" data-name="타원 1082" cx="0.5" cy="0.5" r="0.5" transform="translate(1852 328.8)" fill="#8587bc"/>
    <circle id="타원_1083" data-name="타원 1083" cx="0.5" cy="0.5" r="0.5" transform="translate(1854 328.8)" fill="#8587bc"/>
    <circle id="타원_1084" data-name="타원 1084" cx="0.5" cy="0.5" r="0.5" transform="translate(1856 328.8)" fill="#8587bc"/>
  </g>
  <g id="ov" transform="translate(-1848 -322)" opacity="0">
    <rect id="아이콘박스-2" data-name="아이콘박스" width="30" height="30" rx="5" transform="translate(1848 322)" fill="url(#linear-gradient)"/>
    <g id="그룹_3651-2" data-name="그룹 3651" transform="translate(4 2)">
      <g id="사각형_2598-2" data-name="사각형 2598" transform="translate(1850 327)" fill="none" stroke="#fff" stroke-width="1.3">
        <rect width="18" height="16" rx="2" stroke="none"/>
        <rect x="0.65" y="0.65" width="16.7" height="14.7" rx="1.35" fill="none"/>
      </g>
      <path id="패스_63650-2" data-name="패스 63650" d="M-8.122-13.753H9" transform="translate(1858.381 344.75)" fill="none" stroke="#fff" stroke-width="1.3"/>
      <circle id="타원_1082-2" data-name="타원 1082" cx="0.5" cy="0.5" r="0.5" transform="translate(1852 328.8)" fill="#fff"/>
      <circle id="타원_1083-2" data-name="타원 1083" cx="0.5" cy="0.5" r="0.5" transform="translate(1854 328.8)" fill="#fff"/>
      <circle id="타원_1084-2" data-name="타원 1084" cx="0.5" cy="0.5" r="0.5" transform="translate(1856 328.8)" fill="#fff"/>
    </g>
  </g>
</svg>
