<svg id="지도분할" xmlns="http://www.w3.org/2000/svg" xmlns:xlink="http://www.w3.org/1999/xlink" width="30" height="30" viewBox="0 0 30 30">
  <defs>
    <linearGradient id="linear-gradient" x2="1" y2="1" gradientUnits="objectBoundingBox">
      <stop offset="0" stop-color="#1b36eb"/>
      <stop offset="1" stop-color="#9e54ff"/>
    </linearGradient>
  </defs>
  <rect id="아이콘박스" width="30" height="30" rx="5" fill="#f6f6fe"/>
  <path id="패스_3213" data-name="패스 3213" d="M323.619,51.213,318.6,56.168l-.943-.95-.685-.69-1.036-1.044,5.054-4.992L320.3,47.8l-5.615,5.553a.479.479,0,0,0-.112.173l-1.962,5.231a.487.487,0,0,0,.456.658.481.481,0,0,0,.153-.025l5.185-1.728a.483.483,0,0,0,.19-.118l5.709-5.647Zm-8.279,3.05,2.534,2.554-2.81.936-.754-.744Z" transform="translate(-305.441 -37.85)" fill="#8587bc" stroke="#8587bc" stroke-width="0.4"/>
  <path id="패스_3214" data-name="패스 3214" d="M6.087,2.815,3.6.324a1.115,1.115,0,0,0-1.573,0L.69,1.723l0,0L0,2.409,4.065,6.474l.688-.688h0l1.335-1.4A1.114,1.114,0,0,0,6.087,2.815ZM5.4,3.7,4.065,5.1,1.378,2.411l1.334-1.4a.142.142,0,0,1,.2,0L5.4,3.5a.142.142,0,0,1,0,.2Z" transform="matrix(1, 0.014, -0.014, 1, 15.345, 7.098)" fill="#8587bc" stroke="#8587bc" stroke-width="0.4"/>
  <g id="ov" transform="translate(-1848 -322)" opacity="0">
    <rect id="아이콘박스-2" data-name="아이콘박스" width="30" height="30" rx="5" transform="translate(1848 322)" fill="url(#linear-gradient)"/>
    <path id="패스_3213-2" data-name="패스 3213" d="M323.619,51.213,318.6,56.168l-.943-.95-.685-.69-1.036-1.044,5.054-4.992L320.3,47.8l-5.615,5.553a.479.479,0,0,0-.112.173l-1.962,5.231a.487.487,0,0,0,.456.658.481.481,0,0,0,.153-.025l5.185-1.728a.483.483,0,0,0,.19-.118l5.709-5.647Zm-8.279,3.05,2.534,2.554-2.81.936-.754-.744Z" transform="translate(1542.559 284.15)" fill="#fff" stroke="#fff" stroke-width="0.4"/>
    <path id="패스_3214-2" data-name="패스 3214" d="M6.087,2.815,3.6.324a1.115,1.115,0,0,0-1.573,0L.69,1.723l0,0L0,2.409,4.065,6.474l.688-.688h0l1.335-1.4A1.114,1.114,0,0,0,6.087,2.815ZM5.4,3.7,4.065,5.1,1.378,2.411l1.334-1.4a.142.142,0,0,1,.2,0L5.4,3.5a.142.142,0,0,1,0,.2Z" transform="matrix(1, 0.014, -0.014, 1, 1863.345, 329.098)" fill="#fff" stroke="#fff" stroke-width="0.4"/>
  </g>
</svg>
