<svg xmlns="http://www.w3.org/2000/svg" width="32" height="30.433" viewBox="0 0 32 30.433">
  <path id="ico-sdqd-01" d="M11.559,25.067l9.787,1.27,1.045,1.47H9.611Zm1.723-2.424L16,18.816l3.272,4.6Zm4.844-5.371,3.313-1.014-.389,5.129ZM9.464,15.922l4.413,1.351-2.611,3.673Zm13.965,8.813.706-9.3,4.294-1.314L24.493,26.231ZM3.573,14.12l2.757.843,3.083,8.591-1.9,2.678Zm13.741-3.66,3.243,3.322-3.243.992ZM9.989,13.337l4.7-3.491v4.929ZM17.315,6.7V4.2l10.241,7.44-4.173,1.277ZM4.446,11.641,14.688,4.2V6.573L6.87,12.382ZM16,0,0,11.624,6.113,30.433H25.889L32,11.624Z" transform="translate(-0.001)" fill="#1740c2"/>
</svg>
