<svg id="ico-cloud-01" xmlns="http://www.w3.org/2000/svg" xmlns:xlink="http://www.w3.org/1999/xlink" width="28" height="28" viewBox="0 0 28 28">
  <defs>
    <clipPath id="clip-path">
      <rect id="사각형_343" data-name="사각형 343" width="28" height="28" fill="#1740c2"/>
    </clipPath>
  </defs>
  <g id="그룹_557" data-name="그룹 557" clip-path="url(#clip-path)">
    <path id="패스_623" data-name="패스 623" d="M22.167,16.333a5.819,5.819,0,0,0-5.149,3.149l-5.4-1.541c.012-.148.044-.291.044-.441a5.751,5.751,0,0,0-.718-2.744l5.263-4.386a5.78,5.78,0,0,0,3.621,1.3A5.833,5.833,0,1,0,14,5.833a5.751,5.751,0,0,0,.717,2.744L9.455,12.963a5.775,5.775,0,0,0-3.621-1.3,5.833,5.833,0,1,0,5.147,8.518l5.4,1.542c-.012.147-.044.289-.044.44a5.833,5.833,0,1,0,5.833-5.833m-2.333-14a3.5,3.5,0,1,1-3.5,3.5,3.5,3.5,0,0,1,3.5-3.5M5.833,21a3.5,3.5,0,1,1,3.5-3.5,3.5,3.5,0,0,1-3.5,3.5m16.333,4.667a3.5,3.5,0,1,1,3.5-3.5,3.5,3.5,0,0,1-3.5,3.5" transform="translate(0 0)" fill="#1740c2"/>
  </g>
</svg>
