<svg id="ico-cloud-02" xmlns="http://www.w3.org/2000/svg" xmlns:xlink="http://www.w3.org/1999/xlink" width="32" height="24.02" viewBox="0 0 32 24.02">
  <defs>
    <clipPath id="clip-path">
      <rect id="사각형_344" data-name="사각형 344" width="32" height="24.02" fill="#1740c2"/>
    </clipPath>
  </defs>
  <g id="그룹_559" data-name="그룹 559" clip-path="url(#clip-path)">
    <path id="패스_624" data-name="패스 624" d="M16.835,14.38a8.007,8.007,0,1,0-9.652,0A12.206,12.206,0,0,0,0,24.02H2.7a9.517,9.517,0,0,1,9.313-8.007,9.5,9.5,0,0,1,9.3,8.007h2.7a12.2,12.2,0,0,0-7.171-9.64M6.672,8.007a5.338,5.338,0,1,1,5.338,5.338A5.344,5.344,0,0,1,6.672,8.007" fill="#1740c2"/>
    <path id="패스_625" data-name="패스 625" d="M22.556,13.876a7.783,7.783,0,0,0,1.681-4.871A8.01,8.01,0,0,0,15.27,1.064a10.7,10.7,0,0,1,.961,1.441A9.022,9.022,0,0,1,16.8,3.693a5.343,5.343,0,0,1,2.669,9.555A1.455,1.455,0,0,0,18.9,14.4v.053A1.392,1.392,0,0,0,19.994,15.8a5.362,5.362,0,0,1,4.257,5.219h2.642a8.033,8.033,0,0,0-4.337-7.139" transform="translate(5.107 0.336)" fill="#1740c2"/>
  </g>
</svg>
