<svg id="ico-server-02" xmlns="http://www.w3.org/2000/svg" xmlns:xlink="http://www.w3.org/1999/xlink" width="26.667" height="32" viewBox="0 0 26.667 32">
  <defs>
    <clipPath id="clip-path">
      <rect id="사각형_300" data-name="사각형 300" width="26.667" height="32" fill="#1740c2"/>
    </clipPath>
  </defs>
  <g id="그룹_464" data-name="그룹 464" clip-path="url(#clip-path)">
    <path id="패스_577" data-name="패스 577" d="M14.667,0H12V8h2.667ZM9.333,21.333A3.993,3.993,0,0,0,12,25.088V32h2.667V25.088a3.993,3.993,0,0,0,2.667-3.755v-12h-8ZM12,12h2.667v9.333a1.333,1.333,0,1,1-2.667,0ZM5.333,0H2.667V8H5.333ZM0,21.333a3.993,3.993,0,0,0,2.667,3.755V32H5.333V25.088A3.993,3.993,0,0,0,8,21.333v-12H0ZM2.667,12H5.333v9.333a1.333,1.333,0,1,1-2.667,0ZM24,0H21.333V8H24ZM18.667,9.333v12a3.993,3.993,0,0,0,2.667,3.755V32H24V25.088a3.993,3.993,0,0,0,2.667-3.755v-12Zm5.333,12a1.333,1.333,0,1,1-2.667,0V12H24Z" fill="#1740c2"/>
  </g>
</svg>
