<svg xmlns="http://www.w3.org/2000/svg" xmlns:xlink="http://www.w3.org/1999/xlink" width="32" height="32" viewBox="0 0 45 45">
  <defs>
    <clipPath id="clip-path">
      <rect id="사각형_339" data-name="사각형 339" width="45" height="45" fill="#1740c2"/>
    </clipPath>
  </defs>
  <g id="그룹_546" data-name="그룹 546" transform="translate(0 0)">
    <rect id="사각형_338" data-name="사각형 338" width="18.562" height="3.75" transform="translate(28.675 15.548) rotate(-45)" fill="#1740c2"/>
    <g id="그룹_545" data-name="그룹 545" transform="translate(0 0)">
      <g id="그룹_544" data-name="그룹 544" clip-path="url(#clip-path)">
        <path id="패스_618" data-name="패스 618" d="M21.235,17.107,8.462,29.88a2.226,2.226,0,0,1-3.077,0,2.18,2.18,0,0,1,0-3.077l12.7-12.7a10.229,10.229,0,0,0-3.46-1.843L2.734,24.152a5.925,5.925,0,1,0,8.38,8.38L23.886,19.759Z" transform="translate(0.876 10.732)" fill="#1740c2"/>
        <path id="패스_619" data-name="패스 619" d="M39.373,45a6.255,6.255,0,0,1-4.483-1.729L18.464,26.843A8.382,8.382,0,0,0,12.5,24.372l-.317,0a12.427,12.427,0,0,1-3.038-.381,12.175,12.175,0,0,1-8.123-16.7l.608-1.388a.861.861,0,0,1,1.41-.251l6.8,7.06a2.077,2.077,0,0,0,2.9.026,2.028,2.028,0,0,0-.026-2.9l-7.05-6.8a.861.861,0,0,1,.251-1.41l1.384-.608a12.176,12.176,0,0,1,16.7,8.11,12.419,12.419,0,0,1,.381,3.242,8.466,8.466,0,0,0,2.471,6.085L43.271,34.891A6.09,6.09,0,0,1,45,39.375,5.926,5.926,0,0,1,39.373,45M12.5,20.622a12.107,12.107,0,0,1,8.612,3.57L37.545,40.62a2.57,2.57,0,0,0,1.828.63,1.917,1.917,0,0,0,1.266-.649,1.883,1.883,0,0,0,.611-1.226,2.314,2.314,0,0,0-.63-1.832L24.191,21.115a12.241,12.241,0,0,1-3.568-8.8,8.619,8.619,0,0,0-.268-2.265,8.375,8.375,0,0,0-6.237-6.087A8.8,8.8,0,0,0,11.8,3.757l3.514,3.388a5.78,5.78,0,0,1,.073,8.247,5.915,5.915,0,0,1-8.248-.077L3.76,11.805a8.743,8.743,0,0,0,.206,2.316,8.376,8.376,0,0,0,6.094,6.235,8.707,8.707,0,0,0,2.126.268Z" transform="translate(0 0)" fill="#1740c2"/>
      </g>
    </g>
  </g>
</svg>
