<svg xmlns="http://www.w3.org/2000/svg" xmlns:xlink="http://www.w3.org/1999/xlink" width="32" height="32.019" viewBox="0 0 32 32.019">
  <defs>
    <clipPath id="clip-path">
      <rect id="사각형_333" data-name="사각형 333" width="32" height="32.019" fill="#1740c2"/>
    </clipPath>
  </defs>
  <g id="ico-map-02" clip-path="url(#clip-path)">
    <path id="패스_611" data-name="패스 611" d="M1.333,21.352H2.667V20.019H4V18.685H2.667V17.352H1.333v1.333H0v1.333H1.333ZM30.841,1.172A3.971,3.971,0,0,0,28.016,0a4.022,4.022,0,0,0-2.828,1.171L19.217,7.141,21.1,9.027l5.972-5.969a1.33,1.33,0,0,1,.941-.391,1.313,1.313,0,0,1,.939.392,1.333,1.333,0,0,1,0,1.885l-5.967,5.969L24.875,12.8l5.968-5.969A3.963,3.963,0,0,0,32,4a3.984,3.984,0,0,0-1.159-2.829M4,14.685H5.333V13.352H6.667V12.019H5.333V10.685H4v1.333H2.667v1.333H4ZM1.169,25.192a4,4,0,0,0,5.656,5.656L22.989,14.684,17.333,9.027ZM19.219,14.684,4.941,28.963A1.34,1.34,0,0,1,4,29.352a1.306,1.306,0,0,1-.94-.389,1.329,1.329,0,0,1,0-1.885L17.336,12.8ZM14.667,28.019H13.333v1.333H12v1.333h1.333v1.333h1.333V30.685H16V29.352H14.667Z" transform="translate(0 0)" fill="#1740c2"/>
  </g>
</svg>
