<svg id="save" xmlns="http://www.w3.org/2000/svg" width="13.955" height="14.306" viewBox="0 0 13.955 14.306">
    <defs>
        <style>
            .cls-1{fill:#6b6b6b}
        </style>
    </defs>
    <g id="그룹_3453" data-name="그룹 3453" transform="translate(3.114)">
        <g id="그룹_3451" data-name="그룹 3451" transform="translate(0 4.154)">
            <path id="패스_7946" data-name="패스 7946" class="cls-1" d="M1028.069 763.628a.6.6 0 0 1-.357-.116l-3.256-2.369a.607.607 0 1 1 .713-.982l2.9 2.109 2.9-2.109a.607.607 0 0 1 .714.982l-3.257 2.369a.61.61 0 0 1-.357.116z" transform="translate(-1024.206 -760.045)"/>
        </g>
        <g id="그룹_3452" data-name="그룹 3452" transform="translate(3.257)">
            <path id="패스_7947" data-name="패스 7947" class="cls-1" d="M1030.181 760.935a.607.607 0 0 1-.607-.607v-6.523a.607.607 0 1 1 1.213 0v6.523a.607.607 0 0 1-.607.607z" transform="translate(-1029.574 -753.199)"/>
        </g>
    </g>
    <g id="그룹_3454" data-name="그룹 3454" transform="translate(0 8.798)">
        <path id="패스_7948" data-name="패스 7948" class="cls-1" d="M1032.421 773.209h-12.74a.606.606 0 0 1-.607-.607v-4.295a.606.606 0 0 1 .607-.607h3.943a.607.607 0 0 1 .607.607v.858h3.64v-.858a.606.606 0 0 1 .607-.607h3.943a.607.607 0 0 1 .607.607v4.293a.606.606 0 0 1-.607.607zM1020.287 772h11.527v-3.081h-2.73v.251a1.214 1.214 0 0 1-1.213 1.213h-3.64a1.215 1.215 0 0 1-1.213-1.213v-.251h-2.73V772z" transform="translate(-1019.074 -767.701)"/>
    </g>
    <g id="그룹_3459" data-name="그룹 3459" transform="translate(.001 6.269)">
        <g id="그룹_3456" data-name="그룹 3456">
            <g id="그룹_3455" data-name="그룹 3455">
                <path id="패스_7949" data-name="패스 7949" class="cls-1" d="M1019.681 767.274a.606.606 0 0 1-.435-1.029l2.452-2.53a.607.607 0 1 1 .871.844l-2.452 2.53a.606.606 0 0 1-.436.184z" transform="translate(-1019.075 -763.531)"/>
            </g>
        </g>
        <g id="그룹_3458" data-name="그룹 3458" transform="translate(10.288)">
            <g id="그룹_3457" data-name="그룹 3457">
                <path id="패스_7950" data-name="패스 7950" class="cls-1" d="M1039.091 767.274a.6.6 0 0 1-.435-.184l-2.453-2.53a.607.607 0 1 1 .871-.844l2.453 2.53a.607.607 0 0 1-.436 1.029z" transform="translate(-1036.032 -763.531)"/>
            </g>
        </g>
    </g>
</svg>
