<svg xmlns="http://www.w3.org/2000/svg" width="15.073" height="15.073" viewBox="0 0 15.073 15.073">
    <path data-name="패스 8862" d="M0 0h15.073v15.073H0z" style="fill:none"/>
    <path data-name="패스 8863" d="M2 6.765A3.762 3.762 0 0 1 5.768 3h5.024a3.771 3.771 0 0 1 3.768 3.765v7.54H5.768A3.771 3.771 0 0 1 2 10.54zm11.305 6.284V6.765a2.515 2.515 0 0 0-2.512-2.508H5.768a2.506 2.506 0 0 0-2.512 2.508v3.775a2.515 2.515 0 0 0 2.512 2.508zM9.537 8.024h1.256v1.257H9.537zm-3.768 0h1.255v1.257H5.768z" transform="translate(-.744 -1.116)" style="fill:#141414"/>
</svg>
