<svg xmlns="http://www.w3.org/2000/svg" width="14.387" height="14.386" viewBox="0 0 14.387 14.386">
    <defs>
        <style>
            .cls-1{fill:#d8250e;stroke:#d8250e;stroke-width:.7px}
        </style>
    </defs>
    <g id="그룹_5348" data-name="그룹 5348" transform="translate(.35 .35)">
        <path id="패스_8222" data-name="패스 8222" class="cls-1" d="M333.729 214.055a2.7 2.7 0 1 1 2.7-2.7 2.7 2.7 0 0 1-2.7 2.7m0-4.853a2.153 2.153 0 1 0 2.153 2.153 2.155 2.155 0 0 0-2.153-2.153" transform="translate(-326.916 -206.062)"/>
        <path id="패스_8223" data-name="패스 8223" class="cls-1" d="M232.524 602.595a.274.274 0 0 1-.262-.193 3.714 3.714 0 0 0-7.036-.166.274.274 0 1 1-.515-.187 4.262 4.262 0 0 1 8.074.19.274.274 0 0 1-.18.343.278.278 0 0 1-.081.012" transform="translate(-221.903 -591.799)"/>
        <path id="패스_8224" data-name="패스 8224" class="cls-1" d="M6.843 13.684a6.843 6.843 0 1 1 6.843-6.843 6.851 6.851 0 0 1-6.843 6.843m0-13.139a6.3 6.3 0 1 0 6.3 6.3 6.3 6.3 0 0 0-6.3-6.3" transform="translate(0 .002)"/>
    </g>
</svg>
