<svg xmlns="http://www.w3.org/2000/svg" width="15.202" height="15.202" viewBox="0 0 15.202 15.202">
    <path data-name="패스 8864" d="M0 0h15.2v15.2H0z" style="fill:none"/>
    <path data-name="패스 8865" d="M9.615 5.3h4.054a1.267 1.267 0 0 1 1.267 1.267V7.9a1.267 1.267 0 0 1-.1.483l-1.96 4.76a.633.633 0 0 1-.586.392H1.633A.633.633 0 0 1 1 12.9V6.568a.633.633 0 0 1 .633-.633h2.206a.633.633 0 0 0 .518-.268L7.811.772a.317.317 0 0 1 .4-.1l1.149.575a1.584 1.584 0 0 1 .827 1.807zM4.8 6.941v5.328h7.07l1.8-4.368V6.568H9.615a1.267 1.267 0 0 1-1.228-1.579l.572-2.247a.317.317 0 0 0-.165-.362l-.419-.209L5.392 6.4a1.911 1.911 0 0 1-.591.543zM3.534 7.2H2.267v5.067h1.267z" transform="translate(-.367 -.234)" style="fill:#141414"/>
</svg>
