<svg xmlns="http://www.w3.org/2000/svg" width="41" height="34" viewBox="0 0 41 34">
  <g id="그룹_4715" data-name="그룹 4715" transform="translate(-1633 -1356)">
    <path id="사각형_3896" data-name="사각형 3896" d="M0,0H39a2,2,0,0,1,2,2V32a2,2,0,0,1-2,2H0a0,0,0,0,1,0,0V0A0,0,0,0,1,0,0Z" transform="translate(1633 1356)" fill="#fff"/>
    <rect id="사각형_2122" data-name="사각형 2122" width="1" height="32" transform="translate(1633 1357)" fill="#ececec"/>
    <g id="calendar-2-line" transform="translate(1642 1362)">
      <path id="패스_8172" data-name="패스 8172" d="M0,0H24V24H0Z" fill="none"/>
      <g id="그룹_4711" data-name="그룹 4711" transform="translate(0 1)">
        <g id="사각형_3886" data-name="사각형 3886" transform="translate(2 4)" fill="none" stroke="#6b6b6b" stroke-width="1.4">
          <rect width="20" height="16" rx="2" stroke="none"/>
          <rect x="0.7" y="0.7" width="18.6" height="14.6" rx="1.3" fill="none"/>
        </g>
        <g id="사각형_3887" data-name="사각형 3887" transform="translate(7 1)" fill="#fff" stroke="#6b6b6b" stroke-width="1">
          <rect width="2" height="6" stroke="none"/>
          <rect x="0.5" y="0.5" width="1" height="5" fill="none"/>
        </g>
        <g id="사각형_3888" data-name="사각형 3888" transform="translate(15 1)" fill="#fff" stroke="#6b6b6b" stroke-width="1">
          <rect width="2" height="6" stroke="none"/>
          <rect x="0.5" y="0.5" width="1" height="5" fill="none"/>
        </g>
        <g id="사각형_3889" data-name="사각형 3889" transform="translate(3 9)" fill="#fff" stroke="#6b6b6b" stroke-width="1">
          <rect width="18" height="1.4" stroke="none"/>
          <rect x="0.5" y="0.5" width="17" height="0.4" fill="none"/>
        </g>
        <g id="사각형_3890" data-name="사각형 3890" transform="translate(6 14)" fill="#fff" stroke="#6b6b6b" stroke-width="1">
          <rect width="2" height="2" stroke="none"/>
          <rect x="0.5" y="0.5" width="1" height="1" fill="none"/>
        </g>
        <g id="사각형_3891" data-name="사각형 3891" transform="translate(11 14)" fill="#fff" stroke="#6b6b6b" stroke-width="1">
          <rect width="2" height="2" stroke="none"/>
          <rect x="0.5" y="0.5" width="1" height="1" fill="none"/>
        </g>
        <g id="사각형_3892" data-name="사각형 3892" transform="translate(16 14)" fill="#fff" stroke="#6b6b6b" stroke-width="1">
          <rect width="2" height="2" stroke="none"/>
          <rect x="0.5" y="0.5" width="1" height="1" fill="none"/>
        </g>
      </g>
    </g>
  </g>
</svg>
