<svg xmlns="http://www.w3.org/2000/svg" width="16.62" height="14.025" viewBox="0 0 16.62 14.025">
    <defs>
        <style>
            .cls-1{fill:#11698e;stroke:#11698e;stroke-width:.4px}
        </style>
    </defs>
    <g id="print_hover" transform="translate(.2 .2)">
        <g id="그룹_3461" data-name="그룹 3461">
            <path id="패스_7951" data-name="패스 7951" class="cls-1" d="M266.923 123.244H265.3v-2.271a.974.974 0 0 0-.973-.973h-8.435a.974.974 0 0 0-.973.973v2.271H253.3a1.3 1.3 0 0 0-1.3 1.3v5.191a1.3 1.3 0 0 0 1.3 1.3h1.622v1.622a.974.974 0 0 0 .973.973h8.435a.974.974 0 0 0 .973-.973v-1.627h1.622a1.3 1.3 0 0 0 1.3-1.3v-5.191a1.3 1.3 0 0 0-1.302-1.295zm-11.354-2.271a.325.325 0 0 1 .324-.324h8.435a.325.325 0 0 1 .324.324v2.271h-9.083zm9.083 11.679a.325.325 0 0 1-.324.324h-8.435a.325.325 0 0 1-.324-.324v-4.217h9.083zm2.92-2.92a.65.65 0 0 1-.649.649H265.3v-1.946a.65.65 0 0 0-.649-.649h-9.083a.65.65 0 0 0-.649.649v1.946H253.3a.65.65 0 0 1-.649-.649v-5.191a.65.65 0 0 1 .649-.649h13.625a.65.65 0 0 1 .649.649z" transform="translate(-252 -120)"/>
            <path id="패스_7952" data-name="패스 7952" class="cls-1" d="M267.324 150.649h5.839a.324.324 0 0 0 0-.649h-5.839a.324.324 0 0 0 0 .649z" transform="translate(-262.134 -140.475)"/>
            <path id="패스_7953" data-name="패스 7953" class="cls-1" d="M267.324 154.649h4.217a.324.324 0 0 0 0-.649h-4.217a.324.324 0 1 0 0 .649z" transform="translate(-262.134 -142.97)"/>
        </g>
        <circle id="타원_53" data-name="타원 53" class="cls-1" cx=".5" cy=".5" r=".5" transform="translate(12.165 4.936)"/>
    </g>
</svg>
