<svg id="icon" xmlns="http://www.w3.org/2000/svg" xmlns:xlink="http://www.w3.org/1999/xlink" width="68.409" height="70" viewBox="0 0 68.409 70">
  <defs>
    <clipPath id="clip-path">
      <rect id="사각형_11" data-name="사각형 11" width="68.409" height="70" fill="none" stroke="#fff" stroke-width="2.5"/>
    </clipPath>
  </defs>
  <g id="그룹_9" data-name="그룹 9">
    <g id="그룹_8" data-name="그룹 8" clip-path="url(#clip-path)">
      <path id="패스_12" data-name="패스 12" d="M55.727,28.682V14.364L49.363,8H8V68.455H30.273" transform="translate(-6.409 -6.409)" fill="none" stroke="#fff" stroke-linecap="round" stroke-linejoin="round" stroke-width="2.5"/>
    </g>
  </g>
  <path id="패스_13" data-name="패스 13" d="M200,32v4.773h4.773" transform="translate(-160.227 -25.636)" fill="none" stroke="#fff" stroke-linecap="round" stroke-linejoin="round" stroke-width="2.5"/>
  <line id="선_19" data-name="선 19" y2="9.545" transform="translate(9.545 46.136)" fill="none" stroke="#fff" stroke-linejoin="round" stroke-width="2.5"/>
  <line id="선_20" data-name="선 20" y2="14.318" transform="translate(22.273 41.364)" fill="none" stroke="#fff" stroke-linejoin="round" stroke-width="2.5"/>
  <line id="선_21" data-name="선 21" y2="17.5" transform="translate(15.909 38.182)" fill="none" stroke="#fff" stroke-linejoin="round" stroke-width="2.5"/>
  <g id="그룹_11" data-name="그룹 11">
    <g id="그룹_10" data-name="그룹 10" clip-path="url(#clip-path)">
      <path id="패스_14" data-name="패스 14" d="M63.955,72A7.955,7.955,0,1,1,56,79.955" transform="translate(-44.864 -57.682)" fill="none" stroke="#fff" stroke-linejoin="round" stroke-width="2.5"/>
      <path id="패스_15" data-name="패스 15" d="M40,63.955A7.955,7.955,0,0,1,47.955,56v7.955Z" transform="translate(-32.045 -44.864)" fill="none" stroke="#fff" stroke-linejoin="round" stroke-width="2.5"/>
      <line id="선_22" data-name="선 22" x2="9.545" transform="translate(33.409 19.091)" fill="none" stroke="#fff" stroke-linecap="round" stroke-linejoin="round" stroke-width="2.5"/>
      <line id="선_23" data-name="선 23" x2="4.773" transform="translate(33.409 25.455)" fill="none" stroke="#fff" stroke-linecap="round" stroke-linejoin="round" stroke-width="2.5"/>
      <ellipse id="타원_5" data-name="타원 5" cx="11.136" cy="4.773" rx="11.136" ry="4.773" transform="translate(30.227 42.955)" fill="none" stroke="#fff" stroke-linecap="round" stroke-linejoin="round" stroke-width="2.5"/>
      <path id="패스_16" data-name="패스 16" d="M174.273,240v7.955c0,2.636-4.986,4.773-11.136,4.773S152,250.59,152,247.955V240" transform="translate(-121.773 -192.273)" fill="none" stroke="#fff" stroke-linecap="round" stroke-linejoin="round" stroke-width="2.5"/>
      <path id="패스_17" data-name="패스 17" d="M152,280v7.955c0,2.636,4.986,4.773,11.136,4.773s11.136-2.137,11.136-4.773V280" transform="translate(-121.773 -224.318)" fill="none" stroke="#fff" stroke-linecap="round" stroke-linejoin="round" stroke-width="2.5"/>
      <path id="패스_18" data-name="패스 18" d="M297.55,200v7.955c0,2.4-4.148,4.393-9.544,4.724" transform="translate(-230.732 -160.227)" fill="none" stroke="#fff" stroke-linecap="round" stroke-linejoin="round" stroke-width="2.5"/>
      <ellipse id="타원_6" data-name="타원 6" cx="11.136" cy="4.773" rx="11.136" ry="4.773" transform="translate(44.545 27.045)" fill="none" stroke="#fff" stroke-linecap="round" stroke-linejoin="round" stroke-width="2.5"/>
      <line id="선_24" data-name="선 24" y1="6.364" transform="translate(44.545 31.818)" fill="none" stroke="#fff" stroke-linecap="round" stroke-linejoin="round" stroke-width="2.5"/>
      <path id="패스_19" data-name="패스 19" d="M295.14,160v7.955c0,2.492-4.458,4.538-10.143,4.754" transform="translate(-228.321 -128.182)" fill="none" stroke="#fff" stroke-linecap="round" stroke-linejoin="round" stroke-width="2.5"/>
      <path id="패스_20" data-name="패스 20" d="M287.99,252.679c5.4-.331,9.547-2.32,9.547-4.725V240" transform="translate(-230.719 -192.273)" fill="none" stroke="#fff" stroke-linecap="round" stroke-linejoin="round" stroke-width="2.5"/>
    </g>
  </g>
</svg>
