<svg id="icon" xmlns="http://www.w3.org/2000/svg" xmlns:xlink="http://www.w3.org/1999/xlink" width="69.89" height="70" viewBox="0 0 69.89 70">
  <defs>
    <clipPath id="clip-path">
      <rect id="사각형_9" data-name="사각형 9" width="69.89" height="70" fill="none" stroke="#fff" stroke-width="2.5"/>
    </clipPath>
  </defs>
  <g id="그룹_5" data-name="그룹 5">
    <g id="그룹_4" data-name="그룹 4" clip-path="url(#clip-path)">
      <line id="선_8" data-name="선 8" x2="11.978" y2="17.38" transform="translate(48.183 51.794)" fill="none" stroke="#fff" stroke-miterlimit="10" stroke-width="2.5"/>
      <line id="선_9" data-name="선 9" x1="11.978" y2="17.38" transform="translate(9.729 51.794)" fill="none" stroke="#fff" stroke-miterlimit="10" stroke-width="2.5"/>
      <line id="선_10" data-name="선 10" x2="46.593" transform="translate(11.648 65.521)" fill="none" stroke="#fff" stroke-linejoin="round" stroke-width="2.5"/>
    </g>
  </g>
  <line id="선_11" data-name="선 11" x2="37.857" transform="translate(16.016 59.697)" fill="none" stroke="#fff" stroke-linejoin="round" stroke-width="2.5"/>
  <line id="선_12" data-name="선 12" y1="5.824" transform="translate(34.945 48.049)" fill="none" stroke="#fff" stroke-miterlimit="10" stroke-width="2.5"/>
  <line id="선_13" data-name="선 13" y1="5.824" transform="translate(40.769 48.049)" fill="none" stroke="#fff" stroke-miterlimit="10" stroke-width="2.5"/>
  <line id="선_14" data-name="선 14" y1="5.824" transform="translate(29.121 48.049)" fill="none" stroke="#fff" stroke-miterlimit="10" stroke-width="2.5"/>
  <g id="그룹_7" data-name="그룹 7">
    <g id="그룹_6" data-name="그룹 6" clip-path="url(#clip-path)">
      <path id="패스_8" data-name="패스 8" d="M154.468,69.543a62.625,62.625,0,0,1,22.356,0,2.917,2.917,0,0,1,2.286,2.309l2.419,12.5a2.184,2.184,0,0,1-2.524,2.566l-4.5-.794a50.962,50.962,0,0,0-17.728,0l-3.453.61a2.912,2.912,0,0,1-3.366-3.421l2.218-11.456A2.917,2.917,0,0,1,154.468,69.543Z" transform="translate(-130.701 -59.756)" fill="none" stroke="#fff" stroke-linejoin="round" stroke-width="2.5"/>
      <line id="선_15" data-name="선 15" y2="16.016" transform="translate(34.945 10.192)" fill="none" stroke="#fff" stroke-linejoin="round" stroke-width="2.5"/>
      <line id="선_16" data-name="선 16" y2="8.736" transform="translate(34.945 45.137)" fill="none" stroke="#fff" stroke-miterlimit="10" stroke-width="2.5"/>
      <line id="선_17" data-name="선 17" y2="8.736" transform="translate(40.769 45.137)" fill="none" stroke="#fff" stroke-miterlimit="10" stroke-width="2.5"/>
      <line id="선_18" data-name="선 18" y2="8.736" transform="translate(29.121 45.137)" fill="none" stroke="#fff" stroke-miterlimit="10" stroke-width="2.5"/>
      <path id="패스_9" data-name="패스 9" d="M106.531,63.826a68.988,68.988,0,0,1-9.034-.663C87.291,61.784,80.44,51.34,82.46,41.241l4.264-21.32A10.767,10.767,0,0,1,97,11.471c1.078-.042,3.255-.107,5.784-.107h7.486c2.529,0,4.706.064,5.784.107a10.757,10.757,0,0,1,10.28,8.439L130.6,41.235c2.02,10.1-4.831,20.546-15.037,21.925A69.015,69.015,0,0,1,106.531,63.826Z" transform="translate(-71.586 -9.908)" fill="none" stroke="#fff" stroke-miterlimit="10" stroke-width="2.5"/>
      <path id="패스_10" data-name="패스 10" d="M348.111,233.465a48.815,48.815,0,0,0,6.876-1.793,10.486,10.486,0,0,0,6.9-11.979" transform="translate(-303.507 -191.543)" fill="none" stroke="#fff" stroke-miterlimit="10" stroke-width="2.5"/>
      <path id="패스_11" data-name="패스 11" d="M102.217,233.465a48.81,48.81,0,0,1-6.876-1.793,10.486,10.486,0,0,1-6.9-11.979" transform="translate(-76.931 -191.543)" fill="none" stroke="#fff" stroke-miterlimit="10" stroke-width="2.5"/>
    </g>
  </g>
</svg>
