<svg id="한글파일" xmlns="http://www.w3.org/2000/svg" width="50" height="48.267" viewBox="0 0 50 48.267">
  <g id="icon">
    <path id="패스_485" data-name="패스 485" d="M67.667,0H45.217A3.787,3.787,0,0,0,41.43,3.787v37.43A3.787,3.787,0,0,0,45.217,45H75.4a3.787,3.787,0,0,0,3.787-3.787v-29.7Z" transform="translate(-34.507)" fill="#e6e6e6"/>
    <path id="패스_486" data-name="패스 486" d="M202.223,11.514a3.787,3.787,0,0,1-3.787-3.787V0L209.95,11.514Z" transform="translate(-165.275)" fill="#b3b3b3"/>
    <rect id="사각형_177" data-name="사각형 177" width="29.091" height="16.69" transform="translate(0 11.613)" fill="#3bb0ff"/>
    <path id="패스_487" data-name="패스 487" d="M0,169.364l6.9,5.512v-5.512Z" transform="translate(0 -141.061)" fill="#2485bc"/>
    <path id="패스_488" data-name="패스 488" d="M198.022,177.5a10.15,10.15,0,1,1-10.15-10.15,10.15,10.15,0,0,1,10.15,10.15" transform="translate(-148.022 -139.384)" fill="#0c196f"/>
    <path id="패스_489" data-name="패스 489" d="M219.2,231.262l-4.834,6.074-4.834-6.074Z" transform="translate(-174.518 -192.616)" fill="#fff"/>
    <rect id="사각형_178" data-name="사각형 178" width="3.677" height="6.181" transform="translate(38.011 33.264)" fill="#fff"/>
    <path id="패스_490" data-name="패스 490" d="M19.6,95.717h2.918a3.683,3.683,0,0,1,3.927,4.051c0,2.727-1.478,4.407-4.017,4.407H19.6Zm1.519,7.252h1.278c1.65,0,2.483-1.2,2.483-3.174,0-1.707-.84-2.855-2.471-2.855H21.116Z" transform="translate(-16.322 -79.722)" fill="#fff"/>
    <path id="패스_491" data-name="패스 491" d="M75.181,99.329c0,2.424-1.182,4.4-3.8,4.4-2.528,0-3.689-1.957-3.689-4.4,0-2.159,1.179-4.3,3.8-4.3,2.479,0,3.685,1.948,3.685,4.3m-5.921-.011c0,1.778.724,3.185,2.189,3.185,1.576,0,2.18-1.351,2.18-3.168,0-1.68-.614-3.085-2.2-3.085-1.52,0-2.17,1.361-2.17,3.068" transform="translate(-56.382 -79.148)" fill="#fff"/>
    <path id="패스_492" data-name="패스 492" d="M126.53,101.011a3.094,3.094,0,0,1-3.308,2.713c-2.606,0-3.591-1.919-3.591-4.366,0-2.332,1.189-4.331,3.659-4.331a2.9,2.9,0,0,1,3.2,2.712H125a1.642,1.642,0,0,0-1.761-1.487c-1.507,0-2.05,1.488-2.05,3.095,0,1.649.487,3.158,2.07,3.158a1.727,1.727,0,0,0,1.776-1.5Z" transform="translate(-99.639 -79.147)" fill="#fff"/>
  </g>
</svg>
