<svg xmlns="http://www.w3.org/2000/svg" width="240" height="160" viewBox="0 0 240 160">
  <g id="no-image" transform="translate(-861 -211)">
    <rect id="사각형_9231" data-name="사각형 9231" width="240" height="160" rx="10" transform="translate(861 211)" fill="#f5f5f5"/>
    <g id="logo" transform="translate(920.099 266.496)">
      <g id="logo_로컬" transform="translate(12.118 0)">
        <g id="그룹_3900" data-name="그룹 3900">
          <g id="그룹_3898" data-name="그룹 3898" transform="translate(2.995)">
            <g id="그룹_3897" data-name="그룹 3897" opacity="0.15">
              <g id="그룹_3896" data-name="그룹 3896">
                <g id="그룹_3895" data-name="그룹 3895">
                  <g id="그룹_3894" data-name="그룹 3894">
                    <g id="그룹_3892" data-name="그룹 3892">
                      <path id="패스_10506" data-name="패스 10506" d="M161.658,112.32a2.261,2.261,0,0,0-3.148.569c-.024.035-.048.07-.07.107a2.265,2.265,0,0,1-4.093-.622h0l-.006-.024a.123.123,0,0,0-.007-.029,2.937,2.937,0,0,1-.116-.9c0-2.029,2.082-4.288,5.08-4.288a5.716,5.716,0,0,1,5.28,3.636c-.008-.022-.015-.046-.023-.068a6.466,6.466,0,0,0-12.582,2.1,5.667,5.667,0,0,0,5.5,5.924,5.193,5.193,0,0,0,5.043-3.4A2.491,2.491,0,0,0,161.658,112.32Z" transform="translate(-151.973 -106.332)" fill="#0e233d"/>
                    </g>
                    <g id="그룹_3893" data-name="그룹 3893" transform="translate(2.243 0.802)">
                      <path id="패스_10507" data-name="패스 10507" d="M165.674,111.274a5.7,5.7,0,0,0-5.32-3.762c-3,0-5.08,2.259-5.08,4.288a2.937,2.937,0,0,0,.116.9,1.92,1.92,0,0,1-.059-.461c0-2.113,2.115-3.577,4.291-3.577a5.329,5.329,0,0,1,5.331,5.33h0a5.875,5.875,0,0,1-3.258,5.265h0a6.466,6.466,0,0,0,4.264-6.08A6.37,6.37,0,0,0,165.674,111.274Z" transform="translate(-155.273 -107.512)" fill="#ce0019"/>
                    </g>
                  </g>
                </g>
              </g>
            </g>
          </g>
          <g id="그룹_3899" data-name="그룹 3899" transform="translate(0 15.81)">
            <path id="패스_10508" data-name="패스 10508" d="M150.708,132v1.3h-.463V132.4H147.8V132h1.245v-.544h-1.479v-.4h3.415v.4H149.5V132Zm0-2.353v1.108h-.463v-.7h-2.4v-.408Z" transform="translate(-147.565 -129.614)" fill="#ddd"/>
            <path id="패스_10509" data-name="패스 10509" d="M156.439,131.987H155.23v.675h1.479v.4H153.3v-.4h1.475v-.675h-1.2v-2.174h2.862v.4h-2.408v.483h2.408v.4h-2.408v.488h2.416Z" transform="translate(-149.401 -129.667)" fill="#ddd"/>
            <path id="패스_10510" data-name="패스 10510" d="M159.832,132.661v-1.155h.437v1.155h.62v-1.155h.442v1.155h1.107v.4h-3.416v-.4Zm1.866-.654v-1.783h-2.4v-.412h2.866v2.195Z" transform="translate(-151.237 -129.667)" fill="#ddd"/>
            <path id="패스_10511" data-name="패스 10511" d="M168.1,131.681h-3.416V131.3h1.479v-.241h-1.2V129.6h2.861v.379h-2.412v.183h2.412v.346h-2.412v.188h2.42v.367h-1.212v.241H168.1Zm-.8.913a.756.756,0,0,1-.073.329.868.868,0,0,1-.194.266.979.979,0,0,1-.287.186.9.9,0,0,1-.349.068.922.922,0,0,1-.352-.068.984.984,0,0,1-.289-.186.871.871,0,0,1-.194-.266.766.766,0,0,1-.073-.329.756.756,0,0,1,.073-.328.877.877,0,0,1,.194-.264.958.958,0,0,1,.289-.186.9.9,0,0,1,.352-.068.877.877,0,0,1,.349.068.953.953,0,0,1,.287.186.854.854,0,0,1,.194.264.733.733,0,0,1,.073.327Zm-.446,0a.442.442,0,0,0-.136-.323.434.434,0,0,0-.325-.136.462.462,0,0,0-.463.458.435.435,0,0,0,.136.321.459.459,0,0,0,.785-.315v0Z" transform="translate(-153.05 -129.598)" fill="#ddd"/>
            <path id="패스_10512" data-name="패스 10512" d="M170.375,131.912h3.416v.408h-1.479v.958h-.463v-.958h-1.475Zm.729-1.816h1.954v-.471h.458v1.786H170.65v-1.786h.454Zm1.954.4H171.1v.512h1.954Z" transform="translate(-154.875 -129.607)" fill="#ddd"/>
          </g>
        </g>
        <g id="그룹_3901" data-name="그룹 3901" transform="translate(82.757 1.539)" opacity="0.15">
          <path id="패스_10513" data-name="패스 10513" d="M278.3,112.064a1.608,1.608,0,0,1-.684.938,1.008,1.008,0,0,0,.068-.363.641.641,0,0,0-1.236-.339.653.653,0,0,0,0,.339.818.818,0,0,0,.429.771,6.1,6.1,0,0,1-1.283.384c-.425.052-1.216.179-1.216.591,0,.355.976.4,1.023.408,1.046.165,1.079.79,1.087.856.039.446-.531,1.015-.59,1.081s-.151.212-.048.287a.257.257,0,0,0,.243,0,4.229,4.229,0,0,0,2.209-4.952" transform="translate(-270.962 -109.633)" fill="#0e233d"/>
          <path id="패스_10514" data-name="패스 10514" d="M279.292,112.444a1.162,1.162,0,0,0,.408-.787s-.187-.515-.524-.515c-.169,0-.178.131-.1.365a1.639,1.639,0,0,1,.221.937" transform="translate(-272.451 -109.412)" fill="#0e233d"/>
          <path id="패스_10515" data-name="패스 10515" d="M275.983,109.317a4.229,4.229,0,0,0-5.394.563,1.606,1.606,0,0,1,1.155.122,1.009,1.009,0,0,0-.347.124.641.641,0,1,0,.618,1.07.815.815,0,0,0,.453-.758,6.057,6.057,0,0,1,.974.919c.258.34.763.964,1.12.758.308-.178-.143-1.045-.16-1.087-.38-.989.144-1.329.2-1.368.367-.256,1.144-.048,1.231-.03s.259.024.272-.1a.253.253,0,0,0-.122-.211" transform="translate(-269.747 -108.597)" fill="#ce0019"/>
          <path id="패스_10516" data-name="패스 10516" d="M271.19,110.62a1.161,1.161,0,0,0-.883.042s-.353.42-.184.711c.084.145.2.088.368-.094s.3-.514.7-.66" transform="translate(-269.583 -109.223)" fill="#660b17"/>
          <path id="패스_10517" data-name="패스 10517" d="M272.073,116.292a1.047,1.047,0,0,0,.281.238.641.641,0,1,0,.618-1.07.814.814,0,0,0-.883-.014,6.119,6.119,0,0,1,.309-1.3c.166-.394.453-1.142.1-1.348-.308-.178-.834.646-.863.68-.667.824-1.223.54-1.284.511-.408-.19-.612-.966-.642-1.052s-.108-.236-.224-.185a.254.254,0,0,0-.121.211,4.231,4.231,0,0,0,3.184,4.39,1.61,1.61,0,0,1-.47-1.061" transform="translate(-269.349 -109.924)" fill="#548a22"/>
          <path id="패스_10518" data-name="패스 10518" d="M274.581,118.754a1.662,1.662,0,0,1-.922-.277,1.173,1.173,0,0,0,.479.747s.539.1.708-.2c.084-.146-.024-.22-.265-.272" transform="translate(-270.73 -111.763)" fill="#3e6321"/>
        </g>
        <g id="그룹_3624" data-name="그룹 3624" transform="translate(24.026 10.087)">
          <path id="패스_10519" data-name="패스 10519" d="M246.318,126.554l.186-1.068H256.3l-.445,1.068Zm1.155-1.427.182-1.049h1.57a.491.491,0,0,1-.136-.3,1.7,1.7,0,0,1,.028-.5l.044-.253h-1.418l.187-1.078H256.1l-.447,1.078h-1.228l-.044.253a1.427,1.427,0,0,1-.168.5.93.93,0,0,1-.277.3h1.653l-.442,1.049Zm-.47,3.186h6.225l.068-.379h-6.248l.181-1.04h7.831l-.42,2.418h-6.284a1.928,1.928,0,0,0-.063.2.127.127,0,0,0,.02.119.238.238,0,0,0,.143.06,2.4,2.4,0,0,0,.3.015h6.354l-.438,1.1h-6.484a2.118,2.118,0,0,1-1.413-.33.99.99,0,0,1-.119-1.049Zm3.676-4.915a1.2,1.2,0,0,0-.02.316.354.354,0,0,0,.079.194.41.41,0,0,0,.181.111,1.408,1.408,0,0,0,.279.058h.85a1.022,1.022,0,0,0,.5-.179.8.8,0,0,0,.228-.5l.068-.369h-2.09Z" transform="translate(-203.238 -121.424)" fill="#ddd"/>
          <path id="패스_10520" data-name="패스 10520" d="M262.1,126.8l.486-2.8h2.563a.964.964,0,0,0,.4-.077.68.68,0,0,0,.258-.194.563.563,0,0,0,.117-.262.7.7,0,0,0-.008-.292h-3.189l.181-1.04h4.453a3.173,3.173,0,0,1,.059,1.054,2.024,2.024,0,0,1-.33.913,1.905,1.905,0,0,1-.773.646,2.894,2.894,0,0,1-1.259.243h-1.1l-.136.787h3.52l-.531,1.019Zm5.824.535-.056.32a2.207,2.207,0,0,1-.3.758l3.478,1.331-.974,1.117-3.321-1.554a6.75,6.75,0,0,1-1.729.976,8.573,8.573,0,0,1-2.268.549l-.427-1.078a12.822,12.822,0,0,0,1.419-.247,6.086,6.086,0,0,0,1.217-.413,2.977,2.977,0,0,0,.887-.622,1.628,1.628,0,0,0,.44-.864l.047-.272Zm1.568-3.516h.839l.34-1.952h1.5l-1.06,6.1h-1.5l.531-3.058H269.3l-.345,1.982h-1.487l.86-4.954h1.488Z" transform="translate(-208.296 -121.396)" fill="#ddd"/>
          <path id="패스_10521" data-name="패스 10521" d="M283.4,125.453l-.1.592h4.18l-.462,1.166h-9.568l.2-1.166h4.1l.1-.592h-3.189l.182-1.049h1.57a.053.053,0,0,1-.026-.02.068.068,0,0,0-.015-.019.074.074,0,0,1-.023-.039.064.064,0,0,0-.022-.039.022.022,0,0,1-.009-.019.046.046,0,0,0-.007-.029l-.025-.058a1.36,1.36,0,0,1-.022-.209,1.3,1.3,0,0,1,.021-.257l.018-.107.086-.5h-1.416l.188-1.078h8.173l-.447,1.078h-1.228l-.086.5c-.009.051-.02.1-.031.145a1.262,1.262,0,0,1-.04.126.193.193,0,0,1-.012.039.134.134,0,0,0-.013.039l-.037.077c-.012.026-.024.048-.035.068l-.034.058a.089.089,0,0,0-.036.044.24.24,0,0,1-.026.043l-.029.029a.359.359,0,0,1-.068.068l-.081.058h1.653l-.447,1.049Zm1.286,2.185a6.913,6.913,0,0,1,.9.048,1.15,1.15,0,0,1,.556.2.615.615,0,0,1,.224.442,2.147,2.147,0,0,1-.1.768l-.442,1.661H279.24a1.752,1.752,0,0,1-1.307-.4,1.224,1.224,0,0,1-.136-1.223l.426-1.495Zm-.055,1.472c.049-.186.035-.3-.039-.346a1,1,0,0,0-.455-.068h-4.57l-.136.451a.437.437,0,0,0,.01.385c.06.083.213.126.457.126h4.592Zm-2.242-4.706h.9l.074-.02a.743.743,0,0,0,.277-.1.672.672,0,0,0,.136-.107.926.926,0,0,0,.068-.1.508.508,0,0,0,.081-.194.179.179,0,0,1,.012-.039.146.146,0,0,0,.013-.039l.015-.088.107-.612h-2.095l-.107.612-.03.175.012.136a.138.138,0,0,0,.01.077.164.164,0,0,0,.033.077l.029.039.031.028a.459.459,0,0,0,.229.107l.056.019Z" transform="translate(-213.213 -121.45)" fill="#ddd"/>
          <path id="패스_10522" data-name="패스 10522" d="M185.436,121.212h1.913l-2.514,9.186h-1.913Zm4.281,9.186a4.194,4.194,0,0,0-.336-1.472,5.361,5.361,0,0,0-.8-1.307,6.875,6.875,0,0,0-1.121-1.083,8.064,8.064,0,0,0-1.307-.824l5.669-4.5h2.2l-5.381,4.24a4.375,4.375,0,0,1,1.143.807,6.4,6.4,0,0,1,1,1.213,5.94,5.94,0,0,1,.669,1.443,3.841,3.841,0,0,1,.177,1.484Z" transform="translate(-182.922 -121.187)" fill="#ddd"/>
          <path id="패스_10523" data-name="패스 10523" d="M197.351,127.533h3.633l-.352,1.284H197Z" transform="translate(-187.433 -123.213)" fill="#ddd"/>
          <path id="패스_10524" data-name="패스 10524" d="M211.084,122.531a5.263,5.263,0,0,0-1.637.23,3.612,3.612,0,0,0-1.192.636,3.446,3.446,0,0,0-.806.96,5.238,5.238,0,0,0-.491,1.2l-.133.482a5.78,5.78,0,0,0-.217,1.284,1.8,1.8,0,0,0,.213.983,1.5,1.5,0,0,0,.772.624,3.993,3.993,0,0,0,1.46.217q.461,0,1.012-.052a5.974,5.974,0,0,0,.872-.136l.642-2.344h-2.158l.335-1.223h4l-1.233,4.5c-.227.068-.484.136-.769.2s-.593.126-.923.177-.68.092-1.038.124-.724.047-1.087.047a7.98,7.98,0,0,1-2.045-.236,3.089,3.089,0,0,1-1.406-.76,2.408,2.408,0,0,1-.665-1.359,4.883,4.883,0,0,1,.192-2.039l.1-.366a6.367,6.367,0,0,1,1.019-2.179,5.391,5.391,0,0,1,1.52-1.389,5.978,5.978,0,0,1,1.856-.731,9.7,9.7,0,0,1,2.039-.212h3.243l-.778,1.354Z" transform="translate(-189.856 -121.175)" fill="#ddd"/>
          <path id="패스_10525" data-name="패스 10525" d="M222.639,131.453a6.806,6.806,0,0,1-1.746-.188,2.157,2.157,0,0,1-1.049-.583,1.611,1.611,0,0,1-.408-.989,4.177,4.177,0,0,1,.175-1.407l.126-.459a4.906,4.906,0,0,1,.667-1.495,3.99,3.99,0,0,1,1.015-1.031,4.163,4.163,0,0,1,1.331-.6,6.264,6.264,0,0,1,1.6-.2,4.947,4.947,0,0,1,1.586.2,1.575,1.575,0,0,1,.86.624,1.817,1.817,0,0,1,.25,1.042,6.129,6.129,0,0,1-.241,1.449l-.187.684h-5.264a2.691,2.691,0,0,0-.06.888.816.816,0,0,0,.277.525,1.3,1.3,0,0,0,.637.253,6.835,6.835,0,0,0,1.019.068h2.47l-.794,1.213Zm1.337-5.771a3.117,3.117,0,0,0-.735.082,1.953,1.953,0,0,0-.632.277,2.113,2.113,0,0,0-.531.524,3.279,3.279,0,0,0-.419.836h3.473a4,4,0,0,0,.152-.824.862.862,0,0,0-.12-.53.732.732,0,0,0-.432-.283,2.9,2.9,0,0,0-.758-.082" transform="translate(-194.622 -122.241)" fill="#ddd"/>
          <path id="패스_10526" data-name="패스 10526" d="M234.869,131.535a3.606,3.606,0,0,1-2.709-.836,2.481,2.481,0,0,1-.334-2.473l.132-.483a4.321,4.321,0,0,1,1.794-2.509,4.935,4.935,0,0,1,1.427-.642,6.2,6.2,0,0,1,1.667-.217,3.678,3.678,0,0,1,2.705.824,2.457,2.457,0,0,1,.347,2.5l-.126.459a4.41,4.41,0,0,1-.694,1.466,4.34,4.34,0,0,1-1.1,1.054,4.931,4.931,0,0,1-1.43.642,6.321,6.321,0,0,1-1.674.217m.353-1.165a2.634,2.634,0,0,0,1.6-.476,2.843,2.843,0,0,0,.961-1.607l.164-.6a3.152,3.152,0,0,0,.143-1.087,1.075,1.075,0,0,0-.255-.648,1.09,1.09,0,0,0-.564-.312,3.321,3.321,0,0,0-.769-.082,2.708,2.708,0,0,0-1.625.476,2.8,2.8,0,0,0-.974,1.607l-.162.589a3,3,0,0,0-.136,1.087,1.123,1.123,0,0,0,.267.654,1.11,1.11,0,0,0,.569.319,3.477,3.477,0,0,0,.781.082" transform="translate(-198.542 -122.195)" fill="#ddd"/>
        </g>
        <g id="그룹_3625" data-name="그룹 3625" transform="translate(25.381 2.118)">
          <path id="패스_10527" data-name="패스 10527" d="M184.924,110.846l.036-.256a1.208,1.208,0,0,1,1.241-.983.87.87,0,0,1,.965.764.805.805,0,0,1,.005.1h.688l.145-1.019h.579l-.429,3.026h-.578l.215-1.513H187.1a1.224,1.224,0,0,1-1.216.864.864.864,0,0,1-.965-.75A.884.884,0,0,1,184.924,110.846Zm1,2.318h2.2l-.068.493h-2.786l.2-1.427h.583Zm-.421-2.533-.024.174a.449.449,0,0,0,.362.521.466.466,0,0,0,.119.005.628.628,0,0,0,.631-.526l.024-.174a.449.449,0,0,0-.364-.521.455.455,0,0,0-.118,0A.628.628,0,0,0,185.5,110.632Z" transform="translate(-184.915 -109.449)" fill="#ddd"/>
          <path id="패스_10528" data-name="패스 10528" d="M190.512,109.86h1.9l-.068.493h-.656l-.076.54a.863.863,0,0,0,.162.7,6.286,6.286,0,0,0,.508.653l-.431.357c-.149-.183-.309-.379-.423-.544a1.5,1.5,0,0,1-.194-.315h0a2.059,2.059,0,0,1-.291.334c-.178.183-.422.416-.637.6l-.328-.379q.364-.312.7-.658a1.177,1.177,0,0,0,.377-.747l.077-.544h-.684Zm2,1.481h-.523l.068-.5h.523l.184-1.3h.551l-.562,3.958H192.2Zm1.074,2.363h-.551l.607-4.251h.551Z" transform="translate(-186.537 -109.45)" fill="#ddd"/>
          <path id="패스_10529" data-name="패스 10529" d="M198.824,111.473l.072-.508a1.249,1.249,0,0,1,1.266-1.23h.01c.762,0,1.019.5.934,1.184h.661l.208-1.467h.583l-.6,4.251h-.583l.324-2.285h-.661l-.008.054a1.248,1.248,0,0,1-1.265,1.23h-.012C198.971,112.7,198.723,112.187,198.824,111.473Zm.618-.439-.053.37c-.073.516.044.791.434.791s.586-.272.659-.791l.052-.37c.073-.516-.043-.79-.434-.79S199.516,110.518,199.442,111.034Z" transform="translate(-189.366 -109.45)" fill="#ddd"/>
          <path id="패스_10530" data-name="패스 10530" d="M204.8,109.814h2.029l-.068.5h-1.451l-.256,1.8h.349a11.57,11.57,0,0,0,1.422-.092l-.006.494a11.8,11.8,0,0,1-1.625.1H204.4Zm2.749,3.89h-.583l.6-4.251h.583Z" transform="translate(-191.16 -109.45)" fill="#ddd"/>
          <path id="패스_10531" data-name="패스 10531" d="M212.214,112.255l-.427.389c-.179-.192-.353-.393-.5-.567a1.637,1.637,0,0,1-.282-.408H211a2.369,2.369,0,0,1-.408.425c-.2.178-.4.351-.7.594l-.326-.393c.29-.229.556-.457.784-.672a1.347,1.347,0,0,0,.48-.892l.136-.978h.592l-.136.978a.946.946,0,0,0,.2.86A8.592,8.592,0,0,0,212.214,112.255Zm-.192-1.522h.84l.181-1.28h.583l-.6,4.251h-.583l.351-2.468h-.84Z" transform="translate(-192.816 -109.45)" fill="#ddd"/>
          <path id="패스_10532" data-name="패스 10532" d="M216.22,112.076h.247a11.707,11.707,0,0,0,1.422-.091l-.007.5a11.8,11.8,0,0,1-1.625.1h-.7l.4-2.786h.588Zm2.713-1.161h.588l-.068.5h-.588l-.324,2.285h-.583l.6-4.251h.583Z" transform="translate(-194.736 -109.449)" fill="#ddd"/>
          <path id="패스_10533" data-name="패스 10533" d="M225.818,112.032l-.114.8h1.666l-.068.489H223.39l.068-.489h1.667l.114-.8H224.1l.3-2.089h2.847l-.3,2.089Zm-1.066-.485h1.689l.159-1.12h-1.69Z" transform="translate(-197.245 -109.607)" fill="#ddd"/>
          <path id="패스_10534" data-name="패스 10534" d="M233.2,111.717l-.068.485h-3.911l.068-.485Zm-3,1.531h2.314l-.068.489h-2.893l.179-1.266h.579Zm2.626-3.071h-2.19l-.1.68h2.222l-.068.48h-2.8l.232-1.636h2.764Z" transform="translate(-199.113 -109.528)" fill="#ddd"/>
          <path id="패스_10535" data-name="패스 10535" d="M235.259,111.473l.072-.508a1.249,1.249,0,0,1,1.266-1.23h.011c.781,0,1.029.516.928,1.229l-.072.508a1.248,1.248,0,0,1-1.265,1.23h-.012C235.406,112.7,235.158,112.187,235.259,111.473Zm.618-.439-.053.37c-.073.516.044.791.434.791s.585-.272.658-.791l.052-.37c.073-.516-.043-.79-.434-.79S235.951,110.518,235.877,111.034Zm2.446,2.67h-.583l.6-4.251h.583Z" transform="translate(-201.042 -109.45)" fill="#ddd"/>
          <path id="패스_10536" data-name="패스 10536" d="M242.5,111.469l.068-.494c.109-.768.476-1.2,1.121-1.2s.883.434.781,1.2h.34l.2-1.431h.55L245,113.5h-.551l.288-2.029h-.34c-.109.768-.476,1.2-1.121,1.2S242.39,112.237,242.5,111.469Zm.593-.429-.052.366c-.068.5-.007.763.31.763s.455-.265.525-.763l.052-.366c.068-.5.007-.763-.31-.763s-.454.268-.525.762Zm2.745,2.664h-.551l.6-4.251h.551Z" transform="translate(-203.361 -109.45)" fill="#ddd"/>
          <path id="패스_10537" data-name="패스 10537" d="M249.8,110.845a.8.8,0,0,1-.022.119h.514l.2-1.427h.556l-.562,3.958h-.556l.289-2.035h-.588c-.2.429-.6.764-1.551,1.353l-.268-.438c1.165-.708,1.336-.936,1.433-1.623l.056-.393h-1.087l.068-.5h1.653Zm1.551,2.854h-.556l.6-4.251h.555Z" transform="translate(-205.071 -109.448)" fill="#ddd"/>
        </g>
      </g>
      <text id="입지_분석_시스템" data-name="입지 분석 시스템" transform="translate(0 42.005)" fill="#ddd" font-size="18" font-family="NotoSansCJKkr-Bold, Noto Sans CJK KR" font-weight="700" letter-spacing="-0.05em"><tspan x="0" y="0">입지 분석 시스템</tspan></text>
    </g>
  </g>
</svg>
