<svg xmlns="http://www.w3.org/2000/svg" width="12" height="10" viewBox="0 0 12 10">
  <g id="icon" transform="translate(-3 -7.5)">
    <path id="패스_22" data-name="패스 22" d="M3,8.211A.663.663,0,0,1,3.6,7.5H14.4a.663.663,0,0,1,.6.711.663.663,0,0,1-.6.711H3.6A.663.663,0,0,1,3,8.211Z" transform="translate(0)" fill="#0c196f"/>
    <path id="패스_23" data-name="패스 23" d="M3,17.259a.663.663,0,0,1,.6-.711H14.4a.721.721,0,0,1,0,1.422H3.6A.663.663,0,0,1,3,17.259Z" transform="translate(0 -4.759)" fill="#0c196f"/>
    <path id="패스_24" data-name="패스 24" d="M3.6,25.6a.721.721,0,0,0,0,1.422H14.4a.721.721,0,0,0,0-1.422Z" transform="translate(0 -9.518)" fill="#0c196f"/>
  </g>
</svg>
