<svg id="icon_추출기준" data-name="icon / 추출기준" xmlns="http://www.w3.org/2000/svg" width="24" height="24" viewBox="0 0 24 24">
  <g id="그룹_3645" data-name="그룹 3645">
    <rect id="사각형_4648" data-name="사각형 4648" width="24" height="24" fill="none"/>
  </g>
  <g id="그룹_3647" data-name="그룹 3647">
    <g id="그룹_3646" data-name="그룹 3646">
      <path id="패스_15972" data-name="패스 15972" d="M5,5H7V8H17V5h2v5h2V5a2.006,2.006,0,0,0-2-2H14.82A2.988,2.988,0,0,0,9.18,3H5A2.006,2.006,0,0,0,3,5V19a2.006,2.006,0,0,0,2,2h5V19H5Zm7-2a1,1,0,1,1-1,1A1,1,0,0,1,12,3Z" fill="#a2a4cf"/>
      <path id="패스_15973" data-name="패스 15973" d="M20.3,18.9a4.815,4.815,0,0,0,.7-2.4A4.5,4.5,0,1,0,16.5,21a4.815,4.815,0,0,0,2.4-.7L21.6,23,23,21.6Zm-3.8.1A2.5,2.5,0,1,1,19,16.5,2.476,2.476,0,0,1,16.5,19Z" fill="#a2a4cf"/>
    </g>
  </g>
</svg>
