<svg xmlns="http://www.w3.org/2000/svg" width="15.753" height="24.752" viewBox="0 0 15.753 24.752">
  <g id="arrow-up" transform="translate(-10.123 -5.623)">
    <path id="패스_102" data-name="패스 102" d="M18,7.875A1.125,1.125,0,0,1,19.125,9V29.25a1.125,1.125,0,0,1-2.25,0V9A1.125,1.125,0,0,1,18,7.875Z" fill-rule="evenodd"/>
    <path id="패스_103" data-name="패스 103" d="M17.2,5.954a1.125,1.125,0,0,1,1.593,0l6.75,6.75A1.126,1.126,0,1,1,23.953,14.3L18,8.341,12.046,14.3A1.126,1.126,0,1,1,10.453,12.7l6.75-6.75Z" fill-rule="evenodd"/>
  </g>
</svg>
