<svg id="엑셀" xmlns="http://www.w3.org/2000/svg" width="50" height="48.267" viewBox="0 0 50 48.267">
  <g id="icon">
    <path id="패스_493" data-name="패스 493" d="M67.667,0H45.217A3.787,3.787,0,0,0,41.43,3.787v37.43A3.787,3.787,0,0,0,45.217,45H75.4a3.787,3.787,0,0,0,3.787-3.787v-29.7Z" transform="translate(-34.507)" fill="#e6e6e6"/>
    <path id="패스_494" data-name="패스 494" d="M202.223,11.514a3.787,3.787,0,0,1-3.787-3.787V0L209.95,11.514Z" transform="translate(-165.275)" fill="#b3b3b3"/>
    <rect id="사각형_179" data-name="사각형 179" width="29.091" height="16.69" transform="translate(0 11.613)" fill="#1caa82"/>
    <path id="패스_495" data-name="패스 495" d="M0,169.364l6.9,5.512v-5.512Z" transform="translate(0 -141.061)" fill="#157759"/>
    <path id="패스_496" data-name="패스 496" d="M198.022,177.5a10.15,10.15,0,1,1-10.15-10.15,10.15,10.15,0,0,1,10.15,10.15" transform="translate(-148.022 -139.384)" fill="#0c196f"/>
    <path id="패스_497" data-name="패스 497" d="M219.2,231.262l-4.834,6.074-4.834-6.074Z" transform="translate(-174.518 -192.616)" fill="#fff"/>
    <rect id="사각형_180" data-name="사각형 180" width="3.677" height="6.181" transform="translate(38.011 33.264)" fill="#fff"/>
    <path id="패스_498" data-name="패스 498" d="M38.788,103.009l-1.833-3.185h-.012l-1.84,3.185H33.485l2.627-4.264-2.55-4.195H35.3l1.727,3.006.012-.008,1.772-3h1.6L37.868,98.6l2.647,4.406Z" transform="translate(-27.89 -78.75)" fill="#fff"/>
    <path id="패스_499" data-name="패스 499" d="M80.9,94.55h1.511v7.208H86.33l-.177,1.251H80.9Z" transform="translate(-67.384 -78.75)" fill="#fff"/>
    <path id="패스_500" data-name="패스 500" d="M118.95,99.992a1.544,1.544,0,0,0,1.676,1.382c.991,0,1.438-.453,1.438-1.161,0-.815-.453-1.159-1.783-1.541-1.928-.54-2.594-1.217-2.594-2.43,0-1.485,1.163-2.361,2.8-2.361,1.982,0,2.817,1.074,2.915,2.369h-1.492a1.286,1.286,0,0,0-1.444-1.2c-.835,0-1.256.392-1.256,1.043,0,.681.426.909,1.693,1.273,2.166.627,2.708,1.477,2.708,2.67,0,1.4-.953,2.519-3.055,2.519-1.849,0-2.986-.95-3.1-2.564Z" transform="translate(-97.823 -78.192)" fill="#fff"/>
  </g>
</svg>
