<svg id="pdf" xmlns="http://www.w3.org/2000/svg" width="50" height="48.267" viewBox="0 0 50 48.267">
  <g id="icon">
    <path id="패스_477" data-name="패스 477" d="M67.667,0H45.217A3.787,3.787,0,0,0,41.43,3.787v37.43A3.787,3.787,0,0,0,45.217,45H75.4a3.787,3.787,0,0,0,3.787-3.787v-29.7Z" transform="translate(-34.507)" fill="#e6e6e6"/>
    <path id="패스_478" data-name="패스 478" d="M202.223,11.514a3.787,3.787,0,0,1-3.787-3.787V0L209.95,11.514Z" transform="translate(-165.275)" fill="#b3b3b3"/>
    <rect id="사각형_175" data-name="사각형 175" width="29.091" height="16.69" transform="translate(0 11.613)" fill="#e62223"/>
    <path id="패스_479" data-name="패스 479" d="M0,169.364l6.9,5.512v-5.512Z" transform="translate(0 -141.061)" fill="#af1927"/>
    <path id="패스_480" data-name="패스 480" d="M198.022,177.5a10.15,10.15,0,1,1-10.15-10.15,10.15,10.15,0,0,1,10.15,10.15" transform="translate(-148.022 -139.384)" fill="#0c196f"/>
    <path id="패스_481" data-name="패스 481" d="M219.2,231.262l-4.834,6.074-4.834-6.074Z" transform="translate(-174.518 -192.616)" fill="#fff"/>
    <rect id="사각형_176" data-name="사각형 176" width="3.677" height="6.181" transform="translate(38.011 33.264)" fill="#fff"/>
    <path id="패스_482" data-name="패스 482" d="M26.382,95.717h3.063c1.6,0,2.907.833,2.907,2.478,0,1.731-1.26,2.606-3.042,2.606H27.9v3.375H26.382ZM27.9,99.592h1.318c.976,0,1.6-.359,1.6-1.367,0-.907-.642-1.3-1.559-1.3H27.9Z" transform="translate(-21.973 -79.722)" fill="#fff"/>
    <path id="패스_483" data-name="패스 483" d="M70.029,95.717h2.918a3.683,3.683,0,0,1,3.927,4.051c0,2.727-1.478,4.407-4.017,4.407H70.029Zm1.519,7.252h1.277c1.65,0,2.483-1.2,2.483-3.174,0-1.707-.84-2.855-2.471-2.855H71.548Z" transform="translate(-58.326 -79.722)" fill="#fff"/>
    <path id="패스_484" data-name="패스 484" d="M120.385,95.717H125.7v1.259h-3.832v2.353h3.6v1.243h-3.6v3.6h-1.484Z" transform="translate(-100.267 -79.721)" fill="#fff"/>
  </g>
</svg>
