<svg xmlns="http://www.w3.org/2000/svg" width="26" height="26" viewBox="0 0 26 26">
    <defs>
        <style>
            .cls-1{fill:none}
        </style>
    </defs>
    <g id="그룹_4531" data-name="그룹 4531" transform="translate(-17 -12.091)">
        <path id="사각형_3816" data-name="사각형 3816" class="cls-1" transform="translate(17 12.091)" d="M0 0h26v26H0z"/>
        <g id="그룹_4556" data-name="그룹 4556">
            <path id="사각형_3816-2" data-name="사각형 3816" class="cls-1" transform="translate(17 12.091)" d="M0 0h26v26H0z"/>
            <path id="user" d="M915.841 679.3a9.172 9.172 0 0 0 3.179.565c.052 0 .1-.006.154-.006s.083.006.125.006a11.028 11.028 0 1 0-3.458-.565zm-1.681-2.576a4.564 4.564 0 0 1 1.8-1.821c1.028-.343 2.3-1.371 1.86-2.35a8.7 8.7 0 0 1-1.37-5.531c.3-2.56 1.876-3 2.809-3a2.9 2.9 0 0 1 .324.018 3.409 3.409 0 0 1 2.447 3.573c-.1 2.251-1.909 4.161-1.958 5.14s1.468 1.859 2.252 2.251a3.785 3.785 0 0 1 1.517 1.713v.039a7.767 7.767 0 0 1-4.671 1.667 9.564 9.564 0 0 1-2.61-.4 7.831 7.831 0 0 1-2.4-1.297zm5.139-17.42a9.556 9.556 0 0 1 5.928 17.055 1.419 1.419 0 0 0-.08-.247l-.019-.04a5.011 5.011 0 0 0-2.162-2.358 4.669 4.669 0 0 1-1.416-.969c.1-.221.3-.583.45-.862a9.621 9.621 0 0 0 1.467-4.21 4.832 4.832 0 0 0-3.718-5.064 4.213 4.213 0 0 0-.491-.028c-1.8 0-3.864 1.122-4.238 4.273a9.187 9.187 0 0 0 1.242 5.81c.055.1.107.2.155.294a2.3 2.3 0 0 1-.913.582 5.4 5.4 0 0 0-2.562 2.418c-.006.008-.009.017-.014.026a9.552 9.552 0 0 1 6.369-16.678z" transform="translate(-889.299 -642.776)" style="fill:#11698e;stroke:#11698e;stroke-width:.4px"/>
        </g>
    </g>
</svg>
