<svg xmlns="http://www.w3.org/2000/svg" width="24.729" height="26.74" viewBox="0 0 24.729 26.74">
  <g id="login_hover" transform="translate(0 0)">
    <g id="그룹_2084" data-name="그룹 2084">
      <path id="패스_6801" data-name="패스 6801" d="M50.637,11.988c-2.594,0-4.627-2.951-4.627-6.718C46.01,1.971,47.739,0,50.637,0s4.627,1.97,4.627,5.269c0,3.767-2.032,6.718-4.627,6.718m0-10.143c-1.873,0-2.782,1.12-2.782,3.425,0,2.642,1.274,4.874,2.782,4.874s2.782-2.232,2.782-4.874c0-2.3-.91-3.425-2.782-3.425" transform="translate(-39.535 -0.001)" fill="#191919"/>
      <path id="패스_6802" data-name="패스 6802" d="M13.837,99.927H.943a.922.922,0,0,1-.921-.886C-.014,98.1-.254,89.8,2.384,87.059A2.957,2.957,0,0,1,4.542,86.1h.273c1.019,0,1.361.007,1.883-.6a.922.922,0,1,1,1.4,1.2,3.641,3.641,0,0,1-3.293,1.245H4.542a1.094,1.094,0,0,0-.829.4C2.127,89.986,1.829,95.3,1.846,98.083h11.99a.922.922,0,1,1,0,1.844" transform="translate(0 -73.187)" fill="#191919"/>
      <path id="패스_6803" data-name="패스 6803" d="M33.716,150.592h0a.922.922,0,0,1-.922-.922v-4.61a.922.922,0,1,1,1.844,0v4.61a.922.922,0,0,1-.922.922" transform="translate(-28.179 -123.852)" fill="#191919"/>
    </g>
    <g id="그룹_2081" data-name="그룹 2081" transform="translate(12.776 13.432)">
      <path id="패스_6804" data-name="패스 6804" d="M95.762,105.478a.919.919,0,0,1-.656-.274L91.045,101.1a.922.922,0,0,1,0-1.3l4.061-4.088a.922.922,0,1,1,1.308,1.3L93,100.449l3.418,3.458a.922.922,0,0,1-.656,1.57" transform="translate(-90.779 -95.437)" fill="#0061e1"/>
      <path id="패스_6805" data-name="패스 6805" d="M103.478,126.327H93.643a.922.922,0,0,1,0-1.844h9.835a.922.922,0,1,1,0,1.844" transform="translate(-92.448 -120.395)" fill="#0061e1"/>
    </g>
  </g>
</svg>
