<svg xmlns="http://www.w3.org/2000/svg" xmlns:xlink="http://www.w3.org/1999/xlink" width="28.519" height="51.762" viewBox="0 0 28.519 51.762">
  <defs>
    <clipPath id="clip-path">
      <rect id="사각형_11742" data-name="사각형 11742" width="28.519" height="51.761" fill="none"/>
    </clipPath>
    <clipPath id="clip-path-2">
      <path id="패스_14243" data-name="패스 14243" d="M11.088,0l-.074,0C9.7.075,9.021.606,9.068,1.918c-.664.38-.516,1.62-.281,2.348.417,1.287,1.945,3.185,3.07,1.5l.052-.077a1.134,1.134,0,0,0,.123-.955,1.164,1.164,0,0,1-.05-.34c.006-.189.1-.409.288-.435a.33.33,0,0,1,.278.113.535.535,0,0,1,.073.106h0a1.283,1.283,0,0,1,.51-.81,2.7,2.7,0,0,0,.956-1.194,3.2,3.2,0,0,0,.035-2.13,2.06,2.06,0,0,1-1.536.239A9.99,9.99,0,0,0,11.138,0Z" transform="translate(-8.588)" fill="none"/>
    </clipPath>
    <linearGradient id="linear-gradient" x1="-0.973" y1="6.938" x2="-0.856" y2="6.938" gradientUnits="objectBoundingBox">
      <stop offset="0" stop-color="#00769b"/>
      <stop offset="1" stop-color="#068dc0"/>
    </linearGradient>
  </defs>
  <g id="그룹_12702" data-name="그룹 12702" transform="translate(0 0)">
    <path id="패스_14236" data-name="패스 14236" d="M15.988,72.07c.311-.836,3.3-1.369,3.883-.888s-1.828,2.106-2.938,2.158a.9.9,0,0,1-.945-1.27" transform="translate(-4.837 -21.579)" fill="#ececec"/>
    <path id="패스_14237" data-name="패스 14237" d="M5.005,66.39c-.074-.889,2.4-2.644,3.135-2.456s-.758,2.683-1.74,3.2a.9.9,0,0,1-1.395-.747" transform="translate(-1.521 -19.428)" fill="#ececec"/>
    <g id="그룹_12683" data-name="그룹 12683" transform="translate(3.412 22.366)">
      <path id="패스_14238" data-name="패스 14238" d="M5.427,45.93c-.152,3.085-.542,7.227-.524,10.12,0,.862,1.927.584,1.992.143C8,48.713,9.32,40,10.427,32.523l-4.73-.39c-.069,4.059-.069,9.742-.27,13.8" transform="translate(-4.902 -32.133)" fill="#5bc7ff"/>
    </g>
    <g id="그룹_12685" data-name="그룹 12685" transform="translate(0 0)">
      <g id="그룹_12684" data-name="그룹 12684" clip-path="url(#clip-path)">
        <path id="패스_14239" data-name="패스 14239" d="M13.478,2.007a2.637,2.637,0,0,0-3.994.251,3.021,3.021,0,0,0,.36,3.063,3.12,3.12,0,0,1,.589,2.145c-.016.145-.03.27-.041.356a1.309,1.309,0,0,0,0,.463,1,1,0,0,0,.56.594c.271.153.6.3.846.112s.27-.642.258-1.018v-.01a.828.828,0,0,1,.892-.853,1.489,1.489,0,0,0,.94-.159c1.2-.847.49-4.066-.408-4.944" transform="translate(-2.799 -0.37)" fill="#f4acc8"/>
      </g>
    </g>
    <g id="그룹_12687" data-name="그룹 12687" transform="translate(0 7.304)">
      <path id="패스_14240" data-name="패스 14240" d="M4.931,10.613a3.779,3.779,0,0,0-1,.711,5.157,5.157,0,0,0-.718.876,22.159,22.159,0,0,0-1.1,1.95c-.338.668-.638,1.358-.944,2.044-.154.347-.3.68-.466,1.034a7.523,7.523,0,0,0-.473,1.29,6.684,6.684,0,0,0-.162,2.673l.361,2.223.72,4.433a.547.547,0,0,0,1.086-.1l-.08-4.491-.038-2.239a4.3,4.3,0,0,1,.372-1.744,3.654,3.654,0,0,1,.45-.746l.672-.9c.453-.6.912-1.2,1.334-1.813a22.085,22.085,0,0,0,1.175-1.907,5.1,5.1,0,0,0,.42-1.053,3.745,3.745,0,0,0,.141-1.217,1.24,1.24,0,0,0-.116-.451,1.222,1.222,0,0,0-1.631-.581" transform="translate(0 -10.494)" fill="#83ffdf"/>
    </g>
    <g id="그룹_12689" data-name="그룹 12689" transform="translate(3.863 21.332)">
      <path id="패스_14241" data-name="패스 14241" d="M6.1,31.623a4.47,4.47,0,0,0-.384,3.358A3.747,3.747,0,0,0,8.01,36.6,3.885,3.885,0,0,1,10.5,39.663c.358,2.244.711,4.489,1.036,6.736.466,3.22.965,12.371,1.308,13.238.182.464,1.272.665,1.8-.241.2-.341.139-9.018.116-10.834-.065-5.195-.3-10.361-.534-15.57-.069-1.639-2.4-2.346-4.579-2.346-1.538,0-3,.352-3.552.976" transform="translate(-5.55 -30.647)" fill="#5bc7ff"/>
    </g>
    <g id="그룹_12691" data-name="그룹 12691" transform="translate(3.581 6.931)">
      <path id="패스_14242" data-name="패스 14242" d="M7.07,10.186a5.543,5.543,0,0,0-1.925,3.981c0,3.288.031,5.976.341,9.775a4.19,4.19,0,0,0,.468,2.233c.4.523,3.988,1.6,4.952,1.684,2.209.148,3.142-.855,3.171-1.824.026-.881-.389-7.791-.123-11.857a2.844,2.844,0,0,0-1.445-2.665A11.157,11.157,0,0,0,7.958,9.958a1.471,1.471,0,0,0-.887.228" transform="translate(-5.145 -9.958)" fill="#83ffdf"/>
    </g>
    <g id="그룹_12693" data-name="그룹 12693" transform="translate(5.978)">
      <g id="그룹_12692" data-name="그룹 12692" clip-path="url(#clip-path-2)">
        <rect id="사각형_11746" data-name="사각형 11746" width="5.957" height="7.451" transform="translate(-0.185 0)" fill="url(#linear-gradient)"/>
      </g>
    </g>
    <path id="패스_14247" data-name="패스 14247" d="M3.129,37.419c-.051.181-.089.424.076.514.129.07.3-.013.432.051a.29.29,0,0,1,.049.431.778.778,0,0,1-.437.219,6.751,6.751,0,0,1-.727.134,1.1,1.1,0,0,1-.761-.1,1.051,1.051,0,0,1-.352-.532,4.48,4.48,0,0,1-.255-1.106,1.512,1.512,0,0,1,.018-.519,1.224,1.224,0,0,1,1.309-.791c.755.2.823,1.078.649,1.7" transform="translate(-0.347 -10.849)" fill="#f4acc8"/>
  </g>
</svg>
