<svg data-name="그룹 4797" xmlns="http://www.w3.org/2000/svg" width="13" height="16" viewBox="0 0 13 16">
    <path data-name="사각형 3914" style="fill:none" d="M0 0h13v16H0z"/>
    <path data-name="패스 8216" d="M130.092 188.434a.319.319 0 0 0 .249-.129l3.645-4.576a5.254 5.254 0 0 0 0-6.253 3.045 3.045 0 0 0-4.981 0l-4.319 5.423a3.721 3.721 0 0 0 0 4.423 2.154 2.154 0 0 0 3.523 0l3.809-4.782a2.3 2.3 0 0 0 0-2.73 1.329 1.329 0 0 0-2.174 0l-3.135 3.935a.525.525 0 0 0 0 .625.3.3 0 0 0 .5 0l3.135-3.935a.734.734 0 0 1 1.179 0 1.245 1.245 0 0 1 0 1.48l-3.809 4.782a1.546 1.546 0 0 1-2.528 0 2.67 2.67 0 0 1 0-3.173l4.314-5.424a2.437 2.437 0 0 1 3.986 0 4.2 4.2 0 0 1 0 5l-3.645 4.576a.525.525 0 0 0 0 .625.319.319 0 0 0 .249.129" transform="translate(-123.134 -174.202)" style="fill:#0d289c;stroke:#2e44a4;stroke-width:.5px"/>
</svg>
