<svg id="password" xmlns="http://www.w3.org/2000/svg" width="45.69" height="26.74" viewBox="0 0 45.69 26.74">
  <g id="그룹_2083" data-name="그룹 2083">
    <path id="패스_6786" data-name="패스 6786" d="M2.437,76.791A2.44,2.44,0,0,1,0,74.354V65.608a2.44,2.44,0,0,1,2.437-2.437H24.3a.979.979,0,0,1,0,1.959H2.437a.478.478,0,0,0-.478.478v8.746a.478.478,0,0,0,.478.478H22.845a.979.979,0,1,1,0,1.959Z" transform="translate(0 -58.798)" fill="#111"/>
    <path id="패스_6791" data-name="패스 6791" d="M467.148,179.161a.98.98,0,0,1-.979-.979v-1.726a.478.478,0,0,0-.318-.451,3.895,3.895,0,1,1,2.594,0,.478.478,0,0,0-.318.451v1.726a.98.98,0,0,1-.979.979m0-8.746a1.936,1.936,0,1,0,1.936,1.936,1.938,1.938,0,0,0-1.936-1.936" transform="translate(-431.183 -156.794)" fill="#111"/>
    <path id="패스_6792" data-name="패스 6792" d="M388.751,26.74a9.737,9.737,0,0,1-9.726-9.726V8.268A.98.98,0,0,1,380,7.289h2.915a.479.479,0,0,0,.478-.478V5.352a5.352,5.352,0,1,1,10.7,0V6.81a.479.479,0,0,0,.478.478H397.5a.98.98,0,0,1,.979.979v8.746a9.737,9.737,0,0,1-9.726,9.726M381.462,9.247a.478.478,0,0,0-.478.478v7.289a7.767,7.767,0,1,0,15.534,0V9.726a.478.478,0,0,0-.478-.478Zm7.289-7.289a3.4,3.4,0,0,0-3.394,3.394V6.81a.478.478,0,0,0,.478.478h5.831a.478.478,0,0,0,.478-.478V5.352a3.4,3.4,0,0,0-3.394-3.394" transform="translate(-352.786)" fill="#111"/>
  </g>
  <g id="그룹_2082" data-name="그룹 2082">
    <path id="패스_6787" data-name="패스 6787" d="M101.979,145.384a1.3,1.3,0,1,1,1.3-1.3,1.3,1.3,0,0,1-1.3,1.3" transform="translate(-93.711 -132.903)" fill="#111"/>
    <path id="패스_6788" data-name="패스 6788" d="M165.149,145.384a1.3,1.3,0,1,1,1.3-1.3,1.3,1.3,0,0,1-1.3,1.3" transform="translate(-152.508 -132.903)" fill="#111"/>
    <path id="패스_6789" data-name="패스 6789" d="M228.32,145.384a1.3,1.3,0,1,1,1.3-1.3,1.3,1.3,0,0,1-1.3,1.3" transform="translate(-211.306 -132.903)" fill="#111"/>
    <path id="패스_6790" data-name="패스 6790" d="M291.491,145.384a1.3,1.3,0,1,1,1.3-1.3,1.3,1.3,0,0,1-1.3,1.3" transform="translate(-270.104 -132.903)" fill="#111"/>
  </g>
</svg>
