<svg xmlns="http://www.w3.org/2000/svg" width="11.429" height="11.5" viewBox="0 0 11.429 11.5">
    <g data-name="그룹 5490">
        <path data-name="패스 8856" d="M5.715 8.4a.505.505 0 0 1-.5-.505V.5a.505.505 0 1 1 1.01 0v7.4a.505.505 0 0 1-.5.505"/>
        <path data-name="패스 8857" d="M5.715 8.403a.5.5 0 0 1-.355-.859l3.149-3.149a.505.505 0 0 1 .714.714L6.074 8.258a.5.5 0 0 1-.357.148"/>
        <path data-name="패스 8858" d="M5.714 8.403a.5.5 0 0 1-.357-.148L2.208 5.106a.505.505 0 1 1 .714-.714l3.149 3.152a.5.5 0 0 1-.357.862"/>
        <path data-name="패스 8859" d="M10.07 11.497H1.358A1.36 1.36 0 0 1 0 10.142v-.745a.505.505 0 0 1 1.01 0v.743a.349.349 0 0 0 .348.348h8.712a.349.349 0 0 0 .348-.348v-.743a.505.505 0 0 1 1.01 0v.743a1.36 1.36 0 0 1-1.358 1.357"/>
    </g>
</svg>
