<svg xmlns="http://www.w3.org/2000/svg" width="314" height="35" viewBox="0 0 314 35">
    <path data-name="합치기 7" d="M19.962 32C10.781 32 0 28.137 0 13.14V.4h9.037v12.74c0 6.734 4.342 10.919 11.331 10.919h12.138l6.133-7.094a18.007 18.007 0 0 1 1.347-1.335q-.487-.478-.969-1.03L27 0h10.277l6.908 8.409c1.882 2.27 3.026 3.244 5.082 3.244s3.2-.974 5.084-3.244L61.257 0h10.281L59.52 14.6q-.462.53-.928.989a17.955 17.955 0 0 1 1.393 1.376l12.977 15.029H62.237l-7.632-8.874c-1.961-2.258-3.153-3.225-5.292-3.225s-3.332.967-5.294 3.225l-6.825 7.916a2.661 2.661 0 0 1-2.37.965z" transform="translate(0 3)" style="fill:#00b8a3"/>
    <text transform="translate(79 30)" style="font-family:RixJGoB,RixJGo B;fill:#fff;font-size:20px;letter-spacing:-.04em"><tspan x="0" y="0">통합업무플랫폼</tspan></text>
    <text transform="translate(210 30)" style="font-family:RixJGoL,RixJGo L;fill:#fff;font-size:20px;letter-spacing:-.04em"><tspan x="0" y="0">관리자서비스</tspan></text>
    <text data-name="lx Integrated Platform" transform="translate(81 9)" style="fill:#cecece;font-size:8px;font-family:NotoSansCJKkr-Regular,Noto Sans CJK KR;letter-spacing:-.03em;opacity:.7"><tspan x="0" y="0">lx integrated platform</tspan></text>
</svg>
