<svg id="ico-dt-06" xmlns="http://www.w3.org/2000/svg" xmlns:xlink="http://www.w3.org/1999/xlink" width="43.008" height="45" viewBox="0 0 43.008 45">
  <defs>
    <clipPath id="clip-path">
      <rect id="사각형_585" data-name="사각형 585" width="43.008" height="45" fill="none" stroke="#1740c2" stroke-width="2"/>
    </clipPath>
  </defs>
  <g id="그룹_1018" data-name="그룹 1018" transform="translate(0 0)" clip-path="url(#clip-path)">
    <path id="패스_909" data-name="패스 909" d="M34.726,32.9l4.545-.966a.733.733,0,0,0,.642-1.081,4.074,4.074,0,0,1-.609-1.5c.085-.3.573-.383,1.717-1.064a1.508,1.508,0,0,0,.551-2.338c-.467-.723-3.563-4.763-3.645-5.994-.053-.8.9-2.806.233-5.962S33.783.719,20.272,1.006,1,10.514,1,17.051s3.308,9.718,4.384,12.892c1.42,4.19,2.18,9.041-.468,14.553" transform="translate(0.049 0.049)" fill="none" stroke="#1740c2" stroke-miterlimit="10" stroke-width="2"/>
    <path id="패스_910" data-name="패스 910" d="M24.883,42.9c.608-2.532,1.761-4.69,2.806-5.124" transform="translate(1.219 1.85)" fill="none" stroke="#1740c2" stroke-miterlimit="10" stroke-width="2"/>
    <path id="패스_911" data-name="패스 911" d="M23.046,32.332c.9,2.537,1.581,4.8,2.442,5.072,1.291.411,6.418,1.869,8.348,1.133s1.551-2.5,1.58-3.026c.069-1.3,1.376-1.456,1.18-3.2" transform="translate(1.129 1.582)" fill="none" stroke="#1740c2" stroke-miterlimit="10" stroke-width="2"/>
    <path id="패스_912" data-name="패스 912" d="M12,25.588V16.147a3.147,3.147,0,0,1,6.294,0v9.441" transform="translate(0.588 0.637)" fill="none" stroke="#1740c2" stroke-miterlimit="10" stroke-width="2"/>
    <line id="선_141" data-name="선 141" x2="6.294" transform="translate(12.588 20.98)" fill="none" stroke="#1740c2" stroke-miterlimit="10" stroke-width="2"/>
    <line id="선_142" data-name="선 142" x2="6.294" transform="translate(22.028 13.637)" fill="none" stroke="#1740c2" stroke-miterlimit="10" stroke-width="2"/>
    <line id="선_143" data-name="선 143" x2="6.294" transform="translate(22.028 25.175)" fill="none" stroke="#1740c2" stroke-miterlimit="10" stroke-width="2"/>
    <line id="선_144" data-name="선 144" y2="11.539" transform="translate(25.175 13.637)" fill="none" stroke="#1740c2" stroke-miterlimit="10" stroke-width="2"/>
  </g>
</svg>
