<svg id="ico-dt-03" xmlns="http://www.w3.org/2000/svg" xmlns:xlink="http://www.w3.org/1999/xlink" width="45.957" height="45" viewBox="0 0 45.957 45">
  <defs>
    <clipPath id="clip-path">
      <rect id="사각형_578" data-name="사각형 578" width="45.957" height="45" fill="none" stroke="#1740c2" stroke-width="2"/>
    </clipPath>
  </defs>
  <g id="그룹_1009" data-name="그룹 1009" clip-path="url(#clip-path)">
    <path id="패스_899" data-name="패스 899" d="M12.788,164.106c0-.259-.928-.393-1.523-.393A3.265,3.265,0,0,0,8,166.979V146.872c0-1.8,1.461-2.872,3.265-2.872.595,0,1.523.281,1.523.957Z" transform="translate(-7.043 -126.766)" fill="none" stroke="#1740c2" stroke-linejoin="round" stroke-width="2"/>
    <path id="패스_900" data-name="패스 900" d="M336,164.106c0-.259.928-.393,1.523-.393a3.265,3.265,0,0,1,3.265,3.265V146.872c0-1.8-1.461-2.872-3.265-2.872-.595,0-1.523.281-1.523.957Z" transform="translate(-295.788 -126.766)" fill="none" stroke="#1740c2" stroke-linejoin="round" stroke-width="2"/>
    <line id="선_116" data-name="선 116" x1="3.83" transform="translate(36.383 21.064)" fill="none" stroke="#1740c2" stroke-linejoin="round" stroke-width="2"/>
    <line id="선_117" data-name="선 117" x1="8.617" transform="translate(5.745 21.064)" fill="none" stroke="#1740c2" stroke-linejoin="round" stroke-width="2"/>
    <path id="패스_901" data-name="패스 901" d="M52.043,336a3.83,3.83,0,0,1-3.83,3.83H11.83A3.83,3.83,0,0,1,8,336" transform="translate(-7.043 -295.788)" fill="none" stroke="#1740c2" stroke-linejoin="round" stroke-width="2"/>
    <path id="패스_902" data-name="패스 902" d="M104,67.83h26.808L126.979,64H104" transform="translate(-91.553 -56.341)" fill="none" stroke="#1740c2" stroke-linejoin="round" stroke-width="2"/>
    <line id="선_118" data-name="선 118" y1="6.702" transform="translate(17.234 0.957)" fill="none" stroke="#1740c2" stroke-linejoin="round" stroke-width="2"/>
    <path id="패스_903" data-name="패스 903" d="M219.83,96v5.745L216,107.49" transform="translate(-190.149 -84.511)" fill="none" stroke="#1740c2" stroke-linejoin="round" stroke-width="2"/>
    <line id="선_119" data-name="선 119" x2="3.83" y2="5.745" transform="translate(29.681 17.234)" fill="none" stroke="#1740c2" stroke-linejoin="round" stroke-width="2"/>
    <path id="패스_904" data-name="패스 904" d="M48,14.7,59.489,8l15.361,6.66" transform="translate(-42.255 -7.043)" fill="none" stroke="#1740c2" stroke-linejoin="round" stroke-width="2"/>
    <line id="선_120" data-name="선 120" y2="23.936" transform="translate(17.234 11.489)" fill="none" stroke="#1740c2" stroke-linejoin="round" stroke-width="2"/>
    <line id="선_121" data-name="선 121" y2="23.936" transform="translate(21.064 11.489)" fill="none" stroke="#1740c2" stroke-linejoin="round" stroke-width="2"/>
    <rect id="사각형_577" data-name="사각형 577" width="7.66" height="5.745" transform="translate(4.787 7.66)" fill="none" stroke="#1740c2" stroke-linejoin="round" stroke-width="2"/>
    <line id="선_122" data-name="선 122" x2="11.489" transform="translate(23.936 22.979)" fill="none" stroke="#1740c2" stroke-linejoin="round" stroke-width="2"/>
    <line id="선_123" data-name="선 123" x2="11.489" transform="translate(13.404 35.425)" fill="none" stroke="#1740c2" stroke-linejoin="round" stroke-width="2"/>
  </g>
</svg>
