<svg id="ico-dt-10" xmlns="http://www.w3.org/2000/svg" xmlns:xlink="http://www.w3.org/1999/xlink" width="45" height="45" viewBox="0 0 45 45">
  <defs>
    <clipPath id="clip-path">
      <rect id="사각형_592" data-name="사각형 592" width="45" height="45" fill="#1740c2" stroke="#1740c2" stroke-width="0.75"/>
    </clipPath>
  </defs>
  <g id="그룹_1031" data-name="그룹 1031" clip-path="url(#clip-path)">
    <path id="패스_942" data-name="패스 942" d="M32.395,37.842c-.628,0-1.667-.738-5.173-3.465a45.505,45.505,0,0,0-4.3-3.14,45.506,45.506,0,0,0-4.3,3.14c-3.505,2.727-4.545,3.465-5.173,3.465C11.156,37.842,8,34.685,8,32.395c0-.628.738-1.667,3.465-5.173a45.505,45.505,0,0,0,3.14-4.3,45.506,45.506,0,0,0-3.14-4.3C8.738,15.115,8,14.075,8,13.447,8,11.156,11.156,8,13.447,8c.628,0,1.667.738,5.173,3.465a45.68,45.68,0,0,0,4.3,3.14,45.68,45.68,0,0,0,4.3-3.14C30.727,8.738,31.767,8,32.395,8c2.291,0,5.447,3.156,5.447,5.447,0,.628-.738,1.667-3.465,5.173a45.506,45.506,0,0,0-3.14,4.3,45.505,45.505,0,0,0,3.14,4.3c2.727,3.505,3.465,4.545,3.465,5.173,0,2.291-3.157,5.447-5.447,5.447m-9.474-8.053c.628,0,1.667.738,5.173,3.465a40.894,40.894,0,0,0,4.362,3.165c1.49-.064,3.9-2.475,3.965-3.965a40.756,40.756,0,0,0-3.165-4.362c-2.727-3.505-3.465-4.545-3.465-5.173s.738-1.667,3.465-5.173a40.756,40.756,0,0,0,3.165-4.362c-.064-1.49-2.475-3.9-3.965-3.965a40.755,40.755,0,0,0-4.362,3.165c-3.505,2.727-4.545,3.465-5.173,3.465s-1.667-.738-5.173-3.465a40.868,40.868,0,0,0-4.361-3.165c-1.491.064-3.9,2.475-3.966,3.965a40.755,40.755,0,0,0,3.165,4.362c2.727,3.505,3.465,4.545,3.465,5.173s-.738,1.667-3.465,5.173a40.755,40.755,0,0,0-3.165,4.362c.064,1.49,2.475,3.9,3.966,3.965a41.007,41.007,0,0,0,4.361-3.165c3.505-2.727,4.545-3.465,5.173-3.465" transform="translate(-0.421 -0.421)" fill="#1740c2" stroke="#1740c2" stroke-width="0.75"/>
    <path id="패스_943" data-name="패스 943" d="M23.711,32.211A.711.711,0,0,1,23,31.5V27.711a.711.711,0,1,1,1.421,0V31.5a.711.711,0,0,1-.711.711" transform="translate(-1.211 -1.421)" fill="#1740c2" stroke="#1740c2" stroke-width="0.75"/>
    <path id="패스_944" data-name="패스 944" d="M31.5,24.421H27.711a.711.711,0,1,1,0-1.421H31.5a.711.711,0,0,1,0,1.421" transform="translate(-1.421 -1.211)" fill="#1740c2" stroke="#1740c2" stroke-width="0.75"/>
    <path id="패스_945" data-name="패스 945" d="M19.5,24.421H15.711a.711.711,0,1,1,0-1.421H19.5a.711.711,0,0,1,0,1.421" transform="translate(-0.789 -1.211)" fill="#1740c2" stroke="#1740c2" stroke-width="0.75"/>
    <path id="패스_946" data-name="패스 946" d="M23.711,20.211A.711.711,0,0,1,23,19.5V15.711a.711.711,0,1,1,1.421,0V19.5a.711.711,0,0,1-.711.711" transform="translate(-1.211 -0.789)" fill="#1740c2" stroke="#1740c2" stroke-width="0.75"/>
    <path id="패스_947" data-name="패스 947" d="M.711,10.895a.711.711,0,0,1-.5-1.213L4.442,5.447,4,5A.71.71,0,1,1,5,4l.445.444L9.682.208a.71.71,0,0,1,1,1L6.453,5.447,9.739,8.735a.71.71,0,0,1-1,1L5.447,6.453,1.213,10.686a.7.7,0,0,1-.5.208" transform="translate(0 0)" fill="#1740c2" stroke="#1740c2" stroke-width="0.75"/>
    <path id="패스_948" data-name="패스 948" d="M36.711,46.895a.711.711,0,0,1-.5-1.213l4.234-4.235L37.156,38.16a.71.71,0,1,1,1-1l3.287,3.286,4.235-4.234a.71.71,0,0,1,1,1l-4.234,4.235.444.445a.71.71,0,0,1-1,1l-.445-.444-4.235,4.234a.7.7,0,0,1-.5.208" transform="translate(-1.895 -1.895)" fill="#1740c2" stroke="#1740c2" stroke-width="0.75"/>
    <path id="패스_949" data-name="패스 949" d="M46.184,10.895a.7.7,0,0,1-.5-.208L41.447,6.453,38.16,9.739a.71.71,0,1,1-1-1l3.286-3.287L36.208,1.213a.71.71,0,0,1,1-1l4.235,4.234L41.893,4a.71.71,0,0,1,1,1l-.444.445,4.234,4.235a.711.711,0,0,1-.5,1.213" transform="translate(-1.895 0)" fill="#1740c2" stroke="#1740c2" stroke-width="0.75"/>
    <path id="패스_950" data-name="패스 950" d="M10.184,46.895a.7.7,0,0,1-.5-.208L5.447,42.453,5,42.9a.71.71,0,0,1-1-1l.444-.445L.208,37.213a.71.71,0,0,1,1-1l4.235,4.234,3.287-3.286a.71.71,0,1,1,1,1L6.453,41.447l4.234,4.235a.711.711,0,0,1-.5,1.213" transform="translate(0 -1.895)" fill="#1740c2" stroke="#1740c2" stroke-width="0.75"/>
  </g>
</svg>
