<svg id="ico-dt-04" xmlns="http://www.w3.org/2000/svg" xmlns:xlink="http://www.w3.org/1999/xlink" width="42.955" height="45" viewBox="0 0 42.955 45">
  <defs>
    <clipPath id="clip-path">
      <rect id="사각형_584" data-name="사각형 584" width="42.955" height="45" fill="none" stroke="#1740c2" stroke-width="2"/>
    </clipPath>
  </defs>
  <g id="그룹_1016" data-name="그룹 1016" clip-path="url(#clip-path)">
    <path id="패스_905" data-name="패스 905" d="M14.3,10.2V1H41.909V35.773H31.682v8.182H1V10.2Z" transform="translate(0.023 0.023)" fill="none" stroke="#1740c2" stroke-linejoin="round" stroke-width="2"/>
    <path id="패스_906" data-name="패스 906" d="M12,25.068h0a3.068,3.068,0,1,1,6.136,0V31.2" transform="translate(0.273 0.5)" fill="none" stroke="#1740c2" stroke-miterlimit="10" stroke-width="2"/>
    <path id="패스_907" data-name="패스 907" d="M18,25.068h0a3.068,3.068,0,0,1,6.136,0V31.2" transform="translate(0.409 0.5)" fill="none" stroke="#1740c2" stroke-miterlimit="10" stroke-width="2"/>
    <line id="선_140" data-name="선 140" y1="10.227" transform="translate(12.273 21.477)" fill="none" stroke="#1740c2" stroke-miterlimit="10" stroke-width="2"/>
    <path id="패스_908" data-name="패스 908" d="M31.114,18.167v2.045H26V19.19c3.068-3.041,4.143-3.674,4.663-4.714.389-.777.708-3.019-1.036-3.627a2.63,2.63,0,0,0-3.66,1.845" transform="translate(0.59 0.242)" fill="none" stroke="#1740c2" stroke-linejoin="round" stroke-width="2"/>
  </g>
</svg>
