<svg xmlns="http://www.w3.org/2000/svg" xmlns:xlink="http://www.w3.org/1999/xlink" width="95" height="95" viewBox="0 0 95 95">
  <defs>
    <clipPath id="clip-path">
      <rect id="사각형_199" data-name="사각형 199" width="60" height="58.725" transform="translate(0 0)" fill="none"/>
    </clipPath>
  </defs>
  <g id="img3" transform="translate(-1150 -935)">
    <circle id="타원_8" data-name="타원 8" cx="47.5" cy="47.5" r="47.5" transform="translate(1150 935)" fill="#f2f2f2"/>
    <g id="그룹_213" data-name="그룹 213" transform="translate(1168 953)">
      <g id="그룹_212" data-name="그룹 212" clip-path="url(#clip-path)">
        <path id="패스_555" data-name="패스 555" d="M50,58.725v-27c-4.42-6.6-12.711-10-21-10s-16.58,3.4-21,10v27Z" fill="#fff"/>
        <line id="선_383" data-name="선 383" x2="7" transform="translate(39 10.725)" fill="none" stroke="#bcc0c4" stroke-miterlimit="10" stroke-width="2"/>
        <line id="선_384" data-name="선 384" x2="2" transform="translate(48 10.725)" fill="none" stroke="#bcc0c4" stroke-miterlimit="10" stroke-width="2"/>
        <line id="선_385" data-name="선 385" x2="2" transform="translate(52 10.725)" fill="none" stroke="#bcc0c4" stroke-miterlimit="10" stroke-width="2"/>
        <line id="선_386" data-name="선 386" x2="2" transform="translate(54 5.725)" fill="none" stroke="#bcc0c4" stroke-miterlimit="10" stroke-width="2"/>
        <line id="선_387" data-name="선 387" x2="2" transform="translate(58 5.725)" fill="none" stroke="#bcc0c4" stroke-miterlimit="10" stroke-width="2"/>
        <path id="패스_556" data-name="패스 556" d="M24,5.725h9.832a3.031,3.031,0,0,1,2.683-1.833,2.875,2.875,0,0,1,1.083.182A4.731,4.731,0,0,1,42.024,1a5.178,5.178,0,0,1,4.73,4.725H52" fill="none" stroke="#bcc0c4" stroke-miterlimit="10" stroke-width="2"/>
        <path id="패스_557" data-name="패스 557" d="M0,10.725H3.959A3.994,3.994,0,0,1,7.627,8.872a4.2,4.2,0,0,1,3.561-2.157,4.237,4.237,0,0,1,4.127,4.01H25" fill="none" stroke="#bcc0c4" stroke-miterlimit="10" stroke-width="2"/>
        <line id="선_388" data-name="선 388" x2="2" transform="translate(27 10.725)" fill="none" stroke="#bcc0c4" stroke-miterlimit="10" stroke-width="2"/>
        <line id="선_389" data-name="선 389" x2="2" transform="translate(31 10.725)" fill="none" stroke="#bcc0c4" stroke-miterlimit="10" stroke-width="2"/>
        <rect id="사각형_189" data-name="사각형 189" width="15" height="14" transform="translate(14 43.725)" fill="none" stroke="#2a5082" stroke-miterlimit="10" stroke-width="2"/>
        <rect id="사각형_190" data-name="사각형 190" width="15" height="14" transform="translate(29 43.725)" fill="none" stroke="#2a5082" stroke-miterlimit="10" stroke-width="2"/>
        <rect id="사각형_191" data-name="사각형 191" width="15" height="14" transform="translate(22 29.725)" fill="none" stroke="#2a5082" stroke-miterlimit="10" stroke-width="2"/>
        <line id="선_390" data-name="선 390" y2="27" transform="translate(8 31.725)" fill="none" stroke="#2a5082" stroke-miterlimit="10" stroke-width="2"/>
        <line id="선_391" data-name="선 391" y2="27" transform="translate(50 31.725)" fill="none" stroke="#2a5082" stroke-miterlimit="10" stroke-width="2"/>
        <path id="패스_558" data-name="패스 558" d="M29,16.725c-11,0-19.645,4.877-25,12l4,3c4.42-6.606,12.711-10,21-10s16.58,3.394,21,10l4-3c-5.355-7.123-14-12-25-12" fill="#a3d4ff"/>
        <path id="패스_559" data-name="패스 559" d="M29,16.725c-11,0-19.645,4.877-25,12l4,3c4.42-6.606,12.711-10,21-10s16.58,3.394,21,10l4-3C48.645,21.6,40,16.725,29,16.725Z" fill="none" stroke="#2a5082" stroke-linecap="round" stroke-linejoin="round" stroke-width="2"/>
        <rect id="사각형_192" data-name="사각형 192" width="5" height="4" transform="translate(27 29.725)" fill="none" stroke="#2a5082" stroke-miterlimit="10" stroke-width="2"/>
        <rect id="사각형_193" data-name="사각형 193" width="5" height="4" transform="translate(27 29.725)" fill="#a3d4ff"/>
        <rect id="사각형_194" data-name="사각형 194" width="5" height="4" transform="translate(27 29.725)" fill="none" stroke="#2a5082" stroke-linecap="round" stroke-linejoin="round" stroke-width="2"/>
        <rect id="사각형_195" data-name="사각형 195" width="5" height="4" transform="translate(19 43.725)" fill="#a3d4ff"/>
        <rect id="사각형_196" data-name="사각형 196" width="5" height="4" transform="translate(19 43.725)" fill="none" stroke="#2a5082" stroke-linecap="round" stroke-linejoin="round" stroke-width="2"/>
        <rect id="사각형_197" data-name="사각형 197" width="5" height="4" transform="translate(34 43.725)" fill="#a3d4ff"/>
        <rect id="사각형_198" data-name="사각형 198" width="5" height="4" transform="translate(34 43.725)" fill="none" stroke="#2a5082" stroke-linecap="round" stroke-linejoin="round" stroke-width="2"/>
      </g>
    </g>
  </g>
</svg>
