<svg xmlns="http://www.w3.org/2000/svg" xmlns:xlink="http://www.w3.org/1999/xlink" width="121.135" height="140" viewBox="0 0 121.135 140">
  <defs>
    <clipPath id="clip-path">
      <path id="다각형_3" data-name="다각형 3" d="M99.229,0a10,10,0,0,1,8.658,5l29.221,50.567a10,10,0,0,1,0,10.007l-29.221,50.567a10,10,0,0,1-8.658,5H40.771a10,10,0,0,1-8.658-5L2.891,65.571a10,10,0,0,1,0-10.007L32.113,5a10,10,0,0,1,8.658-5Z" transform="translate(141.135) rotate(90)" fill="#f5f5f5"/>
    </clipPath>
    <clipPath id="clip-path-2">
      <rect id="사각형_31" data-name="사각형 31" width="40" height="33.333" fill="#fff"/>
    </clipPath>
  </defs>
  <g id="그룹_49" data-name="그룹 49" transform="translate(-20)">
    <g id="마스크_그룹_19" data-name="마스크 그룹 19" clip-path="url(#clip-path)">
      <circle id="타원_4" data-name="타원 4" cx="70" cy="70" r="70" transform="translate(11)" fill="#1740c2"/>
    </g>
    <g id="icon" transform="translate(61 53)">
      <g id="그룹_25" data-name="그룹 25" clip-path="url(#clip-path-2)">
        <path id="패스_38" data-name="패스 38" d="M36.667,0H3.333A3.338,3.338,0,0,0,0,3.333V30a3.338,3.338,0,0,0,3.333,3.333H36.667A3.338,3.338,0,0,0,40,30V3.333A3.338,3.338,0,0,0,36.667,0m0,30H3.333V11.667H36.667Zm0-21.667H3.333v-5H36.667ZM15,18.333H11.667v3.333H15Zm6.667,0H18.333v3.333h3.333Zm6.667,0H25v3.333h3.333Z" fill="#fff"/>
      </g>
    </g>
  </g>
</svg>
