<svg xmlns="http://www.w3.org/2000/svg" xmlns:xlink="http://www.w3.org/1999/xlink" width="121.135" height="140" viewBox="0 0 121.135 140">
  <defs>
    <clipPath id="clip-path">
      <path id="다각형_1" data-name="다각형 1" d="M99.229,0a10,10,0,0,1,8.658,5l29.221,50.567a10,10,0,0,1,0,10.007l-29.221,50.567a10,10,0,0,1-8.658,5H40.771a10,10,0,0,1-8.658-5L2.891,65.571a10,10,0,0,1,0-10.007L32.113,5a10,10,0,0,1,8.658-5Z" transform="translate(141.135) rotate(90)" fill="#f5f5f5"/>
    </clipPath>
    <clipPath id="clip-path-2">
      <rect id="사각형_30" data-name="사각형 30" width="40" height="40" fill="#fff"/>
    </clipPath>
  </defs>
  <g id="그룹_50" data-name="그룹 50" transform="translate(-20)">
    <g id="마스크_그룹_18" data-name="마스크 그룹 18" clip-path="url(#clip-path)">
      <circle id="타원_3" data-name="타원 3" cx="70" cy="70" r="70" transform="translate(11)" fill="#1740c2"/>
    </g>
    <g id="icon" transform="translate(61 50)">
      <g id="그룹_23" data-name="그룹 23" clip-path="url(#clip-path-2)">
        <path id="패스_37" data-name="패스 37" d="M38.333,31.667H26.43a6.633,6.633,0,0,0-12.858,0H1.667a1.667,1.667,0,0,0,0,3.333h11.9A6.633,6.633,0,0,0,26.43,35h11.9a1.667,1.667,0,1,0,0-3.333M20,36.667a3.333,3.333,0,1,1,3.333-3.333A3.338,3.338,0,0,1,20,36.667M11.667,25H28.333A8.334,8.334,0,0,0,31.325,8.888a11.659,11.659,0,0,0-22.65,0A8.334,8.334,0,0,0,11.667,25M10.505,11.805l1.095-.262.167-1.115a8.326,8.326,0,0,1,16.468,0l.165,1.115,1.1.262a5,5,0,0,1-1.163,9.862H11.667a5,5,0,0,1-1.162-9.862" fill="#fff"/>
      </g>
    </g>
  </g>
</svg>
