<svg xmlns="http://www.w3.org/2000/svg" width="10.141" height="9" viewBox="0 0 10.141 9">
  <g id="다각형_2" data-name="다각형 2" fill="none">
    <path d="M7.021,0a1,1,0,0,1,.871.509l1.972,3.5a1,1,0,0,1,0,.982l-1.972,3.5A1,1,0,0,1,7.021,9H3.12a1,1,0,0,1-.871-.509L.277,4.991a1,1,0,0,1,0-.982L2.248.509A1,1,0,0,1,3.12,0Z" stroke="none"/>
    <path d="M 3.996212482452393 2.5 L 2.86945104598999 4.499998092651367 L 3.996209144592285 6.5 L 6.14463472366333 6.5 L 7.271396160125732 4.500001907348633 L 6.144638061523438 2.5 L 3.996212482452393 2.5 M 3.119613647460938 0 L 7.021233558654785 0 C 7.38227367401123 0 7.715273857116699 0.1946096420288086 7.892483711242676 0.509160041809082 L 9.864313125610352 4.009160041809082 C 10.03598403930664 4.313869953155518 10.03598403930664 4.686130046844482 9.864313125610352 4.990839958190918 L 7.892483711242676 8.490839958190918 C 7.715273857116699 8.805390357971191 7.38227367401123 9 7.021233558654785 9 L 3.119613647460938 9 C 2.758573532104492 9 2.425573825836182 8.805390357971191 2.248363494873047 8.490839958190918 L 0.2765331268310547 4.990839958190918 C 0.104863166809082 4.686130046844482 0.104863166809082 4.313869953155518 0.2765331268310547 4.009160041809082 L 2.248363494873047 0.509160041809082 C 2.425573825836182 0.1946096420288086 2.758573532104492 0 3.119613647460938 0 Z" stroke="none" fill="#1aa7ec"/>
  </g>
</svg>
