<svg xmlns="http://www.w3.org/2000/svg" width="22" height="26" viewBox="0 0 22 26">
  <g id="패스_517" data-name="패스 517" transform="translate(18 4) rotate(90)" fill="none" stroke-linecap="round" stroke-linejoin="round">
    <path d="M9,0l9,14H0Z" stroke="none"/>
    <path d="M 9 0 L 0 14 L 18 14 L 9 0 M 9 -4 C 10.36106014251709 -4 11.62870979309082 -3.307920455932617 12.36470985412598 -2.163030624389648 L 21.36470985412598 11.83697032928467 C 22.15596961975098 13.06781005859375 22.21200942993164 14.63245964050293 21.51084899902344 15.91674995422363 C 20.80969047546387 17.2010498046875 19.46323013305664 18 18 18 L 0 18 C -1.463230133056641 18 -2.809690475463867 17.2010498046875 -3.51085090637207 15.91674995422363 C -4.212009429931641 14.63245964050293 -4.155969619750977 13.06781005859375 -3.364709854125977 11.83697032928467 L 5.635290145874023 -2.163030624389648 C 6.37129020690918 -3.307920455932617 7.63893985748291 -4 9 -4 Z" stroke="none" fill="#fff"/>
  </g>
</svg>
