<svg xmlns="http://www.w3.org/2000/svg" width="9.716" height="8.623" viewBox="0 0 9.716 8.623">
  <g id="다각형_2" data-name="다각형 2" fill="none">
    <path d="M6.7,0a1,1,0,0,1,.871.509L9.439,3.821a1,1,0,0,1,0,.982L7.574,8.114a1,1,0,0,1-.871.509H3.013a1,1,0,0,1-.871-.509L.277,4.8a1,1,0,0,1,0-.982L2.142.509A1,1,0,0,1,3.013,0Z" stroke="none"/>
    <path d="M 3.597785949707031 1.999998569488525 L 2.295559406280518 4.311452388763428 L 3.59778881072998 6.622898578643799 L 6.118155479431152 6.622898578643799 L 7.420382022857666 4.311444759368896 L 6.118152618408203 1.999998569488525 L 3.597785949707031 1.999998569488525 M 3.013380527496338 -9.5367431640625e-07 L 6.702560424804688 -9.5367431640625e-07 C 7.063591003417969 -9.5367431640625e-07 7.396590709686279 0.1946086883544922 7.573801040649414 0.5091581344604492 L 9.439411163330078 3.820608615875244 C 9.611081123352051 4.12531852722168 9.611081123352051 4.497578620910645 9.439411163330078 4.80228853225708 L 7.573801040649414 8.113739013671875 C 7.396590709686279 8.428288459777832 7.063591003417969 8.622898101806641 6.702560424804688 8.622898101806641 L 3.013380527496338 8.622898101806641 C 2.652350902557373 8.622898101806641 2.319350719451904 8.428288459777832 2.142140865325928 8.113739013671875 L 0.2765302658081055 4.80228853225708 C 0.1048603057861328 4.497578620910645 0.1048603057861328 4.12531852722168 0.2765302658081055 3.820608615875244 L 2.142140865325928 0.5091581344604492 C 2.319350719451904 0.1946086883544922 2.652350902557373 -9.5367431640625e-07 3.013380527496338 -9.5367431640625e-07 Z" stroke="none" fill="#aaa"/>
  </g>
</svg>
