<svg xmlns="http://www.w3.org/2000/svg" width="13.778" height="16" viewBox="0 0 13.778 16">
  <g id="패스_51" data-name="패스 51" transform="translate(10.778 3) rotate(90)" fill="none" stroke-linecap="round" stroke-linejoin="round">
    <path d="M5,0l5,7.778H0Z" stroke="none"/>
    <path d="M 5 -9.5367431640625e-07 L 0 7.777778625488281 L 10 7.777778625488281 L 5 -9.5367431640625e-07 M 5 -3.000000953674316 C 6.020790100097656 -3.000000953674316 6.971539974212646 -2.480940818786621 7.523540019989014 -1.622271537780762 L 12.52354049682617 6.155508995056152 C 13.11697006225586 7.078629016876221 13.15900993347168 8.252119064331055 12.63314056396484 9.215338706970215 C 12.10727024078369 10.17855834960938 11.09741973876953 10.77777862548828 10 10.77777862548828 L 0 10.77777862548828 C -1.097419738769531 10.77777862548828 -2.107270240783691 10.17855834960938 -2.633139610290527 9.215338706970215 C -3.15900993347168 8.252119064331055 -3.116970062255859 7.078629016876221 -2.523539543151855 6.155508995056152 L 2.476459980010986 -1.622271537780762 C 3.028460025787354 -2.480940818786621 3.979209899902344 -3.000000953674316 5 -3.000000953674316 Z" stroke="none" fill="#fff"/>
  </g>
</svg>
