<svg id="_1" data-name="1" xmlns="http://www.w3.org/2000/svg" width="10.652" height="12" viewBox="0 0 10.652 12">
  <g id="다각형_5" data-name="다각형 5" transform="translate(10.652) rotate(90)" fill="none">
    <path d="M8.416,0a1,1,0,0,1,.871.509l2.437,4.326a1,1,0,0,1,0,.982L9.287,10.143a1,1,0,0,1-.871.509H3.584a1,1,0,0,1-.871-.509L.276,5.817a1,1,0,0,1,0-.982L2.713.509A1,1,0,0,1,3.584,0Z" stroke="none"/>
    <path d="M 4.168925762176514 2.000000953674316 L 2.295427322387695 5.326245784759521 L 4.168930053710938 8.652481079101562 L 7.83107328414917 8.652481079101562 L 9.704571723937988 5.326236248016357 L 7.831068992614746 2.000000953674316 L 4.168925762176514 2.000000953674316 M 3.584469795227051 9.5367431640625e-07 L 8.415539741516113 9.5367431640625e-07 C 8.776599884033203 9.5367431640625e-07 9.10962963104248 0.19464111328125 9.286828994750977 0.5092411041259766 L 11.72357940673828 4.8354811668396 C 11.89518928527832 5.140151023864746 11.89518928527832 5.512331008911133 11.72357940673828 5.817000865936279 L 9.286828994750977 10.1432409286499 C 9.10962963104248 10.45784091949463 8.776599884033203 10.65248107910156 8.415529251098633 10.65248107910156 L 3.584469795227051 10.65248107910156 C 3.22339916229248 10.65248107910156 2.890369415283203 10.45784091949463 2.713169097900391 10.1432409286499 L 0.2764196395874023 5.817000865936279 C 0.1048097610473633 5.512331008911133 0.1048097610473633 5.140151023864746 0.2764196395874023 4.8354811668396 L 2.713169097900391 0.5092411041259766 C 2.890369415283203 0.19464111328125 3.22339916229248 9.5367431640625e-07 3.584469795227051 9.5367431640625e-07 Z" stroke="none" fill="#fff"/>
  </g>
</svg>
