<svg xmlns="http://www.w3.org/2000/svg" xmlns:xlink="http://www.w3.org/1999/xlink" width="590" height="105.023" viewBox="0 0 590 105.023">
  <defs>
    <clipPath id="clip-path">
      <rect id="사각형_263" data-name="사각형 263" width="590" height="105.023" fill="none"/>
    </clipPath>
  </defs>
  <g id="그룹_378" data-name="그룹 378" transform="translate(0 0)">
    <g id="그룹_377" data-name="그룹 377" transform="translate(0 0)" clip-path="url(#clip-path)">
      <path id="패스_517" data-name="패스 517" d="M146.322,37.961a6.71,6.71,0,0,1,6.728-6.722h48a16.5,16.5,0,0,1,6.583,1.325,17.3,17.3,0,0,1,5.4,3.652,16.006,16.006,0,0,1,3.569,5.46,17.57,17.57,0,0,1,1.272,6.654v3.086a17.633,17.633,0,0,1-1.272,6.66,16.063,16.063,0,0,1-3.569,5.46,17.214,17.214,0,0,1-5.4,3.64,16.356,16.356,0,0,1-6.583,1.331h-64.5a18.931,18.931,0,0,1-10.229-2.8,26.711,26.711,0,0,1-7.632-7.218,34.171,34.171,0,0,1-4.84-9.876,36.366,36.366,0,0,1-1.681-10.653,34.5,34.5,0,0,1,1.752-10.721,32.776,32.776,0,0,1,5.116-9.805,27.9,27.9,0,0,1,8.13-7.22,20.861,20.861,0,0,1,10.783-2.8h73.2a6.483,6.483,0,0,1,4.76,1.965,6.5,6.5,0,0,1,1.968,4.76,6.715,6.715,0,0,1-6.728,6.734H141.028a15.541,15.541,0,0,0-7.914,1.749,14.458,14.458,0,0,0-4.76,4.271,14.758,14.758,0,0,0-2.386,5.537,26.739,26.739,0,0,0-.634,5.534,26.765,26.765,0,0,0,.634,5.537,14.786,14.786,0,0,0,2.386,5.534,14.538,14.538,0,0,0,4.76,4.277,15.664,15.664,0,0,0,7.914,1.749H200.49a3.916,3.916,0,0,0,3.012-1.544,5.4,5.4,0,0,0,1.331-3.637,5.816,5.816,0,0,0-1.192-3.649,3.8,3.8,0,0,0-3.151-1.538H153.05a6.7,6.7,0,0,1-6.728-6.728" transform="translate(220.297 14.554)" fill="#2371b0"/>
      <path id="패스_518" data-name="패스 518" d="M167.317,61.789a6.727,6.727,0,1,1-13.454,0V14.135a6.727,6.727,0,1,1,13.454,0Z" transform="translate(302.197 14.554)" fill="#2371b0"/>
      <path id="패스_519" data-name="패스 519" d="M182.836,44.686a17.92,17.92,0,0,1-7.283-1.476,18.756,18.756,0,0,1-5.881-3.99,19,19,0,0,1-4-5.887,18.105,18.105,0,0,1-1.467-7.277,18.164,18.164,0,0,1,1.467-7.3,18.943,18.943,0,0,1,9.882-9.876,17.919,17.919,0,0,1,7.283-1.473h73.722a6.7,6.7,0,0,1,6.731,6.731,6.7,6.7,0,0,1-6.731,6.725h-74a5.357,5.357,0,0,0-3.717,1.467,5.011,5.011,0,0,0,0,7.354,5.176,5.176,0,0,0,3.717,1.55h66.155a18.586,18.586,0,0,1,7.351,1.461,19.135,19.135,0,0,1,5.958,4,18.838,18.838,0,0,1,3.993,5.955,18.418,18.418,0,0,1,1.476,7.357,17.924,17.924,0,0,1-1.476,7.286,18.959,18.959,0,0,1-3.993,5.884,17.758,17.758,0,0,1-5.958,3.927,19.193,19.193,0,0,1-7.351,1.4H175.13a6.725,6.725,0,1,1,0-13.451h74.146a5.067,5.067,0,0,0,3.64-1.476,4.74,4.74,0,0,0,1.544-3.569,5.159,5.159,0,0,0-1.544-3.785,5,5,0,0,0-3.64-1.538Z" transform="translate(322.507 14.554)" fill="#2371b0"/>
      <path id="패스_520" data-name="패스 520" d="M101.434,20.861A15.594,15.594,0,0,0,93.5,22.619a14.492,14.492,0,0,0-4.754,4.271,14.791,14.791,0,0,0-2.389,5.534,27.382,27.382,0,0,0-.634,5.537,27.405,27.405,0,0,0,.634,5.537A14.536,14.536,0,0,0,93.5,53.309a15.722,15.722,0,0,0,7.932,1.743h68.7a6.727,6.727,0,1,1,0,13.454H96.94a18.9,18.9,0,0,1-10.232-2.8,26.627,26.627,0,0,1-7.632-7.218,34.339,34.339,0,0,1-4.84-9.879,36.207,36.207,0,0,1-1.675-10.65A34.467,34.467,0,0,1,74.307,27.24a32.739,32.739,0,0,1,5.116-9.805,27.77,27.77,0,0,1,8.136-7.22,20.824,20.824,0,0,1,10.783-2.8h71.787a6.7,6.7,0,0,1,6.725,6.731,6.452,6.452,0,0,1-1.962,4.754,6.442,6.442,0,0,1-4.763,1.965Zm62.817,10.377a6.69,6.69,0,0,1,6.717,6.722,6.695,6.695,0,0,1-6.717,6.725H102.966a6.7,6.7,0,0,1-6.725-6.725,6.7,6.7,0,0,1,6.725-6.722Z" transform="translate(142.514 14.554)" fill="#2371b0"/>
      <path id="패스_521" data-name="패스 521" d="M42.119,45.817c0,3.269-2.647,7.422-5.919,9.272L5.925,72.262C2.656,74.109,0,72.962,0,69.692V34.061C0,30.792,2.656,22.217,5.925,20.37L36.2,3.193c3.272-1.844,5.919-.694,5.919,2.576Z" transform="translate(0 4.546)" fill="#2371b0"/>
      <path id="패스_522" data-name="패스 522" d="M83.957,53.521c0,3.269-2.653,7.422-5.922,9.266L51.37,77.966c-3.275,1.85-5.922.7-5.922-2.573V35.349c0-3.269,2.647-7.425,5.922-9.278L78.035,10.9c3.269-1.847,5.922-.7,5.922,2.576Z" transform="translate(89.263 19.674)" fill="#2371b0"/>
      <path id="패스_523" data-name="패스 523" d="M75.044,43.16c-2.934,1.621-6.462,2.069-11.281-.554L33.915,25.675c-3.24-1.853-3.72-5-.788-6.619L64.679,1.106c2.937-1.624,7.858-1.438,11.106.418L106.1,18.866c3.234,1.853,3.489,4.665.557,6.293Z" transform="translate(61.244 0)" fill="#404042"/>
      <path id="패스_524" data-name="패스 524" d="M46.1,63.676c-2.934,1.621-8.042,1.3-11.284-.554L4.965,46.191c-3.24-1.853-3.717-5-.788-6.616L35.732,21.622c2.931-1.621,7.855-1.438,11.1.421l30.313,17.34c3.234,1.853,3.486,4.665.557,6.293Z" transform="translate(4.387 40.298)" fill="#404042"/>
      <path id="패스_525" data-name="패스 525" d="M15.616,45.3c0,3.266,2.65,7.422,5.919,9.272L93.891,95.649c3.275,1.847,5.922.7,5.922-2.57V53.032c0-3.269-2.647-7.422-5.922-9.278L21.535,2.675c-3.269-1.847-5.919-.694-5.919,2.576Z" transform="translate(30.671 3.526)" fill="#209fc7"/>
    </g>
  </g>
</svg>
