<svg xmlns="http://www.w3.org/2000/svg" xmlns:xlink="http://www.w3.org/1999/xlink" width="71" height="18" viewBox="0 0 71 18">
  <defs>
    <clipPath id="clip-path">
      <rect id="사각형_549" data-name="사각형 549" width="71" height="18" transform="translate(-0.4 0)" fill="#fff" stroke="#707070" stroke-width="1"/>
    </clipPath>
    <clipPath id="clip-path-2">
      <rect id="사각형_550" data-name="사각형 550" width="69.109" height="9.9" fill="#39f"/>
    </clipPath>
  </defs>
  <g id="마스크_그룹_104" data-name="마스크 그룹 104" transform="translate(0.4)" clip-path="url(#clip-path)">
    <g id="그룹_978" data-name="그룹 978" transform="translate(0.9 5.4)">
      <g id="그룹_977" data-name="그룹 977" clip-path="url(#clip-path-2)">
        <path id="패스_809" data-name="패스 809" d="M134.912,4.947A15.309,15.309,0,0,1,134.8,7.22a2.593,2.593,0,0,1-.8,1.67,4.752,4.752,0,0,1-5.857,0,2.611,2.611,0,0,1-.807-1.67,14.958,14.958,0,0,1-.118-2.274,15.182,15.182,0,0,1,.118-2.3,2.625,2.625,0,0,1,.807-1.637,4.738,4.738,0,0,1,5.857,0,2.605,2.605,0,0,1,.8,1.637,15.538,15.538,0,0,1,.117,2.3m-3.856-2.924a1.447,1.447,0,0,0-1.542,1.582v2.6a1.549,1.549,0,1,0,3.1,0v-2.6a1.452,1.452,0,0,0-1.553-1.582" transform="translate(-91.897 0)" fill="#39f"/>
        <path id="패스_810" data-name="패스 810" d="M106.488,10.023h-2.617l-2.324-4.059-1.125,1.324v2.735H98.17V.288h2.252V4.109L103.644.288h2.65L103.042,4.2Z" transform="translate(-70.919 -0.208)" fill="#39f"/>
        <path id="패스_811" data-name="패스 811" d="M167.916,9.927H165.46l-1.451-3.621h-1.386V9.927h-2.269V.154h4.412a2.865,2.865,0,0,1,2.966,3.021,3.114,3.114,0,0,1-1.606,2.76ZM165.44,3.282a1,1,0,0,0-1.077-1.088h-1.74V4.347h1.74a.984.984,0,0,0,1.077-1.065" transform="translate(-115.841 -0.111)" fill="#39f"/>
        <path id="패스_812" data-name="패스 812" d="M198.105,10.023h-6.793V.288h6.845v1.98h-4.588V4.111h3.923v2h-3.923V7.974h4.536Z" transform="translate(-138.206 -0.208)" fill="#39f"/>
        <path id="패스_813" data-name="패스 813" d="M225.219,10.024h-2.38l-.643-1.941H219.1l-.6,1.941h-2.4L219.49.288h2.361Zm-3.57-3.789-.978-3.4-1.025,3.408Z" transform="translate(-156.11 -0.208)" fill="#39f"/>
        <path id="패스_814" data-name="패스 814" d="M40.694,4.947a16.837,16.837,0,0,1-.109,2.274,2.624,2.624,0,0,1-.816,1.67A4.06,4.06,0,0,1,36.839,9.9a4.05,4.05,0,0,1-2.925-1.01A2.678,2.678,0,0,1,33.1,7.22a16.857,16.857,0,0,1-.106-2.274,17.109,17.109,0,0,1,.106-2.3,2.7,2.7,0,0,1,.818-1.637A4.039,4.039,0,0,1,36.839,0,4.049,4.049,0,0,1,39.77,1.013a2.639,2.639,0,0,1,.816,1.637,17.087,17.087,0,0,1,.109,2.3M36.839,2.023A1.45,1.45,0,0,0,35.29,3.605v2.6a1.548,1.548,0,1,0,3.094,0v-2.6a1.447,1.447,0,0,0-1.545-1.582" transform="translate(-23.833 0)" fill="#39f"/>
        <path id="패스_815" data-name="패스 815" d="M73.819,7.16A2.821,2.821,0,0,1,72.9,9.348a3.12,3.12,0,0,1-2.2.676H66.286V.288h4.2A3.233,3.233,0,0,1,72.813.9a2.556,2.556,0,0,1,.822,2.015,2.217,2.217,0,0,1-1.173,1.946,2.653,2.653,0,0,1,1.356,2.3M71.347,3.12c0-.5-.381-.821-.987-.821H68.508V4.022h1.772c.766,0,1.066-.364,1.066-.9m.081,3.856a.936.936,0,0,0-1.012-1.022H68.508v2.02h1.867a.927.927,0,0,0,1.053-1" transform="translate(-47.886 -0.208)" fill="#39f"/>
        <path id="패스_816" data-name="패스 816" d="M5.366.287V5.123h0V6.375a1.422,1.422,0,0,1-1.3,1.587,2.059,2.059,0,0,1-.25.016,1.444,1.444,0,0,1-1.55-1.6V6.134H0A10.233,10.233,0,0,0,.092,7.382,2.657,2.657,0,0,0,.9,9.041a4.023,4.023,0,0,0,2.906,1c.084,0,.167,0,.25,0a5.129,5.129,0,0,0,1.154-.166,3.071,3.071,0,0,0,1.3-.622,2.932,2.932,0,0,0,1.125-2.6V.287Z" transform="translate(0 -0.207)" fill="#39f"/>
      </g>
    </g>
  </g>
</svg>
