<svg xmlns="http://www.w3.org/2000/svg" xmlns:xlink="http://www.w3.org/1999/xlink" width="489.353" height="651.645" viewBox="0 0 489.353 651.645">
  <defs>
    <clipPath id="clip-path">
      <rect id="사각형_88" data-name="사각형 88" width="489.353" height="651.645" fill="none"/>
    </clipPath>
  </defs>
  <g id="지도" clip-path="url(#clip-path)">
    <path id="패스_1182" data-name="패스 1182" d="M466.032,1064.15l-5.051,3.8.408,7.34,20.6-1.082-12.321,7.065,7.68,5.706.807,5.983-5.46-6.524H462.2l-2.223,9.515-14.944,10.063,1,4.893,17.173,1.634,2.423-2.18,1.416.814-.2,3.807-5.254,1.63-2.825-.271-13.535,7.891-2,5.159c.379-.061,3.37.153,5.235,5.175.027.069,2.256,6.075,7.008,8.279a9.469,9.469,0,0,0,7.465.071l1.178.286a1.05,1.05,0,0,0,.915.118c1.2-.285,4.486-2.33,9.241-15.124l1.208-.691,3.641.65,4.334-4.112,1.728.314c.04.078,3.753,7.663,8.175,10.771l2.208-1.625c.508-1.153,2.472-4.927,6.141-4.117l.848,1.122-.261,4.549,2.623,4.593.132.7-.478,3.229,4.489,4.837c2.068-1.732,7.747-5.734,14.832-4.809.112.019,9.505,1.353,13.231-3l.2-.177c1.877-1.338,6.663-2.806,11.355,1.176l.167.176a11.376,11.376,0,0,0,7.037,3.967l.236-5.846.256-.656,5.606-6.631a24.84,24.84,0,0,0-7.116-12.211l-.331-1.117,1.233-4.253.352-5.217.641-.915,2.572-1.161-.51-15.03.55-.98,8.731-4.932,1.473-2.653.875-.556,2.906-.2,2.229-3.2.549-.411,5.108-1.678-.921-2.827.234-1.073,2.836-3.062-3.224-10.079c-.531.023-1.05.048-1.628.048a64.935,64.935,0,0,1-18.019-2.893l-.2,4.435-1.011,1.034-5.109.348-.719-.21-1.88-1.392-6.146,5.887-1.336.127-7.713-4.929-3.675-1.684-.5-1.5,1.279-2.384-3.219-2.6-.4-.76-.221-2.807-3.024-1.984-1.215,3-.465.533c-.353.207-8.767,4.97-17.5,2.026l-.69-.7a27,27,0,0,1-1.157-6.745,8.6,8.6,0,0,1-5.528,1.163c-3.656-1.094-7.859-2.057-9.143-2.015l-3.119,3.3a9.528,9.528,0,0,1-4.744,8.09l-.6.134-2.327-.149-6.1,4.871-7.322,1.9Z" transform="translate(-313.09 -739.624)" fill="#b1b7c1"/>
    <path id="패스_1183" data-name="패스 1183" d="M434.646,1146.255l-6.906,2.123-6.5-4.778-.2,10.613,13.608-2.39Z" transform="translate(-297.417 -807.827)" fill="#b1b7c1"/>
    <path id="패스_1184" data-name="패스 1184" d="M389.115,1241.238l.984-6.359-5.324,4.244Z" transform="translate(-271.802 -872.306)" fill="#b1b7c1"/>
    <path id="패스_1185" data-name="패스 1185" d="M393.61,799.643l7.09-1.84,5.84-4.78.756-.244,2.42.155a7.587,7.587,0,0,0,3.365-6.414l.3-.8,3.656-3.873.471-.293c1.879-.577,8.476,1.342,10.452,1.941a6.638,6.638,0,0,0,5.64-2.285l1.879,1.016c-.7,2.1.112,5.93.632,7.778,6.711,1.993,13.365-1.072,14.874-1.846l1.561-3.862,1.6-.5,4.579,3,.486.825.228,2.871L463,793.37l.276,1.358-1.164,2.158,2.758,1.273,7.121,4.541,6.2-5.926,1.4-.088,2.292,1.7,3.741-.254.216-4.842.152-.506,1.679-2.833-5.077-5.563-.28-.822.337-4.134-9.053-6.345a3.56,3.56,0,0,0-3.924,2.842l-.319.891-1.236.679-3.4-.706-3.507-1.292-2.719,1.376-1.333-.283-2.645-3.246-2.4-.614-.778-1.343.705-2.521-.614-2.369.112-1.779-1.273-2.177-.118-.807,2.359-9.683.844-.809,1.579-.31.511-.392-2.159-9.465-10.289-12.425-.066-1.3,2.442-3.664.4-.361,2.852-1.493.957-.025,2.4,1.1.953-1.7v-1.237l.6-.971,4.61-2.326,1.485-4.293,1.139-.726,3.295.339c-2.144-6.1-9.59-13.4-9.672-13.476l-.3-.533-.577-2.495-3.387-5.025c-10.16-5.917-17.9-.179-17.978-.119l-1.114.123-2.867-1.328-5.582,1.831-.124-.383-9.849,3.941-.981,7.3L403.58,682.7l-11.61-1.32-12.691-7.293c-3.365,4.666-7.16,4.236-7.16,4.236l-8.683-.3-6.945,7v6.434l-6.832.578-.325,7.885-3.14-1.18c-6.663,8.7-5.651,16.859-5.651,16.859l7.474,2.984,7.467-1.63,3.031,6.25-.6,6.8L361.751,733l-1.219,9.522,1.219,1.9v3.533l3.629,1.361,3.233,6.792,6.663,1.91L366.8,727.3l4.045,1.367,4.437-4.9-.2,8.7,3.434,7.612-1.409,1.362.805,4.621L388,743.34l-9.694,7.61,6.058,6.8-1.212,1.631h-3.03l-1.616,4.078,2.627,2.715-.6,9.509-3.033,6.265,10.708,5.98Z" transform="translate(-240.517 -476.171)" fill="#b1b7c1"/>
    <path id="패스_1186" data-name="패스 1186" d="M418.56,952.922l-.2,6.627,4.729-4.244Z" transform="translate(-295.524 -673.134)" fill="#b1b7c1"/>
    <path id="패스_1187" data-name="패스 1187" d="M326.4,1003.523l-1.382,6.9,5.915-.788Z" transform="translate(-229.588 -708.878)" fill="#b1b7c1"/>
    <path id="패스_1188" data-name="패스 1188" d="M400.725,230.556l-1.628,2.78-8.573,4.382-8.57-3.069-3.58,5.55,3.367,2.187,5.745-.143-2.384,4.381,6.073,7.3v.436l5.163-.57-.137-1.358,10.5-1.059,4.744,5.735,2.031-1.011v-3.4l.823-1.055,1.446-.365.732.077,6.738,3.209.891-1.389-1.024-6.834.783-1.209,6.247-1.721.972.2.75.611,2.9-7.316,1.691-.446,3.653,2.953.577-1.145.972-.6h5.433l1.078.988,1.494,15.914,5.582-1.906,1.421.85.905,5.523-.55,1.127-2.113,1.155,1.5,3.433-.233,1.21L444.653,277.19l-1.33.147-6.332-3.882-7.649,2.888-1.2-.3-4.085-4.636-4.33,2.008-.253-.078.359.411-4.595,4,3.6,2.318,2.5,5.255,2.168-.3,2.384,2.628-3.143,4.094,7.16,2.487,3.58,4.233L409.952,297.3l1.3,4.966-.55,4.969,9.447,1.744c1.412,8.765,4.234,10.224,4.234,10.224L431,312.774l3.356,2.335-3.684,3.507.65,4.237-.869,2.189-1.521,1.747,1.09.443,2.275,2.186,7.707-2.186-1.2,3.353-4.771.59,7.161,8.468,7.562,1.4-.1-.316,5.985-1.962.793.047,2.706,1.254c2.153-1.333,10.187-5.407,20.052.476l.346.325,2.1,3.193,2.718-3.8.7-.441,5.472-.87a1,1,0,0,0,.4-.029.311.311,0,0,1-.013-.067,3.38,3.38,0,0,1-1.227-2.508c.021-1.153.757-2.184,2.178-3.063l7.613-4.419.619-.144,4.655.319,7.216-6.193,4.154-2.08,1.1-3.428,5.209-6.7,2.791-4.772-1.285-13.994.6-1.071c.941-.472,3.6-4.717,5.682-8.611l-3.01-3.82-.236-.654-.089-5.323.741-1.051,3.568-1.2a11.6,11.6,0,0,0-3.019-4.311l-3.326.117-.416-.069a26.448,26.448,0,0,1-8-5.19,22.249,22.249,0,0,1-5.764-.639c-8.041-3.23-7.051-7.8-7.006-8l.662-.759,2.718-1.063-1.856-3.428c-3.571-5.825-1.646-10.45-1.56-10.645a31.31,31.31,0,0,1,5.816-12.01l.154-3.128-4.109-1.884a34.684,34.684,0,0,1-7.31-4.989c-2.742-3.215-2.569-9.814-2.559-10.09a1.907,1.907,0,0,0-.479-1.366,1.284,1.284,0,0,0-.9-.147l-8.86,1.118-.708-.152-4.874-3.012a2.433,2.433,0,0,1-1.208-1.461,4.269,4.269,0,0,1-.073-2.009,5.988,5.988,0,0,1-3.784.3l-.236-.119-4.161-2.733-.471-1.11.872-4.55-5.111-2.775c-4.2,1.764-12.414.182-13.377-.014l-.511-.257-5.114-4.586-11.442,2.738-13.553,6.815.072,2.4-.671,1.039-6.65,2.712-2.366,7.284-.377.529-5.311,4.031-1.382-.053-3.724-3.324-.388,1.337-.213,3.756,1.139,1.8.168.567L401,220.1l-.052.351-2.456,7.523Z" transform="translate(-267.28 -127.998)" fill="#b1b7c1"/>
    <path id="패스_1189" data-name="패스 1189" d="M445.884,595.174l6.11,1.585,2.165-3.448L452.2,589.6l-4.737.264Z" transform="translate(-314.968 -416.488)" fill="#b1b7c1"/>
    <path id="패스_1190" data-name="패스 1190" d="M406.259,569.93l9.272,2.125-7.3-5.043Z" transform="translate(-286.977 -400.531)" fill="#b1b7c1"/>
    <path id="패스_1191" data-name="패스 1191" d="M340.458,584.375l21.886,10.62.987-4.248-9.666-2.121L342.626,576.95Z" transform="translate(-240.496 -407.552)" fill="#b1b7c1"/>
    <path id="패스_1192" data-name="패스 1192" d="M367.845,403.433l-5.915,2.921,11.637,5.042Z" transform="translate(-255.664 -284.981)" fill="#b1b7c1"/>
    <path id="패스_1193" data-name="패스 1193" d="M300.156,608.584,296.8,617.34l6.906-3.451Z" transform="translate(-209.657 -429.897)" fill="#b1b7c1"/>
    <path id="패스_1194" data-name="패스 1194" d="M507.522,395.807l-1.382.392-7.252-3.455-.243.062v3.227l-.6.972-2.18,1.085L497.434,400l4.564,2.11.43,1.611-1.952,2.776,2.226,3.8,4.172-1.938,1.272.267,4.122,4.683,7.443-2.811.951.092,6.068,3.717,10.349-10.1-1.6-3.659.477-1.386,2.308-1.261L537.7,394.4l-5.661,1.935-1.433-.919-1.54-16.309h-3.768l-.878,1.754-1.655.357-3.556-2.871-2.9,7.317-1.694.442-1.469-1.187-4.774,1.319.941,6.286-.158.75Z" transform="translate(-350.271 -267.259)" fill="#b1b7c1"/>
    <path id="패스_1195" data-name="패스 1195" d="M421.995,446.938a16.276,16.276,0,0,1-9.542.294l-.871-4.238-7.7.292,7.92,5.988-2.168,4.811,8.135,3.508,14.425-10.507-.076,3.1,3.923-3.421-2.767-4.718.049-1.175,1.607-2.284-3.669-1.694-.06.047L431,436.7l-.17-.131-2.5-3.091-4.552-5.5-9.093.913-2.028,1.694.218,5.113,9.761.58c3.364,1.9,2.39,5.7,2.39,5.7a15.88,15.88,0,0,1-3.04,4.967" transform="translate(-285.297 -302.318)" fill="#b1b7c1"/>
    <path id="패스_1196" data-name="패스 1196" d="M834.774,644.209a4.993,4.993,0,0,1,1.653-4.16l.62-.21c7.634-.144,11.09-6.6,11.971-8.568l-4.461-5.445-3.295.143-3.909,3.125-1.646-.346-1.665-3.217L821.014,619l-.534-1.35.893-2.408h-3.934l-.762-.313L813.1,611.4l-3.806.282-2.718,4.291-.9.5-7.848.172-.637-.19-6.918-4.741-2.688,5.785a5.83,5.83,0,0,1-2.275,3.831,2.787,2.787,0,0,1-1.782.433l-9.414,1.042-.917-.342-5.187-5.592-4.291,5.533-.987,3.329-.557.663-4.458,2.228-7.228,6.247-.786.261-4.769-.327-7.3,4.237c-.7.431-1.118.89-1.121,1.244-.012.43.547.9.656.973l.446.636a2.46,2.46,0,0,1-.44,2.4,2.644,2.644,0,0,1-2.145.712l-4.518.771L727.57,649.9l.41.619.55,2.384c1.47,1.468,9.15,9.384,10.471,15.837l-1.179,1.3-4.026-.416-1.346,3.9-.537.615-4.407,2.222v.853l-.136.531-1.009,1.8.115.052-.343.748,6.274,4.226.4.505,5.254,13.479,1.086,1.863h3.56l.981.617,3.4,7.106,2.87,1.767.273,1.615-5.29,6.447,2.381,9.109,9.487,6.647.459.978-.346,4.285,5.3,5.808.13,1.285-1.373,2.318c17.035,4.94,25.7,1.838,26.9,1.336,7.5-7.582,7.532-14.336,7.532-14.4l1.212-1.094c.2.025.224-.022.258-.057.553-.615.441-3.151-.009-5.138a7.354,7.354,0,0,0-1.509-2.657l-.265.235-2.745,1.239-.843.02c-7.631-2.973-11.8-6.045-12.4-9.131a3.632,3.632,0,0,1,.926-3.251l1.534-1.287-1.276-3.142.04-.9,1.95-3.846c-4.355-6.933-2.839-9.46-2.484-9.9l.179-.176,2.445-1.922-4.055-8.187-.033-.894,2.1-5.1,1.473-.568,5.642,2.682.993-2.347-3.183-3.364.015-1.505,3.787-3.872,1.124-.269,2.965.991,6.517-.123-2.994-2.94-.213-1.258,1.965-3.972-.115-2.719,1.132-1.13,2.783.126a16.786,16.786,0,0,1,1.136-4.561l1.719-.408c3.951,3.424,6.9,3.753,8.143,3.726a42.05,42.05,0,0,1,1.916-5.949l1.7-.436,4.714,3.867.294.387,1.971,4.3.823.553-.14-.89,1.5-1.169,6.563,2.786,3.863-6.934-3.784-4.58-.787-2.633.261-1.063Z" transform="translate(-512.934 -431.885)" fill="#b1b7c1"/>
    <path id="패스_1197" data-name="패스 1197" d="M579.777,1455.684l-5.075-7.612-3.173.269-2.882,3.373-.734.377-5.7.453-1.154-.87-.507-2.543-1.794.375-1.686,4.256-.98.686-2.257.064-1.406,9.352,1.673,1.374,6.472-1.178,1.115.492,3.543,5.682,2.275-.195,9.214-5.049,1.5.479.8,1.652,4.2-2.981,1.345-7.837-3.917-.136Z" transform="translate(-390.227 -1022.903)" fill="#b1b7c1"/>
    <path id="패스_1198" data-name="패스 1198" d="M1016.681,1636.154l4.345,11.144,14.2-2.92s-6.117-2.655-11.444-2.655Z" transform="translate(-718.173 -1155.762)" fill="#b1b7c1"/>
    <path id="패스_1199" data-name="패스 1199" d="M254.745,1421.127l7.171,1.47c1.47-5.96-3.687-21.818-3.687-21.818l2.858-7.723-.47.042-1.747-19.445.055-.444,1.322-3.955-7.438-3.695-.529-.573-9.621-24.694.037-.948a13.3,13.3,0,0,1-8.606-4.729c-4.182-3.481-7.893-1.438-8.513-1.053-4.567,5.129-14.652,3.685-15.083,3.618-7.689-1.011-13.772,4.889-13.832,4.95l-1.561-.034-5.569-6-.28-.9.5-3.374-2.6-4.547-.14-.6.215-3.76c-1.822.376-2.839,3.051-2.848,3.08l-.377.5-3.058,2.249-1.2.054c-4.072-2.436-7.516-8.171-8.928-10.767l-3.684,3.5-.941.282-3.295-.59c-3.709,9.747-7.277,15.017-10.614,15.667a3.176,3.176,0,0,1-2.232-.322,11.389,11.389,0,0,1-8.595-.337c-5.576-2.592-8.02-9.217-8.123-9.5-1.34-3.6-3.137-3.746-3.216-3.749l.009-2.141-.409,1.053-8.075,23.661-5.655,1.082,2.417,4.079,5.053,1.081,2.023,5.99,3.835,4.341-8.687-2.987,1.014-4.078-16.767,4.078-.2,3.811-3.028-5.715,2.01-4.351-2.414.273-6.061,3.806-6.469.547.611,3.533,11.105,6.517-1.816,6.8,3.838,1.9,3.435-2.717-.4-4.345,3.234-1.084,4.446,7.334,2.01-1.083,1.418-1.362-1.619-2.176.407-2.99,2.22-1.084,2.423-4.624.2,4.349,1.822,2.445-8.081,10.6-5.658,2.179,3.234,5.166.2,5.436,4.643.533,1.616-1.621,1.622.546a4.267,4.267,0,0,1-.808,2.719l-7.072,17.123,3.835,7.88.343,2.3-.774-.536-1.58.275-.589,5.034-15.967,9.823-.595,5.567s2.958,1.326,5.718,6.909h6.7l2.566-3.194,4.731,1.066,5.913-4.781,2.96-8.486-1.774-6.637-6.164-4.251,3.763,1.264,3.431,3.809,5.657,1.354,1.008,2.456,1.816,11.952,1.018,1.64-.2,5.436,4.846,2.712.2,4.084,3.635,3.526,5.052-2.441-.61-3.533-.407-4.074,9.5,7.607,4.243-1.089v-2.72l12.52.542,4.647-4.341,2.824-6.527-7.066-1.088,10.5-5.717-.2-6.521,1.211-3.257.6-9.516,18.592-10.336,4.239-4.347,7.076,2.444-.207,4.348-1.819,2.183-2.42-5.709-3.642,3.8.2,8.7-3.829-4.62-2.226,5.982-2.427.276c-2.423,5.983-3.428,16.849-3.428,16.849l6.259,3.534,4.844-.542,1.214-5.162c-2.627-2.175-9.493-.806-9.493-.806l.4-3.817,7.673-.544,5.051,3.542,6.663,7.063.206-1.089.2-4.349,3.437-.552,6.463-7.6-2.43-2.445,2.837-1.368H240l1.415-4.619-9.3.264-10.5-14.948,3.231-7.335-3.231-1.63,7.067-.267,5.858-5.99.8,7.065,1.412.822c7.277,5.439,2.226,17.4,2.226,17.4l7.359,8.915-2.716.872,15.961,9.513-2.02,9.783,4.646,1.9,4.437-12.5-7.665-4.078Zm-59.689-48.032-.447.7L189,1377.779l-1.607-.414-.859-1.778-8.843,4.739-3.165.271-1.015-.506-3.5-5.62-6.241,1.137-.884-.229-2.536-2.082-.385-1,1.628-10.863,1.044-.925,2.454-.067,1.637-4.135.786-.661,3.441-.723,1.287.848.531,2.675,4.294-.341,2.876-3.369.735-.375,4.257-.364,1,.482,5.121,7.683,4.6.161,1.032,1.27Zm57.873,48.032-5.86,1.884v-11.947l2.425-5.436,6.261,4.615-2.023,4.626ZM33.316,1464.506l6.316-1.585-3.359-4.774ZM0,1471.668l.395,10.619,8.475-3.193-5.518-1.848Zm5.524-60.488,4.533,4.5,6.307-9.024-7.495-.794Zm30.95,1.58,1.78-6.1-.79-5.835-1.78,5.567-4.139,1.06-.589,3.727-1.385,1.849.989,2.126-.2,3.185Zm168.773,58.646,6.11,2.126-.984-9.286Zm9.858,23.357,4.735-5.842-7.884-2.652Zm1.58-37.418,7.288-1.867-3.149-5.032Zm12.219-30.517-1.181,10.085,8.482,6.1,3.352-1.332-6.9-15.922Zm-39.235,23.35-2.955-1.587-5.916,4.243.589,4.779,12.029-1.33,4.339.794-7.686-20.428Zm-80.244-33.429-5.715-3.989-4.34,1.864,1.773,5.577Zm-16.168-36.89-9.064,8.753,6.307-.257,5.318,4.505-1.373,7.965,12.217,8.749-1.574-11.138.985-2.649-4.929-2.657,2.369-1.86.392-4.244-2.955-1.326-3.153,2.123-2.368-2.389,1.184-3.455Zm-7.488,42.987,1.376-2.117,2.368.263,3.156,7.964,7.294-6.641L95.817,1417l-7.289.273-2.365-2.123,2.76-5.835-3.355-6.9.792-5.57-6.5,2.914-.6,4.243-.984,3.982,1.971,3.721,3.35,1.321-.984,4.777Zm67.034,55.466,1.771-1.333.2-8.758-3.353-1.854-4.145-5.041-5.521,1.058-2.566,6.633-1.573,1.331-.988,5.033,3.943,1.332,3.951-2.644,3.939.254-.194,2.391Zm15.181-3.191,8.676,2.661.789-6.376-5.921-2.651ZM89.512,1448.86l-2.563,8.753-11.832,3.447,18.932.8,4.139-8.487Zm-19.123-30,4.139-4.772-5.123-1.594Zm30.954-84.646-2.566,3.45,5.919,1.594Zm-7.692-1.059H88.13l5.324,6.36Z" transform="translate(0 -931.044)" fill="#b1b7c1"/>
    <path id="패스_1200" data-name="패스 1200" d="M1838.3,449.08l-5.861,1.448-7.71,4.983-.605.2,8.316,5.193c5.548.205,7.553-6.227,7.553-6.227Z" transform="translate(-1371.544 -317.225)" fill="#b1b7c1"/>
    <path id="패스_1201" data-name="패스 1201" d="M1921.256,486.682l-4.133,1.021-5.438,3.515-.426.138,5.864,3.663c3.912.144,5.324-4.393,5.324-4.393Z" transform="translate(-1433.093 -343.787)" fill="#b1b7c1"/>
    <path id="패스_1202" data-name="패스 1202" d="M1283.572,1359.732l2.97-2.221-2.181-1.568-3.161-.444-.6-.3-2.9-2.822-3.461.17-.262,2.707-.631.884c-.188.088-18.977,8.693-23.973,19.338l-.817.614-2.014.31,1.279,4.386-.367.11.395,3.148,5.1,9.509c2.754-1.589,4.713-.529,4.713-.529a35.076,35.076,0,0,1,5.109-3.174c4.315-1.586,14.528,3.174,14.528,3.174l.786-3.7-9.422-6.347,6.672-2.639Z" transform="translate(-880.542 -955.307)" fill="#b1b7c1"/>
    <path id="패스_1203" data-name="패스 1203" d="M1321.308,1227.427c.082-.164.149-.321.228-.484l-.517.692-4.163-3.095-1.062,2.2-.666.568-6.477,1.945-1.2-.413-6.465-9.146c-2.4,1.189-7.38,2.958-9.086,3.553a14.949,14.949,0,0,1-10.553,9.667h-.422l-1.385-.272-.161,1.547,17.574,22.48,4.307-.214.814.307,2.982,2.906,3.069.433.483.193,2.709,1.945-.57.792,3.094-2.311c-1.568-12.687,1.97-21.672,1.97-21.672l1.966,6.339,3.921-.523-.389-7.41,1.962-5.275Z" transform="translate(-903.74 -861.581)" fill="#b1b7c1"/>
    <path id="패스_1204" data-name="패스 1204" d="M1072.018,770.2l-11.782,8.99-4.711-2.651-1.576-3.695,3.538-2.116,1.178-4.232c-3.544-2.637-2.36-8.456-2.36-8.456l-1.564-3.164.4-14.792a40.865,40.865,0,0,0,3.529-24.852c-2.745-7.923-1.178-16.907-1.178-16.907l5.108-3.7c.389-9.51-7.07-19.03-7.07-19.03V652.351a26.559,26.559,0,0,1-3.112-5.109c-7.978,1.31-12.482,10.737-12.527,10.831l-1.235.6-3.666-.878-.462-.237L1030.9,654.4l-1.251,1.457-.827.381h-4.962l-3.829,1.983-1.106-.063-6.277-4.22-7.406-.173-.887-.494-2-3.065-4.968,6.977-.422.354a21.884,21.884,0,0,1-9.292,2.366,11.151,11.151,0,0,1-6.159-1.622c-1.469,2.847-5.4,8.682-13.073,9.037a3.454,3.454,0,0,0-.56,2.517l-.3.86-2.442,2.542.54,1.806,3.909,4.584.124,1.233-4.711,8.445-1.373.47-5.661-2.4.222,1.418-1.679,1.071-3.143-2.114-.38-.451L951,682.942l-3.347-2.75a23.851,23.851,0,0,0-1.362,4.788l-.756.959c-.176.06-4.011,1.191-9.621-3.082a9.41,9.41,0,0,0-.487,3.335l-1.126,1.214-2.747-.127.077,1.813-.109.529-1.741,3.516,4.283,4.2-.741,1.862-9.293.175-.367-.058-2.5-.836-2.584,2.637,2.948,3.119.213,1.17-1.706,4.05-1.467.556-5.636-2.679-1.47,3.591,4.227,8.539-.3,1.337-2.977,2.338c-.094.328-.547,2.448,2.961,7.844l.06,1.086-2.009,3.959,1.384,3.418-.306,1.239-2.092,1.753a1.52,1.52,0,0,0-.222,1.265c.224,1.026,1.713,3.767,10.614,7.3l2.081-.938a1.827,1.827,0,0,1,1.488-.619c1.278.082,2.354,1.4,3.495,4.269.249,1.026,1.154,5.452-.44,7.227a2.33,2.33,0,0,1-.975.655c-.255,2.328-1.568,8.446-8.248,15.131l-.286.2a21.173,21.173,0,0,1-6.759,1.558l3.252,10.169-.24,1.069-2.833,3.055.987,3.029,10.2,5.314a15.763,15.763,0,0,1,13.2,4.487l.213.3c.029.063,3.156,6.534,7.313,8.992l.282,1.631-4.063,4.841,3.473,3.751,1.8-.191.494.059c1.628.61,6.252,1.787,8.046.012l1.463-.058,4.474,3.787c1.482-.307,6.074-1.491,7.94-4.718l.607-.489.507-.162v0l.079-.46.942-2.311-3.866-4.271-.127-1.28,1.2-2.023.871-.532,2.287-.135.207-1.032-2.508-3.763-.042-1.133,2.019-3.587.477-.447,3.635-1.74.037-.854-7.588-1.141-.906-1.292.735-3.585.9-.857L978,791.46l3.641-9.968.647-.647,12.585-4.595,1.232.354,5.057,6.525.148,1.078-1.2,2.912,2.065,2.067.155,1.339-3,4.849-.8,6.923-.462.766-.923.642-2.268,5.849-.732.656-9.18,2.449-1.947,3.817,1.014,2.579-.524,1.368-7.717,3.86.212,2.26,5.566,6.424,7.207-2.856,1.053.141,4.134,3.1,9.125-1.564,7.5-7.051.956-.273,9.679,1.9a12.835,12.835,0,0,0,8.885-8.67l.681-.7c2.32-.8,8.646-3.078,10.024-4l1.491.278,6.572,9.3,5.272-1.584,1.422-2.953,1.625-.4,5.013,3.721c8.05-17.155,5.876-30.548,5.876-30.548,3.93-6.863,5.1-16.381,5.1-16.381Z" transform="translate(-643.849 -457.205)" fill="#b1b7c1"/>
    <path id="패스_1205" data-name="패스 1205" d="M744.486,926.734l-2.082-1.283-.41-.455-3.244-6.779h-3.5l-.941-.543-.586-1.016-4.789,4.6L727,922.76l.067.292-.641.146-1.242.958-.449.2-1.148.228-2.092,8.582,1.224,2.084.146.62-.125,1.922.6,2.112,0,.591-.487,1.749,1.674.427.574.366,2.317,2.846,2.363-1.191.868-.05,3.8,1.41,2.305.471A5.34,5.34,0,0,1,741.7,942.3l-2.272-8.688.21-.963Z" transform="translate(-509.655 -647.518)" fill="#b1b7c1"/>
    <path id="패스_1206" data-name="패스 1206" d="M939.89,1248.759c6.256-2.7,9.712-3.695,11.528-4.048l-1.519-5.225.878-1.377,2.672-.413c5.172-10.16,20.936-18.047,24.213-19.6l.252-2.591-17.926-22.929-.224-.784.23-2.173-5.837-1.146-7.331,6.894-.565.28-9.909,1.7-.835-.2-4.021-3.019-7.352,2.917-1.224-.3-6.3-7.27-.261-.609-.164-1.769-1.779.891-1.166-.683c-2.9,4.405-9.421,5.4-9.7,5.441l-.856-.247-4.2-3.545c-3.031,1.913-8,.393-9.293-.056l-2.1.222-.908-.34-4.5-4.859-.034-1.435,3.9-4.642c-3.818-2.844-6.508-8.006-7.024-9.048a13.713,13.713,0,0,0-11.5-3.7l-.722-.1-10.76-5.613-5.162,1.7-2.321,3.33-.813.466-2.837.2-1.337,2.407-.413.418-8.428,4.759.515,15.1-.641,1.026-2.646,1.191-.355,4.91-1.078,3.726a26.4,26.4,0,0,1,7.4,13.477l-.241.893-5.7,6.745-.337,8.363,9.309,23.647,7.915,3.93.544,1.32-1.548,4.635,1.721,19.219-1.306.117,7.263,17.488,16.882-2.107,2.749-19.035,3.532-3.685,4.713,1.052-1.57,2.116,9.029,5.807,3.545-2.632-7.079-6.877,1.965-3.173,7.459,7.926,4.72-2.114v8.989l11.783,11.1,5.1-3.173-2.354-8.456,6.675-4.748-2.745,13.2,6.672,4.224,4.324-3.161,2.353-5.813,5.5-2.12v-10.567l-3.541-10.035,1.579-6.878-6.678-.532-9.423,12.157-2.359-4.747-3.532,4.747-3.136-1.057-1.182-4.755,5.1-6.345-1.566-6.343,6.28-.516-.389,4.746,5.1,1.589,3.538-5.289-2.752-3.7.392-5.282Z" transform="translate(-586.332 -818.97)" fill="#b1b7c1"/>
    <path id="패스_1207" data-name="패스 1207" d="M1217.861,1494.364l.2-12.733-7.294,2.113Z" transform="translate(-855.271 -1046.609)" fill="#b1b7c1"/>
    <path id="패스_1208" data-name="패스 1208" d="M1111.855,1130.407l-2.545.152-.495.838,3.781,4.182.2,1.137-.717,1.758,1.418-.457.471.308,6.921-3.464-.827-2.108.043-.89,2.387-4.686.69-.559,9.113-2.429,2.19-5.641.392-.5.795-.551.923-7.125,2.676-4.325-1.968-1.966-.237-1.182,1.236-3-4.19-5.4-11.367,4.15-3.687,10.1-.853.7-9.274,1.445-.349,1.725,7.416,1.113.923,1.117-.094,2.482-.616.936-3.921,1.875-1.525,2.7,2.387,3.582.164.817-.462,2.294Z" transform="translate(-783.093 -773.143)" fill="#b1b7c1"/>
    <path id="패스_1209" data-name="패스 1209" d="M1126.137,1661.28l6.511.791,1.579-4.777-.4-3.986Z" transform="translate(-795.492 -1167.879)" fill="#b1b7c1"/>
    <path id="패스_1210" data-name="패스 1210" d="M703.372,845.848l-.182-.752L701,844.088l-2.135,1.117-1.841,2.763,9.94,12,.225.451,1.991,8.741,1.054-.809,5.138-4.95-5.025-12.859Z" transform="translate(-492.373 -596.255)" fill="#b1b7c1"/>
    <path id="패스_1211" data-name="패스 1211" d="M583.145,2064.207c-1.287-.732-2.611-.453-2.936.61s.449,2.507,1.74,3.236,2.606.46,2.937-.6-.446-2.511-1.74-3.25" transform="translate(-409.8 -1457.846)" fill="#b1b7c1"/>
    <path id="패스_1212" data-name="패스 1212" d="M385.858,2073.615l-10.285,1.022s-33.9,5.642-45.7,17.94c0,0-4.956,5.124-6.477,11.285l8.761,12.3s4.182,1.54,7.237-3.074l12.569,1.02s11.428-2.05,15.991-1.02l4.568-6.153,6.483,1.034,11.428-4.1s3.422-9.237,8-11.8V2085.4l-3.8-6.14s-7.244-6.153-8.761-5.643" transform="translate(-228.44 -1464.759)" fill="#b1b7c1"/>
    <path id="패스_1213" data-name="패스 1213" d="M837.837,173.47c-9.031-6.343-14.928-24.305-14.928-24.305l-5.895-5.284-4.312-11.1a22.74,22.74,0,0,1-2.36-10.57l-15.7-13.22C768.72,78.341,742.025,4.353,742.025,4.353L738.349,0l-8.157,12.189L716.8,34.882l-28.768,7.949-19.269-5.817-22.33,4.322-.161-.028L626.15,37.839l-12.852,14,4.609,4.135c2.736.521,9.474,1.385,12.174-.084h1.039l6.289,3.421.55,1.157-.881,4.613,3.4,2.232c.358.061,1.87.179,4.272-1.286l1.528,1.427a5.106,5.106,0,0,0-.674,2.929.336.336,0,0,0,.191.237l4.637,2.859,8.344-1.048a3.309,3.309,0,0,1,2.615.543,3.774,3.774,0,0,1,1.342,3.1c-.048,1.734.21,6.527,1.981,8.607a34.2,34.2,0,0,0,6.693,4.527l4.71,2.159.632,1.04-.21,4.232-.277.677a29.385,29.385,0,0,0-5.639,11.551c-.118.315-1.591,3.995,1.394,8.861l2.466,4.562-.556,1.529-3.2,1.25c.121.95.945,3.075,5.539,4.928a16.968,16.968,0,0,0,5.242.489l1.009.3a25.453,25.453,0,0,0,7.422,5l3.545-.129.748.264c.161.141,3.992,3.475,4.229,6.89l-.738,1.1-3.711,1.25.072,4.163,3.222,4.084.109,1.174c-1,1.916-4.178,7.812-6.314,9.707l1.267,13.735-.146.648-2.64,4.495,5.13,5.529,9.01-1,.385.03c.235-.02,1.169-.458,1.68-2.71l.077-.219,3.273-7.05,1.6-.438,7.69,5.267,6.918-.15,2.7-4.262.838-.5,4.845-.358.844.31,3.61,3.562h5.051l1.017,1.464-1.1,2.962,12.476,6.255.48.47,1.219,2.357,3.155-2.522.632-.238,4.191-.184.887.4,5.751,7.044c.046.019,4.2,3.448,13.229-.706l5.724-8.042,1.795.034,2.56,3.925,7.155.167.58.185,6,4.038,3.5-1.81.5-.12h4.729l1.64-1.913,1.536-.112,4.246,3.7,2.575.617c1.324-2.438,5.806-9.628,13.214-11.144a48.58,48.58,0,0,1-3.08-14.538" transform="translate(-433.227)" fill="#b1b7c1"/>
    <path id="패스_1214" data-name="패스 1214" d="M1235.509,662.1l7.155.167.58.185,6,4.038,3.5-1.81.5-.12h4.728l1.64-1.913,1.536-.112,4.246,3.7,2.575.617" transform="translate(-872.751 -467.7)" fill="#b1b7c1"/>
    <path id="패스_1215" data-name="패스 1215" d="M1136.538,654.42l5.752,7.044c.045.02,4.2,3.448,13.229-.706" transform="translate(-802.839 -462.275)" fill="#b1b7c1"/>
    <path id="패스_1216" data-name="패스 1216" d="M1102.2,654.657l1.218,2.357,3.155-2.522" transform="translate(-778.581 -462.327)" fill="#b1b7c1"/>
  </g>
</svg>
