<svg xmlns="http://www.w3.org/2000/svg" xmlns:xlink="http://www.w3.org/1999/xlink" width="50" height="50" viewBox="0 0 50 50">
  <defs>
    <clipPath id="clip-path">
      <rect id="사각형_79" data-name="사각형 79" width="20" height="23" fill="#9099a7"/>
    </clipPath>
  </defs>
  <g id="그룹_406" data-name="그룹 406" transform="translate(-1294.667 -344)">
    <circle id="타원_18" data-name="타원 18" cx="25" cy="25" r="25" transform="translate(1294.667 344)" fill="#f5f6f8"/>
    <g id="그룹_300" data-name="그룹 300" transform="translate(1309.667 357)">
      <g id="그룹_299" data-name="그룹 299" clip-path="url(#clip-path)">
        <path id="패스_1175" data-name="패스 1175" d="M20,12a3.006,3.006,0,0,0-2-2.829V5.829A3,3,0,0,0,17,0H3A3,3,0,0,0,2,5.829V9.171a3,3,0,0,0,0,5.658v2.342A3,3,0,0,0,3,23H17a3,3,0,0,0,1-5.829V14.829A3.006,3.006,0,0,0,20,12m-5,1v2h1v4h1a1,1,0,0,1,0,2H3a1,1,0,0,1,0-2H4V15H8V13H3a1,1,0,0,1,0-2H4V6H8V4L3,4A1,1,0,0,1,3,2H17a1,1,0,0,1,0,2L15,4V6h1v5h1a1,1,0,0,1,0,2Z" fill="#9099a7"/>
      </g>
    </g>
  </g>
</svg>
