<svg xmlns="http://www.w3.org/2000/svg" xmlns:xlink="http://www.w3.org/1999/xlink" width="112" height="56.235" viewBox="0 0 112 56.235">
  <defs>
    <filter id="ico-bubble-white" x="0" y="0" width="112" height="56.235" filterUnits="userSpaceOnUse">
      <feOffset dy="2" input="SourceAlpha"/>
      <feGaussianBlur stdDeviation="2" result="blur"/>
      <feFlood flood-opacity="0.161"/>
      <feComposite operator="in" in2="blur"/>
      <feComposite in="SourceGraphic"/>
    </filter>
  </defs>
  <g transform="matrix(1, 0, 0, 1, 0, 0)" filter="url(#ico-bubble-white)">
    <g id="ico-bubble-white-2" data-name="ico-bubble-white" transform="translate(269 -6)" fill="#fff">
      <path d="M -212.5000152587891 53.98512268066406 C -212.7506713867188 53.98512268066406 -212.9760437011719 53.86643600463867 -213.1182861328125 53.65948486328125 L -215.7316131591797 49.85874938964844 L -215.8061065673828 49.75040054321289 L -215.9376068115234 49.75040054321289 L -243 49.75040054321289 C -245.6663208007812 49.75040054321289 -248.2527770996094 49.22821044921875 -250.6874847412109 48.19833755493164 C -253.0392303466797 47.20355987548828 -255.1513824462891 45.77939987182617 -256.9652709960938 43.96541213989258 C -258.7791137695312 42.15145111083984 -260.2031860351562 40.03919982910156 -261.1978759765625 37.68732452392578 C -262.2276611328125 35.25254821777344 -262.7498168945312 32.66604995727539 -262.7498168945312 29.99969863891602 C -262.7498168945312 27.33334922790527 -262.2276611328125 24.74691200256348 -261.1978759765625 22.31221199035645 C -260.2031860351562 19.96044921875 -258.7791137695312 17.84829902648926 -256.9652709960938 16.03443717956543 C -255.1514129638672 14.22057437896729 -253.0392608642578 12.79652404785156 -250.6874847412109 11.80181217193604 C -248.2527923583984 10.7720365524292 -245.6663513183594 10.24989891052246 -243 10.24989891052246 L -182.9997100830078 10.24989891052246 C -180.3333587646484 10.24989891052246 -177.7469177246094 10.7720365524292 -175.3122253417969 11.80181217193604 C -172.9604644775391 12.79652404785156 -170.8483123779297 14.22057437896729 -169.0344543457031 16.03443717956543 C -167.2205810546875 17.84829902648926 -165.7965393066406 19.96044921875 -164.8018188476562 22.31221199035645 C -163.7720489501953 24.74691200256348 -163.2499084472656 27.33334922790527 -163.2499084472656 29.99969863891602 C -163.2499084472656 32.66604995727539 -163.7720489501953 35.25254821777344 -164.8018341064453 37.68732452392578 C -165.7965393066406 40.03919982910156 -167.2205963134766 42.15145111083984 -169.0344696044922 43.96541213989258 C -170.8483276367188 45.77939987182617 -172.9604797363281 47.20355987548828 -175.3122406005859 48.19833755493164 C -177.7469329833984 49.22821044921875 -180.3333892822266 49.75040054321289 -182.9997100830078 49.75040054321289 L -209.0630950927734 49.75040054321289 L -209.1945953369141 49.75040054321289 L -209.2691040039062 49.85874938964844 L -211.8824157714844 53.65945053100586 C -212.0244293212891 53.86651229858398 -212.2494659423828 53.98512268066406 -212.5000152587891 53.98512268066406 Z" stroke="none"/>
      <path d="M -212.5000152587891 53.73512649536133 C -212.3331604003906 53.73512649536133 -212.1832580566406 53.65609741210938 -212.0884094238281 53.51780319213867 L -209.3260955810547 49.50040435791016 L -182.9997100830078 49.50040435791016 C -180.3670196533203 49.50040435791016 -177.8133392333984 48.98485946655273 -175.4096221923828 47.96809768676758 C -173.0876617431641 46.98592376708984 -171.0022277832031 45.57975006103516 -169.2112426757812 43.78864669799805 C -167.4202423095703 41.99756622314453 -166.0141754150391 39.91201782226562 -165.0320739746094 37.58995056152344 C -164.0153961181641 35.18613815307617 -163.4999084472656 32.63241958618164 -163.4999084472656 29.99969863891602 C -163.4999084472656 27.36699104309082 -164.0153961181641 24.81331253051758 -165.0320739746094 22.40960502624512 C -166.0141754150391 20.08763122558594 -167.4202423095703 18.0021915435791 -169.2112274169922 16.21121788024902 C -171.002197265625 14.42023181915283 -173.0876312255859 13.01416492462158 -175.4096069335938 12.03207206726074 C -177.8133087158203 11.01539134979248 -180.3669891357422 10.49989795684814 -182.9997100830078 10.49989795684814 L -243 10.49989795684814 C -245.6327056884766 10.49989795684814 -248.1863861083984 11.01539134979248 -250.5901031494141 12.03207206726074 C -252.9120635986328 13.01416492462158 -254.9974975585938 14.42023181915283 -256.7884826660156 16.21121788024902 C -258.5794677734375 18.0021915435791 -259.9855346679688 20.08763122558594 -260.9676208496094 22.40960502624512 C -261.9843139648438 24.81331253051758 -262.4998168945312 27.36699104309082 -262.4998168945312 29.99969863891602 C -262.4998168945312 32.63241958618164 -261.9843139648438 35.18613815307617 -260.9676208496094 37.58995056152344 C -259.9855346679688 39.91201782226562 -258.5794677734375 41.99756622314453 -256.7884826660156 43.78864669799805 C -254.9974822998047 45.57975006103516 -252.9120483398438 46.98592376708984 -250.590087890625 47.96809768676758 C -248.1863555908203 48.98485946655273 -245.6326904296875 49.50040435791016 -243 49.50040435791016 L -215.6746063232422 49.50040435791016 L -212.9122772216797 53.51785659790039 C -212.8173522949219 53.65593719482422 -212.6670837402344 53.73512649536133 -212.5000152587891 53.73512649536133 M -212.5000152587891 54.23512649536133 C -212.8126525878906 54.23512649536133 -213.1254119873047 54.09044647216797 -213.3243103027344 53.80109786987305 L -215.9376068115234 50.00040435791016 L -243 50.00040435791016 C -254.0457000732422 50.00040435791016 -262.9998168945312 41.04540634155273 -262.9998168945312 29.99969863891602 C -262.9998168945312 18.95400428771973 -254.0457000732422 9.999897956848145 -243 9.999897956848145 L -182.9997100830078 9.999897956848145 C -171.9540100097656 9.999897956848145 -162.9999084472656 18.95400428771973 -162.9999084472656 29.99969863891602 C -162.9999084472656 41.04540634155273 -171.9540100097656 50.00040435791016 -182.9997100830078 50.00040435791016 L -209.0630950927734 50.00040435791016 L -211.6764068603516 53.80109786987305 C -211.8748626708984 54.09044647216797 -212.1873779296875 54.23512649536133 -212.5000152587891 54.23512649536133 Z" stroke="none" fill="#ececec"/>
    </g>
  </g>
</svg>
