<svg xmlns="http://www.w3.org/2000/svg" width="269" height="142.5" viewBox="0 0 269 142.5">
  <g id="그룹_11322" data-name="그룹 11322" transform="translate(-14 -50)">
    <g id="그룹_11323" data-name="그룹 11323" transform="translate(2)">
      <text id="제주" transform="translate(267 190.5)" fill="#fff" font-size="7" font-family="MalgunGothic, Malgun Gothic" letter-spacing="-0.05em"><tspan x="0" y="0">제주</tspan></text>
      <text id="경남" transform="translate(251 190.5)" fill="#fff" font-size="7" font-family="MalgunGothic, Malgun Gothic" letter-spacing="-0.05em"><tspan x="0" y="0">경남</tspan></text>
      <text id="대구경북" transform="translate(223 190.5)" fill="#fff" font-size="7" font-family="MalgunGothic, Malgun Gothic" letter-spacing="-0.05em"><tspan x="0" y="0">대구경북</tspan></text>
      <text id="광주전남" transform="translate(195 190.5)" fill="#fff" font-size="7" font-family="MalgunGothic, Malgun Gothic" letter-spacing="-0.05em"><tspan x="0" y="0">광주전남</tspan></text>
      <text id="전북" transform="translate(179 190.5)" fill="#fff" font-size="7" font-family="MalgunGothic, Malgun Gothic" letter-spacing="-0.05em"><tspan x="0" y="0">전북</tspan></text>
      <text id="대전세종충남" transform="translate(139 190.5)" fill="#fff" font-size="7" font-family="MalgunGothic, Malgun Gothic" letter-spacing="-0.05em"><tspan x="0" y="0">대전세종충남</tspan></text>
      <text id="충북" transform="translate(123 190.5)" fill="#fff" font-size="7" font-family="MalgunGothic, Malgun Gothic" letter-spacing="-0.05em"><tspan x="0" y="0">충북</tspan></text>
      <text id="강원" transform="translate(107 190.5)" fill="#fff" font-size="7" font-family="MalgunGothic, Malgun Gothic" letter-spacing="-0.05em"><tspan x="0" y="0">강원</tspan></text>
      <text id="경기" transform="translate(91 190.5)" fill="#fff" font-size="7" font-family="MalgunGothic, Malgun Gothic" letter-spacing="-0.05em"><tspan x="0" y="0">경기</tspan></text>
      <text id="인천" transform="translate(75 190.5)" fill="#fff" font-size="7" font-family="MalgunGothic, Malgun Gothic" letter-spacing="-0.05em"><tspan x="0" y="0">인천</tspan></text>
      <text id="부산울산" transform="translate(47 190.5)" fill="#fff" font-size="7" font-family="MalgunGothic, Malgun Gothic" letter-spacing="-0.05em"><tspan x="0" y="0">부산울산</tspan></text>
      <text id="서울" transform="translate(31 190.5)" fill="#fff" font-size="7" font-family="MalgunGothic, Malgun Gothic" letter-spacing="-0.05em"><tspan x="0" y="0">서울</tspan></text>
    </g>
    <g id="그룹_11115" data-name="그룹 11115" transform="translate(-7.436 -4)">
      <g id="그룹_11114" data-name="그룹 11114" transform="translate(348.705 0.499) rotate(90)" opacity="0.05">
        <line id="선_231" data-name="선 231" y2="250.769" transform="translate(179.5 58.782)" fill="none" stroke="#fff" stroke-width="1"/>
        <line id="선_230" data-name="선 230" y2="250.769" transform="translate(167.5 58.782)" fill="none" stroke="#fff" stroke-width="1"/>
        <line id="선_229" data-name="선 229" y2="250.769" transform="translate(155.5 58.782)" fill="none" stroke="#fff" stroke-width="1"/>
        <line id="선_228" data-name="선 228" y2="250.769" transform="translate(143.5 58.782)" fill="none" stroke="#fff" stroke-width="1"/>
        <line id="선_225" data-name="선 225" y2="250.769" transform="translate(131.5 58.782)" fill="none" stroke="#fff" stroke-width="1"/>
        <line id="선_224" data-name="선 224" y2="250.769" transform="translate(119.5 58.782)" fill="none" stroke="#fff" stroke-width="1"/>
        <line id="선_223" data-name="선 223" y2="250.769" transform="translate(107.5 58.782)" fill="none" stroke="#fff" stroke-width="1"/>
        <line id="선_222" data-name="선 222" y2="250.769" transform="translate(95.5 58.782)" fill="none" stroke="#fff" stroke-width="1"/>
        <line id="선_221" data-name="선 221" y2="250.769" transform="translate(83.5 58.782)" fill="none" stroke="#fff" stroke-width="1"/>
        <line id="선_220" data-name="선 220" y2="250.769" transform="translate(71.5 58.782)" fill="none" stroke="#fff" stroke-width="1"/>
        <line id="선_219" data-name="선 219" y2="250.769" transform="translate(59.5 58.782)" fill="none" stroke="#fff" stroke-width="1"/>
      </g>
      <path id="패스_13206" data-name="패스 13206" d="M-32.1,49.631l21.816,8.619,21.277-8.619L28.5,56.095l15.082,4.04,17.506-11.85L88.289,63.1l26.664-5.925,23.7,4.309,27.2-33.127,21.008,45.517h16.429" transform="translate(78.792 77)" fill="none" stroke="#ff9a34" stroke-width="1"/>
      <path id="패스_13207" data-name="패스 13207" d="M-32.1,64.713l21.546-15.621,20.2-10.773L30.922,69.561,43.58,49.092,59.2,73.332l28.818-33.4L115.491,79.8l22.354-52.519L164.24,46.4l22.354,4.848,13.2,7.541" transform="translate(78.792 77)" fill="none" stroke="#0cc7ba" stroke-width="1"/>
      <path id="패스_13208" data-name="패스 13208" d="M46.691,162.721l24.24-13.736,19.392-5.117L107.29,154.1l15.082-3.771,15.621,22.624,28.818-22.624,26.933,11.312L216.1,154.1l27.741,8.619,22.624-2.424,16.16-6.195" fill="none" stroke="#5072ff" stroke-width="1"/>
    </g>
    <g id="그룹_11116" data-name="그룹 11116" transform="translate(-51 -24)">
      <text id="_0" data-name="0" transform="translate(75 203)" fill="#cecece" font-size="8" font-family="SegoeUI, Segoe UI" letter-spacing="-0.05em"><tspan x="-2.156" y="0">0</tspan></text>
      <text id="_10" data-name="10" transform="translate(72 191)" fill="#cecece" font-size="8" font-family="SegoeUI, Segoe UI" letter-spacing="-0.05em"><tspan x="-4.113" y="0">10</tspan></text>
      <text id="_20" data-name="20" transform="translate(72 179)" fill="#cecece" font-size="8" font-family="SegoeUI, Segoe UI" letter-spacing="-0.05em"><tspan x="-4.113" y="0">20</tspan></text>
      <text id="_30" data-name="30" transform="translate(72 167)" fill="#cecece" font-size="8" font-family="SegoeUI, Segoe UI" letter-spacing="-0.05em"><tspan x="-4.113" y="0">30</tspan></text>
      <text id="_40" data-name="40" transform="translate(72 155)" fill="#cecece" font-size="8" font-family="SegoeUI, Segoe UI" letter-spacing="-0.05em"><tspan x="-4.113" y="0">40</tspan></text>
      <text id="_50" data-name="50" transform="translate(72 143)" fill="#cecece" font-size="8" font-family="SegoeUI, Segoe UI" letter-spacing="-0.05em"><tspan x="-4.113" y="0">50</tspan></text>
      <text id="_60" data-name="60" transform="translate(72 131)" fill="#cecece" font-size="8" font-family="SegoeUI, Segoe UI" letter-spacing="-0.05em"><tspan x="-4.113" y="0">60</tspan></text>
      <text id="_70" data-name="70" transform="translate(72 119)" fill="#cecece" font-size="8" font-family="SegoeUI, Segoe UI" letter-spacing="-0.05em"><tspan x="-4.113" y="0">70</tspan></text>
      <text id="_80" data-name="80" transform="translate(72 107)" fill="#cecece" font-size="8" font-family="SegoeUI, Segoe UI" letter-spacing="-0.05em"><tspan x="-4.113" y="0">80</tspan></text>
      <text id="_90" data-name="90" transform="translate(72 95)" fill="#cecece" font-size="8" font-family="SegoeUI, Segoe UI" letter-spacing="-0.05em"><tspan x="-4.113" y="0">90</tspan></text>
      <text id="_100" data-name="100" transform="translate(72 83)" fill="#cecece" font-size="8" font-family="SegoeUI, Segoe UI" letter-spacing="-0.05em"><tspan x="-6.069" y="0">100</tspan></text>
    </g>
  </g>
</svg>
