<svg xmlns="http://www.w3.org/2000/svg" width="89.656" height="45" viewBox="0 0 89.656 45">
    <defs>
        <clipPath id="clip-path">
            <path id="사각형_3823" data-name="사각형 3823" style="fill:none" d="M0 0h89.656v45H0z"/>
        </clipPath>
        <style>
            .cls-4{fill:#fff}
        </style>
    </defs>
    <g id="footer_logo" style="opacity:.2">
        <g id="그룹_4550" data-name="그룹 4550" style="clip-path:url(#clip-path)">
            <path id="패스_8117" data-name="패스 8117" class="cls-4" d="M83.517 14.032a14.767 14.767 0 0 0-1.158-1.14c.258-.255.516-.523.772-.816L93.072 0h-8.5l-5.716 6.957c-1.559 1.879-2.5 2.684-4.206 2.684S72 8.836 70.446 6.957L64.732 0h-8.5l9.942 12.076c.267.307.537.586.806.85a14.917 14.917 0 0 0-1.118 1.106L60.785 19.9H50.744c-5.781 0-9.372-3.461-9.372-9.032V.333H33.9v10.536c0 12.406 8.919 15.6 16.513 15.6H62.7a2.2 2.2 0 0 0 1.961-.8l5.646-6.547c1.624-1.868 2.608-2.668 4.38-2.668s2.755.8 4.377 2.668l6.314 7.341h8.872z" transform="translate(-20.445)"/>
            <path id="패스_8118" data-name="패스 8118" class="cls-4" d="M39.52 87.283a4.32 4.32 0 0 0 .138-1.034v-2.544H32.3v1.063h5.654v1.524c0 .326-.013.647-.042.963a2.97 2.97 0 0 1-.19.837h-6.534v1.064h3.891v1.664h-3.043v1.062h6.2v3.324h1.7V90.82h-3.15v-1.664H41.6v-1.064h-2.422a2.124 2.124 0 0 0 .342-.809" transform="translate(-18.812 -50.489)"/>
            <path id="패스_8119" data-name="패스 8119" class="cls-4" d="M69.493 87.283a4.363 4.363 0 0 0 .139-1.034v-2.544h-7.354v1.063h5.654v1.524c0 .326-.014.647-.044.963a2.93 2.93 0 0 1-.189.837h-6.538v1.064h3.89v1.664h-3.043v1.062h6.2v3.324h1.7V90.82h-3.15v-1.664h4.822v-1.064h-2.429a2.117 2.117 0 0 0 .342-.809" transform="translate(-36.891 -50.489)"/>
            <path id="패스_8120" data-name="패스 8120" class="cls-4" d="M148.95 89.4h4.6a1.5 1.5 0 0 0 .99-.315 1.085 1.085 0 0 0 .371-.909v-4.4h-1.7v1.744h-3.925v-1.735h-1.7v4.4a1.084 1.084 0 0 0 .371.909 1.5 1.5 0 0 0 .989.315m4.263-1.029h-3.925v-1.789h3.925z" transform="translate(-89.023 -50.537)"/>
            <path id="패스_8121" data-name="패스 8121" class="cls-4" d="M93.873 89.39h5.752v-1.063H94.2v-1.308h5.236v-1.061H94.2v-1.189h5.422v-1.063H92.5v4.427a1.192 1.192 0 0 0 .371.909 1.4 1.4 0 0 0 1 .348" transform="translate(-55.797 -50.49)"/>
            <path id="패스_8122" data-name="패스 8122" class="cls-4" d="M179.36 86.13a9.1 9.1 0 0 1-.051.97 2.792 2.792 0 0 1-.21.832h1.437a1.9 1.9 0 0 0 .364-.776 4.015 4.015 0 0 0 .159-1.082v-2.319h-7.347v1.075h5.649z" transform="translate(-104.779 -50.519)"/>
            <path id="패스_8123" data-name="패스 8123" class="cls-4" d="M175.147 90.51h-1.7v2.21h-2.883v1.06h9.95v-1.061h-5.369z" transform="translate(-102.881 -54.594)"/>
            <path id="패스_8124" data-name="패스 8124" class="cls-4" d="M95.557 100.4h-1.8v1.954h-3.8v1.062h9.5v-1.062h-3.9z" transform="translate(-54.26 -60.558)"/>
            <path id="패스_8125" data-name="패스 8125" class="cls-4" d="M150.588 100.4h-1.7v1.954h-3.8v1.062h9.308v-1.062h-3.806z" transform="translate(-87.513 -60.558)"/>
            <path id="패스_8126" data-name="패스 8126" class="cls-4" d="M218.929 86.29v-2.768h-1.7v11.569h1.7v-7.74h1.756V86.29z" transform="translate(-131.029 -50.379)"/>
            <path id="패스_8127" data-name="패스 8127" class="cls-4" d="M133.124 85.609h-1.854v1.063h1.854v2.894h1.7v-5.95h-1.7z" transform="translate(-79.18 -50.435)"/>
            <path id="패스_8128" data-name="패스 8128" class="cls-4" d="M119.8 87.981a7.746 7.746 0 0 1 3.057 1.5l.7-.869a9.933 9.933 0 0 0-3.067-1.769 3.517 3.517 0 0 0 .223-1.238v-.659h1.973v-1.061h-5.646v1.062h1.973v.659a2.783 2.783 0 0 1-2.387 2.861v1.043a3.049 3.049 0 0 0 .739-.111 4.864 4.864 0 0 0 2.439-1.419" transform="translate(-70.346 -50.598)"/>
            <path id="패스_8129" data-name="패스 8129" class="cls-4" d="M21.789 83.522h-1.7v7.26h1.7v-3.516h1.6v-1.075h-1.6z" transform="translate(-12.119 -50.378)"/>
            <path id="패스_8130" data-name="패스 8130" class="cls-4" d="M8.127 102.75h-1.7v2.679a1.166 1.166 0 0 0 .386.923 1.424 1.424 0 0 0 .967.336h6.19v-1.062H8.127z" transform="translate(-3.877 -61.977)"/>
            <path id="패스_8131" data-name="패스 8131" class="cls-4" d="M129.341 100.633a3.717 3.717 0 0 0-4.582 0 2.388 2.388 0 0 0 0 3.808 3.747 3.747 0 0 0 4.582 0 2.391 2.391 0 0 0 0-3.808m-2.291 3.531a1.64 1.64 0 1 1 1.536-1.636 1.59 1.59 0 0 1-1.536 1.636" transform="translate(-74.681 -60.223)"/>
            <path id="패스_8132" data-name="패스 8132" class="cls-4" d="M180.358 100.633a3.717 3.717 0 0 0-4.583 0 2.391 2.391 0 0 0 0 3.808 3.747 3.747 0 0 0 4.583 0 2.387 2.387 0 0 0 0-3.808m-2.291 3.531a1.64 1.64 0 1 1 1.536-1.636 1.588 1.588 0 0 1-1.536 1.636" transform="translate(-105.454 -60.223)"/>
            <path id="패스_8133" data-name="패스 8133" class="cls-4" d="M5.617 89a2.327 2.327 0 0 0 .122-3.621h.935v-1.064H4.187v-.835h-1.7v.835H0v1.062h1.006A2.328 2.328 0 0 0 1.127 89a3.392 3.392 0 0 0 2.238.767A3.415 3.415 0 0 0 5.617 89m-3.751-1.879a1.559 1.559 0 0 1 1.507-1.605 1.608 1.608 0 0 1 0 3.21 1.559 1.559 0 0 1-1.507-1.6" transform="translate(0 -50.353)"/>
            <path id="패스_8134" data-name="패스 8134" class="cls-4" d="M202.595 87.579a3.459 3.459 0 0 0 .183-1.138V83.8h-1.767v2.3a2.845 2.845 0 0 1-2.386 3.106v1.152a5.9 5.9 0 0 0 2.3-.812 5.745 5.745 0 0 0 .94-.769 7.4 7.4 0 0 1 2.544 1.726l.834-.885a7.146 7.146 0 0 0-2.647-2.04" transform="translate(-119.806 -50.549)"/>
        </g>
    </g>
</svg>
