<svg xmlns="http://www.w3.org/2000/svg" xmlns:xlink="http://www.w3.org/1999/xlink" width="194.85" height="188.032" viewBox="0 0 194.85 188.032">
  <defs>
    <clipPath id="clip-path">
      <rect id="사각형_4118" data-name="사각형 4118" width="58" height="82" transform="translate(42 -3.382)" fill="#fff"/>
    </clipPath>
    <clipPath id="clip-path-2">
      <rect id="사각형_4099" data-name="사각형 4099" width="55.704" height="65.464" fill="none"/>
    </clipPath>
    <clipPath id="clip-path-3">
      <rect id="사각형_4105" data-name="사각형 4105" width="57.059" height="12.145" fill="none"/>
    </clipPath>
    <clipPath id="clip-path-4">
      <rect id="사각형_4106" data-name="사각형 4106" width="6.187" height="6.187" fill="none"/>
    </clipPath>
    <linearGradient id="linear-gradient" x1="-18.186" y1="185.176" x2="-18.131" y2="185.176" gradientUnits="objectBoundingBox">
      <stop offset="0" stop-color="#aaceff"/>
      <stop offset="1" stop-color="#dbe9ff"/>
    </linearGradient>
    <linearGradient id="linear-gradient-2" x1="-16.98" y1="185.176" x2="-16.925" y2="185.176" xlink:href="#linear-gradient"/>
    <linearGradient id="linear-gradient-3" x1="-15.775" y1="185.176" x2="-15.721" y2="185.176" xlink:href="#linear-gradient"/>
    <linearGradient id="linear-gradient-4" x1="-14.571" y1="185.176" x2="-14.516" y2="185.176" xlink:href="#linear-gradient"/>
    <linearGradient id="linear-gradient-5" x1="-23.217" y1="185.18" x2="-23.124" y2="185.18" xlink:href="#linear-gradient"/>
    <linearGradient id="linear-gradient-6" x1="-21.994" y1="185.176" x2="-21.9" y2="185.176" xlink:href="#linear-gradient"/>
    <linearGradient id="linear-gradient-7" x1="-20.85" y1="185.172" x2="-20.756" y2="185.172" xlink:href="#linear-gradient"/>
  </defs>
  <g id="그룹_5469" data-name="그룹 5469" transform="translate(-42.575 -74)">
    <g id="그룹_5465" data-name="그룹 5465">
      <path id="패스_8693" data-name="패스 8693" d="M77.073,144.372c47.7-32.032,66.6-7.994,98.147-28.859C222.1,84.507,175.134,28.3,137.18,9.644,91.387-12.869,38.471,5.936,12.565,46.336-24.02,103.4,25.951,178.7,77.073,144.372" transform="translate(42.575 80.283)" fill="#eef8f6"/>
      <path id="패스_8694" data-name="패스 8694" d="M601.474,815.954c9.357-6.739,33.2-10.121,45.763,6.087s-73.387,13.81-45.763-6.087" transform="translate(-430.153 -588.251)" fill="#eef8f6"/>
    </g>
    <g id="그룹_5451" data-name="그룹 5451" transform="translate(57 77.382)">
      <g id="documents">
        <g id="마스크_그룹_21" data-name="마스크 그룹 21" clip-path="url(#clip-path)">
          <g id="그룹_5454" data-name="그룹 5454" transform="translate(0 82)">
            <path id="패스_8445" data-name="패스 8445" d="M315.77,1.324H268.948a2.716,2.716,0,0,0-2.716,2.716V7.206h52.253V4.04a2.715,2.715,0,0,0-2.715-2.716" transform="translate(-221.688 -1.103)" fill="#65efe5"/>
            <path id="패스_8446" data-name="패스 8446" d="M283.9,19.305a.411.411,0,1,0,.411.411.411.411,0,0,0-.411-.411" transform="translate(-236.055 -16.075)" fill="#fff"/>
            <path id="패스_8447" data-name="패스 8447" d="M294.273,19.305a.411.411,0,1,0,.411.411.411.411,0,0,0-.411-.411" transform="translate(-244.694 -16.075)" fill="#fff"/>
            <path id="패스_8448" data-name="패스 8448" d="M304.648,19.305a.411.411,0,1,0,.411.411.411.411,0,0,0-.411-.411" transform="translate(-253.333 -16.075)" fill="#fff"/>
            <path id="패스_8449" data-name="패스 8449" d="M293.149,369.891l-.019-.922h-4.618l.019.922Z" transform="translate(-240.24 -307.237)" fill="#312113"/>
            <path id="패스_8450" data-name="패스 8450" d="M297.719,353.3l-.019-.922h-9.764l.02.922Z" transform="translate(-239.76 -293.424)" fill="#312113"/>
            <path id="패스_8451" data-name="패스 8451" d="M295.016,336.715l-.019-.923h-7.834l.02.923Z" transform="translate(-239.116 -279.611)" fill="#312113"/>
            <path id="패스_8452" data-name="패스 8452" d="M320.37,369.891l-.019-.922h-1.4l.019.922Z" transform="translate(-265.585 -307.237)" fill="#312113"/>
            <path id="패스_8453" data-name="패스 8453" d="M357.962,369.891l-.019-.922h-4.618l.019.922Z" transform="translate(-294.209 -307.237)" fill="#312113"/>
            <path id="패스_8454" data-name="패스 8454" d="M362.532,353.3l-.019-.922H352.75l.02.922Z" transform="translate(-293.73 -293.424)" fill="#312113"/>
            <path id="패스_8455" data-name="패스 8455" d="M359.832,336.715l-.019-.923h-7.833l.019.923Z" transform="translate(-293.088 -279.611)" fill="#312113"/>
            <path id="패스_8456" data-name="패스 8456" d="M385.184,369.891l-.02-.922h-1.4l.019.922Z" transform="translate(-319.554 -307.237)" fill="#312113"/>
            <path id="패스_8457" data-name="패스 8457" d="M292.755,320.729l-.019-.922h-4.618l.02.922Z" transform="translate(-239.911 -266.3)" fill="#312113"/>
            <path id="패스_8458" data-name="패스 8458" d="M297.327,304.141l-.02-.922h-9.763l.019.922Z" transform="translate(-239.434 -252.488)" fill="#312113"/>
            <path id="패스_8459" data-name="패스 8459" d="M294.624,287.553l-.019-.922h-7.834l.02.922Z" transform="translate(-238.79 -238.675)" fill="#312113"/>
            <path id="패스_8460" data-name="패스 8460" d="M319.977,320.729l-.019-.922h-1.4l.019.922Z" transform="translate(-265.258 -266.3)" fill="#312113"/>
            <path id="패스_8461" data-name="패스 8461" d="M357.568,320.729l-.019-.922h-4.618l.02.922Z" transform="translate(-293.881 -266.3)" fill="#ff8376"/>
            <path id="패스_8462" data-name="패스 8462" d="M362.141,304.141l-.02-.922h-9.763l.019.922Z" transform="translate(-293.404 -252.488)" fill="#312113"/>
            <path id="패스_8463" data-name="패스 8463" d="M359.437,287.553l-.019-.922h-7.834l.019.922Z" transform="translate(-292.76 -238.675)" fill="#fff"/>
            <path id="패스_8464" data-name="패스 8464" d="M384.789,320.729l-.019-.922h-1.4l.02.922Z" transform="translate(-319.226 -266.3)" fill="#312113"/>
            <path id="패스_8465" data-name="패스 8465" d="M292.363,271.567l-.02-.922h-4.617l.019.922Z" transform="translate(-239.585 -225.364)" fill="#312113"/>
            <path id="패스_8466" data-name="패스 8466" d="M296.933,254.979l-.019-.922H287.15l.019.922Z" transform="translate(-239.106 -211.551)" fill="#312113"/>
            <path id="패스_8467" data-name="패스 8467" d="M294.232,238.39l-.019-.923h-7.834l.019.923Z" transform="translate(-238.463 -197.737)" fill="#312113"/>
            <path id="패스_8468" data-name="패스 8468" d="M319.584,271.567l-.019-.922h-1.4l.019.922Z" transform="translate(-264.93 -225.364)" fill="#312113"/>
            <path id="패스_8469" data-name="패스 8469" d="M357.176,271.567l-.019-.922H352.54l.019.922Z" transform="translate(-293.555 -225.364)" fill="#312113"/>
            <path id="패스_8470" data-name="패스 8470" d="M361.746,254.979l-.019-.922h-9.764l.019.922Z" transform="translate(-293.076 -211.551)" fill="#312113"/>
            <path id="패스_8471" data-name="패스 8471" d="M359.045,238.39l-.019-.923h-7.834l.019.923Z" transform="translate(-292.433 -197.737)" fill="#312113"/>
            <path id="패스_8472" data-name="패스 8472" d="M384.4,271.567l-.019-.922h-1.4l.019.922Z" transform="translate(-318.899 -225.364)" fill="#312113"/>
            <path id="패스_8473" data-name="패스 8473" d="M291.969,222.405l-.019-.922h-4.618l.02.922Z" transform="translate(-239.257 -184.427)" fill="#312113"/>
            <path id="패스_8474" data-name="패스 8474" d="M296.541,205.817l-.019-.922h-9.763l.019.922Z" transform="translate(-238.779 -170.614)" fill="#312113"/>
            <path id="패스_8475" data-name="패스 8475" d="M319.192,222.405l-.02-.922h-1.4l.019.922Z" transform="translate(-264.604 -184.427)" fill="#312113"/>
            <path id="패스_8476" data-name="패스 8476" d="M356.782,222.405l-.019-.922h-4.618l.019.922Z" transform="translate(-293.227 -184.427)" fill="#312113"/>
            <path id="패스_8477" data-name="패스 8477" d="M361.354,205.817l-.019-.922h-9.763l.019.922Z" transform="translate(-292.749 -170.614)" fill="#312113"/>
            <path id="패스_8478" data-name="패스 8478" d="M358.651,189.229l-.019-.922H350.8l.02.922Z" transform="translate(-292.104 -156.801)" fill="#312113"/>
            <path id="패스_8479" data-name="패스 8479" d="M384.005,222.405l-.019-.922h-1.4l.019.922Z" transform="translate(-318.573 -184.427)" fill="#312113"/>
            <path id="패스_8480" data-name="패스 8480" d="M291.576,173.243l-.019-.922h-4.618l.019.922Z" transform="translate(-238.93 -143.49)" fill="#312113"/>
            <path id="패스_8481" data-name="패스 8481" d="M296.149,156.654l-.019-.922h-9.763l.019.922Z" transform="translate(-238.453 -129.677)" fill="#312113"/>
            <path id="패스_8482" data-name="패스 8482" d="M293.446,140.067l-.019-.922h-7.834l.019.922Z" transform="translate(-237.809 -115.865)" fill="#312113"/>
            <path id="패스_8483" data-name="패스 8483" d="M318.8,173.243l-.019-.922h-1.4l.019.922Z" transform="translate(-264.275 -143.49)" fill="#312113"/>
            <path id="패스_8484" data-name="패스 8484" d="M356.389,173.243l-.019-.922h-4.618l.019.922Z" transform="translate(-292.9 -143.49)" fill="#312113"/>
            <path id="패스_8485" data-name="패스 8485" d="M360.96,156.654l-.019-.922h-9.764l.02.922Z" transform="translate(-292.42 -129.677)" fill="#312113"/>
            <path id="패스_8486" data-name="패스 8486" d="M358.259,140.067l-.019-.922h-7.833l.019.922Z" transform="translate(-291.779 -115.865)" fill="#312113"/>
            <path id="패스_8487" data-name="패스 8487" d="M383.611,173.243l-.02-.922h-1.4l.019.922Z" transform="translate(-318.245 -143.49)" fill="#312113"/>
            <path id="패스_8488" data-name="패스 8488" d="M291.182,124.081l-.019-.922h-4.618l.02.922Z" transform="translate(-238.602 -102.553)" fill="#312113"/>
            <path id="패스_8489" data-name="패스 8489" d="M295.755,107.492l-.02-.922h-9.763l.019.922Z" transform="translate(-238.125 -88.74)" fill="#312113"/>
            <path id="패스_8490" data-name="패스 8490" d="M293.052,90.9l-.02-.922H285.2l.02.922Z" transform="translate(-237.48 -74.927)" fill="#312113"/>
            <path id="패스_8491" data-name="패스 8491" d="M318.4,124.081l-.019-.922h-1.4l.019.922Z" transform="translate(-263.949 -102.553)" fill="#312113"/>
            <path id="패스_8492" data-name="패스 8492" d="M356,124.081l-.019-.922h-4.618l.02.922Z" transform="translate(-292.571 -102.553)" fill="#312113"/>
            <path id="패스_8493" data-name="패스 8493" d="M360.568,107.492l-.02-.922h-9.763l.019.922Z" transform="translate(-292.094 -88.74)" fill="#312113"/>
            <path id="패스_8494" data-name="패스 8494" d="M357.865,90.9l-.019-.922h-7.834l.019.922Z" transform="translate(-291.45 -74.927)" fill="#312113"/>
            <path id="패스_8495" data-name="패스 8495" d="M383.218,124.081l-.019-.922h-1.4l.019.922Z" transform="translate(-317.918 -102.553)" fill="#312113"/>
            <path id="패스_8496" data-name="패스 8496" d="M290.791,74.919l-.02-.922h-4.617l.019.922Z" transform="translate(-238.276 -61.616)" fill="#312113"/>
            <path id="패스_8497" data-name="패스 8497" d="M295.363,58.331l-.019-.922H285.58l.019.922Z" transform="translate(-237.798 -47.804)" fill="#312113"/>
            <path id="패스_8498" data-name="패스 8498" d="M318.011,74.919,317.992,74h-1.4l.02.922Z" transform="translate(-263.621 -61.616)" fill="#312113"/>
            <path id="패스_8499" data-name="패스 8499" d="M355.6,74.919l-.02-.922h-4.617l.019.922Z" transform="translate(-292.246 -61.616)" fill="#312113"/>
            <path id="패스_8500" data-name="패스 8500" d="M360.174,58.331l-.019-.922h-9.764l.019.922Z" transform="translate(-291.766 -47.804)" fill="#312113"/>
            <path id="패스_8501" data-name="패스 8501" d="M382.824,74.919,382.805,74h-1.4l.02.922Z" transform="translate(-317.59 -61.616)" fill="#312113"/>
            <path id="패스_8502" data-name="패스 8502" d="M439.545,369.891l-.019-.922h-4.618l.02.922Z" transform="translate(-362.143 -307.237)" fill="#312113"/>
            <path id="패스_8503" data-name="패스 8503" d="M444.117,353.3l-.019-.922h-9.763l.019.922Z" transform="translate(-361.666 -293.424)" fill="#312113"/>
            <path id="패스_8504" data-name="패스 8504" d="M441.414,336.715l-.019-.923h-7.834l.019.923Z" transform="translate(-361.021 -279.611)" fill="#312113"/>
            <path id="패스_8505" data-name="패스 8505" d="M466.766,369.891l-.019-.922h-1.4l.019.922Z" transform="translate(-387.487 -307.237)" fill="#312113"/>
            <path id="패스_8506" data-name="패스 8506" d="M504.358,369.891l-.019-.922h-4.618l.019.922Z" transform="translate(-416.112 -307.237)" fill="#312113"/>
            <path id="패스_8507" data-name="패스 8507" d="M508.931,353.3l-.02-.922h-9.763l.019.922Z" transform="translate(-415.635 -293.424)" fill="#312113"/>
            <path id="패스_8508" data-name="패스 8508" d="M506.228,336.715l-.019-.923h-7.834l.019.923Z" transform="translate(-414.991 -279.611)" fill="#312113"/>
            <path id="패스_8509" data-name="패스 8509" d="M531.58,369.891l-.019-.922h-1.4l.019.922Z" transform="translate(-441.457 -307.237)" fill="#312113"/>
            <path id="패스_8510" data-name="패스 8510" d="M439.153,320.729l-.019-.922h-4.617l.019.922Z" transform="translate(-361.816 -266.3)" fill="#312113"/>
            <path id="패스_8511" data-name="패스 8511" d="M443.723,304.141l-.019-.922h-9.764l.019.922Z" transform="translate(-361.337 -252.488)" fill="#312113"/>
            <path id="패스_8512" data-name="패스 8512" d="M441.02,287.553l-.02-.922h-7.834l.02.922Z" transform="translate(-360.693 -238.675)" fill="#312113"/>
            <path id="패스_8513" data-name="패스 8513" d="M466.374,320.729l-.019-.922h-1.4l.019.922Z" transform="translate(-387.161 -266.3)" fill="#312113"/>
            <path id="패스_8514" data-name="패스 8514" d="M503.966,320.729l-.019-.922H499.33l.019.922Z" transform="translate(-415.786 -266.3)" fill="#312113"/>
            <path id="패스_8515" data-name="패스 8515" d="M508.537,304.141l-.019-.922h-9.764l.019.922Z" transform="translate(-415.307 -252.488)" fill="#ff8376"/>
            <path id="패스_8516" data-name="패스 8516" d="M505.834,287.553l-.02-.922H497.98l.02.922Z" transform="translate(-414.663 -238.675)" fill="#fff"/>
            <path id="패스_8517" data-name="패스 8517" d="M531.187,320.729l-.019-.922h-1.4l.019.922Z" transform="translate(-441.13 -266.3)" fill="#312113"/>
            <path id="패스_8518" data-name="패스 8518" d="M438.759,271.567l-.02-.922h-4.617l.019.922Z" transform="translate(-361.488 -225.364)" fill="#312113"/>
            <path id="패스_8519" data-name="패스 8519" d="M443.331,254.979l-.019-.922h-9.763l.019.922Z" transform="translate(-361.01 -211.551)" fill="#312113"/>
            <path id="패스_8520" data-name="패스 8520" d="M440.628,238.39l-.019-.923h-7.834l.019.923Z" transform="translate(-360.366 -197.737)" fill="#312113"/>
            <path id="패스_8521" data-name="패스 8521" d="M465.979,271.567l-.019-.922h-1.4l.02.922Z" transform="translate(-386.833 -225.364)" fill="#312113"/>
            <path id="패스_8522" data-name="패스 8522" d="M503.572,271.567l-.02-.922h-4.617l.019.922Z" transform="translate(-415.458 -225.364)" fill="#312113"/>
            <path id="패스_8523" data-name="패스 8523" d="M508.143,254.979l-.019-.922H498.36l.019.922Z" transform="translate(-414.978 -211.551)" fill="#312113"/>
            <path id="패스_8524" data-name="패스 8524" d="M505.441,238.39l-.019-.923h-7.834l.019.923Z" transform="translate(-414.335 -197.737)" fill="#312113"/>
            <path id="패스_8525" data-name="패스 8525" d="M530.793,271.567l-.019-.922h-1.4l.02.922Z" transform="translate(-440.802 -225.364)" fill="#312113"/>
            <path id="패스_8526" data-name="패스 8526" d="M441.414,435.318l-.019-.923h-7.834l.019.923Z" transform="translate(-361.021 -361.717)" fill="#312113"/>
            <path id="패스_8527" data-name="패스 8527" d="M506.228,435.318l-.019-.923h-7.834l.019.923Z" transform="translate(-414.991 -361.717)" fill="#312113"/>
            <path id="패스_8528" data-name="패스 8528" d="M439.153,419.332l-.019-.922h-4.617l.019.922Z" transform="translate(-361.816 -348.406)" fill="#312113"/>
            <path id="패스_8529" data-name="패스 8529" d="M443.723,402.744l-.019-.922h-9.764l.019.922Z" transform="translate(-361.337 -334.594)" fill="#312113"/>
            <path id="패스_8530" data-name="패스 8530" d="M441.02,386.156l-.02-.922h-7.834l.02.922Z" transform="translate(-360.693 -320.781)" fill="#312113"/>
            <path id="패스_8531" data-name="패스 8531" d="M466.374,419.332l-.019-.922h-1.4l.019.922Z" transform="translate(-387.161 -348.406)" fill="#312113"/>
            <path id="패스_8532" data-name="패스 8532" d="M503.966,419.332l-.019-.922H499.33l.019.922Z" transform="translate(-415.786 -348.406)" fill="#312113"/>
            <path id="패스_8533" data-name="패스 8533" d="M508.537,402.744l-.019-.922h-9.764l.019.922Z" transform="translate(-415.307 -334.594)" fill="#ff8376"/>
            <path id="패스_8534" data-name="패스 8534" d="M505.834,386.156l-.02-.922H497.98l.02.922Z" transform="translate(-414.663 -320.781)" fill="#fff"/>
            <path id="패스_8535" data-name="패스 8535" d="M531.187,419.332l-.019-.922h-1.4l.019.922Z" transform="translate(-441.13 -348.406)" fill="#312113"/>
            <path id="패스_8536" data-name="패스 8536" d="M438.366,222.405l-.019-.922H433.73l.019.922Z" transform="translate(-361.161 -184.427)" fill="#312113"/>
            <path id="패스_8537" data-name="패스 8537" d="M442.937,205.817l-.019-.922h-9.764l.02.922Z" transform="translate(-360.682 -170.614)" fill="#312113"/>
            <path id="패스_8538" data-name="패스 8538" d="M465.588,222.405l-.02-.922h-1.4l.019.922Z" transform="translate(-386.506 -184.427)" fill="#312113"/>
            <path id="패스_8539" data-name="패스 8539" d="M503.18,222.405l-.019-.922h-4.618l.019.922Z" transform="translate(-415.131 -184.427)" fill="#312113"/>
            <path id="패스_8540" data-name="패스 8540" d="M507.75,205.817l-.019-.922h-9.764l.02.922Z" transform="translate(-414.651 -170.614)" fill="#312113"/>
            <path id="패스_8541" data-name="패스 8541" d="M505.05,189.229l-.019-.922H497.2l.019.922Z" transform="translate(-414.01 -156.801)" fill="#312113"/>
            <path id="패스_8542" data-name="패스 8542" d="M530.4,222.405l-.02-.922h-1.4l.019.922Z" transform="translate(-440.476 -184.427)" fill="#312113"/>
            <path id="패스_8543" data-name="패스 8543" d="M437.972,173.243l-.019-.922h-4.618l.02.922Z" transform="translate(-360.833 -143.49)" fill="#312113"/>
            <path id="패스_8544" data-name="패스 8544" d="M442.545,156.654l-.02-.922h-9.763l.019.922Z" transform="translate(-360.356 -129.677)" fill="#312113"/>
            <path id="패스_8545" data-name="패스 8545" d="M439.842,140.067l-.019-.922h-7.834l.019.922Z" transform="translate(-359.712 -115.865)" fill="#312113"/>
            <path id="패스_8546" data-name="패스 8546" d="M465.193,173.243l-.019-.922h-1.4l.019.922Z" transform="translate(-386.178 -143.49)" fill="#312113"/>
            <path id="패스_8547" data-name="패스 8547" d="M502.786,173.243l-.019-.922h-4.618l.019.922Z" transform="translate(-414.802 -143.49)" fill="#312113"/>
            <path id="패스_8548" data-name="패스 8548" d="M507.359,156.654l-.02-.922h-9.763l.019.922Z" transform="translate(-414.326 -129.677)" fill="#312113"/>
            <path id="패스_8549" data-name="패스 8549" d="M504.656,140.067l-.02-.922H496.8l.019.922Z" transform="translate(-413.681 -115.865)" fill="#fff"/>
            <path id="패스_8550" data-name="패스 8550" d="M530.007,173.243l-.019-.922h-1.4l.019.922Z" transform="translate(-440.147 -143.49)" fill="#312113"/>
            <path id="패스_8551" data-name="패스 8551" d="M437.581,124.081l-.02-.922h-4.617l.019.922Z" transform="translate(-360.507 -102.553)" fill="#312113"/>
            <path id="패스_8552" data-name="패스 8552" d="M442.151,107.492l-.019-.922h-9.764l.019.922Z" transform="translate(-360.027 -88.74)" fill="#312113"/>
            <path id="패스_8553" data-name="패스 8553" d="M439.448,90.9l-.019-.922h-7.834l.02.922Z" transform="translate(-359.383 -74.927)" fill="#312113"/>
            <path id="패스_8554" data-name="패스 8554" d="M464.8,124.081l-.019-.922h-1.4l.019.922Z" transform="translate(-385.852 -102.553)" fill="#312113"/>
            <path id="패스_8555" data-name="패스 8555" d="M502.394,124.081l-.019-.922h-4.617l.019.922Z" transform="translate(-414.477 -102.553)" fill="#312113"/>
            <path id="패스_8556" data-name="패스 8556" d="M506.964,107.492l-.019-.922h-9.764l.019.922Z" transform="translate(-413.997 -88.74)" fill="#312113"/>
            <path id="패스_8557" data-name="패스 8557" d="M504.261,90.9l-.019-.922h-7.834l.02.922Z" transform="translate(-413.353 -74.927)" fill="#312113"/>
            <path id="패스_8558" data-name="패스 8558" d="M529.615,124.081l-.019-.922h-1.4l.019.922Z" transform="translate(-439.821 -102.553)" fill="#312113"/>
            <path id="패스_8559" data-name="패스 8559" d="M437.186,74.919,437.167,74h-4.618l.019.922Z" transform="translate(-360.178 -61.616)" fill="#312113"/>
            <path id="패스_8560" data-name="패스 8560" d="M441.759,58.331l-.019-.922h-9.763l.019.922Z" transform="translate(-359.701 -47.804)" fill="#312113"/>
            <path id="패스_8561" data-name="패스 8561" d="M464.407,74.919,464.388,74h-1.4l.02.922Z" transform="translate(-385.523 -61.616)" fill="#312113"/>
            <path id="패스_8562" data-name="패스 8562" d="M502,74.919,501.98,74h-4.617l.019.922Z" transform="translate(-414.148 -61.616)" fill="#312113"/>
            <path id="패스_8563" data-name="패스 8563" d="M506.572,58.331l-.019-.922h-9.763l.019.922Z" transform="translate(-413.67 -47.804)" fill="#ff8376"/>
            <path id="패스_8564" data-name="패스 8564" d="M529.22,74.919,529.2,74h-1.4l.02.922Z" transform="translate(-439.493 -61.616)" fill="#312113"/>
            <path id="패스_8565" data-name="패스 8565" d="M317.6,77.086h-.445V2.98a2.543,2.543,0,0,0-2.54-2.54H267.888a2.543,2.543,0,0,0-2.54,2.54V56.19H264.9V2.98A2.988,2.988,0,0,1,267.888,0h46.728A2.988,2.988,0,0,1,317.6,2.98Z" transform="translate(-220.581 0.004)" fill="#312113"/>
          </g>
        </g>
      </g>
      <g id="그룹_5455" data-name="그룹 5455">
        <g id="그룹_5453" data-name="그룹 5453">
          <path id="패스_8566" data-name="패스 8566" d="M823.244,875.318h.214a1.645,1.645,0,0,0,1.645-1.645V837.507h-3.5v36.166a1.645,1.645,0,0,0,1.645,1.645" transform="translate(-684.137 -697.385)" fill="#fff"/>
          <path id="패스_8567" data-name="패스 8567" d="M796.882,824.726h9.643a1.234,1.234,0,0,1,1.121.718l.045.1a1.234,1.234,0,0,1-1.121,1.75h-9.732a1.234,1.234,0,0,1-1.121-1.75l.045-.1a1.233,1.233,0,0,1,1.12-.718" transform="translate(-662.49 -686.743)" fill="#fff"/>
          <path id="패스_8568" data-name="패스 8568" d="M805.468,826.407h-9.732a1.456,1.456,0,0,1-1.322-2.065l.044-.1a1.46,1.46,0,0,1,1.323-.847h9.643a1.46,1.46,0,0,1,1.323.847l.045.1a1.456,1.456,0,0,1-1.323,2.065m-9.688-2.565a1.015,1.015,0,0,0-.919.588l-.045.1a1.011,1.011,0,0,0,.919,1.435h9.732a1.011,1.011,0,0,0,.919-1.435l-.045-.1a1.015,1.015,0,0,0-.919-.588Z" transform="translate(-661.388 -685.637)" fill="#312113"/>
          <path id="패스_8569" data-name="패스 8569" d="M699.363,480.081c-1.78,10.381-7.462,22.449-31.26,22.449s-32.63-9.323-32.63-11.776,9.464,1.093,14.659-5.193-3.271-29.032-3.271-39.091,27.724-9.568,35.82-9.568c4.157,0,11.588-.608,16.438,7.36,4.58,7.524,2.208,24.37.245,35.82" transform="translate(-529.151 -363.795)" fill="#f2cd5d"/>
          <g id="그룹_5419" data-name="그룹 5419" transform="translate(106.32 73.27)" style="mix-blend-mode: multiply;isolation: isolate">
            <g id="그룹_5418" data-name="그룹 5418">
              <g id="그룹_5417" data-name="그룹 5417" clip-path="url(#clip-path-2)">
                <path id="패스_8570" data-name="패스 8570" d="M691.175,487.343c-.294-3.241-4.715-3.815-5.7-6.88-1.068-3.312,1.907-7.006,1.557-10.444-.36-3.542-2.209-3.656-2.549-7.205-.326-3.4,3.475-5.413,2.417-8.692-.862-2.672-4-16.188-15.487-16.188-10.934.487-24.55,2.355-24.55,9.4,0,10.059,8.467,32.8,3.271,39.091s-14.659,2.74-14.659,5.193S644.3,503.4,668.1,503.4c1.667,0,23.341-13.091,23.072-16.056" transform="translate(-635.473 -437.934)" fill="#f2cd5d"/>
              </g>
            </g>
          </g>
          <path id="패스_8571" data-name="패스 8571" d="M714.547,753.636a69.7,69.7,0,0,1-20.94-3.517l.134-.424c16.209,5.108,27.427,3.684,33.982,1.59,7.1-2.268,10.407-5.787,10.44-5.822l.326.3c-.033.036-3.4,3.628-10.6,5.934a43.6,43.6,0,0,1-13.343,1.938" transform="translate(-577.56 -620.741)" fill="#312113"/>
          <path id="패스_8572" data-name="패스 8572" d="M939.33,681.72a1.337,1.337,0,1,1,1.337-1.336,1.338,1.338,0,0,1-1.337,1.336m0-2.229a.892.892,0,1,0,.892.892.893.893,0,0,0-.892-.892" transform="translate(-781.059 -565.437)" fill="#312113"/>
          <path id="패스_8573" data-name="패스 8573" d="M859.9,681.72a1.337,1.337,0,1,1,1.336-1.336,1.338,1.338,0,0,1-1.336,1.336m0-2.229a.892.892,0,1,0,.892.892.893.893,0,0,0-.892-.892" transform="translate(-714.916 -565.437)" fill="#312113"/>
          <path id="패스_8574" data-name="패스 8574" d="M780.47,681.72a1.337,1.337,0,1,1,1.337-1.336,1.338,1.338,0,0,1-1.337,1.336m0-2.229a.892.892,0,1,0,.892.892.893.893,0,0,0-.892-.892" transform="translate(-648.777 -565.437)" fill="#312113"/>
          <path id="패스_8575" data-name="패스 8575" d="M819.7,719.48a1.337,1.337,0,1,1,1.337-1.336,1.338,1.338,0,0,1-1.337,1.336m0-2.229a.892.892,0,1,0,.892.892.893.893,0,0,0-.892-.892" transform="translate(-681.44 -596.879)" fill="#312113"/>
          <path id="패스_8576" data-name="패스 8576" d="M904.868,632.9a1.337,1.337,0,1,1,1.336-1.337,1.338,1.338,0,0,1-1.336,1.337m0-2.229a.892.892,0,1,0,.892.892.893.893,0,0,0-.892-.892" transform="translate(-752.361 -524.787)" fill="#312113"/>
          <path id="패스_8577" data-name="패스 8577" d="M988.942,632.9a1.337,1.337,0,1,1,1.336-1.337,1.338,1.338,0,0,1-1.336,1.337m0-2.229a.892.892,0,1,0,.892.892.893.893,0,0,0-.892-.892" transform="translate(-822.369 -524.787)" fill="#312113"/>
          <path id="패스_8578" data-name="패스 8578" d="M825.439,632.9a1.337,1.337,0,1,1,1.337-1.337,1.338,1.338,0,0,1-1.337,1.337m0-2.229a.892.892,0,1,0,.892.892.892.892,0,0,0-.892-.892" transform="translate(-686.222 -524.787)" fill="#312113"/>
          <path id="패스_8579" data-name="패스 8579" d="M746.009,632.9a1.337,1.337,0,1,1,1.336-1.337,1.338,1.338,0,0,1-1.336,1.337m0-2.229a.892.892,0,1,0,.892.892.893.893,0,0,0-.892-.892" transform="translate(-620.081 -524.787)" fill="#312113"/>
          <path id="패스_8580" data-name="패스 8580" d="M939.33,584.082a1.337,1.337,0,1,1,1.337-1.336,1.338,1.338,0,0,1-1.337,1.336m0-2.229a.892.892,0,1,0,.892.892.893.893,0,0,0-.892-.892" transform="translate(-781.059 -484.134)" fill="#312113"/>
          <path id="패스_8581" data-name="패스 8581" d="M859.9,584.082a1.337,1.337,0,1,1,1.336-1.336,1.338,1.338,0,0,1-1.336,1.336m0-2.229a.892.892,0,1,0,.892.892.893.893,0,0,0-.892-.892" transform="translate(-714.916 -484.134)" fill="#312113"/>
          <path id="패스_8582" data-name="패스 8582" d="M780.47,584.082a1.337,1.337,0,1,1,1.337-1.336,1.338,1.338,0,0,1-1.337,1.336m0-2.229a.892.892,0,1,0,.892.892.893.893,0,0,0-.892-.892" transform="translate(-648.777 -484.134)" fill="#312113"/>
          <path id="패스_8583" data-name="패스 8583" d="M904.868,535.264a1.337,1.337,0,1,1,1.336-1.337,1.338,1.338,0,0,1-1.336,1.337m0-2.229a.892.892,0,1,0,.892.892.893.893,0,0,0-.892-.892" transform="translate(-752.361 -443.484)" fill="#312113"/>
          <path id="패스_8584" data-name="패스 8584" d="M988.942,535.264a1.337,1.337,0,1,1,1.336-1.337,1.338,1.338,0,0,1-1.336,1.337m0-2.229a.892.892,0,1,0,.892.892.893.893,0,0,0-.892-.892" transform="translate(-822.369 -443.484)" fill="#312113"/>
          <path id="패스_8585" data-name="패스 8585" d="M825.439,535.264a1.337,1.337,0,1,1,1.337-1.337,1.338,1.338,0,0,1-1.337,1.337m0-2.229a.892.892,0,1,0,.892.892.893.893,0,0,0-.892-.892" transform="translate(-686.222 -443.484)" fill="#312113"/>
          <path id="패스_8586" data-name="패스 8586" d="M746.009,535.264a1.337,1.337,0,1,1,1.336-1.337,1.338,1.338,0,0,1-1.336,1.337m0-2.229a.892.892,0,1,0,.892.892.893.893,0,0,0-.892-.892" transform="translate(-620.081 -443.484)" fill="#312113"/>
          <path id="패스_8587" data-name="패스 8587" d="M939.33,474.958a1.337,1.337,0,1,1,1.337-1.336,1.338,1.338,0,0,1-1.337,1.336m0-2.229a.892.892,0,1,0,.892.892.893.893,0,0,0-.892-.892" transform="translate(-781.059 -393.268)" fill="#312113"/>
          <path id="패스_8588" data-name="패스 8588" d="M859.9,474.958a1.337,1.337,0,1,1,1.336-1.336,1.338,1.338,0,0,1-1.336,1.336m0-2.229a.892.892,0,1,0,.892.892.893.893,0,0,0-.892-.892" transform="translate(-714.916 -393.268)" fill="#312113"/>
          <path id="패스_8589" data-name="패스 8589" d="M780.47,474.958a1.337,1.337,0,1,1,1.337-1.336,1.338,1.338,0,0,1-1.337,1.336m0-2.229a.892.892,0,1,0,.892.892.893.893,0,0,0-.892-.892" transform="translate(-648.777 -393.268)" fill="#312113"/>
          <rect id="사각형_4100" data-name="사각형 4100" width="0.445" height="35.695" transform="translate(138.194 140.619)" fill="#312113"/>
          <path id="패스_8590" data-name="패스 8590" d="M778.3,1058.324h-.445v-2.488a3.177,3.177,0,0,1,3.174-3.173h11.786a3.177,3.177,0,0,1,3.173,3.173v2.083h-.445v-2.083a2.732,2.732,0,0,0-2.729-2.729H781.029a2.732,2.732,0,0,0-2.729,2.729Z" transform="translate(-647.712 -876.543)" fill="#312113"/>
          <path id="패스_8591" data-name="패스 8591" d="M751.208,1058.324h-.445v-2.488a3.177,3.177,0,0,1,3.173-3.173h20.852a3.177,3.177,0,0,1,3.174,3.173v2.083h-.445v-2.083a2.732,2.732,0,0,0-2.729-2.729H753.936a2.731,2.731,0,0,0-2.729,2.729Z" transform="translate(-625.153 -876.543)" fill="#312113"/>
          <path id="패스_8592" data-name="패스 8592" d="M770.393,1076.564a1.476,1.476,0,1,0,1.475-1.475,1.475,1.475,0,0,0-1.475,1.475" transform="translate(-641.499 -895.218)" fill="#312113"/>
          <path id="패스_8593" data-name="패스 8593" d="M743.761,1076.564a1.475,1.475,0,1,0,1.476-1.475,1.476,1.476,0,0,0-1.476,1.475" transform="translate(-619.322 -895.218)" fill="#312113"/>
          <path id="패스_8594" data-name="패스 8594" d="M903.337,1076.564a1.476,1.476,0,1,0,1.476-1.475,1.476,1.476,0,0,0-1.476,1.475" transform="translate(-752.2 -895.218)" fill="#312113"/>
          <path id="패스_8595" data-name="패스 8595" d="M875.539,1076.564a1.476,1.476,0,1,0,1.475-1.475,1.475,1.475,0,0,0-1.475,1.475" transform="translate(-729.053 -895.218)" fill="#312113"/>
          <path id="패스_8596" data-name="패스 8596" d="M499.94,536.289a19,19,0,0,0-1.811,2.678c-.453.978-1.2,2.428-.935,3.15s.625.065.939-.295a19.088,19.088,0,0,1,1.587-1.544c.46-.383,2.615-.969,2.965-1.911s-2.745-2.078-2.745-2.078" transform="translate(-413.96 -446.563)" fill="#fff"/>
          <path id="패스_8597" data-name="패스 8597" d="M485.089,525.239a34.934,34.934,0,0,1-1.171-4.406s23.716.836,30.38.673c2.129-.052,7.812,9.038-.965,11.124-6.924,1.646-20.013-7.52-25.846-6.85-1.113.128-2.277-.226-2.4-.542" transform="translate(-402.953 -433.693)" fill="#fff"/>
          <path id="패스_8598" data-name="패스 8598" d="M457.06,521.128s-1.841,3.29-4.472,2.325c-2.828-1.039-10.012.474-9.45-1.591.413-1.519,1.509-2.787,6.728-2.1a69.438,69.438,0,0,1,7.195,1.362" transform="translate(-368.97 -432.644)" fill="#fff"/>
          <path id="합치기_23" data-name="합치기 23" d="M-5657.667-6429.716a71.8,71.8,0,0,0-8.258-3.09c-.782.549-2.007.934-2.34,1.21a18.892,18.892,0,0,0-1.586,1.545c-.315.36-.671,1.016-.941.294,0-.013-.009-.026-.013-.04a9.048,9.048,0,0,1-1.161-.134,8.759,8.759,0,0,0-2.333-.089c-1.93.225-4.976-.994-5.312-1.711a8.688,8.688,0,0,1-.275-4.1.8.8,0,0,1,.029-.261.788.788,0,0,1,.08-.262c.475-1.4,1.732-2.485,6.647-1.832l.139.019c1.408.049,23.856.828,30.311.669,2.13-.051,7.812,9.04-.965,11.126a7.978,7.978,0,0,1-1.835.2C-5648.944-6426.175-5653.39-6427.946-5657.667-6429.716Zm-14.157-2.372a3.552,3.552,0,0,0,1.132,1.134,17.342,17.342,0,0,1,.836-1.952c.043-.094.095-.194.152-.3a3.4,3.4,0,0,1-2.112-.458A1.343,1.343,0,0,0-5671.825-6432.088Z" transform="translate(5754.025 6525.311)" fill="none" stroke="#312113" stroke-miterlimit="10" stroke-width="0.4"/>
          <path id="패스_8599" data-name="패스 8599" d="M442.584,524.911a9.228,9.228,0,0,0,.244,4.361c.336.718,3.382,1.936,5.313,1.712,2.131-.247,3.759.666,4.174-.069.334-.593-1.176-.974-1.7-2-1.12-2.2,1.976-2.335,1.976-2.335s-3.981-3.165-5.581-3.33c-1.176-.121-4.286.444-4.429,1.661" transform="translate(-368.416 -435.693)" fill="#fff"/>
          <path id="패스_8600" data-name="패스 8600" d="M474.7,546.042l-.215-4.558a12.836,12.836,0,0,0,.215,4.558" transform="translate(-395.004 -450.889)" fill="#312113"/>
          <path id="패스_8601" data-name="패스 8601" d="M451.264,543.86l-.68-4.512a12.839,12.839,0,0,0,.68,4.512" transform="translate(-375.196 -449.111)" fill="#312113"/>
          <path id="패스_8602" data-name="패스 8602" d="M461.795,542.865l-.88-5.3s.111,3.726.88,5.3" transform="translate(-383.799 -447.625)" fill="#312113"/>
          <path id="패스_8603" data-name="패스 8603" d="M640.157,363.544c3.03.335,7.677,3.992,7.671,10.5s-3.535,21.461-7.662,31.613a46.52,46.52,0,0,1-14.7-15.154s1.571-13.227,4.22-18.785,7.129-8.547,10.471-8.178" transform="translate(-520.819 -302.694)" fill="#fff"/>
          <path id="패스_8604" data-name="패스 8604" d="M602.343,961.691l-7.236,3.059-5.8-8.618,9.062-3.832Z" transform="translate(-490.712 -792.973)" fill="#fff"/>
          <path id="패스_8605" data-name="패스 8605" d="M545.936,1000.048a3.846,3.846,0,0,1,4.176-.15c2.545,1.245,2.86-.637,3.305-1.1a2.785,2.785,0,0,1,2.112-.893s2.337,8.922,1.675,15.864H533.157a3.05,3.05,0,0,1,1.332-3.533c2.076-1.115,11.187-3.75,12.4-6.1a3.391,3.391,0,0,0-.949-4.088" transform="translate(-443.846 -830.952)" fill="#904823"/>
          <path id="패스_8606" data-name="패스 8606" d="M650.168,1051.269h-.445a6.8,6.8,0,0,1,4.3-6.284l.147.419a6.242,6.242,0,0,0-4,5.864" transform="translate(-541.018 -870.15)" fill="#312113"/>
          <path id="패스_8607" data-name="패스 8607" d="M557.36,1079.576c.025.866-.125,1.625-.151,2.2H533.161a3.621,3.621,0,0,1,.1-2.2Z" transform="translate(-443.851 -898.954)" fill="#312113"/>
          <path id="패스_8608" data-name="패스 8608" d="M588.551,1020.7l-2.869-.788.118-.429,2.769.761c.532-.106,5.17-1.089,5.633-3.046.494-2.093-1.31-4.235-1.329-4.256l.338-.289c.081.094,1.97,2.333,1.423,4.648-.554,2.345-5.81,3.349-6.033,3.39Z" transform="translate(-487.691 -843.224)" fill="#312113"/>
          <rect id="사각형_4101" data-name="사각형 4101" width="0.444" height="2.654" transform="translate(100.852 175.173) rotate(-71.086)" fill="#312113"/>
          <rect id="사각형_4102" data-name="사각형 4102" width="0.444" height="2.653" transform="translate(102.92 173.663) rotate(-71.094)" fill="#312113"/>
          <path id="패스_8609" data-name="패스 8609" d="M471.4,777a208.646,208.646,0,0,0,4.362,21.926c1.8,7.053,4.191,17.122,4.191,17.122s15.5-.124,23.924-10.412c0,0-7.685-21.1-9.545-27.426S470.215,767.271,471.4,777" transform="translate(-392.495 -642.334)" fill="#65efe5"/>
          <path id="패스_8610" data-name="패스 8610" d="M517.734,674.84c-5.709-.191-31.952,15.083-42.487,10.645-5.654-2.381-9.142-13.914-1.651-19.828,4.9-3.872,27.836-11.461,33.539-12.432s20.641,21.952,10.6,21.615" transform="translate(-390.79 -543.91)" fill="#65efe5"/>
          <path id="패스_8611" data-name="패스 8611" d="M604.421,804.048c-1.064-2.968-2.177-5.867-3.253-8.671-3.643-9.492-6.52-16.989-4.962-20.155a2.619,2.619,0,0,1,1.666-1.4c5.238-1.562,24.073-7.378,24.263-7.437l.131.425c-.19.059-19.028,5.876-24.267,7.439a2.163,2.163,0,0,0-1.394,1.168c-1.472,2.992,1.517,10.781,4.978,19.8,1.077,2.806,2.19,5.708,3.256,8.68Z" transform="translate(-496.095 -638.164)" fill="#312113"/>
          <path id="패스_8612" data-name="패스 8612" d="M523.921,952.194l-.439-.072a92.269,92.269,0,0,0,1.113-15.574l.445-.017a92.8,92.8,0,0,1-1.119,15.664" transform="translate(-435.897 -779.841)" fill="#312113"/>
          <path id="패스_8613" data-name="패스 8613" d="M748.858,961.691l-7.236,3.059-5.8-8.618,9.062-3.832Z" transform="translate(-612.714 -792.973)" fill="#fff"/>
          <path id="패스_8614" data-name="패스 8614" d="M692.449,1000.048a3.846,3.846,0,0,1,4.176-.15c2.545,1.245,2.86-.637,3.306-1.1a2.783,2.783,0,0,1,2.112-.893s2.338,8.922,1.676,15.864H679.67a3.05,3.05,0,0,1,1.332-3.533c2.076-1.115,11.188-3.75,12.4-6.1a3.391,3.391,0,0,0-.949-4.088" transform="translate(-565.846 -830.952)" fill="#904823"/>
          <path id="패스_8615" data-name="패스 8615" d="M796.68,1051.269h-.445a6.8,6.8,0,0,1,4.3-6.284l.147.419a6.242,6.242,0,0,0-4,5.864" transform="translate(-663.017 -870.15)" fill="#312113"/>
          <path id="패스_8616" data-name="패스 8616" d="M703.874,1079.576c.025.866-.125,1.625-.151,2.2H679.675a3.625,3.625,0,0,1,.1-2.2Z" transform="translate(-565.851 -898.954)" fill="#312113"/>
          <path id="패스_8617" data-name="패스 8617" d="M735.065,1020.7l-2.87-.788.118-.429,2.77.761c.532-.106,5.17-1.089,5.632-3.046.494-2.093-1.31-4.235-1.329-4.256l.338-.289c.081.094,1.97,2.333,1.423,4.648-.553,2.345-5.809,3.349-6.032,3.39Z" transform="translate(-609.691 -843.224)" fill="#312113"/>
          <rect id="사각형_4103" data-name="사각형 4103" width="0.444" height="2.653" transform="translate(125.364 175.173) rotate(-71.084)" fill="#312113"/>
          <rect id="사각형_4104" data-name="사각형 4104" width="0.444" height="2.653" transform="translate(127.433 173.663) rotate(-71.097)" fill="#312113"/>
          <path id="패스_8618" data-name="패스 8618" d="M617.917,777a208.662,208.662,0,0,0,4.362,21.926c1.8,7.053,4.191,17.122,4.191,17.122s15.5-.124,23.924-10.412c0,0-7.686-21.1-9.545-27.426S616.728,767.271,617.917,777" transform="translate(-514.495 -642.334)" fill="#65efe5"/>
          <path id="패스_8619" data-name="패스 8619" d="M660.285,675.568c-5.427,1.342-27.99,14.5-38.524,10.066-5.654-2.381-9.142-13.914-1.651-19.828,4.9-3.872,22.852-12.432,40.919-12.432,11.838,0,8.8,19.834-.744,22.194" transform="translate(-512.791 -544.059)" fill="#65efe5"/>
          <path id="패스_8620" data-name="패스 8620" d="M750.937,793.011c-1.064-2.968-2.177-5.868-3.253-8.673-3.642-9.491-6.519-16.987-4.961-20.153a2.618,2.618,0,0,1,1.666-1.4c5.227-1.559,24.179-9.574,24.369-9.655l.174.409c-.191.081-19.166,8.106-24.417,9.672a2.164,2.164,0,0,0-1.395,1.169c-1.472,2.991,1.517,10.779,4.977,19.8,1.077,2.807,2.191,5.709,3.257,8.682Z" transform="translate(-618.097 -627.127)" fill="#312113"/>
          <path id="패스_8621" data-name="패스 8621" d="M700.223,902.173a52.181,52.181,0,0,0-7.662-8.837l.289-.337a52.631,52.631,0,0,1,7.742,8.926Z" transform="translate(-576.688 -743.593)" fill="#312113"/>
          <path id="패스_8622" data-name="패스 8622" d="M616.557,699.056c-.153-7.793,15.309-13.086,15.967-13.307l.142.421c-.158.053-15.811,5.409-15.664,12.877Z" transform="translate(-513.4 -571.018)" fill="#312113"/>
          <path id="패스_8623" data-name="패스 8623" d="M643.562,369.574c-1.1,9.721,1.929,31.84-.454,36.154,0,0,4.966,4.711,14.019,3.121,9.532-1.673,24.666,8.806,35.718,6.962,0,0-7.926-53.409-18.238-59.4s-29.051-4.484-31.045,13.167" transform="translate(-535.509 -294.134)" fill="#ff5168"/>
          <path id="패스_8624" data-name="패스 8624" d="M698.854,291.222l1.771,7.884c.47.707,2.967,4.371,9.958-1.629l-3.038-11.4a83.952,83.952,0,0,1-8.692,5.147" transform="translate(-581.929 -238.212)" fill="#fff"/>
          <path id="패스_8625" data-name="패스 8625" d="M703.737,312.525s7.5.026,8.941-4.962c0,0-.547-3.359-.566-3.339-5.21,4.448-7.559,4.65-8.375,8.3" transform="translate(-585.995 -253.325)" fill="#312113"/>
          <path id="패스_8626" data-name="패스 8626" d="M673.873,263.909c2.622-.463,6.805-4.852,7.46-7.434a8.558,8.558,0,0,0-.832-4.207c-1.671-3.257-3.072-6.23-5.9-6.721-1.193-.2-3.971.618-4.971,1.008-3.294,1.294-3.5,4.153-2.933,7.643.639,3.915,2.555,10.527,7.179,9.71" transform="translate(-554.944 -204.439)" fill="#fff"/>
          <path id="패스_8627" data-name="패스 8627" d="M674.941,295.831c-.262-.026-1.587-.181-1.882-.74a.554.554,0,0,1,.018-.548,4.3,4.3,0,0,0,.164-3.243,1.826,1.826,0,0,0-2.009-.113l-.21-.392a2.3,2.3,0,0,1,2.555.205l.04.035.02.05a4.742,4.742,0,0,1-.169,3.671c-.042.076-.025.108-.015.127.135.255.994.452,1.532.5Z" transform="translate(-558.753 -241.896)" fill="#312113"/>
          <path id="패스_8628" data-name="패스 8628" d="M739.015,275.309a2.489,2.489,0,1,0,2.038-2.869,2.489,2.489,0,0,0-2.038,2.869" transform="translate(-615.341 -226.829)" fill="#fff"/>
          <path id="패스_8629" data-name="패스 8629" d="M749.652,281.016a.681.681,0,0,1-.332-.086c-.37-.2-.261-.609-.19-.877.087-.326.1-.448-.025-.528a1.813,1.813,0,0,0-.253-.127c-.256-.114-.546-.244-.625-.53a.7.7,0,0,1,.15-.6,1.391,1.391,0,0,1,1.4-.55l-.094.434a.945.945,0,0,0-.937.37.342.342,0,0,0-.087.224c.023.085.229.177.379.243a2.347,2.347,0,0,1,.317.162c.408.27.288.718.208,1.014-.071.264-.076.344-.026.372.277.151.683-.321.686-.326l.345.281a1.32,1.32,0,0,1-.913.521" transform="translate(-623.025 -231.237)" fill="#312113"/>
          <path id="패스_8630" data-name="패스 8630" d="M692.492,327.979c-.316,0-.521-.02-.547-.023l.045-.442a6.357,6.357,0,0,0,3.587-.77l.242.373a6.325,6.325,0,0,1-3.327.862" transform="translate(-576.176 -272.077)" fill="#312113"/>
          <path id="패스_8631" data-name="패스 8631" d="M704.942,294.817a.624.624,0,0,1,.027.1.661.661,0,1,1-1.228-.207,4.428,4.428,0,0,0,1.2.108" transform="translate(-585.927 -245.402)" fill="#312113"/>
          <path id="패스_8632" data-name="패스 8632" d="M676.722,299.6a.683.683,0,0,1,.027.1.661.661,0,1,1-1.228-.207,4.434,4.434,0,0,0,1.2.108" transform="translate(-562.429 -249.385)" fill="#312113"/>
          <path id="합치기_22" data-name="합치기 22" d="M-5663.594-6425.239l-.009.013s-.092-.043-.251-.124l-.091-.041,0,0a11.957,11.957,0,0,1-3.363-2.531l-.006.015c-.486-.357-2-2.592-2.364-2.733a5.5,5.5,0,0,0-2.264,1.06c-.871.58-1.049.85-1.792.113a21.1,21.1,0,0,1-2.429-2.65c-.257-.6,3.387-4.2,3.387-4.2s-4.362,3.065-6.445,3.282c-.535.055-1.06-.782-.611-1.078a70.33,70.33,0,0,1,7.248-4.052l-.01-.011s.041-.018.12-.042l.125-.06.036.015c.835-.209,3.445-.5,6.516,2.765,3.74,3.976,6.11,4.64,6.11,4.64l0,.005c2.744.255,10.316.652,16.46-1.907.467-.191.924-.377,1.364-.56a40.407,40.407,0,0,1,5.023,8.635c.3.651.585,1.292.855,1.92-1,.15-2.19.288-3.489.414-1.043.1-2.221.147-3.484.147C-5650.018-6422.208-5659.744-6423.665-5663.594-6425.239Z" transform="translate(5755.62 6514.538)" fill="none" stroke="#312113" stroke-miterlimit="10" stroke-width="0.6"/>
          <path id="패스_8633" data-name="패스 8633" d="M697.3,285.744l-.413-.164c.021-.055.55-1.338,3.157-.507l-.135.424c-2.176-.694-2.6.238-2.609.247" transform="translate(-580.293 -237.146)" fill="#312113"/>
          <path id="패스_8634" data-name="패스 8634" d="M698.706,391.79a5.794,5.794,0,0,1-4.767-2.968l.392-.211a5.444,5.444,0,0,0,4.375,2.734Z" transform="translate(-577.836 -323.593)" fill="#312113"/>
          <path id="패스_8635" data-name="패스 8635" d="M720.095,620.938l-.068-.439c.09-.014,8.973-1.475,10.8-9.432l.433.1c-1.9,8.253-11.077,9.757-11.17,9.771" transform="translate(-599.559 -508.831)"/>
          <path id="패스_8636" data-name="패스 8636" d="M664.523,224.039l1.142,2.738a3.271,3.271,0,0,0,.93-.208c-.495-2.918,2.031-2.788,2.031-2.788,1.623-3.774-2.4-8.87-4.92-8.223,0,0-2.632-3.085-7.765-.63s-4.032,5.7-4.032,5.7-1.4.883-.748,3.432a13.942,13.942,0,0,0,2.872,4.973l-.393-2.271s5.115-1.591,7.312-5.357a3.924,3.924,0,0,0,3.57,2.638" transform="translate(-542.071 -178.179)" fill="#312113"/>
          <path id="패스_8637" data-name="패스 8637" d="M698.618,373.031c2.522,1.713,5.554,5.927,2.5,11.681s-11.237,18.058-19.632,25.1c0,0-1.962-11.005-9.611-19.4,0,0,9.177-12.615,14.117-16.289s9.84-2.979,12.622-1.09" transform="translate(-559.467 -309.334)" fill="#fff"/>
          <path id="패스_8638" data-name="패스 8638" d="M740.438,505.712a9.36,9.36,0,0,1-2.127-.22l.115-.43a9.953,9.953,0,0,0,10.552-4.583l.374.24a10.26,10.26,0,0,1-8.914,4.993" transform="translate(-614.784 -416.745)"/>
          <path id="패스_8639" data-name="패스 8639" d="M671.779,481.024c-.847.391.547,5.21,3.112,10.763s5.331,9.738,6.177,9.347-.547-5.21-3.112-10.763-5.331-9.738-6.177-9.347" transform="translate(-559.177 -400.524)"/>
          <path id="패스_8640" data-name="패스 8640" d="M505.231,468.338s-4.719-2.177-4.742-5.094c-.025-3.137-4.247-7.86-4.247-7.86s3.057-1.3,6.8,2.678,6.111,4.639,6.111,4.639Z" transform="translate(-413.215 -379.025)" fill="#fff"/>
          <path id="패스_8641" data-name="패스 8641" d="M459.621,455.779a71.831,71.831,0,0,0-7.483,4.164c-.448.3.077,1.135.612,1.079,2.082-.216,6.444-3.283,6.444-3.283s-3.644,3.6-3.387,4.2a21.028,21.028,0,0,0,2.43,2.65c.743.737.921.466,1.792-.113a5.489,5.489,0,0,1,2.264-1.059c.36.14,1.878,2.375,2.365,2.733,0,0,1.849-4.938,1.173-6.425-.777-1.71-6.209-3.946-6.209-3.946" transform="translate(-376.349 -379.523)" fill="#fff"/>
          <path id="패스_8642" data-name="패스 8642" d="M487.108,489.663l3.723-3.335a37.655,37.655,0,0,0-3.723,3.335" transform="translate(-405.609 -404.961)" fill="#312113"/>
          <path id="패스_8643" data-name="패스 8643" d="M480.752,478.5l4.085-4.27a45.794,45.794,0,0,0-4.085,4.27" transform="translate(-400.317 -394.888)" fill="#312113"/>
          <path id="패스_8644" data-name="패스 8644" d="M551.127,487.769l-3.2,5.583c4.2,1.914,17.41,3.719,24.469,3.035,1.3-.127,2.486-.263,3.489-.414q-.4-.941-.854-1.921a40.34,40.34,0,0,0-5.024-8.634c-.439.183-.9.368-1.363.559-7.651,3.186-17.516,1.791-17.516,1.791" transform="translate(-456.252 -404.205)" fill="#fff"/>
          <path id="패스_8645" data-name="패스 8645" d="M728.089,483.725l-.223-.385c.195-.113,19.461-11.4,20.276-23.48l.444.03c-.831,12.31-20.3,23.721-20.5,23.835" transform="translate(-606.086 -382.921)"/>
        </g>
        <g id="desk">
          <path id="패스_8646" data-name="패스 8646" d="M257.272,600.332v84.209c-1.843-.461-3.719-.992-5.616-1.6v-4.029H205.964l-.257,2.322-5.494,1.476V600.332Z" transform="translate(-166.714 -499.892)" fill="#dbcac2"/>
          <path id="패스_8647" data-name="패스 8647" d="M277.757,679.977H231V662.947h46.758Zm-46.313-.445h45.868v-16.14H231.444Z" transform="translate(-192.35 -552.031)" fill="#312113"/>
          <g id="그룹_5422" data-name="그룹 5422" transform="translate(33.498 100.44)" style="mix-blend-mode: multiply;isolation: isolate">
            <g id="그룹_5421" data-name="그룹 5421">
              <g id="그룹_5420" data-name="그룹 5420" clip-path="url(#clip-path-3)">
                <path id="패스_8648" data-name="패스 8648" d="M200.214,600.332v12.145h45.634l10.78-10.78a3.147,3.147,0,0,1,.645-.5v-.868Z" transform="translate(-200.214 -600.332)" fill="#dbcac2"/>
              </g>
            </g>
          </g>
          <path id="패스_8649" data-name="패스 8649" d="M100.2,587.877v-5.638H0s.624,4.423.95,5.638Z" transform="translate(0 -484.826)" fill="#fff"/>
          <path id="패스_8650" data-name="패스 8650" d="M107,586.993H7.889v-.445h98.663v-5.193H42.568v-.445H107Z" transform="translate(-6.568 -483.72)" fill="#312113"/>
          <g id="그룹_5425" data-name="그룹 5425" transform="translate(57.918 116.994)" style="mix-blend-mode: multiply;isolation: isolate">
            <g id="그룹_5424" data-name="그룹 5424">
              <g id="그룹_5423" data-name="그룹 5423" clip-path="url(#clip-path-4)">
                <path id="패스_8651" data-name="패스 8651" d="M352.361,702.366a3.093,3.093,0,1,1-3.093-3.094,3.093,3.093,0,0,1,3.093,3.094" transform="translate(-346.174 -699.272)" fill="#dbcac2"/>
              </g>
            </g>
          </g>
          <path id="패스_8652" data-name="패스 8652" d="M362.155,703.106A2.157,2.157,0,1,1,360,700.949a2.157,2.157,0,0,1,2.157,2.157" transform="translate(-297.97 -583.674)" fill="#dbcac2"/>
          <path id="패스_8653" data-name="패스 8653" d="M358.891,704.378A2.379,2.379,0,1,1,361.27,702a2.382,2.382,0,0,1-2.379,2.379m0-4.314A1.935,1.935,0,1,0,360.826,702a1.937,1.937,0,0,0-1.934-1.935" transform="translate(-296.863 -582.568)" fill="#312113"/>
          <path id="패스_8654" data-name="패스 8654" d="M277.757,812.841H231V795.812h46.758Zm-46.313-.445h45.868v-16.14H231.444Z" transform="translate(-192.35 -662.666)" fill="#312113"/>
          <g id="그룹_5428" data-name="그룹 5428" transform="translate(57.918 139.224)" style="mix-blend-mode: multiply;isolation: isolate">
            <g id="그룹_5427" data-name="그룹 5427">
              <g id="그룹_5426" data-name="그룹 5426" clip-path="url(#clip-path-4)">
                <path id="패스_8655" data-name="패스 8655" d="M352.361,835.231a3.093,3.093,0,1,1-3.093-3.094,3.093,3.093,0,0,1,3.093,3.094" transform="translate(-346.174 -832.137)" fill="#dbcac2"/>
              </g>
            </g>
          </g>
          <path id="패스_8656" data-name="패스 8656" d="M362.155,835.971A2.157,2.157,0,1,1,360,833.814a2.157,2.157,0,0,1,2.157,2.157" transform="translate(-297.97 -694.31)" fill="#dbcac2"/>
          <path id="패스_8657" data-name="패스 8657" d="M358.891,837.244a2.379,2.379,0,1,1,2.379-2.379,2.382,2.382,0,0,1-2.379,2.379m0-4.314a1.935,1.935,0,1,0,1.934,1.935,1.937,1.937,0,0,0-1.934-1.935" transform="translate(-296.863 -693.204)" fill="#312113"/>
          <path id="패스_8658" data-name="패스 8658" d="M277.757,945.707H231V928.678h46.758Zm-46.313-.445h45.868v-16.14H231.444Z" transform="translate(-192.35 -773.302)" fill="#312113"/>
          <g id="그룹_5431" data-name="그룹 5431" transform="translate(57.918 161.453)" style="mix-blend-mode: multiply;isolation: isolate">
            <g id="그룹_5430" data-name="그룹 5430">
              <g id="그룹_5429" data-name="그룹 5429" clip-path="url(#clip-path-4)">
                <path id="패스_8659" data-name="패스 8659" d="M352.361,968.1A3.093,3.093,0,1,1,349.268,965a3.093,3.093,0,0,1,3.093,3.094" transform="translate(-346.174 -965.003)" fill="#dbcac2"/>
              </g>
            </g>
          </g>
          <path id="패스_8660" data-name="패스 8660" d="M362.155,968.836A2.157,2.157,0,1,1,360,966.679a2.157,2.157,0,0,1,2.157,2.157" transform="translate(-297.97 -804.946)" fill="#dbcac2"/>
          <path id="패스_8661" data-name="패스 8661" d="M358.891,970.109a2.379,2.379,0,1,1,2.379-2.379,2.382,2.382,0,0,1-2.379,2.379m0-4.314a1.935,1.935,0,1,0,1.934,1.935,1.937,1.937,0,0,0-1.934-1.935" transform="translate(-296.863 -803.84)" fill="#312113"/>
        </g>
        <g id="con">
          <path id="패스_8662" data-name="패스 8662" d="M360.773,574.63a.178.178,0,0,0,.179.179h30.762a.357.357,0,0,0,.357-.357v-.859h-31.3Z" transform="translate(-300.411 -477.626)" fill="#dbcac2"/>
          <path id="패스_8663" data-name="패스 8663" d="M523.819,570.834v.362h1.1v-.482h-.979a.119.119,0,0,0-.119.119" transform="translate(-436.178 -475.229)" fill="#dbcac2"/>
          <path id="패스_8664" data-name="패스 8664" d="M516.2,570.834v.362h1.1v-.482h-.978a.12.12,0,0,0-.12.119" transform="translate(-429.834 -475.229)" fill="#dbcac2"/>
          <path id="패스_8665" data-name="패스 8665" d="M508.586,570.834v.362h1.1v-.482h-.978a.12.12,0,0,0-.12.119" transform="translate(-423.494 -475.229)" fill="#dbcac2"/>
          <path id="패스_8666" data-name="패스 8666" d="M476.857,570.834v.362h1.1v-.482h-.979a.12.12,0,0,0-.12.119" transform="translate(-397.073 -475.229)" fill="#dbcac2"/>
          <path id="패스_8667" data-name="패스 8667" d="M469.24,570.834v.362h1.1v-.482h-.978a.12.12,0,0,0-.12.119" transform="translate(-390.731 -475.229)" fill="#dbcac2"/>
          <path id="패스_8668" data-name="패스 8668" d="M379.852,570.834v.362h1.1v-.482h-.979a.12.12,0,0,0-.12.119" transform="translate(-316.298 -475.229)" fill="#dbcac2"/>
          <path id="패스_8669" data-name="패스 8669" d="M372.238,570.834v.362h1.1v-.482h-.978a.119.119,0,0,0-.12.119" transform="translate(-309.958 -475.229)" fill="#dbcac2"/>
          <path id="패스_8670" data-name="패스 8670" d="M484.7,570.834v.362h3.775v-.482h-3.656a.119.119,0,0,0-.12.119" transform="translate(-403.606 -475.229)" fill="#dbcac2"/>
          <path id="패스_8671" data-name="패스 8671" d="M347.516,570.834v.362h3.776v-.482h-3.656a.119.119,0,0,0-.12.119" transform="translate(-289.372 -475.229)" fill="#dbcac2"/>
          <path id="패스_8672" data-name="패스 8672" d="M388.18,570.834v.362h13.111v-.482H388.3a.12.12,0,0,0-.12.119" transform="translate(-323.233 -475.229)" fill="#dbcac2"/>
          <rect id="사각형_4110" data-name="사각형 4110" width="3.052" height="0.482" transform="translate(55.51 95.485)" fill="url(#linear-gradient)"/>
          <rect id="사각형_4111" data-name="사각형 4111" width="3.053" height="0.482" transform="translate(51.833 95.485)" fill="url(#linear-gradient-2)"/>
          <rect id="사각형_4112" data-name="사각형 4112" width="3.053" height="0.482" transform="translate(48.155 95.485)" fill="url(#linear-gradient-3)"/>
          <rect id="사각형_4113" data-name="사각형 4113" width="3.053" height="0.482" transform="translate(44.478 95.485)" fill="url(#linear-gradient-4)"/>
          <rect id="사각형_4114" data-name="사각형 4114" width="1.784" height="0.482" transform="translate(41.417 95.485)" fill="url(#linear-gradient-5)"/>
          <rect id="사각형_4115" data-name="사각형 4115" width="1.785" height="0.482" transform="translate(39.248 95.485)" fill="url(#linear-gradient-6)"/>
          <rect id="사각형_4116" data-name="사각형 4116" width="1.785" height="0.482" transform="translate(37.207 95.485)" fill="url(#linear-gradient-7)"/>
          <path id="패스_8680" data-name="패스 8680" d="M365.142,427.727a2.3,2.3,0,0,0-2.18-1.716l7.091,25.761a1.4,1.4,0,0,0,.881-1.716c-.264-1.1-4.426-17.082-5.792-22.33" transform="translate(-302.234 -354.736)" fill="#dbcac2"/>
          <path id="패스_8681" data-name="패스 8681" d="M196.79,424.638H164.025a.7.7,0,0,0-.681.876l6.031,23.823h34.469l-6.09-23.948a1,1,0,0,0-.964-.75" transform="translate(-135.997 -353.593)" fill="#fff"/>
          <path id="패스_8682" data-name="패스 8682" d="M164.68,442.864l-4.322-17.072a.925.925,0,0,1,.9-1.152h26.988v.445H161.254a.48.48,0,0,0-.466.6l4.322,17.071Z" transform="translate(-133.504 -353.594)" fill="#312113"/>
          <path id="패스_8683" data-name="패스 8683" d="M198.592,573.487a.178.178,0,0,0,.178.179h33.808a.357.357,0,0,0,.357-.357V572.22H198.592Z" transform="translate(-165.364 -476.483)" fill="#fff"/>
          <rect id="사각형_4117" data-name="사각형 4117" width="28.106" height="0.445" transform="translate(33.227 95.745)" fill="#312113"/>
          <path id="패스_8684" data-name="패스 8684" d="M405.693,481.745H381.431l-4.758-18.611.431-.11,4.673,18.277h23.916Z" transform="translate(-313.651 -385.556)" fill="#312113"/>
        </g>
      </g>
    </g>
  </g>
</svg>
