<svg id="구성_요소_204_1" data-name="구성 요소 204 – 1" xmlns="http://www.w3.org/2000/svg" xmlns:xlink="http://www.w3.org/1999/xlink" width="227.86" height="213.922" viewBox="0 0 227.86 213.922">
  <defs>
    <clipPath id="clip-path">
      <rect id="사각형_4082" data-name="사각형 4082" width="12.6" height="42.252" fill="none"/>
    </clipPath>
    <clipPath id="clip-path-2">
      <rect id="사각형_4083" data-name="사각형 4083" width="12.593" height="42.252" fill="none"/>
    </clipPath>
    <clipPath id="clip-path-3">
      <rect id="사각형_4084" data-name="사각형 4084" width="18.08" height="60.631" fill="none"/>
    </clipPath>
    <clipPath id="clip-path-4">
      <rect id="사각형_4085" data-name="사각형 4085" width="18.071" height="60.631" fill="none"/>
    </clipPath>
  </defs>
  <g id="그룹_5464" data-name="그룹 5464" transform="translate(-26.071 -38.91)">
    <path id="패스_8696" data-name="패스 8696" d="M788.473,798.5c-18.275,5.065-52.795,40.366-31.391,56.923s85.338-71.876,31.391-56.923" transform="translate(-582.906 -607.798)" fill="#eef8f6"/>
    <path id="패스_8368" data-name="패스 8368" d="M184.437,146.442c-77.469,15.789-54.227,56.1-105.915,65.591C8.783,224.843-23.921,120.262,19.8,55.719,54.739,4.143,115.012-12.15,168.415,9.03c75.429,29.92,77.17,124.95,16.022,137.413" transform="translate(26.071 38.908)" fill="#eef8f6"/>
  </g>
  <g id="그룹_5405" data-name="그룹 5405" transform="translate(0 -0.001)">
    <g id="그룹_5457" data-name="그룹 5457">
      <path id="패스_8259" data-name="패스 8259" d="M205.711,993.68l9.638,1.358,4.2-12.166-12.071-1.7Z" transform="translate(-166.963 -796.356)" fill="#fff"/>
      <path id="패스_8260" data-name="패스 8260" d="M206.65,980.3l-.927,6.58-.382,2.716-.493,3.5,6.762.951.4.056,2.736.386,1.1-3.193,1.464-4.248,1.725-5Zm5.477,13.53-.4-.06-6.551-.92.453-3.2.384-2.726.889-6.29,11.751,1.656-1.656,4.8-1.418,4.116-1.025,2.966Z" transform="translate(-166.262 -795.646)" fill="#34234d"/>
      <path id="패스_8261" data-name="패스 8261" d="M207.519,1031.661a4.763,4.763,0,0,0-5.177.032c-3.086,1.675-3.573-.639-4.149-1.182a3.449,3.449,0,0,0-2.661-1s-2.653,11.258-1.767,19.852l29.794-.23s.9-3-1.685-4.364-13.189-3.975-14.709-6.882.353-6.23.353-6.23" transform="translate(-157.12 -835.589)" fill="#34234d"/>
      <path id="패스_8262" data-name="패스 8262" d="M202.615,1091.224a7.453,7.453,0,0,0-4.629-7.118l.128-.373a7.848,7.848,0,0,1,4.9,7.488Z" transform="translate(-160.693 -879.599)" fill="#fff"/>
      <path id="패스_8263" data-name="패스 8263" d="M193.437,1119.473c-.023,1.073.171,2.012.207,2.725l29.794-.23a4.488,4.488,0,0,0-.141-2.725Z" transform="translate(-157 -908.42)" fill="#fff"/>
      <path id="패스_8264" data-name="패스 8264" d="M222.811,1118.55l-.036-.089h-.165l-23.955.188h-.393l-5.355.045h-.232v.143a12.693,12.693,0,0,0,.125,1.887c.036.3.067.6.081.846l.008.138,30.039-.232.032-.1a4.6,4.6,0,0,0-.148-2.823m-29.65,2.868c-.018-.223-.045-.469-.076-.725a13.854,13.854,0,0,1-.125-1.709l5.323-.04.394,0,23.9-.184a4.309,4.309,0,0,1,.125,2.434Z" transform="translate(-156.379 -907.785)" fill="#34234d"/>
      <path id="패스_8265" data-name="패스 8265" d="M243.627,1054.532l-.045-.008c-.275-.049-6.748-1.233-7.444-4.085-.69-2.824,1.551-6.033,1.645-6.153l.31.244c-.022.028-2.214,3.188-1.572,5.816.607,2.489,6.515,3.673,7.086,3.781l3.443-.974.107.38Z" transform="translate(-191.552 -847.583)" fill="#fff"/>
      <rect id="사각형_4075" data-name="사각형 4075" width="3.287" height="0.394" transform="translate(48.809 204.826) rotate(-19.387)" fill="#fff"/>
      <rect id="사각형_4076" data-name="사각형 4076" width="3.288" height="0.394" transform="matrix(0.943, -0.332, 0.332, 0.943, 46.232, 202.973)" fill="#fff"/>
      <path id="패스_8266" data-name="패스 8266" d="M175.9,649.927a55.33,55.33,0,0,0,5.5.861,1.39,1.39,0,0,0,.146.019,1.276,1.276,0,0,1,.14.019,48.856,48.856,0,0,0,10.987.024c.053-.01.106-.014.16-.019s.106-.02.159-.024a20.377,20.377,0,0,0,7.988-2.632s3.769-15.414,7.789-32.071h0c1.437-5.961,2.908-12.076,4.253-17.7,1-4.195,1.931-8.113,2.724-11.5.049-.2.1-.406.14-.61,1.031-4.427,1.814-7.862,2.187-9.676,2.4-11.621-19.425-14.272-22.386-10.039-1.258,1.8-4.064,12.584-7.18,25.836-.445,1.9-.9,3.846-1.355,5.82-5.438,23.615-11.253,51.69-11.253,51.69" transform="translate(-142.769 -458.32)" fill="#65efe5"/>
      <path id="패스_8267" data-name="패스 8267" d="M237.932,620.723s8.955,12.947,23.832,14.4c.039,0-1.786-1.645-1.753-1.641,1-4.195-3.86-13.5-3.067-16.878.048-.2.1-.406.14-.609-1.268-.595-2.158-1-2.24-1.021-.3-.063-5.3-.121-5.3-.121l-8.249.909-5.927.841Z" transform="translate(-191.036 -499.041)" fill="#34234d"/>
      <path id="패스_8268" data-name="패스 8268" d="M178.978,607.133c4.753,3.166,21.812,26.179,33.489,26.346,6.267.089,14.038-6.377,9.453-14.982-3-5.634-12.709-17.406-23.74-30.854-5.725-6.98-23.175-4.061-24.629,5.087-.493,3.107,1.293,11.65,5.427,14.4" transform="translate(-140.795 -473.812)" fill="#65efe5"/>
      <path id="패스_8269" data-name="패스 8269" d="M355.98,996.306l9.709-.686,1.561-12.774-12.16.859Z" transform="translate(-288.205 -797.715)" fill="#fff"/>
      <path id="패스_8270" data-name="패스 8270" d="M365.151,995.078l-9.973.7-.911-12.89,12.481-.882Zm-9.7.4,9.445-.668,1.526-12.481-11.84.837Z" transform="translate(-287.537 -797.037)" fill="#34234d"/>
      <path id="패스_8271" data-name="패스 8271" d="M359.434,1033.588a4.764,4.764,0,0,0-5.056,1.113c-2.667,2.282-3.628.122-4.3-.289a3.448,3.448,0,0,0-2.811-.417s-2.318,9.562-1.431,18.156l29.794-.23s.9-3-1.685-4.364-13.9-4.539-15.416-7.445.908-6.524.908-6.524" transform="translate(-280.526 -838.656)" fill="#34234d"/>
      <path id="패스_8272" data-name="패스 8272" d="M352.871,1088.937a7.948,7.948,0,0,0-5.07-7.3l.128-.373a8.345,8.345,0,0,1,5.336,7.671Z" transform="translate(-282.289 -877.594)" fill="#fff"/>
      <path id="패스_8273" data-name="패스 8273" d="M345.591,1117.972c-.022,1.073.172,2.012.208,2.724l29.794-.23a4.489,4.489,0,0,0-.141-2.725Z" transform="translate(-280.494 -907.201)" fill="#fff"/>
      <path id="패스_8274" data-name="패스 8274" d="M345.036,1120.214l-.007-.139c-.013-.252-.046-.54-.083-.846a13.359,13.359,0,0,1-.125-1.889l0-.141,30.1-.232.038.089a4.588,4.588,0,0,1,.146,2.823l-.031.1Zm.073-2.727a14.012,14.012,0,0,0,.125,1.709c.03.256.059.5.075.726l29.545-.228a4.382,4.382,0,0,0-.125-2.435Z" transform="translate(-279.868 -906.574)" fill="#34234d"/>
      <path id="패스_8275" data-name="패스 8275" d="M395.8,1053.032l-.045-.008c-.275-.049-6.747-1.233-7.444-4.085-.69-2.823,1.651-6.016,1.718-6.152l.354.173c-.016.032-2.331,3.258-1.689,5.885.608,2.49,6.515,3.673,7.086,3.782l3.443-.974.107.38Z" transform="translate(-315.065 -846.365)" fill="#fff"/>
      <rect id="사각형_4077" data-name="사각형 4077" width="3.287" height="0.395" transform="translate(77.469 204.544) rotate(-19.421)" fill="#fff"/>
      <rect id="사각형_4078" data-name="사각형 4078" width="3.288" height="0.394" transform="translate(74.892 202.691) rotate(-19.387)" fill="#fff"/>
      <path id="패스_8276" data-name="패스 8276" d="M345.739,783.2a213.207,213.207,0,0,1,3.463,22.575c.734,7.4,1.95,17.9,1.95,17.9s-14.921,5.288-26.6-1.65c0,0,.015-22.945-.405-29.665s19.346-18.918,21.6-9.163" transform="translate(-263.08 -632.723)" fill="#65efe5"/>
      <path id="패스_8277" data-name="패스 8277" d="M404.667,414.273c-1.822,2.159-1.146,11.472,3.015,15.843s16.66,12.063,25.914,16.25c0,0,14.44-4.831,7.907-20.252,0,0-17.236-11.02-22.564-13.063s-12.262-1.159-14.272,1.222" transform="translate(-327.669 -334.322)" fill="#fff"/>
      <path id="패스_8278" data-name="패스 8278" d="M432.655,445.745l-.066-.03c-9.619-4.351-22-12.116-25.971-16.29-4.137-4.347-5.03-13.709-3.022-16.089,1.971-2.336,8.869-3.426,14.478-1.275,5.285,2.026,22.425,12.97,22.6,13.08l.048.031.022.052c2.055,4.851,2.261,9.165.613,12.82-2.515,5.577-8.57,7.657-8.631,7.678Zm-28.919-32.29.141.118c-1.7,2.018-1.171,11.208,3.007,15.6,3.938,4.137,16.214,11.836,25.79,16.178.662-.241,6.042-2.342,8.347-7.459,1.6-3.544,1.4-7.739-.6-12.469-1.014-.647-17.37-11.056-22.482-13.016-5.323-2.04-12.182-1.062-14.065,1.169Z" transform="translate(-326.739 -333.504)" fill="#34234d"/>
      <path id="패스_8279" data-name="패스 8279" d="M555.866,486.282s-5.574-2.33-9.632,7.539.675,12.114,1.725,12.713,15.5-5.954,7.907-20.252" transform="translate(-442.033 -394.49)" fill="#34234d"/>
      <path id="패스_8280" data-name="패스 8280" d="M234.644,398.586c-2.284,8.239-18.669,28.285-19.9,35.725a33.58,33.58,0,0,1-9.469-5.959c-10.98-9.989-24.034,3.828-30.236-5.953,9.49-26.591,26.094-47.29,36.962-47.316,11.056-.027,26.791,8.541,22.645,23.5" transform="translate(-142.066 -304.432)" fill="#fff"/>
      <path id="패스_8281" data-name="패스 8281" d="M214.009,433.77l-.21-.08a34.087,34.087,0,0,1-9.527-5.995c-5.552-5.052-11.705-3.93-17.135-2.94-5.163.941-10.039,1.83-13.133-3.05l-.048-.076.03-.085c9.326-26.13,25.984-47.411,37.135-47.438h.048c6.286,0,15.263,2.927,20.175,9.37a15.877,15.877,0,0,1,2.6,14.366c-1.1,3.983-5.538,10.795-9.827,17.382-4.639,7.126-9.436,14.494-10.071,18.324Zm-19.766-10.237a14.51,14.51,0,0,1,10.277,3.889,33.917,33.917,0,0,0,9.2,5.84c.788-3.96,5.512-11.217,10.084-18.239,4.273-6.564,8.692-13.351,9.781-17.28a15.523,15.523,0,0,0-2.538-14.044c-4.836-6.343-13.685-9.225-19.882-9.225h-.048c-11,.026-27.475,21.151-36.759,47.108,2.963,4.586,7.483,3.762,12.708,2.81a40.115,40.115,0,0,1,7.172-.859" transform="translate(-141.189 -303.639)" fill="#34234d"/>
      <path id="패스_8282" data-name="패스 8282" d="M338.472,580.65c-.086,0-8.7.151-11.794-7.056l.362-.156c2.991,6.964,11.338,6.82,11.422,6.819Z" transform="translate(-265.145 -465.424)" fill="#34234d"/>
      <path id="패스_8283" data-name="패스 8283" d="M431.194,362.744l-6.108,7.565s-7.422-3.268-5.762-8.135l4.261-5.1Z" transform="translate(-340.143 -289.812)" fill="#fff"/>
      <path id="패스_8284" data-name="패스 8284" d="M424.515,369.633l-.1-.045c-.075-.033-7.524-3.379-5.841-8.315l.026-.046,4.349-5.208,7.84,5.846Zm-5.677-8.241c-1.461,4.369,4.721,7.472,5.591,7.884l5.942-7.359-7.378-5.5Z" transform="translate(-339.528 -288.958)" fill="#34234d"/>
      <path id="패스_8285" data-name="패스 8285" d="M451.7,377.048l-1.978,2.372c-5.338-2.484-3.012-7.044-3-7.024,4.786,4.434,4.973,4.652,4.973,4.652" transform="translate(-362.161 -302.25)" fill="#34234d"/>
      <path id="패스_8286" data-name="패스 8286" d="M448.714,328.453c-2.581-.565-6.551-5.085-7.1-7.671a8.495,8.495,0,0,1,.994-4.137c1.788-3.161,3.3-6.053,6.125-6.425a14.9,14.9,0,0,1,5.133.651c3.213,1.416,2.777,4.748,2.071,8.185-.791,3.856-2.676,10.393-7.227,9.4" transform="translate(-358.405 -251.758)" fill="#fff"/>
      <path id="패스_8287" data-name="패스 8287" d="M447.663,327.858c-2.681-.914-6.3-5.226-6.817-7.673a8.586,8.586,0,0,1,1.011-4.238l.235-.416c1.729-3.067,3.222-5.716,6-6.081a14.868,14.868,0,0,1,5.21.662c3.277,1.444,2.89,4.772,2.155,8.347-.967,4.712-2.425,7.731-4.334,8.972a3.9,3.9,0,0,1-3.066.537,3.6,3.6,0,0,1-.391-.11m5.3-17.564a15.385,15.385,0,0,0-4.838-.556c-2.631.346-4.091,2.936-5.782,5.936l-.235.416a8.308,8.308,0,0,0-.979,4.036c.514,2.438,4.418,6.994,6.986,7.559a3.622,3.622,0,0,0,2.846-.5c1.842-1.2,3.258-4.154,4.208-8.787.71-3.454,1.091-6.666-1.988-8.023q-.1-.042-.218-.083" transform="translate(-357.775 -251.131)" fill="#34234d"/>
      <path id="패스_8288" data-name="패스 8288" d="M448.509,297.43c-.352-3.614-1.587-.365-3.744-2.131-2.341-1.916-5.382-1.774-6.014.361-1.215,4.111-2.567,3.154-2.567,3.154l-3.656,4.247a16.023,16.023,0,0,1,.272-10.513c1.45-4.253,6.288-3.305,10.341-3.944,4.791-.756,9,3.947,5.368,8.827" transform="translate(-350.465 -234.176)" fill="#34234d"/>
      <path id="패스_8289" data-name="패스 8289" d="M495.336,354.6l-.022-.394c.557-.032,1.408-.193,1.558-.451.018-.031.03-.071-.009-.148a4.677,4.677,0,0,1-.019-3.626l.019-.044.037-.03a2.262,2.262,0,0,1,2.515-.1l-.2.34a1.832,1.832,0,0,0-2.027.036,4.314,4.314,0,0,0,.03,3.247.526.526,0,0,1,0,.522c-.309.531-1.617.631-1.877.646" transform="translate(-402.016 -283.645)" fill="#34234d"/>
      <path id="패스_8290" data-name="패스 8290" d="M435.774,335.463a2.469,2.469,0,1,1-1.9-2.927,2.469,2.469,0,0,1,1.9,2.927" transform="translate(-349.726 -269.855)" fill="#fff"/>
      <path id="패스_8291" data-name="패스 8291" d="M431.883,336.8a2.622,2.622,0,1,1,.308.085,2.657,2.657,0,0,1-.308-.085m1.6-4.672a2.348,2.348,0,0,0-.273-.075,2.321,2.321,0,1,0,.273.075" transform="translate(-349.1 -269.228)" fill="#34234d"/>
      <path id="패스_8292" data-name="패스 8292" d="M437.059,339.735a1.456,1.456,0,0,1-.66-.608l.341-.2c.058.1.266.393.472.44a.216.216,0,0,0,.18-.035c.1-.067.107-.089.054-.3a.994.994,0,0,1,.177-.973,1.945,1.945,0,0,1,.711-.521c.338-.169.39-.195.245-.494-.288-.6-1.671-.161-1.686-.157l-.124-.374c.07-.023,1.72-.559,2.165.36.313.65-.113.863-.425,1.018a1.594,1.594,0,0,0-.578.414.607.607,0,0,0-.1.631.579.579,0,0,1-.222.726.613.613,0,0,1-.487.087c-.021,0-.042-.011-.062-.018" transform="translate(-354.198 -272.986)" fill="#34234d"/>
      <path id="패스_8293" data-name="패스 8293" d="M480.739,376.686a5.572,5.572,0,0,1-3.9-1.716s-1.481,2.176-.274,2.995,4.177-1.279,4.177-1.279" transform="translate(-386.413 -304.339)" fill="#34234d"/>
      <path id="패스_8294" data-name="패스 8294" d="M481.7,344.77l-.1-.38c2.6-.713,3.064.561,3.082.615l-.374.127.187-.064-.186.067c0-.01-.4-.972-2.6-.365" transform="translate(-390.88 -279.344)" fill="#34234d"/>
      <path id="패스_8295" data-name="패스 8295" d="M485.75,350.664a.64.64,0,1,0,.758-.494.64.64,0,0,0-.758.494" transform="translate(-394.242 -284.2)" fill="#34234d"/>
      <path id="패스_8296" data-name="패스 8296" d="M506.758,357.182a.866.866,0,0,0-1.185-.205l-.271-.4a1.338,1.338,0,0,1,1.835.306Z" transform="translate(-410.123 -289.211)" fill="#34234d"/>
      <path id="패스_8297" data-name="패스 8297" d="M581.954,380.446c-.17.252-2.053,4.779-2.238,4.968-.01.432-.018.735-.025.753.047,5.056-.617,26.225-5.112,30.113-9.371,8.1-15.638-6.125-12.727-10.743,1.548-2.457,8.423-11.1,12.328-19.92l-.049-.025a16.648,16.648,0,0,1-4.322-4.428c-.588-1.138,1.187-1.821,1.524-2.5Z" transform="translate(-455.437 -307.333)" fill="#fff"/>
      <path id="패스_8298" data-name="패스 8298" d="M568.509,418.286a6.443,6.443,0,0,1-4.189-1.647c-3.31-2.846-4.91-8.87-3.113-11.721.352-.56.983-1.443,1.782-2.562,2.8-3.922,7.477-10.472,10.493-17.244a17.014,17.014,0,0,1-4.323-4.452c-.436-.844.3-1.458.882-1.951a2.615,2.615,0,0,0,.641-.658l.038-.078,10.884,1.831-.1.15c-.068.1-.492,1.079-.9,2.024-.794,1.831-1.179,2.7-1.317,2.917-.012.52-.018.669-.024.722.049,5.409-.681,26.326-5.153,30.193a8.621,8.621,0,0,1-5.6,2.475m2.339-40.055a3.247,3.247,0,0,1-.657.657c-.578.485-1.175.987-.825,1.666a16.432,16.432,0,0,0,4.271,4.378l.147.074-.045.1c-3.024,6.828-7.742,13.436-10.561,17.384-.8,1.115-1.426,2-1.775,2.551-1.744,2.768-.167,8.638,3.069,11.42,2.757,2.371,6.125,2.077,9.484-.827,4.406-3.811,5.122-24.651,5.072-30.023v-.022l.008-.02s0-.109.018-.715v-.046l.032-.033c.105-.128.8-1.724,1.3-2.89.413-.952.7-1.616.842-1.909Z" transform="translate(-454.89 -306.778)" fill="#34234d"/>
      <path id="패스_8299" data-name="패스 8299" d="M599.7,386.253s-.3,1.964-3.236-1.223a7.8,7.8,0,0,0-2.977-2.42c-1.149-.474.481-1.923,3.051-.358s3.189,1.607,3.162,4" transform="translate(-481.396 -309.675)" fill="#fff"/>
      <path id="패스_8300" data-name="패스 8300" d="M598.384,386.342c-.638,0-1.538-.627-2.681-1.87a7.7,7.7,0,0,0-2.924-2.382c-.382-.158-.456-.394-.466-.521a.661.661,0,0,1,.372-.592c.57-.351,1.771-.435,3.283.485.3.185.581.349.832.5,1.865,1.1,2.427,1.437,2.4,3.634l0,.022a.888.888,0,0,1-.57.691.845.845,0,0,1-.247.035m-4.676-5.305a1.687,1.687,0,0,0-.864.2c-.151.093-.237.209-.229.309s.11.195.28.265a8.01,8.01,0,0,1,3.031,2.458c1.59,1.729,2.32,1.84,2.617,1.75a.577.577,0,0,0,.356-.439c.021-2.011-.373-2.244-2.254-3.357-.252-.149-.53-.314-.835-.5a4.1,4.1,0,0,0-2.1-.684" transform="translate(-480.743 -309.015)" fill="#34234d"/>
      <path id="패스_8301" data-name="패스 8301" d="M611.128,385.95a1.318,1.318,0,0,1,.163.278.754.754,0,0,1,.064.3.572.572,0,0,1-.085.3l-.019.035c-.007.011-.016.021-.024.032l-.049.064c-.034.041-.076.077-.112.118.044-.031.09-.063.132-.1a.719.719,0,0,0,.109-.126.506.506,0,0,0,.044-.072l.033-.079a.614.614,0,0,0,.027-.168.693.693,0,0,0-.081-.325.87.87,0,0,0-.2-.259" transform="translate(-495.965 -313.251)" fill="#34234d"/>
      <path id="패스_8302" data-name="패스 8302" d="M619.534,401.119,618.04,400l1.324-1.341,1.165.549.467,1.428Z" transform="translate(-501.625 -323.568)" fill="#fff"/>
      <path id="패스_8303" data-name="패스 8303" d="M243.472,779.777l-.41-31.574-18.519-18.538.342-.342L243.543,748v.1l.411,31.672Z" transform="translate(-182.248 -591.946)" fill="#34234d"/>
      <path id="패스_8304" data-name="패스 8304" d="M214.506,376.64s6.405,5.695-3.009,20.959c0,0-13.577-.364-18.025-9.731,0,0-16.4,18.947-20.035,37.965l16.26,5.99,23.747,3.74s2.941-7.185,5.816-10.782,10.056-16.714,10.056-16.714-1.779-2.036-3.069-2.271c0,0,6.442-11.463,3.947-20.887l-1.356-1.44a25.158,25.158,0,0,1-.736,9.958s-6.834-1.413-9.132-3.892a17.292,17.292,0,0,0-1.25-12.194,6.906,6.906,0,0,0-3.214-.7" transform="translate(-140.768 -305.684)" fill="#65efe5"/>
      <path id="패스_8305" data-name="패스 8305" d="M470.517,508.9l-.467-.128c.016-.059,1.6-5.869,1.952-8.34l.479.068c-.357,2.5-1.948,8.341-1.964,8.4" transform="translate(-381.511 -406.171)" fill="#34234d"/>
      <path id="패스_8306" data-name="패스 8306" d="M454.1,286.58s3.451-8.634-6.979-11.768c-7.679-2.308-10.671,6.536-10.671,6.536s16.518,5.818,17.651,5.232" transform="translate(-354.237 -222.736)" fill="#ff5168" fill-rule="evenodd"/>
      <path id="패스_8307" data-name="패스 8307" d="M436.447,305.6s12.477,5.391,17.651,5.232l.371-1.377s-11.869-1.788-17.53-5.148Z" transform="translate(-354.237 -246.984)" fill="#c23e4f" fill-rule="evenodd"/>
      <path id="패스_8308" data-name="패스 8308" d="M494.132,285.474a10.075,10.075,0,0,0-1.8-7.92,8.4,8.4,0,0,0-5.84-2.6s4.667,6.714,4.209,9.863Z" transform="translate(-394.855 -223.163)" fill="#c23e4f" fill-rule="evenodd"/>
      <path id="패스_8309" data-name="패스 8309" d="M481.933,327.411s4.149,2.385,3.383,2.822c-2.005,1.143-9.887-2.335-14.574-5.5,0,0,9.018,2.532,11.191,2.676" transform="translate(-382.072 -263.567)" fill="#ff5168" fill-rule="evenodd"/>
      <path id="패스_8332" data-name="패스 8332" d="M605.065,538.308a3.611,3.611,0,1,1,4.86-1.568,3.611,3.611,0,0,1-4.86,1.568" transform="translate(-489.499 -431.371)" fill="#34234d"/>
      <path id="패스_8333" data-name="패스 8333" d="M720.4,1121.429a3.6,3.6,0,0,0-6.767,0Z" transform="translate(-579.21 -908.281)" fill="#34234d"/>
      <path id="패스_8334" data-name="패스 8334" d="M611.081,1121.195a3.607,3.607,0,0,0-6.6-.393,3.488,3.488,0,0,0-.17.393Z" transform="translate(-490.485 -908.09)" fill="#34234d"/>
      <path id="패스_8335" data-name="패스 8335" d="M499.793,1121.195a3.607,3.607,0,0,0-6.6-.393,3.652,3.652,0,0,0-.17.393Z" transform="translate(-400.159 -908.09)" fill="#34234d"/>
      <path id="패스_8336" data-name="패스 8336" d="M509.968,669.3l19.383-106.436-.333-.095L509.608,669.3Z" transform="translate(-413.618 -456.767)" fill="#34234d"/>
      <path id="패스_8337" data-name="패스 8337" d="M648.45,669.3l-19.409-106.53-.333.095L648.09,669.3Z" transform="translate(-510.283 -456.767)" fill="#34234d"/>
      <path id="패스_8338" data-name="패스 8338" d="M654.555,706.267c-.753,0-1.445-.688-1.663-1.743l-11.834-74.216a2.628,2.628,0,0,1,1.19-2.969c.918-.361,1.875.376,2.137,1.652l11.834,74.216a2.627,2.627,0,0,1-1.189,2.969,1.291,1.291,0,0,1-.475.092" transform="translate(-520.253 -509.098)" fill="#34234d"/>
      <path id="패스_8339" data-name="패스 8339" d="M522.669,706.263a1.28,1.28,0,0,1-.475-.092A2.627,2.627,0,0,1,521,703.2l11.834-74.216c.262-1.276,1.221-2.016,2.138-1.652a2.629,2.629,0,0,1,1.189,2.969L524.331,704.52c-.217,1.056-.91,1.743-1.663,1.743" transform="translate(-422.813 -509.093)" fill="#34234d"/>
      <rect id="사각형_4079" data-name="사각형 4079" width="0.346" height="106.086" transform="translate(117.04 106.449)" fill="#34234d"/>
      <path id="패스_8340" data-name="패스 8340" d="M614.821,704.12c-.956,0-1.73-1.076-1.73-2.4v-76.4c0-1.327.774-2.4,1.73-2.4s1.729,1.075,1.729,2.4v76.4c0,1.326-.774,2.4-1.729,2.4" transform="translate(-497.608 -505.584)" fill="#34234d"/>
      <path id="패스_8341" data-name="패스 8341" d="M509.1,457.264a2.183,2.183,0,1,1-2.183-2.183,2.183,2.183,0,0,1,2.183,2.183" transform="translate(-409.665 -369.361)" fill="#34234d"/>
      <path id="패스_8342" data-name="패스 8342" d="M723.894,457.264a2.183,2.183,0,1,1-2.183-2.183,2.183,2.183,0,0,1,2.183,2.183" transform="translate(-583.997 -369.361)" fill="#34234d"/>
      <rect id="사각형_4080" data-name="사각형 4080" width="38.414" height="1.613" transform="translate(98.125 87.096)" fill="#34234d"/>
      <rect id="사각형_4081" data-name="사각형 4081" width="27.819" height="5.373" transform="translate(103.545 69.331)" fill="#ff5168"/>
      <path id="패스_8343" data-name="패스 8343" d="M586.3,449.27H568.8a1.532,1.532,0,0,1-1.532-1.532V440.8a1.532,1.532,0,0,1,1.532-1.532h17.5a1.532,1.532,0,0,1,1.532,1.532v6.935a1.532,1.532,0,0,1-1.532,1.532" transform="translate(-460.416 -356.529)" fill="#34234d"/>
      <path id="패스_8344" data-name="패스 8344" d="M588.629,396.015c0,.223-.01.445-.024.668a1.544,1.544,0,0,0-1.268-.668H569.843a1.543,1.543,0,0,0-1.268.668c-.015-.222-.024-.445-.024-.668a10.039,10.039,0,0,1,20.078,0" transform="translate(-461.458 -313.272)" fill="#ff5168"/>
      <path id="패스_8345" data-name="패스 8345" d="M541.035,363.368v5.5a1.011,1.011,0,0,0,1.293.973c2.308-.691,2.97-2.1,2.97-3.724s-.662-3.033-2.971-3.72a1.011,1.011,0,0,0-1.291.974" transform="translate(-439.125 -294.099)" fill="#34234d"/>
      <path id="패스_8346" data-name="패스 8346" d="M682.646,363.368v5.5a1.011,1.011,0,0,1-1.293.973c-2.308-.691-2.969-2.1-2.969-3.724s.662-3.033,2.971-3.72a1.011,1.011,0,0,1,1.292.974" transform="translate(-550.603 -294.099)" fill="#34234d"/>
      <path id="패스_8347" data-name="패스 8347" d="M612.043,400.176a2.963,2.963,0,1,1-2.963-2.963,2.963,2.963,0,0,1,2.963,2.963" transform="translate(-491.947 -322.393)" fill="#34234d"/>
      <path id="패스_8348" data-name="패스 8348" d="M612.885,356.747s-.768-1.655-2.5.075-.826,3.095-.047,2.941a1.823,1.823,0,0,0,1.76-1.459s.112,1.168,1.01,1.125a2,2,0,0,0,1.418-.771s-.115,1.058.3,1.249a1.916,1.916,0,0,0,2.034-1.19s.25,1.169,1.514.526.866-.878.866-.878l1.652.129a2.377,2.377,0,0,0-3.11-1.579s-.969-1.4-2.326.066c0,0-1.14-2.043-2.569-.234" transform="translate(-494.604 -288.942)" fill="#fff"/>
      <path id="패스_8349" data-name="패스 8349" d="M614.543,359.519a.819.819,0,0,1-.336-.062c-.325-.148-.391-.656-.4-1.015a2.026,2.026,0,0,1-1.265.549,1.088,1.088,0,0,1-1.054-.827A1.782,1.782,0,0,1,609.9,359.3l-.108.021a.906.906,0,0,1-.949-.514c-.145-.272-.509-1.267.878-2.649a2.089,2.089,0,0,1,1.752-.809,1.36,1.36,0,0,1,.863.6,1.545,1.545,0,0,1,1.282-.648,1.923,1.923,0,0,1,1.291.9,1.693,1.693,0,0,1,1.3-.587,1.577,1.577,0,0,1,1.052.585,2.508,2.508,0,0,1,3.185,1.694l.044.177-1.635-.127c-.025.246-.342.517-.995.848a1.28,1.28,0,0,1-1.145.12,1,1,0,0,1-.449-.452,2.183,2.183,0,0,1-1.732,1.061m-.4-1.911-.054.5c-.034.315-.023,1,.226,1.115a1.806,1.806,0,0,0,1.861-1.128l.164-.345.083.374a.88.88,0,0,0,.414.555,1.041,1.041,0,0,0,.911-.118c.783-.4.848-.6.853-.639l-.488-.288.57.036,1.455.113a2.239,2.239,0,0,0-2.893-1.3l-.087.021-.051-.074a1.371,1.371,0,0,0-.913-.545,1.559,1.559,0,0,0-1.209.626l-.122.133-.089-.157c0-.009-.488-.858-1.176-.912a1.439,1.439,0,0,0-1.176.7l-.131.167-.091-.193a1.192,1.192,0,0,0-.773-.624,1.87,1.87,0,0,0-1.519.736c-1,1-1.085,1.862-.831,2.339a.644.644,0,0,0,.666.38l.109-.021c.705-.136,1.131-.219,1.553-1.354l.2-.532.056.565c0,.042.108,1.008.833,1.008h.04a1.881,1.881,0,0,0,1.317-.717Z" transform="translate(-494.039 -288.373)" fill="#34234d"/>
      <path id="패스_8350" data-name="패스 8350" d="M636.772,363.122c.038-.142.085-.281.134-.417a4.308,4.308,0,0,1,.172-.4,3.065,3.065,0,0,1,.488-.719,1.67,1.67,0,0,0-.317.309,2.12,2.12,0,0,0-.236.377,2.341,2.341,0,0,0-.241.849" transform="translate(-516.829 -293.478)" fill="#fff"/>
      <path id="패스_8351" data-name="패스 8351" d="M636.335,362.707l-.258-.044a2.465,2.465,0,0,1,.253-.9,2.218,2.218,0,0,1,.252-.4,1.771,1.771,0,0,1,.34-.332l.18.191a2.985,2.985,0,0,0-.259.329,2.929,2.929,0,0,0-.209.36c-.06.121-.115.248-.168.389s-.093.266-.13.4" transform="translate(-516.264 -293.029)" fill="#34234d"/>
      <path id="패스_8352" data-name="패스 8352" d="M649.133,363.153c.038-.142.085-.28.135-.417a4.121,4.121,0,0,1,.172-.4,3.1,3.1,0,0,1,.217-.375,3.136,3.136,0,0,1,.271-.343,1.647,1.647,0,0,0-.317.309,2.114,2.114,0,0,0-.237.377,2.345,2.345,0,0,0-.241.849" transform="translate(-526.861 -293.502)" fill="#fff"/>
      <path id="패스_8353" data-name="패스 8353" d="M648.7,362.738l-.258-.044a2.465,2.465,0,0,1,.253-.9,2.29,2.29,0,0,1,.251-.4,1.812,1.812,0,0,1,.34-.332l.179.191a3.173,3.173,0,0,0-.26.329,2.969,2.969,0,0,0-.208.359,4.12,4.12,0,0,0-.168.389c-.048.132-.094.267-.13.4" transform="translate(-526.297 -293.054)" fill="#34234d"/>
      <path id="패스_8354" data-name="패스 8354" d="M623.752,361.619c.038-.142.085-.28.135-.417a4.138,4.138,0,0,1,.172-.4,3.142,3.142,0,0,1,.217-.375,3.207,3.207,0,0,1,.27-.344,1.693,1.693,0,0,0-.317.309,2.145,2.145,0,0,0-.236.377,2.351,2.351,0,0,0-.241.849" transform="translate(-506.261 -292.257)" fill="#fff"/>
      <path id="패스_8355" data-name="패스 8355" d="M623.314,361.206l-.258-.044a2.476,2.476,0,0,1,.253-.9,2.256,2.256,0,0,1,.251-.4,1.8,1.8,0,0,1,.34-.332l.179.19a2.951,2.951,0,0,0-.468.689,4.057,4.057,0,0,0-.168.389c-.048.132-.093.267-.13.405" transform="translate(-505.696 -291.811)" fill="#34234d"/>
      <path id="패스_8356" data-name="패스 8356" d="M980.206,939.754H1006l-2.075-7.129-2.563-8.8-2.385-8.211-2.564-8.8-2.568-8.827a.722.722,0,0,0-.444-.477.749.749,0,0,0-.6,0,.731.731,0,0,0-.433.477l-2.568,8.827-2.563,8.8-2.391,8.211-2.563,8.8Z" transform="translate(-795.573 -728.396)" fill="#ff5168"/>
      <path id="패스_8357" data-name="패스 8357" d="M1017.522,955.966h11.739l-2.564-8.8h-6.613Z" transform="translate(-825.86 -768.752)" fill="#fff"/>
      <path id="패스_8358" data-name="패스 8358" d="M991.219,1046.3h21.642l-2.563-8.8H993.782Z" transform="translate(-804.511 -842.07)" fill="#fff"/>
      <g id="그룹_5392" data-name="그룹 5392" transform="translate(197.825 169.106)" opacity="0.28">
        <g id="그룹_5391" data-name="그룹 5391">
          <g id="그룹_5390" data-name="그룹 5390" clip-path="url(#clip-path)">
            <path id="패스_8359" data-name="패스 8359" d="M1050.243,897.771l8.289,42.252h4.31l-2.075-7.129-2.563-8.8-2.385-8.211-2.564-8.8-2.568-8.827a.722.722,0,0,0-.444-.477" transform="translate(-1050.243 -897.771)" fill="#fff"/>
          </g>
        </g>
      </g>
      <g id="그룹_5395" data-name="그룹 5395" transform="translate(184.633 169.106)" opacity="0.15">
        <g id="그룹_5394" data-name="그룹 5394">
          <g id="그룹_5393" data-name="그룹 5393" clip-path="url(#clip-path-2)">
            <path id="패스_8360" data-name="패스 8360" d="M980.206,940.023h4.31l8.283-42.252a.731.731,0,0,0-.433.477l-2.568,8.827-2.563,8.8-2.391,8.211-2.563,8.8Z" transform="translate(-980.206 -897.771)" fill="#0c1540"/>
          </g>
        </g>
      </g>
      <path id="패스_8361" data-name="패스 8361" d="M956.44,1116.288h34.744v-2.98a.521.521,0,0,0-.522-.522h-33.7a.521.521,0,0,0-.521.522Z" transform="translate(-776.283 -903.18)" fill="#34234d"/>
      <path id="패스_8362" data-name="패스 8362" d="M852.755,856.4h-37.01l2.978-10.23,3.678-12.634,3.422-11.782,3.679-12.634,3.686-12.667a1.037,1.037,0,0,1,.638-.684,1.074,1.074,0,0,1,.859,0,1.05,1.05,0,0,1,.62.684l3.686,12.667,3.679,12.634,3.431,11.782,3.678,12.634Z" transform="translate(-662.09 -645.803)" fill="#ff5168"/>
      <path id="패스_8363" data-name="패스 8363" d="M886.1,879.666H869.249l3.679-12.634h9.489Z" transform="translate(-705.516 -703.716)" fill="#fff"/>
      <path id="패스_8364" data-name="패스 8364" d="M862.609,1009.292H831.554l3.678-12.634h23.7Z" transform="translate(-674.921 -808.926)" fill="#fff"/>
      <g id="그룹_5398" data-name="그룹 5398" transform="translate(153.655 149.965)" opacity="0.28">
        <g id="그룹_5397" data-name="그룹 5397">
          <g id="그룹_5396" data-name="그룹 5396" clip-path="url(#clip-path-3)">
            <path id="패스_8365" data-name="패스 8365" d="M833.825,796.155l-11.9,60.631h-6.185l2.978-10.23,3.678-12.634,3.423-11.782,3.679-12.634,3.686-12.667a1.037,1.037,0,0,1,.638-.684" transform="translate(-815.745 -796.155)" fill="#fff"/>
          </g>
        </g>
      </g>
      <g id="그룹_5401" data-name="그룹 5401" transform="translate(172.595 149.965)" opacity="0.15">
        <g id="그룹_5400" data-name="그룹 5400">
          <g id="그룹_5399" data-name="그룹 5399" clip-path="url(#clip-path-4)">
            <path id="패스_8366" data-name="패스 8366" d="M934.365,856.786H928.18l-11.886-60.631a1.05,1.05,0,0,1,.62.684l3.686,12.667,3.679,12.634,3.431,11.782,3.678,12.634Z" transform="translate(-916.294 -796.155)" fill="#0c1540"/>
          </g>
        </g>
      </g>
      <path id="패스_8367" data-name="패스 8367" d="M831.5,1109.725H781.644v-4.276a.749.749,0,0,1,.748-.749h48.361a.749.749,0,0,1,.748.749Z" transform="translate(-634.412 -896.616)" fill="#34234d"/>
    </g>
  </g>
</svg>
