<svg xmlns="http://www.w3.org/2000/svg" width="139.592" height="61.525" viewBox="0 0 139.592 61.525">
    <path data-name="합치기 12" d="M37.756 60.525C20.391 60.525 0 53.219 0 24.853V.762h17.092v24.091c0 12.737 8.213 20.653 21.431 20.653h22.96l11.6-13.418a34.058 34.058 0 0 1 2.547-2.524q-.921-.9-1.833-1.949L51.064 0l19.442.006 13.066 15.9c3.56 4.294 5.724 6.135 9.611 6.135s6.053-1.841 9.617-6.131L115.862.006h19.445l-22.73 27.608q-.873 1-1.755 1.87a33.961 33.961 0 0 1 2.636 2.6L138 60.513h-20.284l-14.435-16.785c-3.71-4.271-5.964-6.1-10.009-6.1s-6.3 1.828-10.012 6.1L70.35 58.7c-1.129 1.353-2.313 1.825-4.483 1.825z" transform="translate(.5 .5)" style="fill:#fff;stroke:transparent;opacity:.3"/>
</svg>
