<svg xmlns="http://www.w3.org/2000/svg" width="60.962" height="27" viewBox="0 0 60.962 27">
    <path d="M16.679 27C9.008 27 0 23.741 0 11.087V.34h7.551v10.747c0 5.682 3.628 9.213 9.467 9.213H27.16l5.125-5.986a15.119 15.119 0 0 1 1.125-1.126q-.407-.4-.81-.869L22.557 0h8.589l5.772 7.1c1.572 1.915 2.528 2.737 4.246 2.737s2.673-.821 4.248-2.737l5.77-7.1h8.59L49.731 12.319q-.386.447-.775.834a15.074 15.074 0 0 1 1.164 1.161l10.842 12.681H52l-6.377-7.488c-1.637-1.907-2.633-2.721-4.423-2.721s-2.784.816-4.423 2.721l-5.7 6.679A2.213 2.213 0 0 1 29.1 27z" style="fill:#00b8a3"/>
</svg>
