<svg xmlns="http://www.w3.org/2000/svg" width="36.255" height="29.643" viewBox="0 0 36.255 29.643">
  <g id="그룹_5413" data-name="그룹 5413" transform="translate(-108.261 -52.437)">
    <path id="합치기_21" data-name="합치기 21" d="M-5317.4-6425.151c-1.2-1.47-2.032-6.221-2.032-6.221s.037,4.633-.514,4.855a19.186,19.186,0,0,1-3.251.147c-.946,0-.886-.291-1.074-1.219a5.007,5.007,0,0,0-.773-2.126,6.752,6.752,0,0,0-1.658.112,9.649,9.649,0,0,1-1.6.13l.006-.013a10.835,10.835,0,0,1-3.773-.527v0l-.059-.022c-.169-.054-.265-.089-.265-.089l0-.023c-4.324-2.012-18.132-15.067-18.779-16-2.837-4.081,4.813-10.958,8.056-6.294,3.733,5.368,10.058,14.971,12.209,16.374a17.12,17.12,0,0,0,6.48.757c4.046-.129,5.534,1.718,5.939,2.389l.035.014.045.129c.032.061.045.095.045.095h-.012a63.97,63.97,0,0,1,2.055,7.225c.063.305-.273.5-.6.5A.609.609,0,0,1-5317.4-6425.151Z" transform="translate(5460.523 6506.735)" fill="#fff" stroke="#34234d" stroke-miterlimit="10" stroke-width="0.6"/>
    <path id="합치기_20" data-name="합치기 20" d="M-5317.4-6425.151c-1.2-1.47-2.032-6.221-2.032-6.221s.037,4.633-.514,4.855a19.186,19.186,0,0,1-3.251.147c-.946,0-.886-.291-1.074-1.219a5.007,5.007,0,0,0-.773-2.126,6.752,6.752,0,0,0-1.658.112,9.649,9.649,0,0,1-1.6.13l.006-.013a10.835,10.835,0,0,1-3.773-.527v0l-.059-.022c-.169-.054-.265-.089-.265-.089l0-.023c-4.324-2.012-18.132-15.067-18.779-16-2.837-4.081,4.813-10.958,8.056-6.294,3.733,5.368,10.058,14.971,12.209,16.374a17.12,17.12,0,0,0,6.48.757c4.046-.129,5.534,1.718,5.939,2.389l.035.014.045.129c.032.061.045.095.045.095h-.012a63.97,63.97,0,0,1,2.055,7.225c.063.305-.273.5-.6.5A.609.609,0,0,1-5317.4-6425.151Z" transform="translate(5460.522 6506.735)" fill="#fff"/>
    <path id="패스_8433" data-name="패스 8433" d="M1190.568,660.964l-.255-4.516a34.047,34.047,0,0,1,.255,4.516" transform="translate(-1052.756 -580.586)" fill="#34234d"/>
    <path id="패스_8434" data-name="패스 8434" d="M1204.437,654.453l.11-5.346a41.464,41.464,0,0,1-.11,5.346" transform="translate(-1065.249 -574.092)" fill="#34234d"/>
  </g>
</svg>
