<svg xmlns="http://www.w3.org/2000/svg" width="43.729" height="55.371" viewBox="0 0 43.729 55.371">
  <g id="그룹_5416" data-name="그룹 5416" transform="translate(-138.095 -78.224)">
    <path id="패스_8414" data-name="패스 8414" d="M1237.8,678.625h-38.822a2.252,2.252,0,0,0-2.252,2.251V683.5h43.325v-2.626a2.251,2.251,0,0,0-2.251-2.251" transform="translate(-1058.428 -600.199)" fill="#ff5168"/>
    <path id="패스_8415" data-name="패스 8415" d="M1217.78,700.21a.341.341,0,1,0,.341.341.341.341,0,0,0-.341-.341" transform="translate(-1076.748 -619.29)" fill="#fff"/>
    <path id="패스_8416" data-name="패스 8416" d="M1230.235,700.21a.341.341,0,1,0,.341.341.34.34,0,0,0-.341-.341" transform="translate(-1087.764 -619.29)" fill="#fff"/>
    <path id="패스_8417" data-name="패스 8417" d="M1242.686,700.21a.341.341,0,1,0,.341.341.341.341,0,0,0-.341-.341" transform="translate(-1098.775 -619.29)" fill="#fff"/>
    <path id="패스_8430" data-name="패스 8430" d="M1236.213,732.246h-38.744a2.5,2.5,0,0,1-2.493-2.493V679.368a2.5,2.5,0,0,1,2.493-2.493h38.744a2.5,2.5,0,0,1,2.493,2.493v50.385a2.5,2.5,0,0,1-2.493,2.493m-38.744-54.967a2.091,2.091,0,0,0-2.088,2.088v50.385a2.091,2.091,0,0,0,2.088,2.089h38.744a2.091,2.091,0,0,0,2.089-2.089V679.368a2.091,2.091,0,0,0-2.089-2.088Z" transform="translate(-1056.881 -598.651)" fill="#34234d"/>
    <g id="그룹_5415" data-name="그룹 5415">
      <g id="그룹_5414" data-name="그룹 5414">
        <path id="패스_8418" data-name="패스 8418" d="M1254.059,1116.24l-.03-.765h-7.22l.031.765Z" transform="translate(-1102.724 -986.566)" fill="#34234d"/>
        <path id="패스_8419" data-name="패스 8419" d="M1260.806,1096.327l-.03-.765H1245.51l.03.765Z" transform="translate(-1101.575 -968.954)" fill="#34234d"/>
        <path id="패스_8420" data-name="패스 8420" d="M1256.039,1076.414l-.03-.765H1243.76l.03.765Z" transform="translate(-1100.027 -951.342)" fill="#34234d"/>
        <path id="패스_8421" data-name="패스 8421" d="M1317.936,1116.24l-.03-.765h-2.191l.03.765Z" transform="translate(-1163.667 -986.566)" fill="#34234d"/>
        <path id="패스_8422" data-name="패스 8422" d="M1400.783,1116.24l-.03-.765h-7.22l.03.765Z" transform="translate(-1232.491 -986.566)" fill="#34234d"/>
        <path id="패스_8423" data-name="패스 8423" d="M1407.526,1096.327l-.03-.765H1392.23l.03.765Z" transform="translate(-1231.339 -968.954)" fill="#34234d"/>
        <path id="패스_8424" data-name="패스 8424" d="M1402.762,1076.414l-.03-.765h-12.249l.03.765Z" transform="translate(-1229.794 -951.342)" fill="#34234d"/>
        <path id="패스_8425" data-name="패스 8425" d="M1464.655,1116.24l-.03-.765h-2.191l.031.765Z" transform="translate(-1293.431 -986.566)" fill="#34234d"/>
        <path id="패스_8426" data-name="패스 8426" d="M1253.17,1057.226l-.03-.765h-7.22l.031.765Z" transform="translate(-1101.938 -934.371)" fill="#34234d"/>
        <path id="패스_8427" data-name="패스 8427" d="M1317.044,1057.226l-.03-.765h-2.192l.03.765Z" transform="translate(-1162.878 -934.371)" fill="#34234d"/>
        <path id="패스_8428" data-name="패스 8428" d="M1399.894,1057.226l-.03-.765h-7.22l.03.765Z" transform="translate(-1231.706 -934.371)" fill="#34234d"/>
        <path id="패스_8429" data-name="패스 8429" d="M1463.767,1057.226l-.03-.765h-2.191l.03.765Z" transform="translate(-1292.645 -934.371)" fill="#34234d"/>
      </g>
      <rect id="사각형_4095" data-name="사각형 4095" width="32.133" height="30.042" transform="translate(144.079 86.359)" fill="#6987d0"/>
      <rect id="사각형_4096" data-name="사각형 4096" width="39.318" height="0.404" transform="translate(145.95 114.981) rotate(-44.364)" fill="#34234d"/>
      <rect id="사각형_4097" data-name="사각형 4097" width="0.404" height="39.318" transform="matrix(0.699, -0.715, 0.715, 0.699, 145.941, 87.788)" fill="#34234d"/>
    </g>
  </g>
</svg>
