<svg xmlns="http://www.w3.org/2000/svg" xmlns:xlink="http://www.w3.org/1999/xlink" width="74" height="109" viewBox="0 0 74 109">
  <defs>
    <clipPath id="clip-path">
      <rect id="사각형_4119" data-name="사각형 4119" width="74" height="109" transform="translate(7.391 -1.333)" fill="#fff"/>
    </clipPath>
  </defs>
  <g id="마스크_그룹_22" data-name="마스크 그룹 22" transform="translate(-7.391 1.333)" clip-path="url(#clip-path)">
    <g id="그룹_5462" data-name="그룹 5462" transform="translate(0 1)">
      <path id="패스_8698" data-name="패스 8698" d="M98.421,43.332A4.838,4.838,0,0,1,100.029,48a6.552,6.552,0,0,1-2.111,3.336,10.452,10.452,0,0,1-5.179,2.536l.694-.232a3.248,3.248,0,0,1-2.919-1.786,6.1,6.1,0,0,1-.546-3.52c.234-2.339,1.407-4.767,3.565-5.7a4.839,4.839,0,0,1,4.889.7" transform="translate(-50.75 -23.854)" fill="#d8cdc0"/>
      <path id="패스_8699" data-name="패스 8699" d="M61.2,74.125a7.508,7.508,0,0,1,1.955.312,7.039,7.039,0,0,1,3.862,3.511A20.906,20.906,0,0,1,68.7,83.01l-.246,1a12.6,12.6,0,0,1-8.08-.471,5.491,5.491,0,0,1-1.562-.9,6.528,6.528,0,0,1-1.724-4.023,4.534,4.534,0,0,1,.248-3c.734-1.255,2.413-1.56,3.866-1.494" transform="translate(-32.145 -41.831)" fill="#d8cdc0"/>
      <path id="패스_8700" data-name="패스 8700" d="M92.959,79.637c1.6-.048,3.473.528,3.984,2.046a3.43,3.43,0,0,1-.746,3.078,8.106,8.106,0,0,1-5.591,2.827,24.029,24.029,0,0,1-6.4-.437l-.3-.249a9.923,9.923,0,0,1,9.054-7.266" transform="translate(-47.355 -44.945)" fill="#d8cdc0"/>
      <path id="패스_8701" data-name="패스 8701" d="M89.8,114a6.353,6.353,0,0,1,2.427-.907,4.46,4.46,0,0,1,3.528,1.536,4.913,4.913,0,0,1-.123,7,7.672,7.672,0,0,1-5.256,2.251,14.421,14.421,0,0,1-5.721-1.078l-.169-.688a11.97,11.97,0,0,1,1.934-5.548A10.749,10.749,0,0,1,89.8,114" transform="translate(-47.684 -63.824)" fill="#d8cdc0"/>
      <path id="패스_8702" data-name="패스 8702" d="M56.458,116.128a9.458,9.458,0,0,1,10.084,8.244l.1.05a6.825,6.825,0,0,1-4.528,2.026,11.831,11.831,0,0,1-5.51-1.474c-1.421-.678-2.948-1.6-3.315-3.135a5.65,5.65,0,0,1-.07-1.6c.063-1.242.2-2.635,1.16-3.426a3.669,3.669,0,0,1,2.083-.685" transform="translate(-30.021 -65.528)" fill="#d8cdc0"/>
      <path id="패스_8703" data-name="패스 8703" d="M98.51,147.828a3.455,3.455,0,0,1,1.8,1.8c.508,1.388-.308,2.9-1.253,4.04A16.033,16.033,0,0,1,90.46,159l-.565-.163a17.613,17.613,0,0,1,.437-6.549,8.516,8.516,0,0,1,.957-2.392,5.806,5.806,0,0,1,7.22-2.063" transform="translate(-50.664 -83.136)" fill="#d8cdc0"/>
      <path id="패스_8704" data-name="패스 8704" d="M64.654,152.941a9.409,9.409,0,0,1,2.262.638A7.961,7.961,0,0,1,70.3,157.02c.808,1.421,1.387,2.961,2.177,4.392l-.216.055c-1.224,1.568-3.524,1.675-5.511,1.558-2.423-.143-5.133-.576-6.566-2.536a6.6,6.6,0,0,1-1.082-3.648,4.338,4.338,0,0,1,.739-2.979c1.1-1.324,3.127-1.233,4.816-.922" transform="translate(-33.35 -86.209)" fill="#d8cdc0"/>
      <path id="패스_8705" data-name="패스 8705" d="M94.6,184.109a11.169,11.169,0,0,1,3.31-2.883,6.647,6.647,0,0,1,7.245.935,3.98,3.98,0,0,1,1.5,3.393c-.247,1.68-1.89,2.739-3.387,3.541-2.149,1.15-4.669,2.258-6.94,1.375a8.779,8.779,0,0,1-1.755-1.017l-1.577-1.083-.274-.267a5.733,5.733,0,0,1,.663-2.3,10,10,0,0,1,1.221-1.7" transform="translate(-52.328 -101.903)" fill="#d8cdc0"/>
      <path id="패스_8706" data-name="패스 8706" d="M66.628,186.323a12.831,12.831,0,0,1,8.662,5.822l-1.052-.239a3.934,3.934,0,0,1-2.467,3.023,10.064,10.064,0,0,1-4.016.615c-1.816,0-3.839-.18-5.059-1.525a5.713,5.713,0,0,1-1.106-4.215,4.4,4.4,0,0,1,.589-2.21c.906-1.36,2.839-1.541,4.45-1.27" transform="translate(-34.75 -105.099)" fill="#d8cdc0"/>
      <path id="패스_8707" data-name="패스 8707" d="M62.014,80.168a40.435,40.435,0,0,1,4.544,3.547,24.074,24.074,0,0,0,4.9,2.982.156.156,0,0,1-.1.293,12.466,12.466,0,0,1-4.867-2.7,35.647,35.647,0,0,1-4.659-3.913c-.109-.122.051-.282.182-.206" transform="translate(-34.877 -45.235)" fill="#fff"/>
      <path id="패스_8708" data-name="패스 8708" d="M85.661,90.593c1.6.442,3.7-.794,5.182-1.4,1.221-.5,2.409-1.106,3.665-1.515.175-.057.234.2.1.288a34.7,34.7,0,0,1-5.685,2.48c-1.109.421-2.212.966-3.352.415a.141.141,0,0,1,.093-.265" transform="translate(-48.244 -49.479)" fill="#fff"/>
      <path id="패스_8709" data-name="패스 8709" d="M93.82,121.633c.213-.043.344.3.126.374a15.8,15.8,0,0,0-5.622,2.97c-1.013.884-1.9,2.146-3.247,2.507-.082.022-.111-.084-.065-.135,2.251-2.542,5.412-5.042,8.808-5.716" transform="translate(-47.967 -68.647)" fill="#fff"/>
      <path id="패스_8710" data-name="패스 8710" d="M55.711,125.691a12.069,12.069,0,0,1,5.755,1.142c2.15,1.092,3.641,2.5,6.217,2.466a.152.152,0,0,1,.017.3,6.861,6.861,0,0,1-4.637-1.211,12.978,12.978,0,0,0-3.384-1.721c-1.3-.37-2.666-.423-3.99-.686a.145.145,0,0,1,.024-.289" transform="translate(-31.358 -70.935)" fill="#fff"/>
      <path id="패스_8711" data-name="패스 8711" d="M92.879,157.68a14.219,14.219,0,0,1,4.132-3.47.076.076,0,0,1,.082.125,40.573,40.573,0,0,0-5.318,5.557c-.686.988-1.347,2.766-2.823,2.467a.163.163,0,0,1-.018-.321c1.735-.371,2.827-3.087,3.944-4.359" transform="translate(-50.123 -87.03)" fill="#fff"/>
      <path id="패스_8712" data-name="패스 8712" d="M64.087,160.049a16.778,16.778,0,0,1,4.851,1.724c1.811.963,3.8,3.409,5.918,3.393a.124.124,0,0,1,.013.245c-1.78.186-2.92-1.124-4.288-2.074a20.054,20.054,0,0,0-6.589-2.839c-.25-.065-.164-.5.095-.448" transform="translate(-36.033 -90.329)" fill="#fff"/>
      <path id="패스_8713" data-name="패스 8713" d="M104.07,190.672c.121,0,.132.2.013.212-4.466.554-8.908.176-12.581,3.236-.244.2-.568-.168-.324-.37,3.675-3.033,8.344-3.011,12.892-3.078" transform="translate(-51.412 -107.614)" fill="#fff"/>
      <path id="패스_8714" data-name="패스 8714" d="M67.1,195.171c1.857.13,3.68.47,5.556.562a13.032,13.032,0,0,1,4.947.957.177.177,0,0,1-.118.333,22.769,22.769,0,0,0-6-.775A9.963,9.963,0,0,1,67,195.466c-.145-.082-.049-.305.1-.3" transform="translate(-37.772 -110.153)" fill="#fff"/>
      <path id="패스_8715" data-name="패스 8715" d="M91.847,53.784a46.593,46.593,0,0,0-7.515,13.97A45.835,45.835,0,0,0,82.6,85.27c.864,11.121,4.347,21.957,4.043,33.184a33.9,33.9,0,0,1-4.023,16.025c-.089.156-.363.022-.284-.143,10.126-21.366-5.649-44.4.941-66.343a39.156,39.156,0,0,1,8-14.709c.287-.323.825.158.566.5" transform="translate(-46.062 -30.013)" fill="#fff"/>
      <path id="패스_8716" data-name="패스 8716" d="M53.079,66.325a4.454,4.454,0,0,1,2.652,3.694,6.036,6.036,0,0,1-.981,3.5,9.62,9.62,0,0,1-3.9,3.6l.551-.388a2.991,2.991,0,0,1-3.047-.805,5.611,5.611,0,0,1-1.411-2.961c-.412-2.124-.019-4.576,1.639-5.968a4.455,4.455,0,0,1,4.5-.677" transform="translate(-26.409 -37.247)" fill="#f2e6d6"/>
      <path id="패스_8717" data-name="패스 8717" d="M27.311,103.674a6.9,6.9,0,0,1,1.807-.241,6.481,6.481,0,0,1,4.333,2.077,19.258,19.258,0,0,1,2.82,4.022l.047.947a11.6,11.6,0,0,1-7.252,1.718,5.05,5.05,0,0,1-1.616-.381,6.011,6.011,0,0,1-2.583-3.093,4.171,4.171,0,0,1-.573-2.71c.316-1.3,1.716-2.014,3.015-2.338" transform="translate(-13.675 -58.376)" fill="#f2e6d6"/>
      <path id="패스_8718" data-name="패스 8718" d="M58.392,98.442c1.4-.466,3.2-.452,4.055.753a3.16,3.16,0,0,1,.155,2.912,7.466,7.466,0,0,1-4.186,3.97,22.112,22.112,0,0,1-5.764,1.306l-.328-.141a9.137,9.137,0,0,1,6.068-8.8" transform="translate(-29.528 -55.399)" fill="#f2e6d6"/>
      <path id="패스_8719" data-name="패스 8719" d="M65.017,130.123a5.85,5.85,0,0,1,1.9-1.441,4.106,4.106,0,0,1,3.518.423,4.525,4.525,0,0,1,1.739,6.2,7.069,7.069,0,0,1-4.042,3.374,13.285,13.285,0,0,1-5.331.56l-.331-.562a11.019,11.019,0,0,1,.24-5.4,9.9,9.9,0,0,1,2.306-3.154" transform="translate(-35.137 -72.498)" fill="#f2e6d6"/>
      <path id="패스_8720" data-name="패스 8720" d="M34.429,141.909A8.709,8.709,0,0,1,45.5,146.519l.1.018a6.286,6.286,0,0,1-3.459,2.983,10.9,10.9,0,0,1-5.25.155c-1.433-.223-3.024-.635-3.751-1.89a5.2,5.2,0,0,1-.484-1.393,4.208,4.208,0,0,1,.118-3.328,3.376,3.376,0,0,1,1.656-1.154" transform="translate(-18.27 -79.773)" fill="#f2e6d6"/>
      <path id="패스_8721" data-name="패스 8721" d="M81.158,158.118a3.181,3.181,0,0,1,2.061,1.115c.815,1.09.494,2.642-.038,3.895a14.764,14.764,0,0,1-6.174,6.967l-.541.006a16.226,16.226,0,0,1-1.344-5.892,7.853,7.853,0,0,1,.212-2.363,5.346,5.346,0,0,1,5.824-3.727" transform="translate(-42.393 -89.206)" fill="#f2e6d6"/>
      <path id="패스_8722" data-name="패스 8722" d="M51.275,172.242a8.653,8.653,0,0,1,2.164-.034,7.33,7.33,0,0,1,3.891,2.143c1.087,1.04,2,2.246,3.08,3.3l-.176.105c-.666,1.707-2.667,2.408-4.45,2.83-2.175.514-4.68.847-6.461-.5a6.081,6.081,0,0,1-1.918-2.932,3.994,3.994,0,0,1-.135-2.823c.616-1.457,2.432-1.913,4-2.085" transform="translate(-26.563 -97.162)" fill="#f2e6d6"/>
      <path id="패스_8723" data-name="패스 8723" d="M87.369,190.516a10.283,10.283,0,0,1,2.158-3.417,6.119,6.119,0,0,1,6.637-1.088,3.664,3.664,0,0,1,2.215,2.6c.226,1.547-.944,2.915-2.053,4.018-1.592,1.582-3.521,3.225-5.759,3.046a8.113,8.113,0,0,1-1.816-.433l-1.678-.54-.312-.163a5.275,5.275,0,0,1-.022-2.2,9.225,9.225,0,0,1,.629-1.819" transform="translate(-48.896 -104.683)" fill="#f2e6d6"/>
      <path id="패스_8724" data-name="패스 8724" d="M61.88,201.245a11.816,11.816,0,0,1,9.179,2.848l-.991.067a3.624,3.624,0,0,1-1.378,3.318,9.271,9.271,0,0,1-3.381,1.6c-1.6.484-3.434.855-4.865-.01a5.261,5.261,0,0,1-2.089-3.426,4.049,4.049,0,0,1-.064-2.1c.44-1.438,2.1-2.109,3.589-2.3" transform="translate(-32.834 -113.533)" fill="#f2e6d6"/>
      <path id="패스_8725" data-name="패스 8725" d="M28.8,110.488a37.213,37.213,0,0,1,4.945,1.929,22.19,22.19,0,0,0,5.112,1.335.143.143,0,0,1-.014.286,11.473,11.473,0,0,1-5.007-1.1,32.792,32.792,0,0,1-5.143-2.221.129.129,0,0,1,.106-.23" transform="translate(-16.162 -62.357)" fill="#fff"/>
      <path id="패스_8726" data-name="패스 8726" d="M53.409,110.385c1.532-.034,3.056-1.678,4.2-2.606.944-.767,1.833-1.612,2.832-2.3.139-.1.26.118.162.228a31.942,31.942,0,0,1-4.359,3.689c-.868.664-1.7,1.436-2.848,1.251a.13.13,0,0,1,.012-.259" transform="translate(-30.07 -59.516)" fill="#fff"/>
      <path id="패스_8727" data-name="패스 8727" d="M69.737,135.679c.176-.094.383.175.21.3a14.56,14.56,0,0,0-4.175,4.1c-.66,1.047-1.11,2.4-2.2,3.069-.067.042-.12-.044-.093-.1,1.315-2.837,3.442-5.877,6.26-7.368" transform="translate(-35.822 -76.565)" fill="#fff"/>
      <path id="패스_8728" data-name="패스 8728" d="M35.265,151.479a11.113,11.113,0,0,1,5.378-.513c2.185.4,3.873,1.247,6.135.534.149-.047.238.2.093.259a6.317,6.317,0,0,1-4.411.156,11.928,11.928,0,0,0-3.439-.625c-1.246.017-2.464.331-3.7.449a.133.133,0,0,1-.055-.261" transform="translate(-19.846 -85.127)" fill="#fff"/>
      <path id="패스_8729" data-name="패스 8729" d="M79.179,167.944a13.1,13.1,0,0,1,2.728-4.152.07.07,0,0,1,.106.088,37.4,37.4,0,0,0-3.223,6.307c-.345,1.052-.458,2.8-1.838,2.922a.15.15,0,0,1-.1-.278c1.433-.786,1.678-3.47,2.328-4.886" transform="translate(-43.33 -92.432)" fill="#fff"/>
      <path id="패스_8730" data-name="패스 8730" d="M51.752,180.269a15.438,15.438,0,0,1,4.734.239c1.852.371,4.257,2,6.116,1.431a.115.115,0,0,1,.076.213c-1.521.634-2.873-.221-4.33-.7a18.456,18.456,0,0,0-6.562-.765c-.238.009-.275-.394-.035-.42" transform="translate(-29.117 -101.695)" fill="#fff"/>
      <path id="패스_8731" data-name="패스 8731" d="M96.14,192.465c.106-.033.168.139.067.184-3.793,1.668-7.811,2.508-10.243,6.176-.161.243-.545,0-.383-.24,2.441-3.646,6.565-4.859,10.559-6.12" transform="translate(-48.279 -108.624)" fill="#fff"/>
      <path id="패스_8732" data-name="패스 8732" d="M63.668,208.628c1.672-.375,3.371-.557,5.049-.972a12,12,0,0,1,4.616-.463.163.163,0,0,1-.016.325,20.96,20.96,0,0,0-5.5.9,9.167,9.167,0,0,1-4.164.5c-.15-.034-.124-.257.013-.288" transform="translate(-35.869 -116.896)" fill="#fff"/>
      <path id="패스_8733" data-name="패스 8733" d="M55.081,75.992A42.9,42.9,0,0,0,52.141,90.3a42.214,42.214,0,0,0,3.1,15.906c3.7,9.582,9.633,18.22,12.33,28.2a31.224,31.224,0,0,1,.683,15.2c-.037.161-.315.115-.289-.051,3.289-21.522-16.708-37.672-16.69-58.768A36.058,36.058,0,0,1,54.449,75.7c.168-.36.77-.078.632.292" transform="translate(-28.94 -42.63)" fill="#fff"/>
      <path id="패스_8734" data-name="패스 8734" d="M174.151,76.9a4.454,4.454,0,0,1-.526,4.516,6.034,6.034,0,0,1-3.082,1.928,9.62,9.62,0,0,1-5.31.041l.668.084a2.991,2.991,0,0,1-1.711-2.646,5.615,5.615,0,0,1,.949-3.139c1.126-1.848,3.067-3.4,5.23-3.31a4.455,4.455,0,0,1,3.781,2.526" transform="translate(-92.666 -41.972)" fill="#f2e6d6"/>
      <path id="패스_8735" data-name="패스 8735" d="M132.532,86.656a6.9,6.9,0,0,1,1.5,1.038,6.483,6.483,0,0,1,1.807,4.452,19.257,19.257,0,0,1-.622,4.872l-.6.733a11.607,11.607,0,0,1-6.52-3.611,5.037,5.037,0,0,1-.938-1.37,6.01,6.01,0,0,1,.172-4.026,4.172,4.172,0,0,1,1.4-2.389c1.11-.75,2.625-.334,3.8.3" transform="translate(-71.604 -48.512)" fill="#f2e6d6"/>
      <path id="패스_8736" data-name="패스 8736" d="M155.718,106.344c1.349.6,2.672,1.822,2.492,3.287a3.16,3.16,0,0,1-1.846,2.257,7.464,7.464,0,0,1-5.768.118,22.117,22.117,0,0,1-5.141-2.914l-.148-.325a9.138,9.138,0,0,1,10.411-2.423" transform="translate(-82.01 -59.616)" fill="#f2e6d6"/>
      <path id="패스_8737" data-name="패스 8737" d="M138.319,133.563a5.851,5.851,0,0,1,2.376.214,4.107,4.107,0,0,1,2.317,2.681,4.524,4.524,0,0,1-2.891,5.76,7.064,7.064,0,0,1-5.26-.226,13.28,13.28,0,0,1-4.319-3.175l.134-.638a11.018,11.018,0,0,1,3.816-3.835,9.9,9.9,0,0,1,3.828-.781" transform="translate(-73.676 -75.367)" fill="#f2e6d6"/>
      <path id="패스_8738" data-name="패스 8738" d="M111.693,119.632a8.708,8.708,0,0,1,5.086,10.861l.06.08a6.286,6.286,0,0,1-4.566-.122,10.894,10.894,0,0,1-3.987-3.42c-.91-1.13-1.808-2.505-1.5-3.923a5.2,5.2,0,0,1,.579-1.356c.548-1.006,1.216-2.107,2.328-2.381a3.376,3.376,0,0,1,2,.261" transform="translate(-60.234 -67.336)" fill="#f2e6d6"/>
      <path id="패스_8739" data-name="패스 8739" d="M131.092,164.01a3.178,3.178,0,0,1,.773,2.212c-.131,1.355-1.413,2.286-2.649,2.855a14.765,14.765,0,0,1-9.255,1l-.4-.36a16.223,16.223,0,0,1,2.972-5.262,7.837,7.837,0,0,1,1.747-1.6,5.347,5.347,0,0,1,6.816,1.164" transform="translate(-67.477 -91.487)" fill="#f2e6d6"/>
      <path id="패스_8740" data-name="패스 8740" d="M103.849,153.45a8.657,8.657,0,0,1,1.624,1.431,7.33,7.33,0,0,1,1.435,4.2c.1,1.5-.029,3.01.057,4.513l-.2-.04c-1.641.814-3.593-.014-5.2-.9-1.954-1.084-4.031-2.523-4.44-4.721a6.075,6.075,0,0,1,.555-3.46,3.991,3.991,0,0,1,1.8-2.178c1.437-.663,3.087.223,4.365,1.154" transform="translate(-54.778 -85.825)" fill="#f2e6d6"/>
      <path id="패스_8741" data-name="패스 8741" d="M115.306,193.37a10.286,10.286,0,0,1,3.9-1.074,6.121,6.121,0,0,1,5.641,3.663,3.666,3.666,0,0,1-.111,3.413c-.874,1.3-2.661,1.521-4.223,1.59-2.242.1-4.775.014-6.308-1.624a8.11,8.11,0,0,1-1.052-1.543l-.878-1.528-.121-.331a5.269,5.269,0,0,1,1.465-1.643,9.213,9.213,0,0,1,1.69-.922" transform="translate(-63.297 -108.53)" fill="#f2e6d6"/>
      <path id="패스_8742" data-name="패스 8742" d="M92.1,182a11.818,11.818,0,0,1,4.871,8.284l-.778-.617a3.623,3.623,0,0,1-3.252,1.526,9.274,9.274,0,0,1-3.579-1.09c-1.509-.72-3.115-1.679-3.592-3.282a5.263,5.263,0,0,1,.762-3.94,4.043,4.043,0,0,1,1.369-1.6c1.294-.768,2.971-.149,4.2.718" transform="translate(-48.33 -102.119)" fill="#f2e6d6"/>
      <path id="패스_8743" data-name="패스 8743" d="M133.488,90.763a37.248,37.248,0,0,1,2.358,4.755,22.191,22.191,0,0,0,2.882,4.429.143.143,0,0,1-.2.2,11.481,11.481,0,0,1-2.964-4.183,32.8,32.8,0,0,1-2.307-5.1.128.128,0,0,1,.233-.1" transform="translate(-75.205 -51.193)" fill="#fff"/>
      <path id="패스_8744" data-name="패스 8744" d="M147.452,111.972c1.156,1.006,3.389.816,4.861.9,1.214.069,2.44.042,3.645.2.169.022.113.263-.034.277a31.907,31.907,0,0,1-5.707-.206c-1.089-.093-2.221-.079-2.948-.991a.129.129,0,0,1,.183-.183" transform="translate(-83.099 -63.176)" fill="#fff"/>
      <path id="패스_8745" data-name="패스 8745" d="M140.456,141.951c.194.049.166.387-.044.361a14.564,14.564,0,0,0-5.85.225c-1.193.33-2.434,1.024-3.694.788-.077-.014-.058-.114,0-.138,2.882-1.213,6.5-2.029,9.589-1.235" transform="translate(-73.832 -79.938)" fill="#fff"/>
      <path id="패스_8746" data-name="패스 8746" d="M110.106,126.046a11.11,11.11,0,0,1,4.322,3.241c1.35,1.762,2.025,3.529,4.177,4.524.142.065.043.308-.105.255a6.315,6.315,0,0,1-3.367-2.854,11.954,11.954,0,0,0-2.123-2.777c-.933-.826-2.045-1.414-3.039-2.159a.134.134,0,0,1,.135-.23" transform="translate(-62.033 -71.131)" fill="#fff"/>
      <path id="패스_8747" data-name="패스 8747" d="M124.165,171.588a13.1,13.1,0,0,1,4.813-1.234.07.07,0,0,1,.019.136,37.391,37.391,0,0,0-6.629,2.494c-.963.546-2.22,1.759-3.326.923a.15.15,0,0,1,.113-.273c1.589.383,3.576-1.436,5.011-2.046" transform="translate(-67.149 -96.146)" fill="#fff"/>
      <path id="패스_8748" data-name="패스 8748" d="M103.308,157.921a15.45,15.45,0,0,1,3.34,3.363c1.119,1.521,1.8,4.346,3.56,5.175.115.054.034.252-.087.209-1.552-.555-1.976-2.1-2.733-3.43a18.473,18.473,0,0,0-4.337-4.982c-.182-.154.061-.477.257-.335" transform="translate(-58.125 -89.11)" fill="#fff"/>
      <path id="패스_8749" data-name="패스 8749" d="M122.746,202.148c.1.047.031.216-.074.181-3.928-1.32-7.465-3.4-11.732-2.327-.283.071-.4-.365-.122-.436,4.259-1.053,8.126.826,11.928,2.582" transform="translate(-62.455 -112.462)" fill="#fff"/>
      <path id="패스_8750" data-name="패스 8750" d="M91.862,188.259c1.489.848,2.868,1.857,4.388,2.68a12,12,0,0,1,3.725,2.765.163.163,0,0,1-.23.23,20.966,20.966,0,0,0-4.673-3.035,9.171,9.171,0,0,1-3.413-2.436c-.088-.126.081-.272.2-.2" transform="translate(-51.718 -106.242)" fill="#fff"/>
      <path id="패스_8751" data-name="패스 8751" d="M128.737,85.765a42.9,42.9,0,0,0-11.805,8.6,42.209,42.209,0,0,0-8.414,13.85c-3.714,9.576-5.141,19.959-9.866,29.156-2.353,4.58-8.35,13.566-8.35,13.566l-.777-.446s6.22-9.011,8.431-13.418c6.878-13.713,7.252-31.132,18.008-42.929a36.049,36.049,0,0,1,12.5-9.021c.366-.154.622.46.271.641" transform="translate(-50.527 -48.03)" fill="#fff"/>
      <path id="패스_8752" data-name="패스 8752" d="M143.675,6.376c1.082-2.994,3.426-5.793,6.569-6.3a6.55,6.55,0,0,1,6.186,2.534,6.549,6.549,0,0,1,.564,6.663,8.868,8.868,0,0,1-3.878,3.679c-2.328,1.24-4.035,1.872-6.651,1.538a4.257,4.257,0,0,1-3.241-3.313,8.26,8.26,0,0,1,.45-4.8" transform="translate(-80.729 0)" fill="#ffe594"/>
      <path id="패스_8753" data-name="패스 8753" d="M98.887,29.915a10.234,10.234,0,0,1,2.463,1.058,9.537,9.537,0,0,1,3.906,5.889,28.326,28.326,0,0,1,.529,7.2l-.654,1.232A17.061,17.061,0,0,1,94.679,42a7.386,7.386,0,0,1-1.752-1.7c-1.145-1.661-1.112-3.843-.93-5.852A6.137,6.137,0,0,1,93.316,30.6c1.38-1.4,3.685-1.248,5.571-.68" transform="translate(-51.869 -16.65)" fill="#ffe594"/>
      <path id="패스_8754" data-name="패스 8754" d="M137.461,49.9c2.118.467,4.384,1.844,4.552,4.007a4.647,4.647,0,0,1-2,3.794,10.974,10.974,0,0,1-8.277,1.858,32.565,32.565,0,0,1-8.261-2.7l-.307-.425A13.433,13.433,0,0,1,137.461,49.9" transform="translate(-69.515 -28.007)" fill="#ffe594"/>
      <path id="패스_8755" data-name="패스 8755" d="M121.157,93.716a8.6,8.6,0,0,1,3.487-.386,6.035,6.035,0,0,1,4.123,3.186,6.653,6.653,0,0,1-2.481,9.145,10.383,10.383,0,0,1-7.646,1.212,19.518,19.518,0,0,1-7.154-3.311l.007-.959c1.084-2.452,2.249-5.011,4.377-6.643a14.555,14.555,0,0,1,5.288-2.245" transform="translate(-62.921 -52.641)" fill="#ffe594"/>
      <path id="패스_8756" data-name="패스 8756" d="M78.266,83.464A12.806,12.806,0,0,1,88.772,97.628l.109.1a9.245,9.245,0,0,1-6.616,1.159,16.021,16.021,0,0,1-6.745-3.761c-1.641-1.361-3.338-3.082-3.311-5.214a7.617,7.617,0,0,1,.437-2.124c.5-1.609,1.136-3.393,2.659-4.112a4.946,4.946,0,0,1,2.96-.209" transform="translate(-40.754 -47.035)" fill="#ffe594"/>
      <path id="패스_8757" data-name="패스 8757" d="M120.534,140.167a4.681,4.681,0,0,1,1.761,2.962c.207,1.991-1.367,3.708-2.983,4.889a21.712,21.712,0,0,1-13.047,4.142l-.687-.4a23.865,23.865,0,0,1,2.745-8.453,11.54,11.54,0,0,1,2.048-2.824,7.863,7.863,0,0,1,10.164-.316" transform="translate(-59.587 -78.144)" fill="#ffe594"/>
      <path id="패스_8758" data-name="패스 8758" d="M77.027,134.488a12.718,12.718,0,0,1,2.758,1.588,10.775,10.775,0,0,1,3.3,5.638c.589,2.133.839,4.348,1.4,6.487h-.3c-2.127,1.653-5.182,1.032-7.75.22-3.135-.991-6.548-2.458-7.779-5.5a8.927,8.927,0,0,1-.212-5.149A5.874,5.874,0,0,1,70.4,134.1c1.877-1.374,4.513-.582,6.628.387" transform="translate(-38.474 -75.27)" fill="#ffe594"/>
      <path id="패스_8759" data-name="패스 8759" d="M104.865,187.18a15.094,15.094,0,0,1,5.3-2.687,9,9,0,0,1,9.2,3.628,5.391,5.391,0,0,1,.84,4.952c-.882,2.123-3.39,2.969-5.621,3.526-3.2.8-6.877,1.417-9.566-.5a11.913,11.913,0,0,1-1.967-1.916l-1.712-1.945-.271-.442A7.759,7.759,0,0,1,102.7,189a13.447,13.447,0,0,1,2.166-1.823" transform="translate(-57.042 -104.013)" fill="#ffe594"/>
      <path id="패스_8760" data-name="패스 8760" d="M68.419,179.024a17.376,17.376,0,0,1,9.442,10.514l-1.3-.661a5.329,5.329,0,0,1-4.24,3.151,13.644,13.644,0,0,1-5.476-.524c-2.386-.6-4.98-1.509-6.137-3.68-.95-1.784-.662-3.973-.054-5.9a5.954,5.954,0,0,1,1.505-2.706c1.639-1.485,4.238-1.082,6.263-.193" transform="translate(-33.915 -100.591)" fill="#ffe594"/>
      <path id="패스_8761" data-name="패스 8761" d="M117.307,28.809a56.905,56.905,0,0,0-8.368,10.4,62.082,62.082,0,0,0-8.074,22.421c-2.551,14.887-1.571,30.266-5.691,44.9-2.052,7.29-3.089,21.289-3.089,21.289l-.6-.283s.693-14.206,2.59-21.188c5.919-21.785,1.348-47.016,13.407-67.176a55.983,55.983,0,0,1,8.838-11.281.905.905,0,0,1,.989.915" transform="translate(-51.632 -15.741)" fill="#fff"/>
      <g id="그룹_5461" data-name="그룹 5461">
        <path id="패스_8835" data-name="패스 8835" d="M77.37,192.049l-1.118-.521,1.36-1.773-1.087-.506-2.466,3.433.885-4.17-.923-.43L71.4,191.433l1.034-4.091-1.086-.506-.483,2.183-1.349-.628-.382.821,1.531.713-.608,2.75,1.1.511,2.51-3.138-.787,3.94,1.1.511,1.714-2.235,1.3.605Z" transform="translate(-39.018 -105.449)" fill="#141414"/>
        <path id="패스_8836" data-name="패스 8836" d="M84.136,147.246l-1.118-.521,1.36-1.773-1.087-.506-2.466,3.433.885-4.17-.923-.43-2.622,3.352,1.034-4.091-1.086-.506-.483,2.183-1.349-.628-.382.821,1.531.713-.608,2.75,1.1.511,2.51-3.138-.787,3.94,1.1.511,1.714-2.235,1.3.605Z" transform="translate(-42.837 -80.163)" fill="#141414"/>
        <path id="패스_8837" data-name="패스 8837" d="M89.732,97.546l-1.043-.658L90.261,95.3l-1.014-.639-2.879,3.095,1.4-4.024-.861-.543-3.025,2.994,1.543-3.928-1.014-.639-.754,2.1L82.4,92.925l-.483.766,1.429.9-.95,2.651,1.024.646,2.886-2.8L85.029,98.9l1.024.646,1.982-2,1.214.765Z" transform="translate(-46.234 -51.707)" fill="#141414"/>
        <path id="패스_8838" data-name="패스 8838" d="M106.089,44.463l-1.043-.658,1.573-1.588-1.014-.639-2.879,3.095,1.4-4.024-.861-.543L100.243,43.1l1.543-3.928-1.014-.639-.754,2.1-1.258-.793-.483.766,1.429.9-.95,2.651,1.024.646,2.886-2.8-1.279,3.81,1.024.646,1.982-2,1.214.765Z" transform="translate(-55.466 -21.747)" fill="#141414"/>
        <path id="패스_8839" data-name="패스 8839" d="M123.322,194l-1.208.25.031-2.235-1.174.243.074,4.226-1.782-3.872-1,.207-.1,4.255-1.615-3.9-1.174.243.917,2.039-1.457.3.184.887,1.654-.343,1.156,2.568,1.186-.246.137-4.016,1.724,3.63,1.186-.246.038-2.815,1.4-.292Z" transform="translate(-64.814 -108.37)" fill="#141414"/>
        <path id="패스_8840" data-name="패스 8840" d="M125.4,146.559l-1.208.25.031-2.235-1.174.243.074,4.226-1.782-3.872-1,.207-.1,4.255-1.615-3.9-1.174.243.917,2.039-1.457.3.184.887,1.654-.343,1.156,2.568,1.186-.246.137-4.016,1.724,3.63,1.186-.246.038-2.815,1.4-.292Z" transform="translate(-65.989 -81.597)" fill="#141414"/>
        <path id="패스_8841" data-name="패스 8841" d="M132.046,105.418l-1.233.041.412-2.2-1.2.04-.648,4.177-1.1-4.12-1.018.034-.825,4.175-.927-4.117-1.2.04.556,2.165-1.487.049.03.905,1.688-.056.7,2.727,1.21-.04.821-3.934,1.079,3.871,1.21-.04.519-2.768,1.434-.047Z" transform="translate(-69.638 -58.28)" fill="#141414"/>
        <path id="패스_8842" data-name="패스 8842" d="M146.164,56.43l-1.233.041.412-2.2-1.2.04-.648,4.177-1.1-4.12-1.018.034-.825,4.175-.927-4.117-1.2.04.556,2.165-1.487.05.03.905,1.688-.056.7,2.727,1.21-.04.821-3.934,1.079,3.871,1.21-.04.519-2.768,1.434-.047Z" transform="translate(-77.607 -30.631)" fill="#141414"/>
        <path id="패스_8843" data-name="패스 8843" d="M159.466,13.242l-.973-.758,1.724-1.423-.945-.737L156.1,13.115l1.8-3.864-.8-.626L153.785,11.3l1.927-3.754-.945-.737-.96,2.018-1.173-.915-.558.714,1.332,1.038-1.21,2.543.954.745,3.151-2.495-1.653,3.663.955.744,2.171-1.793,1.131.882Z" transform="translate(-85.831 -3.843)" fill="#141414"/>
      </g>
    </g>
  </g>
</svg>
