<svg xmlns="http://www.w3.org/2000/svg" width="63.636" height="62.237" viewBox="0 0 63.636 62.237">
  <g id="그룹_5410" data-name="그룹 5410" transform="translate(-19.998 -70.577)">
    <g id="그룹_5407" data-name="그룹 5407">
      <path id="패스_8310" data-name="패스 8310" d="M166.174,597.676c-.634-.244-1.3-.468-1.983-.681-18.72-5.689-55.761,1.209-55.761,1.209-3.061-5.774-.141-13.182-.141-13.182,26.835,3.186,53.585-2.153,55.722-2.592.091-.023.138-.031.138-.031,7.628,3.373,2.024,15.278,2.024,15.278" transform="translate(-86.872 -472.696)" fill="#f5f5f5" fill-rule="evenodd"/>
      <path id="패스_8311" data-name="패스 8311" d="M107.636,597.622l-.06-.112c-3.063-5.777-.179-13.252-.149-13.327l.049-.124.132.016c26.5,3.148,52.76-1.993,55.667-2.59.092-.023.143-.032.143-.032l.052-.009.049.021a6.425,6.425,0,0,1,3.563,3.731c1.789,4.794-1.319,11.5-1.452,11.779l-.069.145-.15-.058c-.581-.224-1.226-.445-1.972-.677-18.463-5.612-55.307,1.145-55.678,1.213Zm.067-13.188c-.356.985-2.563,7.588.121,12.8,2.4-.433,37.716-6.652,55.717-1.181.689.214,1.294.419,1.842.626.447-1.015,2.972-7.088,1.375-11.365a6.082,6.082,0,0,0-3.328-3.512l-.078.018c-2.915.6-29.139,5.732-55.649,2.612" transform="translate(-86.17 -471.922)" fill="#34234d"/>
      <path id="패스_8312" data-name="패스 8312" d="M396.024,597.676a8.713,8.713,0,0,1-1.983-.681,6.026,6.026,0,0,1-3.816-5.6c.066-7.508,2.967-8.773,3.636-8.963.091-.023.138-.031.138-.031,7.628,3.373,2.024,15.278,2.024,15.278" transform="translate(-316.722 -472.696)" fill="#fff" fill-rule="evenodd"/>
      <path id="패스_8313" data-name="패스 8313" d="M395.38,597.095l-.131-.024a8.8,8.8,0,0,1-2.026-.7,6.166,6.166,0,0,1-3.914-5.76c.067-7.691,3.145-8.953,3.762-9.128.1-.026.155-.035.155-.035l.052-.01.049.021a6.426,6.426,0,0,1,3.563,3.731c1.789,4.794-1.319,11.5-1.452,11.779Zm-2.144-15.29-.078.018c-.569.162-3.439,1.353-3.5,8.8a5.842,5.842,0,0,0,3.717,5.445,9.011,9.011,0,0,0,1.808.639c.42-.947,2.993-7.078,1.385-11.387a6.082,6.082,0,0,0-3.328-3.512" transform="translate(-315.977 -471.922)" fill="#34234d"/>
      <path id="패스_8314" data-name="패스 8314" d="M402.861,597.3a2.964,2.964,0,0,0-.159.4c-.046.142-.086.29-.124.439v.006a7.6,7.6,0,0,1-.726,2.078,4.827,4.827,0,0,1-1.055,1.39,1.755,1.755,0,0,1-1.159.5,1.236,1.236,0,0,1-.986-.671l.012.019a6.554,6.554,0,0,1-.6-2.915,5.706,5.706,0,0,1,.215-1.569,3.216,3.216,0,0,1,.6-1.164l-.047.047c.3-.239.593-.452.8-.417l-.148-.113a2.259,2.259,0,0,0,.445.5,1.908,1.908,0,0,1,.342.375.4.4,0,0,1,.048.093.339.339,0,0,1,.027.078c.01.023,0,.044.01.062a.744.744,0,0,0,0,.076c-.009.038-.008.068-.017.112s-.024.1-.035.143l-.054.161c-.008.024-.019.062-.024.075s-.005.014,0,.009a.119.119,0,0,1,.035-.04c.017-.01.024-.005.014-.009a.4.4,0,0,1-.127-.1c-.114-.118-.238-.3-.4-.45a.7.7,0,0,0-.3-.182.444.444,0,0,0-.436.172,1.733,1.733,0,0,0-.309.564,4.894,4.894,0,0,0-.164.561l.011-.043a5.069,5.069,0,0,0-.184,1.432,3.62,3.62,0,0,0,.24,1.259,2.5,2.5,0,0,0,.108.237.97.97,0,0,0,.131.2l.138.166a1.667,1.667,0,0,0,.146.127,1.184,1.184,0,0,0,.308.181.984.984,0,0,0,.332.045,1.188,1.188,0,0,0,.667-.259,2.693,2.693,0,0,0,.611-.641,6.2,6.2,0,0,0,.9-2.051l.006-.023,0-.018a8.746,8.746,0,0,0-.064-3.748,3.209,3.209,0,0,0-1.362-2.164,1.284,1.284,0,0,0-.936-.108,2.238,2.238,0,0,0-.935.565,4.838,4.838,0,0,0-.815,1.13,8.683,8.683,0,0,0-.6,1.533l0-.007c-.14.426-.286.851-.4,1.3.138-.429.3-.822.465-1.223l0-.007a7.683,7.683,0,0,1,.632-1.373,4.123,4.123,0,0,1,.785-.934,1.349,1.349,0,0,1,1.65-.2,1.976,1.976,0,0,1,.657.759,4.261,4.261,0,0,1,.438,1.2,7.321,7.321,0,0,1,0,3.016l.009-.04a4.576,4.576,0,0,1-.7,1.528,1.253,1.253,0,0,1-.925.612.712.712,0,0,1-.224-.033.886.886,0,0,1-.208-.128c-.032-.03-.068-.053-.1-.086l-.086-.107a.428.428,0,0,1-.075-.115,1.51,1.51,0,0,1-.066-.147,2.288,2.288,0,0,1-.026-1.452l.006-.023,0-.02a1.472,1.472,0,0,1,.16-.453c.007-.005.008-.009.042,0a.362.362,0,0,1,.137.088c.111.1.232.265.384.423a.714.714,0,0,0,.3.206.31.31,0,0,0,.254-.043.78.78,0,0,0,.253-.305c.033-.063.055-.121.082-.185s.031-.091.046-.137c.029-.089.058-.175.086-.268l.074-.312c.022-.11.036-.241.051-.36a3.941,3.941,0,0,0,.008-.4,2.486,2.486,0,0,0-.054-.37,1.5,1.5,0,0,0-.1-.289,1.178,1.178,0,0,0-.111-.212,2.347,2.347,0,0,0-.444-.49,1.93,1.93,0,0,1-.341-.359l-.067-.107-.081-.007a.965.965,0,0,0-.576.182,4.928,4.928,0,0,0-.488.372l-.028.023-.02.024a4.7,4.7,0,0,0-.826,1.678,7.512,7.512,0,0,0-.264,2.126,8.753,8.753,0,0,0,.232,1.9,5.69,5.69,0,0,0,.564,1.5l.008.015,0,0a1.359,1.359,0,0,0,1.225.674,2.125,2.125,0,0,0,1.294-.717,5.808,5.808,0,0,0,1.086-1.646,8.288,8.288,0,0,0,.661-2.275v.005c.03-.151.061-.3.1-.447a3.19,3.19,0,0,1,.137-.417" transform="translate(-322.081 -480.551)" fill="#dbdbdb"/>
    </g>
    <g id="그룹_5406" data-name="그룹 5406">
      <path id="패스_8315" data-name="패스 8315" d="M180.674,516.945c-.71.022-1.441.076-2.186.149-20.336,2.118-53.208,23.793-53.208,23.793-5.291-4.318-5.486-12.638-5.486-12.638,27.136-7.822,50.729-23.82,52.609-25.11.078-.058.121-.086.121-.086,8.714.153,8.149,13.891,8.149,13.891" transform="translate(-97.23 -408.297)" fill="#fff" fill-rule="evenodd"/>
      <path id="패스_8316" data-name="패스 8316" d="M124.476,540.331l-.1-.084c-5.294-4.32-5.55-12.689-5.553-12.773l0-.139.134-.039c26.81-7.728,50-23.331,52.557-25.085.079-.059.124-.089.124-.089l.046-.03h.056a6.715,6.715,0,0,1,4.945,2.147c3.668,3.89,3.4,11.606,3.381,11.933l-.007.168-.168.005c-.654.021-1.365.07-2.174.149-20.058,2.089-52.8,23.547-53.126,23.764ZM119.189,527.6c.057,1.092.612,8.347,5.311,12.279,2.133-1.39,33.621-21.712,53.177-23.749.748-.073,1.413-.12,2.028-.144.019-1.16-.015-8.032-3.288-11.5a6.358,6.358,0,0,0-4.63-2.031l-.068.049c-2.562,1.758-25.724,17.342-52.53,25.1" transform="translate(-96.437 -407.517)" fill="#34234d"/>
      <path id="패스_8317" data-name="패스 8317" d="M401.469,516.945a9.132,9.132,0,0,1-2.186.149,6.3,6.3,0,0,1-5.949-3.847c-2.983-7.257-.7-9.653-.135-10.108.078-.058.121-.086.121-.086,8.714.153,8.149,13.891,8.149,13.891" transform="translate(-318.025 -408.297)" fill="#fff" fill-rule="evenodd"/>
      <path id="패스_8318" data-name="패스 8318" d="M399,516.5c-.147,0-.3,0-.46-.011a6.446,6.446,0,0,1-6.108-3.958c-3.056-7.434-.6-9.9-.081-10.318.089-.067.135-.1.135-.1l.046-.03h.056a6.715,6.715,0,0,1,4.945,2.147c3.668,3.89,3.4,11.606,3.381,11.932l-.006.138-.135.03A8.843,8.843,0,0,1,399,516.5m-6.361-14.05-.068.049c-.482.387-2.763,2.7.2,9.894a6.106,6.106,0,0,0,5.789,3.735,9.552,9.552,0,0,0,2-.119c.02-1.082.01-8.031-3.287-11.527a6.358,6.358,0,0,0-4.63-2.032" transform="translate(-317.291 -407.516)" fill="#34234d"/>
      <path id="패스_8319" data-name="패스 8319" d="M405.745,514.591a3.009,3.009,0,0,0,.007.447c.014.156.035.314.059.473v.006a7.966,7.966,0,0,1,.144,2.3,5.037,5.037,0,0,1-.452,1.767,1.837,1.837,0,0,1-.913.95,1.294,1.294,0,0,1-1.223-.247l.019.014a6.861,6.861,0,0,1-1.764-2.562,5.962,5.962,0,0,1-.43-1.6,3.364,3.364,0,0,1,.108-1.365l-.026.064c.2-.353.388-.676.6-.727l-.188-.049a2.365,2.365,0,0,0,.633.306,1.984,1.984,0,0,1,.481.222.424.424,0,0,1,.085.07.353.353,0,0,1,.057.065c.019.018.02.042.035.055s.017.044.027.075.02.069.029.115.015.1.025.152l.014.177c0,.027.006.067.006.082s0,.016,0,.011a.115.115,0,0,1,.018-.053c.012-.016.02-.014.009-.014a.417.417,0,0,1-.164-.047c-.157-.067-.349-.187-.568-.27a.725.725,0,0,0-.364-.053.464.464,0,0,0-.35.343,1.832,1.832,0,0,0-.069.668,5.128,5.128,0,0,0,.07.607l-.007-.046a5.265,5.265,0,0,0,.4,1.453,3.773,3.773,0,0,0,.741,1.115c.067.07.131.124.2.184a1,1,0,0,0,.208.143l.2.1a1.856,1.856,0,0,0,.191.063,1.267,1.267,0,0,0,.371.049,1.046,1.046,0,0,0,.338-.091,1.245,1.245,0,0,0,.538-.521,2.818,2.818,0,0,0,.328-.865,6.485,6.485,0,0,0,.03-2.338l0-.024,0-.018a9.151,9.151,0,0,0-1.582-3.584,3.352,3.352,0,0,0-2.19-1.531,1.34,1.34,0,0,0-.945.274,2.351,2.351,0,0,0-.671.924,5.064,5.064,0,0,0-.326,1.419,9.043,9.043,0,0,0,.044,1.72V515c.039.467.07.936.141,1.416-.041-.469-.041-.915-.049-1.366v-.007a8.049,8.049,0,0,1,.052-1.578,4.291,4.291,0,0,1,.377-1.219,1.41,1.41,0,0,1,1.51-.859,2.068,2.068,0,0,1,.941.465,4.452,4.452,0,0,1,.908.977,7.645,7.645,0,0,1,1.224,2.9l-.007-.042a4.789,4.789,0,0,1-.053,1.756,1.31,1.31,0,0,1-.643.965.761.761,0,0,1-.229.059.907.907,0,0,1-.252-.04,1.306,1.306,0,0,1-.129-.043l-.127-.068a.459.459,0,0,1-.118-.08,1.6,1.6,0,0,1-.123-.115,2.39,2.39,0,0,1-.614-1.388l0-.025,0-.021a1.525,1.525,0,0,1-.03-.5c0-.008,0-.013.039-.021a.367.367,0,0,1,.167.029c.148.051.33.161.542.252a.745.745,0,0,0,.374.075.322.322,0,0,0,.227-.144.812.812,0,0,0,.119-.4,2.092,2.092,0,0,0,0-.211c0-.061-.007-.1-.011-.151-.008-.1-.015-.192-.026-.293l-.056-.331c-.023-.115-.062-.246-.1-.367s-.1-.261-.154-.384a2.63,2.63,0,0,0-.2-.335,1.605,1.605,0,0,0-.209-.24,1.245,1.245,0,0,0-.194-.159,2.432,2.432,0,0,0-.627-.292,2.018,2.018,0,0,1-.474-.208l-.108-.075-.08.026a1,1,0,0,0-.481.409,5,5,0,0,0-.319.556l-.018.033-.009.031a4.9,4.9,0,0,0-.114,1.952,7.844,7.844,0,0,0,.608,2.154,9.177,9.177,0,0,0,1,1.739,5.94,5.94,0,0,0,1.152,1.214l.014.011.005,0a1.42,1.42,0,0,0,1.453.152,2.223,2.223,0,0,0,.956-1.216,6.085,6.085,0,0,0,.378-2.026,8.641,8.641,0,0,0-.287-2.459l0,.006c-.033-.158-.064-.315-.087-.471a3.336,3.336,0,0,1-.037-.457" transform="translate(-324.219 -414.473)" fill="#dbdbdb"/>
    </g>
    <g id="그룹_5408" data-name="그룹 5408">
      <path id="패스_8320" data-name="패스 8320" d="M183.345,453.907c-4.785-6.344-4.889-24.24-4.819-24.566-.247-.105-.558-.84-1.3-1.14l1.622-2.648s-2.226-3.832-2.726-4.07-6.9-3.209-6.9-3.209-5.915,3.248-8.429,6.443c-2.494,9.119,17.4,31.845,17.562,32.019Z" transform="translate(-130.336 -339.486)" fill="#fff"/>
      <path id="패스_8321" data-name="패스 8321" d="M177.629,456.136l-.09-.095c-.2-.216-20.106-23.024-17.6-32.179l.03-.059c2.506-3.185,8.421-6.454,8.48-6.486l.075-.041.077.036c.064.03,6.4,2.974,6.9,3.21.52.249,2.423,3.49,2.8,4.137l.05.087-1.576,2.574a2.876,2.876,0,0,1,.873.793,1.257,1.257,0,0,0,.248.265l.128.054-.03.136c-.019.147-.015,18.06,4.789,24.429l.115.153Zm-17.378-32.153c-2.324,8.718,16.015,30.093,17.445,31.729l4.7-2.668c-4.51-6.246-4.752-22.793-4.739-24.42a1.955,1.955,0,0,1-.277-.3,2.354,2.354,0,0,0-.916-.776l-.183-.075,1.672-2.731a23.764,23.764,0,0,0-2.6-3.917c-.464-.222-6.086-2.833-6.816-3.173-.687.386-5.959,3.4-8.283,6.332" transform="translate(-129.633 -338.677)" fill="#34234d"/>
      <path id="패스_8325" data-name="패스 8325" d="M258.162,610.387s.084-1.147.086-1.91-.2-1.246-1.229-2.009-3.077-2.956-4.338-2.98-4.656-.015-5.129,3.44,2.543,8.173,3.5,6.145c0,0,1.055,1.954,2.388.236,0,0,1.968,1.478,2.487-.563,0,0,2.81,1.714,2.24-2.358" transform="translate(-200.881 -489.81)" fill="#fff"/>
      <path id="패스_8326" data-name="패스 8326" d="M251.592,613.468c-.03,0-.06,0-.09,0a1.755,1.755,0,0,1-1.172-.789.77.77,0,0,1-.882.3c-1.28-.379-3.176-3.945-2.786-6.786.335-2.442,2.111-3.634,5.3-3.585.987.019,2.349,1.216,3.443,2.178.388.342.724.636.992.835,1.1.814,1.3,1.361,1.3,2.144,0,.708-.074,1.755-.085,1.9.2,1.418.005,2.328-.567,2.7a1.86,1.86,0,0,1-1.74-.094,1.367,1.367,0,0,1-.811.935,2.213,2.213,0,0,1-1.745-.391,1.554,1.554,0,0,1-1.153.649m-1.279-1.482.158.292c0,.008.443.8,1.059.852.339.033.7-.187,1.049-.64l.1-.13.132.1c.009.007.905.669,1.566.434a1.164,1.164,0,0,0,.658-.9l.056-.22.194.118c.009.006.983.589,1.571.2.45-.3.593-1.123.415-2.394l0-.017v-.018c0-.011.084-1.15.085-1.9,0-.7-.166-1.136-1.161-1.874-.279-.207-.62-.506-1.014-.852-1-.877-2.363-2.078-3.228-2.095-1.113-.019-4.5-.088-4.959,3.3-.363,2.645,1.4,6.078,2.549,6.419.171.051.424.069.63-.368Z" transform="translate(-200.158 -489.096)" fill="#34234d"/>
      <path id="패스_8327" data-name="패스 8327" d="M290.326,640.648a6.461,6.461,0,0,0-.412-2.785,5.675,5.675,0,0,0,.052,1.415,5.738,5.738,0,0,0,.36,1.371" transform="translate(-235.286 -517.713)" fill="#34234d"/>
      <path id="패스_8328" data-name="패스 8328" d="M276.354,639.549a13.489,13.489,0,0,0-.19-1.882c-.1-.62-.216-1.23-.373-1.851a4.76,4.76,0,0,0-.034.955,9,9,0,0,0,.1.945,8.288,8.288,0,0,0,.5,1.833" transform="translate(-223.807 -516.052)" fill="#34234d"/>
      <path id="패스_8329" data-name="패스 8329" d="M262.787,643.837c-.116-.435-.253-.832-.374-1.239-.066-.2-.123-.4-.184-.61s-.116-.412-.2-.626a2.61,2.61,0,0,0,.084,1.327,3.144,3.144,0,0,0,.264.614,2.11,2.11,0,0,0,.406.533" transform="translate(-212.634 -520.554)" fill="#34234d"/>
    </g>
    <g id="그룹_5409" data-name="그룹 5409">
      <path id="패스_8322" data-name="패스 8322" d="M233.069,381.711c-.528-2.775-3.135-6.485-9.152-6.009s-19.357,2.489-28.441,7.036a40.16,40.16,0,0,0,14.149,16.93s12.925-4.773,17.869-7.622,6.157-7.273,5.574-10.334" transform="translate(-158.656 -304.9)" fill="#fff"/>
      <path id="패스_8323" data-name="패스 8323" d="M208.6,399.082l-.078-.052A40.71,40.71,0,0,1,194.3,382.014l-.061-.156.15-.075c8.99-4.5,22.15-6.552,28.508-7.054s8.867,3.635,9.347,6.158c.575,3.02-.563,7.589-5.663,10.528-4.9,2.824-17.768,7.588-17.9,7.636Zm-13.89-17.047a40.458,40.458,0,0,0,13.937,16.637c1.146-.426,13.092-4.89,17.754-7.577,4.932-2.843,6.037-7.239,5.485-10.14-.568-2.985-3.252-6.309-8.956-5.861-6.3.5-19.284,2.519-28.219,6.941" transform="translate(-157.655 -304.109)" fill="#34234d"/>
      <path id="패스_8324" data-name="패스 8324" d="M251.445,396.522a9.627,9.627,0,0,1,8.117-7.626l.063.389a9.22,9.22,0,0,0-7.79,7.3Z" transform="translate(-204.082 -315.643)" fill="#34234d"/>
      <path id="패스_8330" data-name="패스 8330" d="M249.631,473.271l-.1-.065a39,39,0,0,1-4.727-3.726l.332-.352a38.769,38.769,0,0,0,4.558,3.607c1.279-.466,12.94-4.742,16.141-6.72l.254.411c-3.414,2.109-15.818,6.614-16.344,6.8Z" transform="translate(-198.691 -378.234)" fill="#34234d"/>
    </g>
    <path id="패스_8369" data-name="패스 8369" d="M253.136,585.866s1.314,3.363,2.2,3.331l-2.214-.012-2.6,1.387-1.191.319s.049-.189-.332-.567.834-4.2.834-4.2l1.658-1.345Z" transform="translate(-202.036 -474.629)" fill="#fff"/>
  </g>
</svg>
