<svg xmlns="http://www.w3.org/2000/svg" xmlns:xlink="http://www.w3.org/1999/xlink" width="58" height="82" viewBox="0 0 58 82">
  <defs>
    <clipPath id="clip-path">
      <rect id="사각형_4118" data-name="사각형 4118" width="58" height="82" transform="translate(42 -3.382)" fill="#fff"/>
    </clipPath>
  </defs>
  <g id="documents" transform="translate(-42 3.382)">
    <g id="마스크_그룹_21" data-name="마스크 그룹 21" clip-path="url(#clip-path)">
      <g id="그룹_5454" data-name="그룹 5454" transform="translate(0 1)">
        <path id="패스_8445" data-name="패스 8445" d="M315.77,1.324H268.948a2.716,2.716,0,0,0-2.716,2.716V7.206h52.253V4.04a2.715,2.715,0,0,0-2.715-2.716" transform="translate(-221.688 -1.103)" fill="#65efe5"/>
        <path id="패스_8446" data-name="패스 8446" d="M283.9,19.305a.411.411,0,1,0,.411.411.411.411,0,0,0-.411-.411" transform="translate(-236.055 -16.075)" fill="#fff"/>
        <path id="패스_8447" data-name="패스 8447" d="M294.273,19.305a.411.411,0,1,0,.411.411.411.411,0,0,0-.411-.411" transform="translate(-244.694 -16.075)" fill="#fff"/>
        <path id="패스_8448" data-name="패스 8448" d="M304.648,19.305a.411.411,0,1,0,.411.411.411.411,0,0,0-.411-.411" transform="translate(-253.333 -16.075)" fill="#fff"/>
        <path id="패스_8449" data-name="패스 8449" d="M293.149,369.891l-.019-.922h-4.618l.019.922Z" transform="translate(-240.24 -307.237)" fill="#312113"/>
        <path id="패스_8450" data-name="패스 8450" d="M297.719,353.3l-.019-.922h-9.764l.02.922Z" transform="translate(-239.76 -293.424)" fill="#312113"/>
        <path id="패스_8451" data-name="패스 8451" d="M295.016,336.715l-.019-.923h-7.834l.02.923Z" transform="translate(-239.116 -279.611)" fill="#312113"/>
        <path id="패스_8452" data-name="패스 8452" d="M320.37,369.891l-.019-.922h-1.4l.019.922Z" transform="translate(-265.585 -307.237)" fill="#312113"/>
        <path id="패스_8453" data-name="패스 8453" d="M357.962,369.891l-.019-.922h-4.618l.019.922Z" transform="translate(-294.209 -307.237)" fill="#312113"/>
        <path id="패스_8454" data-name="패스 8454" d="M362.532,353.3l-.019-.922H352.75l.02.922Z" transform="translate(-293.73 -293.424)" fill="#312113"/>
        <path id="패스_8455" data-name="패스 8455" d="M359.832,336.715l-.019-.923h-7.833l.019.923Z" transform="translate(-293.088 -279.611)" fill="#312113"/>
        <path id="패스_8456" data-name="패스 8456" d="M385.184,369.891l-.02-.922h-1.4l.019.922Z" transform="translate(-319.554 -307.237)" fill="#312113"/>
        <path id="패스_8457" data-name="패스 8457" d="M292.755,320.729l-.019-.922h-4.618l.02.922Z" transform="translate(-239.911 -266.3)" fill="#312113"/>
        <path id="패스_8458" data-name="패스 8458" d="M297.327,304.141l-.02-.922h-9.763l.019.922Z" transform="translate(-239.434 -252.488)" fill="#312113"/>
        <path id="패스_8459" data-name="패스 8459" d="M294.624,287.553l-.019-.922h-7.834l.02.922Z" transform="translate(-238.79 -238.675)" fill="#312113"/>
        <path id="패스_8460" data-name="패스 8460" d="M319.977,320.729l-.019-.922h-1.4l.019.922Z" transform="translate(-265.258 -266.3)" fill="#312113"/>
        <path id="패스_8461" data-name="패스 8461" d="M357.568,320.729l-.019-.922h-4.618l.02.922Z" transform="translate(-293.881 -266.3)" fill="#ff8376"/>
        <path id="패스_8462" data-name="패스 8462" d="M362.141,304.141l-.02-.922h-9.763l.019.922Z" transform="translate(-293.404 -252.488)" fill="#312113"/>
        <path id="패스_8463" data-name="패스 8463" d="M359.437,287.553l-.019-.922h-7.834l.019.922Z" transform="translate(-292.76 -238.675)" fill="#fff"/>
        <path id="패스_8464" data-name="패스 8464" d="M384.789,320.729l-.019-.922h-1.4l.02.922Z" transform="translate(-319.226 -266.3)" fill="#312113"/>
        <path id="패스_8465" data-name="패스 8465" d="M292.363,271.567l-.02-.922h-4.617l.019.922Z" transform="translate(-239.585 -225.364)" fill="#312113"/>
        <path id="패스_8466" data-name="패스 8466" d="M296.933,254.979l-.019-.922H287.15l.019.922Z" transform="translate(-239.106 -211.551)" fill="#312113"/>
        <path id="패스_8467" data-name="패스 8467" d="M294.232,238.39l-.019-.923h-7.834l.019.923Z" transform="translate(-238.463 -197.737)" fill="#312113"/>
        <path id="패스_8468" data-name="패스 8468" d="M319.584,271.567l-.019-.922h-1.4l.019.922Z" transform="translate(-264.93 -225.364)" fill="#312113"/>
        <path id="패스_8469" data-name="패스 8469" d="M357.176,271.567l-.019-.922H352.54l.019.922Z" transform="translate(-293.555 -225.364)" fill="#312113"/>
        <path id="패스_8470" data-name="패스 8470" d="M361.746,254.979l-.019-.922h-9.764l.019.922Z" transform="translate(-293.076 -211.551)" fill="#312113"/>
        <path id="패스_8471" data-name="패스 8471" d="M359.045,238.39l-.019-.923h-7.834l.019.923Z" transform="translate(-292.433 -197.737)" fill="#312113"/>
        <path id="패스_8472" data-name="패스 8472" d="M384.4,271.567l-.019-.922h-1.4l.019.922Z" transform="translate(-318.899 -225.364)" fill="#312113"/>
        <path id="패스_8473" data-name="패스 8473" d="M291.969,222.405l-.019-.922h-4.618l.02.922Z" transform="translate(-239.257 -184.427)" fill="#312113"/>
        <path id="패스_8474" data-name="패스 8474" d="M296.541,205.817l-.019-.922h-9.763l.019.922Z" transform="translate(-238.779 -170.614)" fill="#312113"/>
        <path id="패스_8475" data-name="패스 8475" d="M319.192,222.405l-.02-.922h-1.4l.019.922Z" transform="translate(-264.604 -184.427)" fill="#312113"/>
        <path id="패스_8476" data-name="패스 8476" d="M356.782,222.405l-.019-.922h-4.618l.019.922Z" transform="translate(-293.227 -184.427)" fill="#312113"/>
        <path id="패스_8477" data-name="패스 8477" d="M361.354,205.817l-.019-.922h-9.763l.019.922Z" transform="translate(-292.749 -170.614)" fill="#312113"/>
        <path id="패스_8478" data-name="패스 8478" d="M358.651,189.229l-.019-.922H350.8l.02.922Z" transform="translate(-292.104 -156.801)" fill="#312113"/>
        <path id="패스_8479" data-name="패스 8479" d="M384.005,222.405l-.019-.922h-1.4l.019.922Z" transform="translate(-318.573 -184.427)" fill="#312113"/>
        <path id="패스_8480" data-name="패스 8480" d="M291.576,173.243l-.019-.922h-4.618l.019.922Z" transform="translate(-238.93 -143.49)" fill="#312113"/>
        <path id="패스_8481" data-name="패스 8481" d="M296.149,156.654l-.019-.922h-9.763l.019.922Z" transform="translate(-238.453 -129.677)" fill="#312113"/>
        <path id="패스_8482" data-name="패스 8482" d="M293.446,140.067l-.019-.922h-7.834l.019.922Z" transform="translate(-237.809 -115.865)" fill="#312113"/>
        <path id="패스_8483" data-name="패스 8483" d="M318.8,173.243l-.019-.922h-1.4l.019.922Z" transform="translate(-264.275 -143.49)" fill="#312113"/>
        <path id="패스_8484" data-name="패스 8484" d="M356.389,173.243l-.019-.922h-4.618l.019.922Z" transform="translate(-292.9 -143.49)" fill="#312113"/>
        <path id="패스_8485" data-name="패스 8485" d="M360.96,156.654l-.019-.922h-9.764l.02.922Z" transform="translate(-292.42 -129.677)" fill="#312113"/>
        <path id="패스_8486" data-name="패스 8486" d="M358.259,140.067l-.019-.922h-7.833l.019.922Z" transform="translate(-291.779 -115.865)" fill="#312113"/>
        <path id="패스_8487" data-name="패스 8487" d="M383.611,173.243l-.02-.922h-1.4l.019.922Z" transform="translate(-318.245 -143.49)" fill="#312113"/>
        <path id="패스_8488" data-name="패스 8488" d="M291.182,124.081l-.019-.922h-4.618l.02.922Z" transform="translate(-238.602 -102.553)" fill="#312113"/>
        <path id="패스_8489" data-name="패스 8489" d="M295.755,107.492l-.02-.922h-9.763l.019.922Z" transform="translate(-238.125 -88.74)" fill="#312113"/>
        <path id="패스_8490" data-name="패스 8490" d="M293.052,90.9l-.02-.922H285.2l.02.922Z" transform="translate(-237.48 -74.927)" fill="#312113"/>
        <path id="패스_8491" data-name="패스 8491" d="M318.4,124.081l-.019-.922h-1.4l.019.922Z" transform="translate(-263.949 -102.553)" fill="#312113"/>
        <path id="패스_8492" data-name="패스 8492" d="M356,124.081l-.019-.922h-4.618l.02.922Z" transform="translate(-292.571 -102.553)" fill="#312113"/>
        <path id="패스_8493" data-name="패스 8493" d="M360.568,107.492l-.02-.922h-9.763l.019.922Z" transform="translate(-292.094 -88.74)" fill="#312113"/>
        <path id="패스_8494" data-name="패스 8494" d="M357.865,90.9l-.019-.922h-7.834l.019.922Z" transform="translate(-291.45 -74.927)" fill="#312113"/>
        <path id="패스_8495" data-name="패스 8495" d="M383.218,124.081l-.019-.922h-1.4l.019.922Z" transform="translate(-317.918 -102.553)" fill="#312113"/>
        <path id="패스_8496" data-name="패스 8496" d="M290.791,74.919l-.02-.922h-4.617l.019.922Z" transform="translate(-238.276 -61.616)" fill="#312113"/>
        <path id="패스_8497" data-name="패스 8497" d="M295.363,58.331l-.019-.922H285.58l.019.922Z" transform="translate(-237.798 -47.804)" fill="#312113"/>
        <path id="패스_8498" data-name="패스 8498" d="M318.011,74.919,317.992,74h-1.4l.02.922Z" transform="translate(-263.621 -61.616)" fill="#312113"/>
        <path id="패스_8499" data-name="패스 8499" d="M355.6,74.919l-.02-.922h-4.617l.019.922Z" transform="translate(-292.246 -61.616)" fill="#312113"/>
        <path id="패스_8500" data-name="패스 8500" d="M360.174,58.331l-.019-.922h-9.764l.019.922Z" transform="translate(-291.766 -47.804)" fill="#312113"/>
        <path id="패스_8501" data-name="패스 8501" d="M382.824,74.919,382.805,74h-1.4l.02.922Z" transform="translate(-317.59 -61.616)" fill="#312113"/>
        <path id="패스_8502" data-name="패스 8502" d="M439.545,369.891l-.019-.922h-4.618l.02.922Z" transform="translate(-362.143 -307.237)" fill="#312113"/>
        <path id="패스_8503" data-name="패스 8503" d="M444.117,353.3l-.019-.922h-9.763l.019.922Z" transform="translate(-361.666 -293.424)" fill="#312113"/>
        <path id="패스_8504" data-name="패스 8504" d="M441.414,336.715l-.019-.923h-7.834l.019.923Z" transform="translate(-361.021 -279.611)" fill="#312113"/>
        <path id="패스_8505" data-name="패스 8505" d="M466.766,369.891l-.019-.922h-1.4l.019.922Z" transform="translate(-387.487 -307.237)" fill="#312113"/>
        <path id="패스_8506" data-name="패스 8506" d="M504.358,369.891l-.019-.922h-4.618l.019.922Z" transform="translate(-416.112 -307.237)" fill="#312113"/>
        <path id="패스_8507" data-name="패스 8507" d="M508.931,353.3l-.02-.922h-9.763l.019.922Z" transform="translate(-415.635 -293.424)" fill="#312113"/>
        <path id="패스_8508" data-name="패스 8508" d="M506.228,336.715l-.019-.923h-7.834l.019.923Z" transform="translate(-414.991 -279.611)" fill="#312113"/>
        <path id="패스_8509" data-name="패스 8509" d="M531.58,369.891l-.019-.922h-1.4l.019.922Z" transform="translate(-441.457 -307.237)" fill="#312113"/>
        <path id="패스_8510" data-name="패스 8510" d="M439.153,320.729l-.019-.922h-4.617l.019.922Z" transform="translate(-361.816 -266.3)" fill="#312113"/>
        <path id="패스_8511" data-name="패스 8511" d="M443.723,304.141l-.019-.922h-9.764l.019.922Z" transform="translate(-361.337 -252.488)" fill="#312113"/>
        <path id="패스_8512" data-name="패스 8512" d="M441.02,287.553l-.02-.922h-7.834l.02.922Z" transform="translate(-360.693 -238.675)" fill="#312113"/>
        <path id="패스_8513" data-name="패스 8513" d="M466.374,320.729l-.019-.922h-1.4l.019.922Z" transform="translate(-387.161 -266.3)" fill="#312113"/>
        <path id="패스_8514" data-name="패스 8514" d="M503.966,320.729l-.019-.922H499.33l.019.922Z" transform="translate(-415.786 -266.3)" fill="#312113"/>
        <path id="패스_8515" data-name="패스 8515" d="M508.537,304.141l-.019-.922h-9.764l.019.922Z" transform="translate(-415.307 -252.488)" fill="#ff8376"/>
        <path id="패스_8516" data-name="패스 8516" d="M505.834,287.553l-.02-.922H497.98l.02.922Z" transform="translate(-414.663 -238.675)" fill="#fff"/>
        <path id="패스_8517" data-name="패스 8517" d="M531.187,320.729l-.019-.922h-1.4l.019.922Z" transform="translate(-441.13 -266.3)" fill="#312113"/>
        <path id="패스_8518" data-name="패스 8518" d="M438.759,271.567l-.02-.922h-4.617l.019.922Z" transform="translate(-361.488 -225.364)" fill="#312113"/>
        <path id="패스_8519" data-name="패스 8519" d="M443.331,254.979l-.019-.922h-9.763l.019.922Z" transform="translate(-361.01 -211.551)" fill="#312113"/>
        <path id="패스_8520" data-name="패스 8520" d="M440.628,238.39l-.019-.923h-7.834l.019.923Z" transform="translate(-360.366 -197.737)" fill="#312113"/>
        <path id="패스_8521" data-name="패스 8521" d="M465.979,271.567l-.019-.922h-1.4l.02.922Z" transform="translate(-386.833 -225.364)" fill="#312113"/>
        <path id="패스_8522" data-name="패스 8522" d="M503.572,271.567l-.02-.922h-4.617l.019.922Z" transform="translate(-415.458 -225.364)" fill="#312113"/>
        <path id="패스_8523" data-name="패스 8523" d="M508.143,254.979l-.019-.922H498.36l.019.922Z" transform="translate(-414.978 -211.551)" fill="#312113"/>
        <path id="패스_8524" data-name="패스 8524" d="M505.441,238.39l-.019-.923h-7.834l.019.923Z" transform="translate(-414.335 -197.737)" fill="#312113"/>
        <path id="패스_8525" data-name="패스 8525" d="M530.793,271.567l-.019-.922h-1.4l.02.922Z" transform="translate(-440.802 -225.364)" fill="#312113"/>
        <path id="패스_8526" data-name="패스 8526" d="M441.414,435.318l-.019-.923h-7.834l.019.923Z" transform="translate(-361.021 -361.717)" fill="#312113"/>
        <path id="패스_8527" data-name="패스 8527" d="M506.228,435.318l-.019-.923h-7.834l.019.923Z" transform="translate(-414.991 -361.717)" fill="#312113"/>
        <path id="패스_8528" data-name="패스 8528" d="M439.153,419.332l-.019-.922h-4.617l.019.922Z" transform="translate(-361.816 -348.406)" fill="#312113"/>
        <path id="패스_8529" data-name="패스 8529" d="M443.723,402.744l-.019-.922h-9.764l.019.922Z" transform="translate(-361.337 -334.594)" fill="#312113"/>
        <path id="패스_8530" data-name="패스 8530" d="M441.02,386.156l-.02-.922h-7.834l.02.922Z" transform="translate(-360.693 -320.781)" fill="#312113"/>
        <path id="패스_8531" data-name="패스 8531" d="M466.374,419.332l-.019-.922h-1.4l.019.922Z" transform="translate(-387.161 -348.406)" fill="#312113"/>
        <path id="패스_8532" data-name="패스 8532" d="M503.966,419.332l-.019-.922H499.33l.019.922Z" transform="translate(-415.786 -348.406)" fill="#312113"/>
        <path id="패스_8533" data-name="패스 8533" d="M508.537,402.744l-.019-.922h-9.764l.019.922Z" transform="translate(-415.307 -334.594)" fill="#ff8376"/>
        <path id="패스_8534" data-name="패스 8534" d="M505.834,386.156l-.02-.922H497.98l.02.922Z" transform="translate(-414.663 -320.781)" fill="#fff"/>
        <path id="패스_8535" data-name="패스 8535" d="M531.187,419.332l-.019-.922h-1.4l.019.922Z" transform="translate(-441.13 -348.406)" fill="#312113"/>
        <path id="패스_8536" data-name="패스 8536" d="M438.366,222.405l-.019-.922H433.73l.019.922Z" transform="translate(-361.161 -184.427)" fill="#312113"/>
        <path id="패스_8537" data-name="패스 8537" d="M442.937,205.817l-.019-.922h-9.764l.02.922Z" transform="translate(-360.682 -170.614)" fill="#312113"/>
        <path id="패스_8538" data-name="패스 8538" d="M465.588,222.405l-.02-.922h-1.4l.019.922Z" transform="translate(-386.506 -184.427)" fill="#312113"/>
        <path id="패스_8539" data-name="패스 8539" d="M503.18,222.405l-.019-.922h-4.618l.019.922Z" transform="translate(-415.131 -184.427)" fill="#312113"/>
        <path id="패스_8540" data-name="패스 8540" d="M507.75,205.817l-.019-.922h-9.764l.02.922Z" transform="translate(-414.651 -170.614)" fill="#312113"/>
        <path id="패스_8541" data-name="패스 8541" d="M505.05,189.229l-.019-.922H497.2l.019.922Z" transform="translate(-414.01 -156.801)" fill="#312113"/>
        <path id="패스_8542" data-name="패스 8542" d="M530.4,222.405l-.02-.922h-1.4l.019.922Z" transform="translate(-440.476 -184.427)" fill="#312113"/>
        <path id="패스_8543" data-name="패스 8543" d="M437.972,173.243l-.019-.922h-4.618l.02.922Z" transform="translate(-360.833 -143.49)" fill="#312113"/>
        <path id="패스_8544" data-name="패스 8544" d="M442.545,156.654l-.02-.922h-9.763l.019.922Z" transform="translate(-360.356 -129.677)" fill="#312113"/>
        <path id="패스_8545" data-name="패스 8545" d="M439.842,140.067l-.019-.922h-7.834l.019.922Z" transform="translate(-359.712 -115.865)" fill="#312113"/>
        <path id="패스_8546" data-name="패스 8546" d="M465.193,173.243l-.019-.922h-1.4l.019.922Z" transform="translate(-386.178 -143.49)" fill="#312113"/>
        <path id="패스_8547" data-name="패스 8547" d="M502.786,173.243l-.019-.922h-4.618l.019.922Z" transform="translate(-414.802 -143.49)" fill="#312113"/>
        <path id="패스_8548" data-name="패스 8548" d="M507.359,156.654l-.02-.922h-9.763l.019.922Z" transform="translate(-414.326 -129.677)" fill="#312113"/>
        <path id="패스_8549" data-name="패스 8549" d="M504.656,140.067l-.02-.922H496.8l.019.922Z" transform="translate(-413.681 -115.865)" fill="#fff"/>
        <path id="패스_8550" data-name="패스 8550" d="M530.007,173.243l-.019-.922h-1.4l.019.922Z" transform="translate(-440.147 -143.49)" fill="#312113"/>
        <path id="패스_8551" data-name="패스 8551" d="M437.581,124.081l-.02-.922h-4.617l.019.922Z" transform="translate(-360.507 -102.553)" fill="#312113"/>
        <path id="패스_8552" data-name="패스 8552" d="M442.151,107.492l-.019-.922h-9.764l.019.922Z" transform="translate(-360.027 -88.74)" fill="#312113"/>
        <path id="패스_8553" data-name="패스 8553" d="M439.448,90.9l-.019-.922h-7.834l.02.922Z" transform="translate(-359.383 -74.927)" fill="#312113"/>
        <path id="패스_8554" data-name="패스 8554" d="M464.8,124.081l-.019-.922h-1.4l.019.922Z" transform="translate(-385.852 -102.553)" fill="#312113"/>
        <path id="패스_8555" data-name="패스 8555" d="M502.394,124.081l-.019-.922h-4.617l.019.922Z" transform="translate(-414.477 -102.553)" fill="#312113"/>
        <path id="패스_8556" data-name="패스 8556" d="M506.964,107.492l-.019-.922h-9.764l.019.922Z" transform="translate(-413.997 -88.74)" fill="#312113"/>
        <path id="패스_8557" data-name="패스 8557" d="M504.261,90.9l-.019-.922h-7.834l.02.922Z" transform="translate(-413.353 -74.927)" fill="#312113"/>
        <path id="패스_8558" data-name="패스 8558" d="M529.615,124.081l-.019-.922h-1.4l.019.922Z" transform="translate(-439.821 -102.553)" fill="#312113"/>
        <path id="패스_8559" data-name="패스 8559" d="M437.186,74.919,437.167,74h-4.618l.019.922Z" transform="translate(-360.178 -61.616)" fill="#312113"/>
        <path id="패스_8560" data-name="패스 8560" d="M441.759,58.331l-.019-.922h-9.763l.019.922Z" transform="translate(-359.701 -47.804)" fill="#312113"/>
        <path id="패스_8561" data-name="패스 8561" d="M464.407,74.919,464.388,74h-1.4l.02.922Z" transform="translate(-385.523 -61.616)" fill="#312113"/>
        <path id="패스_8562" data-name="패스 8562" d="M502,74.919,501.98,74h-4.617l.019.922Z" transform="translate(-414.148 -61.616)" fill="#312113"/>
        <path id="패스_8563" data-name="패스 8563" d="M506.572,58.331l-.019-.922h-9.763l.019.922Z" transform="translate(-413.67 -47.804)" fill="#ff8376"/>
        <path id="패스_8564" data-name="패스 8564" d="M529.22,74.919,529.2,74h-1.4l.02.922Z" transform="translate(-439.493 -61.616)" fill="#312113"/>
        <path id="패스_8565" data-name="패스 8565" d="M317.6,77.086h-.445V2.98a2.543,2.543,0,0,0-2.54-2.54H267.888a2.543,2.543,0,0,0-2.54,2.54V56.19H264.9V2.98A2.988,2.988,0,0,1,267.888,0h46.728A2.988,2.988,0,0,1,317.6,2.98Z" transform="translate(-220.581 0.004)" fill="#312113"/>
      </g>
    </g>
  </g>
</svg>
