<svg xmlns="http://www.w3.org/2000/svg" xmlns:xlink="http://www.w3.org/1999/xlink" width="95" height="95" viewBox="0 0 95 95">
  <defs>
    <clipPath id="clip-path">
      <rect id="사각형_111" data-name="사각형 111" width="63.518" height="59" fill="none"/>
    </clipPath>
  </defs>
  <g id="그룹_296" data-name="그룹 296" transform="translate(-1150 -935)">
    <circle id="타원_8" data-name="타원 8" cx="47.5" cy="47.5" r="47.5" transform="translate(1150 935)" fill="#f2f2f2"/>
    <g id="그룹_126" data-name="그룹 126" transform="translate(1166 953)">
      <path id="패스_244" data-name="패스 244" d="M62.518,22.127,22.213,43.268,1,32.141,41.305,11Z" fill="#e9eaeb"/>
      <g id="그룹_125" data-name="그룹 125">
        <g id="그룹_124" data-name="그룹 124" clip-path="url(#clip-path)">
          <path id="패스_245" data-name="패스 245" d="M62.518,22.127,22.213,43.268,1,32.141,41.305,11Z" fill="none" stroke="#2a5082" stroke-linejoin="round" stroke-width="2"/>
          <path id="패스_246" data-name="패스 246" d="M62.518,27.038,22.213,48.179,1,37.052" fill="none" stroke="#2a5082" stroke-linecap="round" stroke-linejoin="round" stroke-width="2"/>
          <path id="패스_247" data-name="패스 247" d="M62.518,31.948,22.213,53.089,1,41.962" fill="none" stroke="#2a5082" stroke-linecap="round" stroke-linejoin="round" stroke-width="2"/>
          <path id="패스_248" data-name="패스 248" d="M62.518,36.858,22.213,58,1,46.872" fill="none" stroke="#2a5082" stroke-linecap="round" stroke-linejoin="round" stroke-width="2"/>
          <path id="패스_249" data-name="패스 249" d="M51.2,21.385l-8.485-4.451a4.669,4.669,0,0,1-4.243,0L12.3,30.665c1.414.741,1.183,1.6.013,2.218L20.8,37.334a4.646,4.646,0,0,1,4.23.007L51.2,23.61c-1.172-.614-1.414-1.483,0-2.225" fill="#fff"/>
          <path id="패스_250" data-name="패스 250" d="M51.2,21.385l-8.485-4.451a4.669,4.669,0,0,1-4.243,0L12.3,30.665c1.414.741,1.183,1.6.013,2.218L20.8,37.334a4.646,4.646,0,0,1,4.23.007L51.2,23.61C50.032,23,49.79,22.127,51.2,21.385Z" fill="none" stroke="#2a5082" stroke-miterlimit="10" stroke-width="2"/>
          <line id="선_197" data-name="선 197" y2="2" transform="translate(41.759 21)" fill="none" stroke="#2a5082" stroke-miterlimit="10" stroke-width="2"/>
          <line id="선_198" data-name="선 198" y2="2" transform="translate(21.759 31)" fill="none" stroke="#2a5082" stroke-miterlimit="10" stroke-width="2"/>
          <path id="패스_251" data-name="패스 251" d="M36.759,35.448,14.759,23l10-5,23,11.973V46l-11,5.923Z" fill="#a3d4ff"/>
          <path id="패스_252" data-name="패스 252" d="M36.759,35.448,14.759,23l10-5,23,11.973V46l-11,5.923Z" fill="none" stroke="#2a5082" stroke-linejoin="round" stroke-width="2"/>
          <line id="선_199" data-name="선 199" y2="6" transform="translate(15.759 11)" fill="none" stroke="#bcc0c4" stroke-miterlimit="10" stroke-width="2"/>
          <line id="선_200" data-name="선 200" x1="6" transform="translate(12.759 14)" fill="none" stroke="#bcc0c4" stroke-miterlimit="10" stroke-width="2"/>
          <line id="선_201" data-name="선 201" y2="6" transform="translate(23.759)" fill="none" stroke="#bcc0c4" stroke-miterlimit="10" stroke-width="2"/>
          <line id="선_202" data-name="선 202" x1="6" transform="translate(20.759 3)" fill="none" stroke="#bcc0c4" stroke-miterlimit="10" stroke-width="2"/>
        </g>
      </g>
    </g>
  </g>
</svg>
