<svg xmlns="http://www.w3.org/2000/svg" xmlns:xlink="http://www.w3.org/1999/xlink" width="95" height="95" viewBox="0 0 95 95">
  <defs>
    <clipPath id="clip-path">
      <rect id="사각형_107" data-name="사각형 107" width="59" height="47" fill="none"/>
    </clipPath>
  </defs>
  <g id="그룹_299" data-name="그룹 299" transform="translate(-1150 -935)">
    <circle id="타원_8" data-name="타원 8" cx="47.5" cy="47.5" r="47.5" transform="translate(1150 935)" fill="#f2f2f2"/>
    <g id="그룹_119" data-name="그룹 119" transform="translate(1172 959)">
      <path id="패스_221" data-name="패스 221" d="M43,29l8-8V20H13.167L9,33" fill="none" stroke="#2a5082" stroke-miterlimit="10" stroke-width="2"/>
      <g id="그룹_118" data-name="그룹 118">
        <g id="그룹_117" data-name="그룹 117" clip-path="url(#clip-path)">
          <path id="패스_222" data-name="패스 222" d="M26,10V8L22,4H1V44a2,2,0,0,0,2,2H35.714a3.5,3.5,0,0,0,2.4-1.26L54,30V27H36l-4,3H19.174L6.4,42H5V10Z" fill="#a3d4ff"/>
          <path id="패스_223" data-name="패스 223" d="M26,10V8L22,4H1V44a2,2,0,0,0,2,2H35.714a3.5,3.5,0,0,0,2.4-1.26L54,30V27H36l-4,3H19.174L6.4,42H5V10Z" fill="none" stroke="#2a5082" stroke-miterlimit="10" stroke-width="2"/>
          <path id="패스_224" data-name="패스 224" d="M21,10H48v1l-6,9" fill="none" stroke="#2a5082" stroke-miterlimit="10" stroke-width="2"/>
          <line id="선_178" data-name="선 178" y1="5" transform="translate(47)" fill="none" stroke="#2a5082" stroke-miterlimit="10" stroke-width="2"/>
          <line id="선_179" data-name="선 179" y1="4.125" x2="2.382" transform="translate(50.565 1.516)" fill="none" stroke="#2a5082" stroke-miterlimit="10" stroke-width="2"/>
          <line id="선_180" data-name="선 180" y1="2.382" x2="4.125" transform="translate(53.253 5.946)" fill="none" stroke="#2a5082" stroke-miterlimit="10" stroke-width="2"/>
          <line id="선_181" data-name="선 181" x2="5" transform="translate(54 12)" fill="none" stroke="#2a5082" stroke-miterlimit="10" stroke-width="2"/>
          <line id="선_182" data-name="선 182" x1="2.382" y1="4.125" transform="translate(40.839 1.516)" fill="none" stroke="#2a5082" stroke-miterlimit="10" stroke-width="2"/>
        </g>
      </g>
    </g>
  </g>
</svg>
