<svg xmlns="http://www.w3.org/2000/svg" xmlns:xlink="http://www.w3.org/1999/xlink" width="95" height="95" viewBox="0 0 95 95">
  <defs>
    <clipPath id="clip-path">
      <rect id="사각형_89" data-name="사각형 89" width="43.809" height="59" fill="none"/>
    </clipPath>
  </defs>
  <g id="그룹_295" data-name="그룹 295" transform="translate(-1150 -935)">
    <circle id="타원_8" data-name="타원 8" cx="47.5" cy="47.5" r="47.5" transform="translate(1150 935)" fill="#f2f2f2"/>
    <g id="그룹_92" data-name="그룹 92" transform="translate(1176 955)">
      <g id="그룹_91" data-name="그룹 91" clip-path="url(#clip-path)">
        <path id="패스_157" data-name="패스 157" d="M32.192,35.808a6,6,0,0,0-9.653,6.824L20.171,45v1.414l-.707.707H18.05l-1.414,1.415V49.95l-.708.707H14.514l-2.121,2.121L14.514,54.9h2.829L26.4,45.842a6.022,6.022,0,0,0,4.1-.361,6,6,0,0,0,1.691-9.673" fill="#fff"/>
        <path id="패스_158" data-name="패스 158" d="M27.25,34.091a6,6,0,0,0-4.711,8.541L20.172,45v1.414l-.708.707H18.05l-1.414,1.414V49.95l-.707.707H14.515l-2.122,2.121L14.515,54.9h2.828L26.4,45.842a6.035,6.035,0,0,0,3.6-.153" fill="none" stroke="#2a5082" stroke-linecap="round" stroke-miterlimit="10" stroke-width="2"/>
        <path id="패스_159" data-name="패스 159" d="M42.684,14.983c-.593-.979-6.54-8-8.16-8.5S22.623,3,19,3H9V17h4c.929,2.125,4.387,4.473,5.119,5.082,1.954,1.626,5.948,1.911,7.492,3.077,2.212,1.672,4.032,3.644,6.875,3.677,3.335.039,3.63-2.207,3.273-3.435a4.976,4.976,0,0,0-3.1-3.629c-1.655-.836-3.593-1.513-4.485-3.464a5.622,5.622,0,0,1-.7-3.181,2.344,2.344,0,0,1,2.805-1.692c1.39.2,5.188,4.059,6.121,4.9a15.4,15.4,0,0,0-1,3.935c-.1,4,1.825,6.728,3.153,6.728,2.391,0,2.159-2.9,2.664-5.135.372-1.646,2.061-7.9,1.468-8.882" fill="#fff"/>
        <path id="패스_160" data-name="패스 160" d="M42.684,14.983c-.593-.979-6.54-8-8.16-8.5S22.623,3,19,3H9V17h4c.929,2.125,4.387,4.473,5.119,5.082,1.954,1.626,5.948,1.911,7.492,3.077,2.212,1.672,4.032,3.644,6.875,3.677,3.335.039,3.63-2.207,3.273-3.435a4.976,4.976,0,0,0-3.1-3.629c-1.655-.836-3.593-1.513-4.485-3.464a5.622,5.622,0,0,1-.7-3.181,2.344,2.344,0,0,1,2.805-1.692c1.39.2,5.188,4.059,6.121,4.9a15.4,15.4,0,0,0-1,3.935c-.1,4,1.825,6.728,3.153,6.728,2.391,0,2.159-2.9,2.664-5.135C41.588,22.219,43.277,15.962,42.684,14.983Z" fill="none" stroke="#2a5082" stroke-miterlimit="10" stroke-width="2"/>
        <rect id="사각형_87" data-name="사각형 87" width="8" height="19" transform="translate(1 1)" fill="#a3d4ff"/>
        <rect id="사각형_88" data-name="사각형 88" width="8" height="19" transform="translate(1 1)" fill="none" stroke="#2a5082" stroke-linecap="round" stroke-linejoin="round" stroke-width="2"/>
        <path id="패스_161" data-name="패스 161" d="M36,32a6,6,0,0,0-2,11.651V47l1,1v1l-1,1v2l1,1v1l-1,1v3h3l2-2V43.191A6,6,0,0,0,36,32" fill="#fff"/>
        <path id="패스_162" data-name="패스 162" d="M36,32a6,6,0,0,0-2,11.651V47l1,1v1l-1,1v2l1,1v1l-1,1v3h3l2-2V43.191A6,6,0,0,0,36,32Z" fill="none" stroke="#2a5082" stroke-miterlimit="10" stroke-width="2"/>
        <line id="선_142" data-name="선 142" y1="9" transform="translate(36 27)" fill="none" stroke="#2a5082" stroke-linecap="round" stroke-miterlimit="10" stroke-width="2"/>
      </g>
    </g>
  </g>
</svg>
