<svg xmlns="http://www.w3.org/2000/svg" xmlns:xlink="http://www.w3.org/1999/xlink" width="95" height="95" viewBox="0 0 95 95">
  <defs>
    <clipPath id="clip-path">
      <rect id="사각형_112" data-name="사각형 112" width="58.172" height="55.172" transform="translate(0 0)" fill="none"/>
    </clipPath>
  </defs>
  <g id="그룹_298" data-name="그룹 298" transform="translate(-1150 -935)">
    <circle id="타원_8" data-name="타원 8" cx="47.5" cy="47.5" r="47.5" transform="translate(1150 935)" fill="#f2f2f2"/>
    <g id="그룹_128" data-name="그룹 128" transform="translate(1169 955)">
      <g id="그룹_127" data-name="그룹 127" clip-path="url(#clip-path)">
        <path id="패스_253" data-name="패스 253" d="M28,7H40L56.586,23.586a2,2,0,0,1,0,2.828L29.414,53.586a2,2,0,0,1-2.828,0L5.414,32.414a2,2,0,0,1,0-2.828Z" fill="#fff"/>
        <line id="선_203" data-name="선 203" x1="17" transform="translate(9 46)" fill="none" stroke="#2a5082" stroke-miterlimit="10" stroke-width="2"/>
        <line id="선_204" data-name="선 204" x1="20" transform="translate(0 21)" fill="none" stroke="#2a5082" stroke-miterlimit="10" stroke-width="2"/>
        <path id="패스_254" data-name="패스 254" d="M28,8l6,6,6-6Z" fill="#a3d4ff"/>
        <path id="패스_255" data-name="패스 255" d="M11,24,5.414,29.586a2,2,0,0,0,0,2.828L19,46" fill="none" stroke="#2a5082" stroke-miterlimit="10" stroke-width="2"/>
        <path id="패스_256" data-name="패스 256" d="M22,49l4.586,4.586a2,2,0,0,0,2.829,0L56.585,26.414a2,2,0,0,0,0-2.829L40,7H28L14,21" fill="none" stroke="#2a5082" stroke-miterlimit="10" stroke-width="2"/>
        <path id="패스_257" data-name="패스 257" d="M30,10l4,4,4-4" fill="none" stroke="#2a5082" stroke-miterlimit="10" stroke-width="2"/>
        <line id="선_205" data-name="선 205" x2="11" y2="11" transform="translate(28 20)" fill="none" stroke="#bcc0c4" stroke-miterlimit="10" stroke-width="2"/>
        <line id="선_206" data-name="선 206" x2="11" y2="11" transform="translate(25 23)" fill="none" stroke="#bcc0c4" stroke-miterlimit="10" stroke-width="2"/>
        <line id="선_207" data-name="선 207" x2="8" y2="8" transform="translate(22 26)" fill="none" stroke="#bcc0c4" stroke-miterlimit="10" stroke-width="2"/>
        <line id="선_208" data-name="선 208" x2="20" transform="translate(12 1)" fill="none" stroke="#bcc0c4" stroke-miterlimit="10" stroke-width="2"/>
        <line id="선_209" data-name="선 209" x2="12" transform="translate(44 47)" fill="none" stroke="#bcc0c4" stroke-miterlimit="10" stroke-width="2"/>
        <line id="선_210" data-name="선 210" x1="10" transform="translate(8 9)" fill="none" stroke="#2a5082" stroke-miterlimit="10" stroke-width="2"/>
        <line id="선_211" data-name="선 211" x1="2" transform="translate(4 9)" fill="none" stroke="#2a5082" stroke-miterlimit="10" stroke-width="2"/>
      </g>
    </g>
  </g>
</svg>
