<svg xmlns="http://www.w3.org/2000/svg" xmlns:xlink="http://www.w3.org/1999/xlink" width="95" height="95" viewBox="0 0 95 95">
  <defs>
    <clipPath id="clip-path">
      <rect id="사각형_76" data-name="사각형 76" width="10.333" height="8.12" fill="none" stroke="#2a5082" stroke-width="0.25"/>
    </clipPath>
  </defs>
  <g id="그룹_290" data-name="그룹 290" transform="translate(-1150 -935)">
    <circle id="타원_8" data-name="타원 8" cx="47.5" cy="47.5" r="47.5" transform="translate(1150 935)" fill="#f2f2f2"/>
    <g id="icon" transform="translate(1166.063 951.674)">
      <path id="패스_104" data-name="패스 104" d="M63,31.851s-11.016,13.058-25.609,15.9a28.705,28.705,0,0,1-5.486.54C14.676,48.289,1,31.851,1,31.851S14.676,15.414,31.9,15.414,63,31.851,63,31.851" transform="translate(-0.063 -0.526)" fill="#fff"/>
      <path id="패스_105" data-name="패스 105" d="M63,31.851s-11.016,13.058-25.609,15.9a28.705,28.705,0,0,1-5.486.54C14.676,48.289,1,31.851,1,31.851S14.676,15.414,31.9,15.414,63,31.851,63,31.851Z" transform="translate(-0.063 -0.526)" fill="none" stroke="#2a5082" stroke-linejoin="round" stroke-width="2"/>
      <path id="패스_106" data-name="패스 106" d="M43.25,31.039A11.625,11.625,0,1,1,31.625,19.414,11.624,11.624,0,0,1,43.25,31.039" transform="translate(0.312 0.287)" fill="#a3d4ff"/>
      <path id="패스_107" data-name="패스 107" d="M43.25,31.039A11.625,11.625,0,1,1,31.625,19.414,11.624,11.624,0,0,1,43.25,31.039Z" transform="translate(0.312 0.287)" fill="none" stroke="#2a5082" stroke-linecap="round" stroke-linejoin="round" stroke-width="2"/>
      <path id="패스_108" data-name="패스 108" d="M23.214,29.247a8.733,8.733,0,0,1,6.214-6.517" transform="translate(0.017 -0.004)" fill="#a3d4ff"/>
      <path id="패스_109" data-name="패스 109" d="M23.214,29.247a8.733,8.733,0,0,1,6.214-6.517" transform="translate(0.017 -0.004)" fill="none" stroke="#2a5082" stroke-linecap="round" stroke-linejoin="round" stroke-width="2"/>
      <path id="패스_110" data-name="패스 110" d="M11,15.2V8.414h7.75" transform="translate(-0.016 -0.307)" fill="none" stroke="#2a5082" stroke-miterlimit="10" stroke-width="2"/>
      <path id="패스_111" data-name="패스 111" d="M11,47.414V54.2h7.75" transform="translate(-0.016 0.349)" fill="none" stroke="#2a5082" stroke-miterlimit="10" stroke-width="2"/>
      <path id="패스_112" data-name="패스 112" d="M52.75,15.2V8.414H45" transform="translate(0.141 -0.307)" fill="none" stroke="#2a5082" stroke-miterlimit="10" stroke-width="2"/>
      <path id="패스_113" data-name="패스 113" d="M52.75,47.414V54.2H45" transform="translate(0.141 0.349)" fill="none" stroke="#2a5082" stroke-miterlimit="10" stroke-width="2"/>
      <path id="패스_114" data-name="패스 114" d="M29.81,58.414,26.9,61.32,24,58.414" transform="translate(0.014 0.005)" fill="none" stroke="#bcc0c4" stroke-miterlimit="10" stroke-width="2"/>
      <line id="선_110" data-name="선 110" y1="5.812" transform="translate(26.935 55.513)" fill="none" stroke="#bcc0c4" stroke-miterlimit="10" stroke-width="2"/>
      <path id="패스_115" data-name="패스 115" d="M39.81,53.414,36.9,56.32,34,53.414" transform="translate(0.048 0.162)" fill="none" stroke="#bcc0c4" stroke-miterlimit="10" stroke-width="2"/>
      <line id="선_111" data-name="선 111" y1="5.812" transform="translate(36.935 50.669)" fill="none" stroke="#bcc0c4" stroke-miterlimit="10" stroke-width="2"/>
      <path id="패스_116" data-name="패스 116" d="M34,4.32,36.9,1.414,39.81,4.32" transform="translate(0.048 -0.088)" fill="none" stroke="#bcc0c4" stroke-miterlimit="10" stroke-width="2"/>
      <line id="선_112" data-name="선 112" y2="5.812" transform="translate(36.935 1.326)" fill="none" stroke="#bcc0c4" stroke-miterlimit="10" stroke-width="2"/>
      <path id="패스_117" data-name="패스 117" d="M24,9.32,26.9,6.414,29.81,9.32" transform="translate(0.014 -0.245)" fill="none" stroke="#bcc0c4" stroke-miterlimit="10" stroke-width="2"/>
      <line id="선_113" data-name="선 113" y2="5.812" transform="translate(26.935 6.169)" fill="none" stroke="#bcc0c4" stroke-miterlimit="10" stroke-width="2"/>
      <g id="그룹_54" data-name="그룹 54" transform="translate(26.771 27.779)">
        <g id="그룹_53" data-name="그룹 53" clip-path="url(#clip-path)">
          <path id="패스_118" data-name="패스 118" d="M2.963,6.153,3.43,4.431H2.515L2.947,6.16a.035.035,0,0,1,.005.018.019.019,0,0,0,.005.017v-.02a.062.062,0,0,0,0-.02Zm.669-2.462.2-.738H2.151l.184.738Zm1.107,0h.8l-.2-.738h-.4ZM7.329,6.16l.449-1.73H6.845l.467,1.723v.02a.035.035,0,0,0,.009.02.044.044,0,0,1,0-.017V6.158Zm.64-2.468.19-.738H6.447l.2.738Zm2.364.184v.369a.178.178,0,0,1-.17.185H8.921L7.974,7.981A.171.171,0,0,1,7.8,8.12H6.879A.172.172,0,0,1,6.7,7.981L5.743,4.43h-1.2L3.574,7.981A.173.173,0,0,1,3.4,8.12H2.48a.169.169,0,0,1-.112-.041.163.163,0,0,1-.061-.1L1.385,4.43H.185A.178.178,0,0,1,0,4.259V3.876a.179.179,0,0,1,.17-.185H1.195L1,2.953H.185A.178.178,0,0,1,0,2.783V2.4a.177.177,0,0,1,.17-.184H.813L.3.231A.166.166,0,0,1,.329.07.186.186,0,0,1,.479,0h.789a.162.162,0,0,1,.178.137l.519,2.076H4.032L4.6.138A.173.173,0,0,1,4.775,0H5.5a.173.173,0,0,1,.18.137l.564,2.076h2.1L8.887.138A.161.161,0,0,1,9.065,0h.79a.184.184,0,0,1,.15.069.163.163,0,0,1,.029.161L9.507,2.215h.64a.179.179,0,0,1,.187.168v.385a.176.176,0,0,1-.17.184.034.034,0,0,1-.014,0H9.312l-.2.738h1.033a.178.178,0,0,1,.184.172v.013" transform="translate(0 0)" fill="#2a5082" stroke="#2a5082" stroke-width="0.25"/>
        </g>
      </g>
    </g>
  </g>
</svg>
