<svg xmlns="http://www.w3.org/2000/svg" xmlns:xlink="http://www.w3.org/1999/xlink" width="95" height="95" viewBox="0 0 95 95">
  <defs>
    <clipPath id="clip-path">
      <rect id="사각형_119" data-name="사각형 119" width="58" height="54" fill="none"/>
    </clipPath>
  </defs>
  <g id="그룹_302" data-name="그룹 302" transform="translate(-1150 -935)">
    <circle id="타원_8" data-name="타원 8" cx="47.5" cy="47.5" r="47.5" transform="translate(1150 935)" fill="#f2f2f2"/>
    <g id="그룹_136" data-name="그룹 136" transform="translate(1174 956)">
      <rect id="사각형_118" data-name="사각형 118" width="41" height="52" transform="translate(1 1)" fill="#fff"/>
      <g id="그룹_135" data-name="그룹 135">
        <g id="그룹_134" data-name="그룹 134" clip-path="url(#clip-path)">
          <path id="패스_277" data-name="패스 277" d="M42,13V1H1V53H42V36" fill="none" stroke="#2a5082" stroke-linecap="round" stroke-linejoin="round" stroke-width="2"/>
          <path id="패스_278" data-name="패스 278" d="M55,10c-1.388-1.388-5.224.223-8,3L31,29c-4.87,4.87-11.388,13.612-10,15s10.13-5.13,15-10L52,18c2.776-2.776,4.388-6.612,3-8" fill="#a3d4ff"/>
          <path id="패스_279" data-name="패스 279" d="M55,10c-1.388-1.388-5.224.223-8,3L31,29c-4.87,4.87-11.388,13.612-10,15s10.13-5.13,15-10L52,18C54.776,15.224,56.388,11.388,55,10Z" fill="none" stroke="#2a5082" stroke-linecap="round" stroke-linejoin="round" stroke-width="2"/>
          <line id="선_222" data-name="선 222" y1="2" x2="2" transform="translate(19 44)" fill="none" stroke="#2a5082" stroke-linecap="round" stroke-linejoin="round" stroke-width="2"/>
          <path id="패스_280" data-name="패스 280" d="M46.973,13.043,52,18l.879.879a3,3,0,0,1,0,4.243L44,32" fill="none" stroke="#2a5082" stroke-linecap="round" stroke-linejoin="round" stroke-width="2"/>
          <line id="선_223" data-name="선 223" x2="5" y2="5" transform="translate(31 29)" fill="none" stroke="#2a5082" stroke-linecap="round" stroke-linejoin="round" stroke-width="2"/>
          <line id="선_224" data-name="선 224" y1="2" x2="2" transform="translate(55 8)" fill="none" stroke="#2a5082" stroke-linecap="round" stroke-linejoin="round" stroke-width="2"/>
          <line id="선_225" data-name="선 225" x1="5" transform="translate(10 46)" fill="none" stroke="#2a5082" stroke-linecap="round" stroke-linejoin="round" stroke-width="2"/>
          <line id="선_226" data-name="선 226" x2="12" transform="translate(16 11)" fill="none" stroke="#2a5082" stroke-linecap="round" stroke-linejoin="round" stroke-width="2"/>
          <line id="선_227" data-name="선 227" x2="24" transform="translate(10 17)" fill="none" stroke="#2a5082" stroke-linecap="round" stroke-linejoin="round" stroke-width="2"/>
          <line id="선_228" data-name="선 228" x2="22" transform="translate(10 22)" fill="none" stroke="#2a5082" stroke-linecap="round" stroke-linejoin="round" stroke-width="2"/>
          <line id="선_229" data-name="선 229" x2="17" transform="translate(10 27)" fill="none" stroke="#2a5082" stroke-linecap="round" stroke-linejoin="round" stroke-width="2"/>
          <line id="선_230" data-name="선 230" x2="13" transform="translate(10 32)" fill="none" stroke="#2a5082" stroke-linecap="round" stroke-linejoin="round" stroke-width="2"/>
        </g>
      </g>
    </g>
  </g>
</svg>
