<svg xmlns="http://www.w3.org/2000/svg" xmlns:xlink="http://www.w3.org/1999/xlink" width="95" height="95" viewBox="0 0 95 95">
  <defs>
    <clipPath id="clip-path">
      <rect id="사각형_66" data-name="사각형 66" width="57" height="56.278" fill="none"/>
    </clipPath>
  </defs>
  <g id="img" transform="translate(-1150 -935)">
    <circle id="타원_8" data-name="타원 8" cx="47.5" cy="47.5" r="47.5" transform="translate(1150 935)" fill="#f2f2f2"/>
    <g id="그룹_45" data-name="그룹 45" transform="translate(1169 954)">
      <g id="그룹_44" data-name="그룹 44" transform="translate(0 0)" clip-path="url(#clip-path)">
        <path id="패스_90" data-name="패스 90" d="M54.4,30.24v3.8H45.85V50.19h-3.8V36.89a2.85,2.85,0,1,0-5.7,0v13.3h-3.8V36.89a2.85,2.85,0,1,0-5.7,0v13.3h-3.8V36.89a2.85,2.85,0,1,0-5.7,0v13.3h-3.8V34.04H5v-3.8Z" transform="translate(-0.25 -1.512)" fill="#e9eaeb"/>
        <path id="패스_91" data-name="패스 91" d="M45.75,24.49V22.7L29.6,10.24,13.45,22.7v1.79H3v4.75H56.2V24.49Z" transform="translate(-0.15 -0.512)" fill="#a3d4ff"/>
        <path id="패스_92" data-name="패스 92" d="M21.05,16.89H3v4.75l.95.95v1.9h9.5V22.7L29.6,10.24,45.75,22.7v1.79h9.5v-1.9l.95-.95V16.89H38.15" transform="translate(-0.15 -0.512)" fill="none" stroke="#2a5082" stroke-miterlimit="10" stroke-width="2"/>
        <path id="패스_93" data-name="패스 93" d="M55.3,27.24v2.85H4V27.24" transform="translate(-0.2 -1.362)" fill="none" stroke="#2a5082" stroke-miterlimit="10" stroke-width="2"/>
        <path id="패스_94" data-name="패스 94" d="M38,50.39V37.09a2.85,2.85,0,1,1,5.7,0v13.3" transform="translate(-1.9 -1.712)" fill="none" stroke="#2a5082" stroke-miterlimit="10" stroke-width="2"/>
        <path id="패스_95" data-name="패스 95" d="M28,50.39V37.09a2.85,2.85,0,1,1,5.7,0v13.3" transform="translate(-1.4 -1.712)" fill="none" stroke="#2a5082" stroke-miterlimit="10" stroke-width="2"/>
        <path id="패스_96" data-name="패스 96" d="M18,50.39V37.09a2.85,2.85,0,1,1,5.7,0v13.3" transform="translate(-0.9 -1.712)" fill="none" stroke="#2a5082" stroke-miterlimit="10" stroke-width="2"/>
        <path id="패스_97" data-name="패스 97" d="M6,57.99V34.24h7.6V50.39" transform="translate(-0.3 -1.712)" fill="none" stroke="#2a5082" stroke-miterlimit="10" stroke-width="2"/>
        <path id="패스_98" data-name="패스 98" d="M55.6,57.99V34.24H48V50.39" transform="translate(-2.4 -1.712)" fill="none" stroke="#2a5082" stroke-miterlimit="10" stroke-width="2"/>
        <line id="선_101" data-name="선 101" x2="36.1" transform="translate(11.4 51.528)" fill="none" stroke="#2a5082" stroke-miterlimit="10" stroke-width="2"/>
        <line id="선_102" data-name="선 102" x2="41.8" transform="translate(8.55 55.328)" fill="none" stroke="#2a5082" stroke-miterlimit="10" stroke-width="2"/>
        <path id="패스_99" data-name="패스 99" d="M34.6,21.04a3.8,3.8,0,1,1-3.8-3.8,3.8,3.8,0,0,1,3.8,3.8" transform="translate(-1.35 -0.862)" fill="#fff"/>
        <circle id="타원_14" data-name="타원 14" cx="3.8" cy="3.8" r="3.8" transform="translate(25.65 16.378)" fill="none" stroke="#2a5082" stroke-miterlimit="10" stroke-width="2"/>
        <line id="선_103" data-name="선 103" x2="2.85" transform="translate(5.7 38.228)" fill="none" stroke="#2a5082" stroke-miterlimit="10" stroke-width="2"/>
        <line id="선_104" data-name="선 104" x2="2.85" transform="translate(5.7 43.928)" fill="none" stroke="#2a5082" stroke-miterlimit="10" stroke-width="2"/>
        <line id="선_105" data-name="선 105" x2="2.85" transform="translate(5.7 49.628)" fill="none" stroke="#2a5082" stroke-miterlimit="10" stroke-width="2"/>
        <line id="선_106" data-name="선 106" x2="2.85" transform="translate(50.35 38.228)" fill="none" stroke="#2a5082" stroke-miterlimit="10" stroke-width="2"/>
        <line id="선_107" data-name="선 107" x2="2.85" transform="translate(50.35 43.928)" fill="none" stroke="#2a5082" stroke-miterlimit="10" stroke-width="2"/>
        <line id="선_108" data-name="선 108" x2="2.85" transform="translate(50.35 49.628)" fill="none" stroke="#2a5082" stroke-miterlimit="10" stroke-width="2"/>
        <path id="패스_100" data-name="패스 100" d="M29.8,5.028H22.568a2.4,2.4,0,0,0-2.395-1.383,2.7,2.7,0,0,0-.967.29A4.4,4.4,0,0,0,15.255,1c-2.329,0-4.218,3.078-4.223,4.028H7" transform="translate(-0.35 -0.05)" fill="none" stroke="#bcc0c4" stroke-miterlimit="10" stroke-width="2"/>
        <line id="선_109" data-name="선 109" x1="12.35" transform="translate(0 10.678)" fill="none" stroke="#bcc0c4" stroke-miterlimit="10" stroke-width="2"/>
        <path id="패스_101" data-name="패스 101" d="M59.05,9.021H56.037a2.552,2.552,0,0,0-2.395-1.567,2.586,2.586,0,0,0-.967.2,4.269,4.269,0,0,0-3.951-2.8A4.485,4.485,0,0,0,44.5,9.021H41" transform="translate(-2.05 -0.243)" fill="none" stroke="#bcc0c4" stroke-miterlimit="10" stroke-width="2"/>
      </g>
    </g>
  </g>
</svg>
