<svg xmlns="http://www.w3.org/2000/svg" xmlns:xlink="http://www.w3.org/1999/xlink" width="95" height="95" viewBox="0 0 95 95">
  <defs>
    <clipPath id="clip-path">
      <rect id="사각형_128" data-name="사각형 128" width="51" height="59" fill="none"/>
    </clipPath>
  </defs>
  <g id="그룹_307" data-name="그룹 307" transform="translate(-1150 -935)">
    <circle id="타원_8" data-name="타원 8" cx="47.5" cy="47.5" r="47.5" transform="translate(1150 935)" fill="#f2f2f2"/>
    <g id="그룹_147" data-name="그룹 147" transform="translate(1175 952)">
      <rect id="사각형_124" data-name="사각형 124" width="35" height="44" transform="translate(5 10)" fill="#fff"/>
      <g id="그룹_146" data-name="그룹 146">
        <g id="그룹_145" data-name="그룹 145" clip-path="url(#clip-path)">
          <path id="패스_315" data-name="패스 315" d="M44,27V8a2,2,0,0,0-2-2H3A2,2,0,0,0,1,8V56a2,2,0,0,0,2,2H42a2,2,0,0,0,2-2V38l-4,4V54H5V10H40V31Z" fill="#a3d4ff"/>
          <path id="패스_316" data-name="패스 316" d="M44,38V56a2,2,0,0,1-2,2H3a2,2,0,0,1-2-2V8A2,2,0,0,1,3,6h7" fill="none" stroke="#2a5082" stroke-miterlimit="10" stroke-width="2"/>
          <path id="패스_317" data-name="패스 317" d="M34,6h8a2,2,0,0,1,2,2V27" fill="none" stroke="#2a5082" stroke-miterlimit="10" stroke-width="2"/>
          <path id="패스_318" data-name="패스 318" d="M40,42V54H5V10h5" fill="none" stroke="#2a5082" stroke-miterlimit="10" stroke-width="2"/>
          <path id="패스_319" data-name="패스 319" d="M34,10h6V31" fill="none" stroke="#2a5082" stroke-miterlimit="10" stroke-width="2"/>
          <path id="패스_320" data-name="패스 320" d="M29,5H26a4,4,0,0,0-8,0H15a3,3,0,0,0-3,3v3H32V8a3,3,0,0,0-3-3" fill="#fff"/>
          <path id="패스_321" data-name="패스 321" d="M29,5H26a4,4,0,0,0-8,0H15a3,3,0,0,0-3,3v3H32V8A3,3,0,0,0,29,5Z" fill="none" stroke="#2a5082" stroke-miterlimit="10" stroke-width="2"/>
          <line id="선_253" data-name="선 253" y2="2" transform="translate(22 4)" fill="none" stroke="#2a5082" stroke-miterlimit="10" stroke-width="2"/>
          <path id="패스_322" data-name="패스 322" d="M50,26,37,40l-5-5" fill="none" stroke="#2a5082" stroke-linecap="round" stroke-linejoin="round" stroke-width="2"/>
          <rect id="사각형_125" data-name="사각형 125" width="6" height="6" transform="translate(12 18)" fill="none" stroke="#2a5082" stroke-linecap="round" stroke-linejoin="round" stroke-width="2"/>
          <rect id="사각형_126" data-name="사각형 126" width="6" height="6" transform="translate(12 29)" fill="none" stroke="#2a5082" stroke-linecap="round" stroke-linejoin="round" stroke-width="2"/>
          <rect id="사각형_127" data-name="사각형 127" width="6" height="6" transform="translate(12 40)" fill="none" stroke="#2a5082" stroke-linecap="round" stroke-linejoin="round" stroke-width="2"/>
          <line id="선_254" data-name="선 254" x2="10" transform="translate(22 19)" fill="none" stroke="#2a5082" stroke-miterlimit="10" stroke-width="2"/>
          <line id="선_255" data-name="선 255" x2="6" transform="translate(22 23)" fill="none" stroke="#2a5082" stroke-miterlimit="10" stroke-width="2"/>
          <line id="선_256" data-name="선 256" x2="10" transform="translate(22 30)" fill="none" stroke="#2a5082" stroke-miterlimit="10" stroke-width="2"/>
          <line id="선_257" data-name="선 257" x2="6" transform="translate(22 34)" fill="none" stroke="#2a5082" stroke-miterlimit="10" stroke-width="2"/>
          <line id="선_258" data-name="선 258" x2="6" transform="translate(22 45)" fill="none" stroke="#2a5082" stroke-miterlimit="10" stroke-width="2"/>
          <line id="선_259" data-name="선 259" x2="8" transform="translate(22 41)" fill="none" stroke="#2a5082" stroke-miterlimit="10" stroke-width="2"/>
        </g>
      </g>
    </g>
  </g>
</svg>
