<svg xmlns="http://www.w3.org/2000/svg" xmlns:xlink="http://www.w3.org/1999/xlink" width="95" height="95" viewBox="0 0 95 95">
  <defs>
    <clipPath id="clip-path">
      <rect id="사각형_64" data-name="사각형 64" width="60" height="60.564" fill="none"/>
    </clipPath>
  </defs>
  <g id="그룹_292" data-name="그룹 292" transform="translate(-1150 -935)">
    <circle id="타원_8" data-name="타원 8" cx="47.5" cy="47.5" r="47.5" transform="translate(1150 935)" fill="#f2f2f2"/>
    <g id="그룹_41" data-name="그룹 41" transform="translate(1168 954)">
      <rect id="사각형_63" data-name="사각형 63" width="58" height="30" transform="translate(1 6)" fill="#fff"/>
      <g id="그룹_40" data-name="그룹 40" transform="translate(0 0)">
        <g id="그룹_39" data-name="그룹 39" clip-path="url(#clip-path)">
          <path id="패스_71" data-name="패스 71" d="M37.579,11H9.158v.031A3.182,3.182,0,0,1,6,14.215v14.7a2.936,2.936,0,0,1,3.158,3.138H37.579Z" transform="translate(0.316 0.579)" fill="#a3d4ff"/>
          <path id="패스_72" data-name="패스 72" d="M38.895,37.579H1V6H37.842" transform="translate(0.053 0.316)" fill="none" stroke="#2a5082" stroke-miterlimit="10" stroke-width="2"/>
          <path id="패스_73" data-name="패스 73" d="M42,6H56.737V37.579H52.526" transform="translate(2.211 0.316)" fill="none" stroke="#2a5082" stroke-miterlimit="10" stroke-width="2"/>
          <line id="선_85" data-name="선 85" x2="3.158" transform="translate(13.684 22.106)" fill="none" stroke="#2a5082" stroke-miterlimit="10" stroke-width="2"/>
          <line id="선_86" data-name="선 86" x2="3.158" transform="translate(45.263 22.106)" fill="none" stroke="#2a5082" stroke-miterlimit="10" stroke-width="2"/>
          <path id="패스_74" data-name="패스 74" d="M23,21.318a6.07,6.07,0,0,1,5.794-6.312,6.066,6.066,0,0,1,5.784,6.318,6.07,6.07,0,0,1-5.793,6.312A6.069,6.069,0,0,1,23,21.318" transform="translate(1.211 0.79)" fill="#fff"/>
          <path id="패스_75" data-name="패스 75" d="M23,21.318a6.07,6.07,0,0,1,5.794-6.312,6.066,6.066,0,0,1,5.784,6.318,6.07,6.07,0,0,1-5.793,6.312A6.069,6.069,0,0,1,23,21.318Z" transform="translate(1.211 0.79)" fill="none" stroke="#2a5082" stroke-miterlimit="10" stroke-width="2"/>
          <path id="패스_76" data-name="패스 76" d="M37.579,11H9.158A3.158,3.158,0,0,1,6,14.158V28.941a2.938,2.938,0,0,1,3.158,3.142l28.421-.031" transform="translate(0.316 0.579)" fill="none" stroke="#2a5082" stroke-miterlimit="10" stroke-width="2"/>
          <path id="패스_77" data-name="패스 77" d="M42,11h6.316a3,3,0,0,0,3.158,3.22v7.306" transform="translate(2.211 0.579)" fill="none" stroke="#2a5082" stroke-miterlimit="10" stroke-width="2"/>
          <line id="선_87" data-name="선 87" y2="4.211" transform="translate(41.053 0.001)" fill="none" stroke="#2a5082" stroke-miterlimit="10" stroke-width="2"/>
          <line id="선_88" data-name="선 88" y2="4.211" transform="translate(41.053 7.369)" fill="none" stroke="#2a5082" stroke-miterlimit="10" stroke-width="2"/>
          <line id="선_89" data-name="선 89" y2="4.211" transform="translate(41.053 14.737)" fill="none" stroke="#2a5082" stroke-miterlimit="10" stroke-width="2"/>
          <line id="선_90" data-name="선 90" y2="4.211" transform="translate(41.053 22.106)" fill="none" stroke="#2a5082" stroke-miterlimit="10" stroke-width="2"/>
          <line id="선_91" data-name="선 91" y2="4.211" transform="translate(41.053 29.474)" fill="none" stroke="#2a5082" stroke-miterlimit="10" stroke-width="2"/>
          <path id="패스_78" data-name="패스 78" d="M38,46.053l10,10a3.721,3.721,0,0,0,5.263,0L54.316,55a3.722,3.722,0,1,0-5.263-5.263l-.526.526L43.263,45" transform="translate(2 2.369)" fill="none" stroke="#2a5082" stroke-miterlimit="10" stroke-width="2"/>
          <path id="패스_79" data-name="패스 79" d="M35.712,43.951,28.344,51.32l-.526-.526a3.722,3.722,0,0,0-5.263,5.263l1.053,1.053a3.721,3.721,0,0,0,5.263,0L49.356,36.583a11.023,11.023,0,0,0,3.2-7.822V24.922L40.935,36.583" transform="translate(1.13 1.312)" fill="none" stroke="#2a5082" stroke-miterlimit="10" stroke-width="2"/>
          <line id="선_92" data-name="선 92" x1="3.065" y1="3.064" transform="translate(37.031 37.893)" fill="none" stroke="#2a5082" stroke-miterlimit="10" stroke-width="2"/>
          <line id="선_93" data-name="선 93" x1="6.316" y1="6.316" transform="translate(28.421 37.895)" fill="none" stroke="#2a5082" stroke-miterlimit="10" stroke-width="2"/>
        </g>
      </g>
    </g>
  </g>
</svg>
