<svg xmlns="http://www.w3.org/2000/svg" xmlns:xlink="http://www.w3.org/1999/xlink" width="95" height="95" viewBox="0 0 95 95">
  <defs>
    <clipPath id="clip-path">
      <rect id="사각형_144" data-name="사각형 144" width="60" height="51" fill="none"/>
    </clipPath>
  </defs>
  <g id="그룹_314" data-name="그룹 314" transform="translate(-1150 -935)">
    <circle id="타원_8" data-name="타원 8" cx="47.5" cy="47.5" r="47.5" transform="translate(1150 935)" fill="#f2f2f2"/>
    <g id="그룹_167" data-name="그룹 167" transform="translate(1166 957)">
      <g id="그룹_166" data-name="그룹 166" clip-path="url(#clip-path)">
        <path id="패스_385" data-name="패스 385" d="M54,1a5,5,0,0,0-5,5V7H59V6a5,5,0,0,0-5-5" fill="#e9eaeb"/>
        <path id="패스_386" data-name="패스 386" d="M52,7h7V6a5,5,0,0,0-5-5H49" fill="none" stroke="#2a5082" stroke-miterlimit="10" stroke-width="2"/>
        <path id="패스_387" data-name="패스 387" d="M13,6a5,5,0,0,1,5-5H54a5,5,0,0,0-5,5V45a5,5,0,0,1-5,5H13Z" fill="#fff"/>
        <path id="패스_388" data-name="패스 388" d="M18,1a5,5,0,0,0-5,5V50H44a5,5,0,0,0,5-5V6a5,5,0,0,1,5-5Z" fill="none" stroke="#2a5082" stroke-linecap="round" stroke-miterlimit="10" stroke-width="2"/>
        <path id="패스_389" data-name="패스 389" d="M7,45a5,5,0,0,0,5,5H44a5,5,0,0,1-5-5Z" fill="#a3d4ff"/>
        <path id="패스_390" data-name="패스 390" d="M7,45a5,5,0,0,0,5,5H44a5,5,0,0,1-5-5Z" fill="none" stroke="#2a5082" stroke-miterlimit="10" stroke-width="2"/>
        <line id="선_309" data-name="선 309" y2="6" transform="translate(3 14)" fill="none" stroke="#bcc0c4" stroke-miterlimit="10" stroke-width="2"/>
        <line id="선_310" data-name="선 310" x2="6" transform="translate(0 17)" fill="none" stroke="#bcc0c4" stroke-miterlimit="10" stroke-width="2"/>
        <line id="선_311" data-name="선 311" y2="6" transform="translate(55 21)" fill="none" stroke="#bcc0c4" stroke-miterlimit="10" stroke-width="2"/>
        <line id="선_312" data-name="선 312" x2="6" transform="translate(52 24)" fill="none" stroke="#bcc0c4" stroke-miterlimit="10" stroke-width="2"/>
        <line id="선_313" data-name="선 313" y2="6" transform="translate(5 30)" fill="none" stroke="#bcc0c4" stroke-miterlimit="10" stroke-width="2"/>
        <line id="선_314" data-name="선 314" x2="6" transform="translate(2 33)" fill="none" stroke="#bcc0c4" stroke-miterlimit="10" stroke-width="2"/>
        <line id="선_315" data-name="선 315" x2="22" transform="translate(20 26)" fill="none" stroke="#2a5082" stroke-linecap="round" stroke-linejoin="round" stroke-width="2"/>
        <line id="선_316" data-name="선 316" x2="22" transform="translate(20 31)" fill="none" stroke="#2a5082" stroke-linecap="round" stroke-linejoin="round" stroke-width="2"/>
        <line id="선_317" data-name="선 317" x2="11" transform="translate(20 36)" fill="none" stroke="#2a5082" stroke-linecap="round" stroke-linejoin="round" stroke-width="2"/>
        <line id="선_318" data-name="선 318" x2="7" transform="translate(35 11)" fill="none" stroke="#2a5082" stroke-linecap="round" stroke-linejoin="round" stroke-width="2"/>
        <line id="선_319" data-name="선 319" x2="7" transform="translate(35 16)" fill="none" stroke="#2a5082" stroke-linecap="round" stroke-linejoin="round" stroke-width="2"/>
        <line id="선_320" data-name="선 320" x2="7" transform="translate(35 21)" fill="none" stroke="#2a5082" stroke-linecap="round" stroke-linejoin="round" stroke-width="2"/>
        <path id="패스_391" data-name="패스 391" d="M31,21V19c0-1.3-3.027-3-5.5-3S20,17.7,20,19v2" fill="none" stroke="#2a5082" stroke-linecap="round" stroke-linejoin="round" stroke-width="2"/>
        <path id="패스_392" data-name="패스 392" d="M25.5,8C23.69,8,22,9.29,22,10.881v2.238C22,14.71,23.69,16,25.5,16S29,14.71,29,13.119V10.881C29,9.29,27.31,8,25.5,8Z" fill="none" stroke="#2a5082" stroke-linecap="round" stroke-linejoin="round" stroke-width="2"/>
      </g>
    </g>
  </g>
</svg>
