<svg xmlns="http://www.w3.org/2000/svg" xmlns:xlink="http://www.w3.org/1999/xlink" width="95" height="95" viewBox="0 0 95 95">
  <defs>
    <clipPath id="clip-path">
      <rect id="사각형_101" data-name="사각형 101" width="45" height="63" fill="none"/>
    </clipPath>
  </defs>
  <g id="그룹_290" data-name="그룹 290" transform="translate(-1150 -935)">
    <circle id="타원_8" data-name="타원 8" cx="47.5" cy="47.5" r="47.5" transform="translate(1150 935)" fill="#f2f2f2"/>
    <g id="그룹_107" data-name="그룹 107" transform="translate(1175 951)">
      <g id="그룹_106" data-name="그룹 106" clip-path="url(#clip-path)">
        <path id="패스_194" data-name="패스 194" d="M12,42V26L5.224,31.222A6.958,6.958,0,0,0,3,36.352V57H22V53s4-2.423,4-7V42Z" fill="#fff"/>
        <path id="패스_195" data-name="패스 195" d="M12,42V26L5.224,31.222A6.958,6.958,0,0,0,3,36.352V57H22V53s4-2.423,4-7V42Z" fill="none" stroke="#2a5082" stroke-miterlimit="10" stroke-width="2"/>
        <path id="패스_196" data-name="패스 196" d="M42,1H18L10,9V43H42a2,2,0,0,0,2-2V3a2,2,0,0,0-2-2" fill="#fff"/>
        <path id="패스_197" data-name="패스 197" d="M10,10h9V1" fill="#a3d4ff"/>
        <path id="패스_198" data-name="패스 198" d="M12,43H42a2,2,0,0,0,2-2V3a2,2,0,0,0-2-2H18L10,9V38" fill="none" stroke="#2a5082" stroke-miterlimit="10" stroke-width="2"/>
        <path id="패스_199" data-name="패스 199" d="M13,10h6V4" fill="none" stroke="#2a5082" stroke-miterlimit="10" stroke-width="2"/>
        <line id="선_165" data-name="선 165" x2="20" transform="translate(17 19)" fill="none" stroke="#2a5082" stroke-miterlimit="10" stroke-width="2"/>
        <line id="선_166" data-name="선 166" x2="12" transform="translate(17 23)" fill="none" stroke="#2a5082" stroke-miterlimit="10" stroke-width="2"/>
        <line id="선_167" data-name="선 167" x2="20" transform="translate(17 15)" fill="none" stroke="#2a5082" stroke-miterlimit="10" stroke-width="2"/>
        <path id="패스_200" data-name="패스 200" d="M19.316,29.245C17,31.565,7.934,40.426,7.934,40.426L15.92,50.859a9.107,9.107,0,0,0,1.132-9.1s4.037-4.52,5.026-5.889c2.206-3.271-.442-8.946-2.762-6.626" fill="#fff"/>
        <path id="패스_201" data-name="패스 201" d="M7.934,40.426S17,31.565,19.316,29.245s4.968,3.355,2.762,6.626c-.988,1.369-5.026,5.889-5.026,5.889a9.109,9.109,0,0,1-1.132,9.1" fill="none" stroke="#2a5082" stroke-miterlimit="10" stroke-width="2"/>
        <path id="패스_202" data-name="패스 202" d="M1,63V56H25v7" fill="#e9eaeb"/>
        <path id="패스_203" data-name="패스 203" d="M1,63V56H25v7" fill="none" stroke="#2a5082" stroke-miterlimit="10" stroke-width="2"/>
        <line id="선_168" data-name="선 168" x2="3" transform="translate(4 60)" fill="none" stroke="#2a5082" stroke-miterlimit="10" stroke-width="2"/>
        <path id="패스_204" data-name="패스 204" d="M1,63V56H25v7" fill="none" stroke="#2a5082" stroke-miterlimit="10" stroke-width="2"/>
      </g>
    </g>
  </g>
</svg>
