<svg xmlns="http://www.w3.org/2000/svg" width="26" height="26" viewBox="0 0 26 26">
    <defs>
        <style>
            .cls-2{fill:#fff;stroke:#fff;stroke-linecap:round;stroke-linejoin:round}
        </style>
    </defs>
    <g id="그룹_4553" data-name="그룹 4553" transform="translate(1.625 2.115)">
        <path id="사각형_3812" data-name="사각형 3812" transform="translate(-1.625 -2.115)" style="fill:none" d="M0 0h26v26H0z"/>
        <g id="그룹_4517" data-name="그룹 4517">
            <path id="패스_7931" data-name="패스 7931" class="cls-2" d="M1566.938 3457.6a5.632 5.632 0 0 1-1.931 3.285c-.052.044-.1.086-.158.127l-.027.021-.081.059q-.171.122-.35.232a6.593 6.593 0 0 1-.716.376h-.007l-.109.044c-.061.024-.122.046-.183.068a6.121 6.121 0 0 1-.37.119 6.043 6.043 0 0 1-.794.168c.08-.012.013 0 0 0l-.115.014-.192.016q-.192.014-.385.015a6.028 6.028 0 0 1-.807-.049c.089.012-.092-.015-.117-.019l-.171-.032c-.133-.026-.265-.058-.4-.093s-.249-.071-.371-.113q-.092-.031-.183-.066l-.073-.028a2.62 2.62 0 0 0-.094-.038c.054.023-.063-.028-.057-.026l-.089-.041q-.08-.037-.159-.078-.194-.1-.381-.21a5.632 5.632 0 0 1-.335-.217l-.163-.118-.011-.008c-.037-.028-.074-.059-.111-.088a5.638 5.638 0 0 1-1.212-1.362 5.562 5.562 0 0 1-.746-1.86 5.315 5.315 0 0 1-.109-1.06c0-.166 0-.332.017-.5a3.929 3.929 0 0 1 .046-.4 5.544 5.544 0 0 1 1.651-3.157 5.647 5.647 0 0 1 .448-.389c.048-.038-.077.056.027-.021l.1-.072a5.908 5.908 0 0 1 .712-.438q.166-.086.337-.163c.017-.007.1-.042.025-.012l.09-.037q.1-.04.2-.076a6.057 6.057 0 0 1 .784-.22c.12-.025.24-.046.361-.064.074-.011-.1.011.022 0l.077-.009c.077-.008.153-.016.23-.021a5.993 5.993 0 0 1 .789 0c.122.007.243.02.365.034s-.085-.015.041.005l.076.012c.076.012.152.026.228.041a5.918 5.918 0 0 1 .748.2c.123.042.245.088.365.138-.082-.034.037.017.043.02l.071.032.212.1a5.949 5.949 0 0 1 .681.41l.163.118c.106.078-.06-.05.043.033l.063.051c.117.095.229.194.339.3a6.469 6.469 0 0 1 .584.638 5.657 5.657 0 0 1 .513.8 4.729 4.729 0 0 1 .346.794 5.945 5.945 0 0 1 .227.891 4.175 4.175 0 0 1 .038.265c0 .03.006.06.009.089q.026.276.027.555a5.5 5.5 0 0 1-.089 1.013.421.421 0 0 0 .812.224 6.5 6.5 0 0 0-.633-4.233 6.39 6.39 0 0 0-9.359-2.186 6.488 6.488 0 0 0-2.361 3.225 6.4 6.4 0 0 0 .144 4.336 6.48 6.48 0 0 0 2.633 3.107 6.4 6.4 0 0 0 6.658-.031 6.483 6.483 0 0 0 2.62-3.174 6.112 6.112 0 0 0 .3-1.043.421.421 0 1 0-.812-.224z" transform="translate(-1548.933 -3450.219)"/>
            <path id="패스_7932" data-name="패스 7932" class="cls-2" d="m1671.874 3566.313-2.381-2.382-.344-.344a.421.421 0 0 0-.6.6l2.382 2.381.344.344a.421.421 0 0 0 .6-.595z" transform="translate(-1652.085 -3553.282)"/>
            <path id="패스_7933" data-name="패스 7933" class="cls-2" d="M1508.735 3548.694V3557.314c0-.046-.006.028-.009.038s-.027.086-.009.038-.006.012-.01.017l-.028.048c-.031.054.042-.043 0 0-.017.018-.1.086-.038.042-.026.018-.136.063-.064.041a.743.743 0 0 1-.11.028c.08-.012.012 0 0-.005h-20.697 0c-.038 0-.048 0 0 .005-.025 0-.151-.047-.078-.013-.022-.01-.043-.024-.065-.035 0 0-.055-.038-.017-.009s-.01-.009-.014-.014-.034-.034-.05-.053c.049.056-.012-.028-.025-.052-.023-.042 0 .009.006.015-.009-.03-.018-.06-.024-.091s0 .055 0-.022v0-8.642c0 .069 0-.008.01-.039.014-.07.007-.026 0 0l.026-.049c.009-.017.049-.074.019-.034s.009-.009.014-.013.034-.035.053-.051c-.032.027-.029.017 0 0l.048-.026c.055-.03-.059.016 0 0 .028-.007.135-.017.057-.016h6.2l-.363-.208a6.392 6.392 0 0 0 11.279 0l-.364.208h3.991c.107-.006-.054-.026.044 0 .012 0 .125.045.04.006.02.009.136.091.069.033.019.016.035.034.053.051q.047.054 0 0a.682.682 0 0 1 .038.063c.051.081 0-.059.014.037a.669.669 0 0 1 .017.074c-.007-.048-.009-.047-.005 0a.421.421 0 1 0 .842 0 1.135 1.135 0 0 0-1.161-1.112h-3.942a.42.42 0 0 0-.364.209 5.55 5.55 0 0 1-.8 1.139 6.064 6.064 0 0 1-.463.456q-.114.1-.234.2l-.048.038c.014-.011.055-.042-.011.008l-.13.095a5.907 5.907 0 0 1-1.016.577l-.054.024c.066-.029 0 0-.008 0l-.127.05q-.136.053-.276.1-.276.091-.561.154-.132.03-.265.053l-.133.022-.057.009c.084-.012-.005 0-.022 0a6.108 6.108 0 0 1-1.135.027q-.135-.01-.269-.025l-.077-.009c.007 0 .066.009.016 0l-.153-.024a5.966 5.966 0 0 1-1.1-.3l-.127-.05-.04-.016-.022-.01a5.767 5.767 0 0 1-.784-.418q-.144-.091-.282-.19-.066-.047-.13-.1c.007.005.043.033.005 0l-.079-.063a5.991 5.991 0 0 1-.511-.468 5.518 5.518 0 0 1-.935-1.286.419.419 0 0 0-.364-.209h-5.877a1.441 1.441 0 0 0-1 .266 1.238 1.238 0 0 0-.395 1.028v8.34a1.647 1.647 0 0 0 .028.326 1.121 1.121 0 0 0 1.006.861c.224.022.457 0 .681 0h20.083a1.131 1.131 0 0 0 1.125-1.117c.012-.536 0-1.074 0-1.611v-6.985a.421.421 0 0 0-.842 0z" transform="translate(-1486.653 -3538.825)"/>
            <path id="패스_7934" data-name="패스 7934" class="cls-2" d="M1517.546 3575.957v4.272a.4.4 0 0 0 .8 0v-4.272a.4.4 0 0 0-.8 0z" transform="translate(-1513.849 -3564.317)"/>
        </g>
    </g>
</svg>
