<svg xmlns="http://www.w3.org/2000/svg" width="26" height="26" viewBox="0 0 26 26">
    <defs>
        <style>
            .cls-2{fill:none;stroke:#fff;stroke-miterlimit:10;stroke-width:2px}
        </style>
    </defs>
    <g id="그룹_4554" data-name="그룹 4554" transform="translate(-17 -12.091)">
        <path id="사각형_3815" data-name="사각형 3815" transform="translate(17 12.091)" style="fill:none" d="M0 0h26v26H0z"/>
        <g id="그룹_4535" data-name="그룹 4535" transform="translate(-2043.891 -1266.45)">
            <path id="사각형_3819" data-name="사각형 3819" class="cls-2" d="M2 0h13.831a2 2 0 0 1 2 2v8.324a5 5 0 0 1-5 5H5a5 5 0 0 1-5-5V2a2 2 0 0 1 2-2z" transform="translate(2064.968 1287.466)"/>
            <path id="선_96" data-name="선 96" class="cls-2" transform="translate(2064.968 1293.3)" d="M0 0h2.81"/>
            <path id="선_97" data-name="선 97" class="cls-2" transform="translate(2064.968 1297.335)" d="M0 0h2.81"/>
            <path id="선_99" data-name="선 99" class="cls-2" transform="translate(2080.004 1293.3)" d="M0 0h2.81"/>
            <path id="선_100" data-name="선 100" class="cls-2" transform="translate(2080.004 1297.335)" d="M0 0h2.81"/>
            <circle id="타원_113" data-name="타원 113" class="cls-2" cx="2.127" cy="2.127" r="2.127" transform="translate(2071.756 1291.723)"/>
            <path id="선_101" data-name="선 101" transform="translate(2073.883 1295.978)" style="stroke-linecap:round;stroke:#fff;stroke-miterlimit:10;stroke-width:2px;fill:none" d="M0 0v2.557"/>
            <path id="패스_8113" data-name="패스 8113" class="cls-2" d="M2085.613 1286.967v-.782a6.126 6.126 0 0 1 6.334-5.893 6.126 6.126 0 0 1 6.334 5.893v.782" transform="translate(-18.065 .5)"/>
        </g>
    </g>
</svg>
