<svg id="closed" xmlns="http://www.w3.org/2000/svg" width="15.448" height="15.511" viewBox="0 0 15.448 15.511">
    <defs>
        <style>
            .cls-1{fill:rgba(255,255,255,.7)}
        </style>
    </defs>
    <g id="그룹_2038" data-name="그룹 2038">
        <path id="패스_6730" data-name="패스 6730" class="cls-1" d="M1530.259 1867.376a.881.881 0 0 1 .623 1.5l-13.686 13.748a.881.881 0 0 1-1.246-1.246l13.686-13.748a.879.879 0 0 1 .623-.258z" transform="translate(-1515.691 -1867.376)"/>
        <path id="패스_8912" data-name="패스 8912" class="cls-1" d="M1516.572 1867.376a.881.881 0 0 0-.623 1.5l13.686 13.748a.881.881 0 0 0 1.246-1.246l-13.686-13.748a.879.879 0 0 0-.623-.258z" transform="translate(-1515.691 -1867.376)"/>
    </g>
</svg>
