<svg xmlns="http://www.w3.org/2000/svg" xmlns:xlink="http://www.w3.org/1999/xlink" width="36" height="54.02" viewBox="0 0 36 54.02">
  <defs>
    <linearGradient id="linear-gradient" x1="0.5" x2="0.5" y2="1" gradientUnits="objectBoundingBox">
      <stop offset="0" stop-color="#b4e5ff"/>
      <stop offset="0.464" stop-color="#b5f3ff"/>
      <stop offset="1" stop-color="#3cc2d1"/>
    </linearGradient>
  </defs>
  <g id="그룹_12679-1" data-name="그룹 12679-1" transform="translate(0.5 0.521)">
    <path id="합치기_28" data-name="합치기 28" d="M-162.329,1512.412v-.695l2.089,1.205v.7Zm-1.928-.754v-1.412l1.222.706v1.412Zm1.928-2.069v-.695l2.089,1.205v.7Zm-1.928-.755v-1.412l1.222.707v1.412Zm1.928-2.069v-.695l2.089,1.205v.7Zm-11.009-.578v-.695l2.088,1.205v.7Zm9.081-.176V1504.6l1.222.706v1.412Zm-11.01-.578v-1.412l1.223.706v1.412Zm12.938-1.491v-.7l2.089,1.206v.7Zm-11.009-.578v-.695l2.088,1.205v.7Zm9.081-.177v-1.412l1.222.706v1.412Zm-11.01-.578V1501.2l1.223.706v1.412Zm12.938-1.517v-.695l2.089,1.206v.7Zm-11.009-.551v-.7l2.088,1.206v.7Zm-11.877-.512v-.695l2.088,1.205v.7Zm20.958.308v-1.411l1.222.706v1.412Zm-11.01-.551v-1.412l1.223.706v1.411Zm-11.877-.511v-1.412l1.223.707v1.411Zm24.815-1.006v-.7l2.089,1.206v.7Zm-11.009-.552v-.695l2.088,1.205v.7Zm-11.877-.511v-.695l2.088,1.205v.7Zm20.958.308V1496.1l1.222.706v1.411Zm-11.01-.552v-1.411l1.223.706v1.412Zm-11.877-.511v-1.411l1.223.706v1.412Zm24.815-1.005v-.7l2.089,1.206v.7Zm-11.009-.578v-.7l2.088,1.206v.7Zm-11.877-.485v-.7l2.088,1.206v.7Zm20.958.308v-1.412l1.222.707v1.411Zm-11.01-.578V1492.7l1.223.706v1.412Zm-11.877-.485v-1.412l1.223.706v1.411Zm24.815-1.006v-.695l2.089,1.205v.7Zm-11.009-.578v-.695l2.088,1.205v.7Zm-11.877-.485v-.695l2.088,1.206v.695Zm20.958.308v-1.412l1.222.707v1.412Zm-11.01-.578v-1.412l1.223.706v1.412Zm-11.877-.485v-1.411l1.223.706v1.412Zm24.815-1.005v-.7l2.089,1.206v.7Zm-11.009-.578v-.7l2.088,1.206v.7Zm-11.877-.511v-.695l2.088,1.205v.7Zm20.958.334v-1.412l1.222.706v1.412Zm-11.01-.578v-1.412l1.223.706v1.412Zm-11.877-.511v-1.412l1.223.706v1.412Zm27-.113a11.378,11.378,0,0,1-5.148-8.915c0-3.282,2.3-4.613,5.148-2.972a11.374,11.374,0,0,1,5.147,8.914h0a4.228,4.228,0,0,1-.838,2.767h0l-.009.011a2.514,2.514,0,0,1-1.767.887q-.115.009-.234.009A4.667,4.667,0,0,1-160.147,1487.839Zm2.89-.892a2.122,2.122,0,0,0,.8-.813h0l.009-.016.006-.011,0-.008a3.77,3.77,0,0,0,.407-1.824,9.114,9.114,0,0,0-4.117-7.132c-2.271-1.311-4.118-.244-4.118,2.377a9.115,9.115,0,0,0,4.118,7.132h0A2.9,2.9,0,0,0-157.257,1486.948Zm-16.08-.553v-.695l2.088,1.205v.7Zm-11.877-.511v-.695l2.088,1.205v.7Zm9.949-.243v-1.412l1.223.706v1.412Zm-11.877-.511v-1.412l1.223.706v1.412Zm27,.061a2.122,2.122,0,0,1-.961-1.663c0-.613.43-.861.961-.555a2.124,2.124,0,0,1,.96,1.664c0,.435-.216.686-.531.686A.869.869,0,0,1-160.147,1485.191Zm-13.19-1.619v-.695l2.088,1.205v.7Zm-11.877-.511v-.695l2.088,1.205v.7Zm9.949-.244V1481.4l1.223.707v1.412Zm-11.877-.511v-1.412l1.223.707v1.412Zm28.189-.274-2.385-1.377a1.135,1.135,0,0,1-.515-.892c0-.328.229-.461.515-.3l2.385,1.378a1.136,1.136,0,0,1,.515.891c0,.233-.116.368-.285.368A.466.466,0,0,1-158.954,1482.032Zm-26.26-1.8v-.695l2.088,1.205v.7Zm12.714.471a11.375,11.375,0,0,1-5.146-8.915c0-3.281,2.3-4.613,5.146-2.971a11.375,11.375,0,0,1,5.148,8.915c0,2.328-1.16,3.675-2.849,3.675A4.671,4.671,0,0,1-172.5,1480.707Zm-4.117-8.32a9.115,9.115,0,0,0,4.117,7.132c2.271,1.311,4.117.244,4.118-2.376h0a9.115,9.115,0,0,0-4.118-7.132,3.724,3.724,0,0,0-1.835-.56C-175.687,1469.448-176.618,1470.526-176.618,1472.387Zm-10.526,7.1v-1.412l1.223.706v1.412Zm1.929-2.069v-.695l2.089,1.205v.7Zm12.714.646a2.123,2.123,0,0,1-.96-1.664c0-.612.43-.86.96-.554a2.122,2.122,0,0,1,.961,1.664c0,.435-.216.686-.532.686A.871.871,0,0,1-172.5,1478.059Zm-14.643-1.4v-1.412l1.223.707v1.412Zm15.836-1.758-2.386-1.377a1.137,1.137,0,0,1-.515-.892c0-.328.23-.461.515-.3l2.386,1.378a1.135,1.135,0,0,1,.515.891c0,.233-.116.367-.285.367A.468.468,0,0,1-171.307,1474.9Zm-13.546-1.325a8.245,8.245,0,0,1-1.348-.984,11.546,11.546,0,0,1-3.8-7.93h0c0-3.282,2.3-4.612,5.147-2.971a11.377,11.377,0,0,1,5.147,8.915c0,2.328-1.16,3.675-2.849,3.675A4.667,4.667,0,0,1-184.853,1473.575Zm-4.118-8.321a9.113,9.113,0,0,0,4.118,7.132c2.27,1.311,4.117.245,4.117-2.377a9.116,9.116,0,0,0-4.117-7.133,3.727,3.727,0,0,0-1.835-.56C-188.04,1462.317-188.97,1463.394-188.97,1465.255Zm4.118,5.674a2.127,2.127,0,0,1-.96-1.665c0-.612.43-.86.96-.554a2.122,2.122,0,0,1,.961,1.664c0,.435-.217.686-.532.686A.872.872,0,0,1-184.853,1470.929Zm1.192-3.16-2.386-1.378a1.133,1.133,0,0,1-.514-.892c0-.328.23-.461.514-.3l2.386,1.377a1.137,1.137,0,0,1,.515.891c0,.233-.116.368-.285.368A.468.468,0,0,1-183.66,1467.769Z" transform="translate(190 -1460.986)" stroke="rgba(0,0,0,0)" stroke-miterlimit="10" stroke-width="1" fill="url(#linear-gradient)"/>
  </g>
</svg>
