<svg xmlns="http://www.w3.org/2000/svg" width="15.728" height="26.74" viewBox="0 0 15.728 26.74">
    <defs>
        <style>
            .cls-1{fill:#191919}
        </style>
    </defs>
    <g id="그룹_2084" data-name="그룹 2084">
        <path id="패스_6801" data-name="패스 6801" class="cls-1" d="M50.637 11.988c-2.594 0-4.627-2.951-4.627-6.718 0-3.299 1.729-5.27 4.627-5.27s4.627 1.97 4.627 5.269c0 3.767-2.032 6.718-4.627 6.718m0-10.143c-1.873 0-2.782 1.12-2.782 3.425 0 2.642 1.274 4.874 2.782 4.874s2.782-2.232 2.782-4.874c0-2.3-.91-3.425-2.782-3.425" transform="translate(-39.535 -.001)"/>
        <path id="패스_6802" data-name="패스 6802" class="cls-1" d="M13.837 99.927H.943a.922.922 0 0 1-.921-.886C-.014 98.1-.254 89.8 2.384 87.059a2.957 2.957 0 0 1 2.158-.959h.273c1.019 0 1.361.007 1.883-.6a.922.922 0 1 1 1.4 1.2 3.641 3.641 0 0 1-3.293 1.245h-.263a1.094 1.094 0 0 0-.829.4c-1.586 1.641-1.884 6.955-1.867 9.738h11.99a.922.922 0 1 1 0 1.844" transform="translate(0 -73.187)"/>
        <path id="패스_6803" data-name="패스 6803" class="cls-1" d="M33.716 150.592a.922.922 0 0 1-.922-.922v-4.61a.922.922 0 1 1 1.844 0v4.61a.922.922 0 0 1-.922.922" transform="translate(-28.179 -123.852)"/>
    </g>
</svg>
