<svg id="그룹_12656" data-name="그룹 12656" xmlns="http://www.w3.org/2000/svg" xmlns:xlink="http://www.w3.org/1999/xlink" width="75.488" height="80.024" viewBox="0 0 75.488 80.024">
  <defs>
    <linearGradient id="linear-gradient" x1="-17.834" y1="10.741" x2="-17.485" y2="10.741" gradientUnits="objectBoundingBox">
      <stop offset="0" stop-color="#50cfc7"/>
      <stop offset="0" stop-color="#00c9bc"/>
      <stop offset="0.133" stop-color="#06bcb5"/>
      <stop offset="0.376" stop-color="#189ba4"/>
      <stop offset="0.699" stop-color="#346688"/>
      <stop offset="1" stop-color="#522f6b"/>
    </linearGradient>
    <clipPath id="clip-path">
      <rect id="사각형_11734" data-name="사각형 11734" width="75.488" height="80.024" fill="none"/>
    </clipPath>
    <clipPath id="clip-path-2">
      <path id="패스_14184" data-name="패스 14184" d="M51.1,43.385a2.126,2.126,0,0,0,.963,1.667c.531.307.962.058.962-.556a2.127,2.127,0,0,0-.962-1.667.875.875,0,0,0-.431-.132c-.316,0-.532.252-.532.687" transform="translate(-51.095 -42.698)" fill="url(#linear-gradient)"/>
    </clipPath>
    <clipPath id="clip-path-3">
      <path id="패스_14186" data-name="패스 14186" d="M51.1,33.956l24.2,13.97V34.03L51.1,20.061Z" transform="translate(-51.095 -20.061)" fill="none"/>
    </clipPath>
    <linearGradient id="linear-gradient-3" x1="-1.419" y1="1.443" x2="-1.391" y2="1.443" gradientUnits="objectBoundingBox">
      <stop offset="0" stop-color="#00c9bc"/>
      <stop offset="0.133" stop-color="#06bcb5"/>
      <stop offset="0.376" stop-color="#189ba4"/>
      <stop offset="0.699" stop-color="#346688"/>
      <stop offset="1" stop-color="#56c5ff"/>
    </linearGradient>
    <clipPath id="clip-path-5">
      <path id="패스_14199" data-name="패스 14199" d="M88.781,60.587l5.131,2.962v-3.73l-5.131-2.962Z" transform="translate(-88.781 -56.856)" fill="#f6ca0f"/>
    </clipPath>
    <clipPath id="clip-path-7">
      <path id="패스_14214" data-name="패스 14214" d="M76.942,58.593a.323.323,0,0,0,.147.254l1.894,1.094c.081.048.147.009.147-.084a.325.325,0,0,0-.147-.255l-1.894-1.094a.133.133,0,0,0-.066-.019c-.048,0-.081.038-.081.1" transform="translate(-76.942 -58.488)" fill="none"/>
    </clipPath>
    <linearGradient id="linear-gradient-4" x1="-23.616" y1="10.427" x2="-23.309" y2="10.427" gradientUnits="objectBoundingBox">
      <stop offset="0" stop-color="#00c9bc"/>
      <stop offset="0.133" stop-color="#06bcb5"/>
      <stop offset="0.376" stop-color="#189ba4"/>
      <stop offset="0.699" stop-color="#346688"/>
      <stop offset="1" stop-color="#522f6b"/>
    </linearGradient>
    <clipPath id="clip-path-9">
      <path id="패스_14217" data-name="패스 14217" d="M84.073,62.71a.327.327,0,0,0,.146.255l1.9,1.094c.081.046.147.009.147-.085a.325.325,0,0,0-.147-.255l-1.9-1.094a.135.135,0,0,0-.066-.02c-.048,0-.081.038-.081.1" transform="translate(-84.073 -62.605)" fill="none"/>
    </clipPath>
    <linearGradient id="linear-gradient-5" x1="-25.805" y1="9.742" x2="-25.498" y2="9.742" xlink:href="#linear-gradient-4"/>
  </defs>
  <g id="그룹_12657" data-name="그룹 12657">
    <g id="그룹_12656-2" data-name="그룹 12656" clip-path="url(#clip-path)">
      <path id="패스_14173" data-name="패스 14173" d="M.782,70.741l.162.6L29.087,55a1.437,1.437,0,0,1,1.293-.054L72.769,79.857l.351-.443.762-.09,0,1.367h0a.514.514,0,0,1-.312.436L44.8,97.831a1.439,1.439,0,0,1-1.293.053L.225,72.448a.386.386,0,0,1-.219-.3h0v-.006a.34.34,0,0,1,0-.058V70.686Z" transform="translate(-0.001 -17.99)" fill="#3f5169"/>
      <path id="패스_14174" data-name="패스 14174" d="M45.349.071a.366.366,0,0,1,.435,0l43.631,25.19a1.436,1.436,0,0,1,.6,1.147v33.74a.514.514,0,0,1-.222.488v0l-1.145.616-1.025-1.236.657-.083-42.5-24.959a1.436,1.436,0,0,1-.6-1.146V2.873L44.261.74Z" transform="translate(-14.527 0)" fill="#3f5169"/>
      <path id="패스_14175" data-name="패스 14175" d="M44.6,35.9,88.231,61.528c.331.191.6-.012.6-.453V27.418a1.437,1.437,0,0,0-.6-1.146L44.6,1.082c-.331-.191-.6.011-.6.453v33.22a1.438,1.438,0,0,0,.6,1.147" transform="translate(-14.441 -0.331)" fill="#b4cadd"/>
      <path id="패스_14176" data-name="패스 14176" d="M87.267,59.032v-28.2L48.55,8.482V36.244Z" transform="translate(-15.934 -2.784)" fill="#37384f"/>
      <path id="패스_14177" data-name="패스 14177" d="M.316,69.587l28.77-16.61a1.437,1.437,0,0,1,1.293-.054L73.659,78.36c.332.191.29.525-.093.746L44.8,95.716a1.439,1.439,0,0,1-1.293.054L24.358,84.518l.124-.072c.052-.03.058-.076.013-.1l-4.783-2.762a.2.2,0,0,0-.176.007l-.08.046L.224,70.333c-.331-.191-.29-.525.093-.746" transform="translate(0 -17.327)" fill="#f1f2f2"/>
      <path id="패스_14178" data-name="패스 14178" d="M46.6,81.886,33.522,74.337a.89.89,0,0,0-.428-.093,1.239,1.239,0,0,0-.6.148l-6.6,3.81c-.146.084-.175.159-.175.174s.015.035.079.073L38.872,86a.9.9,0,0,0,.428.093,1.243,1.243,0,0,0,.6-.148l6.6-3.809c.146-.085.175-.159.175-.174s-.014-.035-.079-.073M47.72,67.429l2.41,1.392,2.41-1.392-2.41-1.391Zm2.834,1.637,2.41,1.392,2.411-1.392-2.411-1.391ZM43.8,72.476l-2.41-1.391-2.411,1.391,2.411,1.392Zm22.913,3.136L64.3,74.22l-2.411,1.392L64.3,77ZM63.8,77.294,61.389,75.9l-2.411,1.392,2.411,1.392ZM42.05,64.157l2.411,1.391,2.41-1.391-2.41-1.392Zm17.007,9.818,2.411,1.392,2.41-1.392-2.41-1.392Zm-2.834-1.636,2.41,1.392,2.411-1.392-2.411-1.392ZM53.388,70.7l2.41,1.392L58.21,70.7,55.8,69.31Zm-15.336,1.82-2.41-1.392L33.23,72.522l2.411,1.391Zm-2.834-1.636-2.411-1.392L30.4,70.886l2.411,1.391Zm-5.245-.245,2.411-1.391-2.411-1.392-2.41,1.392Zm10.993.2-2.41-1.391-2.411,1.391,2.411,1.392ZM27.641,65.93l2.41,1.392,2.411-1.392-2.411-1.392ZM36.3,64.2l2.411,1.391,2.41-1.391-2.41-1.392Zm2.914-1.682,2.411,1.391,2.41-1.391-2.41-1.392Zm-5.827,3.364L35.8,67.276l2.41-1.391L35.8,64.493Zm-2.834-1.637,2.41,1.391,2.411-1.391-2.411-1.392Zm14.331,1.544,2.41,1.392,2.41-1.392L47.3,64.4Zm16,13.183-2.41-1.392-2.411,1.392,2.411,1.392Zm-7.577-4.955,2.41,1.392,2.411-1.392-2.411-1.392Zm7.656,1.636-2.41-1.392-2.411,1.392,2.411,1.392ZM47.64,70.748l2.41,1.392,2.41-1.392-2.41-1.392Zm2.834,1.636,2.41,1.392L55.3,72.384l-2.411-1.392ZM38.131,69.2l-2.41-1.392L33.31,69.2l2.411,1.391Zm2.914-1.682-2.41-1.392-2.411,1.392,2.411,1.391ZM72.69,78.707l1.538-.887-2.411-1.392-1.537.887ZM30.475,67.567l2.411,1.391,2.41-1.391-2.411-1.392Zm14.331,1.544,2.41,1.392,2.41-1.392-2.41-1.391Zm7.577,4.955-2.411-1.392-2.41,1.392,2.41,1.392ZM49.548,72.43l-2.41-1.391-2.41,1.391,2.41,1.392ZM55.217,75.7l-2.411-1.392L50.4,75.7l2.41,1.392ZM41.971,67.476l2.411,1.391,2.41-1.391-2.41-1.392Zm16.08,9.864L55.64,75.948,53.23,77.34l2.41,1.392Zm-18.914-11.5,2.411,1.391,2.41-1.391-2.41-1.392Zm7.577,4.955L44.3,69.4l-2.41,1.391,2.41,1.392Zm-2.834-1.636-2.41-1.392-2.411,1.391,2.411,1.392ZM40.214,58.182,37.8,56.79l-1.538.887,2.411,1.392ZM29.628,64.294,27.217,62.9l-2.41,1.392,2.41,1.392Zm-5.325.29-2.41,1.392,2.41,1.392,2.411-1.392Zm5.245,3.028-2.411-1.392-2.41,1.392L27.138,69Zm8.927,5.154-2.411,1.391L49.813,82.1,52.224,80.7ZM41.2,60.884l-5.245-3.028-2.41,1.392,5.245,3.028Zm-8.159,1.438,2.834,1.636,2.411-1.391L35.455,60.93l-2.411-1.392L27.72,62.612,30.131,64ZM47.18,63.979l1.537-.888L46.307,61.7l-1.537.887Zm-2.834-1.637,1.537-.887-2.41-1.392-1.537.887Zm8.3,18.606-2.41,1.392,2.41,1.392,2.411-1.392ZM41.512,60.706l1.537-.887-2.41-1.392-1.538.887ZM64.647,80.567l5.245,3.028L72.3,82.2l-5.245-3.028Zm5.748-.046,2.41,1.391,2.411-1.391-2.411-1.392Zm4.256-2.457-1.537.887,2.41,1.392,1.538-.887ZM46.634,74.112l-2.41-1.391-2.41,1.391,2.41,1.392ZM58.317,84.222l-2.411,1.392,2.411,1.392,2.41-1.392Zm.5-.29,5.245,3.028,2.41-1.391L61.23,82.539Zm-3.337-1.346-2.411,1.392,2.411,1.392,2.41-1.392ZM58.74,87.25l2.411,1.392,2.41-1.392-2.41-1.392Zm2.993-5,5.245,3.028,2.41-1.392-5.245-3.028Zm1.987-1.636-2.41-1.392L58.9,80.613,61.309,82Zm-2.914,1.682L58.4,80.9l-2.411,1.392L58.4,83.687Zm8.741-5.047-2.41-1.392-2.411,1.392,2.411,1.392ZM66.633,78.93l-2.41-1.392L61.812,78.93l2.411,1.392Zm-8.661,1.728-2.411-1.392-2.41,1.392,2.411,1.392Zm-8.5-4.909-2.411-1.392-2.41,1.392,2.41,1.392ZM52.3,77.385l-2.411-1.392-2.41,1.392,2.41,1.392Zm2.834,1.636L52.727,77.63l-2.41,1.392,2.41,1.392ZM69.855,77.07l1.537-.887-2.41-1.392-1.537.887Zm-8.5-4.91,1.537-.887-2.41-1.392-1.538.887Zm-5.669-3.273L57.221,68,54.81,66.608l-1.537.888Zm2.835,1.637,1.537-.887-2.411-1.392-1.537.887Zm-5.669-3.273,1.538-.887-2.411-1.391-1.537.887Zm-2.834-1.636,1.537-.887-2.41-1.391-1.537.887ZM64.187,73.8l1.537-.887-2.41-1.392-1.538.887Zm8.195,5.088-2.41-1.392-2.41,1.392,2.41,1.392Zm-5.36-3.451,1.537-.887-2.41-1.392-1.537.887Z" transform="translate(-7.185 -18.639)" fill="#97aabd"/>
      <path id="패스_14179" data-name="패스 14179" d="M98.406,41.046h0a.909.909,0,0,1-.41-.711c0-.262.184-.368.41-.237a.909.909,0,0,1,.41.711c0,.262-.184.368-.41.237" transform="translate(-32.162 -13.142)" fill="#81e1dc"/>
      <path id="패스_14180" data-name="패스 14180" d="M100.441,42.221h0a.909.909,0,0,1-.41-.711c0-.262.184-.368.41-.237a.909.909,0,0,1,.41.711c0,.262-.184.368-.41.237" transform="translate(-32.83 -13.528)" fill="#81e1dc"/>
      <path id="패스_14181" data-name="패스 14181" d="M102.475,43.4h0a.909.909,0,0,1-.41-.711c0-.262.184-.368.41-.237a.909.909,0,0,1,.41.711c0,.262-.184.368-.41.237" transform="translate(-33.498 -13.913)" fill="#81e1dc"/>
      <path id="패스_14182" data-name="패스 14182" d="M78.544,34,64,25.6a1.427,1.427,0,0,1-.646-1.119c0-.412.29-.578.646-.373l14.549,8.4a1.427,1.427,0,0,1,.646,1.119c0,.412-.289.578-.646.373" transform="translate(-20.791 -7.885)" fill="#1f8f9e"/>
    </g>
  </g>
  <g id="그룹_12659" data-name="그룹 12659" transform="translate(34.326 28.684)">
    <g id="그룹_12658" data-name="그룹 12658" clip-path="url(#clip-path-2)">
      <path id="패스_14183" data-name="패스 14183" d="M53.02,45.927,51.1,44.816V41.044l1.925,1.111Z" transform="translate(-51.095 -42.155)" fill="url(#linear-gradient)"/>
    </g>
  </g>
  <g id="그룹_12661" data-name="그룹 12661" transform="translate(34.326 13.477)">
    <g id="그룹_12660" data-name="그룹 12660" clip-path="url(#clip-path-3)">
      <path id="패스_14185" data-name="패스 14185" d="M75.291,55.071,51.1,41.1V-.734l24.2,13.97Z" transform="translate(-51.095 -13.236)" fill="url(#linear-gradient-3)"/>
    </g>
  </g>
  <g id="그룹_12663" data-name="그룹 12663">
    <g id="그룹_12662" data-name="그룹 12662" clip-path="url(#clip-path)">
      <path id="패스_14187" data-name="패스 14187" d="M93.911,48.549l-5.131-2.962v-3.73l5.131,2.962Z" transform="translate(-29.138 -13.737)" fill="#fff"/>
      <path id="패스_14188" data-name="패스 14188" d="M101.245,49.6l-3.776-2.18a.326.326,0,0,1-.147-.255c0-.094.066-.132.147-.085l3.776,2.18a.325.325,0,0,1,.147.255c0,.093-.066.132-.147.085" transform="translate(-31.941 -15.445)" fill="#fff"/>
      <path id="패스_14189" data-name="패스 14189" d="M101.245,50.5l-3.776-2.18a.326.326,0,0,1-.147-.255c0-.094.066-.132.147-.085l3.776,2.18a.325.325,0,0,1,.147.255c0,.093-.066.132-.147.085" transform="translate(-31.941 -15.742)" fill="#fff"/>
      <path id="패스_14190" data-name="패스 14190" d="M101.245,51.408l-3.776-2.18a.326.326,0,0,1-.147-.255c0-.094.066-.132.147-.085l3.776,2.18a.325.325,0,0,1,.147.255c0,.093-.066.132-.147.085" transform="translate(-31.941 -16.039)" fill="#fff"/>
      <path id="패스_14191" data-name="패스 14191" d="M101.245,52.312l-3.776-2.18a.326.326,0,0,1-.147-.255c0-.094.066-.132.147-.085l3.776,2.18a.325.325,0,0,1,.147.255c0,.093-.066.132-.147.085" transform="translate(-31.941 -16.336)" fill="#fff"/>
      <path id="패스_14192" data-name="패스 14192" d="M99.216,52.046l-1.747-1.009a.323.323,0,0,1-.147-.254c0-.094.066-.132.147-.085l1.747,1.009a.325.325,0,0,1,.147.255c0,.093-.066.132-.147.085" transform="translate(-31.941 -16.632)" fill="#fff"/>
      <path id="패스_14193" data-name="패스 14193" d="M93.911,56.049l-5.131-2.962v-3.73l5.131,2.962Z" transform="translate(-29.138 -16.199)" fill="#1f8f9e"/>
      <path id="패스_14194" data-name="패스 14194" d="M101.245,57.1l-3.776-2.18a.326.326,0,0,1-.147-.255c0-.094.066-.132.147-.085l3.776,2.18a.325.325,0,0,1,.147.255c0,.093-.066.132-.147.085" transform="translate(-31.941 -17.907)" fill="#fff"/>
      <path id="패스_14195" data-name="패스 14195" d="M101.245,58l-3.776-2.18a.326.326,0,0,1-.147-.255c0-.094.066-.132.147-.085l3.776,2.18a.325.325,0,0,1,.147.255c0,.093-.066.132-.147.085" transform="translate(-31.941 -18.204)" fill="#fff"/>
      <path id="패스_14196" data-name="패스 14196" d="M101.245,58.908l-3.776-2.18a.326.326,0,0,1-.147-.255c0-.094.066-.132.147-.085l3.776,2.18a.325.325,0,0,1,.147.255c0,.093-.066.132-.147.085" transform="translate(-31.941 -18.5)" fill="#fff"/>
      <path id="패스_14197" data-name="패스 14197" d="M101.245,59.812l-3.776-2.18a.326.326,0,0,1-.147-.255c0-.094.066-.132.147-.085l3.776,2.18a.325.325,0,0,1,.147.255c0,.093-.066.132-.147.085" transform="translate(-31.941 -18.797)" fill="#fff"/>
      <path id="패스_14198" data-name="패스 14198" d="M99.216,59.546l-1.747-1.009a.323.323,0,0,1-.147-.254c0-.094.066-.132.147-.085l1.747,1.009a.325.325,0,0,1,.147.255c0,.093-.066.132-.147.085" transform="translate(-31.941 -19.094)" fill="#fff"/>
    </g>
  </g>
  <g id="그룹_12665" data-name="그룹 12665" transform="translate(59.643 38.196)">
    <g id="그룹_12664" data-name="그룹 12664" clip-path="url(#clip-path-5)">
      <rect id="사각형_11736" data-name="사각형 11736" width="5.131" height="6.692" transform="translate(0 0)" fill="#50cfc7"/>
    </g>
  </g>
  <g id="그룹_12667" data-name="그룹 12667">
    <g id="그룹_12666" data-name="그룹 12666" clip-path="url(#clip-path)">
      <path id="패스_14200" data-name="패스 14200" d="M101.245,64.6l-3.776-2.18a.326.326,0,0,1-.147-.255c0-.094.066-.132.147-.085l3.776,2.18a.325.325,0,0,1,.147.255c0,.093-.066.132-.147.085" transform="translate(-31.941 -20.368)" fill="#fff"/>
      <path id="패스_14201" data-name="패스 14201" d="M101.245,65.5l-3.776-2.18a.326.326,0,0,1-.147-.255c0-.094.066-.132.147-.085l3.776,2.18a.325.325,0,0,1,.147.255c0,.093-.066.132-.147.085" transform="translate(-31.941 -20.665)" fill="#fff"/>
      <path id="패스_14202" data-name="패스 14202" d="M101.245,66.408l-3.776-2.18a.326.326,0,0,1-.147-.255c0-.094.066-.132.147-.085l3.776,2.18a.325.325,0,0,1,.147.255c0,.093-.066.132-.147.085" transform="translate(-31.941 -20.962)" fill="#fff"/>
      <path id="패스_14203" data-name="패스 14203" d="M101.245,67.312l-3.776-2.18a.326.326,0,0,1-.147-.255c0-.094.066-.132.147-.085l3.776,2.18a.325.325,0,0,1,.147.255c0,.093-.066.132-.147.085" transform="translate(-31.941 -21.259)" fill="#fff"/>
      <path id="패스_14204" data-name="패스 14204" d="M99.216,67.046l-1.747-1.009a.323.323,0,0,1-.147-.254c0-.094.066-.132.147-.085l1.747,1.009a.325.325,0,0,1,.147.255c0,.093-.066.132-.147.085" transform="translate(-31.941 -21.555)" fill="#fff"/>
      <path id="패스_14205" data-name="패스 14205" d="M93.911,70.828l-5.131-2.962v-3.51l5.131,2.962Z" transform="translate(-29.138 -21.122)" fill="#fff"/>
      <path id="패스_14206" data-name="패스 14206" d="M101.245,72.1l-3.776-2.18a.326.326,0,0,1-.147-.255c0-.094.066-.132.147-.085l3.776,2.18a.325.325,0,0,1,.147.255c0,.093-.066.132-.147.085" transform="translate(-31.941 -22.83)" fill="#fff"/>
      <path id="패스_14207" data-name="패스 14207" d="M101.245,73l-3.776-2.18a.326.326,0,0,1-.147-.255c0-.094.066-.132.147-.085l3.776,2.18a.325.325,0,0,1,.147.255c0,.093-.066.132-.147.085" transform="translate(-31.941 -23.127)" fill="#fff"/>
      <path id="패스_14208" data-name="패스 14208" d="M101.245,73.908l-3.776-2.18a.326.326,0,0,1-.147-.255c0-.094.066-.132.147-.085l3.776,2.18a.325.325,0,0,1,.147.255c0,.093-.066.132-.147.085" transform="translate(-31.941 -23.423)" fill="#fff"/>
      <path id="패스_14209" data-name="패스 14209" d="M99.216,73.642l-1.747-1.009a.323.323,0,0,1-.147-.254c0-.094.066-.132.147-.085L99.216,73.3a.325.325,0,0,1,.147.255c0,.093-.066.132-.147.085" transform="translate(-31.941 -23.72)" fill="#fff"/>
      <path id="패스_14210" data-name="패스 14210" d="M63.116,50.432l-8-4.619a.65.65,0,0,1-.294-.509c0-.187.132-.263.294-.17l8,4.619a.648.648,0,0,1,.294.509c0,.187-.131.263-.294.17" transform="translate(-17.992 -14.8)" fill="#fff"/>
      <path id="패스_14211" data-name="패스 14211" d="M60.781,50.323l-5.594-3.229a.327.327,0,0,1-.146-.255c0-.093.066-.132.146-.085l5.594,3.229a.325.325,0,0,1,.147.255c0,.093-.066.132-.147.085" transform="translate(-18.064 -15.338)" fill="#1f8f9e"/>
      <path id="패스_14212" data-name="패스 14212" d="M75.806,58.452l-.636-.367c-.152-.087-.245-.335-.164-.437l.318-.4c.076-.1.253.006.329.189l.318.769c.081.2-.011.336-.164.248" transform="translate(-24.607 -18.776)" fill="#fff"/>
    </g>
  </g>
  <g id="그룹_12669" data-name="그룹 12669" transform="translate(51.689 39.292)">
    <g id="그룹_12668" data-name="그룹 12668" clip-path="url(#clip-path-7)">
      <path id="패스_14213" data-name="패스 14213" d="M79.131,60.634l-2.189-1.264V56.607l2.189,1.264Z" transform="translate(-76.942 -57.871)" fill="url(#linear-gradient-4)"/>
    </g>
  </g>
  <g id="그룹_12671" data-name="그룹 12671">
    <g id="그룹_12670" data-name="그룹 12670" clip-path="url(#clip-path)">
      <path id="패스_14215" data-name="패스 14215" d="M82.454,61.949l-.318-.769c-.081-.2.011-.336.164-.248l.636.367c.152.088.245.335.164.437l-.318.4c-.076.1-.253-.006-.329-.189" transform="translate(-26.947 -19.989)" fill="#fff"/>
    </g>
  </g>
  <g id="그룹_12673" data-name="그룹 12673" transform="translate(56.48 42.058)">
    <g id="그룹_12672" data-name="그룹 12672" clip-path="url(#clip-path-9)">
      <path id="패스_14216" data-name="패스 14216" d="M86.262,64.751l-2.189-1.264V60.724l2.189,1.264Z" transform="translate(-84.073 -61.988)" fill="url(#linear-gradient-5)"/>
    </g>
  </g>
  <g id="그룹_12675" data-name="그룹 12675">
    <g id="그룹_12674" data-name="그룹 12674" clip-path="url(#clip-path)">
      <path id="패스_14218" data-name="패스 14218" d="M53.172,19.2l-1.789-1.033a.635.635,0,0,1-.288-.5v-.983c0-.183.129-.258.288-.166l1.789,1.033a.637.637,0,0,1,.288.5v.983c0,.183-.129.258-.288.166" transform="translate(-16.769 -5.409)" fill="#1f8f9e"/>
      <path id="패스_14219" data-name="패스 14219" d="M58.169,21.84l-2.775-1.6a.651.651,0,0,1-.294-.509c0-.187.132-.263.294-.169l2.775,1.6a.648.648,0,0,1,.294.509c0,.187-.131.263-.294.169" transform="translate(-18.084 -6.406)" fill="#fff"/>
      <path id="패스_14220" data-name="패스 14220" d="M72.636,38.346l-5.571,3.217a2.2,2.2,0,0,0-.577-.511,1.022,1.022,0,0,0-.576-.155l-3.765-6.52A1.018,1.018,0,0,0,62.3,33.8a2.638,2.638,0,0,0-1.194-2.068c-.659-.381-1.194-.072-1.194.689a2.184,2.184,0,0,0,.155.755L56.3,35.35a2.2,2.2,0,0,0-.576-.511c-.66-.381-1.194-.072-1.194.689A2.637,2.637,0,0,0,55.727,37.6c.659.381,1.194.073,1.194-.689a2.184,2.184,0,0,0-.155-.755l3.765-2.173a2.173,2.173,0,0,0,.576.511,1.017,1.017,0,0,0,.576.155l3.765,6.52a1.021,1.021,0,0,0-.155.576,2.638,2.638,0,0,0,1.194,2.068c.66.381,1.194.073,1.194-.689a2.165,2.165,0,0,0-.155-.754L73.1,39.148Zm-1.01-1.75,2.484,4.3V38.03Z" transform="translate(-17.898 -10.361)" fill="#fff"/>
    </g>
  </g>
</svg>
