<svg xmlns="http://www.w3.org/2000/svg" width="21.123" height="5.987" viewBox="0 0 21.123 5.987">
  <g id="손1" transform="translate(-7.896 -7.957)">
    <path id="합치기_29" data-name="합치기 29" d="M-166.747,1457.617c-.384-.068-.744-.128-1.119-.189-.742-.122-1.485-.238-2.217-.4s-1.454-.345-2.165-.572a5.182,5.182,0,0,1-1.03-.474,3.731,3.731,0,0,1-.94-.786,1.224,1.224,0,0,1,.148-1.725,1.255,1.255,0,0,1,.407-.226,3.782,3.782,0,0,1,1.214-.173,5.163,5.163,0,0,1,1.124.14c.725.181,1.438.4,2.143.654s1.4.545,2.092.832l1.036.424a3.623,3.623,0,0,0,.836.246,4.3,4.3,0,0,0,1.782-.081l2.156-.6,3.392-.952a1.154,1.154,0,0,1,.471-.735,1.469,1.469,0,0,1,.492-.163,4.515,4.515,0,0,1,1.133-.067,1.055,1.055,0,0,1,.609.188,1.1,1.1,0,0,1,.31.7,6.924,6.924,0,0,1,.077.735.782.782,0,0,1-.087.481.289.289,0,0,1-.427.075c-.1-.108-.067-.3-.171-.4-.133-.133-.355-.028-.515.071a1.613,1.613,0,0,1-1.387.229l-3.311,1.466-2.06.91a6.646,6.646,0,0,1-2.627.519h-.053A7.514,7.514,0,0,1-166.747,1457.617Z" transform="translate(183.311 -1444.304)" fill="#f4acc8" stroke="rgba(0,0,0,0)" stroke-miterlimit="10" stroke-width="1"/>
    <path id="패스_14245" data-name="패스 14245" d="M11.539,13.6c-1.329,1.4,4.471,3.036,6.047,3.322,2.182.4,4.382.9,6.514,0a42.1,42.1,0,0,0,4.265-1.876c.253-.77-.165-1.584-.684-1.658a13.257,13.257,0,0,0-3,.756,6.057,6.057,0,0,1-3.89.243c-1.338-.47-2.606-1.1-3.962-1.536a7.953,7.953,0,0,0-2.375-.421A3.863,3.863,0,0,0,11.539,13.6" transform="translate(-3.448 -3.776)" fill="#83ffdf"/>
  </g>
</svg>
