<svg xmlns="http://www.w3.org/2000/svg" width="11.158" height="11.1" viewBox="0 0 11.158 11.1">
  <path id="icon_설정" data-name="icon / 설정" d="M11.485,7.89a3.585,3.585,0,0,0,.032-.49,2.928,2.928,0,0,0-.037-.49l1.087-.823a.251.251,0,0,0,.064-.318L11.6,4.041a.265.265,0,0,0-.316-.115l-1.28.5a3.809,3.809,0,0,0-.867-.49L8.947,2.614A.257.257,0,0,0,8.69,2.4H6.634a.251.251,0,0,0-.252.214L6.19,3.936a3.893,3.893,0,0,0-.867.49l-1.28-.5a.259.259,0,0,0-.316.115L2.7,5.77a.233.233,0,0,0,.064.318l1.087.823a2.82,2.82,0,0,0-.011.979l-1.087.823a.251.251,0,0,0-.064.318l1.028,1.729a.265.265,0,0,0,.316.115l1.28-.5a3.809,3.809,0,0,0,.867.49l.193,1.323a.261.261,0,0,0,.257.214H8.69a.248.248,0,0,0,.252-.214l.193-1.323a3.7,3.7,0,0,0,.867-.49l1.28.5a.259.259,0,0,0,.316-.115L12.626,9.03a.237.237,0,0,0-.064-.318ZM7.662,9.275A1.876,1.876,0,1,1,9.59,7.4,1.907,1.907,0,0,1,7.662,9.275Z" transform="translate(-2.083 -1.85)" fill="none" stroke="#5775e9" stroke-width="1.1"/>
</svg>
