<svg xmlns="http://www.w3.org/2000/svg" width="26" height="26" viewBox="0 0 26 26">
  <g id="icon" transform="translate(1 1.869)">
    <rect id="area" width="26" height="26" transform="translate(-1 -1.869)" fill="none"/>
    <g id="그룹_3694" data-name="그룹 3694" transform="translate(0.526 1.131)">
      <path id="패스_63778" data-name="패스 63778" d="M1.066.74H21.88a.326.326,0,0,1,0,.652H1.066a.326.326,0,0,1,0-.652M21.225,18.284H1.721V13.5h19.5Zm-1.007,1.107H2.738v-.367h17.48ZM21.225,6.912H1.721V2.132h19.5Zm-19.5.74h19.5v5.112H1.721ZM.981,2.128V18.654a.37.37,0,0,0,.37.37H2v.737a.37.37,0,0,0,.37.37h18.22a.37.37,0,0,0,.37-.37v-.737H21.6a.37.37,0,0,0,.37-.37V2.128A1.066,1.066,0,0,0,21.88,0H1.066A1.066,1.066,0,0,0,.981,2.128" fill="#fff"/>
      <path id="패스_63779" data-name="패스 63779" d="M61.077,45.612a.294.294,0,1,1-.294.294.294.294,0,0,1,.294-.294m0,1.329a1.034,1.034,0,1,0-1.034-1.034,1.035,1.035,0,0,0,1.034,1.034" transform="translate(-55.599 -41.551)" fill="#fff"/>
      <path id="패스_63780" data-name="패스 63780" d="M223.043,45.612a.294.294,0,1,1-.294.294.294.294,0,0,1,.294-.294m0,1.329a1.034,1.034,0,1,0-1.034-1.034,1.035,1.035,0,0,0,1.034,1.034" transform="translate(-205.576 -41.551)" fill="#fff"/>
      <path id="패스_63781" data-name="패스 63781" d="M223.043,125.261a.294.294,0,1,1,.294-.294.295.295,0,0,1-.294.294m0-1.329a1.034,1.034,0,1,0,1.034,1.034,1.035,1.035,0,0,0-1.034-1.034" transform="translate(-205.576 -114.759)" fill="#fff"/>
      <path id="패스_63782" data-name="패스 63782" d="M61.077,125.261a.294.294,0,1,1,.294-.294.295.295,0,0,1-.294.294m0-1.329a1.034,1.034,0,1,0,1.034,1.034,1.036,1.036,0,0,0-1.034-1.034" transform="translate(-55.599 -114.759)" fill="#fff"/>
      <path id="패스_63783" data-name="패스 63783" d="M223.043,203.732a.294.294,0,1,1-.294.294.294.294,0,0,1,.294-.294m0,1.328a1.034,1.034,0,1,0-1.034-1.034,1.036,1.036,0,0,0,1.034,1.034" transform="translate(-205.576 -187.967)" fill="#fff"/>
      <path id="패스_63784" data-name="패스 63784" d="M61.077,203.732a.294.294,0,1,1-.294.294.294.294,0,0,1,.294-.294m0,1.328a1.034,1.034,0,1,0-1.034-1.034,1.035,1.035,0,0,0,1.034,1.034" transform="translate(-55.599 -187.967)" fill="#fff"/>
    </g>
  </g>
</svg>
