<svg xmlns="http://www.w3.org/2000/svg" width="26" height="26" viewBox="0 0 26 26">
  <g id="icon" transform="translate(-731 -829)">
    <rect id="area" width="26" height="26" transform="translate(731 829)" fill="none"/>
    <g id="그룹_3697" data-name="그룹 3697" transform="translate(5.921 0.25)">
      <path id="패스_63786" data-name="패스 63786" d="M31.623,0H27.756A1.508,1.508,0,0,0,26.25,1.506V5.041a.354.354,0,1,0,.707,0V1.506a.8.8,0,0,1,.8-.8h3.868a.8.8,0,0,1,.8.8V1.74a1.508,1.508,0,0,0,1.506,1.506h9.024a.8.8,0,0,1,.8.8v1a.354.354,0,1,0,.707,0v-1a1.508,1.508,0,0,0-1.506-1.506H33.928a.8.8,0,0,1-.8-.8V1.506A1.508,1.508,0,0,0,31.623,0" transform="translate(702.686 831.75)" fill="#999"/>
      <path id="패스_63787" data-name="패스 63787" d="M95.126,108.853h7.153v1.126a.962.962,0,0,1-.96.96H96.087a.962.962,0,0,1-.96-.96Zm.96,2.794h5.232a1.67,1.67,0,0,0,1.668-1.668V108.5a.354.354,0,0,0-.354-.354h-7.86a.354.354,0,0,0-.354.354v1.48a1.669,1.669,0,0,0,1.668,1.668" transform="translate(639.337 731.251)" fill="#999"/>
      <path id="패스_63788" data-name="패스 63788" d="M21.213,93.424a1.044,1.044,0,0,1-1.043,1.043H1.75A1.044,1.044,0,0,1,.707,93.424V81.064H21.213Zm.354-13.067H.354A.354.354,0,0,0,0,80.711V93.424a1.752,1.752,0,0,0,1.75,1.75H20.17a1.752,1.752,0,0,0,1.75-1.75V80.711a.354.354,0,0,0-.354-.354" transform="translate(727.079 757.075)" fill="#999"/>
    </g>
  </g>
</svg>
