<svg id="레이어on.off" xmlns="http://www.w3.org/2000/svg" width="26" height="26" viewBox="0 0 26 26">
  <g id="on" transform="translate(-320 -188)" opacity="0">
    <circle id="타원_1087" data-name="타원 1087" cx="13" cy="13" r="13" transform="translate(320 188)" fill="#353990"/>
    <g id="그룹_3649" data-name="그룹 3649" transform="translate(28.5 1.5)">
      <path id="패스_3469" data-name="패스 3469" d="M74.557,321.137c-.171-.189-4.246-4.625-9.38-4.625s-9.209,4.436-9.38,4.625a.471.471,0,0,0,0,.627c.171.189,4.246,4.625,9.38,4.625s9.209-4.436,9.38-4.625A.471.471,0,0,0,74.557,321.137Zm-17.814.313a16.036,16.036,0,0,1,4.936-3.3,5.062,5.062,0,0,0,.01,6.6A16.076,16.076,0,0,1,56.742,321.45Zm8.434,4a4.01,4.01,0,1,1,3.845-4.007A3.932,3.932,0,0,1,65.176,325.453Zm3.487-.7a5.062,5.062,0,0,0,.014-6.6,16.094,16.094,0,0,1,4.934,3.3A16.019,16.019,0,0,1,68.663,324.756Z" transform="translate(239.823 -122.012)" fill="#fff" stroke="#fff" stroke-width="0.4"/>
      <path id="패스_3470" data-name="패스 3470" d="M97.17,331.69a1.86,1.86,0,1,0,1.86,1.86A1.86,1.86,0,0,0,97.17,331.69Z" transform="translate(207.69 -134.19)" fill="#fff" stroke="#fff" stroke-width="0.4"/>
    </g>
  </g>
  <g id="off" transform="translate(-320 -188)">
    <g id="타원_1087-2" data-name="타원 1087" transform="translate(320 188)" fill="#fff" stroke="#d8dee3" stroke-width="1">
      <circle cx="13" cy="13" r="13" stroke="none"/>
      <circle cx="13" cy="13" r="12.5" fill="none"/>
    </g>
    <g id="그룹_3649-2" data-name="그룹 3649" transform="translate(28.5 1.5)">
      <path id="패스_3469-2" data-name="패스 3469" d="M74.557,321.137c-.171-.189-4.246-4.625-9.38-4.625s-9.209,4.436-9.38,4.625a.471.471,0,0,0,0,.627c.171.189,4.246,4.625,9.38,4.625s9.209-4.436,9.38-4.625A.471.471,0,0,0,74.557,321.137Zm-17.814.313a16.036,16.036,0,0,1,4.936-3.3,5.062,5.062,0,0,0,.01,6.6A16.076,16.076,0,0,1,56.742,321.45Zm8.434,4a4.01,4.01,0,1,1,3.845-4.007A3.932,3.932,0,0,1,65.176,325.453Zm3.487-.7a5.062,5.062,0,0,0,.014-6.6,16.094,16.094,0,0,1,4.934,3.3A16.019,16.019,0,0,1,68.663,324.756Z" transform="translate(239.823 -122.012)" fill="#999" stroke="#999" stroke-width="0.4"/>
      <rect id="사각형_9153" data-name="사각형 9153" width="3" height="20" transform="translate(310.642 191.5) rotate(45)" fill="#999" stroke="#fff" stroke-width="1.3"/>
    </g>
  </g>
</svg>
