<svg id="속성보기" xmlns="http://www.w3.org/2000/svg" xmlns:xlink="http://www.w3.org/1999/xlink" width="30" height="30" viewBox="0 0 30 30">
  <defs>
    <linearGradient id="linear-gradient" x2="1" y2="1" gradientUnits="objectBoundingBox">
      <stop offset="0" stop-color="#1b36eb"/>
      <stop offset="1" stop-color="#9e54ff"/>
    </linearGradient>
  </defs>
  <rect id="아이콘박스" width="30" height="30" rx="5" fill="#f6f6fe"/>
  <g id="icon_저장" data-name="icon / 저장" transform="translate(-41 -821)">
    <g id="패스_63676" data-name="패스 63676" transform="translate(48 828)" fill="none">
      <path d="M2.4,0h9.65L16,4.3v9.3A2.4,2.4,0,0,1,13.6,16H2.4A2.4,2.4,0,0,1,0,13.6V2.4A2.4,2.4,0,0,1,2.4,0Z" stroke="none"/>
      <path d="M 2.400074005126953 1.300004005432129 C 1.79349422454834 1.300004005432129 1.300004005432129 1.79349422454834 1.300004005432129 2.400074005126953 L 1.300004005432129 13.60041427612305 C 1.300004005432129 14.20699405670166 1.79349422454834 14.70048427581787 2.400074005126953 14.70048427581787 L 13.60041427612305 14.70048427581787 C 14.20699405670166 14.70048427581787 14.70048427581787 14.20699405670166 14.70048427581787 13.60041427612305 L 14.70048427581787 4.806605339050293 L 11.47930335998535 1.300004005432129 L 2.400074005126953 1.300004005432129 M 2.400074005126953 3.814697265625e-06 L 12.05036449432373 3.814697265625e-06 L 16.00048446655273 4.30013370513916 L 16.00048446655273 13.60041427612305 C 16.00048446655273 14.92593383789062 14.92593383789062 16.00048446655273 13.60041427612305 16.00048446655273 L 2.400074005126953 16.00048446655273 C 1.074543952941895 16.00048446655273 3.814697265625e-06 14.92593383789062 3.814697265625e-06 13.60041427612305 L 3.814697265625e-06 2.400074005126953 C 3.814697265625e-06 1.074543952941895 1.074543952941895 3.814697265625e-06 2.400074005126953 3.814697265625e-06 Z" stroke="none" fill="#8587bc"/>
    </g>
    <g id="사각형_9110" data-name="사각형 9110" transform="translate(51 836)" fill="none" stroke="#8587bc" stroke-width="1.3">
      <rect width="10" height="5" rx="0.5" stroke="none"/>
      <rect x="0.65" y="0.65" width="8.7" height="3.7" rx="0.15" fill="none"/>
    </g>
    <g id="사각형_9111" data-name="사각형 9111" transform="translate(56 828)" fill="none" stroke="#8587bc" stroke-width="1.3">
      <rect width="3" height="5" stroke="none"/>
      <rect x="0.65" y="0.65" width="1.7" height="3.7" fill="none"/>
    </g>
  </g>
  <g id="ov" transform="translate(-1848 -322)" opacity="0">
    <rect id="아이콘박스-2" data-name="아이콘박스" width="30" height="30" rx="5" transform="translate(1848 322)" fill="url(#linear-gradient)"/>
    <g id="icon_저장-2" data-name="icon / 저장" transform="translate(1807 -499)">
      <g id="패스_63676-2" data-name="패스 63676" transform="translate(48 828)" fill="none">
        <path d="M2.4,0h9.65L16,4.3v9.3A2.4,2.4,0,0,1,13.6,16H2.4A2.4,2.4,0,0,1,0,13.6V2.4A2.4,2.4,0,0,1,2.4,0Z" stroke="none"/>
        <path d="M 2.400074005126953 1.300004005432129 C 1.79349422454834 1.300004005432129 1.300004005432129 1.79349422454834 1.300004005432129 2.400074005126953 L 1.300004005432129 13.60041427612305 C 1.300004005432129 14.20699405670166 1.79349422454834 14.70048427581787 2.400074005126953 14.70048427581787 L 13.60041427612305 14.70048427581787 C 14.20699405670166 14.70048427581787 14.70048427581787 14.20699405670166 14.70048427581787 13.60041427612305 L 14.70048427581787 4.806605339050293 L 11.47930335998535 1.300004005432129 L 2.400074005126953 1.300004005432129 M 2.400074005126953 3.814697265625e-06 L 12.05036449432373 3.814697265625e-06 L 16.00048446655273 4.30013370513916 L 16.00048446655273 13.60041427612305 C 16.00048446655273 14.92593383789062 14.92593383789062 16.00048446655273 13.60041427612305 16.00048446655273 L 2.400074005126953 16.00048446655273 C 1.074543952941895 16.00048446655273 3.814697265625e-06 14.92593383789062 3.814697265625e-06 13.60041427612305 L 3.814697265625e-06 2.400074005126953 C 3.814697265625e-06 1.074543952941895 1.074543952941895 3.814697265625e-06 2.400074005126953 3.814697265625e-06 Z" stroke="none" fill="#fff"/>
      </g>
      <g id="사각형_9110-2" data-name="사각형 9110" transform="translate(51 836)" fill="none" stroke="#fff" stroke-width="1.3">
        <rect width="10" height="5" rx="0.5" stroke="none"/>
        <rect x="0.65" y="0.65" width="8.7" height="3.7" rx="0.15" fill="none"/>
      </g>
      <g id="사각형_9111-2" data-name="사각형 9111" transform="translate(56 828)" fill="none" stroke="#fff" stroke-width="1.3">
        <rect width="3" height="5" stroke="none"/>
        <rect x="0.65" y="0.65" width="1.7" height="3.7" fill="none"/>
      </g>
    </g>
  </g>
</svg>
