<svg id="삭제" xmlns="http://www.w3.org/2000/svg" width="26" height="26" viewBox="0 0 26 26">
  <g id="on" transform="translate(-287 -178)" opacity="0">
    <circle id="타원_1088" data-name="타원 1088" cx="13" cy="13" r="13" transform="translate(287 178)" fill="#353990"/>
    <g id="그룹_1166" data-name="그룹 1166" transform="translate(293 185)">
      <path id="패스_3471" data-name="패스 3471" d="M312.2,343.074a.416.416,0,0,0-.473.265l-1.49,7.951a1.009,1.009,0,0,1-.972.736h-5.152a1.009,1.009,0,0,1-.972-.736l-1.49-7.951a.416.416,0,0,0-.473-.265c-.23.024-.39.181-.358.351l1.49,7.951a1.457,1.457,0,0,0,.608.889,2.052,2.052,0,0,0,1.2.384h5.152a2.052,2.052,0,0,0,1.2-.384,1.457,1.457,0,0,0,.608-.889l1.49-7.951C312.588,343.254,312.428,343.1,312.2,343.074Z" transform="translate(-299.693 -340.071)" fill="#fff" stroke="#fff" stroke-width="0.6"/>
      <path id="패스_3474" data-name="패스 3474" d="M284.732,221.492h-4.451v-.8a1.616,1.616,0,0,0-1.674-1.547h-.716a1.616,1.616,0,0,0-1.674,1.547v.8h-4.451a.447.447,0,0,0,0,.893h12.966a.447.447,0,0,0,0-.893Zm-7.655-.8a.757.757,0,0,1,.813-.654h.716a.757.757,0,0,1,.813.654v.8h-2.343Z" transform="translate(-271.336 -219.148)" fill="#fff" stroke="#fff" stroke-width="0.6"/>
      <g id="사각형_1705" data-name="사각형 1705" transform="translate(6.445 4.719)" fill="#fff" stroke="#fff" stroke-width="0.6">
        <rect width="1.044" height="5.808" rx="0.522" stroke="none"/>
        <rect x="0.3" y="0.3" width="0.444" height="5.208" rx="0.222" fill="none"/>
      </g>
      <g id="패스_3475" data-name="패스 3475" transform="translate(3.533 4.865) rotate(-9)" fill="#fff">
        <path d="M 0.4962529540061951 5.467981338500977 C 0.4548429548740387 5.467981338500977 0.4168529510498047 5.450551509857178 0.3833129405975342 5.416181564331055 C 0.3280329406261444 5.359521389007568 0.2977129518985748 5.270681381225586 0.3001329600811005 5.172421455383301 L 0.4116329550743103 0.6407314538955688 C 0.4164729416370392 0.4440814852714539 0.5464029312133789 0.3033614754676819 0.6599929332733154 0.3000614941120148 C 0.6600713133811951 0.3000613749027252 0.6601504683494568 0.3000613749027252 0.6602287888526917 0.3000613749027252 C 0.7059736251831055 0.3000613749027252 0.7438902854919434 0.3174902200698853 0.7773729562759399 0.3518014848232269 C 0.8326529264450073 0.4084614813327789 0.8629729747772217 0.4973014891147614 0.860552966594696 0.5955615043640137 L 0.7490529417991638 5.127251625061035 C 0.7442129254341125 5.323901653289795 0.6142829656600952 5.464621543884277 0.5006929636001587 5.467921257019043 L 0.4962529540061951 5.467981338500977 Z" stroke="none"/>
        <path d="M 0.6644375920295715 4.76837158203125e-07 C 0.9477770328521729 4.76837158203125e-07 1.16873574256897 0.266817569732666 1.160462975502014 0.6029415130615234 L 1.048962950706482 5.134631633758545 C 1.040562987327576 5.475921630859375 0.7989929914474487 5.759391307830811 0.5093929767608643 5.767791271209717 C 0.2197890281677246 5.776191711425781 -0.008176922798156738 5.506331443786621 0.0002229213714599609 5.165041446685791 L 0.1117229461669922 0.6333513259887695 C 0.1201229095458984 0.2920613288879395 0.3616929650306702 0.008591651916503906 0.6512929201126099 0.0001916885375976562 C 0.655676543712616 6.437301635742188e-05 0.6600828766822815 4.76837158203125e-07 0.6644375920295715 4.76837158203125e-07 Z" stroke="none" fill="#fff"/>
      </g>
      <g id="패스_3476" data-name="패스 3476" transform="translate(9.551 10.562) rotate(-171)" fill="#fff">
        <path d="M 0.6644225716590881 5.467958927154541 L 0.6599825620651245 5.467898845672607 C 0.5464025735855103 5.464599132537842 0.4164725840091705 5.323889255523682 0.4116325676441193 5.127239227294922 L 0.3001325726509094 0.5955491065979004 C 0.2977125644683838 0.4973090887069702 0.3280425667762756 0.4084590673446655 0.3833225667476654 0.3517990708351135 C 0.4168625771999359 0.3174290955066681 0.4548525810241699 0.2999990880489349 0.4962425827980042 0.2999990880489349 C 0.614262580871582 0.3033590912818909 0.7441926002502441 0.4440690875053406 0.7490325570106506 0.6407190561294556 L 0.8605325818061829 5.172409057617188 C 0.8629525899887085 5.270648956298828 0.8326225876808167 5.359498977661133 0.7773425579071045 5.416159152984619 C 0.743802547454834 5.450529098510742 0.7058125734329224 5.467958927154541 0.6644225716590881 5.467958927154541 Z" stroke="none"/>
        <path d="M 0.4962378740310669 -1.9073486328125e-06 C 0.5006100535392761 -1.9073486328125e-06 0.5049812793731689 6.151199340820312e-05 0.5093826055526733 0.0001893043518066406 C 0.7989726066589355 0.008589267730712891 1.040542602539062 0.2920589447021484 1.048942565917969 0.6333389282226562 L 1.160442590713501 5.165029048919678 C 1.168832540512085 5.506309032440186 0.9408863186836243 5.776169300079346 0.6512825489044189 5.767768859863281 C 0.3616925477981567 5.759368896484375 0.1201225519180298 5.475899219512939 0.1117225885391235 5.134619235992432 L 0.0002225637435913086 0.6029291152954102 C -0.008039951324462891 0.2668356895446777 0.2129243016242981 -1.9073486328125e-06 0.4962378740310669 -1.9073486328125e-06 Z" stroke="none" fill="#fff"/>
      </g>
    </g>
  </g>
  <g id="off" transform="translate(-287 -178)">
    <g id="타원_1088-2" data-name="타원 1088" transform="translate(287 178)" fill="#fff" stroke="#d8dee3" stroke-width="1">
      <circle cx="13" cy="13" r="13" stroke="none"/>
      <circle cx="13" cy="13" r="12.5" fill="none"/>
    </g>
    <g id="그룹_1166-2" data-name="그룹 1166" transform="translate(293 185)">
      <path id="패스_3471-2" data-name="패스 3471" d="M312.2,343.074a.416.416,0,0,0-.473.265l-1.49,7.951a1.009,1.009,0,0,1-.972.736h-5.152a1.009,1.009,0,0,1-.972-.736l-1.49-7.951a.416.416,0,0,0-.473-.265c-.23.024-.39.181-.358.351l1.49,7.951a1.457,1.457,0,0,0,.608.889,2.052,2.052,0,0,0,1.2.384h5.152a2.052,2.052,0,0,0,1.2-.384,1.457,1.457,0,0,0,.608-.889l1.49-7.951C312.588,343.254,312.428,343.1,312.2,343.074Z" transform="translate(-299.693 -340.071)" fill="#999" stroke="#999" stroke-width="0.6"/>
      <path id="패스_3474-2" data-name="패스 3474" d="M284.732,221.492h-4.451v-.8a1.616,1.616,0,0,0-1.674-1.547h-.716a1.616,1.616,0,0,0-1.674,1.547v.8h-4.451a.447.447,0,0,0,0,.893h12.966a.447.447,0,0,0,0-.893Zm-7.655-.8a.757.757,0,0,1,.813-.654h.716a.757.757,0,0,1,.813.654v.8h-2.343Z" transform="translate(-271.336 -219.148)" fill="#999" stroke="#999" stroke-width="0.6"/>
      <g id="사각형_1705-2" data-name="사각형 1705" transform="translate(6.445 4.719)" fill="#999" stroke="#999" stroke-width="0.6">
        <rect width="1.044" height="5.808" rx="0.522" stroke="none"/>
        <rect x="0.3" y="0.3" width="0.444" height="5.208" rx="0.222" fill="none"/>
      </g>
      <g id="패스_3475-2" data-name="패스 3475" transform="translate(3.533 4.865) rotate(-9)" fill="#999">
        <path d="M 0.4962529540061951 5.467981338500977 C 0.4548429548740387 5.467981338500977 0.4168529510498047 5.450551509857178 0.3833129405975342 5.416181564331055 C 0.3280329406261444 5.359521389007568 0.2977129518985748 5.270681381225586 0.3001329600811005 5.172421455383301 L 0.4116329550743103 0.6407314538955688 C 0.4164729416370392 0.4440814852714539 0.5464029312133789 0.3033614754676819 0.6599929332733154 0.3000614941120148 C 0.6600713133811951 0.3000613749027252 0.6601504683494568 0.3000613749027252 0.6602287888526917 0.3000613749027252 C 0.7059736251831055 0.3000613749027252 0.7438902854919434 0.3174902200698853 0.7773729562759399 0.3518014848232269 C 0.8326529264450073 0.4084614813327789 0.8629729747772217 0.4973014891147614 0.860552966594696 0.5955615043640137 L 0.7490529417991638 5.127251625061035 C 0.7442129254341125 5.323901653289795 0.6142829656600952 5.464621543884277 0.5006929636001587 5.467921257019043 L 0.4962529540061951 5.467981338500977 Z" stroke="none"/>
        <path d="M 0.6644375920295715 4.76837158203125e-07 C 0.9477770328521729 4.76837158203125e-07 1.16873574256897 0.266817569732666 1.160462975502014 0.6029415130615234 L 1.048962950706482 5.134631633758545 C 1.040562987327576 5.475921630859375 0.7989929914474487 5.759391307830811 0.5093929767608643 5.767791271209717 C 0.2197890281677246 5.776191711425781 -0.008176922798156738 5.506331443786621 0.0002229213714599609 5.165041446685791 L 0.1117229461669922 0.6333513259887695 C 0.1201229095458984 0.2920613288879395 0.3616929650306702 0.008591651916503906 0.6512929201126099 0.0001916885375976562 C 0.655676543712616 6.437301635742188e-05 0.6600828766822815 4.76837158203125e-07 0.6644375920295715 4.76837158203125e-07 Z" stroke="none" fill="#999"/>
      </g>
      <g id="패스_3476-2" data-name="패스 3476" transform="translate(9.551 10.562) rotate(-171)" fill="#999">
        <path d="M 0.6644225716590881 5.467958927154541 L 0.6599825620651245 5.467898845672607 C 0.5464025735855103 5.464599132537842 0.4164725840091705 5.323889255523682 0.4116325676441193 5.127239227294922 L 0.3001325726509094 0.5955491065979004 C 0.2977125644683838 0.4973090887069702 0.3280425667762756 0.4084590673446655 0.3833225667476654 0.3517990708351135 C 0.4168625771999359 0.3174290955066681 0.4548525810241699 0.2999990880489349 0.4962425827980042 0.2999990880489349 C 0.614262580871582 0.3033590912818909 0.7441926002502441 0.4440690875053406 0.7490325570106506 0.6407190561294556 L 0.8605325818061829 5.172409057617188 C 0.8629525899887085 5.270648956298828 0.8326225876808167 5.359498977661133 0.7773425579071045 5.416159152984619 C 0.743802547454834 5.450529098510742 0.7058125734329224 5.467958927154541 0.6644225716590881 5.467958927154541 Z" stroke="none"/>
        <path d="M 0.4962378740310669 -1.9073486328125e-06 C 0.5006100535392761 -1.9073486328125e-06 0.5049812793731689 6.151199340820312e-05 0.5093826055526733 0.0001893043518066406 C 0.7989726066589355 0.008589267730712891 1.040542602539062 0.2920589447021484 1.048942565917969 0.6333389282226562 L 1.160442590713501 5.165029048919678 C 1.168832540512085 5.506309032440186 0.9408863186836243 5.776169300079346 0.6512825489044189 5.767768859863281 C 0.3616925477981567 5.759368896484375 0.1201225519180298 5.475899219512939 0.1117225885391235 5.134619235992432 L 0.0002225637435913086 0.6029291152954102 C -0.008039951324462891 0.2668356895446777 0.2129243016242981 -1.9073486328125e-06 0.4962378740310669 -1.9073486328125e-06 Z" stroke="none" fill="#999"/>
      </g>
    </g>
  </g>
</svg>
