<svg id="바로e맵" xmlns="http://www.w3.org/2000/svg" xmlns:xlink="http://www.w3.org/1999/xlink" width="30" height="30" viewBox="0 0 30 30">
  <defs>
    <linearGradient id="linear-gradient" x2="1" y2="1" gradientUnits="objectBoundingBox">
      <stop offset="0" stop-color="#1b36eb"/>
      <stop offset="1" stop-color="#9e54ff"/>
    </linearGradient>
  </defs>
  <rect id="아이콘박스" width="30" height="30" rx="5" fill="#f6f6fe"/>
  <path id="Op_component_1" data-name="Op component 1" d="M1392.882,99.642l.558,1.865h-9.765a2.367,2.367,0,0,1-1.953-2.176c0-2.642,1.953-2.8,1.953-2.8h6.417a.76.76,0,0,1,.558.932c0,.933-.558.933-.558.933h-6.417c-.767-.078-.837.932-.837.932.07.932.837.622.837.622h7.254c1.4-.389,1.4-2.487,1.4-2.487-.07-2.176-1.4-2.487-1.4-2.487h-8.091c-3.069.7-2.79,4.041-2.79,4.041.139,4.041,3.348,4.041,3.348,4.041h13.672Z" transform="translate(-1374 -79.262)" fill="#8587bc"/>
  <path id="Op_component_2" data-name="Op component 2" d="M1390.66,83.182a3.706,3.706,0,0,0-4.664,2.8c-.542,2.1,1.216,6.235,1.481,6.671a.379.379,0,0,0,.206.167.336.336,0,0,0,.254-.019c.433-.212,4.794-2.388,5.336-4.485A4.258,4.258,0,0,0,1390.66,83.182Zm-1.521,5.5a1.731,1.731,0,0,1-1.153-2.115,1.646,1.646,0,0,1,2.057-1.154,1.731,1.731,0,0,1,1.153,2.115A1.646,1.646,0,0,1,1389.139,88.683Z" transform="translate(-1374.617 -78)" fill="#8587bc"/>
  <g id="ov" transform="translate(-1848 -313)" opacity="0">
    <rect id="아이콘박스-2" data-name="아이콘박스" width="30" height="30" rx="5" transform="translate(1848 313)" fill="url(#linear-gradient)"/>
    <path id="Op_component_1-2" data-name="Op component 1" d="M1392.882,99.642l.558,1.865h-9.765a2.367,2.367,0,0,1-1.953-2.176c0-2.642,1.953-2.8,1.953-2.8h6.417a.76.76,0,0,1,.558.932c0,.933-.558.933-.558.933h-6.417c-.767-.078-.837.932-.837.932.07.932.837.622.837.622h7.254c1.4-.389,1.4-2.487,1.4-2.487-.07-2.176-1.4-2.487-1.4-2.487h-8.091c-3.069.7-2.79,4.041-2.79,4.041.139,4.041,3.348,4.041,3.348,4.041h13.672Z" transform="translate(474 233.738)" fill="#fff"/>
    <path id="Op_component_2-2" data-name="Op component 2" d="M1390.66,83.182a3.706,3.706,0,0,0-4.664,2.8c-.542,2.1,1.216,6.235,1.481,6.671a.379.379,0,0,0,.206.167.336.336,0,0,0,.254-.019c.433-.212,4.794-2.388,5.336-4.485A4.258,4.258,0,0,0,1390.66,83.182Zm-1.521,5.5a1.731,1.731,0,0,1-1.153-2.115,1.646,1.646,0,0,1,2.057-1.154,1.731,1.731,0,0,1,1.153,2.115A1.646,1.646,0,0,1,1389.139,88.683Z" transform="translate(473.383 235)" fill="#fff"/>
  </g>
</svg>
