<svg id="그룹_3676" data-name="그룹 3676" xmlns="http://www.w3.org/2000/svg" xmlns:xlink="http://www.w3.org/1999/xlink" width="20" height="16.169" viewBox="0 0 20 16.169">
  <defs>
    <clipPath id="clip-path">
      <rect id="사각형_9335" data-name="사각형 9335" width="20" height="16.169" fill="#fff"/>
    </clipPath>
  </defs>
  <g id="그룹_3676-2" data-name="그룹 3676" clip-path="url(#clip-path)">
    <path id="패스_63738" data-name="패스 63738" d="M10,9a2.964,2.964,0,0,1-1.093-.217L.679,5.485a1.052,1.052,0,0,1,0-1.968L8.9.218a2.869,2.869,0,0,1,2.19,0l8.228,3.3a1.052,1.052,0,0,1,0,1.968L11.1,8.784A2.978,2.978,0,0,1,10,9M10,.849a2.124,2.124,0,0,0-.784.158L.989,4.307l-.013,0a.2.2,0,0,0,0,.378l.013,0L9.22,8a2.024,2.024,0,0,0,1.564,0l8.228-3.3.013,0a.2.2,0,0,0,0-.378l-.013,0-8.23-3.3A2.111,2.111,0,0,0,10,.849M.831,3.913h0Z" transform="translate(0 0)" fill="#fff"/>
    <path id="패스_63739" data-name="패스 63739" d="M10,113.231a2.966,2.966,0,0,1-1.093-.217L.674,109.735l-.019-.008a1.09,1.09,0,0,1-.656-1,1.074,1.074,0,0,1,.656-.974l.021-.009,1.447-.565a.424.424,0,1,1,.309.79L1,108.533a.235.235,0,0,0-.15.2.244.244,0,0,0,.151.221l8.219,3.274a2.026,2.026,0,0,0,1.564,0L19,108.951a.244.244,0,0,0,.151-.221.235.235,0,0,0-.15-.2l-1.434-.56a.424.424,0,1,1,.309-.79l1.447.565.021.009a1.074,1.074,0,0,1,.656.974,1.09,1.09,0,0,1-.656,1l-.019.008-8.23,3.279a2.974,2.974,0,0,1-1.1.217" transform="translate(0 -100.657)" fill="#fff"/>
    <path id="패스_63740" data-name="패스 63740" d="M10,172.187a2.964,2.964,0,0,1-1.093-.217l-8.227-3.3a1.052,1.052,0,0,1,0-1.968l1.441-.585a.424.424,0,0,1,.319.786l-1.447.588-.015.006a.2.2,0,0,0,0,.378l.013,0,8.23,3.3a2.025,2.025,0,0,0,1.564,0l8.228-3.3.013,0a.2.2,0,0,0,0-.378l-.015-.006-1.447-.588a.424.424,0,0,1,.319-.786l1.441.585a1.052,1.052,0,0,1,0,1.968l-8.225,3.3a2.977,2.977,0,0,1-1.1.218" transform="translate(0 -156.018)" fill="#fff"/>
  </g>
</svg>
