<svg id="출력" xmlns="http://www.w3.org/2000/svg" width="26" height="26" viewBox="0 0 26 26">
  <g id="off" transform="translate(-375 -180)" opacity="0">
    <g id="타원_1099" data-name="타원 1099" transform="translate(375 180)" fill="#fff" stroke="#d8dee3" stroke-width="1">
      <circle cx="13" cy="13" r="13" stroke="none"/>
      <circle cx="13" cy="13" r="12.5" fill="none"/>
    </g>
    <path id="패스_63696" data-name="패스 63696" d="M268.56,123.81h-1.8v-2.667A1.114,1.114,0,0,0,265.68,120h-9.36a1.114,1.114,0,0,0-1.08,1.143v2.667h-1.8a1.485,1.485,0,0,0-1.44,1.524v6.1a1.485,1.485,0,0,0,1.44,1.524h1.8v1.9A1.114,1.114,0,0,0,256.32,136h9.36a1.114,1.114,0,0,0,1.08-1.143v-1.9h1.8a1.485,1.485,0,0,0,1.44-1.524v-6.1A1.485,1.485,0,0,0,268.56,123.81Zm-12.6-2.667a.371.371,0,0,1,.36-.381h9.36a.371.371,0,0,1,.36.381v2.667H255.96Zm10.08,13.714a.371.371,0,0,1-.36.381h-9.36a.371.371,0,0,1-.36-.381V129.9h10.08Zm3.24-3.429a.743.743,0,0,1-.72.762h-1.8V129.9a.743.743,0,0,0-.72-.762H255.96a.743.743,0,0,0-.72.762v2.286h-1.8a.743.743,0,0,1-.72-.762v-6.1a.743.743,0,0,1,.72-.762h15.12a.743.743,0,0,1,.72.762Z" transform="translate(127 65)" fill="#999" stroke="#999" stroke-width="0.6"/>
    <path id="패스_63697" data-name="패스 63697" d="M267.372,150.745h6.7a.372.372,0,1,0,0-.745h-6.7a.372.372,0,1,0,0,.745Z" transform="translate(117.276 46.441)" fill="#999" stroke="#999" stroke-width="0.6"/>
    <path id="패스_63698" data-name="패스 63698" d="M267.372,154.745h4.841a.372.372,0,1,0,0-.745h-4.841a.372.372,0,1,0,0,.745Z" transform="translate(117.32 44.021)" fill="#999" stroke="#999" stroke-width="0.6"/>
    <circle id="타원_1100" data-name="타원 1100" cx="0.556" cy="0.556" r="0.556" transform="translate(392.895 191.051)" fill="#999" stroke="#999" stroke-width="0.4"/>
  </g>
  <g id="on" transform="translate(-375 -180)">
    <circle id="타원_1099-2" data-name="타원 1099" cx="13" cy="13" r="13" transform="translate(375 180)" fill="#353990"/>
    <path id="패스_63696-2" data-name="패스 63696" d="M268.56,123.81h-1.8v-2.667A1.114,1.114,0,0,0,265.68,120h-9.36a1.114,1.114,0,0,0-1.08,1.143v2.667h-1.8a1.485,1.485,0,0,0-1.44,1.524v6.1a1.485,1.485,0,0,0,1.44,1.524h1.8v1.9A1.114,1.114,0,0,0,256.32,136h9.36a1.114,1.114,0,0,0,1.08-1.143v-1.9h1.8a1.485,1.485,0,0,0,1.44-1.524v-6.1A1.485,1.485,0,0,0,268.56,123.81Zm-12.6-2.667a.371.371,0,0,1,.36-.381h9.36a.371.371,0,0,1,.36.381v2.667H255.96Zm10.08,13.714a.371.371,0,0,1-.36.381h-9.36a.371.371,0,0,1-.36-.381V129.9h10.08Zm3.24-3.429a.743.743,0,0,1-.72.762h-1.8V129.9a.743.743,0,0,0-.72-.762H255.96a.743.743,0,0,0-.72.762v2.286h-1.8a.743.743,0,0,1-.72-.762v-6.1a.743.743,0,0,1,.72-.762h15.12a.743.743,0,0,1,.72.762Z" transform="translate(127 65)" fill="#fff" stroke="#fff" stroke-width="0.6"/>
    <path id="패스_63697-2" data-name="패스 63697" d="M267.372,150.745h6.7a.372.372,0,1,0,0-.745h-6.7a.372.372,0,1,0,0,.745Z" transform="translate(117.276 46.441)" fill="#fff" stroke="#fff" stroke-width="0.6"/>
    <path id="패스_63698-2" data-name="패스 63698" d="M267.372,154.745h4.841a.372.372,0,1,0,0-.745h-4.841a.372.372,0,1,0,0,.745Z" transform="translate(117.32 44.021)" fill="#fff" stroke="#fff" stroke-width="0.6"/>
    <circle id="타원_1100-2" data-name="타원 1100" cx="0.556" cy="0.556" r="0.556" transform="translate(392.895 191.051)" fill="#fff" stroke="#fff" stroke-width="0.4"/>
  </g>
</svg>
