<svg id="지도분할" xmlns="http://www.w3.org/2000/svg" xmlns:xlink="http://www.w3.org/1999/xlink" width="30" height="30" viewBox="0 0 30 30">
  <defs>
    <linearGradient id="linear-gradient" x2="1" y2="1" gradientUnits="objectBoundingBox">
      <stop offset="0" stop-color="#1b36eb"/>
      <stop offset="1" stop-color="#9e54ff"/>
    </linearGradient>
  </defs>
  <rect id="아이콘박스" width="30" height="30" rx="5" fill="#f6f6fe"/>
  <path id="패스_10229" data-name="패스 10229" d="M268.56,123.81h-1.8v-2.667A1.114,1.114,0,0,0,265.68,120h-9.36a1.114,1.114,0,0,0-1.08,1.143v2.667h-1.8a1.485,1.485,0,0,0-1.44,1.524v6.1a1.485,1.485,0,0,0,1.44,1.524h1.8v1.9A1.114,1.114,0,0,0,256.32,136h9.36a1.114,1.114,0,0,0,1.08-1.143v-1.9h1.8a1.485,1.485,0,0,0,1.44-1.524v-6.1A1.485,1.485,0,0,0,268.56,123.81Zm-12.6-2.667a.371.371,0,0,1,.36-.381h9.36a.371.371,0,0,1,.36.381v2.667H255.96Zm10.08,13.714a.371.371,0,0,1-.36.381h-9.36a.371.371,0,0,1-.36-.381V129.9h10.08Zm3.24-3.429a.743.743,0,0,1-.72.762h-1.8V129.9a.743.743,0,0,0-.72-.762H255.96a.743.743,0,0,0-.72.762v2.286h-1.8a.743.743,0,0,1-.72-.762v-6.1a.743.743,0,0,1,.72-.762h15.12a.743.743,0,0,1,.72.762Z" transform="translate(-246 -113)" fill="#8587bc" stroke="#8587bc" stroke-width="0.6"/>
  <path id="패스_10230" data-name="패스 10230" d="M267.372,150.745h6.7a.372.372,0,1,0,0-.745h-6.7a.372.372,0,1,0,0,.745Z" transform="translate(-255.724 -131.559)" fill="#8587bc" stroke="#8587bc" stroke-width="0.6"/>
  <path id="패스_10231" data-name="패스 10231" d="M267.372,154.745h4.841a.372.372,0,1,0,0-.745h-4.841a.372.372,0,1,0,0,.745Z" transform="translate(-255.68 -133.979)" fill="#8587bc" stroke="#8587bc" stroke-width="0.6"/>
  <circle id="타원_600" data-name="타원 600" cx="0.556" cy="0.556" r="0.556" transform="translate(19.895 13.051)" fill="#8587bc" stroke="#8587bc" stroke-width="0.4"/>
  <g id="ov" transform="translate(-1848 -322)" opacity="0">
    <rect id="아이콘박스-2" data-name="아이콘박스" width="30" height="30" rx="5" transform="translate(1848 322)" fill="url(#linear-gradient)"/>
    <path id="패스_10229-2" data-name="패스 10229" d="M268.56,123.81h-1.8v-2.667A1.114,1.114,0,0,0,265.68,120h-9.36a1.114,1.114,0,0,0-1.08,1.143v2.667h-1.8a1.485,1.485,0,0,0-1.44,1.524v6.1a1.485,1.485,0,0,0,1.44,1.524h1.8v1.9A1.114,1.114,0,0,0,256.32,136h9.36a1.114,1.114,0,0,0,1.08-1.143v-1.9h1.8a1.485,1.485,0,0,0,1.44-1.524v-6.1A1.485,1.485,0,0,0,268.56,123.81Zm-12.6-2.667a.371.371,0,0,1,.36-.381h9.36a.371.371,0,0,1,.36.381v2.667H255.96Zm10.08,13.714a.371.371,0,0,1-.36.381h-9.36a.371.371,0,0,1-.36-.381V129.9h10.08Zm3.24-3.429a.743.743,0,0,1-.72.762h-1.8V129.9a.743.743,0,0,0-.72-.762H255.96a.743.743,0,0,0-.72.762v2.286h-1.8a.743.743,0,0,1-.72-.762v-6.1a.743.743,0,0,1,.72-.762h15.12a.743.743,0,0,1,.72.762Z" transform="translate(1602 209)" fill="#fff" stroke="#fff" stroke-width="0.6"/>
    <path id="패스_10230-2" data-name="패스 10230" d="M267.372,150.745h6.7a.372.372,0,1,0,0-.745h-6.7a.372.372,0,1,0,0,.745Z" transform="translate(1592.276 190.441)" fill="#fff" stroke="#fff" stroke-width="0.6"/>
    <path id="패스_10231-2" data-name="패스 10231" d="M267.372,154.745h4.841a.372.372,0,1,0,0-.745h-4.841a.372.372,0,1,0,0,.745Z" transform="translate(1592.32 188.021)" fill="#fff" stroke="#fff" stroke-width="0.6"/>
    <circle id="타원_600-2" data-name="타원 600" cx="0.556" cy="0.556" r="0.556" transform="translate(1867.895 335.051)" fill="#fff" stroke="#fff" stroke-width="0.4"/>
  </g>
</svg>
