<svg xmlns="http://www.w3.org/2000/svg" width="26" height="26" viewBox="0 0 26 26">
  <g id="icon" transform="translate(-874 -829)">
    <rect id="area" width="26" height="26" transform="translate(874 829)" fill="none"/>
    <g id="그룹_3698" data-name="그룹 3698" transform="translate(-145 -1)">
      <path id="패스_63789" data-name="패스 63789" d="M11,8.853,1.276,4.8,11,.739,20.724,4.8ZM21.782,4.469,11.137.027a.354.354,0,0,0-.273,0L.218,4.469a.355.355,0,0,0,0,.655L10.863,9.565a.354.354,0,0,0,.273,0L21.782,5.123a.355.355,0,0,0,0-.655" transform="translate(1021 833)" fill="#999"/>
      <path id="패스_63790" data-name="패스 63790" d="M21.29,92.472l-9.935,4.145v-.961l9.935-4.145ZM.71,91.511l9.935,4.145v.961L.71,92.472Zm21.132-.828a.355.355,0,0,0-.333-.032L11,95.035.491,90.651A.355.355,0,0,0,0,90.978v1.73a.355.355,0,0,0,.218.327l10.645,4.441a.354.354,0,0,0,.273,0l10.645-4.441A.355.355,0,0,0,22,92.708v-1.73a.355.355,0,0,0-.158-.3" transform="translate(1021 748.808)" fill="#999"/>
      <path id="패스_63791" data-name="패스 63791" d="M21.29,143.066l-9.935,4.145v-.961L21.29,142.1ZM.71,142.1l9.935,4.145v.961L.71,143.066Zm21.132-.828a.355.355,0,0,0-.333-.032L11,145.629.491,141.244a.355.355,0,0,0-.491.328v1.73a.355.355,0,0,0,.218.327l10.643,4.44h0l.01,0a.338.338,0,0,0,.254,0l.01,0h0l10.643-4.44A.355.355,0,0,0,22,143.3v-1.73a.355.355,0,0,0-.158-.3" transform="translate(1021 701.805)" fill="#999"/>
      <path id="패스_63792" data-name="패스 63792" d="M21.29,193.661l-9.935,4.145v-.961L21.29,192.7ZM.71,192.7l9.935,4.145v.961L.71,193.661Zm21.132-.828a.355.355,0,0,0-.333-.032L11,196.224.491,191.839a.355.355,0,0,0-.491.327v1.73a.355.355,0,0,0,.218.327l10.643,4.44h0l.01,0a.351.351,0,0,0,.057.017.353.353,0,0,0,.14,0,.348.348,0,0,0,.057-.017l.01,0h0l10.643-4.44A.355.355,0,0,0,22,193.9v-1.73a.355.355,0,0,0-.158-.3" transform="translate(1021 654.801)" fill="#999"/>
    </g>
  </g>
</svg>
