<svg id="수정" xmlns="http://www.w3.org/2000/svg" width="26" height="26" viewBox="0 0 26 26">
  <g id="default" transform="translate(-287 -178)">
    <g id="사각형_9224" data-name="사각형 9224" transform="translate(287 178)" fill="#fff" stroke="#d8dee3" stroke-width="1">
      <rect width="26" height="26" rx="5" stroke="none"/>
      <rect x="0.5" y="0.5" width="25" height="25" rx="4.5" fill="none"/>
    </g>
    <g id="그룹_1166" data-name="그룹 1166" transform="translate(294.098 185)">
      <path id="패스_63683" data-name="패스 63683" d="M323.619,51.213,318.6,56.168l-.943-.95-.685-.69-1.036-1.044,5.054-4.992L320.3,47.8l-5.615,5.553a.479.479,0,0,0-.112.173l-1.962,5.231a.487.487,0,0,0,.456.658.481.481,0,0,0,.153-.025l5.185-1.728a.483.483,0,0,0,.19-.118l5.709-5.647Zm-8.279,3.05,2.534,2.554-2.81.936-.754-.744Z" transform="translate(-313.54 -46.85)" fill="#999" stroke="#999" stroke-width="0.4"/>
      <path id="패스_63684" data-name="패스 63684" d="M6.087,2.815,3.6.324a1.115,1.115,0,0,0-1.573,0L.69,1.723l0,0L0,2.409,4.065,6.474l.688-.688h0l1.335-1.4A1.114,1.114,0,0,0,6.087,2.815ZM5.4,3.7,4.065,5.1,1.378,2.411l1.334-1.4a.142.142,0,0,1,.2,0L5.4,3.5a.142.142,0,0,1,0,.2Z" transform="matrix(1, 0.014, -0.014, 1, 7.246, -1.902)" fill="#999" stroke="#999" stroke-width="0.4"/>
    </g>
  </g>
  <g id="ov" transform="translate(-287 -178)">
    <rect id="사각형_9224-2" data-name="사각형 9224" width="26" height="26" rx="5" transform="translate(287 178)" fill="#353990"/>
    <g id="그룹_1166-2" data-name="그룹 1166" transform="translate(294.098 185)">
      <path id="패스_63683-2" data-name="패스 63683" d="M323.619,51.213,318.6,56.168l-.943-.95-.685-.69-1.036-1.044,5.054-4.992L320.3,47.8l-5.615,5.553a.479.479,0,0,0-.112.173l-1.962,5.231a.487.487,0,0,0,.456.658.481.481,0,0,0,.153-.025l5.185-1.728a.483.483,0,0,0,.19-.118l5.709-5.647Zm-8.279,3.05,2.534,2.554-2.81.936-.754-.744Z" transform="translate(-313.54 -46.85)" fill="#fff" stroke="#fff" stroke-width="0.4"/>
      <path id="패스_63684-2" data-name="패스 63684" d="M6.087,2.815,3.6.324a1.115,1.115,0,0,0-1.573,0L.69,1.723l0,0L0,2.409,4.065,6.474l.688-.688h0l1.335-1.4A1.114,1.114,0,0,0,6.087,2.815ZM5.4,3.7,4.065,5.1,1.378,2.411l1.334-1.4a.142.142,0,0,1,.2,0L5.4,3.5a.142.142,0,0,1,0,.2Z" transform="matrix(1, 0.014, -0.014, 1, 7.246, -1.902)" fill="#fff" stroke="#fff" stroke-width="0.4"/>
    </g>
  </g>
</svg>
