<svg xmlns="http://www.w3.org/2000/svg" width="919.417" height="60" viewBox="0 0 919.417 60">
  <g id="그룹_1235" data-name="그룹 1235" transform="translate(-765 -1188)">
    <g id="그룹_1234" data-name="그룹 1234" transform="translate(807.417)">
      <g id="사각형_285" data-name="사각형 285" transform="translate(757 1188)" fill="#72bf44" stroke="#72bf44" stroke-width="3">
        <rect width="120" height="60" stroke="none"/>
        <rect x="1.5" y="1.5" width="117" height="57" fill="none"/>
      </g>
      <text id="임대부지_사용_임차인_" data-name="임대부지 사용
(임차인)" transform="translate(817 1214)" fill="#fff" font-size="14" font-family="NotoSansCJKkr-Medium, Noto Sans CJK KR" font-weight="500"><tspan x="-40.215" y="0">임대부지 사용</tspan><tspan x="-24.29" y="20">(임차인)</tspan></text>
    </g>
    <path id="패스_1599" data-name="패스 1599" d="M5599,3836.667l5.083,7.583-5.083,6.417" transform="translate(-4059.666 -2625.667)" fill="none" stroke="#b1b1b1" stroke-linecap="round" stroke-width="2"/>
    <g id="그룹_1233" data-name="그룹 1233" transform="translate(643.334)">
      <g id="사각형_285-2" data-name="사각형 285" transform="translate(758 1188)" fill="#fff" stroke="#72bf44" stroke-width="3" opacity="0.6">
        <rect width="118" height="60" stroke="none"/>
        <rect x="1.5" y="1.5" width="115" height="57" fill="none"/>
      </g>
      <text id="승인계약체결_사용료_선납_" data-name="승인계약체결
(사용료 선납)" transform="translate(817 1214)" fill="#333" font-size="14" font-family="NotoSansCJKkr-Regular, Noto Sans CJK KR"><tspan x="-38.64" y="0">승인계약체결</tspan><tspan x="-38.5" y="20">(사용료 선납)</tspan></text>
    </g>
    <path id="패스_1598" data-name="패스 1598" d="M5599,3836.667l5.083,7.583-5.083,6.417" transform="translate(-4222.75 -2625.667)" fill="none" stroke="#b1b1b1" stroke-linecap="round" stroke-width="2"/>
    <g id="그룹_1232" data-name="그룹 1232" transform="translate(487.25)">
      <g id="사각형_285-3" data-name="사각형 285" transform="translate(765 1188)" fill="#fff" stroke="#72bf44" stroke-width="3" opacity="0.6">
        <rect width="104" height="60" stroke="none"/>
        <rect x="1.5" y="1.5" width="101" height="57" fill="none"/>
      </g>
      <text id="사용료산정" transform="translate(817 1224)" fill="#333" font-size="14" font-family="NotoSansCJKkr-Regular, Noto Sans CJK KR"><tspan x="-32.2" y="0">사용료산정</tspan></text>
    </g>
    <path id="패스_1597" data-name="패스 1597" d="M5599,3836.667l5.083,7.583-5.083,6.417" transform="translate(-4371.833 -2625.667)" fill="none" stroke="#b1b1b1" stroke-linecap="round" stroke-width="2"/>
    <g id="그룹_1231" data-name="그룹 1231" transform="translate(331.167)">
      <g id="사각형_285-4" data-name="사각형 285" transform="translate(758 1188)" fill="#fff" stroke="#72bf44" stroke-width="3" opacity="0.6">
        <rect width="118" height="60" stroke="none"/>
        <rect x="1.5" y="1.5" width="115" height="57" fill="none"/>
      </g>
      <text id="현장방문_사용계획조회" data-name="현장방문/
사용계획조회" transform="translate(817 1214)" fill="#333" font-size="14" font-family="NotoSansCJKkr-Regular, Noto Sans CJK KR"><tspan x="-28.504" y="0">현장방문/</tspan><tspan x="-38.64" y="20">사용계획조회</tspan></text>
    </g>
    <path id="패스_1596" data-name="패스 1596" d="M5599,3836.667l5.083,7.583-5.083,6.417" transform="translate(-4534.917 -2625.667)" fill="none" stroke="#b1b1b1" stroke-linecap="round" stroke-width="2"/>
    <g id="그룹_1230" data-name="그룹 1230" transform="translate(164.083)">
      <g id="사각형_285-5" data-name="사각형 285" transform="translate(754 1188)" fill="#fff" stroke="#72bf44" stroke-width="3" opacity="0.6">
        <rect width="126" height="60" stroke="none"/>
        <rect x="1.5" y="1.5" width="123" height="57" fill="none"/>
      </g>
      <text id="지역본부_재산운영부서_" data-name="지역본부
(재산운영부서)" transform="translate(817 1214)" fill="#333" font-size="14" font-family="NotoSansCJKkr-Regular, Noto Sans CJK KR"><tspan x="-25.76" y="0">지역본부</tspan><tspan x="-43.372" y="20">(재산운영부서)</tspan></text>
    </g>
    <path id="패스_1595" data-name="패스 1595" d="M5599,3836.667l5.083,7.583-5.083,6.417" transform="translate(-4706 -2625.667)" fill="none" stroke="#b1b1b1" stroke-linecap="round" stroke-width="2"/>
    <g id="그룹_1229" data-name="그룹 1229" transform="translate(2)">
      <g id="사각형_285-6" data-name="사각형 285" transform="translate(763 1188)" fill="#fff" stroke="#72bf44" stroke-width="3" opacity="0.6">
        <rect width="108" height="60" stroke="none"/>
        <rect x="1.5" y="1.5" width="105" height="57" fill="none"/>
      </g>
      <text id="신청서_제출_방문_우편_" data-name="신청서 제출
(방문/우편)" transform="translate(817 1214)" fill="#333" font-size="14" font-family="NotoSansCJKkr-Regular, Noto Sans CJK KR"><tspan x="-33.768" y="0">신청서 제출</tspan><tspan x="-33.236" y="20">(방문/우편)</tspan></text>
    </g>
  </g>
</svg>
