<svg xmlns="http://www.w3.org/2000/svg" width="820" height="340" viewBox="0 0 820 340">
  <g id="그룹_1235" data-name="그룹 1235" transform="translate(-649 -1172)">
    <g id="그룹_1234" data-name="그룹 1234" transform="translate(-53.083 200)">
      <g id="사각형_285" data-name="사각형 285" transform="translate(702.083 1172)" fill="#72bf44" stroke="#72bf44" stroke-width="3">
        <rect width="240" height="140" stroke="none"/>
        <rect x="1.5" y="1.5" width="237" height="137" fill="none"/>
      </g>
      <text id="임대부지_사용_임차인_" data-name="임대부지 사용
(임차인)" transform="translate(822.083 1234)" fill="#fff" font-size="34" font-family="NotoSansCJKkr-Medium, Noto Sans CJK KR" font-weight="500"><tspan x="-97.665" y="0">임대부지 사용</tspan><tspan x="-58.99" y="44">(임차인)</tspan></text>
    </g>
    <g id="그룹_1233" data-name="그룹 1233" transform="translate(229 200)">
      <g id="사각형_285-2" data-name="사각형 285" transform="translate(710 1172)" fill="#fff" stroke="#72bf44" stroke-width="3" opacity="0.6">
        <rect width="240" height="140" stroke="none"/>
        <rect x="1.5" y="1.5" width="237" height="137" fill="none"/>
      </g>
      <text id="승인계약체결_사용료_선납_" data-name="승인계약체결
(사용료 선납)" transform="translate(830 1234)" fill="#333" font-size="34" font-family="NotoSansCJKkr-Regular, Noto Sans CJK KR"><tspan x="-93.84" y="0">승인계약체결</tspan><tspan x="-93.5" y="44">(사용료 선납)</tspan></text>
    </g>
    <g id="그룹_1232" data-name="그룹 1232" transform="translate(501.083 200)">
      <g id="사각형_285-3" data-name="사각형 285" transform="translate(727.917 1172)" fill="#fff" stroke="#72bf44" stroke-width="3" opacity="0.6">
        <rect width="240" height="140" stroke="none"/>
        <rect x="1.5" y="1.5" width="237" height="137" fill="none"/>
      </g>
      <text id="사용료산정" transform="translate(847.917 1256)" fill="#333" font-size="34" font-family="NotoSansCJKkr-Regular, Noto Sans CJK KR"><tspan x="-78.2" y="0">사용료산정</tspan></text>
    </g>
    <g id="그룹_1231" data-name="그룹 1231" transform="translate(509)">
      <g id="사각형_285-4" data-name="사각형 285" transform="translate(720 1172)" fill="#fff" stroke="#72bf44" stroke-width="3" opacity="0.6">
        <rect width="240" height="140" stroke="none"/>
        <rect x="1.5" y="1.5" width="237" height="137" fill="none"/>
      </g>
      <text id="현장방문_사용계획조회" data-name="현장방문/
사용계획조회" transform="translate(840 1231)" fill="#333" font-size="34" font-family="NotoSansCJKkr-Regular, Noto Sans CJK KR"><tspan x="-69.224" y="0">현장방문/</tspan><tspan x="-93.84" y="44">사용계획조회</tspan></text>
    </g>
    <g id="그룹_1230" data-name="그룹 1230" transform="translate(229)">
      <g id="사각형_285-5" data-name="사각형 285" transform="translate(710 1172)" fill="#fff" stroke="#72bf44" stroke-width="3" opacity="0.6">
        <rect width="240" height="140" stroke="none"/>
        <rect x="1.5" y="1.5" width="237" height="137" fill="none"/>
      </g>
      <text id="지역본부_재산운영부서_" data-name="지역본부
(재산운영부서)" transform="translate(830 1231)" fill="#333" font-size="34" font-family="NotoSansCJKkr-Regular, Noto Sans CJK KR"><tspan x="-62.56" y="0">지역본부</tspan><tspan x="-105.332" y="44">(재산운영부서)</tspan></text>
    </g>
    <path id="패스_1595" data-name="패스 1595" d="M5599,3836.667l12.181,18.171L5599,3871.273" transform="translate(-4691.181 -2611.44)" fill="none" stroke="#b1b1b1" stroke-linecap="round" stroke-width="4"/>
    <path id="패스_10239" data-name="패스 10239" d="M5599,3836.667l12.181,18.171L5599,3871.273" transform="translate(-4401 -2611.44)" fill="none" stroke="#b1b1b1" stroke-linecap="round" stroke-width="4"/>
    <path id="패스_10240" data-name="패스 10240" d="M5611.181,3836.667,5599,3854.837l12.181,16.436" transform="translate(-4401.181 -2411.97)" fill="none" stroke="#b1b1b1" stroke-linecap="round" stroke-width="4"/>
    <path id="패스_10242" data-name="패스 10242" d="M12.181,34.606,0,16.436,12.181,0" transform="translate(1331.697 1347.09) rotate(-90)" fill="none" stroke="#b1b1b1" stroke-linecap="round" stroke-width="4"/>
    <path id="패스_10241" data-name="패스 10241" d="M5611.181,3836.667,5599,3854.837l12.181,16.436" transform="translate(-4691 -2411.97)" fill="none" stroke="#b1b1b1" stroke-linecap="round" stroke-width="4"/>
    <g id="그룹_1229" data-name="그룹 1229" transform="translate(-80)">
      <g id="사각형_285-6" data-name="사각형 285" transform="translate(729 1172)" fill="#fff" stroke="#72bf44" stroke-width="3" opacity="0.6">
        <rect width="240" height="140" stroke="none"/>
        <rect x="1.5" y="1.5" width="237" height="137" fill="none"/>
      </g>
      <text id="신청서_제출_방문_우편_" data-name="신청서 제출
(방문/우편)" transform="translate(839 1231)" fill="#333" font-size="34" font-family="NotoSansCJKkr-Regular, Noto Sans CJK KR"><tspan x="-82.008" y="0">신청서 제출</tspan><tspan x="-80.716" y="44">(방문/우편)</tspan></text>
    </g>
  </g>
</svg>
