<svg id="ico-ufac-02" xmlns="http://www.w3.org/2000/svg" xmlns:xlink="http://www.w3.org/1999/xlink" width="32" height="32" viewBox="0 0 32 32">
  <defs>
    <clipPath id="clip-path">
      <rect id="사각형_337" data-name="사각형 337" width="32" height="32" fill="#1740c2"/>
    </clipPath>
  </defs>
  <g id="그룹_538" data-name="그룹 538" clip-path="url(#clip-path)">
    <path id="패스_616" data-name="패스 616" d="M32,14.667H21.144a5.324,5.324,0,0,0-3.811-3.811V5.435A10.687,10.687,0,0,1,25.881,12h2.837A13.36,13.36,0,0,0,17.333,2.741V0H14.667V2.741A13.36,13.36,0,0,0,3.281,12H6.119a10.687,10.687,0,0,1,8.548-6.565v5.421a5.324,5.324,0,0,0-3.811,3.811H0v2.668H2.735A13.355,13.355,0,0,0,14.667,29.267V32h2.667V29.267A13.355,13.355,0,0,0,29.265,17.335H32ZM16,13.333A2.667,2.667,0,1,1,13.333,16,2.671,2.671,0,0,1,16,13.333m-10.575,4h5.431a5.329,5.329,0,0,0,3.811,3.811v5.429a10.678,10.678,0,0,1-9.241-9.24m11.908,9.24V21.145a5.329,5.329,0,0,0,3.811-3.811h5.431a10.678,10.678,0,0,1-9.241,9.24" fill="#1740c2"/>
  </g>
</svg>
