<svg id="ico-devel-01" xmlns="http://www.w3.org/2000/svg" xmlns:xlink="http://www.w3.org/1999/xlink" width="32" height="32" viewBox="0 0 32 32">
  <defs>
    <clipPath id="clip-path">
      <rect id="사각형_306" data-name="사각형 306" width="32" height="32" fill="#1740c2"/>
    </clipPath>
  </defs>
  <g id="그룹_474" data-name="그룹 474" clip-path="url(#clip-path)">
    <path id="패스_581" data-name="패스 581" d="M29.333,13.333h-12V4A1.333,1.333,0,1,1,20,4V8a4,4,0,0,0,8,0V4H25.333V8a1.333,1.333,0,1,1-2.667,0V4a4,4,0,0,0-8,0v9.333h-12A2.669,2.669,0,0,0,0,16V29.333A2.669,2.669,0,0,0,2.667,32H29.333A2.67,2.67,0,0,0,32,29.333V16a2.67,2.67,0,0,0-2.667-2.667m-26.667,16V16H29.333V29.333ZM9.333,28H22.667V25.333H9.333Zm16,0H28V25.333H25.333ZM4,28H6.667V25.333H4Zm21.333-4H28V21.333H25.333ZM4,24H6.667V21.333H4Zm21.333-4H28V17.333H25.333ZM20,24h2.667V21.333H20Zm0-4h2.667V17.333H20Zm-2.667,1.333H14.667V24h2.667Zm0-4H14.667V20h2.667Zm-5.333,4H9.333V24H12Zm0-4H9.333V20H12ZM4,20H6.667V17.333H4Z" fill="#1740c2"/>
  </g>
</svg>
