<svg id="ico-server-04" xmlns="http://www.w3.org/2000/svg" xmlns:xlink="http://www.w3.org/1999/xlink" width="32" height="32" viewBox="0 0 32 32">
  <defs>
    <clipPath id="clip-path">
      <rect id="사각형_299" data-name="사각형 299" width="32" height="32" fill="#1740c2"/>
    </clipPath>
  </defs>
  <g id="그룹_462" data-name="그룹 462" clip-path="url(#clip-path)">
    <path id="패스_576" data-name="패스 576" d="M18.667,10.667H13.333a2.67,2.67,0,0,0-2.667,2.667v5.333a2.67,2.67,0,0,0,2.667,2.667h5.333a2.67,2.67,0,0,0,2.667-2.667V13.333a2.67,2.67,0,0,0-2.667-2.667m-5.333,8V13.333h5.333v5.333Zm18.667-8V8H28a4,4,0,0,0-4-4V0H21.333V4h-4V0H14.667V4h-4V0H8V4A4,4,0,0,0,4,8H0v2.667H4v4H0v2.667H4v4H0V24H4a4,4,0,0,0,4,4v4h2.667V28h4v4h2.667V28h4v4H24V28a4,4,0,0,0,4-4h4V21.333H28v-4h4V14.667H28v-4ZM25.333,24A1.335,1.335,0,0,1,24,25.333H8A1.335,1.335,0,0,1,6.667,24V8A1.335,1.335,0,0,1,8,6.667H24A1.335,1.335,0,0,1,25.333,8Z" fill="#1740c2"/>
  </g>
</svg>
