<svg id="ico-server-03" xmlns="http://www.w3.org/2000/svg" xmlns:xlink="http://www.w3.org/1999/xlink" width="32" height="29.333" viewBox="0 0 32 29.333">
  <defs>
    <clipPath id="clip-path">
      <rect id="사각형_301" data-name="사각형 301" width="32" height="29.333" fill="#1740c2"/>
    </clipPath>
  </defs>
  <g id="그룹_466" data-name="그룹 466" clip-path="url(#clip-path)">
    <path id="패스_578" data-name="패스 578" d="M24,5.333H2.667A2.669,2.669,0,0,0,0,8V21.333A2.669,2.669,0,0,0,2.667,24H24a2.67,2.67,0,0,0,2.667-2.667V8A2.67,2.67,0,0,0,24,5.333m0,16H2.667V8H24ZM29.333,0H8A2.666,2.666,0,0,0,5.333,2.667h24v16A2.667,2.667,0,0,0,32,16V2.667A2.67,2.67,0,0,0,29.333,0M18.667,26.667H8a1.333,1.333,0,1,0,0,2.667H18.667a1.333,1.333,0,0,0,0-2.667" fill="#1740c2"/>
  </g>
</svg>
