<svg id="ico-devel-03" xmlns="http://www.w3.org/2000/svg" xmlns:xlink="http://www.w3.org/1999/xlink" width="32" height="32" viewBox="0 0 32 32">
  <defs>
    <clipPath id="clip-path">
      <rect id="사각형_307" data-name="사각형 307" width="32" height="32" fill="#1740c2"/>
    </clipPath>
  </defs>
  <g id="그룹_475" data-name="그룹 475" clip-path="url(#clip-path)">
    <path id="패스_583" data-name="패스 583" d="M16,0A16,16,0,1,0,32,16,16.018,16.018,0,0,0,16,0M29.265,14.667H25.295A21.832,21.832,0,0,0,22.431,4.328a13.348,13.348,0,0,1,6.835,10.339M14.667,2.948V14.667h-5.3c.3-5.739,2.512-10.533,5.3-11.719m0,14.385V29.052c-2.787-1.185-5-5.98-5.3-11.719Zm2.667,11.719V17.333h5.333c-.3,5.739-2.547,10.533-5.333,11.719m0-14.385V2.948c2.787,1.185,5,5.98,5.3,11.719ZM9.569,4.328A21.847,21.847,0,0,0,6.7,14.667H2.735A13.348,13.348,0,0,1,9.569,4.328M2.735,17.333H6.7A21.847,21.847,0,0,0,9.569,27.672,13.348,13.348,0,0,1,2.735,17.333m19.7,10.339a21.832,21.832,0,0,0,2.864-10.339h3.971a13.348,13.348,0,0,1-6.835,10.339" fill="#1740c2"/>
  </g>
</svg>
