<svg id="ico-sdqd-03" xmlns="http://www.w3.org/2000/svg" xmlns:xlink="http://www.w3.org/1999/xlink" width="29.893" height="32" viewBox="0 0 29.893 32">
  <defs>
    <clipPath id="clip-path">
      <rect id="사각형_340" data-name="사각형 340" width="29.893" height="32" fill="#1740c2"/>
    </clipPath>
  </defs>
  <g id="그룹_547" data-name="그룹 547" clip-path="url(#clip-path)">
    <path id="패스_620" data-name="패스 620" d="M20.56,4a4,4,0,0,0-8,0V16.568l-.091-.092a8.307,8.307,0,0,0-5.841-2.384,7.973,7.973,0,0,0-5.675,2.3L0,17.336l12.012,11.88A10.749,10.749,0,0,0,19.227,32,10.673,10.673,0,0,0,29.893,21.307V17.98L20.56,11.313Zm6.667,15.353v1.953a8.023,8.023,0,0,1-4.2,7.064,8.162,8.162,0,0,1-9.181-1.092L3.916,17.457a5.819,5.819,0,0,1,6.668.9l1.452,1.453a1.868,1.868,0,0,0,3.191-1.321V4a1.333,1.333,0,1,1,2.667,0v8.687ZM6.56,8H7.893a3.337,3.337,0,0,0,3.333-3.333V3.333A3.337,3.337,0,0,0,7.893,0H6.56A3.337,3.337,0,0,0,3.227,3.333V4.667A3.337,3.337,0,0,0,6.56,8M5.893,3.333a.668.668,0,0,1,.667-.667H7.893a.668.668,0,0,1,.667.667V4.667a.668.668,0,0,1-.667.667H6.56a.668.668,0,0,1-.667-.667ZM26.56,0H25.227a3.337,3.337,0,0,0-3.333,3.333V4.667A3.337,3.337,0,0,0,25.227,8H26.56a3.337,3.337,0,0,0,3.333-3.333V3.333A3.337,3.337,0,0,0,26.56,0m.667,4.667a.668.668,0,0,1-.667.667H25.227a.668.668,0,0,1-.667-.667V3.333a.668.668,0,0,1,.667-.667H26.56a.668.668,0,0,1,.667.667ZM7.893,9.333H6.56A3.335,3.335,0,0,0,3.312,11.94a10.93,10.93,0,0,1,3.316-.515,11.075,11.075,0,0,1,3.265.495,11.276,11.276,0,0,1,1.309.509,3.327,3.327,0,0,0-3.309-3.1m18.667,0H25.227a3.3,3.3,0,0,0-1.951.643L26.109,12h.451a.668.668,0,0,1,.667.667V12.8l2.667,1.9V12.667A3.337,3.337,0,0,0,26.56,9.333" fill="#1740c2"/>
  </g>
</svg>
