<svg id="ico-xdProServer-01" xmlns="http://www.w3.org/2000/svg" xmlns:xlink="http://www.w3.org/1999/xlink" width="32" height="32" viewBox="0 0 32 32">
  <defs>
    <clipPath id="clip-path">
      <rect id="사각형_297" data-name="사각형 297" width="32" height="32" fill="#1740c2"/>
    </clipPath>
  </defs>
  <g id="그룹_458" data-name="그룹 458" clip-path="url(#clip-path)">
    <path id="패스_574" data-name="패스 574" d="M13.331,21.267l2.055,1.885,3.279-3.32V32h2.667V19.841l3.448,3.276,1.885-1.943L20,14.667Zm-2.667,5.567V16H8V26.823L4.552,23.548,2.667,25.489,9.333,32,16,25.4l-2.055-1.887Zm16-16.019v-.148a10.667,10.667,0,1,0-21.333,0V10.8a6.557,6.557,0,0,0-3.364,1.825A6.583,6.583,0,0,0,1.953,22l1.884-1.865a3.942,3.942,0,0,1,.019-5.625,3.984,3.984,0,0,1,2.917-1.176H8.383l-.3-1.581A5.932,5.932,0,0,1,8,10.667a8,8,0,0,1,16,0,5.919,5.919,0,0,1-.084,1.085l-.192,1.581h1.609a3.985,3.985,0,0,1,2.852,6.784l1.893,1.848A6.589,6.589,0,0,0,32,17.333a6.668,6.668,0,0,0-5.333-6.519" fill="#1740c2"/>
  </g>
</svg>
