<svg id="ico-devel-04" xmlns="http://www.w3.org/2000/svg" xmlns:xlink="http://www.w3.org/1999/xlink" width="32" height="26.004" viewBox="0 0 32 26.004">
  <defs>
    <clipPath id="clip-path">
      <rect id="사각형_308" data-name="사각형 308" width="32" height="26.004" fill="#1740c2"/>
    </clipPath>
  </defs>
  <g id="그룹_477" data-name="그룹 477" clip-path="url(#clip-path)">
    <path id="패스_584" data-name="패스 584" d="M16,0C7.029,0,0,3.807,0,8.667v8.671C0,22.2,7.029,26,16,26c.445,0,.882-.016,1.318-.035V24.678h.016V7.333H3.066C4.441,4.922,9.363,2.667,16,2.667c7.858,0,13.333,3.161,13.333,6,0,2.329-3.687,4.871-9.349,5.711V17.07a19.021,19.021,0,0,0,9.349-3.553v3.82c0,2.329-3.687,4.871-9.349,5.711v2.685C26.964,24.8,32,21.447,32,17.337V8.667C32,3.807,24.971,0,16,0M2.667,17.337v-3.82c2.615,2.131,6.945,3.554,12,3.772V23.3c-7.136-.333-12-3.292-12-5.967m12-2.7C8.708,14.355,4.347,12.246,3.066,10h11.6Z" fill="#1740c2"/>
  </g>
</svg>
