<svg id="ico-server-05" xmlns="http://www.w3.org/2000/svg" xmlns:xlink="http://www.w3.org/1999/xlink" width="32" height="32" viewBox="0 0 32 32">
  <defs>
    <clipPath id="clip-path">
      <rect id="사각형_298" data-name="사각형 298" width="32" height="32" fill="#1740c2"/>
    </clipPath>
  </defs>
  <g id="그룹_460" data-name="그룹 460" clip-path="url(#clip-path)">
    <path id="패스_575" data-name="패스 575" d="M26.667,21.333a5.326,5.326,0,0,0-5.143,4H19.333c-1.085,0-2-1.221-2-2.667v-8h4.191a5.333,5.333,0,1,0,0-2.667H17.333V9.333C17.333,6.392,15.24,4,12.667,4H10.476a5.333,5.333,0,1,0,0,2.667h2.191c1.084,0,2,1.221,2,2.667V22.667c0,2.941,2.093,5.333,4.667,5.333h2.191a5.324,5.324,0,1,0,5.143-6.667m0-10.667A2.667,2.667,0,1,1,24,13.333a2.67,2.67,0,0,1,2.667-2.667M5.333,8A2.667,2.667,0,1,1,8,5.333,2.669,2.669,0,0,1,5.333,8M26.667,29.333a2.667,2.667,0,1,1,2.667-2.667,2.669,2.669,0,0,1-2.667,2.667" fill="#1740c2"/>
  </g>
</svg>
