<svg xmlns="http://www.w3.org/2000/svg" width="895.417" height="165.1" viewBox="0 0 895.417 165.1">
  <g id="그룹_2021" data-name="그룹 2021" transform="translate(-628.291 -1050.303)">
    <g id="그룹_1741" data-name="그룹 1741" transform="translate(-168.709 -137.697)">
      <g id="그룹_1743" data-name="그룹 1743" transform="translate(819.417 10)">
        <g id="사각형_285" data-name="사각형 285" transform="translate(761 1178)" fill="#fff" stroke="#72bf44" stroke-width="3" opacity="0.6">
          <rect width="112" height="60" stroke="none"/>
          <rect x="1.5" y="1.5" width="109" height="57" fill="none"/>
        </g>
        <text id="계약체결" transform="translate(817 1214)" fill="#333" font-size="14" font-family="NotoSansCJKkr-Regular, Noto Sans CJK KR"><tspan x="-25.76" y="0">계약체결</tspan></text>
      </g>
      <path id="패스_1599" data-name="패스 1599" d="M5599,3836.667l5.083,7.583-5.083,6.417" transform="translate(-4043.666 -2625.667)" fill="none" stroke="#b1b1b1" stroke-linecap="round" stroke-width="2"/>
      <g id="그룹_1233" data-name="그룹 1233" transform="translate(658.334)">
        <g id="사각형_285-2" data-name="사각형 285" transform="translate(757 1188)" fill="#fff" stroke="#72bf44" stroke-width="3" opacity="0.6">
          <rect width="120" height="60" stroke="none"/>
          <rect x="1.5" y="1.5" width="117" height="57" fill="none"/>
        </g>
        <text id="매각대금_및_계약방법_결정" data-name="매각대금 및
계약방법 결정" transform="translate(817 1214)" fill="#333" font-size="14" font-family="NotoSansCJKkr-Regular, Noto Sans CJK KR"><tspan x="-33.768" y="0">매각대금 및</tspan><tspan x="-40.208" y="20">계약방법 결정</tspan></text>
      </g>
      <path id="패스_1598" data-name="패스 1598" d="M5599,3836.667l5.083,7.583-5.083,6.417" transform="translate(-4208.75 -2625.667)" fill="none" stroke="#b1b1b1" stroke-linecap="round" stroke-width="2"/>
      <g id="그룹_1232" data-name="그룹 1232" transform="translate(497.25)">
        <g id="사각형_285-3" data-name="사각형 285" transform="translate(761 1188)" fill="#fff" stroke="#72bf44" stroke-width="3" opacity="0.6">
          <rect width="112" height="60" stroke="none"/>
          <rect x="1.5" y="1.5" width="109" height="57" fill="none"/>
        </g>
        <text id="용도폐지" transform="translate(817 1224)" fill="#333" font-size="14" font-family="NotoSansCJKkr-Regular, Noto Sans CJK KR"><tspan x="-25.76" y="0">용도폐지</tspan></text>
      </g>
      <path id="패스_1597" data-name="패스 1597" d="M5599,3836.667l5.083,7.583-5.083,6.417" transform="translate(-4365.833 -2625.667)" fill="none" stroke="#b1b1b1" stroke-linecap="round" stroke-width="2"/>
      <g id="그룹_1231" data-name="그룹 1231" transform="translate(337.167)">
        <g id="사각형_285-4" data-name="사각형 285" transform="translate(758 1188)" fill="#fff" stroke="#72bf44" stroke-width="3" opacity="0.6">
          <rect width="118" height="60" stroke="none"/>
          <rect x="1.5" y="1.5" width="115" height="57" fill="none"/>
        </g>
        <text id="현장방문_사용계획조회" data-name="현장방문/
사용계획조회" transform="translate(817 1214)" fill="#333" font-size="14" font-family="NotoSansCJKkr-Regular, Noto Sans CJK KR"><tspan x="-28.504" y="0">현장방문/</tspan><tspan x="-38.64" y="20">사용계획조회</tspan></text>
      </g>
      <path id="패스_1596" data-name="패스 1596" d="M5599,3836.667l5.083,7.583-5.083,6.417" transform="translate(-4528.917 -2625.667)" fill="none" stroke="#b1b1b1" stroke-linecap="round" stroke-width="2"/>
      <g id="그룹_1230" data-name="그룹 1230" transform="translate(183.083)">
        <g id="사각형_285-5" data-name="사각형 285" transform="translate(767 1188)" fill="#fff" stroke="#72bf44" stroke-width="3" opacity="0.6">
          <rect width="100" height="60" stroke="none"/>
          <rect x="1.5" y="1.5" width="97" height="57" fill="none"/>
        </g>
        <text id="접수_지역본부_" data-name="접수
(지역본부)" transform="translate(817 1214)" fill="#333" font-size="14" font-family="NotoSansCJKkr-Regular, Noto Sans CJK KR"><tspan x="-12.88" y="0">접수</tspan><tspan x="-30.492" y="20">(지역본부)</tspan></text>
      </g>
      <path id="패스_1595" data-name="패스 1595" d="M5599,3836.667l5.083,7.583-5.083,6.417" transform="translate(-4674 -2625.667)" fill="none" stroke="#b1b1b1" stroke-linecap="round" stroke-width="2"/>
      <g id="그룹_1229" data-name="그룹 1229" transform="translate(34)">
        <g id="사각형_285-6" data-name="사각형 285" transform="translate(763 1188)" fill="#fff" stroke="#72bf44" stroke-width="3" opacity="0.6">
          <rect width="108" height="60" stroke="none"/>
          <rect x="1.5" y="1.5" width="105" height="57" fill="none"/>
        </g>
        <text id="신청서_제출_방문_우편_" data-name="신청서 제출
(방문/우편)" transform="translate(817 1214)" fill="#333" font-size="14" font-family="NotoSansCJKkr-Regular, Noto Sans CJK KR"><tspan x="-33.768" y="0">신청서 제출</tspan><tspan x="-33.236" y="20">(방문/우편)</tspan></text>
      </g>
    </g>
    <g id="그룹_1744" data-name="그룹 1744" transform="translate(457.709 -22.597)">
      <g id="사각형_285-7" data-name="사각형 285" transform="translate(753 1178)" fill="#72bf44" stroke="#72bf44" stroke-width="3">
        <rect width="128" height="60" stroke="none"/>
        <rect x="1.5" y="1.5" width="125" height="57" fill="none"/>
      </g>
      <text id="소유권_이전" data-name="소유권 이전" transform="translate(817 1214)" fill="#fff" font-size="14" font-family="NotoSansCJKkr-Medium, Noto Sans CJK KR" font-weight="500"><tspan x="-33.775" y="0">소유권 이전</tspan></text>
    </g>
    <g id="그룹_1745" data-name="그룹 1745" transform="translate(636.709 -22.597)">
      <g id="사각형_285-8" data-name="사각형 285" transform="translate(747 1178)" fill="#fff" stroke="#72bf44" stroke-width="3" opacity="0.6">
        <rect width="140" height="60" stroke="none"/>
        <rect x="1.5" y="1.5" width="137" height="57" fill="none"/>
      </g>
      <text id="매각대금_납부" data-name="매각대금 납부" transform="translate(817 1214)" fill="#333" font-size="14" font-family="NotoSansCJKkr-Regular, Noto Sans CJK KR"><tspan x="-40.208" y="0">매각대금 납부</tspan></text>
    </g>
    <path id="패스_9525" data-name="패스 9525" d="M5599,3836.667l5.083,7.583-5.083,6.417" transform="translate(5311.375 -4468.697) rotate(90)" fill="none" stroke="#b1b1b1" stroke-linecap="round" stroke-width="2"/>
    <path id="패스_9526" data-name="패스 9526" d="M5604.084,3836.667,5599,3844.25l5.083,6.417" transform="translate(-4240.33 -2658.263)" fill="none" stroke="#b1b1b1" stroke-linecap="round" stroke-width="2"/>
  </g>
</svg>
