<svg xmlns="http://www.w3.org/2000/svg" width="820" height="722" viewBox="0 0 820 722">
  <g id="그룹_1421" data-name="그룹 1421" transform="translate(-650 -516)">
    <path id="합치기_6" data-name="합치기 6" d="M-295-2133a5,5,0,0,1-5-5v-407a5,5,0,0,1,5-5h190a5,5,0,0,1,5,5v164.561H515a5,5,0,0,1,5,5V-2138a5,5,0,0,1-5,5Z" transform="translate(950 3371)" fill="#eceef1"/>
    <path id="합치기_7" data-name="합치기 7" d="M325-2145a5,5,0,0,1-5-5v-159.681H-295a5,5,0,0,1-5-5V-2545a5,5,0,0,1,5-5H515a5,5,0,0,1,5,5v395a5,5,0,0,1-5,5Z" transform="translate(950 3066)" fill="#ecf0fb"/>
    <g id="그룹_1421-2" data-name="그룹 1421" transform="translate(0 10)">
      <g id="그룹_2105" data-name="그룹 2105" transform="translate(0 -40)">
        <g id="구성_요소_116_1" data-name="구성 요소 116 – 1" transform="translate(670 642)">
          <g id="구성_요소_111_6" data-name="구성 요소 111 – 6" transform="translate(-10 -12)">
            <g id="사각형_306" data-name="사각형 306" transform="translate(10 12)" fill="#fff" stroke="#a8b1e5" stroke-width="5">
              <rect width="160" height="120" rx="10" stroke="none"/>
              <rect x="2.5" y="2.5" width="155" height="115" rx="7.5" fill="none"/>
            </g>
            <text id="개발사업_민간제안" data-name="개발사업
민간제안" transform="translate(90 66)" font-size="26" font-family="NotoSansCJKkr-Regular, Noto Sans CJK KR" letter-spacing="-0.05em"><tspan x="-45.89" y="0">개발사업</tspan><tspan x="-45.89" y="34">민간제안</tspan></text>
          </g>
        </g>
        <g id="구성_요소_116_2" data-name="구성 요소 116 – 2" transform="translate(877 642)">
          <g id="구성_요소_111_6-2" data-name="구성 요소 111 – 6" transform="translate(-10 -12)">
            <g id="사각형_306-2" data-name="사각형 306" transform="translate(10 12)" fill="#fff" stroke="#a8b1e5" stroke-width="5">
              <rect width="160" height="120" rx="10" stroke="none"/>
              <rect x="2.5" y="2.5" width="155" height="115" rx="7.5" fill="none"/>
            </g>
            <text id="제안서_평가_및_채택_가점_" data-name="제안서 평가
및 채택(가점)" transform="translate(90 66)" font-size="26" font-family="NotoSansCJKkr-Regular, Noto Sans CJK KR" letter-spacing="-0.05em"><tspan x="-59.462" y="0">제안서 평가</tspan><tspan x="-66.95" y="34">및 채택(가점)</tspan></text>
          </g>
        </g>
        <g id="구성_요소_116_3" data-name="구성 요소 116 – 3" transform="translate(1084 642)">
          <g id="구성_요소_111_6-3" data-name="구성 요소 111 – 6" transform="translate(-10 -12)">
            <g id="사각형_306-3" data-name="사각형 306" transform="translate(10 12)" fill="#fff" stroke="#a8b1e5" stroke-width="5">
              <rect width="160" height="120" rx="10" stroke="none"/>
              <rect x="2.5" y="2.5" width="155" height="115" rx="7.5" fill="none"/>
            </g>
            <text id="사업주관자_공모" data-name="사업주관자
공모" transform="translate(90 66)" font-size="26" font-family="NotoSansCJKkr-Regular, Noto Sans CJK KR" letter-spacing="-0.05em"><tspan x="-57.2" y="0">사업주관자</tspan><tspan x="-23.27" y="34">공모</tspan></text>
          </g>
        </g>
        <g id="구성_요소_116_4" data-name="구성 요소 116 – 4" transform="translate(1291 642)">
          <g id="구성_요소_111_6-4" data-name="구성 요소 111 – 6" transform="translate(-10 -12)">
            <g id="사각형_306-4" data-name="사각형 306" transform="translate(10 12)" fill="#fff" stroke="#a8b1e5" stroke-width="5">
              <rect width="160" height="120" rx="10" stroke="none"/>
              <rect x="2.5" y="2.5" width="155" height="115" rx="7.5" fill="none"/>
            </g>
            <text id="사업계획서_평가" data-name="사업계획서
평가" transform="translate(90 66)" font-size="26" font-family="NotoSansCJKkr-Regular, Noto Sans CJK KR" letter-spacing="-0.05em"><tspan x="-57.2" y="0">사업계획서</tspan><tspan x="-23.27" y="34">평가</tspan></text>
          </g>
        </g>
        <g id="구성_요소_116_5" data-name="구성 요소 116 – 5" transform="translate(1291 812)">
          <g id="구성_요소_111_6-5" data-name="구성 요소 111 – 6" transform="translate(-10 -12)">
            <g id="사각형_306-5" data-name="사각형 306" transform="translate(10 12)" fill="#fff" stroke="#a8b1e5" stroke-width="5">
              <rect width="160" height="120" rx="10" stroke="none"/>
              <rect x="2.5" y="2.5" width="155" height="115" rx="7.5" fill="none"/>
            </g>
            <text id="사업추진협약_체결" data-name="사업추진협약
체결" transform="translate(90 66)" font-size="26" font-family="NotoSansCJKkr-Regular, Noto Sans CJK KR" letter-spacing="-0.05em"><tspan x="-68.51" y="0">사업추진협약</tspan><tspan x="-23.27" y="34">체결</tspan></text>
          </g>
        </g>
        <g id="구성_요소_109_10" data-name="구성 요소 109 – 10" transform="translate(844 686.008)">
          <g id="그룹_1419" data-name="그룹 1419">
            <path id="패스_2435" data-name="패스 2435" d="M2081.779,1685.971l9.087-16.135L2081.985,1654l-9.88-.017,8.881,15.832-9.087,16.135Z" transform="translate(-2071.9 -1653.987)" fill="#252c58" opacity="0.2"/>
          </g>
        </g>
        <g id="구성_요소_109_19" data-name="구성 요소 109 – 19" transform="translate(1051 686.008)">
          <g id="그룹_1419-2" data-name="그룹 1419">
            <path id="패스_2435-2" data-name="패스 2435" d="M2081.779,1685.971l9.087-16.135L2081.985,1654l-9.88-.017,8.881,15.832-9.087,16.135Z" transform="translate(-2071.9 -1653.987)" fill="#252c58" opacity="0.2"/>
          </g>
        </g>
        <g id="구성_요소_109_20" data-name="구성 요소 109 – 20" transform="translate(1258 686.008)">
          <g id="그룹_1419-3" data-name="그룹 1419">
            <path id="패스_2435-3" data-name="패스 2435" d="M2081.779,1685.971l9.087-16.135L2081.985,1654l-9.88-.017,8.881,15.832-9.087,16.135Z" transform="translate(-2071.9 -1653.987)" fill="#252c58" opacity="0.2"/>
          </g>
        </g>
        <g id="구성_요소_109_21" data-name="구성 요소 109 – 21" transform="translate(1386.992 776.517) rotate(90)">
          <g id="그룹_1419-4" data-name="그룹 1419">
            <path id="패스_2435-4" data-name="패스 2435" d="M2081.779,1685.971l9.087-16.135L2081.985,1654l-9.88-.017,8.881,15.832-9.087,16.135Z" transform="translate(-2071.9 -1653.987)" fill="#252c58" opacity="0.2"/>
          </g>
        </g>
      </g>
      <g id="구성_요소_109_26" data-name="구성 요소 109 – 26" transform="translate(1386.992 936.516) rotate(90)">
        <g id="그룹_1419-5" data-name="그룹 1419">
          <path id="패스_2435-5" data-name="패스 2435" d="M2081.779,1685.971l9.087-16.135L2081.985,1654l-9.88-.017,8.881,15.832-9.087,16.135Z" transform="translate(-2071.9 -1653.987)" fill="#252c58" opacity="0.2"/>
        </g>
      </g>
      <g id="그룹_2104" data-name="그룹 2104" transform="translate(0 30)">
        <g id="구성_요소_117_1" data-name="구성 요소 117 – 1" transform="translate(1291 982)">
          <g id="구성_요소_111_6-6" data-name="구성 요소 111 – 6" transform="translate(-10 -12)">
            <g id="사각형_306-6" data-name="사각형 306" transform="translate(10 12)" fill="#fff" stroke="#b4d1f9" stroke-width="5">
              <rect width="160" height="120" rx="10" stroke="none"/>
              <rect x="2.5" y="2.5" width="155" height="115" rx="7.5" fill="none"/>
            </g>
            <text id="출자회사_SPC_설립" data-name="출자회사(SPC)
설립" transform="translate(90 66)" font-size="26" font-family="NotoSansCJKkr-Regular, Noto Sans CJK KR" letter-spacing="-0.075em"><tspan x="-73.099" y="0">출자회사(SPC)</tspan><tspan x="-22.945" y="34">설립</tspan></text>
          </g>
        </g>
        <g id="구성_요소_117_2" data-name="구성 요소 117 – 2" transform="translate(1084 982)">
          <g id="구성_요소_111_6-7" data-name="구성 요소 111 – 6" transform="translate(-10 -12)">
            <g id="사각형_306-7" data-name="사각형 306" transform="translate(10 12)" fill="#fff" stroke="#b4d1f9" stroke-width="5">
              <rect width="160" height="120" rx="10" stroke="none"/>
              <rect x="2.5" y="2.5" width="155" height="115" rx="7.5" fill="none"/>
            </g>
            <text id="종합개발계획_수립" data-name="종합개발계획
수립" transform="translate(90 66)" font-size="26" font-family="NotoSansCJKkr-Regular, Noto Sans CJK KR" letter-spacing="-0.075em"><tspan x="-66.885" y="0">종합개발계획</tspan><tspan x="-22.945" y="34">수립</tspan></text>
          </g>
        </g>
        <g id="구성_요소_117_3" data-name="구성 요소 117 – 3" transform="translate(877 982)">
          <g id="구성_요소_111_6-8" data-name="구성 요소 111 – 6" transform="translate(-10 -12)">
            <g id="사각형_306-8" data-name="사각형 306" transform="translate(10 12)" fill="#fff" stroke="#b4d1f9" stroke-width="5">
              <rect width="160" height="120" rx="10" stroke="none"/>
              <rect x="2.5" y="2.5" width="155" height="115" rx="7.5" fill="none"/>
            </g>
            <text id="설계_및_인_·_허가" data-name="설계 및
인 · 허가" transform="translate(90 66)" font-size="26" font-family="NotoSansCJKkr-Regular, Noto Sans CJK KR" letter-spacing="-0.075em"><tspan x="-35.867" y="0">설계 및</tspan><tspan x="-44.122" y="34">인 · 허가</tspan></text>
          </g>
        </g>
        <g id="구성_요소_117_4" data-name="구성 요소 117 – 4" transform="translate(670.033 982)">
          <g id="구성_요소_111_6-9" data-name="구성 요소 111 – 6" transform="translate(-10 -12)">
            <g id="사각형_306-9" data-name="사각형 306" transform="translate(10 12)" fill="#fff" stroke="#b4d1f9" stroke-width="5">
              <rect width="160" height="120" rx="10" stroke="none"/>
              <rect x="2.5" y="2.5" width="155" height="115" rx="7.5" fill="none"/>
            </g>
            <text id="건설_점용허가_공사중_" data-name="건설
점용허가(공사중)" transform="translate(90 66)" font-size="26" font-family="NotoSansCJKkr-Regular, Noto Sans CJK KR" letter-spacing="-0.075em"><tspan x="-22.945" y="0">건설</tspan><tspan font-size="20"><tspan x="-65.16" y="34">점용허가(공사중)</tspan></tspan></text>
          </g>
        </g>
        <g id="구성_요소_117_5" data-name="구성 요소 117 – 5" transform="translate(670 812)">
          <g id="구성_요소_111_6-10" data-name="구성 요소 111 – 6" transform="translate(-10 -12)">
            <g id="사각형_306-10" data-name="사각형 306" transform="translate(10 12)" fill="#fff" stroke="#b4d1f9" stroke-width="5">
              <rect width="160" height="120" rx="10" stroke="none"/>
              <rect x="2.5" y="2.5" width="155" height="115" rx="7.5" fill="none"/>
            </g>
            <text id="운영_점용허가_운영중_" data-name="운영
점용허가(운영중)" transform="translate(90 66)" font-size="26" font-family="NotoSansCJKkr-Regular, Noto Sans CJK KR" letter-spacing="-0.075em"><tspan x="-22.945" y="0">운영</tspan><tspan font-size="20"><tspan x="-65.16" y="34">점용허가(운영중)</tspan></tspan></text>
          </g>
        </g>
        <g id="구성_요소_109_24" data-name="구성 요소 109 – 24" transform="translate(734.008 965.484) rotate(-90)">
          <g id="그룹_1419-6" data-name="그룹 1419">
            <path id="패스_2435-6" data-name="패스 2435" d="M2081.779,1685.971l9.087-16.135L2081.985,1654l-9.88-.017,8.881,15.832-9.087,16.135Z" transform="translate(-2071.9 -1653.987)" fill="#252c58" opacity="0.2"/>
          </g>
        </g>
        <g id="구성_요소_109_11" data-name="구성 요소 109 – 11" transform="translate(1276.967 1057.992) rotate(180)">
          <g id="그룹_1419-7" data-name="그룹 1419">
            <path id="패스_2435-7" data-name="패스 2435" d="M2081.779,1685.971l9.087-16.135L2081.985,1654l-9.88-.017,8.881,15.832-9.087,16.135Z" transform="translate(-2071.9 -1653.987)" fill="#252c58" opacity="0.2"/>
          </g>
        </g>
        <g id="구성_요소_109_22" data-name="구성 요소 109 – 22" transform="translate(1070 1057.992) rotate(180)">
          <g id="그룹_1419-8" data-name="그룹 1419">
            <path id="패스_2435-8" data-name="패스 2435" d="M2081.779,1685.971l9.087-16.135L2081.985,1654l-9.88-.017,8.881,15.832-9.087,16.135Z" transform="translate(-2071.9 -1653.987)" fill="#252c58" opacity="0.2"/>
          </g>
        </g>
        <g id="구성_요소_109_23" data-name="구성 요소 109 – 23" transform="translate(863 1057.992) rotate(180)">
          <g id="그룹_1419-9" data-name="그룹 1419">
            <path id="패스_2435-9" data-name="패스 2435" d="M2081.779,1685.971l9.087-16.135L2081.985,1654l-9.88-.017,8.881,15.832-9.087,16.135Z" transform="translate(-2071.9 -1653.987)" fill="#252c58" opacity="0.2"/>
          </g>
        </g>
      </g>
    </g>
    <text id="공단_주관" data-name="공단 주관" transform="translate(1060 583)" font-size="34" font-family="NotoSansCJKkr-Regular, Noto Sans CJK KR"><tspan x="-66.368" y="0">공단 주관</tspan></text>
    <text id="SPC_주관" data-name="SPC 주관" transform="translate(1060 1199)" font-size="34" font-family="NotoSansCJKkr-Regular, Noto Sans CJK KR"><tspan x="-66.827" y="0">SPC 주관</tspan></text>
  </g>
</svg>
