<svg xmlns="http://www.w3.org/2000/svg" width="902" height="464" viewBox="0 0 902 464">
  <g id="그룹_1421" data-name="그룹 1421" transform="translate(-650 -581)">
    <rect id="사각형_311" data-name="사각형 311" width="902" height="189" rx="20" transform="translate(650 581)" fill="#f7f9ff"/>
    <rect id="사각형_312" data-name="사각형 312" width="902" height="189" rx="20" transform="translate(650 856)" fill="#fafafa"/>
    <g id="그룹_1421-2" data-name="그룹 1421" transform="translate(0 -10)">
      <g id="구성_요소_111_1" data-name="구성 요소 111 – 1" transform="translate(670 648)">
        <g id="사각형_306" data-name="사각형 306" fill="#fff" stroke="#a8b1e5" stroke-width="5">
          <rect width="132" height="110" rx="20" stroke="none"/>
          <rect x="2.5" y="2.5" width="127" height="105" rx="17.5" fill="none"/>
        </g>
        <text id="개발사업_민간제안" data-name="개발사업
민간제안" transform="translate(65.5 50)" font-size="18" font-family="NotoSansCJKkr-Regular, Noto Sans CJK KR" letter-spacing="-0.05em"><tspan x="-31.77" y="0">개발사업</tspan><tspan x="-31.77" y="25">민간제안</tspan></text>
      </g>
      <g id="구성_요소_111_2" data-name="구성 요소 111 – 2" transform="translate(852 648)">
        <g id="사각형_306-2" data-name="사각형 306" fill="#fff" stroke="#a8b1e5" stroke-width="5">
          <rect width="132" height="110" rx="20" stroke="none"/>
          <rect x="2.5" y="2.5" width="127" height="105" rx="17.5" fill="none"/>
        </g>
        <text id="개발사업_민간제안-2" data-name="개발사업
민간제안" transform="translate(65.5 50)" font-size="18" font-family="NotoSansCJKkr-Regular, Noto Sans CJK KR" letter-spacing="-0.05em"><tspan x="-31.77" y="0">개발사업</tspan><tspan x="-31.77" y="25">민간제안</tspan></text>
      </g>
      <g id="구성_요소_111_3" data-name="구성 요소 111 – 3" transform="translate(1034 648)">
        <g id="사각형_306-3" data-name="사각형 306" fill="#fff" stroke="#a8b1e5" stroke-width="5">
          <rect width="132" height="110" rx="20" stroke="none"/>
          <rect x="2.5" y="2.5" width="127" height="105" rx="17.5" fill="none"/>
        </g>
        <text id="개발사업_민간제안-3" data-name="개발사업
민간제안" transform="translate(65.5 50)" font-size="18" font-family="NotoSansCJKkr-Regular, Noto Sans CJK KR" letter-spacing="-0.05em"><tspan x="-31.77" y="0">개발사업</tspan><tspan x="-31.77" y="25">민간제안</tspan></text>
      </g>
      <g id="구성_요소_111_4" data-name="구성 요소 111 – 4" transform="translate(1216 648)">
        <g id="사각형_306-4" data-name="사각형 306" fill="#fff" stroke="#a8b1e5" stroke-width="5">
          <rect width="132" height="110" rx="20" stroke="none"/>
          <rect x="2.5" y="2.5" width="127" height="105" rx="17.5" fill="none"/>
        </g>
        <text id="개발사업_민간제안-4" data-name="개발사업
민간제안" transform="translate(65.5 50)" font-size="18" font-family="NotoSansCJKkr-Regular, Noto Sans CJK KR" letter-spacing="-0.05em"><tspan x="-31.77" y="0">개발사업</tspan><tspan x="-31.77" y="25">민간제안</tspan></text>
      </g>
      <g id="구성_요소_111_5" data-name="구성 요소 111 – 5" transform="translate(1398 648)">
        <g id="사각형_306-5" data-name="사각형 306" fill="#fff" stroke="#a8b1e5" stroke-width="5">
          <rect width="132" height="110" rx="20" stroke="none"/>
          <rect x="2.5" y="2.5" width="127" height="105" rx="17.5" fill="none"/>
        </g>
        <text id="개발사업_민간제안-5" data-name="개발사업
민간제안" transform="translate(65.5 50)" font-size="18" font-family="NotoSansCJKkr-Regular, Noto Sans CJK KR" letter-spacing="-0.05em"><tspan x="-31.77" y="0">개발사업</tspan><tspan x="-31.77" y="25">민간제안</tspan></text>
      </g>
      <g id="구성_요소_109_1" data-name="구성 요소 109 – 1" transform="translate(817.766 687)">
        <g id="그룹_1419" data-name="그룹 1419">
          <path id="패스_2435" data-name="패스 2435" d="M2081.779,1685.971l9.087-16.135L2081.985,1654l-9.88-.017,8.881,15.832-9.087,16.135Z" transform="translate(-2071.9 -1653.987)" fill="#252c58" opacity="0.2"/>
        </g>
      </g>
      <g id="구성_요소_109_2" data-name="구성 요소 109 – 2" transform="translate(999.766 687)">
        <g id="그룹_1419-2" data-name="그룹 1419">
          <path id="패스_2435-2" data-name="패스 2435" d="M2081.779,1685.971l9.087-16.135L2081.985,1654l-9.88-.017,8.881,15.832-9.087,16.135Z" transform="translate(-2071.9 -1653.987)" fill="#252c58" opacity="0.2"/>
        </g>
      </g>
      <g id="구성_요소_109_3" data-name="구성 요소 109 – 3" transform="translate(1181.766 687)">
        <g id="그룹_1419-3" data-name="그룹 1419">
          <path id="패스_2435-3" data-name="패스 2435" d="M2081.779,1685.971l9.087-16.135L2081.985,1654l-9.88-.017,8.881,15.832-9.087,16.135Z" transform="translate(-2071.9 -1653.987)" fill="#252c58" opacity="0.2"/>
        </g>
      </g>
      <g id="구성_요소_109_4" data-name="구성 요소 109 – 4" transform="translate(1363.766 687)">
        <g id="그룹_1419-4" data-name="그룹 1419">
          <path id="패스_2435-4" data-name="패스 2435" d="M2081.779,1685.971l9.087-16.135L2081.985,1654l-9.88-.017,8.881,15.832-9.087,16.135Z" transform="translate(-2071.9 -1653.987)" fill="#252c58" opacity="0.2"/>
        </g>
      </g>
    </g>
    <g id="그룹_1422" data-name="그룹 1422" transform="translate(0 10)">
      <g id="구성_요소_110_1" data-name="구성 요소 110 – 1" transform="translate(1398 869)">
        <g id="사각형_307" data-name="사각형 307" fill="#fff" stroke="#b4d1f9" stroke-width="5">
          <rect width="132" height="110" rx="20" stroke="none"/>
          <rect x="2.5" y="2.5" width="127" height="105" rx="17.5" fill="none"/>
        </g>
        <text id="사업추진협약_체결" data-name="사업추진협약
체결" transform="translate(66 50)" font-size="18" font-family="NotoSansCJKkr-Regular, Noto Sans CJK KR" letter-spacing="-0.05em"><tspan x="-47.43" y="0">사업추진협약</tspan><tspan x="-16.11" y="25">체결</tspan></text>
      </g>
      <g id="구성_요소_110_2" data-name="구성 요소 110 – 2" transform="translate(1216 869)">
        <g id="사각형_307-2" data-name="사각형 307" fill="#fff" stroke="#b4d1f9" stroke-width="5">
          <rect width="132" height="110" rx="20" stroke="none"/>
          <rect x="2.5" y="2.5" width="127" height="105" rx="17.5" fill="none"/>
        </g>
        <text id="사업추진협약_체결-2" data-name="사업추진협약
체결" transform="translate(66 50)" font-size="18" font-family="NotoSansCJKkr-Regular, Noto Sans CJK KR" letter-spacing="-0.05em"><tspan x="-47.43" y="0">사업추진협약</tspan><tspan x="-16.11" y="25">체결</tspan></text>
      </g>
      <g id="구성_요소_110_3" data-name="구성 요소 110 – 3" transform="translate(1034 869)">
        <g id="사각형_307-3" data-name="사각형 307" fill="#fff" stroke="#b4d1f9" stroke-width="5">
          <rect width="132" height="110" rx="20" stroke="none"/>
          <rect x="2.5" y="2.5" width="127" height="105" rx="17.5" fill="none"/>
        </g>
        <text id="사업추진협약_체결-3" data-name="사업추진협약
체결" transform="translate(66 50)" font-size="18" font-family="NotoSansCJKkr-Regular, Noto Sans CJK KR" letter-spacing="-0.05em"><tspan x="-47.43" y="0">사업추진협약</tspan><tspan x="-16.11" y="25">체결</tspan></text>
      </g>
      <g id="구성_요소_110_4" data-name="구성 요소 110 – 4" transform="translate(852 869)">
        <g id="사각형_307-4" data-name="사각형 307" fill="#fff" stroke="#b4d1f9" stroke-width="5">
          <rect width="132" height="110" rx="20" stroke="none"/>
          <rect x="2.5" y="2.5" width="127" height="105" rx="17.5" fill="none"/>
        </g>
        <text id="사업추진협약_체결-4" data-name="사업추진협약
체결" transform="translate(66 50)" font-size="18" font-family="NotoSansCJKkr-Regular, Noto Sans CJK KR" letter-spacing="-0.05em"><tspan x="-47.43" y="0">사업추진협약</tspan><tspan x="-16.11" y="25">체결</tspan></text>
      </g>
      <g id="구성_요소_110_5" data-name="구성 요소 110 – 5" transform="translate(670 869)">
        <g id="사각형_307-5" data-name="사각형 307" fill="#fff" stroke="#b4d1f9" stroke-width="5">
          <rect width="132" height="110" rx="20" stroke="none"/>
          <rect x="2.5" y="2.5" width="127" height="105" rx="17.5" fill="none"/>
        </g>
        <text id="사업추진협약_체결-5" data-name="사업추진협약
체결" transform="translate(66 50)" font-size="18" font-family="NotoSansCJKkr-Regular, Noto Sans CJK KR" letter-spacing="-0.05em"><tspan x="-47.43" y="0">사업추진협약</tspan><tspan x="-16.11" y="25">체결</tspan></text>
      </g>
      <g id="구성_요소_109_5" data-name="구성 요소 109 – 5" transform="translate(1382 940.5) rotate(180)">
        <g id="그룹_1419-5" data-name="그룹 1419">
          <path id="패스_2435-5" data-name="패스 2435" d="M2081.779,1685.971l9.087-16.135L2081.985,1654l-9.88-.017,8.881,15.832-9.087,16.135Z" transform="translate(-2071.9 -1653.987)" fill="#252c58" opacity="0.2"/>
        </g>
      </g>
      <g id="구성_요소_109_6" data-name="구성 요소 109 – 6" transform="translate(1200 940.5) rotate(180)">
        <g id="그룹_1419-6" data-name="그룹 1419">
          <path id="패스_2435-6" data-name="패스 2435" d="M2081.779,1685.971l9.087-16.135L2081.985,1654l-9.88-.017,8.881,15.832-9.087,16.135Z" transform="translate(-2071.9 -1653.987)" fill="#252c58" opacity="0.2"/>
        </g>
      </g>
      <g id="구성_요소_109_7" data-name="구성 요소 109 – 7" transform="translate(1018 940.5) rotate(180)">
        <g id="그룹_1419-7" data-name="그룹 1419">
          <path id="패스_2435-7" data-name="패스 2435" d="M2081.779,1685.971l9.087-16.135L2081.985,1654l-9.88-.017,8.881,15.832-9.087,16.135Z" transform="translate(-2071.9 -1653.987)" fill="#252c58" opacity="0.2"/>
        </g>
      </g>
      <g id="구성_요소_109_8" data-name="구성 요소 109 – 8" transform="translate(836 940.5) rotate(180)">
        <g id="그룹_1419-8" data-name="그룹 1419">
          <path id="패스_2435-8" data-name="패스 2435" d="M2081.779,1685.971l9.087-16.135L2081.985,1654l-9.88-.017,8.881,15.832-9.087,16.135Z" transform="translate(-2071.9 -1653.987)" fill="#252c58" opacity="0.2"/>
        </g>
      </g>
    </g>
    <g id="구성_요소_109_9" data-name="구성 요소 109 – 9" transform="translate(1481.5 800) rotate(90)">
      <g id="그룹_1419-9" data-name="그룹 1419">
        <path id="패스_2435-9" data-name="패스 2435" d="M2081.779,1685.971l9.087-16.135L2081.985,1654l-9.88-.017,8.881,15.832-9.087,16.135Z" transform="translate(-2071.9 -1653.987)" fill="#252c58" opacity="0.2"/>
      </g>
    </g>
    <text id="공단_주관" data-name="공단 주관" transform="translate(1100 620)" font-size="20" font-family="NotoSansCJKkr-Regular, Noto Sans CJK KR"><tspan x="-39.04" y="0">공단 주관</tspan></text>
    <text id="SPC_주관" data-name="SPC 주관" transform="translate(1100 1023)" font-size="20" font-family="NotoSansCJKkr-Regular, Noto Sans CJK KR"><tspan x="-39.31" y="0">SPC 주관</tspan></text>
  </g>
</svg>
