<svg xmlns="http://www.w3.org/2000/svg" xmlns:xlink="http://www.w3.org/1999/xlink" width="188.121" height="28" viewBox="0 0 188.121 28">
  <defs>
    <clipPath id="clip-path">
      <rect id="사각형_57" data-name="사각형 57" width="188.121" height="28" fill="none"/>
    </clipPath>
  </defs>
  <g id="logo" transform="translate(0 -0.001)">
    <g id="그룹_257" data-name="그룹 257" transform="translate(0 0.001)" clip-path="url(#clip-path)">
      <path id="패스_45" data-name="패스 45" d="M280.866,14c0,8.03-7.8,14-17.232,14s-17.2-5.968-17.2-14,7.783-14,17.2-14,17.232,5.978,17.232,14" transform="translate(-92.744 0)" fill="#fff"/>
      <path id="패스_46" data-name="패스 46" d="M280.564,14.4c0,7.651-7.489,13.336-16.472,13.336S247.648,22.054,247.648,14.4s7.474-13.337,16.444-13.337,16.472,5.7,16.472,13.337" transform="translate(-93.202 -0.402)" fill="#0054a4"/>
      <path id="패스_47" data-name="패스 47" d="M268.158,21.217a10.115,10.115,0,0,1,8.421,4.491,3.5,3.5,0,0,1,.307.48.1.1,0,0,0,.01.017h.377a73.831,73.831,0,0,0,0-18.922l-.077,0h-.3a.278.278,0,0,1-.019.032,2.962,2.962,0,0,1-.167.263,10.134,10.134,0,0,1-17.07.031,3.1,3.1,0,0,1-.21-.327h-.372a72.47,72.47,0,0,0-.607,9.458,72.1,72.1,0,0,0,.609,9.462h.372a2.974,2.974,0,0,1,.259-.405,10.134,10.134,0,0,1,8.467-4.583" transform="translate(-97.268 -2.741)" fill="#89ba40"/>
      <path id="패스_48" data-name="패스 48" d="M277.291,26.229h-.46l-.036-.049a3.552,3.552,0,0,0-.3-.473,10.063,10.063,0,0,0-16.786.089,2.923,2.923,0,0,0-.258.4l-.017.032h-.463l-.007-.054a72.461,72.461,0,0,1-.609-9.469,72.914,72.914,0,0,1,.607-9.466l.008-.054h.463l.017.032a3.128,3.128,0,0,0,.206.32,10.022,10.022,0,0,0,8.468,4.629,9.992,9.992,0,0,0,8.5-4.657,3.006,3.006,0,0,0,.165-.261.23.23,0,0,0,.016-.027l.016-.037.473,0,.007.056a74.026,74.026,0,0,1,0,18.938Zm-.4-.124h.286a73.761,73.761,0,0,0,0-18.8h-.287a3.033,3.033,0,0,1-.171.27,10.115,10.115,0,0,1-8.6,4.712,10.142,10.142,0,0,1-8.57-4.684,2.81,2.81,0,0,1-.194-.3h-.28a73.751,73.751,0,0,0,0,18.8h.279a3,3,0,0,1,.247-.381,10.188,10.188,0,0,1,16.989-.089,3.565,3.565,0,0,1,.3.47" transform="translate(-97.231 -2.703)" fill="#89ba40"/>
      <path id="패스_49" data-name="패스 49" d="M227.472,19.452l3.239-4.817h-3.748l-2.874,4.234h-.033l1.851-9.412h-3.595L219.245,25.3h3.6l1.071-5.651h.031l1.8,5.676h3.414Z" transform="translate(-82.513 -3.559)" fill="#0054a4"/>
      <path id="패스_50" data-name="패스 50" d="M203.1,17.608h3.507l-.15,1.28h.167a3.3,3.3,0,0,1,2.776-1.533c1.5,0,2.425.838,2.006,3.072l-1.547,7.846h-3.592l1.476-7.451c.116-.631-.039-.98-.473-.98a1.193,1.193,0,0,0-1.167.944l-1.476,7.488h-3.589Z" transform="translate(-75.661 -6.532)" fill="#0054a4"/>
      <path id="패스_51" data-name="패스 51" d="M189.659,24.28c-.128.69-.442,2.083-1.222,2.083-.574,0-.64-.466-.609-.981a5.8,5.8,0,0,1,.247-1.276c.194-.785.768-1.738,1.578-1.713l.413-.038Zm.7-3.5h-.427c-2.837-.007-4.187.984-4.894,2.392a6.423,6.423,0,0,0-.6,2.432c-.153,1.692.6,2.867,2.273,2.913a2.867,2.867,0,0,0,2.316-1.062l-.059.812h3.291l1.519-7.707c.36-1.96-.6-3.214-3.452-3.214-1.885,0-3.731.444-4.437,2.753h3.174c.129-.587.44-.865.889-.865.505,0,.654.243.572.67Z" transform="translate(-69.405 -6.53)" fill="#0054a4"/>
      <path id="패스_52" data-name="패스 52" d="M148.383,14.635h3.6L149.9,25.3h-3.6Zm.965-5.179h3.583l-.634,3.4h-3.6Z" transform="translate(-55.061 -3.559)" fill="#0054a4"/>
      <path id="패스_53" data-name="패스 53" d="M159.328,9.456h3.593L159.838,25.3h-3.585Z" transform="translate(-58.806 -3.559)" fill="#0054a4"/>
      <path id="패스_54" data-name="패스 54" d="M170.726,21.087c.145-.743.616-3.191.741-3.545.181-.49.454-.838.95-.778,1.091.133.393,2.792.1,4.126-.293,1.288-.785,2.106-1.358,2.106a.579.579,0,0,1-.612-.492,5.011,5.011,0,0,1,.183-1.417M166.317,25.3H169.7l.237-.975a2.1,2.1,0,0,0,2.085,1.225c1.815,0,3.729-.692,4.548-6.8.424-3.214-.5-4.463-2.362-4.463a3.3,3.3,0,0,0-2.369,1.126l1.13-5.952h-3.615Z" transform="translate(-62.593 -3.559)" fill="#0054a4"/>
      <path id="패스_55" data-name="패스 55" d="M134.014,8.84h0c-2.857-.216-4.4.738-5.476,3.242a37.423,37.423,0,0,0-1.638,7.269c-.621,3.537.41,5.862,3.968,6.029,2.93.148,4.6-.687,5.67-3.191a38.61,38.61,0,0,0,1.636-7.271c.61-3.551-.594-6.013-4.16-6.079m.091,6.837c-.155.914-.98,5.19-1.189,5.884-.358,1.151-.714,1.572-1.4,1.587-.075,0-.143,0-.21-.006-1.351-.069-.892-1.144-.317-4.392l0,0c.163-.912,1.013-5.172,1.212-5.875.339-1.162.716-1.572,1.381-1.586h.006c1.609-.032,1.141.972.513,4.387Z" transform="translate(-47.695 -3.316)" fill="#0054a4"/>
      <path id="패스_56" data-name="패스 56" d="M46.149,28.425H42.644l.152-1.279h-.027a3.515,3.515,0,0,1-2.919,1.53c-1.5,0-2.421-.843-2.006-3.07l1.549-7.844h3.592l-1.474,7.454a.764.764,0,0,0,.751.97c.394,0,.758-.266.887-.937l1.473-7.487h3.6Z" transform="translate(-14.205 -6.685)" fill="#0054a4"/>
      <path id="패스_57" data-name="패스 57" d="M57.355,17.609H60.86l-.145,1.277h.165a3.291,3.291,0,0,1,2.767-1.532c1.508,0,2.426.839,2,3.073l-1.529,7.845h-3.6l1.466-7.453c.117-.629-.041-.975-.469-.975a1.187,1.187,0,0,0-1.16.945l-1.485,7.483h-3.6Z" transform="translate(-20.804 -6.532)" fill="#0054a4"/>
      <path id="패스_58" data-name="패스 58" d="M79.833,18.848a30.03,30.03,0,0,1-.871,3.892c-.122.268-.249.607-.966.417-.919-.225-.271-2.981,0-4.231.3-1.321.725-2.1,1.255-2.16.369-.041.754.132.754.878a6.025,6.025,0,0,1-.176,1.2M78.758,25.3h3.388L85.211,9.458H81.624l-1.147,5.951a2.484,2.484,0,0,0-2.149-1.027c-1.731-.062-3.151,1.056-3.965,4.369-.739,3.073-.763,6.439,1.7,6.754a2.683,2.683,0,0,0,2.818-1.178Z" transform="translate(-27.822 -3.56)" fill="#0054a4"/>
      <path id="패스_59" data-name="패스 59" d="M96.153,24.282c-.122.689-.453,2.08-1.239,2.08-.568,0-.634-.466-.6-.981a5.534,5.534,0,0,1,.245-1.275c.186-.785.776-1.736,1.59-1.712l.4-.036Zm.7-3.495H96.4c-2.828-.01-4.171.981-4.886,2.39a6.726,6.726,0,0,0-.6,2.431c-.169,1.691.592,2.868,2.269,2.913a2.866,2.866,0,0,0,2.316-1.061l-.056.811h3.29l1.518-7.706c.361-1.959-.589-3.214-3.444-3.214-1.9,0-3.739.445-4.441,2.753h3.165c.13-.584.463-.864.893-.864.511,0,.652.244.574.67Z" transform="translate(-34.21 -6.53)" fill="#0054a4"/>
      <path id="패스_60" data-name="패스 60" d="M109.238,14.637h3.592L110.745,25.3h-3.584Zm1.011-5.179h3.583l-.68,3.4h-3.575Z" transform="translate(-40.33 -3.56)" fill="#0054a4"/>
      <path id="패스_61" data-name="패스 61" d="M23.03,28.435,21.973,17.763h3.435L25.36,25.07l2.652-7.307H31.6L24.5,32.581H20.953Z" transform="translate(-7.886 -6.685)" fill="#0054a4"/>
      <path id="패스_62" data-name="패스 62" d="M9.879,9.475,8.772,15.116H5.787l1.1-5.641H3.1L0,25.3H3.786l1.47-7.5h3L6.777,25.3H10.57l3.1-15.825Z" transform="translate(0 -3.566)" fill="#0054a4"/>
    </g>
  </g>
</svg>
