<svg xmlns="http://www.w3.org/2000/svg" width="8.623" height="9.716" viewBox="0 0 8.623 9.716">
  <g id="다각형_2" data-name="다각형 2" transform="translate(8.623) rotate(90)" fill="#1aa7ec">
    <path d="M 6.702560901641846 7.622898578643799 L 3.013380765914917 7.622898578643799 L 1.147780656814575 4.311448574066162 L 3.013390779495239 0.9999985694885254 L 6.702560901641846 0.9999985694885254 L 8.568161010742188 4.311448574066162 L 6.702550888061523 7.622898578643799 L 6.702560901641846 7.622898578643799 Z" stroke="none"/>
    <path d="M 3.597785949707031 1.999998569488525 L 2.295559406280518 4.311452388763428 L 3.59778881072998 6.622898578643799 L 6.118155479431152 6.622898578643799 L 7.420382022857666 4.311444759368896 L 6.118152618408203 1.999998569488525 L 3.597785949707031 1.999998569488525 M 3.013380527496338 -9.5367431640625e-07 L 6.702560424804688 -9.5367431640625e-07 C 7.063591003417969 -9.5367431640625e-07 7.396590709686279 0.1946086883544922 7.573801040649414 0.5091581344604492 L 9.439411163330078 3.820608615875244 C 9.611081123352051 4.12531852722168 9.611081123352051 4.497578620910645 9.439411163330078 4.80228853225708 L 7.573801040649414 8.113739013671875 C 7.396590709686279 8.428288459777832 7.063591003417969 8.622898101806641 6.702560424804688 8.622898101806641 L 3.013380527496338 8.622898101806641 C 2.652350902557373 8.622898101806641 2.319350719451904 8.428288459777832 2.142140865325928 8.113739013671875 L 0.2765302658081055 4.80228853225708 C 0.1048603057861328 4.497578620910645 0.1048603057861328 4.12531852722168 0.2765302658081055 3.820608615875244 L 2.142140865325928 0.5091581344604492 C 2.319350719451904 0.1946086883544922 2.652350902557373 -9.5367431640625e-07 3.013380527496338 -9.5367431640625e-07 Z" stroke="none" fill="#1aa7ec"/>
  </g>
</svg>
