<svg xmlns="http://www.w3.org/2000/svg" width="15" height="13.313" viewBox="0 0 15 13.313">
  <g id="다각형_2" data-name="다각형 2" fill="none">
    <path d="M10.666,0a1,1,0,0,1,.871.509l3.187,5.656a1,1,0,0,1,0,.982L11.537,12.8a1,1,0,0,1-.871.509H4.334a1,1,0,0,1-.871-.509L.277,7.147a1,1,0,0,1,0-.982L3.463.509A1,1,0,0,1,4.334,0Z" stroke="none"/>
    <path d="M 5.210999488830566 2.5 L 2.869448661804199 6.656247138977051 L 5.210994720458984 10.8125 L 9.78900146484375 10.8125 L 12.13055229187012 6.656252861022949 L 9.789005279541016 2.5 L 5.210999488830566 2.5 M 4.334400177001953 0 L 10.66559982299805 0 C 11.02663040161133 0 11.35964012145996 0.1946096420288086 11.53684997558594 0.509160041809082 L 14.72347068786621 6.165410041809082 C 14.89514064788818 6.470119953155518 14.89514064788818 6.842380046844482 14.72347068786621 7.147089958190918 L 11.53684997558594 12.80333995819092 C 11.35964012145996 13.11789035797119 11.02663040161133 13.3125 10.66559982299805 13.3125 L 4.334400177001953 13.3125 C 3.973360061645508 13.3125 3.640360832214355 13.11789035797119 3.463150024414062 12.80333995819092 L 0.2765302658081055 7.147089958190918 C 0.1048603057861328 6.842380046844482 0.1048603057861328 6.470119953155518 0.2765302658081055 6.165410041809082 L 3.463150024414062 0.509160041809082 C 3.640360832214355 0.1946096420288086 3.973370552062988 0 4.334400177001953 0 Z" stroke="none" fill="#aaa"/>
  </g>
</svg>
