<svg xmlns="http://www.w3.org/2000/svg" xmlns:xlink="http://www.w3.org/1999/xlink" width="121.135" height="140" viewBox="0 0 121.135 140">
  <defs>
    <clipPath id="clip-path">
      <rect id="사각형_32" data-name="사각형 32" width="36.667" height="40" fill="#222"/>
    </clipPath>
  </defs>
  <g id="그룹_36" data-name="그룹 36" transform="translate(-20)">
    <path id="다각형_1" data-name="다각형 1" d="M99.229,0a10,10,0,0,1,8.658,5l29.221,50.567a10,10,0,0,1,0,10.007l-29.221,50.567a10,10,0,0,1-8.658,5H40.771a10,10,0,0,1-8.658-5L2.891,65.571a10,10,0,0,1,0-10.007L32.113,5a10,10,0,0,1,8.658-5Z" transform="translate(141.135) rotate(90)" fill="#f5f5f5"/>
    <g id="icon" transform="translate(62 50)">
      <g id="그룹_26" data-name="그룹 26" clip-path="url(#clip-path)">
        <path id="패스_39" data-name="패스 39" d="M18.333,0C9.517,0,0,2.548,0,6.667V33.333C0,37.452,9.517,40,18.333,40s18.333-2.548,18.333-6.667V6.667C36.667,2.548,27.15,0,18.333,0m0,3.333c8.6,0,14.3,2.38,15,3.458V9.86c-.655,1.075-6.36,3.473-15,3.473s-14.345-2.4-15-3.473V6.792c.7-1.078,6.4-3.458,15-3.458m15,18.193C32.678,22.6,26.973,25,18.333,25s-14.345-2.4-15-3.473V13.842c3.548,1.8,9.41,2.825,15,2.825s11.452-1.027,15-2.825Zm-15,15.14c-8.6,0-14.3-2.38-15-3.458v-7.7c3.548,1.8,9.41,2.825,15,2.825s11.452-1.027,15-2.825v7.7c-.7,1.078-6.4,3.458-15,3.458" fill="#222"/>
      </g>
    </g>
  </g>
</svg>
