<svg id="logo" xmlns="http://www.w3.org/2000/svg" xmlns:xlink="http://www.w3.org/1999/xlink" width="135" height="24.03" viewBox="0 0 135 24.03">
  <defs>
    <clipPath id="clip-path">
      <rect id="사각형_23" data-name="사각형 23" width="135" height="24.03" fill="none"/>
    </clipPath>
    <clipPath id="clip-path-3">
      <rect id="사각형_19" data-name="사각형 19" width="9.636" height="16.207" fill="none"/>
    </clipPath>
    <clipPath id="clip-path-4">
      <rect id="사각형_20" data-name="사각형 20" width="8.812" height="15.749" fill="none"/>
    </clipPath>
    <clipPath id="clip-path-5">
      <rect id="사각형_21" data-name="사각형 21" width="19.266" height="21.677" fill="none"/>
    </clipPath>
  </defs>
  <g id="그룹_17" data-name="그룹 17" clip-path="url(#clip-path)">
    <g id="그룹_16" data-name="그룹 16" transform="translate(0 0.001)">
      <g id="그룹_15" data-name="그룹 15" clip-path="url(#clip-path)">
        <path id="패스_28" data-name="패스 28" d="M64.025,10.7a1.536,1.536,0,0,1,1.541-1.537H76.549a3.786,3.786,0,0,1,1.506.3,3.95,3.95,0,0,1,1.234.836,3.682,3.682,0,0,1,.819,1.249,4.064,4.064,0,0,1,.288,1.521v.708a4.084,4.084,0,0,1-.288,1.524,3.709,3.709,0,0,1-.819,1.249,3.893,3.893,0,0,1-1.234.832,3.72,3.72,0,0,1-1.506.306H61.791a4.344,4.344,0,0,1-2.343-.64A6.091,6.091,0,0,1,57.7,15.4a7.794,7.794,0,0,1-1.107-2.26A8.3,8.3,0,0,1,56.21,10.7a7.9,7.9,0,0,1,.4-2.454,7.514,7.514,0,0,1,1.172-2.242,6.4,6.4,0,0,1,1.859-1.652,4.778,4.778,0,0,1,2.466-.641h16.75A1.534,1.534,0,0,1,80.4,5.253a1.534,1.534,0,0,1-1.539,1.54H62.814a3.55,3.55,0,0,0-1.809.4,3.335,3.335,0,0,0-1.091.977,3.468,3.468,0,0,0-.547,1.267,6.228,6.228,0,0,0-.145,1.267,6.228,6.228,0,0,0,.145,1.267,3.468,3.468,0,0,0,.547,1.267A3.339,3.339,0,0,0,61,14.216a3.564,3.564,0,0,0,1.809.4H76.421a.891.891,0,0,0,.69-.353,1.246,1.246,0,0,0,.3-.831,1.337,1.337,0,0,0-.275-.835.868.868,0,0,0-.72-.352H65.567a1.534,1.534,0,0,1-1.541-1.54" transform="translate(19.861 1.312)" fill="#fff"/>
        <path id="패스_29" data-name="패스 29" d="M80.188,16.155a1.54,1.54,0,1,1-3.08,0V5.251a1.54,1.54,0,0,1,3.08,0Z" transform="translate(27.245 1.312)" fill="#fff"/>
        <path id="패스_30" data-name="패스 30" d="M86.553,12.243a4.1,4.1,0,0,1-1.666-.337,4.345,4.345,0,0,1-2.261-2.26,4.309,4.309,0,0,1,0-3.335A4.353,4.353,0,0,1,84.887,4.05a4.1,4.1,0,0,1,1.666-.336h16.868a1.53,1.53,0,0,1,1.54,1.539,1.53,1.53,0,0,1-1.54,1.54H86.489a1.22,1.22,0,0,0-.849.336,1.142,1.142,0,0,0,0,1.682,1.178,1.178,0,0,0,.849.356h15.138a4.235,4.235,0,0,1,1.681.334,4.221,4.221,0,0,1,2.278,2.276,4.181,4.181,0,0,1,.338,1.684,4.072,4.072,0,0,1-.338,1.667,4.379,4.379,0,0,1-.912,1.345,4.069,4.069,0,0,1-1.366.9,4.372,4.372,0,0,1-1.681.319H84.79a1.539,1.539,0,1,1,0-3.079h16.964a1.166,1.166,0,0,0,.835-.336,1.1,1.1,0,0,0,.352-.817,1.191,1.191,0,0,0-.352-.866,1.149,1.149,0,0,0-.835-.352Z" transform="translate(29.076 1.312)" fill="#fff"/>
        <path id="패스_31" data-name="패스 31" d="M42.971,6.79a3.587,3.587,0,0,0-1.819.4,3.329,3.329,0,0,0-1.633,2.244,6.429,6.429,0,0,0-.143,1.267,6.418,6.418,0,0,0,.143,1.267,3.328,3.328,0,0,0,1.633,2.245,3.6,3.6,0,0,0,1.819.4H58.689a1.539,1.539,0,1,1,0,3.079H41.941a4.326,4.326,0,0,1-2.34-.64A6.135,6.135,0,0,1,37.853,15.4a7.9,7.9,0,0,1-1.107-2.26,8.374,8.374,0,0,1-.383-2.437,7.935,7.935,0,0,1,.4-2.454,7.48,7.48,0,0,1,1.168-2.241A6.371,6.371,0,0,1,39.8,4.354a4.763,4.763,0,0,1,2.467-.641H58.689a1.532,1.532,0,0,1,1.539,1.54A1.532,1.532,0,0,1,58.689,6.79ZM57.344,9.166a1.485,1.485,0,0,1,1.091.449,1.538,1.538,0,0,1-1.091,2.627H43.322a1.541,1.541,0,0,1-1.091-2.627,1.479,1.479,0,0,1,1.091-.449Z" transform="translate(12.848 1.311)" fill="#fff"/>
        <g id="그룹_8" data-name="그룹 8" transform="translate(0 1.569)" opacity="0.7">
          <g id="그룹_7" data-name="그룹 7">
            <g id="그룹_6" data-name="그룹 6" clip-path="url(#clip-path-3)">
              <path id="패스_32" data-name="패스 32" d="M9.636,11.114a2.77,2.77,0,0,1-1.352,2.121l-6.928,3.93C.608,17.587,0,17.324,0,16.576V8.425c0-.748.608-2.711,1.356-3.133l6.928-3.93c.747-.422,1.352-.16,1.352.589Z" transform="translate(0 -1.16)" fill="#fff"/>
            </g>
          </g>
        </g>
        <g id="그룹_11" data-name="그룹 11" transform="translate(30.823 6.793)" opacity="0.7">
          <g id="그룹_10" data-name="그룹 10">
            <g id="그룹_9" data-name="그룹 9" clip-path="url(#clip-path-4)">
              <path id="패스_33" data-name="패스 33" d="M31.588,14.974a2.77,2.77,0,0,1-1.353,2.121l-6.1,3.473c-.746.422-1.355.16-1.355-.589V10.815A2.779,2.779,0,0,1,24.13,8.693l6.1-3.473c.747-.422,1.353-.16,1.353.59Z" transform="translate(-22.776 -5.02)" fill="#fff"/>
            </g>
          </g>
        </g>
        <path id="패스_34" data-name="패스 34" d="M25.663,9.875a2.484,2.484,0,0,1-2.581-.127l-6.83-3.873c-.74-.425-.85-1.145-.18-1.514L23.292.253a2.864,2.864,0,0,1,2.54.095l6.936,3.969c.74.424.8,1.066.129,1.44Z" transform="translate(5.522 -0.001)" fill="#fff"/>
        <path id="패스_35" data-name="패스 35" d="M11.155,20.157a2.963,2.963,0,0,1-2.581-.126l-6.83-3.875c-.74-.425-.85-1.145-.18-1.514l7.22-4.107a2.857,2.857,0,0,1,2.539.095L18.259,14.6c.742.424.8,1.068.131,1.44Z" transform="translate(0.396 3.632)" fill="#fff"/>
        <g id="그룹_14" data-name="그룹 14" transform="translate(10.591 1.217)" opacity="0.4">
          <g id="그룹_13" data-name="그룹 13">
            <g id="그룹_12" data-name="그룹 12" clip-path="url(#clip-path-5)">
              <path id="패스_36" data-name="패스 36" d="M7.826,10.854a2.766,2.766,0,0,0,1.355,2.121l16.555,9.4c.748.424,1.356.161,1.356-.587V12.624A2.772,2.772,0,0,0,25.736,10.5L9.181,1.1C8.432.679,7.826.942,7.826,1.69Z" transform="translate(-7.826 -0.9)" fill="#fff"/>
            </g>
          </g>
        </g>
      </g>
    </g>
  </g>
</svg>
