<svg id="그룹_441" data-name="그룹 441" xmlns="http://www.w3.org/2000/svg" xmlns:xlink="http://www.w3.org/1999/xlink" width="227.063" height="40" viewBox="0 0 227.063 40">
  <defs>
    <clipPath id="clip-path">
      <rect id="사각형_265" data-name="사각형 265" width="16.207" height="26.976" fill="none"/>
    </clipPath>
    <clipPath id="clip-path-2">
      <rect id="사각형_266" data-name="사각형 266" width="14.822" height="26.215" fill="none"/>
    </clipPath>
    <clipPath id="clip-path-3">
      <rect id="사각형_267" data-name="사각형 267" width="32.405" height="36.081" fill="none"/>
    </clipPath>
  </defs>
  <path id="패스_526" data-name="패스 526" d="M88.52,24.678a2.441,2.441,0,0,1,.758-1.811,2.5,2.5,0,0,1,1.835-.748h18.472a6.425,6.425,0,0,1,2.533.5,6.647,6.647,0,0,1,2.076,1.392,6.124,6.124,0,0,1,1.377,2.079,6.7,6.7,0,0,1,.485,2.532V29.8a6.735,6.735,0,0,1-.485,2.536,6.168,6.168,0,0,1-1.377,2.079,6.59,6.59,0,0,1-2.076,1.385,6.311,6.311,0,0,1-2.533.507H84.762a7.363,7.363,0,0,1-3.94-1.063,10.2,10.2,0,0,1-2.936-2.75,12.918,12.918,0,0,1-1.862-3.762,13.689,13.689,0,0,1-.649-4.057,13.018,13.018,0,0,1,.674-4.084,12.462,12.462,0,0,1,1.971-3.733,10.7,10.7,0,0,1,3.128-2.75,8.1,8.1,0,0,1,4.147-1.068h28.173a2.508,2.508,0,0,1,1.832.748,2.556,2.556,0,0,1,0,3.629,2.517,2.517,0,0,1-1.832.748H86.483a6.021,6.021,0,0,0-3.043.667,5.59,5.59,0,0,0-1.835,1.626,5.741,5.741,0,0,0-.92,2.108,9.248,9.248,0,0,0,0,4.217,5.741,5.741,0,0,0,.92,2.108,5.6,5.6,0,0,0,1.835,1.629,6.07,6.07,0,0,0,3.043.665h22.885a1.5,1.5,0,0,0,1.161-.588,2.065,2.065,0,0,0,.512-1.383,2.21,2.21,0,0,0-.462-1.39,1.465,1.465,0,0,0-1.211-.586H91.113a2.512,2.512,0,0,1-1.835-.746,2.466,2.466,0,0,1-.758-1.818" transform="translate(52.572 -4.676)" fill="#fff"/>
  <path id="패스_527" data-name="패스 527" d="M101.454,33.751a2.458,2.458,0,0,1-.758,1.813,2.63,2.63,0,0,1-3.669,0,2.454,2.454,0,0,1-.753-1.813V15.6a2.456,2.456,0,0,1,.753-1.811,2.624,2.624,0,0,1,3.669,0,2.46,2.46,0,0,1,.758,1.811Z" transform="translate(79.243 -4.676)" fill="#fff"/>
  <path id="패스_528" data-name="패스 528" d="M108.625,27.239a6.967,6.967,0,0,1-2.8-.561,7.27,7.27,0,0,1-3.8-3.762,7.1,7.1,0,0,1,0-5.55,7.16,7.16,0,0,1,1.541-2.241,7.264,7.264,0,0,1,2.263-1.523,6.965,6.965,0,0,1,2.8-.559H137a2.536,2.536,0,0,1,1.837.746,2.567,2.567,0,0,1,0,3.633,2.536,2.536,0,0,1-1.837.746H108.518a2.064,2.064,0,0,0-1.427.559,1.888,1.888,0,0,0,0,2.8,1.991,1.991,0,0,0,1.427.592H133.98a7.188,7.188,0,0,1,2.827.556,7.063,7.063,0,0,1,3.831,3.789,6.9,6.9,0,0,1,.569,2.8,6.718,6.718,0,0,1-.569,2.775,7.322,7.322,0,0,1-1.534,2.241,6.879,6.879,0,0,1-2.3,1.5,7.422,7.422,0,0,1-2.827.532H105.659a2.5,2.5,0,0,1-1.832-.75,2.556,2.556,0,0,1,0-3.624,2.514,2.514,0,0,1,1.832-.75h28.533a1.973,1.973,0,0,0,1.4-.559,1.815,1.815,0,0,0,.592-1.361,1.972,1.972,0,0,0-.592-1.442,1.943,1.943,0,0,0-1.4-.586Z" transform="translate(85.856 -4.676)" fill="#fff"/>
  <path id="패스_529" data-name="패스 529" d="M66.643,18.165a6.085,6.085,0,0,0-3.059.669,5.545,5.545,0,0,0-2.747,3.735,10.594,10.594,0,0,0-.241,2.108,10.576,10.576,0,0,0,.241,2.108,5.631,5.631,0,0,0,.92,2.108,5.71,5.71,0,0,0,1.828,1.629,6.11,6.11,0,0,0,3.059.665H93.079a2.522,2.522,0,0,1,1.835.748,2.559,2.559,0,0,1,0,3.627,2.506,2.506,0,0,1-1.835.75H64.911a7.329,7.329,0,0,1-3.936-1.065,10.275,10.275,0,0,1-2.941-2.75,13.09,13.09,0,0,1-1.862-3.762,13.806,13.806,0,0,1-.644-4.057,13.084,13.084,0,0,1,.674-4.084,12.444,12.444,0,0,1,1.964-3.733,10.706,10.706,0,0,1,3.134-2.75,8.077,8.077,0,0,1,4.15-1.068H93.079a2.513,2.513,0,0,1,1.835.748,2.559,2.559,0,0,1,0,3.627,2.5,2.5,0,0,1-1.835.748Zm24.174,3.953a2.511,2.511,0,0,1,1.835.748,2.567,2.567,0,0,1,0,3.624,2.5,2.5,0,0,1-1.835.748H67.232a2.492,2.492,0,0,1-1.835-.748,2.556,2.556,0,0,1,0-3.624,2.5,2.5,0,0,1,1.835-.748Z" transform="translate(27.242 -4.676)" fill="#fff"/>
  <g id="그룹_383" data-name="그룹 383" transform="translate(0 2.614)" opacity="0.7">
    <g id="그룹_382" data-name="그룹 382">
      <g id="그룹_381" data-name="그룹 381" clip-path="url(#clip-path)">
        <path id="패스_530" data-name="패스 530" d="M35.372,27.058a4.607,4.607,0,0,1-2.274,3.53L21.446,37.129c-1.259.7-2.281.266-2.281-.98V22.582c0-1.246,1.022-4.512,2.281-5.215L33.1,10.826c1.256-.7,2.274-.266,2.274.98Z" transform="translate(-19.165 -10.489)" fill="#fff"/>
      </g>
    </g>
  </g>
  <g id="그룹_386" data-name="그룹 386" transform="translate(51.842 11.308)" opacity="0.7">
    <g id="그룹_385" data-name="그룹 385">
      <g id="그룹_384" data-name="그룹 384" clip-path="url(#clip-path-2)">
        <path id="패스_531" data-name="패스 531" d="M56.763,30.919a4.606,4.606,0,0,1-2.276,3.53l-10.268,5.78c-1.254.7-2.279.266-2.279-.98V24a4.618,4.618,0,0,1,2.279-3.532l10.268-5.78c1.256-.7,2.276-.266,2.276.982Z" transform="translate(-41.941 -14.349)" fill="#fff"/>
      </g>
    </g>
  </g>
  <path id="패스_532" data-name="패스 532" d="M51.672,25.766a4.21,4.21,0,0,1-4.341-.212L35.843,19.108c-1.245-.707-1.429-1.906-.3-2.521L47.684,9.75a4.862,4.862,0,0,1,4.272.158l11.666,6.607c1.245.705,1.343,1.775.216,2.4Z" transform="translate(0.779 -9.329)" fill="#fff"/>
  <path id="패스_533" data-name="패스 533" d="M37.164,36.05a5.03,5.03,0,0,1-4.341-.209L21.335,29.391c-1.245-.707-1.429-1.906-.3-2.521l12.144-6.837a4.85,4.85,0,0,1,4.27.158L49.112,26.8c1.247.705,1.343,1.777.221,2.395Z" transform="translate(-17.736 3.551)" fill="#fff"/>
  <g id="그룹_389" data-name="그룹 389" transform="translate(17.814 2.028)" opacity="0.4">
    <g id="그룹_388" data-name="그룹 388">
      <g id="그룹_387" data-name="그룹 387" clip-path="url(#clip-path-3)">
        <path id="패스_534" data-name="패스 534" d="M26.991,26.8a4.6,4.6,0,0,0,2.279,3.53L57.115,45.973c1.259.705,2.281.268,2.281-.978V29.743a4.609,4.609,0,0,0-2.281-3.532L29.27,10.565c-1.259-.7-2.279-.266-2.279.98Z" transform="translate(-26.992 -10.23)" fill="#fff"/>
      </g>
    </g>
  </g>
</svg>
