<svg xmlns="http://www.w3.org/2000/svg" xmlns:xlink="http://www.w3.org/1999/xlink" width="135" height="24.031" viewBox="0 0 135 24.031">
  <defs>
    <clipPath id="clip-path">
      <rect id="사각형_17" data-name="사각형 17" width="135" height="24.031" fill="none"/>
    </clipPath>
  </defs>
  <g id="logo" transform="translate(0 0)">
    <g id="그룹_3" data-name="그룹 3" transform="translate(0 0)" clip-path="url(#clip-path)">
      <path id="패스_14" data-name="패스 14" d="M119.98,14.4a1.535,1.535,0,0,1,1.54-1.538H132.5a3.776,3.776,0,0,1,1.506.3,3.958,3.958,0,0,1,1.235.836,3.662,3.662,0,0,1,.817,1.249,4.02,4.02,0,0,1,.291,1.523v.706A4.035,4.035,0,0,1,136.06,19a3.675,3.675,0,0,1-.817,1.249,3.939,3.939,0,0,1-1.235.833,3.743,3.743,0,0,1-1.506.3H117.743a4.332,4.332,0,0,1-2.341-.64,6.112,6.112,0,0,1-1.746-1.651,7.819,7.819,0,0,1-1.108-2.26,8.321,8.321,0,0,1-.385-2.438,7.9,7.9,0,0,1,.4-2.453A7.5,7.5,0,0,1,113.735,9.7a6.384,6.384,0,0,1,1.86-1.652,4.773,4.773,0,0,1,2.467-.642h16.749a1.541,1.541,0,0,1,1.089,2.63,1.489,1.489,0,0,1-1.089.45H118.768a3.556,3.556,0,0,0-1.811.4,3.308,3.308,0,0,0-1.089.977,3.377,3.377,0,0,0-.546,1.267,5.6,5.6,0,0,0,0,2.533,3.383,3.383,0,0,0,.546,1.266,3.326,3.326,0,0,0,1.089.979,3.584,3.584,0,0,0,1.811.4h13.606a.9.9,0,0,0,.689-.353,1.235,1.235,0,0,0,.3-.832,1.331,1.331,0,0,0-.273-.835.871.871,0,0,0-.721-.352H121.519a1.533,1.533,0,0,1-1.54-1.54" transform="translate(-36.092 -2.384)" fill="#005fa2"/>
      <path id="패스_15" data-name="패스 15" d="M156.941,19.853a1.539,1.539,0,1,1-3.078,0V8.949a1.539,1.539,0,1,1,3.078,0Z" transform="translate(-49.51 -2.384)" fill="#005fa2"/>
      <path id="패스_16" data-name="패스 16" d="M168.467,15.939A4.1,4.1,0,0,1,166.8,15.6a4.292,4.292,0,0,1-1.346-.913,4.347,4.347,0,0,1-.916-1.347,4.308,4.308,0,0,1,0-3.335,4.335,4.335,0,0,1,2.261-2.26,4.1,4.1,0,0,1,1.666-.337h16.869a1.542,1.542,0,0,1,1.09,2.631,1.489,1.489,0,0,1-1.09.448H168.4a1.226,1.226,0,0,0-.85.336,1.146,1.146,0,0,0,0,1.683,1.184,1.184,0,0,0,.85.355h15.137a4.253,4.253,0,0,1,1.682.334,4.379,4.379,0,0,1,1.363.915,4.31,4.31,0,0,1,.914,1.363,4.214,4.214,0,0,1,.338,1.683,4.1,4.1,0,0,1-.338,1.667,4.338,4.338,0,0,1-.914,1.346,4.064,4.064,0,0,1-1.363.9,4.392,4.392,0,0,1-1.682.32H166.7a1.539,1.539,0,1,1,0-3.078H183.67a1.159,1.159,0,0,0,.833-.338,1.085,1.085,0,0,0,.353-.817,1.18,1.18,0,0,0-.353-.866,1.143,1.143,0,0,0-.833-.352Z" transform="translate(-52.838 -2.384)" fill="#005fa2"/>
      <path id="패스_17" data-name="패스 17" d="M79.168,10.488a3.568,3.568,0,0,0-1.815.4,3.316,3.316,0,0,0-1.088.977,3.384,3.384,0,0,0-.547,1.266,6.265,6.265,0,0,0-.145,1.267,6.27,6.27,0,0,0,.145,1.267,3.326,3.326,0,0,0,1.634,2.245,3.6,3.6,0,0,0,1.815.4H94.886a1.539,1.539,0,1,1,0,3.078H78.139a4.324,4.324,0,0,1-2.341-.64A6.093,6.093,0,0,1,74.052,19.1a7.857,7.857,0,0,1-1.108-2.261,8.285,8.285,0,0,1-.383-2.437,7.886,7.886,0,0,1,.4-2.453A7.491,7.491,0,0,1,74.131,9.7a6.354,6.354,0,0,1,1.862-1.652A4.765,4.765,0,0,1,78.46,7.41H94.886a1.541,1.541,0,0,1,1.09,2.628,1.474,1.474,0,0,1-1.09.45Zm14.373,2.374a1.539,1.539,0,1,1,0,3.077H79.518a1.539,1.539,0,1,1,0-3.077Z" transform="translate(-23.349 -2.384)" fill="#005fa2"/>
      <path id="패스_18" data-name="패스 18" d="M9.637,12.268A2.768,2.768,0,0,1,8.283,14.39l-6.927,3.93C.608,18.742,0,18.479,0,17.731V9.579c0-.748.608-2.71,1.356-3.133l6.927-3.93c.749-.422,1.354-.159,1.354.589Z" transform="translate(0 -0.745)" fill="#005fa2"/>
      <path id="패스_19" data-name="패스 19" d="M54.259,19.971a2.766,2.766,0,0,1-1.355,2.12l-6.1,3.473c-.749.423-1.355.161-1.355-.589V15.813A2.77,2.77,0,0,1,46.8,13.69l6.1-3.472c.748-.423,1.355-.16,1.355.589Z" transform="translate(-14.624 -3.223)" fill="#005fa2"/>
      <path id="패스_20" data-name="패스 20" d="M41.218,9.876a2.486,2.486,0,0,1-2.581-.127l-6.83-3.874c-.741-.424-.851-1.144-.18-1.514L38.847.253a2.865,2.865,0,0,1,2.541.1l6.935,3.968c.74.424.8,1.068.128,1.44Z" transform="translate(-10.034 0)" fill="#313133"/>
      <path id="패스_21" data-name="패스 21" d="M12.27,30.393a2.961,2.961,0,0,1-2.582-.127l-6.83-3.874c-.741-.424-.85-1.144-.18-1.514L9.9,20.77a2.862,2.862,0,0,1,2.54.1l6.936,3.968c.74.424.8,1.068.128,1.44Z" transform="translate(-0.719 -6.602)" fill="#313133"/>
      <path id="패스_22" data-name="패스 22" d="M15.616,11.749a2.771,2.771,0,0,0,1.354,2.121l16.556,9.4c.749.423,1.355.161,1.355-.588V13.519A2.771,2.771,0,0,0,33.526,11.4L16.97,2c-.748-.423-1.354-.159-1.354.589Z" transform="translate(-5.025 -0.577)" fill="#0090bc"/>
    </g>
  </g>
</svg>
