<svg xmlns="http://www.w3.org/2000/svg" width="28" height="28" viewBox="0 0 28 28">
  <g id="ico-tell" transform="translate(4 -2)">
    <circle id="타원_5" data-name="타원 5" cx="14" cy="14" r="14" transform="translate(-4 2)" fill="#fff"/>
    <g id="icon_전화" transform="translate(-2.75 6)">
      <rect id="사각형_1353" data-name="사각형 1353" width="20" height="20" transform="translate(2.75)" fill="#fff" opacity="0"/>
      <g id="그룹_1948" data-name="그룹 1948" transform="translate(2.75)">
        <path id="패스_972" data-name="패스 972" d="M362.1,1382.4a.95.95,0,0,1-.423-.095c-1.067-.524-2.453-1.222-3.7-1.975a1.913,1.913,0,0,1-.825-1.691l.325-1.509a.633.633,0,0,0-.385-.191,16.091,16.091,0,0,0-5.284,0,.636.636,0,0,0-.386.19l.324,1.512a1.948,1.948,0,0,1-.8,1.67,18.234,18.234,0,0,1-3.781,2.018.964.964,0,0,1-.356.066,1.917,1.917,0,0,1-1.591-1.043,9.687,9.687,0,0,1-.7-4.933l.031-.268.18-.2a13.831,13.831,0,0,1,19.442,0l.183.2.029.273a10.1,10.1,0,0,1,.067,1.12,9.729,9.729,0,0,1-.772,3.81,1.943,1.943,0,0,1-1.58,1.042Zm-15.461-1.757a.691.691,0,0,0,.143.089,17.079,17.079,0,0,0,3.328-1.8c0-.009.038-.064.069-.118l-.3-1.382a1.57,1.57,0,0,1,.23-1.2,2.117,2.117,0,0,1,1.457-.908,18.637,18.637,0,0,1,2.872-.239,18.912,18.912,0,0,1,2.9.238,2.121,2.121,0,0,1,1.455.909,1.576,1.576,0,0,1,.23,1.208l-.3,1.377a.852.852,0,0,0,.1.142c1.06.636,2.309,1.272,3.317,1.768a.525.525,0,0,0,.137-.1,8.134,8.134,0,0,0,.6-3.082c0-.2-.01-.422-.03-.659a11.753,11.753,0,0,0-8.364-3.289H354.4a11.728,11.728,0,0,0-8.344,3.29c-.02.226-.029.444-.029.659a8.016,8.016,0,0,0,.617,3.1Z" transform="translate(-344.456 -1371.958)" fill="#4f453c"/>
      </g>
      <g id="그룹_1950" data-name="그룹 1950" transform="translate(8.75 9)">
        <path id="패스_973" data-name="패스 973" d="M352.811,1384.069a1.2,1.2,0,1,0,1.2,1.2,1.2,1.2,0,0,0-1.2-1.2Z" transform="translate(-351.612 -1384.069)" fill="#4f453c"/>
        <path id="패스_974" data-name="패스 974" d="M356.786,1384.069a1.2,1.2,0,1,0,1.2,1.2,1.2,1.2,0,0,0-1.2-1.2Z" transform="translate(-352.667 -1384.069)" fill="#4f453c"/>
        <path id="패스_975" data-name="패스 975" d="M360.761,1384.069a1.2,1.2,0,1,0,1.2,1.2,1.2,1.2,0,0,0-1.2-1.2Z" transform="translate(-353.723 -1384.069)" fill="#4f453c"/>
        <path id="패스_976" data-name="패스 976" d="M352.811,1388.045a1.2,1.2,0,1,0,1.2,1.2,1.2,1.2,0,0,0-1.2-1.2Z" transform="translate(-351.612 -1385.253)" fill="#4f453c"/>
        <path id="패스_977" data-name="패스 977" d="M356.786,1388.045a1.2,1.2,0,1,0,1.2,1.2,1.2,1.2,0,0,0-1.2-1.2Z" transform="translate(-352.667 -1385.253)" fill="#4f453c"/>
        <path id="패스_978" data-name="패스 978" d="M360.761,1388.045a1.2,1.2,0,1,0,1.2,1.2,1.2,1.2,0,0,0-1.2-1.2Z" transform="translate(-353.723 -1385.253)" fill="#4f453c"/>
        <path id="패스_979" data-name="패스 979" d="M352.811,1392.02a1.2,1.2,0,1,0,1.2,1.2,1.2,1.2,0,0,0-1.2-1.2Z" transform="translate(-351.612 -1386.575)" fill="#4f453c"/>
        <path id="패스_980" data-name="패스 980" d="M356.786,1392.02a1.2,1.2,0,1,0,1.2,1.2,1.2,1.2,0,0,0-1.2-1.2Z" transform="translate(-352.667 -1386.575)" fill="#4f453c"/>
        <path id="패스_981" data-name="패스 981" d="M360.761,1392.02a1.2,1.2,0,1,0,1.2,1.2,1.2,1.2,0,0,0-1.2-1.2Z" transform="translate(-353.723 -1386.575)" fill="#4f453c"/>
      </g>
      <g id="그룹_1951" data-name="그룹 1951" transform="translate(3.984 15.2)">
        <path id="패스_982" data-name="패스 982" d="M354.715,1419.007c0,2.662-2.949,4.828-6.574,4.828h-4.383c-3.624,0-6.574-2.166-6.574-4.828" transform="translate(-337.184 -1419.007)" fill="none" stroke="#4f453c" stroke-linecap="round" stroke-width="1.6"/>
      </g>
    </g>
  </g>
</svg>
