<svg id="icon2" xmlns="http://www.w3.org/2000/svg" width="74" height="74" viewBox="0 0 74 74">
  <rect id="사각형_33" data-name="사각형 33" width="74" height="74" fill="none"/>
  <g id="icon2-2" data-name="icon2" transform="translate(-317.15 -211)">
    <path id="합치기_5" data-name="합치기 5" d="M-568.156-353.75h-11.226a10.713,10.713,0,0,1-10.427,8.317,10.712,10.712,0,0,1-10.479-8.555h-5.562v-14.075l1.675-5.026h-1.675v-1.841h2.289L-600.2-385h13.6v18.671a10.67,10.67,0,0,1,3.041,1.529h19.149v.331a10.642,10.642,0,0,1,6.683-2.352,10.638,10.638,0,0,1,6.416,2.144v0h8.555v10.694h-4.493a10.712,10.712,0,0,1-10.479,8.555A10.713,10.713,0,0,1-568.156-353.75Zm1.873-2.377a8.565,8.565,0,0,0,8.555,8.555,8.566,8.566,0,0,0,8.555-8.555,8.565,8.565,0,0,0-8.555-8.555A8.564,8.564,0,0,0-566.283-356.127Zm-32.081,0a8.566,8.566,0,0,0,8.555,8.555,8.565,8.565,0,0,0,8.555-8.555,8.564,8.564,0,0,0-8.555-8.555A8.565,8.565,0,0,0-598.364-356.127Zm53.469,0v-6.416h-4.283a10.637,10.637,0,0,1,2.144,6.416Zm-58.816-11.589v11.589h3.208a10.706,10.706,0,0,1,10.694-10.694q.541,0,1.069.053v-6.321H-601.92Zm35.3,11.2a10.643,10.643,0,0,1,2.466-6.446h-15.64a10.643,10.643,0,0,1,2.466,6.446h1.076v-2.822a2.141,2.141,0,0,1,2.138-2.139h4.278a2.142,2.142,0,0,1,2.138,2.139v2.822Zm-3.215,0v-2.822h-4.278v2.822Zm-17.11-18.417v-7.931h-9.923l-2.644,7.931Zm26.734,18.8a4.281,4.281,0,0,1,4.277-4.277,4.282,4.282,0,0,1,4.278,4.277,4.282,4.282,0,0,1-4.278,4.278A4.282,4.282,0,0,1-562.005-356.127Zm2.138,0a2.142,2.142,0,0,0,2.138,2.139,2.142,2.142,0,0,0,2.139-2.139,2.142,2.142,0,0,0-2.139-2.138A2.142,2.142,0,0,0-559.867-356.127Zm-34.22,0a4.282,4.282,0,0,1,4.278-4.277,4.281,4.281,0,0,1,4.277,4.277,4.282,4.282,0,0,1-4.277,4.278A4.282,4.282,0,0,1-594.086-356.127Zm2.138,0a2.142,2.142,0,0,0,2.139,2.139,2.142,2.142,0,0,0,2.138-2.139,2.142,2.142,0,0,0-2.138-2.138A2.142,2.142,0,0,0-591.948-356.127Z" transform="translate(926.85 624.318)" fill="#fff" stroke="rgba(0,0,0,0)" stroke-miterlimit="10" stroke-width="1"/>
    <g id="move2">
      <path id="패스_1287" data-name="패스 1287" d="M340,233h44.914v10.694l-24.6,11.763H344.277Z" transform="translate(1.318 0.971)" fill="#72bf44"/>
      <path id="합치기_4" data-name="합치기 4" d="M-586.425-346.5l-4.277-23.526h-15.148v-2.138h15.539L-579.616-385h16.023l5.046,7.066,1.375-1.719h5.363l5.749,8.555h2.234v12.436L-569.248-346.5Zm16.691-2.138.423-.2-3.248-5.684,1.857-1.061,3.326,5.82,2.385-1.141-3.29-5.756,1.857-1.061,3.367,5.892,2.384-1.14L-564-358.8l1.857-1.06,3.409,5.965,2.385-1.14-3.373-5.9,1.858-1.061,3.45,6.038,8.453-4.043v-3.811h-6.149v-1.841h6.149v-3.3h-27.8V-371.1h25.131l-4.316-6.417h-3.191l-3.955,4.946-1.671-1.336,1.836-2.3-4.758-6.661h-13.919L-588.667-370.8l4.028,22.156h2.122l-1.879-11.264a5.1,5.1,0,0,1-.068-.826,5.025,5.025,0,0,1,5.02-5.019h24.923v2.138h-24.923a2.885,2.885,0,0,0-2.881,2.881,2.924,2.924,0,0,0,.039.476l1.936,11.615Z" transform="translate(931.127 604)" fill="#fff" stroke="rgba(0,0,0,0)" stroke-miterlimit="10" stroke-width="1"/>
    </g>
  </g>
</svg>
