<svg xmlns="http://www.w3.org/2000/svg" width="20.25" height="17.422" viewBox="0 0 20.25 17.422">
    <g fill="#fff">
        <path stroke="#fff" stroke-width="0.5px" d="M1140.88 7.683h5.921l-.672.958h-5.248a1.444 1.444 0 0 0-1.439 1.439v10.43a1.444 1.444 0 0 0 1.439 1.439h10.431a1.444 1.444 0 0 0 1.438-1.439v-1.458l.958-.871v2.328a2.4 2.4 0 0 1-2.4 2.4h-10.428a2.4 2.4 0 0 1-2.4-2.4v-10.43a2.4 2.4 0 0 1 2.4-2.4z" transform="translate(-1138.234 129.762) translate(0 -135.495)"/>
        <path d="M1603.9-123.321l-6.346 5.141-.739.6v-3.663a6.354 6.354 0 0 0-5.1 5.1c-1.735-2.346-.952-5.5.87-7.554a7.344 7.344 0 0 1 4.228-2.365v-3.7l.739.6 6.346 5.14.433.351-.433.351z" transform="translate(-1138.234 129.762) translate(-445.847)"/>
    </g>
</svg>
