<svg xmlns="http://www.w3.org/2000/svg" width="20" height="30" viewBox="0 0 20 30">
  <g id="그룹_1026" data-name="그룹 1026" transform="translate(-1811 -25)">
    <rect id="사각형_11" data-name="사각형 11" width="20" height="30" transform="translate(1811 25)" fill="#fff" opacity="0"/>
    <g id="그룹_1028" data-name="그룹 1028" transform="translate(978.278 -95.757)">
      <path id="패스_1212" data-name="패스 1212" d="M849.793,128.4a9.967,9.967,0,0,0-7.07-2.929h0a10,10,0,0,0,0,20h0a.725.725,0,1,0,0-1.451c-.809,0-1.6-.872-2.214-2.28A15.542,15.542,0,0,1,839.4,136.2h11.846q-.029.349-.084.684a8.517,8.517,0,0,1-.344,1.362.724.724,0,1,0,1.371.465,9.938,9.938,0,0,0,.4-1.595,9.993,9.993,0,0,0-2.793-8.713Zm1.445,6.345H847.5a17.061,17.061,0,0,0-1.238-6.121,8.579,8.579,0,0,0-.635-1.2,8.549,8.549,0,0,1,5.612,7.317Zm-8.516-7.823h0c.808,0,1.6.871,2.213,2.28a15.545,15.545,0,0,1,1.113,5.544H839.4a15.544,15.544,0,0,1,1.113-5.544C841.127,127.793,841.913,126.921,842.722,126.921Zm-6.046,2.5a8.551,8.551,0,0,1,3.141-2,8.62,8.62,0,0,0-.636,1.195,17.059,17.059,0,0,0-1.237,6.122h-3.739A8.522,8.522,0,0,1,836.677,129.425Zm2.505,12.892a8.621,8.621,0,0,0,.636,1.195,8.549,8.549,0,0,1-5.612-7.316h3.739A17.057,17.057,0,0,0,839.182,142.317Z" transform="translate(0)" fill="#fff"/>
      <path id="패스_1213" data-name="패스 1213" d="M871.029,162.809h0l0,0v0a6.7,6.7,0,0,0-3.426-1.892,3.563,3.563,0,0,0-3.256.848h0a3.563,3.563,0,0,0-.848,3.256,6.678,6.678,0,0,0,1.854,3.387c.012.014.025.028.038.041h0a6.7,6.7,0,0,0,3.429,1.893,3.325,3.325,0,0,0,4.1-4.1A6.7,6.7,0,0,0,871.029,162.809Zm.019,5.66a2.166,2.166,0,0,1-1.97.451,5.24,5.24,0,0,1-2.664-1.5h0c-.012-.012-.024-.024-.037-.034a5.22,5.22,0,0,1-1.458-2.629,2.517,2.517,0,0,1,.129-1.491.722.722,0,0,0,.211.523l1.328,1.328a.725.725,0,0,0,1.026-1.026l-1.328-1.328a.722.722,0,0,0-.618-.2,2.379,2.379,0,0,1,1.673-.225A5.241,5.241,0,0,1,870,163.832v0h0a5.235,5.235,0,0,1,1.5,2.664A2.164,2.164,0,0,1,871.048,168.468Z" transform="translate(-21.157 -24.378)" fill="#fff"/>
    </g>
  </g>
</svg>
