<svg xmlns="http://www.w3.org/2000/svg" width="20" height="30" viewBox="0 0 20 30">
    <g>
        <g>
            <path d="M849.793 128.4a9.967 9.967 0 0 0-7.07-2.929 10 10 0 0 0 0 20 .725.725 0 1 0 0-1.451c-.809 0-1.6-.872-2.214-2.28a15.542 15.542 0 0 1-1.109-5.54h11.846q-.029.349-.084.684a8.517 8.517 0 0 1-.344 1.362.724.724 0 1 0 1.371.465 9.938 9.938 0 0 0 .4-1.595 9.993 9.993 0 0 0-2.793-8.713zm1.445 6.345H847.5a17.061 17.061 0 0 0-1.238-6.121 8.579 8.579 0 0 0-.635-1.2 8.549 8.549 0 0 1 5.612 7.317zm-8.516-7.823c.808 0 1.6.871 2.213 2.28a15.545 15.545 0 0 1 1.113 5.544H839.4a15.544 15.544 0 0 1 1.113-5.544c.614-1.409 1.4-2.281 2.209-2.281zm-6.046 2.5a8.551 8.551 0 0 1 3.141-2 8.62 8.62 0 0 0-.636 1.195 17.059 17.059 0 0 0-1.237 6.122h-3.739a8.522 8.522 0 0 1 2.472-5.314zm2.505 12.892a8.621 8.621 0 0 0 .636 1.195 8.549 8.549 0 0 1-5.612-7.316h3.739a17.057 17.057 0 0 0 1.238 6.124z" transform="translate(-1811 -25) translate(978.278 -95.757) translate(0)"/>
            <path d="M871.029 162.809a6.7 6.7 0 0 0-3.426-1.892 3.563 3.563 0 0 0-3.256.848 3.563 3.563 0 0 0-.848 3.256 6.678 6.678 0 0 0 1.854 3.387l.038.041a6.7 6.7 0 0 0 3.429 1.893 3.325 3.325 0 0 0 4.1-4.1 6.7 6.7 0 0 0-1.891-3.433zm.019 5.66a2.166 2.166 0 0 1-1.97.451 5.24 5.24 0 0 1-2.664-1.5c-.012-.012-.024-.024-.037-.034a5.22 5.22 0 0 1-1.458-2.629 2.517 2.517 0 0 1 .129-1.491.722.722 0 0 0 .211.523l1.328 1.328a.725.725 0 0 0 1.026-1.026l-1.328-1.328a.722.722 0 0 0-.618-.2 2.379 2.379 0 0 1 1.673-.225 5.241 5.241 0 0 1 2.66 1.494 5.235 5.235 0 0 1 1.5 2.664 2.164 2.164 0 0 1-.452 1.972z" transform="translate(-1811 -25) translate(978.278 -95.757) translate(-21.157 -24.378)"/>
        </g>
    </g>
</svg>
