<svg xmlns="http://www.w3.org/2000/svg" width="204.368" height="32" viewBox="0 0 204.368 32">
  <g id="logo" transform="translate(-80 -24.5)">
    <text id="철도재산포털" transform="translate(140.368 50.5)" fill="#fff" font-size="24" font-family="MalgunGothic, Malgun Gothic"><tspan x="0" y="0">철도재산포털</tspan></text>
    <g id="logo_w" transform="translate(74.895 23.819)">
      <g id="그룹_1017" data-name="그룹 1017" transform="translate(5.105 1.681)">
        <g id="그룹_1015" data-name="그룹 1015" transform="translate(0 10.222)">
          <path id="패스_1141" data-name="패스 1141" d="M51.325,15.075c-.412,1.969-2.085,2.44-5.311,2.44H22.549L14.21,25.061l1.973-7.547H9.375L5.1,33.853h6.81l2.02-7.734,5.807,7.734h7.747L21.321,25.64l8.154-7.383,11.118,15.6H46.07c-.664-.988-8.679-11.916-9.779-13.568l9.23,0C52.169,20.287,51.86,15.9,51.325,15.075Z" transform="translate(-5.105 -15.075)" fill="#fff"/>
        </g>
        <g id="그룹_1016" data-name="그룹 1016" transform="translate(5.376)">
          <path id="패스_1142" data-name="패스 1142" d="M52.744,5.419A7.214,7.214,0,0,1,57.428,10.8c.411-1.673-.217-7.224-7.116-8.748a40.658,40.658,0,0,0-7.1-.371H14.521l-.753,2.878h32.6A17.894,17.894,0,0,1,52.744,5.419Z" transform="translate(-12.533 -1.681)" fill="#fff"/>
          <path id="패스_1143" data-name="패스 1143" d="M57.053,15.364c0-3.663-2.659-6.632-7.258-7.235-.75-.1-2.108-.142-2.892-.153H12.882l-.733,2.8H46.695a20.262,20.262,0,0,1,3.15.177c3.1.568,4.762,2.445,4.488,4.623-.368,2.93-2.984,5.091-9.121,5.012h-3.5L50,32.172h5.242L48.8,23.195C53.828,22.449,57.053,19.353,57.053,15.364Z" transform="translate(-12.149 -3.172)" fill="#72bf44"/>
        </g>
      </g>
    </g>
  </g>
</svg>
