<svg id="ico-dt-07" xmlns="http://www.w3.org/2000/svg" xmlns:xlink="http://www.w3.org/1999/xlink" width="50.219" height="45" viewBox="0 0 50.219 45">
  <defs>
    <clipPath id="clip-path">
      <rect id="사각형_587" data-name="사각형 587" width="50.219" height="45" fill="none" stroke="#1740c2" stroke-width="2"/>
    </clipPath>
  </defs>
  <g id="그룹_1020" data-name="그룹 1020" clip-path="url(#clip-path)">
    <path id="패스_913" data-name="패스 913" d="M48.47,38.02,28.446,3.19A3.955,3.955,0,0,0,25.062,1,3.954,3.954,0,0,0,21.68,3.19L1.656,38.02a3.992,3.992,0,0,0-.2,4.038A3.954,3.954,0,0,0,5.04,43.907H45.086a3.954,3.954,0,0,0,3.581-1.848A3.994,3.994,0,0,0,48.47,38.02Z" transform="translate(0.046 0.047)" fill="none" stroke="#1740c2" stroke-miterlimit="10" stroke-width="2"/>
    <rect id="사각형_586" data-name="사각형 586" width="6.279" height="6.279" rx="2" transform="translate(21.963 32.442)" fill="none" stroke="#1740c2" stroke-miterlimit="10" stroke-width="2"/>
    <path id="패스_914" data-name="패스 914" d="M25.173,28.744H23.08A1.047,1.047,0,0,1,22.034,27.7L20.987,13.5a1.535,1.535,0,0,1,1.57-1.5H25.7a1.535,1.535,0,0,1,1.57,1.5L26.22,27.7A1.047,1.047,0,0,1,25.173,28.744Z" transform="translate(0.976 0.558)" fill="none" stroke="#1740c2" stroke-miterlimit="10" stroke-width="2"/>
  </g>
</svg>
