<svg id="ico-dt-11" xmlns="http://www.w3.org/2000/svg" xmlns:xlink="http://www.w3.org/1999/xlink" width="44" height="44" viewBox="0 0 44 44">
  <defs>
    <clipPath id="clip-path">
      <rect id="사각형_590" data-name="사각형 590" width="44" height="44" fill="none" stroke="#1740c2" stroke-width="2"/>
    </clipPath>
  </defs>
  <g id="그룹_1027" data-name="그룹 1027" clip-path="url(#clip-path)">
    <circle id="타원_136" data-name="타원 136" cx="3.501" cy="3.501" r="3.501" transform="translate(7 23)" fill="none" stroke="#1740c2" stroke-miterlimit="10" stroke-width="2"/>
    <path id="패스_926" data-name="패스 926" d="M25,13.5A3.5,3.5,0,1,1,21.5,10,3.5,3.5,0,0,1,25,13.5Z" fill="none" stroke="#1740c2" stroke-miterlimit="10" stroke-width="2"/>
    <path id="패스_927" data-name="패스 927" d="M30.2,33.1a3.5,3.5,0,1,1-3.5-3.5A3.5,3.5,0,0,1,30.2,33.1Z" fill="none" stroke="#1740c2" stroke-miterlimit="10" stroke-width="2"/>
    <path id="패스_928" data-name="패스 928" d="M24,11.247A60.477,60.477,0,0,1,34,5.1" fill="none" stroke="#1740c2" stroke-miterlimit="10" stroke-width="2"/>
    <path id="패스_929" data-name="패스 929" d="M11.945,23.4A60.835,60.835,0,0,1,19,15.477" fill="none" stroke="#1740c2" stroke-miterlimit="10" stroke-width="2"/>
    <path id="패스_930" data-name="패스 930" d="M5.166,35a60.326,60.326,0,0,1,3.007-5.887" fill="none" stroke="#1740c2" stroke-miterlimit="10" stroke-width="2"/>
    <path id="패스_931" data-name="패스 931" d="M7.564,24.593A60.7,60.7,0,0,1,1,19.443" fill="none" stroke="#1740c2" stroke-miterlimit="10" stroke-width="2"/>
    <path id="패스_932" data-name="패스 932" d="M23.314,32.219a60.129,60.129,0,0,1-9.843-4.089" fill="none" stroke="#1740c2" stroke-miterlimit="10" stroke-width="2"/>
    <path id="패스_933" data-name="패스 933" d="M39,34.949a60.5,60.5,0,0,1-8.905-1.023" fill="none" stroke="#1740c2" stroke-miterlimit="10" stroke-width="2"/>
    <circle id="타원_137" data-name="타원 137" cx="21" cy="21" r="21" transform="translate(1 1)" fill="none" stroke="#1740c2" stroke-miterlimit="10" stroke-width="2"/>
    <path id="패스_934" data-name="패스 934" d="M21.052,10.034Q21,8.774,21,7.5A61.217,61.217,0,0,1,21.345,1" fill="none" stroke="#1740c2" stroke-miterlimit="10" stroke-width="2"/>
    <path id="패스_935" data-name="패스 935" d="M25.283,29.9A60.086,60.086,0,0,1,21.741,17" fill="none" stroke="#1740c2" stroke-miterlimit="10" stroke-width="2"/>
    <path id="패스_936" data-name="패스 936" d="M31.117,41.005q-1.539-2.31-2.868-4.765" fill="none" stroke="#1740c2" stroke-miterlimit="10" stroke-width="2"/>
  </g>
</svg>
