<svg xmlns="http://www.w3.org/2000/svg" xmlns:xlink="http://www.w3.org/1999/xlink" width="95" height="95" viewBox="0 0 95 95">
  <defs>
    <clipPath id="clip-path">
      <rect id="사각형_58" data-name="사각형 58" width="60" height="56.308" fill="none"/>
    </clipPath>
  </defs>
  <g id="img" transform="translate(-1150 -935)">
    <circle id="타원_8" data-name="타원 8" cx="47.5" cy="47.5" r="47.5" transform="translate(1150 935)" fill="#f2f2f2"/>
    <g id="icon" transform="translate(1168 955)">
      <g id="그룹_26" data-name="그룹 26" transform="translate(0 0)" clip-path="url(#clip-path)">
        <path id="패스_48" data-name="패스 48" d="M44.141,20.026c.721-1.55-1.2-4.6-4.081-4.08.759-2.119-1.839-4.493-4.08-4.081a3.969,3.969,0,0,0-6.919-2.6l-8.87,8.881-3.683-2.917-2.253,2.253c-2.572,2.572-2.786,5.685-1.995,8.821s.646,4.308-.1,5.049L10.072,33.44,22.44,45.808l1.439-1.439c2.878-2.878,5.6-.157,9.914-4.474l12.95-12.95c2.338-2.339.636-6.289-2.6-6.919" transform="translate(-0.112 -0.089)" fill="#fff"/>
        <path id="패스_49" data-name="패스 49" d="M25.886,7.87c-1.461-1.46-4.529-.758-6.982,1.694s-3.035,5.4-1.575,6.864c.9.9,2.527,1.153,4.444.191L26.09,12.3c.962-1.917.694-3.528-.2-4.426" transform="translate(-0.184 -0.079)" fill="#a3d4ff"/>
        <path id="패스_50" data-name="패스 50" d="M26.09,12.3c.962-1.917.694-3.528-.2-4.426-1.46-1.461-4.528-.759-6.981,1.694s-3.036,5.4-1.576,6.864c.9.9,2.527,1.153,4.444.191" transform="translate(-0.184 -0.079)" fill="none" stroke="#2a5082" stroke-linecap="round" stroke-miterlimit="10" stroke-width="2"/>
        <path id="패스_51" data-name="패스 51" d="M10.072,33.523l2.091-2.091c.743-.743.889-1.913.1-5.049s-.577-6.249,1.995-8.821l2.253-2.253" transform="translate(-0.112 -0.17)" fill="none" stroke="#2a5082" stroke-linecap="round" stroke-miterlimit="10" stroke-width="2"/>
        <rect id="사각형_56" data-name="사각형 56" width="9.157" height="24.279" transform="translate(1.398 37.741) rotate(-45)" fill="#a3d4ff"/>
        <rect id="사각형_57" data-name="사각형 57" width="9.157" height="24.279" transform="translate(1.398 37.741) rotate(-45)" fill="none" stroke="#2a5082" stroke-linecap="round" stroke-miterlimit="10" stroke-width="2"/>
        <line id="선_45" data-name="선 45" x1="1.052" y2="1.052" transform="translate(34.815 11.777)" fill="none" stroke="#2a5082" stroke-linecap="round" stroke-miterlimit="10" stroke-width="2"/>
        <line id="선_46" data-name="선 46" x1="1.052" y2="1.052" transform="translate(38.896 15.857)" fill="none" stroke="#2a5082" stroke-linecap="round" stroke-miterlimit="10" stroke-width="2"/>
        <line id="선_47" data-name="선 47" x1="1.052" y2="1.052" transform="translate(42.976 19.938)" fill="none" stroke="#2a5082" stroke-linecap="round" stroke-miterlimit="10" stroke-width="2"/>
        <path id="패스_52" data-name="패스 52" d="M54.776,30.106c-1.331-1.331-3.125-.742-5.236-.034-2.086.7-2.655.13-3.417-.632l-.666-.666L38.136,36.1l.666.666c.761.761,1.331,1.331.632,3.417-.708,2.111-1.3,3.905.034,5.236l4.66,4.66L59.435,34.766Z" transform="translate(-0.424 -0.32)" fill="#a3d4ff"/>
        <path id="패스_53" data-name="패스 53" d="M45.458,28.775l.666.666c.761.761,1.331,1.331,3.417.632,2.111-.708,3.905-1.3,5.236.034l4.66,4.66L44.127,50.074l-4.66-4.66c-1.331-1.331-.742-3.125-.034-5.236.7-2.086.13-2.655-.632-3.417l-.666-.666" transform="translate(-0.424 -0.32)" fill="none" stroke="#2a5082" stroke-linecap="round" stroke-linejoin="round" stroke-width="2"/>
        <path id="패스_54" data-name="패스 54" d="M18.383,20.046,29.153,9.263a3.969,3.969,0,0,1,6.919,2.6c2.24-.413,4.84,1.961,4.08,4.08,2.878-.518,4.8,2.532,4.081,4.081,3.238.63,4.94,4.58,2.6,6.919L33.886,39.9c-4.316,4.316-7.037,1.6-9.914,4.475l-1.439,1.439" transform="translate(-0.205 -0.089)" fill="none" stroke="#2a5082" stroke-linecap="round" stroke-miterlimit="10" stroke-width="2"/>
        <line id="선_48" data-name="선 48" y1="7.987" x2="7.987" transform="translate(39.043 37.107)" fill="none" stroke="#2a5082" stroke-linecap="round" stroke-miterlimit="10" stroke-width="2"/>
        <line id="선_49" data-name="선 49" y1="3.994" x2="3.993" transform="translate(50.358 29.785)" fill="none" stroke="#2a5082" stroke-linecap="round" stroke-miterlimit="10" stroke-width="2"/>
        <line id="선_50" data-name="선 50" x2="1.57" y2="1.5" transform="translate(7.422 37.392)" fill="none" stroke="#2a5082" stroke-linecap="round" stroke-miterlimit="10" stroke-width="2"/>
        <line id="선_51" data-name="선 51" x2="1.978" y2="1.978" transform="translate(47.066 5.644)" fill="none" stroke="#bcc0c4" stroke-miterlimit="10" stroke-width="2"/>
        <line id="선_52" data-name="선 52" x2="1.978" y2="1.978" transform="translate(42.121 0.699)" fill="none" stroke="#bcc0c4" stroke-miterlimit="10" stroke-width="2"/>
        <line id="선_53" data-name="선 53" x1="1.978" y2="1.978" transform="translate(42.121 5.644)" fill="none" stroke="#bcc0c4" stroke-miterlimit="10" stroke-width="2"/>
        <line id="선_54" data-name="선 54" x1="1.978" y2="1.978" transform="translate(47.066 0.699)" fill="none" stroke="#bcc0c4" stroke-miterlimit="10" stroke-width="2"/>
        <line id="선_55" data-name="선 55" y2="5.933" transform="translate(52.999 11.577)" fill="none" stroke="#bcc0c4" stroke-miterlimit="10" stroke-width="2"/>
        <line id="선_56" data-name="선 56" x1="5.933" transform="translate(50.032 14.543)" fill="none" stroke="#bcc0c4" stroke-miterlimit="10" stroke-width="2"/>
        <line id="선_57" data-name="선 57" y2="5.933" transform="translate(33.222 48.165)" fill="none" stroke="#bcc0c4" stroke-miterlimit="10" stroke-width="2"/>
        <line id="선_58" data-name="선 58" x1="5.933" transform="translate(30.255 51.132)" fill="none" stroke="#bcc0c4" stroke-miterlimit="10" stroke-width="2"/>
      </g>
    </g>
  </g>
</svg>
