<svg xmlns="http://www.w3.org/2000/svg" xmlns:xlink="http://www.w3.org/1999/xlink" width="95" height="95" viewBox="0 0 95 95">
  <defs>
    <clipPath id="clip-path">
      <rect id="사각형_65" data-name="사각형 65" width="57.601" height="60" fill="none"/>
    </clipPath>
  </defs>
  <g id="img" transform="translate(-1150 -935)">
    <circle id="타원_8" data-name="타원 8" cx="47.5" cy="47.5" r="47.5" transform="translate(1150 935)" fill="#f2f2f2"/>
    <g id="그룹_43" data-name="그룹 43" transform="translate(1169 951)">
      <g id="그룹_42" data-name="그룹 42" transform="translate(0 0.001)" clip-path="url(#clip-path)">
        <path id="패스_80" data-name="패스 80" d="M16.448,24.239c.616-1.027,3.81-6.076,4.515-7,.244-.321.293-.521.108-.749s-.6-.237-1.063-.1a5.982,5.982,0,0,1-3.114-.367c-2.393-.691-5.844-1.671-7.233.853-.135.244-.042.305.225.6.728.807,3.8,5.739,4.421,6.767Z" transform="translate(0.262 0.415)" fill="#fff"/>
        <path id="패스_81" data-name="패스 81" d="M16.448,24.239c.616-1.027,3.81-6.076,4.515-7,.244-.321.293-.521.108-.749s-.6-.237-1.063-.1a5.982,5.982,0,0,1-3.114-.367c-2.393-.691-5.844-1.671-7.233.853-.135.244-.042.305.225.6.728.807,3.8,5.739,4.421,6.767Z" transform="translate(0.262 0.415)" fill="none" stroke="#2a5082" stroke-miterlimit="10" stroke-width="2"/>
        <path id="패스_82" data-name="패스 82" d="M30.045,43.384A22.333,22.333,0,0,1,28.8,37.157a31.187,31.187,0,0,0-.461-3.729c-.742-3.1-2.416-6.495-9.486-10.561a6.406,6.406,0,0,0-6.561,0C5.089,26.635,3.551,30.33,2.809,33.428a30.992,30.992,0,0,0-.46,3.728,22.378,22.378,0,0,1-1.242,6.228,1.587,1.587,0,0,0,0,1.136,1.4,1.4,0,0,0,.743.8,36.5,36.5,0,0,0,14.163,2.727,30.374,30.374,0,0,0,13.363-2.76,1.521,1.521,0,0,0,.671-1.9" transform="translate(0.027 0.599)" fill="#fff"/>
        <path id="패스_83" data-name="패스 83" d="M30.045,43.384A22.333,22.333,0,0,1,28.8,37.157a31.187,31.187,0,0,0-.461-3.729c-.742-3.1-2.416-6.495-9.486-10.561a6.406,6.406,0,0,0-6.561,0C5.089,26.635,3.551,30.33,2.809,33.428a30.992,30.992,0,0,0-.46,3.728,22.378,22.378,0,0,1-1.242,6.228,1.587,1.587,0,0,0,0,1.136,1.4,1.4,0,0,0,.743.8,36.5,36.5,0,0,0,14.163,2.727,30.374,30.374,0,0,0,13.363-2.76A1.521,1.521,0,0,0,30.045,43.384Z" transform="translate(0.027 0.599)" fill="none" stroke="#2a5082" stroke-miterlimit="10" stroke-width="2"/>
        <line id="선_94" data-name="선 94" y2="6.164" transform="translate(15.483 5.136)" fill="none" stroke="#bcc0c4" stroke-miterlimit="10" stroke-width="2"/>
        <line id="선_95" data-name="선 95" x2="6.164" transform="translate(12.401 8.218)" fill="none" stroke="#bcc0c4" stroke-miterlimit="10" stroke-width="2"/>
        <line id="선_96" data-name="선 96" y2="6.164" transform="translate(28.838 -0.001)" fill="none" stroke="#bcc0c4" stroke-miterlimit="10" stroke-width="2"/>
        <line id="선_97" data-name="선 97" x2="6.164" transform="translate(25.756 3.081)" fill="none" stroke="#bcc0c4" stroke-miterlimit="10" stroke-width="2"/>
        <path id="패스_84" data-name="패스 84" d="M36.636,24.338c.878-1.027,5.434-8.61,6.439-9.929.348-.457.417-.714.154-1.041s-.862-.324-1.517-.134c-1.225.357-2.735-.024-4.439-.516-3.413-.985-8.335-2.38-10.316,1.219-.192.349-.06.382.322.8,1.039,1.152,5.412,8.569,6.3,9.6Z" transform="translate(0.733 0.316)" fill="#a3d4ff"/>
        <path id="패스_85" data-name="패스 85" d="M36.636,24.338c.878-1.027,5.434-8.61,6.439-9.929.348-.457.417-.714.154-1.041s-.862-.324-1.517-.134c-1.225.357-2.735-.024-4.439-.516-3.413-.985-8.335-2.38-10.316,1.219-.192.349-.06.382.322.8,1.039,1.152,5.412,8.569,6.3,9.6Z" transform="translate(0.733 0.316)" fill="none" stroke="#2a5082" stroke-miterlimit="10" stroke-width="2"/>
        <path id="패스_86" data-name="패스 86" d="M56.024,51.752a31.863,31.863,0,0,1-1.771-8.88,44.575,44.575,0,0,0-.657-5.318c-1.057-4.417-3.446-9.261-13.526-15.06a9.136,9.136,0,0,0-9.358,0c-10.275,5.374-12.469,10.643-13.526,15.06a44.384,44.384,0,0,0-.656,5.316,31.877,31.877,0,0,1-1.772,8.882,2.264,2.264,0,0,0,0,1.62,2,2,0,0,0,1.059,1.134,52.051,52.051,0,0,0,20.2,3.889c7.04,0,13.87-1.313,19.057-3.936a2.17,2.17,0,0,0,.956-2.708" transform="translate(0.399 0.578)" fill="#a3d4ff"/>
        <path id="패스_87" data-name="패스 87" d="M56.024,51.752a31.863,31.863,0,0,1-1.771-8.88,44.575,44.575,0,0,0-.657-5.318c-1.057-4.417-3.446-9.261-13.526-15.06a9.136,9.136,0,0,0-9.358,0c-10.275,5.374-12.469,10.643-13.526,15.06a44.384,44.384,0,0,0-.656,5.316,31.877,31.877,0,0,1-1.772,8.882,2.264,2.264,0,0,0,0,1.62,2,2,0,0,0,1.059,1.134,52.051,52.051,0,0,0,20.2,3.889c7.04,0,13.87-1.313,19.057-3.936A2.17,2.17,0,0,0,56.024,51.752Z" transform="translate(0.399 0.578)" fill="none" stroke="#2a5082" stroke-miterlimit="10" stroke-width="2"/>
        <path id="패스_88" data-name="패스 88" d="M33.578,25.472c-8.871,4.639-10.765,9.188-11.678,13" transform="translate(0.598 0.695)" fill="none" stroke="#2a5082" stroke-miterlimit="10" stroke-width="2"/>
        <path id="패스_89" data-name="패스 89" d="M14.128,26.775c-5.393,2.821-6.545,5.586-7.1,7.905" transform="translate(0.192 0.73)" fill="none" stroke="#2a5082" stroke-miterlimit="10" stroke-width="2"/>
        <line id="선_98" data-name="선 98" y2="6.164" transform="translate(53.493 19.518)" fill="none" stroke="#bcc0c4" stroke-miterlimit="10" stroke-width="2"/>
        <line id="선_99" data-name="선 99" x2="6.164" transform="translate(50.411 22.6)" fill="none" stroke="#bcc0c4" stroke-miterlimit="10" stroke-width="2"/>
        <line id="선_100" data-name="선 100" x1="0.719" y2="5.733" transform="translate(37.291 12.81)" fill="none" stroke="#2a5082" stroke-miterlimit="10" stroke-width="2"/>
        <path id="won" d="M4.3,8.931l.678-2.5H3.65L4.277,8.94a.034.034,0,0,1,.008.025.034.034,0,0,0,.008.025.176.176,0,0,1,0-.029.176.176,0,0,0,0-.029Zm.971-3.574.293-1.071H3.122L3.39,5.357Zm1.607,0H8.044L7.751,4.286H7.165ZM10.639,8.94l.653-2.511H9.936l.678,2.5a.176.176,0,0,0,0,.029.057.057,0,0,0,.013.029.114.114,0,0,1,0-.025.114.114,0,0,0,0-.025Zm.929-3.582.276-1.071H9.358l.285,1.071ZM15,5.625v.536a.258.258,0,0,1-.268.268H12.949l-1.373,5.156a.25.25,0,0,1-.26.2H9.986a.25.25,0,0,1-.26-.2L8.337,6.429H6.588l-1.4,5.156a.25.25,0,0,1-.26.2H3.6a.249.249,0,0,1-.163-.059.243.243,0,0,1-.088-.142L2.009,6.429H.268A.258.258,0,0,1,0,6.161V5.625a.258.258,0,0,1,.268-.268H1.733L1.457,4.286H.268A.258.258,0,0,1,0,4.018V3.482a.258.258,0,0,1,.268-.268H1.18L.435.335A.241.241,0,0,1,.477.1.27.27,0,0,1,.695,0H1.841A.236.236,0,0,1,2.1.2l.753,3.013h3L6.671.2a.25.25,0,0,1,.26-.2H7.985a.25.25,0,0,1,.26.2l.82,3.013h3.055L12.9.2a.235.235,0,0,1,.26-.2h1.147a.27.27,0,0,1,.218.1.24.24,0,0,1,.042.235L13.8,3.215h.929A.258.258,0,0,1,15,3.482v.536a.258.258,0,0,1-.268.268H13.518l-.285,1.071h1.5A.258.258,0,0,1,15,5.625Z" transform="translate(29.29 36.856)" fill="#2a5082"/>
      </g>
    </g>
  </g>
</svg>
