<svg xmlns="http://www.w3.org/2000/svg" xmlns:xlink="http://www.w3.org/1999/xlink" width="95" height="95" viewBox="0 0 95 95">
  <defs>
    <clipPath id="clip-path">
      <rect id="사각형_135" data-name="사각형 135" width="58" height="56.162" transform="translate(0 0)" fill="none"/>
    </clipPath>
  </defs>
  <g id="그룹_312" data-name="그룹 312" transform="translate(-1150 -935)">
    <circle id="타원_8" data-name="타원 8" cx="47.5" cy="47.5" r="47.5" transform="translate(1150 935)" fill="#f2f2f2"/>
    <g id="그룹_153" data-name="그룹 153" transform="translate(1169 955)">
      <g id="그룹_152" data-name="그룹 152" clip-path="url(#clip-path)">
        <path id="패스_337" data-name="패스 337" d="M7,44,4,53,1,44V8A2,2,0,0,1,3,6H5A2,2,0,0,1,7,8Z" fill="#a3d4ff"/>
        <path id="패스_338" data-name="패스 338" d="M7,44,4,53,1,44V8A2,2,0,0,1,3,6H5A2,2,0,0,1,7,8Z" fill="none" stroke="#2a5082" stroke-miterlimit="10" stroke-width="2"/>
        <path id="패스_339" data-name="패스 339" d="M6,6H2V3A2,2,0,0,1,6,3Z" fill="#fff"/>
        <path id="패스_340" data-name="패스 340" d="M6,6H2V3A2,2,0,0,1,6,3Z" fill="none" stroke="#2a5082" stroke-linejoin="round" stroke-width="2"/>
        <line id="선_282" data-name="선 282" x2="6" transform="translate(1 43)" fill="#fff"/>
        <line id="선_283" data-name="선 283" x2="6" transform="translate(1 43)" fill="none" stroke="#2a5082" stroke-linejoin="round" stroke-width="2"/>
        <line id="선_284" data-name="선 284" x2="10" transform="translate(1 11)" fill="none" stroke="#2a5082" stroke-linejoin="round" stroke-width="2"/>
        <line id="선_285" data-name="선 285" y2="15" transform="translate(11 7)" fill="none" stroke="#2a5082" stroke-linejoin="round" stroke-width="2"/>
        <line id="선_286" data-name="선 286" y2="2" transform="translate(4 52)" fill="none" stroke="#2a5082" stroke-linecap="round" stroke-linejoin="round" stroke-width="2"/>
        <path id="패스_341" data-name="패스 341" d="M52,9H47v6H57V14a5,5,0,0,0-5-5" fill="#e9eaeb"/>
        <path id="패스_342" data-name="패스 342" d="M50,15h7V14a5,5,0,0,0-5-5H47" fill="none" stroke="#2a5082" stroke-miterlimit="10" stroke-width="2"/>
        <path id="패스_343" data-name="패스 343" d="M16,14a5,5,0,0,1,5-5H52a5,5,0,0,0-5,5V50a5,5,0,0,1-5,5H16Z" fill="#fff"/>
        <path id="패스_344" data-name="패스 344" d="M16,14a5,5,0,0,1,5-5H52a5,5,0,0,0-5,5V50a5,5,0,0,1-5,5H16Z" fill="none" stroke="#2a5082" stroke-miterlimit="10" stroke-width="2"/>
        <line id="선_287" data-name="선 287" x2="18" transform="translate(22 19)" fill="none" stroke="#2a5082" stroke-miterlimit="10" stroke-width="2"/>
        <line id="선_288" data-name="선 288" x2="18" transform="translate(22 23)" fill="none" stroke="#2a5082" stroke-miterlimit="10" stroke-width="2"/>
        <line id="선_289" data-name="선 289" x2="18" transform="translate(22 27)" fill="none" stroke="#2a5082" stroke-miterlimit="10" stroke-width="2"/>
        <line id="선_290" data-name="선 290" x2="11" transform="translate(22 31)" fill="none" stroke="#2a5082" stroke-miterlimit="10" stroke-width="2"/>
        <path id="패스_345" data-name="패스 345" d="M10,50a5,5,0,0,0,5,5H42a5,5,0,0,1-5-5Z" fill="#a3d4ff"/>
        <path id="패스_346" data-name="패스 346" d="M10,50a5,5,0,0,0,5,5H42a5,5,0,0,1-5-5Z" fill="none" stroke="#2a5082" stroke-miterlimit="10" stroke-width="2"/>
      </g>
    </g>
  </g>
</svg>
