<svg xmlns="http://www.w3.org/2000/svg" xmlns:xlink="http://www.w3.org/1999/xlink" width="95" height="95" viewBox="0 0 95 95">
  <defs>
    <clipPath id="clip-path">
      <rect id="사각형_139" data-name="사각형 139" width="61.88" height="54.194" transform="translate(0 0)" fill="none"/>
    </clipPath>
    <clipPath id="clip-path-2">
      <rect id="사각형_166" data-name="사각형 166" width="12" height="9.43" fill="none" stroke="#2a5082" stroke-width="0.25"/>
    </clipPath>
  </defs>
  <g id="그룹_310" data-name="그룹 310" transform="translate(-1150 -935)">
    <circle id="타원_8" data-name="타원 8" cx="47.5" cy="47.5" r="47.5" transform="translate(1150 935)" fill="#f2f2f2"/>
    <g id="그룹_157" data-name="그룹 157" transform="translate(1167 955)">
      <g id="그룹_156" data-name="그룹 156" clip-path="url(#clip-path)">
        <path id="패스_353" data-name="패스 353" d="M38.4,14.508,36.6,10.15l-1.24-.566-2.139.712-1.1-.346a15.659,15.659,0,0,0-2.664-2.659c-.127-.408-.218-.7-.346-1.105l.713-2.142-.566-1.239L24.9,1l-1.277.476L22.61,3.494l-1.026.537a15.693,15.693,0,0,0-3.764,0l-1.026-.536L15.785,1.476,14.508,1,10.15,2.805,9.584,4.044,10.3,6.183c-.127.407-.218.7-.346,1.1A15.7,15.7,0,0,0,7.29,9.951l-1.1.346L4.044,9.584,2.8,10.15,1,14.508c.183.492.292.785.476,1.277L3.494,16.8l.537,1.026a15.59,15.59,0,0,0,0,3.764c-.2.378-.339.648-.535,1.026L1.476,23.62c-.184.491-.293.785-.476,1.277l1.8,4.357,1.24.566,2.139-.712,1.1.347a15.732,15.732,0,0,0,2.664,2.659l.346,1.105L9.584,35.36l.566,1.24L14.508,38.4l1.277-.476L16.8,35.91l1.026-.536a15.693,15.693,0,0,0,3.764,0l1.026.536,1.008,2.016L24.9,38.4,29.254,36.6l.566-1.24-.712-2.139.347-1.1a15.659,15.659,0,0,0,2.659-2.664l1.105-.346,2.141.713,1.24-.566L38.4,24.9c-.183-.492-.293-.786-.476-1.277L35.91,22.61c-.2-.379-.338-.648-.536-1.026a15.693,15.693,0,0,0,0-3.764c.2-.378.338-.648.536-1.026l2.016-1.009c.183-.492.293-.785.476-1.277" fill="#a3d4ff"/>
        <path id="패스_354" data-name="패스 354" d="M38.4,14.508,36.6,10.15l-1.24-.566-2.139.712-1.1-.346a15.659,15.659,0,0,0-2.664-2.659c-.127-.408-.218-.7-.346-1.105l.713-2.142-.566-1.239L24.9,1l-1.277.476L22.61,3.494l-1.026.537a15.693,15.693,0,0,0-3.764,0l-1.026-.536L15.785,1.476,14.508,1,10.15,2.805,9.584,4.044,10.3,6.183c-.127.407-.218.7-.346,1.1A15.7,15.7,0,0,0,7.29,9.951l-1.1.346L4.044,9.584,2.8,10.15,1,14.508c.183.492.292.785.476,1.277L3.494,16.8l.537,1.026a15.59,15.59,0,0,0,0,3.764c-.2.378-.339.648-.535,1.026L1.476,23.62c-.184.491-.293.785-.476,1.277l1.8,4.357,1.24.566,2.139-.712,1.1.347a15.732,15.732,0,0,0,2.664,2.659l.346,1.105L9.584,35.36l.566,1.24L14.508,38.4l1.277-.476L16.8,35.91l1.026-.536a15.693,15.693,0,0,0,3.764,0l1.026.536,1.008,2.016L24.9,38.4,29.254,36.6l.566-1.24-.712-2.139.347-1.1a15.659,15.659,0,0,0,2.659-2.664l1.105-.346,2.141.713,1.24-.566L38.4,24.9c-.183-.492-.293-.786-.476-1.277L35.91,22.61c-.2-.379-.338-.648-.536-1.026a15.693,15.693,0,0,0,0-3.764c.2-.378.338-.648.536-1.026l2.016-1.009C38.112,15.293,38.222,15,38.4,14.508Z" fill="none" stroke="#2a5082" stroke-linejoin="round" stroke-width="2"/>
        <path id="패스_355" data-name="패스 355" d="M44.085,18.282a4.386,4.386,0,1,1,6.246,5.475" fill="none" stroke="#bcc0c4" stroke-linejoin="round" stroke-width="2"/>
        <path id="패스_356" data-name="패스 356" d="M60.074,36.525,59.1,34.182,57.8,33.641l-1.613.668L55.015,34a9.966,9.966,0,0,0-1.259-1.257l-.312-1.17.668-1.614-.541-1.306-2.343-.971-1.306.541-.669,1.613-1.048.608a9.971,9.971,0,0,0-1.779,0c-.39-.225-.658-.381-1.047-.607l-.668-1.612L43.4,27.679l-2.343.97c-.211.51-.329.8-.541,1.307l.668,1.612c-.116.435-.195.735-.311,1.169A9.974,9.974,0,0,0,39.62,34l-1.171.311-1.613-.668-1.307.541-.97,2.343c.211.51.329.8.541,1.307l1.613.668.608,1.049a9.878,9.878,0,0,0,0,1.779l-.607,1.047-1.612.668c-.212.51-.33.8-.541,1.306l.97,2.343,1.307.541,1.612-.668,1.169.312a10.04,10.04,0,0,0,1.26,1.257c.116.435.2.735.311,1.171l-.668,1.613c.212.51.33.8.541,1.307l2.343.97,1.307-.541.668-1.613,1.049-.608a9.971,9.971,0,0,0,1.779,0l1.047.607.668,1.612,1.306.541,2.343-.97.541-1.306-.668-1.613.312-1.169a10.1,10.1,0,0,0,1.257-1.259l1.171-.312,1.613.668,1.307-.541.97-2.343c-.211-.51-.33-.8-.541-1.307l-1.614-.668c-.226-.39-.381-.659-.607-1.048a9.89,9.89,0,0,0,0-1.78c.226-.389.382-.657.607-1.047l1.613-.667c.211-.511.33-.8.541-1.307" fill="#e9eaeb"/>
        <path id="패스_357" data-name="패스 357" d="M60.074,36.525,59.1,34.182,57.8,33.641l-1.613.668L55.015,34a9.966,9.966,0,0,0-1.259-1.257l-.312-1.17.668-1.614-.541-1.306-2.343-.971-1.306.541-.669,1.613-1.048.608a9.971,9.971,0,0,0-1.779,0c-.39-.225-.658-.381-1.047-.607l-.668-1.612L43.4,27.679l-2.343.97c-.211.51-.329.8-.541,1.307l.668,1.612c-.116.435-.195.735-.311,1.169A9.974,9.974,0,0,0,39.62,34l-1.171.311-1.613-.668-1.307.541-.97,2.343c.211.51.329.8.541,1.307l1.613.668.608,1.049a9.878,9.878,0,0,0,0,1.779l-.607,1.047-1.612.668c-.212.51-.33.8-.541,1.306l.97,2.343,1.307.541,1.612-.668,1.169.312a10.04,10.04,0,0,0,1.26,1.257c.116.435.2.735.311,1.171l-.668,1.613c.212.51.33.8.541,1.307l2.343.97,1.307-.541.668-1.613,1.049-.608a9.971,9.971,0,0,0,1.779,0l1.047.607.668,1.612,1.306.541,2.343-.97.541-1.306-.668-1.613.312-1.169a10.1,10.1,0,0,0,1.257-1.259l1.171-.312,1.613.668,1.307-.541.97-2.343c-.211-.51-.33-.8-.541-1.307l-1.614-.668c-.226-.39-.381-.659-.607-1.048a9.89,9.89,0,0,0,0-1.78c.226-.389.382-.657.607-1.047l1.613-.667C59.744,37.321,59.863,37.035,60.074,36.525Z" fill="none" stroke="#2a5082" stroke-linejoin="round" stroke-width="2"/>
        <path id="패스_358" data-name="패스 358" d="M55.8,26.068l2.2,1.072,1.336-.463,1.076-2.212c-.18-.522-.282-.814-.462-1.336l-1.518-.738c-.2-.4-.341-.681-.544-1.083a9.772,9.772,0,0,0,.1-1.722c.249-.374.42-.633.669-1.008l1.594-.551.618-1.272-.8-2.325-1.272-.619-1.594.551-1.149-.38a9.783,9.783,0,0,0-1.145-1.289c-.09-.442-.151-.746-.241-1.188l.738-1.518c-.18-.522-.282-.814-.462-1.336L52.74,7.575,51.4,8.037l-.738,1.517-1.083.545a9.76,9.76,0,0,0-1.721-.1l-1.008-.669L46.3,7.731,45.03,7.112l-2.325.8-.619,1.272.8,2.314" fill="none" stroke="#bcc0c4" stroke-linejoin="round" stroke-width="2"/>
        <path id="패스_359" data-name="패스 359" d="M51.387,38.75a4.406,4.406,0,1,1-5.757-2.385,4.407,4.407,0,0,1,5.757,2.385" fill="#fff"/>
        <path id="패스_360" data-name="패스 360" d="M51.387,38.75a4.406,4.406,0,1,1-5.757-2.385A4.407,4.407,0,0,1,51.387,38.75Z" fill="none" stroke="#2a5082" stroke-miterlimit="10" stroke-width="2"/>
        <path id="패스_361" data-name="패스 361" d="M30.692,19.594a11,11,0,1,1-11-10.982,10.991,10.991,0,0,1,11,10.982" fill="#fff"/>
        <ellipse id="타원_16" data-name="타원 16" cx="11.001" cy="10.982" rx="11.001" ry="10.982" transform="translate(8.69 8.612)" fill="none" stroke="#2a5082" stroke-miterlimit="10" stroke-width="2"/>
        <g id="그룹_194" data-name="그룹 194" transform="translate(13.702 15.577)" clip-path="url(#clip-path-2)">
          <path id="패스_427" data-name="패스 427" d="M3.44,7.146l.542-2H2.921l.5,2.008a.04.04,0,0,1,.006.02.022.022,0,0,0,.006.019V7.17a.073.073,0,0,0,0-.023Zm.776-2.86.235-.857H2.5l.214.857Zm1.285,0h.934L6.2,3.43H5.732Zm3.01,2.867.522-2.009H7.949l.542,2v.023A.041.041,0,0,0,8.5,7.19a.052.052,0,0,1,0-.019v-.02Zm.743-2.866.221-.857H7.487l.228.857ZM12,4.5V4.93a.207.207,0,0,1-.2.215H10.36L9.26,9.269a.2.2,0,0,1-.208.161H7.988a.2.2,0,0,1-.208-.161L6.67,5.144H5.27L4.151,9.269a.2.2,0,0,1-.208.161H2.88a.2.2,0,0,1-.13-.048.189.189,0,0,1-.071-.113L1.608,5.144H.215A.207.207,0,0,1,0,4.946V4.5a.207.207,0,0,1,.2-.215H1.387L1.166,3.43H.215A.207.207,0,0,1,0,3.232V2.786a.206.206,0,0,1,.2-.214H.944l-.6-2.3A.192.192,0,0,1,.382.082.216.216,0,0,1,.557,0h.917a.188.188,0,0,1,.206.16l.6,2.411h2.4L5.336.161A.2.2,0,0,1,5.545,0h.842A.2.2,0,0,1,6.6.161l.655,2.411H9.7L10.32.161A.188.188,0,0,1,10.528,0h.918a.213.213,0,0,1,.174.08.189.189,0,0,1,.034.187l-.613,2.3h.743a.208.208,0,0,1,.217.2v.448a.2.2,0,0,1-.2.214.04.04,0,0,1-.017,0h-.971l-.228.857h1.2a.207.207,0,0,1,.214.2V4.5" transform="translate(0 0)" fill="#2a5082" stroke="#2a5082" stroke-width="0.25"/>
        </g>
      </g>
    </g>
  </g>
</svg>
