<svg xmlns="http://www.w3.org/2000/svg" xmlns:xlink="http://www.w3.org/1999/xlink" width="95" height="95" viewBox="0 0 95 95">
  <defs>
    <clipPath id="clip-path">
      <rect id="사각형_129" data-name="사각형 129" width="60" height="48" fill="none"/>
    </clipPath>
  </defs>
  <g id="그룹_306" data-name="그룹 306" transform="translate(-1150 -935)">
    <circle id="타원_8" data-name="타원 8" cx="47.5" cy="47.5" r="47.5" transform="translate(1150 935)" fill="#f2f2f2"/>
    <g id="그룹_149" data-name="그룹 149" transform="translate(1168 959)">
      <g id="그룹_148" data-name="그룹 148" clip-path="url(#clip-path)">
        <path id="패스_323" data-name="패스 323" d="M54,1H49V7H59V6a5,5,0,0,0-5-5" fill="#e9eaeb"/>
        <path id="패스_324" data-name="패스 324" d="M52,7h7V6a5,5,0,0,0-5-5H49" fill="none" stroke="#2a5082" stroke-miterlimit="10" stroke-width="2"/>
        <path id="패스_325" data-name="패스 325" d="M18,6a5,5,0,0,1,5-5H54a5,5,0,0,0-5,5V42a5,5,0,0,1-5,5H18Z" fill="#fff"/>
        <path id="패스_326" data-name="패스 326" d="M18,9V6a5,5,0,0,1,5-5H54a5,5,0,0,0-5,5V42a5,5,0,0,1-5,5H18V36" fill="none" stroke="#2a5082" stroke-miterlimit="10" stroke-width="2"/>
        <path id="패스_327" data-name="패스 327" d="M12,42a5,5,0,0,0,5,5H44a5,5,0,0,1-5-5Z" fill="#a3d4ff"/>
        <path id="패스_328" data-name="패스 328" d="M12,42a5,5,0,0,0,5,5H44a5,5,0,0,1-5-5Z" fill="none" stroke="#2a5082" stroke-miterlimit="10" stroke-width="2"/>
        <line id="선_260" data-name="선 260" y2="6" transform="translate(38 15)" fill="none" stroke="#bcc0c4" stroke-miterlimit="10" stroke-width="2"/>
        <line id="선_261" data-name="선 261" x2="6" transform="translate(35 18)" fill="none" stroke="#bcc0c4" stroke-miterlimit="10" stroke-width="2"/>
        <line id="선_262" data-name="선 262" y2="6" transform="translate(38 15)" fill="none" stroke="#bcc0c4" stroke-miterlimit="10" stroke-width="2"/>
        <line id="선_263" data-name="선 263" x2="6" transform="translate(35 18)" fill="none" stroke="#bcc0c4" stroke-miterlimit="10" stroke-width="2"/>
        <line id="선_264" data-name="선 264" y2="6" transform="translate(55 21)" fill="none" stroke="#bcc0c4" stroke-miterlimit="10" stroke-width="2"/>
        <line id="선_265" data-name="선 265" x2="6" transform="translate(52 24)" fill="none" stroke="#bcc0c4" stroke-miterlimit="10" stroke-width="2"/>
        <line id="선_266" data-name="선 266" y2="6" transform="translate(55 21)" fill="none" stroke="#bcc0c4" stroke-miterlimit="10" stroke-width="2"/>
        <line id="선_267" data-name="선 267" x2="6" transform="translate(52 24)" fill="none" stroke="#bcc0c4" stroke-miterlimit="10" stroke-width="2"/>
        <line id="선_268" data-name="선 268" y2="6" transform="translate(42 28)" fill="none" stroke="#bcc0c4" stroke-miterlimit="10" stroke-width="2"/>
        <line id="선_269" data-name="선 269" x2="6" transform="translate(39 31)" fill="none" stroke="#bcc0c4" stroke-miterlimit="10" stroke-width="2"/>
        <line id="선_270" data-name="선 270" y2="6" transform="translate(42 28)" fill="none" stroke="#bcc0c4" stroke-miterlimit="10" stroke-width="2"/>
        <line id="선_271" data-name="선 271" x2="6" transform="translate(39 31)" fill="none" stroke="#bcc0c4" stroke-miterlimit="10" stroke-width="2"/>
        <path id="패스_329" data-name="패스 329" d="M21.97,16.133a13.368,13.368,0,0,1-.844,2.909c-.613-2.426-.822-4.509-3.7-6.6a20.061,20.061,0,0,0-3.376-1.645C9.4,9.05,5.139,7.859,1.8,4c-1.114,2.775-.98,6.257-.16,9.687,1.1,3.336,3.047,4.2,5.2,5.557a14.362,14.362,0,0,1-3.377-.217,28.168,28.168,0,0,0,3.058,5.342c3.22,4.08,6.016,4.086,9.341,4.627a16.656,16.656,0,0,1-2.611,1.2c2.922,1.717,11.389,3.516,14.9,4.161h0c1.222-4.079-1.652-13.421-6.187-18.227" fill="#a3d4ff"/>
        <path id="패스_330" data-name="패스 330" d="M21.97,16.133a13.368,13.368,0,0,1-.844,2.909c-.613-2.426-.822-4.509-3.7-6.6a20.061,20.061,0,0,0-3.376-1.645C9.4,9.05,5.139,7.859,1.8,4c-1.114,2.775-.98,6.257-.16,9.687,1.1,3.336,3.047,4.2,5.2,5.557a14.362,14.362,0,0,1-3.377-.217,28.168,28.168,0,0,0,3.058,5.342c3.22,4.08,6.016,4.086,9.341,4.627a16.656,16.656,0,0,1-2.611,1.2c2.922,1.717,11.389,3.516,14.9,4.161h0C29.379,30.281,26.5,20.939,21.97,16.133Z" fill="none" stroke="#2a5082" stroke-miterlimit="10" stroke-width="2"/>
        <line id="선_272" data-name="선 272" x2="23" y2="23" transform="translate(9 15)" fill="none" stroke="#2a5082" stroke-linecap="round" stroke-miterlimit="10" stroke-width="2"/>
      </g>
    </g>
  </g>
</svg>
