<svg xmlns="http://www.w3.org/2000/svg" xmlns:xlink="http://www.w3.org/1999/xlink" width="95" height="95" viewBox="0 0 95 95">
  <defs>
    <clipPath id="clip-path">
      <rect id="사각형_121" data-name="사각형 121" width="49" height="60" transform="translate(0 0)" fill="none"/>
    </clipPath>
  </defs>
  <g id="그룹_303" data-name="그룹 303" transform="translate(-1150 -935)">
    <circle id="타원_8" data-name="타원 8" cx="47.5" cy="47.5" r="47.5" transform="translate(1150 935)" fill="#f2f2f2"/>
    <g id="그룹_139" data-name="그룹 139" transform="translate(1173 955)">
      <rect id="사각형_120" data-name="사각형 120" width="47" height="24" transform="translate(1 1)" fill="#fff"/>
      <g id="그룹_138" data-name="그룹 138">
        <g id="그룹_137" data-name="그룹 137" clip-path="url(#clip-path)">
          <path id="패스_281" data-name="패스 281" d="M41,5H8A2.8,2.8,0,0,1,5,8V18a3,3,0,0,1,3,3H41a3,3,0,0,1,3-3V8a3,3,0,0,1-3-3" fill="#a3d4ff"/>
          <path id="패스_282" data-name="패스 282" d="M15,25H1V1H48V25H39" fill="none" stroke="#2a5082" stroke-miterlimit="10" stroke-width="2"/>
          <path id="패스_283" data-name="패스 283" d="M38,21h3a3,3,0,0,1,3-3V8a3,3,0,0,1-3-3H8A2.8,2.8,0,0,1,5,8V18a3,3,0,0,1,3,3h7" fill="none" stroke="#2a5082" stroke-miterlimit="10" stroke-width="2"/>
          <line id="선_231" data-name="선 231" x2="2" transform="translate(13 13)" fill="none" stroke="#2a5082" stroke-miterlimit="10" stroke-width="2"/>
          <line id="선_232" data-name="선 232" x2="2" transform="translate(34 13)" fill="none" stroke="#2a5082" stroke-miterlimit="10" stroke-width="2"/>
          <path id="패스_284" data-name="패스 284" d="M20,13a4.77,4.77,0,0,1,4.5-5A4.769,4.769,0,0,1,29,13a4.77,4.77,0,0,1-4.5,5A4.769,4.769,0,0,1,20,13" fill="#fff"/>
          <path id="패스_285" data-name="패스 285" d="M20.374,15A5.446,5.446,0,0,1,20,13a4.771,4.771,0,0,1,4.5-5A4.77,4.77,0,0,1,29,13a5.436,5.436,0,0,1-.376,2" fill="none" stroke="#2a5082" stroke-miterlimit="10" stroke-width="2"/>
          <path id="패스_286" data-name="패스 286" d="M34.5,23A2.5,2.5,0,0,0,32,25.5v-4a2.5,2.5,0,0,0-5,0v-3a2.5,2.5,0,0,0-5,0v2a2.5,2.5,0,0,0-5,0V32.532c0,3.011-.508,4.158-1.658,4.158-.449,0-1.5-.633-2.625-3.189-1.818-4.122-5.228-2.789-6.083-1.933s-.542,2.009,1.621,5.076c1.474,2.092,2.977,7.786,5.325,9.649S17,49.092,17,50.271v4.754L34,55V50c0-1.708,3-2.564,3-6V25.5A2.5,2.5,0,0,0,34.5,23" fill="#fff"/>
          <path id="패스_287" data-name="패스 287" d="M34,53V50c0-1.708,3-2.564,3-6V25.5a2.5,2.5,0,0,0-5,0v-4a2.5,2.5,0,0,0-5,0V33" fill="none" stroke="#2a5082" stroke-miterlimit="10" stroke-width="2"/>
          <path id="패스_288" data-name="패스 288" d="M27,33V18.5a2.5,2.5,0,0,0-5,0v2a2.5,2.5,0,0,0-5,0V32.532c0,3.011-.508,4.158-1.658,4.158-.449,0-1.5-.633-2.625-3.189-1.818-4.122-5.228-2.789-6.083-1.933s-.542,2.009,1.621,5.076c1.474,2.092,2.977,7.786,5.325,9.649S17,49.092,17,50.271V53" fill="none" stroke="#2a5082" stroke-miterlimit="10" stroke-width="2"/>
          <path id="패스_289" data-name="패스 289" d="M36,60V53H15v7" fill="#e9eaeb"/>
          <path id="패스_290" data-name="패스 290" d="M36,60V53H15v7" fill="none" stroke="#2a5082" stroke-miterlimit="10" stroke-width="2"/>
          <line id="선_233" data-name="선 233" x2="3" transform="translate(18 57)" fill="none" stroke="#2a5082" stroke-miterlimit="10" stroke-width="2"/>
        </g>
      </g>
    </g>
  </g>
</svg>
