<svg xmlns="http://www.w3.org/2000/svg" xmlns:xlink="http://www.w3.org/1999/xlink" width="95" height="95" viewBox="0 0 95 95">
  <defs>
    <clipPath id="clip-path">
      <rect id="사각형_138" data-name="사각형 138" width="53.428" height="59.831" transform="translate(0 0)" fill="none"/>
    </clipPath>
    <clipPath id="clip-path-2">
      <rect id="사각형_76" data-name="사각형 76" width="12" height="9.43" fill="none" stroke="#2a5082" stroke-width="0.25"/>
    </clipPath>
  </defs>
  <g id="그룹_309" data-name="그룹 309" transform="translate(-1150 -935)">
    <circle id="타원_8" data-name="타원 8" cx="47.5" cy="47.5" r="47.5" transform="translate(1150 935)" fill="#f2f2f2"/>
    <g id="그룹_155" data-name="그룹 155" transform="translate(1171 953)">
      <g id="그룹_154" data-name="그룹 154" clip-path="url(#clip-path)">
        <path id="패스_347" data-name="패스 347" d="M32.2,10.417c.681,0,4.21-6.437,4.989-7.459.27-.354.323-.436.119-.689s-.668-.192-1.176-.045A6.541,6.541,0,0,1,32.7,1.853C30.054,1.09,26.24.024,24.7,2.813c-.148.27-.046.069.249.4.805.892,4.193,7.208,4.884,7.208Z" fill="#a3d4ff"/>
        <path id="패스_348" data-name="패스 348" d="M32.2,10.417c.681,0,4.21-6.437,4.989-7.459.27-.354.323-.436.119-.689s-.668-.192-1.176-.045A6.541,6.541,0,0,1,32.7,1.853C30.054,1.09,26.24.024,24.7,2.813c-.148.27-.046.069.249.4.805.892,4.193,7.208,4.884,7.208Z" fill="none" stroke="#2a5082" stroke-miterlimit="10" stroke-width="2"/>
        <line id="선_291" data-name="선 291" y2="6" transform="translate(5.414 10.417)" fill="none" stroke="#bcc0c4" stroke-miterlimit="10" stroke-width="2"/>
        <line id="선_292" data-name="선 292" x1="6" transform="translate(2.414 13.417)" fill="none" stroke="#bcc0c4" stroke-miterlimit="10" stroke-width="2"/>
        <line id="선_293" data-name="선 293" y2="6" transform="translate(15.414 3.417)" fill="none" stroke="#bcc0c4" stroke-miterlimit="10" stroke-width="2"/>
        <line id="선_294" data-name="선 294" x1="6" transform="translate(12.414 6.417)" fill="none" stroke="#bcc0c4" stroke-miterlimit="10" stroke-width="2"/>
        <path id="패스_349" data-name="패스 349" d="M16.367,27.08v0Zm29.706-4.357c-.847-3.62-2.64-7.414-10.658-12.273a8.366,8.366,0,0,0-7.62-.324c-8.235,4.4-10.054,8.977-10.9,12.6a19.664,19.664,0,0,0-.525,4.337A15.2,15.2,0,0,0,31.391,42.417,15.2,15.2,0,0,0,46.415,27.052a20.637,20.637,0,0,0-.342-4.329" fill="#a3d4ff"/>
        <path id="패스_350" data-name="패스 350" d="M16.367,27.08v0Zm29.706-4.357c-.847-3.62-2.64-7.414-10.658-12.273a8.366,8.366,0,0,0-7.62-.324c-8.235,4.4-10.054,8.977-10.9,12.6a19.664,19.664,0,0,0-.525,4.337A15.2,15.2,0,0,0,31.391,42.417,15.2,15.2,0,0,0,46.415,27.052,20.637,20.637,0,0,0,46.073,22.723Z" fill="none" stroke="#2a5082" stroke-miterlimit="10" stroke-width="2"/>
        <path id="패스_351" data-name="패스 351" d="M45.184,33.739,39.3,36.529l-.322.122a2.323,2.323,0,0,0-2.116-1.234h-6c-1.375,0-3.465-2-5.122-2H19.864c-2.416,0-4.576,1.979-5.793,3.112-1.88,1.88-5.657,5.676-5.657,5.676l9.193,9.2c1.5-1.5,3.272-2.99,4.807-2.99h12a7.072,7.072,0,0,0,5.062-1.9l9.951-9.951L52.255,29.5c-1.724-1.724-5.657.118-7.071,4.243" fill="#fff"/>
        <path id="패스_352" data-name="패스 352" d="M26.414,41.417h10.45c1.657,0,2.55-1.305,2.55-2.962v-.019c0-1.657-.893-3.019-2.55-3.019h-6c-1.375,0-3.466-2-5.122-2H19.864c-2.417,0-4.576,1.979-5.793,3.112-1.88,1.88-5.657,5.676-5.657,5.676l9.192,9.2c1.5-1.5,3.272-2.99,4.808-2.99h12a7.068,7.068,0,0,0,5.061-1.9l9.951-9.951L52.254,29.5c-1.723-1.724-5.656.118-7.07,4.243L39.3,36.529" fill="none" stroke="#2a5082" stroke-miterlimit="10" stroke-width="2"/>
        <rect id="사각형_136" data-name="사각형 136" width="8.485" height="18.384" transform="translate(1.414 45.417) rotate(-45)" fill="#a3d4ff"/>
        <rect id="사각형_137" data-name="사각형 137" width="8.485" height="18.384" transform="translate(1.414 45.417) rotate(-45)" fill="none" stroke="#2a5082" stroke-miterlimit="10" stroke-width="2"/>
        <line id="선_295" data-name="선 295" x1="2" y1="2" transform="translate(7.414 44.417)" fill="none" stroke="#2a5082" stroke-miterlimit="10" stroke-width="2"/>
      </g>
      <g id="그룹_54" data-name="그룹 54" transform="translate(25 19.453)">
        <g id="그룹_53" data-name="그룹 53" clip-path="url(#clip-path-2)">
          <path id="패스_118" data-name="패스 118" d="M3.44,7.146l.542-2H2.921l.5,2.008a.04.04,0,0,1,.006.02.022.022,0,0,0,.006.019V7.17a.073.073,0,0,0,0-.023Zm.776-2.86.235-.857H2.5l.214.857Zm1.285,0h.934L6.2,3.43H5.732Zm3.01,2.867.522-2.009H7.949l.542,2v.023A.041.041,0,0,0,8.5,7.19a.052.052,0,0,1,0-.019v-.02Zm.743-2.866.221-.857H7.487l.228.857ZM12,4.5V4.93a.207.207,0,0,1-.2.215H10.36L9.26,9.269a.2.2,0,0,1-.208.161H7.988a.2.2,0,0,1-.208-.161L6.67,5.144H5.27L4.151,9.269a.2.2,0,0,1-.208.161H2.88a.2.2,0,0,1-.13-.048.189.189,0,0,1-.071-.113L1.608,5.144H.215A.207.207,0,0,1,0,4.946V4.5a.207.207,0,0,1,.2-.215H1.387L1.166,3.43H.215A.207.207,0,0,1,0,3.232V2.786a.206.206,0,0,1,.2-.214H.944l-.6-2.3A.192.192,0,0,1,.382.082.216.216,0,0,1,.557,0h.917a.188.188,0,0,1,.206.16l.6,2.411h2.4L5.336.161A.2.2,0,0,1,5.545,0h.842A.2.2,0,0,1,6.6.161l.655,2.411H9.7L10.32.161A.188.188,0,0,1,10.528,0h.918a.213.213,0,0,1,.174.08.189.189,0,0,1,.034.187l-.613,2.3h.743a.208.208,0,0,1,.217.2v.448a.2.2,0,0,1-.2.214.04.04,0,0,1-.017,0h-.971l-.228.857h1.2a.207.207,0,0,1,.214.2V4.5" transform="translate(0 0)" fill="#2a5082" stroke="#2a5082" stroke-width="0.25"/>
        </g>
      </g>
    </g>
  </g>
</svg>
