<svg xmlns="http://www.w3.org/2000/svg" xmlns:xlink="http://www.w3.org/1999/xlink" width="95" height="95" viewBox="0 0 95 95">
  <defs>
    <clipPath id="clip-path">
      <rect id="사각형_76" data-name="사각형 76" width="10.333" height="8.12" fill="none" stroke="#2a5082" stroke-width="0.25"/>
    </clipPath>
  </defs>
  <g id="그룹_313" data-name="그룹 313" transform="translate(-1150 -935)">
    <circle id="타원_8" data-name="타원 8" cx="47.5" cy="47.5" r="47.5" transform="translate(1150 935)" fill="#f2f2f2"/>
    <g id="그룹_165" data-name="그룹 165" transform="translate(1167 954)">
      <path id="패스_372" data-name="패스 372" d="M32.5,9.272c.611,0,3.778-5.66,4.477-6.561.242-.313.291-.376.107-.6s-.6-.166-1.055-.036a5.963,5.963,0,0,1-3.086-.325c-2.373-.673-5.8-1.612-7.173.848-.133.238-.041.044.224.332.722.787,3.763,6.341,4.383,6.341Z" fill="#a3d4ff"/>
      <path id="패스_373" data-name="패스 373" d="M32.5,9.272c.611,0,3.778-5.66,4.477-6.561.242-.313.291-.376.107-.6s-.6-.166-1.055-.036a5.963,5.963,0,0,1-3.086-.325c-2.373-.673-5.8-1.612-7.173.848-.133.238-.041.044.224.332.722.787,3.763,6.341,4.383,6.341Z" fill="none" stroke="#2a5082" stroke-miterlimit="10" stroke-width="2"/>
      <path id="패스_374" data-name="패스 374" d="M34,8.272a5.939,5.939,0,0,0-6,0c-7.125,3.826-10,11.25-10,14.9,0,7.368,5.822,10.1,13,10.1s13-2.628,13-10c0-3.542-3.062-10.779-10-15" fill="#a3d4ff"/>
      <path id="패스_375" data-name="패스 375" d="M34,8.272a5.939,5.939,0,0,0-6,0c-7.125,3.826-10,11.25-10,14.9,0,7.368,5.822,10.1,13,10.1s13-2.628,13-10C44,19.73,40.938,12.493,34,8.272Z" fill="none" stroke="#2a5082" stroke-miterlimit="10" stroke-width="2"/>
      <path id="패스_377" data-name="패스 377" d="M56,24.272l-2.628,5.255a2.98,2.98,0,0,0-2.014.869l-3.242,3.242c-.973.973-3.865,1.037-5.037,2.208-.52.52-2.957,2.958-4.156,4.156C37.214,41.711,37,44.61,37,46.272v8H50c0-2.125-.056-4.078,1.03-5.163.767-.767,4.926-4.859,7.888-7.783A6.994,6.994,0,0,0,61,36.345V17.272c-2,0-5.687,1.688-5,7" fill="#fff"/>
      <path id="패스_378" data-name="패스 378" d="M50,54.272c0-2.125-.056-4.078,1.03-5.163.767-.767,4.925-4.859,7.888-7.783A7,7,0,0,0,61,36.345V17.272c-2,0-5.688,1.687-5,7l-2,5" fill="none" stroke="#2a5082" stroke-miterlimit="10" stroke-width="2"/>
      <path id="패스_379" data-name="패스 379" d="M49.53,40.709,55.6,34.638A3,3,0,0,0,51.358,30.4l-3.242,3.243c-.973.972-3.865,1.036-5.037,2.208-.52.52-2.957,2.958-4.156,4.156C37.215,41.711,37,44.61,37,46.272v8" fill="none" stroke="#2a5082" stroke-miterlimit="10" stroke-width="2"/>
      <rect id="사각형_142" data-name="사각형 142" width="17.938" height="5" transform="translate(35 52.272)" fill="#e9eaeb"/>
      <path id="패스_380" data-name="패스 380" d="M52.939,57.272v-5H35v5" fill="none" stroke="#2a5082" stroke-miterlimit="10" stroke-width="2"/>
      <line id="선_307" data-name="선 307" x2="3" transform="translate(38 56.272)" fill="none" stroke="#2a5082" stroke-miterlimit="10" stroke-width="2"/>
      <path id="패스_381" data-name="패스 381" d="M6,24.272l2.628,5.255a2.98,2.98,0,0,1,2.014.869l3.242,3.242c.973.973,3.865,1.037,5.037,2.208.52.52,2.957,2.958,4.156,4.156C24.786,41.711,25,44.61,25,46.272v8H12c0-2.125.056-4.078-1.03-5.163-.767-.767-4.926-4.859-7.888-7.783A6.994,6.994,0,0,1,1,36.345V17.272c2,0,5.687,1.688,5,7" fill="#fff"/>
      <path id="패스_382" data-name="패스 382" d="M12,54.272c0-2.125.056-4.078-1.03-5.163-.767-.767-4.925-4.859-7.888-7.783A7,7,0,0,1,1,36.345V17.272c2,0,5.688,1.687,5,7l2,5" fill="none" stroke="#2a5082" stroke-miterlimit="10" stroke-width="2"/>
      <path id="패스_383" data-name="패스 383" d="M12.47,40.709,6.4,34.638A3,3,0,0,1,10.642,30.4l3.242,3.243c.973.972,3.865,1.036,5.037,2.208.52.52,2.957,2.958,4.156,4.156C24.786,41.711,25,44.61,25,46.272v8" fill="none" stroke="#2a5082" stroke-miterlimit="10" stroke-width="2"/>
      <rect id="사각형_143" data-name="사각형 143" width="18" height="5" transform="translate(9 52.272)" fill="#e9eaeb"/>
      <path id="패스_384" data-name="패스 384" d="M9,57.272v-5H27v5" fill="none" stroke="#2a5082" stroke-miterlimit="10" stroke-width="2"/>
      <line id="선_308" data-name="선 308" x1="3" transform="translate(21 56.272)" fill="none" stroke="#2a5082" stroke-miterlimit="10" stroke-width="2"/>
      <g id="그룹_164" data-name="그룹 164" transform="translate(26 17.453)">
        <g id="그룹_53" data-name="그룹 53" clip-path="url(#clip-path)">
          <path id="패스_118" data-name="패스 118" d="M2.963,6.153,3.43,4.431H2.515L2.947,6.16a.035.035,0,0,1,.005.018.019.019,0,0,0,.005.017v-.02a.062.062,0,0,0,0-.02Zm.669-2.462.2-.738H2.151l.184.738Zm1.107,0h.8l-.2-.738h-.4ZM7.329,6.16l.449-1.73H6.845l.467,1.723v.02a.035.035,0,0,0,.009.02.044.044,0,0,1,0-.017V6.158Zm.64-2.468.19-.738H6.447l.2.738Zm2.364.184v.369a.178.178,0,0,1-.17.185H8.921L7.974,7.981A.171.171,0,0,1,7.8,8.12H6.879A.172.172,0,0,1,6.7,7.981L5.743,4.43h-1.2L3.574,7.981A.173.173,0,0,1,3.4,8.12H2.48a.169.169,0,0,1-.112-.041.163.163,0,0,1-.061-.1L1.385,4.43H.185A.178.178,0,0,1,0,4.259V3.876a.179.179,0,0,1,.17-.185H1.195L1,2.953H.185A.178.178,0,0,1,0,2.783V2.4a.177.177,0,0,1,.17-.184H.813L.3.231A.166.166,0,0,1,.329.07.186.186,0,0,1,.479,0h.789a.162.162,0,0,1,.178.137l.519,2.076H4.032L4.6.138A.173.173,0,0,1,4.775,0H5.5a.173.173,0,0,1,.18.137l.564,2.076h2.1L8.887.138A.161.161,0,0,1,9.065,0h.79a.184.184,0,0,1,.15.069.163.163,0,0,1,.029.161L9.507,2.215h.64a.179.179,0,0,1,.187.168v.385a.176.176,0,0,1-.17.184.034.034,0,0,1-.014,0H9.312l-.2.738h1.033a.178.178,0,0,1,.184.172v.013" transform="translate(0 0)" fill="#2a5082" stroke="#2a5082" stroke-width="0.25"/>
        </g>
      </g>
    </g>
  </g>
</svg>
