<svg xmlns="http://www.w3.org/2000/svg" xmlns:xlink="http://www.w3.org/1999/xlink" width="95" height="95" viewBox="0 0 95 95">
  <defs>
    <clipPath id="clip-path">
      <rect id="사각형_113" data-name="사각형 113" width="57" height="46" fill="none"/>
    </clipPath>
  </defs>
  <g id="그룹_301" data-name="그룹 301" transform="translate(-1150 -935)">
    <circle id="타원_8" data-name="타원 8" cx="47.5" cy="47.5" r="47.5" transform="translate(1150 935)" fill="#f2f2f2"/>
    <g id="그룹_130" data-name="그룹 130" transform="translate(1169 960)">
      <g id="그룹_129" data-name="그룹 129" clip-path="url(#clip-path)">
        <path id="패스_258" data-name="패스 258" d="M53,19H4a3,3,0,0,0-3,3V45H56V22a3,3,0,0,0-3-3" fill="#fff"/>
        <path id="패스_259" data-name="패스 259" d="M7,19H4a3,3,0,0,0-3,3V45H56V22a3,3,0,0,0-3-3H50" fill="none" stroke="#2a5082" stroke-miterlimit="10" stroke-width="2"/>
        <path id="패스_260" data-name="패스 260" d="M49,6h5V5a4,4,0,0,0-4-4H46" fill="none" stroke="#2a5082" stroke-miterlimit="10" stroke-width="2"/>
        <path id="패스_261" data-name="패스 261" d="M15,1a4,4,0,0,0-4,4V29H46V5a4,4,0,0,1,4-4Z" fill="#fff"/>
        <path id="패스_262" data-name="패스 262" d="M15,1a4,4,0,0,0-4,4V29H46V5a4,4,0,0,1,4-4Z" fill="none" stroke="#2a5082" stroke-miterlimit="10" stroke-width="2"/>
        <line id="선_212" data-name="선 212" x2="47" transform="translate(5 29)" fill="none" stroke="#2a5082" stroke-miterlimit="10" stroke-width="2"/>
        <path id="패스_263" data-name="패스 263" d="M46,45H11V41a3,3,0,0,1,3-3H43a3,3,0,0,1,3,3Z" fill="#a3d4ff"/>
        <path id="패스_264" data-name="패스 264" d="M46,45H11V41a3,3,0,0,1,3-3H43a3,3,0,0,1,3,3Z" fill="none" stroke="#2a5082" stroke-miterlimit="10" stroke-width="2"/>
        <line id="선_213" data-name="선 213" y2="2" transform="translate(6 40)" fill="none" stroke="#2a5082" stroke-miterlimit="10" stroke-width="2"/>
        <line id="선_214" data-name="선 214" y2="2" transform="translate(6 36)" fill="none" stroke="#2a5082" stroke-miterlimit="10" stroke-width="2"/>
        <line id="선_215" data-name="선 215" y2="2" transform="translate(6 32)" fill="none" stroke="#2a5082" stroke-miterlimit="10" stroke-width="2"/>
        <path id="패스_265" data-name="패스 265" d="M7,26V14H9" fill="none" stroke="#2a5082" stroke-miterlimit="10" stroke-width="2"/>
        <path id="패스_266" data-name="패스 266" d="M50,26V14H48" fill="none" stroke="#2a5082" stroke-miterlimit="10" stroke-width="2"/>
        <line id="선_216" data-name="선 216" x2="17" transform="translate(20 9)" fill="none" stroke="#2a5082" stroke-miterlimit="10" stroke-width="2"/>
        <line id="선_217" data-name="선 217" x2="17" transform="translate(20 13)" fill="none" stroke="#2a5082" stroke-miterlimit="10" stroke-width="2"/>
        <line id="선_218" data-name="선 218" x2="10" transform="translate(20 17)" fill="none" stroke="#2a5082" stroke-miterlimit="10" stroke-width="2"/>
      </g>
    </g>
  </g>
</svg>
