<svg xmlns="http://www.w3.org/2000/svg" xmlns:xlink="http://www.w3.org/1999/xlink" width="95" height="95" viewBox="0 0 95 95">
  <defs>
    <clipPath id="clip-path">
      <rect id="사각형_117" data-name="사각형 117" width="48" height="60" fill="none"/>
    </clipPath>
  </defs>
  <g id="그룹_300" data-name="그룹 300" transform="translate(-1150 -935)">
    <circle id="타원_8" data-name="타원 8" cx="47.5" cy="47.5" r="47.5" transform="translate(1150 935)" fill="#f2f2f2"/>
    <g id="그룹_133" data-name="그룹 133" transform="translate(1174 953)">
      <rect id="사각형_114" data-name="사각형 114" width="16" height="16" transform="translate(1 1)" fill="#fff"/>
      <rect id="사각형_115" data-name="사각형 115" width="16" height="16" transform="translate(1 22)" fill="#fff"/>
      <rect id="사각형_116" data-name="사각형 116" width="16" height="16" transform="translate(1 43)" fill="#fff"/>
      <g id="그룹_132" data-name="그룹 132">
        <g id="그룹_131" data-name="그룹 131" clip-path="url(#clip-path)">
          <path id="패스_267" data-name="패스 267" d="M36,18c-3.745,0-11,2.043-11,6V37.082A3.789,3.789,0,0,0,29,41h1V60H42V41h1a3.789,3.789,0,0,0,4-3.918V24c0-3.957-7.255-6-11-6" fill="#a3d4ff"/>
          <path id="패스_268" data-name="패스 268" d="M36,14.987a5.032,5.032,0,0,0,5-5.1v-1.7a5,5,0,1,0-10,0v1.7a5.032,5.032,0,0,0,5,5.1" fill="#fff"/>
          <path id="패스_269" data-name="패스 269" d="M36,14.987a5.032,5.032,0,0,0,5-5.1v-1.7a5,5,0,1,0-10,0v1.7A5.032,5.032,0,0,0,36,14.987Z" fill="none" stroke="#2a5082" stroke-miterlimit="10" stroke-width="2"/>
          <line id="선_219" data-name="선 219" y1="33" transform="translate(42 27)" fill="none" stroke="#2a5082" stroke-miterlimit="10" stroke-width="2"/>
          <line id="선_220" data-name="선 220" y2="33" transform="translate(30 27)" fill="none" stroke="#2a5082" stroke-miterlimit="10" stroke-width="2"/>
          <line id="선_221" data-name="선 221" y2="20" transform="translate(36 40)" fill="none" stroke="#2a5082" stroke-miterlimit="10" stroke-width="2"/>
          <path id="패스_270" data-name="패스 270" d="M30,41H29a3.855,3.855,0,0,1-4-4V24c0-3.957,7.255-6,11-6s11,2.043,11,6V37a3.855,3.855,0,0,1-4,4H42" fill="none" stroke="#2a5082" stroke-miterlimit="10" stroke-width="2"/>
          <path id="패스_271" data-name="패스 271" d="M17,10v7H1V1H13" fill="none" stroke="#2a5082" stroke-linecap="round" stroke-linejoin="round" stroke-width="2"/>
          <path id="패스_272" data-name="패스 272" d="M5,9l4,4L19,1" fill="none" stroke="#2a5082" stroke-linecap="round" stroke-linejoin="round" stroke-width="2"/>
          <path id="패스_273" data-name="패스 273" d="M17,31v7H1V22H13" fill="none" stroke="#2a5082" stroke-linecap="round" stroke-linejoin="round" stroke-width="2"/>
          <path id="패스_274" data-name="패스 274" d="M5,30l4,4L19,22" fill="none" stroke="#2a5082" stroke-linecap="round" stroke-linejoin="round" stroke-width="2"/>
          <path id="패스_275" data-name="패스 275" d="M17,52v7H1V43H13" fill="none" stroke="#2a5082" stroke-linecap="round" stroke-linejoin="round" stroke-width="2"/>
          <path id="패스_276" data-name="패스 276" d="M5,51l4,4L19,43" fill="none" stroke="#2a5082" stroke-linecap="round" stroke-linejoin="round" stroke-width="2"/>
        </g>
      </g>
    </g>
  </g>
</svg>
