<svg xmlns="http://www.w3.org/2000/svg" xmlns:xlink="http://www.w3.org/1999/xlink" width="95" height="95" viewBox="0 0 95 95">
  <defs>
    <clipPath id="clip-path">
      <rect id="사각형_77" data-name="사각형 77" width="60" height="53.571" fill="none"/>
    </clipPath>
  </defs>
  <g id="img" transform="translate(-1150 -935)">
    <g id="그룹_289" data-name="그룹 289">
      <circle id="타원_8" data-name="타원 8" cx="47.5" cy="47.5" r="47.5" transform="translate(1150 935)" fill="#f2f2f2"/>
      <g id="img-2" data-name="img" transform="translate(1168 956)">
        <g id="그룹_55" data-name="그룹 55" clip-path="url(#clip-path)">
          <path id="패스_119" data-name="패스 119" d="M58.857,40.927V27.878a3.818,3.818,0,0,0-3.807-3.807H52.411a2.14,2.14,0,0,0-1.541.655l-4.1,4.247L42.786,23H17.071L13.09,28.973l-4.1-4.247a2.14,2.14,0,0,0-1.541-.655H4.807A3.818,3.818,0,0,0,1,27.878V40.927a5.122,5.122,0,0,0,1.8,3.841L1,47.642v3.215H58.857V47.642l-1.8-2.874a5.119,5.119,0,0,0,1.8-3.841" transform="translate(0.071 1.643)" fill="#fff"/>
          <path id="패스_120" data-name="패스 120" d="M37.214,23.641V19.189c0-3.4-6.006-5.157-9.107-5.157S19,15.788,19,19.189v4.452" transform="translate(1.357 1.002)" fill="#a3d4ff"/>
          <path id="패스_121" data-name="패스 121" d="M37.214,23.641V19.189c0-3.4-6.006-5.157-9.107-5.157S19,15.788,19,19.189v4.452" transform="translate(1.357 1.002)" fill="none" stroke="#2a5082" stroke-miterlimit="10" stroke-width="2"/>
          <path id="패스_122" data-name="패스 122" d="M53.73,45.294a5.238,5.238,0,0,0,2.59-4.439V27.806A3.817,3.817,0,0,0,52.513,24H49.874a2.143,2.143,0,0,0-1.542.654l-5.578,5.775h-6.21s-.509,4.286,3.549,4.286H46.3l5.287-5.357" transform="translate(2.609 1.714)" fill="none" stroke="#2a5082" stroke-miterlimit="10" stroke-width="2"/>
          <path id="패스_123" data-name="패스 123" d="M49.286,21.714a4.429,4.429,0,0,0,4.286-4.591V15.591a4.3,4.3,0,1,0-8.571,0v1.532a4.429,4.429,0,0,0,4.286,4.591" transform="translate(3.214 0.786)" fill="#fff"/>
          <path id="패스_124" data-name="패스 124" d="M49.286,21.714a4.429,4.429,0,0,0,4.286-4.591V15.591a4.3,4.3,0,1,0-8.571,0v1.532A4.429,4.429,0,0,0,49.286,21.714Z" transform="translate(3.214 0.786)" fill="none" stroke="#2a5082" stroke-miterlimit="10" stroke-width="2"/>
          <path id="패스_125" data-name="패스 125" d="M3.59,45.294A5.238,5.238,0,0,1,1,40.855V27.806A3.817,3.817,0,0,1,4.807,24H7.446a2.143,2.143,0,0,1,1.542.654l5.578,5.775h6.21s.509,4.286-3.549,4.286h-6.21L5.73,29.357" transform="translate(0.071 1.714)" fill="none" stroke="#2a5082" stroke-miterlimit="10" stroke-width="2"/>
          <path id="패스_126" data-name="패스 126" d="M8.365,35,1,46.785V50H58.858V46.785L51.491,35" transform="translate(0.071 2.5)" fill="none" stroke="#2a5082" stroke-miterlimit="10" stroke-width="2"/>
          <path id="패스_127" data-name="패스 127" d="M12,29.429,16.286,23H42l4.286,6.429" transform="translate(0.857 1.643)" fill="none" stroke="#2a5082" stroke-miterlimit="10" stroke-width="2"/>
          <path id="패스_128" data-name="패스 128" d="M7.286,21.714A4.429,4.429,0,0,1,3,17.123V15.591A4.429,4.429,0,0,1,7.286,11a4.429,4.429,0,0,1,4.286,4.591v1.532a4.429,4.429,0,0,1-4.286,4.591" transform="translate(0.214 0.786)" fill="#fff"/>
          <path id="패스_129" data-name="패스 129" d="M7.286,21.714A4.429,4.429,0,0,1,3,17.123V15.591A4.429,4.429,0,0,1,7.286,11a4.429,4.429,0,0,1,4.286,4.591v1.532A4.429,4.429,0,0,1,7.286,21.714Z" transform="translate(0.214 0.786)" fill="none" stroke="#2a5082" stroke-miterlimit="10" stroke-width="2"/>
          <path id="패스_130" data-name="패스 130" d="M28.286,11.714a4.429,4.429,0,0,0,4.286-4.591V5.591a4.3,4.3,0,1,0-8.571,0V7.123a4.429,4.429,0,0,0,4.286,4.591" transform="translate(1.714 0.071)" fill="#fff"/>
          <path id="패스_131" data-name="패스 131" d="M28.286,11.714a4.429,4.429,0,0,0,4.286-4.591V5.591a4.3,4.3,0,1,0-8.571,0V7.123A4.429,4.429,0,0,0,28.286,11.714Z" transform="translate(1.714 0.071)" fill="none" stroke="#2a5082" stroke-miterlimit="10" stroke-width="2"/>
        </g>
      </g>
    </g>
  </g>
</svg>
