<svg xmlns="http://www.w3.org/2000/svg" xmlns:xlink="http://www.w3.org/1999/xlink" width="37.458" height="37.229" viewBox="0 0 37.458 37.229">
  <defs>
    <clipPath id="clip-path">
      <rect id="사각형_16" data-name="사각형 16" width="37" height="37" fill="none" stroke="#00ac6c" stroke-linecap="round" stroke-linejoin="round" stroke-width="2"/>
    </clipPath>
  </defs>
  <g id="truck" transform="translate(0.229)">
    <line id="선_8" data-name="선 8" x1="13.875" transform="translate(12.333 33.146)" fill="none" stroke="#00ac6c" stroke-linecap="round" stroke-miterlimit="10" stroke-width="2"/>
    <g id="그룹_13" data-name="그룹 13">
      <g id="그룹_12" data-name="그룹 12" clip-path="url(#clip-path)">
        <line id="선_9" data-name="선 9" x2="3.083" transform="translate(33.146 26.979)" fill="none" stroke="#00ac6c" stroke-linecap="round" stroke-miterlimit="10" stroke-width="2"/>
      </g>
    </g>
    <path id="패스_29" data-name="패스 29" d="M48.538,414.488H45.455v-5.4" transform="translate(-42.372 -381.342)" fill="none" stroke="#00ac6c" stroke-linecap="round" stroke-linejoin="round" stroke-width="2"/>
    <g id="그룹_15" data-name="그룹 15" transform="translate(0.771 10.021)">
      <g id="그룹_16" data-name="그룹 16">
        <path id="패스_30" data-name="패스 30" d="M392.531,446.266a3.083,3.083,0,1,1-3.083-3.083A3.083,3.083,0,0,1,392.531,446.266Z" transform="translate(-360.927 -423.141)" fill="none" stroke="#00ac6c" stroke-linecap="round" stroke-linejoin="round" stroke-miterlimit="10" stroke-width="2"/>
        <path id="패스_31" data-name="패스 31" d="M97.076,446.266a3.083,3.083,0,1,1-3.083-3.083A3.083,3.083,0,0,1,97.076,446.266Z" transform="translate(-85.513 -423.141)" fill="none" stroke="#00ac6c" stroke-linecap="round" stroke-linejoin="round" stroke-miterlimit="10" stroke-width="2"/>
        <path id="패스_32" data-name="패스 32" d="M350.159,234.41h3.854v-8.067a.771.771,0,0,0-.343-.641l-1.969-1.313-3.443-7.575a1.542,1.542,0,0,0-1.4-.9h-5.945" transform="translate(-318.555 -211.285)" fill="none" stroke="#00ac6c" stroke-linecap="round" stroke-linejoin="round" stroke-width="2"/>
        <path id="패스_33" data-name="패스 33" d="M404.665,266.76h-6.937v-5.4h4.625" transform="translate(-371.519 -253.656)" fill="none" stroke="#00ac6c" stroke-linecap="round" stroke-linejoin="round" stroke-width="2"/>
        <rect id="사각형_17" data-name="사각형 17" width="22.354" height="17.729" fill="none" stroke="#00ac6c" stroke-linecap="round" stroke-linejoin="round" stroke-width="2"/>
      </g>
    </g>
  </g>
</svg>
