<svg xmlns="http://www.w3.org/2000/svg" xmlns:xlink="http://www.w3.org/1999/xlink" width="50" height="50" viewBox="0 0 50 50">
  <defs>
    <clipPath id="clip-path">
      <rect id="사각형_98" data-name="사각형 98" width="23.988" height="18" fill="#9099a7"/>
    </clipPath>
  </defs>
  <g id="그룹_406" data-name="그룹 406" transform="translate(-1294.667 -345)">
    <circle id="타원_18" data-name="타원 18" cx="25" cy="25" r="25" transform="translate(1294.667 345)" fill="#f5f6f8"/>
    <g id="그룹_350" data-name="그룹 350" transform="translate(1307.667 361)">
      <g id="그룹_349" data-name="그룹 349" clip-path="url(#clip-path)">
        <path id="패스_1246" data-name="패스 1246" d="M5.988,6h-2V8h2Zm-2,6h2V10h-2Zm12-10V0H14V4h2a6,6,0,1,1-6,6.005A5.935,5.935,0,0,1,11.552,6H9.088a7.94,7.94,0,0,0,.674,9H1.988V2H0V17H12.131a7.987,7.987,0,0,0,11.857-6.994,8.023,8.023,0,0,0-8-8.005m-3,0h-8V0H3V4h9.988ZM15,6v4.414l3.293,3.292,1.414-1.414L16.988,9.585V6Z" fill="#9099a7"/>
      </g>
    </g>
  </g>
</svg>
