<svg xmlns="http://www.w3.org/2000/svg" xmlns:xlink="http://www.w3.org/1999/xlink" width="50" height="50" viewBox="0 0 50 50">
  <defs>
    <clipPath id="clip-path">
      <rect id="사각형_80" data-name="사각형 80" width="24" height="24" fill="#9099a7"/>
    </clipPath>
  </defs>
  <g id="그룹_407" data-name="그룹 407" transform="translate(-1294.667 -343)">
    <circle id="타원_18" data-name="타원 18" cx="25" cy="25" r="25" transform="translate(1294.667 343)" fill="#f5f6f8"/>
    <g id="그룹_302" data-name="그룹 302" transform="translate(1307.667 356)">
      <g id="그룹_301" data-name="그룹 301" clip-path="url(#clip-path)">
        <path id="패스_1176" data-name="패스 1176" d="M22.243,3.757,18,0,13.757,3.757c-.022.023-.037.05-.059.073l1.5,1.326L18,2.672,20.867,5.21a4,4,0,0,1-.038,5.618,4.05,4.05,0,0,1-.627.511,11.869,11.869,0,0,1,.566,1.953,5.92,5.92,0,0,0,1.475-9.535M9,3,2.636,8.636A8.926,8.926,0,0,0,0,15,9,9,0,1,0,15.364,8.636Zm4.95,16.95a7,7,0,0,1-9.94-9.859L9,5.672l4.99,4.419a7,7,0,0,1-.04,9.859M6,15H4a5,5,0,0,0,5,5V18a3,3,0,0,1-3-3" fill="#9099a7"/>
      </g>
    </g>
  </g>
</svg>
