<svg xmlns="http://www.w3.org/2000/svg" xmlns:xlink="http://www.w3.org/1999/xlink" width="50" height="50" viewBox="0 0 50 50">
  <defs>
    <clipPath id="clip-path">
      <rect id="사각형_76" data-name="사각형 76" width="20" height="24" fill="#9099a7"/>
    </clipPath>
  </defs>
  <g id="그룹_408" data-name="그룹 408" transform="translate(-1294.667 -345)">
    <circle id="타원_18" data-name="타원 18" cx="25" cy="25" r="25" transform="translate(1294.667 345)" fill="#f5f6f8"/>
    <g id="그룹_347" data-name="그룹 347" transform="translate(1309.667 358)">
      <g id="그룹_285" data-name="그룹 285" clip-path="url(#clip-path)">
        <path id="패스_1172" data-name="패스 1172" d="M18.242,9.829l-5.07-5.072A5.968,5.968,0,0,0,8.929,3H3A3,3,0,0,0,0,6V20a4,4,0,0,0,4,4H16a4,4,0,0,0,4-4V14.071a5.954,5.954,0,0,0-1.758-4.242M18,20a2,2,0,0,1-2,2H4a2,2,0,0,1-2-2V6A1,1,0,0,1,3,5H8.929a3.978,3.978,0,0,1,2.829,1.171l5.07,5.072A3.969,3.969,0,0,1,18,14.071ZM7,0H2V2H7ZM9.707,7.293A1,1,0,0,0,8.293,8.707l6,6a1,1,0,0,0,1.414-1.414Z" fill="#9099a7"/>
      </g>
    </g>
  </g>
</svg>
