<svg xmlns="http://www.w3.org/2000/svg" width="333" height="222" viewBox="0 0 333 222">
  <g id="no-image" transform="translate(-861 -211)">
    <path id="사각형_9231" data-name="사각형 9231" d="M10,0H323a10,10,0,0,1,10,10V222a0,0,0,0,1,0,0H0a0,0,0,0,1,0,0V10A10,10,0,0,1,10,0Z" transform="translate(861 211)" fill="#f5f5f5"/>
    <g id="logo" transform="translate(909 229.202)">
      <g id="logo_로컬" transform="translate(50.813 58.798)">
        <g id="그룹_3900" data-name="그룹 3900">
          <g id="그룹_3898" data-name="그룹 3898" transform="translate(4.156)">
            <g id="그룹_3897" data-name="그룹 3897" opacity="0.15">
              <g id="그룹_3896" data-name="그룹 3896">
                <g id="그룹_3895" data-name="그룹 3895">
                  <g id="그룹_3894" data-name="그룹 3894">
                    <g id="그룹_3892" data-name="그룹 3892">
                      <path id="패스_10506" data-name="패스 10506" d="M165.411,114.64a3.138,3.138,0,0,0-4.367.789c-.034.048-.066.1-.1.148a3.142,3.142,0,0,1-5.679-.864h0l-.008-.033a.171.171,0,0,0-.01-.041,4.076,4.076,0,0,1-.16-1.247c0-2.815,2.889-5.949,7.048-5.949a7.931,7.931,0,0,1,7.326,5.045c-.011-.031-.021-.063-.032-.094a8.971,8.971,0,0,0-17.457,2.91c0,4.431,3.194,8.219,7.625,8.219a7.205,7.205,0,0,0,7-4.714A3.456,3.456,0,0,0,165.411,114.64Z" transform="translate(-151.973 -106.332)" fill="#0e233d"/>
                    </g>
                    <g id="그룹_3893" data-name="그룹 3893" transform="translate(3.112 1.113)">
                      <path id="패스_10507" data-name="패스 10507" d="M169.7,112.732a7.909,7.909,0,0,0-7.382-5.22c-4.16,0-7.048,3.134-7.048,5.949a4.075,4.075,0,0,0,.16,1.247,2.665,2.665,0,0,1-.082-.64c0-2.931,2.935-4.963,5.953-4.963a7.394,7.394,0,0,1,7.4,7.395h0a8.152,8.152,0,0,1-4.52,7.305h0a8.972,8.972,0,0,0,5.916-8.437A8.84,8.84,0,0,0,169.7,112.732Z" transform="translate(-155.273 -107.512)" fill="#ce0019"/>
                    </g>
                  </g>
                </g>
              </g>
            </g>
          </g>
          <g id="그룹_3899" data-name="그룹 3899" transform="translate(0 21.937)">
            <path id="패스_10508" data-name="패스 10508" d="M151.926,132.912v1.8h-.642v-1.237h-3.394v-.561h1.727v-.754h-2.052V131.6H152.3v.561h-2.052v.754Zm0-3.265v1.537h-.642v-.966h-3.335v-.566Z" transform="translate(-147.565 -129.601)" fill="#ddd"/>
            <path id="패스_10509" data-name="패스 10509" d="M157.657,132.829H155.98v.936h2.052v.561H153.3v-.561h2.046v-.936h-1.669v-3.017h3.971v.561H154.3v.67h3.341v.549H154.3v.677h3.353Z" transform="translate(-147.892 -129.61)" fill="#ddd"/>
            <path id="패스_10510" data-name="패스 10510" d="M160.146,133.765v-1.6h.606v1.6h.861v-1.6h.613v1.6h1.536v.561h-4.74v-.561Zm2.589-.908v-2.474H159.4v-.571h3.977v3.045Z" transform="translate(-148.22 -129.61)" fill="#ddd"/>
            <path id="패스_10511" data-name="패스 10511" d="M169.421,132.488h-4.74v-.526h2.052v-.335h-1.671V129.6h3.97v.526h-3.346v.254h3.346v.48h-3.346v.26h3.358v.509h-1.682v.335h2.058Zm-1.1,1.266a1.049,1.049,0,0,1-.1.456,1.2,1.2,0,0,1-.269.37,1.359,1.359,0,0,1-.4.257,1.25,1.25,0,0,1-.485.094,1.279,1.279,0,0,1-.488-.094,1.365,1.365,0,0,1-.4-.257,1.209,1.209,0,0,1-.269-.37,1.063,1.063,0,0,1-.1-.456,1.049,1.049,0,0,1,.1-.454,1.216,1.216,0,0,1,.269-.367,1.328,1.328,0,0,1,.4-.257,1.245,1.245,0,0,1,.488-.094,1.217,1.217,0,0,1,.485.094,1.323,1.323,0,0,1,.4.257,1.185,1.185,0,0,1,.269.367,1.017,1.017,0,0,1,.1.454Zm-.619-.006a.613.613,0,0,0-.189-.449.6.6,0,0,0-.451-.189.641.641,0,0,0-.642.635.6.6,0,0,0,.189.445.637.637,0,0,0,1.089-.437v0Z" transform="translate(-148.543 -129.598)" fill="#ddd"/>
            <path id="패스_10512" data-name="패스 10512" d="M170.375,132.8h4.74v.566h-2.052v1.329h-.642v-1.329h-2.046Zm1.012-2.52H174.1v-.653h.635V132.1h-3.977v-2.479h.63Zm2.711.555h-2.711v.711H174.1Z" transform="translate(-148.869 -129.6)" fill="#ddd"/>
          </g>
        </g>
        <g id="그룹_3901" data-name="그룹 3901" transform="translate(114.825 2.136)" opacity="0.15">
          <path id="패스_10513" data-name="패스 10513" d="M279.822,112.155a2.231,2.231,0,0,1-.949,1.3,1.4,1.4,0,0,0,.094-.5.889.889,0,0,0-1.715-.47.905.905,0,0,0,0,.47,1.134,1.134,0,0,0,.6,1.069,8.468,8.468,0,0,1-1.78.533c-.589.073-1.688.248-1.688.82,0,.493,1.355.553,1.42.566,1.452.229,1.5,1.1,1.509,1.188.054.619-.736,1.408-.818,1.5s-.209.294-.066.4a.357.357,0,0,0,.338,0,5.867,5.867,0,0,0,3.065-6.872" transform="translate(-269.637 -108.781)" fill="#0e233d"/>
          <path id="패스_10514" data-name="패스 10514" d="M279.395,112.949a1.613,1.613,0,0,0,.566-1.092s-.259-.715-.727-.715c-.234,0-.247.182-.143.506a2.274,2.274,0,0,1,.306,1.3" transform="translate(-269.902 -108.742)" fill="#0e233d"/>
          <path id="패스_10515" data-name="패스 10515" d="M278.073,109.6a5.868,5.868,0,0,0-7.484.782,2.229,2.229,0,0,1,1.6.17,1.4,1.4,0,0,0-.482.173.889.889,0,1,0,.857,1.485,1.131,1.131,0,0,0,.629-1.051,8.4,8.4,0,0,1,1.351,1.276c.358.471,1.059,1.337,1.554,1.051.427-.247-.2-1.45-.222-1.509-.528-1.372.2-1.844.276-1.9.509-.355,1.587-.067,1.708-.041s.359.034.377-.14a.351.351,0,0,0-.169-.293" transform="translate(-269.42 -108.597)" fill="#ce0019"/>
          <path id="패스_10516" data-name="패스 10516" d="M271.621,110.646a1.611,1.611,0,0,0-1.226.058s-.489.583-.255.987c.117.2.283.123.511-.13s.414-.713.972-.916" transform="translate(-269.391 -108.708)" fill="#660b17"/>
          <path id="패스_10517" data-name="패스 10517" d="M273.129,117.669a1.453,1.453,0,0,0,.389.33.889.889,0,1,0,.857-1.485,1.13,1.13,0,0,0-1.226-.019,8.491,8.491,0,0,1,.429-1.807c.231-.547.628-1.585.133-1.871-.427-.247-1.157.9-1.2.943-.925,1.143-1.7.749-1.782.709-.566-.263-.849-1.341-.89-1.46s-.15-.328-.311-.256a.352.352,0,0,0-.168.292,5.871,5.871,0,0,0,4.418,6.091,2.234,2.234,0,0,1-.652-1.472" transform="translate(-269.349 -108.833)" fill="#548a22"/>
          <path id="패스_10518" data-name="패스 10518" d="M274.939,118.862a2.306,2.306,0,0,1-1.28-.385,1.627,1.627,0,0,0,.665,1.037s.749.132.982-.273c.117-.2-.034-.3-.368-.377" transform="translate(-269.596 -109.161)" fill="#3e6321"/>
        </g>
        <g id="그룹_3624" data-name="그룹 3624" transform="translate(33.337 13.995)">
          <path id="패스_10519" data-name="패스 10519" d="M246.318,128.338l.257-1.482h13.587l-.618,1.482Zm1.6-1.98.253-1.456h2.179a.682.682,0,0,1-.189-.41,2.352,2.352,0,0,1,.039-.695l.06-.351H248.3l.259-1.5H259.9l-.62,1.5h-1.7l-.061.351a1.98,1.98,0,0,1-.234.687,1.291,1.291,0,0,1-.384.418h2.294l-.613,1.456Zm-.652,4.421H255.9l.094-.526h-8.67l.251-1.443h10.865l-.583,3.356h-8.719a2.672,2.672,0,0,0-.088.271.177.177,0,0,0,.028.165.331.331,0,0,0,.2.083,3.339,3.339,0,0,0,.422.021h8.817l-.608,1.522h-9a2.939,2.939,0,0,1-1.961-.458,1.373,1.373,0,0,1-.165-1.456Zm5.1-6.82a1.666,1.666,0,0,0-.027.438.491.491,0,0,0,.109.27.569.569,0,0,0,.252.155,1.954,1.954,0,0,0,.388.081h1.18a1.418,1.418,0,0,0,.687-.248,1.106,1.106,0,0,0,.317-.694l.094-.512h-2.9Z" transform="translate(-186.545 -121.219)" fill="#ddd"/>
          <path id="패스_10520" data-name="패스 10520" d="M262.1,128.709l.674-3.881h3.556a1.338,1.338,0,0,0,.559-.107.944.944,0,0,0,.357-.27.782.782,0,0,0,.162-.364.975.975,0,0,0-.011-.4h-4.425l.251-1.443H269.4a4.4,4.4,0,0,1,.082,1.462,2.808,2.808,0,0,1-.457,1.266,2.644,2.644,0,0,1-1.073.9,4.016,4.016,0,0,1-1.747.337h-1.524l-.189,1.092h4.884l-.737,1.414Zm8.081.742-.077.444a3.062,3.062,0,0,1-.412,1.052l4.825,1.846-1.351,1.55-4.608-2.156a9.365,9.365,0,0,1-2.4,1.354,11.9,11.9,0,0,1-3.147.762l-.593-1.5a17.788,17.788,0,0,0,1.969-.343,8.443,8.443,0,0,0,1.689-.573,4.131,4.131,0,0,0,1.231-.863,2.259,2.259,0,0,0,.61-1.2l.065-.377Zm2.175-4.878h1.164l.471-2.709h2.082l-1.471,8.463h-2.08l.737-4.243H272.1l-.478,2.749h-2.064l1.194-6.873h2.065Z" transform="translate(-187.447 -121.214)" fill="#ddd"/>
          <path id="패스_10521" data-name="패스 10521" d="M285.7,126.778l-.142.821h5.8l-.641,1.618H277.443l.283-1.618h5.686l.142-.821H279.13l.253-1.456h2.179a.074.074,0,0,1-.036-.027.1.1,0,0,0-.021-.026.1.1,0,0,1-.032-.054.089.089,0,0,0-.031-.055.03.03,0,0,1-.012-.026.064.064,0,0,0-.009-.04l-.035-.081a1.887,1.887,0,0,1-.031-.29,1.8,1.8,0,0,1,.029-.356l.026-.148.12-.688h-1.965l.26-1.5h11.34l-.62,1.5h-1.7l-.12.688c-.012.071-.027.138-.043.2a1.754,1.754,0,0,1-.056.175.266.266,0,0,1-.017.054.186.186,0,0,0-.018.054l-.051.107c-.017.036-.034.067-.049.094l-.047.081a.123.123,0,0,0-.05.061.334.334,0,0,1-.036.06l-.04.041a.5.5,0,0,1-.094.094l-.112.081H290.4l-.62,1.456Zm1.784,3.032a9.592,9.592,0,0,1,1.243.067,1.6,1.6,0,0,1,.771.276.853.853,0,0,1,.311.613,2.978,2.978,0,0,1-.136,1.065l-.613,2.3h-9.127a2.431,2.431,0,0,1-1.814-.552,1.7,1.7,0,0,1-.189-1.7l.591-2.074Zm-.076,2.042c.068-.258.048-.418-.055-.48a1.389,1.389,0,0,0-.632-.094h-6.342l-.189.626a.606.606,0,0,0,.013.534c.084.115.3.174.634.174h6.371Zm-3.111-6.53h1.245l.1-.027a1.031,1.031,0,0,0,.385-.135.934.934,0,0,0,.189-.148,1.292,1.292,0,0,0,.094-.135.7.7,0,0,0,.112-.269.249.249,0,0,1,.017-.054.2.2,0,0,0,.018-.054l.021-.122.148-.849h-2.907l-.148.849-.041.243.016.189a.191.191,0,0,0,.014.107.228.228,0,0,0,.046.107l.04.055.043.039a.636.636,0,0,0,.318.149l.078.026Z" transform="translate(-188.323 -121.224)" fill="#ddd"/>
          <path id="패스_10522" data-name="패스 10522" d="M186.411,121.212h2.654l-3.489,12.745h-2.654Zm5.94,12.745a5.819,5.819,0,0,0-.467-2.042,7.437,7.437,0,0,0-1.1-1.814,9.539,9.539,0,0,0-1.556-1.5,11.189,11.189,0,0,0-1.814-1.144l7.866-6.243h3.05l-7.466,5.883a6.07,6.07,0,0,1,1.586,1.119,8.878,8.878,0,0,1,1.384,1.683,8.242,8.242,0,0,1,.929,2,5.33,5.33,0,0,1,.245,2.059Z" transform="translate(-182.922 -121.177)" fill="#ddd"/>
          <path id="패스_10523" data-name="패스 10523" d="M197.487,127.533h5.041l-.488,1.781H197Z" transform="translate(-183.726 -121.538)" fill="#ddd"/>
          <path id="패스_10524" data-name="패스 10524" d="M213.613,123.057a7.3,7.3,0,0,0-2.271.319,5.012,5.012,0,0,0-1.654.883,4.78,4.78,0,0,0-1.118,1.332,7.27,7.27,0,0,0-.682,1.666l-.184.669a8.023,8.023,0,0,0-.3,1.781,2.49,2.49,0,0,0,.3,1.364,2.08,2.08,0,0,0,1.071.867,5.541,5.541,0,0,0,2.025.3q.639,0,1.4-.073a8.288,8.288,0,0,0,1.21-.189l.891-3.253h-2.994l.465-1.7h5.553l-1.71,6.244c-.315.094-.671.189-1.066.283s-.823.174-1.281.245-.943.127-1.441.172-1,.065-1.509.065a11.073,11.073,0,0,1-2.838-.327,4.286,4.286,0,0,1-1.951-1.054,3.341,3.341,0,0,1-.923-1.886,6.775,6.775,0,0,1,.266-2.829l.139-.507a8.834,8.834,0,0,1,1.414-3.024,7.48,7.48,0,0,1,2.109-1.927,8.3,8.3,0,0,1,2.575-1.014,13.457,13.457,0,0,1,2.829-.294h4.5l-1.08,1.879Z" transform="translate(-184.158 -121.175)" fill="#ddd"/>
          <path id="패스_10525" data-name="패스 10525" d="M223.882,134.146a9.444,9.444,0,0,1-2.423-.261,2.992,2.992,0,0,1-1.455-.809,2.236,2.236,0,0,1-.566-1.373,5.8,5.8,0,0,1,.243-1.953l.174-.637a6.807,6.807,0,0,1,.926-2.074,5.536,5.536,0,0,1,1.409-1.43,5.776,5.776,0,0,1,1.847-.833,8.691,8.691,0,0,1,2.22-.271,6.863,6.863,0,0,1,2.2.283,2.186,2.186,0,0,1,1.194.866A2.52,2.52,0,0,1,230,127.1a8.5,8.5,0,0,1-.335,2.01l-.259.949h-7.3a3.734,3.734,0,0,0-.084,1.232,1.132,1.132,0,0,0,.385.728,1.8,1.8,0,0,0,.883.352,9.48,9.48,0,0,0,1.414.094h3.427l-1.1,1.683Zm1.856-8.007a4.325,4.325,0,0,0-1.02.114,2.71,2.71,0,0,0-.877.385,2.932,2.932,0,0,0-.736.727,4.55,4.55,0,0,0-.582,1.16h4.819a5.555,5.555,0,0,0,.211-1.144,1.2,1.2,0,0,0-.166-.735,1.016,1.016,0,0,0-.6-.392,4.023,4.023,0,0,0-1.051-.114" transform="translate(-185.008 -121.365)" fill="#ddd"/>
          <path id="패스_10526" data-name="패스 10526" d="M236.111,134.316q-2.673,0-3.758-1.16t-.463-3.431l.184-.67a6,6,0,0,1,2.489-3.481,6.848,6.848,0,0,1,1.98-.891,8.6,8.6,0,0,1,2.313-.3,5.1,5.1,0,0,1,3.753,1.144q1.117,1.143.481,3.464l-.174.637a6.118,6.118,0,0,1-.963,2.035,6.022,6.022,0,0,1-1.531,1.462,6.842,6.842,0,0,1-1.985.891,8.771,8.771,0,0,1-2.322.3m.489-1.617a3.655,3.655,0,0,0,2.218-.66,3.944,3.944,0,0,0,1.333-2.23l.228-.833a4.374,4.374,0,0,0,.2-1.509,1.491,1.491,0,0,0-.354-.9,1.513,1.513,0,0,0-.783-.433,4.607,4.607,0,0,0-1.066-.114,3.757,3.757,0,0,0-2.255.66,3.888,3.888,0,0,0-1.352,2.23l-.224.817a4.168,4.168,0,0,0-.189,1.509,1.559,1.559,0,0,0,.371.907,1.541,1.541,0,0,0,.789.442,4.825,4.825,0,0,0,1.084.114" transform="translate(-185.707 -121.357)" fill="#ddd"/>
        </g>
        <g id="그룹_3625" data-name="그룹 3625" transform="translate(35.216 2.938)">
          <path id="패스_10527" data-name="패스 10527" d="M184.927,111.387l.05-.355a1.676,1.676,0,0,1,1.723-1.363,1.207,1.207,0,0,1,1.339,1.061,1.115,1.115,0,0,1,.008.138H189l.2-1.414h.8l-.6,4.2h-.8l.3-2.1h-.955a1.7,1.7,0,0,1-1.687,1.2,1.2,1.2,0,0,1-1.339-1.041A1.226,1.226,0,0,1,184.927,111.387Zm1.384,3.216h3.058l-.094.685h-3.866l.283-1.98h.809Zm-.584-3.514-.034.241a.624.624,0,0,0,.5.722.647.647,0,0,0,.165.008.871.871,0,0,0,.875-.73l.034-.241a.624.624,0,0,0-.5-.723.63.63,0,0,0-.163-.007A.872.872,0,0,0,185.728,111.089Z" transform="translate(-184.915 -109.448)" fill="#ddd"/>
          <path id="패스_10528" data-name="패스 10528" d="M190.72,110.018h2.64l-.094.685h-.911l-.106.749a1.2,1.2,0,0,0,.224.977,8.73,8.73,0,0,0,.705.906l-.6.5c-.207-.254-.429-.526-.587-.754a2.085,2.085,0,0,1-.27-.437h-.006a2.856,2.856,0,0,1-.4.463c-.247.254-.586.577-.883.837l-.454-.526q.5-.433.965-.914a1.634,1.634,0,0,0,.523-1.037l.107-.754h-.949Zm2.779,2.054h-.726l.094-.7h.726l.256-1.8h.765l-.78,5.492h-.765Zm1.491,3.278h-.765l.842-5.9h.765Z" transform="translate(-185.204 -109.448)" fill="#ddd"/>
          <path id="패스_10529" data-name="패스 10529" d="M198.832,112.256l.1-.7a1.733,1.733,0,0,1,1.757-1.707h.014c1.057,0,1.414.692,1.3,1.642h.917l.289-2.036h.809l-.836,5.9h-.809l.45-3.171H201.9l-.011.075a1.731,1.731,0,0,1-1.755,1.707h-.017C199.037,113.963,198.693,113.246,198.832,112.256Zm.857-.609-.074.514c-.1.717.061,1.1.6,1.1s.813-.377.915-1.1l.073-.514c.1-.717-.06-1.1-.6-1.1S199.792,110.93,199.689,111.647Z" transform="translate(-185.709 -109.448)" fill="#ddd"/>
          <path id="패스_10530" data-name="패스 10530" d="M204.955,109.954h2.815l-.094.692h-2.013l-.355,2.5h.484a16.053,16.053,0,0,0,1.973-.127l-.009.685a16.368,16.368,0,0,1-2.254.133h-1.1Zm3.814,5.4h-.809l.836-5.9h.809Z" transform="translate(-186.029 -109.448)" fill="#ddd"/>
          <path id="패스_10531" data-name="패스 10531" d="M213.239,113.34l-.592.539c-.249-.267-.489-.546-.691-.786a2.272,2.272,0,0,1-.391-.566h-.013a3.287,3.287,0,0,1-.566.59c-.271.247-.553.487-.965.824l-.452-.546c.4-.318.771-.634,1.087-.932a1.868,1.868,0,0,0,.667-1.237l.189-1.357h.821l-.189,1.357a1.313,1.313,0,0,0,.283,1.193A11.92,11.92,0,0,0,213.239,113.34Zm-.267-2.112h1.165l.252-1.775h.809l-.836,5.9h-.809l.486-3.424h-1.165Z" transform="translate(-186.324 -109.448)" fill="#ddd"/>
          <path id="패스_10532" data-name="패스 10532" d="M216.476,113.093h.343a16.245,16.245,0,0,0,1.973-.126l-.009.691a16.369,16.369,0,0,1-2.254.133h-.968l.549-3.866h.816Zm3.764-1.611h.816l-.094.7h-.816l-.45,3.171h-.809l.836-5.9h.809Z" transform="translate(-186.666 -109.448)" fill="#ddd"/>
          <path id="패스_10533" data-name="패스 10533" d="M226.759,112.841l-.158,1.116h2.312l-.094.678H223.39l.094-.678H225.8l.158-1.116h-1.575l.412-2.9h3.95l-.411,2.9Zm-1.478-.672h2.344l.221-1.554H225.5Z" transform="translate(-187.114 -109.476)" fill="#ddd"/>
          <path id="패스_10534" data-name="패스 10534" d="M234.74,112.5l-.094.672h-5.427l.094-.672Zm-4.162,2.124h3.21l-.094.679h-4.014l.249-1.757h.8Zm3.644-4.262h-3.039l-.133.943h3.083l-.094.666h-3.88l.322-2.27h3.836Z" transform="translate(-187.447 -109.462)" fill="#ddd"/>
          <path id="패스_10535" data-name="패스 10535" d="M235.267,112.256l.1-.7a1.733,1.733,0,0,1,1.757-1.707h.015c1.083,0,1.428.717,1.287,1.706l-.1.7a1.731,1.731,0,0,1-1.755,1.707h-.017C235.472,113.963,235.128,113.246,235.267,112.256Zm.858-.609-.074.514c-.1.717.061,1.1.6,1.1s.812-.377.914-1.1l.073-.514c.1-.717-.06-1.1-.6-1.1S236.227,110.93,236.125,111.647Zm3.394,3.7h-.809l.836-5.9h.809Z" transform="translate(-187.791 -109.448)" fill="#ddd"/>
          <path id="패스_10536" data-name="패스 10536" d="M242.509,112.25l.094-.685c.152-1.065.66-1.668,1.555-1.668s1.226.6,1.083,1.661h.471l.283-1.986h.764l-.779,5.492h-.765l.4-2.815h-.471c-.152,1.065-.66,1.668-1.555,1.668S242.357,113.316,242.509,112.25Zm.823-.6-.073.507c-.094.691-.009,1.059.43,1.059s.632-.368.729-1.059l.073-.507c.094-.691.009-1.059-.43-1.059s-.63.371-.729,1.058Zm3.808,3.7h-.765l.837-5.9h.765Z" transform="translate(-188.204 -109.448)" fill="#ddd"/>
          <path id="패스_10537" data-name="패스 10537" d="M250.565,111.387a1.1,1.1,0,0,1-.03.165h.714l.283-1.98h.771l-.78,5.492h-.771l.4-2.823h-.816c-.276.6-.839,1.06-2.153,1.877l-.372-.608c1.617-.982,1.854-1.3,1.989-2.252l.077-.546h-1.509l.094-.691h2.293Zm2.152,3.96h-.771l.837-5.9h.77Z" transform="translate(-188.509 -109.448)" fill="#ddd"/>
        </g>
      </g>
      <text id="입지_분석_시스템" data-name="입지 분석 시스템" transform="translate(34 117.943)" fill="#ddd" font-size="26" font-family="NotoSansCJKkr-Bold, Noto Sans CJK KR" font-weight="700" letter-spacing="-0.05em"><tspan x="0" y="0">입지 분석 시스템</tspan></text>
    </g>
  </g>
</svg>
