<svg id="그룹_811" data-name="그룹 811" xmlns="http://www.w3.org/2000/svg" xmlns:xlink="http://www.w3.org/1999/xlink" width="29.333" height="32" viewBox="0 0 29.333 32">
  <defs>
    <clipPath id="clip-path">
      <rect id="사각형_521" data-name="사각형 521" width="29.333" height="32" fill="#1740c2"/>
    </clipPath>
  </defs>
  <g id="그룹_810" data-name="그룹 810" clip-path="url(#clip-path)">
    <path id="패스_761" data-name="패스 761" d="M24.48,5.387a1.385,1.385,0,0,0-1.613.56,1.329,1.329,0,0,0,.613,1.921c.76.385,2.643.725,3.187,1.572v6.453c-.52.855-5.093,2.773-12,2.773s-11.48-1.919-12-2.773V9.44A6.821,6.821,0,0,1,5.733,7.907a1.306,1.306,0,0,0,.733-1.973,1.323,1.323,0,0,0-1.735-.507C1.92,6.347,0,7.68,0,9.333V26.667C0,29.961,7.613,32,14.667,32s14.667-2.039,14.667-5.333V9.333c0-1.68-1.973-3.025-4.853-3.947M26.667,26.56c-.56.867-5.12,2.773-12,2.773s-11.44-1.907-12-2.773V19.067c2.84,1.44,7.533,2.267,12,2.267s9.159-.827,12-2.267ZM21.333,8.067,19.279,6.181,16,9.5V0H13.333V9.492L9.885,6.216,8,8.159l6.667,6.508Z" fill="#1740c2"/>
  </g>
</svg>
