<svg xmlns="http://www.w3.org/2000/svg" xmlns:xlink="http://www.w3.org/1999/xlink" width="26.665" height="32" viewBox="0 0 26.665 32">
  <defs>
    <clipPath id="clip-path">
      <rect id="사각형_536" data-name="사각형 536" width="26.665" height="32" fill="#1740c2"/>
    </clipPath>
  </defs>
  <g id="그룹_848" data-name="그룹 848" clip-path="url(#clip-path)">
    <path id="패스_784" data-name="패스 784" d="M22.757,3.909A13.333,13.333,0,0,0,0,13.333,13.222,13.222,0,0,0,3.888,22.74l8,8.639a2,2,0,0,0,2.891.005l7.981-8.625a13.318,13.318,0,0,0,0-18.849m-1.9,16.984-7.521,8.143L5.793,20.873A10.662,10.662,0,1,1,20.872,5.795a10.655,10.655,0,0,1-.019,15.1M13.328,8a5.333,5.333,0,1,0,5.337,5.333A5.294,5.294,0,0,0,13.328,8m0,8h0A2.667,2.667,0,1,1,16,13.333,2.668,2.668,0,0,1,13.329,16" fill="#1740c2"/>
  </g>
</svg>
