<svg xmlns="http://www.w3.org/2000/svg" xmlns:xlink="http://www.w3.org/1999/xlink" width="32" height="32.005" viewBox="0 0 32 32.005">
  <defs>
    <clipPath id="clip-path">
      <rect id="사각형_503" data-name="사각형 503" width="32" height="32.005" fill="#1740c2"/>
    </clipPath>
  </defs>
  <g id="그룹_782" data-name="그룹 782" clip-path="url(#clip-path)">
    <path id="패스_743" data-name="패스 743" d="M16,29.339A13.332,13.332,0,0,1,12.091,3.26V.509A15.986,15.986,0,1,0,24.225,29.7l-1.942-1.944A13.248,13.248,0,0,1,16,29.339M31.916,14.373A16.02,16.02,0,0,0,17.946.137C17.866.127,17.79.11,17.712.1c-.4-.043-.8-.056-1.206-.069-.135,0-.267-.022-.4-.023h-.061L16,.007l-.033,0L14.761,0V.069h0l0,16.384,11.716,11.73.943-.962a16.031,16.031,0,0,0,3.051-4.41l.032-.07q.324-.7.579-1.421c.027-.076.054-.151.08-.227.146-.438.271-.883.38-1.335.027-.114.058-.226.084-.341.095-.44.167-.886.226-1.336.015-.12.039-.237.052-.357a16.294,16.294,0,0,0,.1-1.716,15.98,15.98,0,0,0-.084-1.635M17.428,2.752a13.192,13.192,0,0,1,3.452.858c.047.018.1.033.142.052.115.047.224.106.337.156L17.428,7.75Zm0,12.6V11.52l6.327-6.327c.079.057.161.109.238.168s.132.1.2.148c.251.2.493.4.73.618.066.059.132.118.2.179.228.214.447.437.658.666.066.071.132.143.2.216.023.026.045.055.068.082l-8.345,8.347ZM19.578,17.5,27.6,9.48c.083.147.171.292.249.443.068.131.129.265.192.4.111.234.221.47.319.712.066.162.122.33.182.5.08.222.161.443.229.67.036.121.062.245.094.367l-7.114,7.114Zm9.674-.1c-.01.1-.025.2-.038.3-.049.389-.114.773-.2,1.151-.015.07-.029.14-.045.21a13.277,13.277,0,0,1-2.579,5.259l-2.758-2.762,5.69-5.69c0,.044.007.086.007.13a13.474,13.474,0,0,1-.079,1.4" fill="#1740c2"/>
  </g>
</svg>
