<svg id="그룹_681" data-name="그룹 681" xmlns="http://www.w3.org/2000/svg" xmlns:xlink="http://www.w3.org/1999/xlink" width="32" height="32" viewBox="0 0 32 32">
  <defs>
    <clipPath id="clip-path">
      <rect id="사각형_447" data-name="사각형 447" width="32" height="32" fill="#1740c2"/>
    </clipPath>
  </defs>
  <path id="패스_703" data-name="패스 703" d="M0,0V30.667L1.333,32H32V29.334H2.667V0Z" transform="translate(0 0)" fill="#1740c2"/>
  <g id="그룹_680" data-name="그룹 680">
    <g id="그룹_679" data-name="그룹 679" clip-path="url(#clip-path)">
      <path id="패스_704" data-name="패스 704" d="M95.564,18.323c-.934-5.878-1.816-11.43-5.833-11.43-2.98,0-4.191,3.1-4.988,7.089a5.31,5.31,0,0,1,2.331,2.081c.566-3.315,1.323-6.5,2.658-6.5,1.741,0,2.549,5.091,3.2,9.181,1,6.32,2.142,13.483,7.421,13.483V29.557c-3,0-3.95-5.969-4.786-11.234" transform="translate(-68.35 -5.56)" fill="#1740c2"/>
      <path id="패스_705" data-name="패스 705" d="M55.144,90.06v2.667c3.116,0,4.837-2.3,5.923-5.467A32.132,32.132,0,0,1,59.99,83.39c-.1-.432-.221-.956-.357-1.484-.771,4.289-1.9,8.154-4.49,8.154" transform="translate(-44.477 -66.063)" fill="#1740c2"/>
      <path id="패스_706" data-name="패스 706" d="M32.982,55.783c.663-2.947,1.19-4.879,2.434-4.879,1.306,0,1.865,1.991,2.566,5.03.855,3.7,1.919,8.3,6.523,8.3V61.57c-2.316,0-3.029-2.357-3.924-6.237-.77-3.327-1.641-7.1-5.165-7.1-3.47,0-4.3,3.7-5.035,6.961-.892,3.965-1.616,6.372-4.134,6.372v2.667c4.833,0,5.932-4.887,6.736-8.454" transform="translate(-21.169 -38.906)" fill="#1740c2"/>
    </g>
  </g>
</svg>
