<svg xmlns="http://www.w3.org/2000/svg" xmlns:xlink="http://www.w3.org/1999/xlink" width="32" height="24.213" viewBox="0 0 32 24.213">
  <defs>
    <clipPath id="clip-path">
      <rect id="사각형_404" data-name="사각형 404" width="32" height="24.213" fill="#1740c2"/>
    </clipPath>
  </defs>
  <g id="그룹_633" data-name="그룹 633" clip-path="url(#clip-path)">
    <path id="패스_673" data-name="패스 673" d="M31.346,11.391,24.564,3.543A12.075,12.075,0,0,0,16,0h0A12.076,12.076,0,0,0,7.437,3.543L.655,11.391a2.689,2.689,0,0,0,.3,3.816L7.437,20.67A12.075,12.075,0,0,0,16,24.213h0a12.076,12.076,0,0,0,8.565-3.543l6.481-5.463a2.689,2.689,0,0,0,.3-3.816M22.83,18.612l-.087.074-.081.082a9.431,9.431,0,0,1-13.322,0l-.081-.081-.087-.075L2.69,13.15,9.405,5.382A9.351,9.351,0,0,1,16,2.69h0A9.351,9.351,0,0,1,22.6,5.382l6.715,7.768ZM16,5.381a6.726,6.726,0,1,0,6.726,6.726A6.725,6.725,0,0,0,16,5.381m0,10.761a4.035,4.035,0,1,1,4.035-4.035A4.04,4.04,0,0,1,16,16.142" transform="translate(0)" fill="#1740c2"/>
  </g>
</svg>
