<svg id="그룹_804" data-name="그룹 804" xmlns="http://www.w3.org/2000/svg" xmlns:xlink="http://www.w3.org/1999/xlink" width="26.667" height="32" viewBox="0 0 26.667 32">
  <defs>
    <clipPath id="clip-path">
      <rect id="사각형_514" data-name="사각형 514" width="26.667" height="32" fill="#1740c2"/>
    </clipPath>
  </defs>
  <g id="그룹_803" data-name="그룹 803" clip-path="url(#clip-path)">
    <path id="패스_754" data-name="패스 754" d="M13.333,0A13.328,13.328,0,0,0,8,25.545v1.121a5.333,5.333,0,0,0,10.667,0V25.545A13.328,13.328,0,0,0,13.333,0M16,26.667a2.667,2.667,0,0,1-5.333,0V26.4A13.4,13.4,0,0,0,16,26.4ZM13.333,24A10.667,10.667,0,1,1,24,13.333,10.679,10.679,0,0,1,13.333,24M12,20h2.667V17.333H12Zm0-5.339h2.667V6.667H12Z" fill="#1740c2"/>
  </g>
</svg>
