<svg xmlns="http://www.w3.org/2000/svg" width="32" height="31.999" viewBox="0 0 32 31.999">
  <path id="패스_707" data-name="패스 707" d="M16,0,9.4,6.6l1.885,1.887,3.38-3.38v9.562H5.1l3.381-3.381L6.6,9.4,1.333,14.667,0,16l6.6,6.6,1.885-1.885L5.1,17.334h9.562v9.56l-3.38-3.381L9.4,25.4l5.265,5.268L16,32l1.333-1.333L22.6,25.4l-1.885-1.885-3.38,3.381v-9.56h9.562l-3.381,3.38L25.4,22.6l5.268-5.265L32,16l-1.333-1.333L25.4,9.4l-1.885,1.885,3.381,3.381H17.332V5.1l3.38,3.38L22.6,6.6Z" transform="translate(0 0)" fill="#1740c2"/>
</svg>
