<svg id="그룹_798" data-name="그룹 798" xmlns="http://www.w3.org/2000/svg" xmlns:xlink="http://www.w3.org/1999/xlink" width="34" height="25.726" viewBox="0 0 34 25.726">
  <defs>
    <clipPath id="clip-path">
      <rect id="사각형_512" data-name="사각형 512" width="34" height="25.726" fill="#1740c2"/>
    </clipPath>
  </defs>
  <g id="그룹_797" data-name="그룹 797" clip-path="url(#clip-path)">
    <path id="패스_752" data-name="패스 752" d="M33.305,12.1,26.1,3.765A12.829,12.829,0,0,0,17,0h0A12.831,12.831,0,0,0,7.9,3.765L.7,12.1a2.857,2.857,0,0,0,.32,4.055l6.886,5.8A12.829,12.829,0,0,0,17,25.726h0a12.83,12.83,0,0,0,9.1-3.765l6.886-5.8a2.857,2.857,0,0,0,.32-4.055m-9.048,7.672-.093.079-.086.087a10.02,10.02,0,0,1-14.155,0l-.086-.086-.093-.08-6.886-5.8L9.993,5.718A9.936,9.936,0,0,1,17,2.858h0a9.935,9.935,0,0,1,7,2.86l7.135,8.254ZM17,5.717a7.146,7.146,0,1,0,7.146,7.146A7.145,7.145,0,0,0,17,5.717m0,11.434a4.288,4.288,0,1,1,4.288-4.288A4.293,4.293,0,0,1,17,17.151" transform="translate(0)" fill="#1740c2"/>
  </g>
</svg>
