<svg id="그룹_678" data-name="그룹 678" xmlns="http://www.w3.org/2000/svg" xmlns:xlink="http://www.w3.org/1999/xlink" width="32" height="32" viewBox="0 0 32 32">
  <defs>
    <clipPath id="clip-path">
      <rect id="사각형_446" data-name="사각형 446" width="32" height="32" fill="#1740c2"/>
    </clipPath>
  </defs>
  <g id="그룹_677" data-name="그룹 677" clip-path="url(#clip-path)">
    <path id="패스_702" data-name="패스 702" d="M17.231,5.692A9.329,9.329,0,0,0,5.692,12.1a1.334,1.334,0,0,0,.917,1.648,1.246,1.246,0,0,0,.367.053,1.336,1.336,0,0,0,1.281-.967A6.66,6.66,0,0,1,16.5,8.256a1.334,1.334,0,0,0,.735-2.564M30.577,23.033l-2.487-2.487A14.646,14.646,0,0,0,14.664,0a14.666,14.666,0,0,0,0,29.332,14.562,14.562,0,0,0,5.883-1.241l2.487,2.485A4.907,4.907,0,0,0,26.528,32a5.46,5.46,0,0,0,3.853-1.62,5.207,5.207,0,0,0,.2-7.347M14.665,26.665a12,12,0,1,1,12-12,12.012,12.012,0,0,1-12,12M28.5,28.495a2.54,2.54,0,0,1-3.576.195l-1.951-1.947a14.755,14.755,0,0,0,3.772-3.775l1.949,1.951a2.543,2.543,0,0,1-.195,3.576" fill="#1740c2"/>
  </g>
</svg>
