<svg id="그룹_594" data-name="그룹 594" xmlns="http://www.w3.org/2000/svg" xmlns:xlink="http://www.w3.org/1999/xlink" width="29.333" height="32" viewBox="0 0 29.333 32">
  <defs>
    <clipPath id="clip-path">
      <rect id="사각형_372" data-name="사각형 372" width="29.333" height="32" fill="#1740c2"/>
    </clipPath>
  </defs>
  <g id="그룹_593" data-name="그룹 593" clip-path="url(#clip-path)">
    <path id="패스_645" data-name="패스 645" d="M14.667,0A14.683,14.683,0,0,0,0,14.667,14.492,14.492,0,0,0,5.333,25.937v3.009l.589.395a15.708,15.708,0,0,0,17.488,0L24,28.947V25.937a14.492,14.492,0,0,0,5.333-11.271A14.684,14.684,0,0,0,14.667,0M24,22.2V20H21.333v7.5a12.5,12.5,0,0,1-2.667,1.164V24H16v5.216a13.708,13.708,0,0,1-2.667,0V24H10.667v4.665A12.5,12.5,0,0,1,8,27.5V20H5.333v2.2a11.864,11.864,0,0,1-2.667-7.531,12,12,0,0,1,24,0A11.864,11.864,0,0,1,24,22.2m-10.667-.864H16V16H13.333ZM20,8a4,4,0,1,0,4,4,4,4,0,0,0-4-4m1.333,5.333H18.667V10.667h2.667ZM9.333,8a4,4,0,1,0,4,4,4,4,0,0,0-4-4m1.333,5.333H8V10.667h2.667Z" fill="#1740c2"/>
  </g>
</svg>
