<svg xmlns="http://www.w3.org/2000/svg" xmlns:xlink="http://www.w3.org/1999/xlink" width="32" height="32.001" viewBox="0 0 32 32.001">
  <defs>
    <clipPath id="clip-path">
      <rect id="사각형_414" data-name="사각형 414" width="32" height="32.001" fill="#1740c2"/>
    </clipPath>
  </defs>
  <g id="그룹_662" data-name="그룹 662" clip-path="url(#clip-path)">
    <path id="패스_693" data-name="패스 693" d="M28,2.667a3.99,3.99,0,0,0-1.318,7.76v1.76l-2.057,2.057-1.635-1.635a9.8,9.8,0,0,0-5.641-2.783V7.756a4,4,0,1,0-2.667,0v2.07a9.8,9.8,0,0,0-5.64,2.783L7.406,14.244,5.348,12.187V10.418a4,4,0,1,0-2.667.009v2.864l2.838,2.838L3.07,18.578v1.886l3.592,3.592-3.98,3.98V32H5.348v-2.86l3.2-3.2.493.493a9.8,9.8,0,0,0,5.626,2.782V32h2.667v-2.78a9.8,9.8,0,0,0,5.656-2.786l.493-.493,3.2,3.2V32h2.667V28.037l-3.98-3.981,3.591-3.592V18.578L26.51,16.129l2.838-2.838V10.418A3.991,3.991,0,0,0,28,2.667M4,8A1.334,1.334,0,1,1,5.334,6.668,1.335,1.335,0,0,1,4,8M16.014,2.667A1.334,1.334,0,1,1,14.681,4a1.335,1.335,0,0,1,1.334-1.334M21.1,24.549a7.206,7.206,0,0,1-10.177,0L5.9,19.521l5.028-5.027a7.206,7.206,0,0,1,10.177,0l5.027,5.027ZM28,8a1.334,1.334,0,1,1,1.334-1.334A1.335,1.335,0,0,1,28,8M12.243,15.75a5.334,5.334,0,1,0,7.544,0,5.343,5.343,0,0,0-7.544,0M17.9,21.408a2.665,2.665,0,1,1,0-3.773,2.673,2.673,0,0,1,0,3.773" fill="#1740c2"/>
  </g>
</svg>
