<svg xmlns="http://www.w3.org/2000/svg" width="28" height="28" viewBox="0 0 28 28">
  <path id="패스_653" data-name="패스 653" d="M2.333,23.333H4.667v2.333H2.333ZM0,28H7V21H0Zm12.833-4.667h2.333v2.333H12.833ZM10.5,28h7V21h-7Zm12.833-4.667h2.333v2.333H23.333ZM21,28h7V21H21ZM2.333,12.833H4.667v2.333H2.333ZM0,17.5H7v-7H0Zm12.833-4.667h2.333v2.333H12.833ZM10.5,17.5h7v-7h-7Zm12.833-4.667h2.333v2.333H23.333ZM21,17.5h7v-7H21ZM2.333,2.333H4.667V4.667H2.333ZM0,7H7V0H0ZM12.833,2.333h2.333V4.667H12.833ZM10.5,7h7V0h-7ZM23.333,2.333h2.333V4.667H23.333ZM21,7h7V0H21Z" fill="#1740c2"/>
</svg>
