<svg xmlns="http://www.w3.org/2000/svg" xmlns:xlink="http://www.w3.org/1999/xlink" width="32" height="32" viewBox="0 0 32 32">
  <defs>
    <clipPath id="clip-path">
      <rect id="사각형_359" data-name="사각형 359" width="32" height="32" fill="#1740c2"/>
    </clipPath>
  </defs>
  <g id="그룹_586" data-name="그룹 586" clip-path="url(#clip-path)">
    <path id="패스_640" data-name="패스 640" d="M26.667,0a5.339,5.339,0,0,0-5.333,5.333,5.27,5.27,0,0,0,.283,1.633L19.068,8.588a9.326,9.326,0,1,0-9.575,15.06,9.238,9.238,0,0,1,.864-2.543,6.648,6.648,0,1,1,8.173-5.1c.047,0,.089-.007.136-.007a9.269,9.269,0,0,1,2.507.352,9.155,9.155,0,0,0-.671-5.515L23.04,9.221A5.327,5.327,0,1,0,26.667,0m0,8a2.667,2.667,0,1,1,2.667-2.667A2.67,2.67,0,0,1,26.667,8m-24-2.667A2.655,2.655,0,0,1,7.348,3.605a11.839,11.839,0,0,1,2.673-.761A5.316,5.316,0,1,0,1.445,8.96,12,12,0,0,1,3.055,6.7a2.627,2.627,0,0,1-.388-1.363m16,13.333a6.667,6.667,0,1,0,6.667,6.667,6.674,6.674,0,0,0-6.667-6.667m0,10.667a4,4,0,1,1,4-4,4,4,0,0,1-4,4" fill="#1740c2"/>
  </g>
</svg>
