<svg xmlns="http://www.w3.org/2000/svg" xmlns:xlink="http://www.w3.org/1999/xlink" width="32" height="32" viewBox="0 0 32 32">
  <defs>
    <clipPath id="clip-path">
      <rect id="사각형_528" data-name="사각형 528" width="32" height="32" fill="#1740c2"/>
    </clipPath>
  </defs>
  <g id="그룹_832" data-name="그룹 832" transform="translate(0 0)">
    <rect id="사각형_527" data-name="사각형 527" width="13.199" height="2.667" transform="translate(20.391 11.056) rotate(-45)" fill="#1740c2"/>
    <g id="그룹_831" data-name="그룹 831" transform="translate(0 0)">
      <g id="그룹_830" data-name="그룹 830" clip-path="url(#clip-path)">
        <path id="패스_775" data-name="패스 775" d="M15.39,15.708,6.307,24.791a1.583,1.583,0,0,1-2.188,0,1.55,1.55,0,0,1,0-2.188l9.03-9.028a7.274,7.274,0,0,0-2.46-1.311L2.233,20.718a4.214,4.214,0,1,0,5.959,5.959l9.083-9.083Z" transform="translate(0.334 4.089)" fill="#1740c2"/>
        <path id="패스_776" data-name="패스 776" d="M28,32a4.448,4.448,0,0,1-3.188-1.229L13.13,19.089a5.961,5.961,0,0,0-4.239-1.757H8.666a8.837,8.837,0,0,1-2.16-.271A8.658,8.658,0,0,1,.729,5.187L1.161,4.2a.612.612,0,0,1,1-.179L7,9.042a1.477,1.477,0,0,0,2.06.019A1.442,1.442,0,0,0,9.038,7L4.024,2.165a.612.612,0,0,1,.179-1L5.187.731A8.658,8.658,0,0,1,17.061,6.5,8.831,8.831,0,0,1,17.331,8.8a6.02,6.02,0,0,0,1.757,4.327L30.771,24.812A4.331,4.331,0,0,1,32,28a4.214,4.214,0,0,1-4,4M8.891,14.665A8.609,8.609,0,0,1,15.015,17.2L26.7,28.885a1.828,1.828,0,0,0,1.3.448,1.363,1.363,0,0,0,.9-.461A1.339,1.339,0,0,0,29.333,28a1.645,1.645,0,0,0-.448-1.3L17.2,15.015a8.7,8.7,0,0,1-2.537-6.256,6.129,6.129,0,0,0-.191-1.611A5.955,5.955,0,0,0,10.039,2.82a6.258,6.258,0,0,0-1.648-.148l2.5,2.409a4.11,4.11,0,0,1,.052,5.864,4.206,4.206,0,0,1-5.866-.055l-2.4-2.5a6.217,6.217,0,0,0,.147,1.647,5.956,5.956,0,0,0,4.334,4.434,6.192,6.192,0,0,0,1.512.191Z" transform="translate(0 0)" fill="#1740c2"/>
      </g>
    </g>
  </g>
</svg>
