<svg xmlns="http://www.w3.org/2000/svg" xmlns:xlink="http://www.w3.org/1999/xlink" width="30" height="35.505" viewBox="0 0 30 35.505">
  <defs>
    <clipPath id="clip-path">
      <rect id="사각형_357" data-name="사각형 357" width="30" height="35.505" fill="#1740c2"/>
    </clipPath>
  </defs>
  <g id="그룹_582" data-name="그룹 582" clip-path="url(#clip-path)">
    <path id="패스_637" data-name="패스 637" d="M20.918,7.4H22.4V4.438H17.959V16.273h2.959ZM10.563,25.149a1.479,1.479,0,1,0,1.479-1.479,1.478,1.478,0,0,0-1.479,1.479M15,2.959a1.479,1.479,0,1,0-1.479-1.479A1.479,1.479,0,0,0,15,2.959m4.438,25.149a1.479,1.479,0,1,0-1.479,1.479,1.48,1.48,0,0,0,1.479-1.479m4.36-7.443a2.974,2.974,0,0,0-2.536-1.434h-7.3L12.186,22.19h9.079l5.364,8.941-.709,1.414H4.08l-.709-1.414,8.671-14.447V4.438H7.6V7.4H9.083v8.466L0,31l2.25,4.5h25.5L30,31Z" fill="#1740c2"/>
  </g>
</svg>
