<svg id="그룹_628" data-name="그룹 628" xmlns="http://www.w3.org/2000/svg" xmlns:xlink="http://www.w3.org/1999/xlink" width="32" height="32" viewBox="0 0 32 32">
  <defs>
    <clipPath id="clip-path">
      <rect id="사각형_402" data-name="사각형 402" width="32" height="32" fill="#1740c2"/>
    </clipPath>
  </defs>
  <g id="그룹_627" data-name="그룹 627" clip-path="url(#clip-path)">
    <path id="패스_670" data-name="패스 670" d="M30.667,25.333H21.144a5.307,5.307,0,0,0-10.287,0H1.333a1.333,1.333,0,1,0,0,2.667h9.524a5.307,5.307,0,0,0,10.287,0h9.523a1.333,1.333,0,0,0,0-2.667M16,29.333a2.667,2.667,0,1,1,2.667-2.667A2.67,2.67,0,0,1,16,29.333M9.333,20H22.667A6.667,6.667,0,0,0,25.06,7.111a9.327,9.327,0,0,0-18.12,0A6.667,6.667,0,0,0,9.333,20M8.4,9.444l.876-.209.133-.892a6.66,6.66,0,0,1,13.175,0l.132.892.877.209a4,4,0,0,1-.931,7.889H9.333A4,4,0,0,1,8.4,9.444" fill="#1740c2"/>
  </g>
</svg>
