<svg xmlns="http://www.w3.org/2000/svg" xmlns:xlink="http://www.w3.org/1999/xlink" width="30" height="27.5" viewBox="0 0 30 27.5">
  <defs>
    <clipPath id="clip-path">
      <rect id="사각형_406" data-name="사각형 406" width="30" height="27.5" fill="#1740c2"/>
    </clipPath>
  </defs>
  <g id="그룹_637" data-name="그룹 637" clip-path="url(#clip-path)">
    <path id="패스_675" data-name="패스 675" d="M26.25,0H3.75A3.755,3.755,0,0,0,0,3.75v15A3.755,3.755,0,0,0,3.75,22.5H21.624a1.258,1.258,0,0,1,.78.274l5.565,4.453A1.25,1.25,0,0,0,30,26.25V3.75A3.755,3.755,0,0,0,26.25,0M27.5,23.649l-3.534-2.826A3.758,3.758,0,0,0,21.624,20H3.75A1.251,1.251,0,0,1,2.5,18.75v-15A1.251,1.251,0,0,1,3.75,2.5h22.5A1.251,1.251,0,0,1,27.5,3.75ZM8.75,12.5h2.5V10H8.75Zm10,0h2.5V10h-2.5Zm-5,0h2.5V10h-2.5Z" fill="#1740c2"/>
  </g>
</svg>
