<svg id="그룹_620" data-name="그룹 620" xmlns="http://www.w3.org/2000/svg" xmlns:xlink="http://www.w3.org/1999/xlink" width="32" height="32" viewBox="0 0 32 32">
  <defs>
    <clipPath id="clip-path">
      <rect id="사각형_398" data-name="사각형 398" width="32" height="32" fill="#1740c2"/>
    </clipPath>
  </defs>
  <g id="그룹_619" data-name="그룹 619" clip-path="url(#clip-path)">
    <path id="패스_665" data-name="패스 665" d="M14.241,8.547a1.341,1.341,0,0,0,1.319.805,6.466,6.466,0,0,1,3.3.635,1.36,1.36,0,0,0,.581.132,1.327,1.327,0,0,0,.941-.391l4.875-4.872a1.341,1.341,0,0,0,.385-1.063,1.327,1.327,0,0,0-.571-.976A16.012,16.012,0,0,0,16,0a15.8,15.8,0,0,0-3.539.4,1.333,1.333,0,0,0-.928,1.824Zm7.928-4.376-3.043,3.04a9.31,9.31,0,0,0-2.784-.536L14.656,2.732a13.273,13.273,0,0,1,7.513,1.439M9.68,18.12a6.625,6.625,0,0,1,1.6-6.833c.044-.045.088-.091.136-.132A1.328,1.328,0,0,0,11.8,9.6L9.085,3.264a1.332,1.332,0,0,0-1.967-.583,16.237,16.237,0,0,0-2.437,2A16.032,16.032,0,0,0,1.815,23.415a1.333,1.333,0,0,0,.9.684,1.234,1.234,0,0,0,.28.031,1.334,1.334,0,0,0,.823-.285l5.42-4.251A1.333,1.333,0,0,0,9.68,18.12m-2.787-.076L3.509,20.7A13.278,13.278,0,0,1,6.567,6.571c.237-.239.487-.468.74-.687L9,9.827a9.268,9.268,0,0,0-2.1,8.217M29.179,6.927a1.326,1.326,0,0,0-.976-.572,1.347,1.347,0,0,0-1.063.385l-4.872,4.876a1.333,1.333,0,0,0-.259,1.523,6.666,6.666,0,0,1-9.6,8.484,1.332,1.332,0,0,0-1.537.076L5.463,25.941A1.331,1.331,0,0,0,5.4,27.988,16,16,0,0,0,29.179,6.927m-3.755,18.5A13.328,13.328,0,0,1,8.448,26.991l3.372-2.644A9.33,9.33,0,0,0,24.785,12.869l3.037-3.04a13.326,13.326,0,0,1-2.4,15.6" transform="translate(0 0)" fill="#1740c2"/>
  </g>
</svg>
