<svg xmlns="http://www.w3.org/2000/svg" xmlns:xlink="http://www.w3.org/1999/xlink" width="34" height="33.804" viewBox="0 0 34 33.804">
  <defs>
    <clipPath id="clip-path">
      <rect id="사각형_387" data-name="사각형 387" width="34" height="33.804" fill="#1740c2"/>
    </clipPath>
  </defs>
  <g id="그룹_608" data-name="그룹 608" transform="translate(0 0)">
    <g id="그룹_607" data-name="그룹 607" transform="translate(0 0)" clip-path="url(#clip-path)">
      <path id="패스_657" data-name="패스 657" d="M29.069,4.734C25.781,1.424,21.261,0,19.843,0a1.418,1.418,0,0,0-.285,2.806,14.145,14.145,0,0,1,11.58,12.515c.143,1.069.727,1.474,1.461,1.474a1.394,1.394,0,0,0,1.373-1.7,16.932,16.932,0,0,0-4.9-10.361M18.775,6.6a1.417,1.417,0,1,0-.649,2.758,8.644,8.644,0,0,1,6.317,6.317,1.417,1.417,0,1,0,2.76-.646A11.517,11.517,0,0,0,18.775,6.6m.653,9.777a1.417,1.417,0,1,0-2-2l-1.253,1.253L7.151,6.608,4.143,9.615A14.174,14.174,0,0,0,24.188,29.66L27.2,26.654l-9.02-9.02Zm3.759,10.273-1,1A11.338,11.338,0,0,1,6.149,11.621l1-1Z" transform="translate(0 0)" fill="#1740c2"/>
    </g>
  </g>
</svg>
