<svg xmlns="http://www.w3.org/2000/svg" xmlns:xlink="http://www.w3.org/1999/xlink" width="31.17" height="32" viewBox="0 0 31.17 32">
  <defs>
    <clipPath id="clip-path">
      <rect id="사각형_533" data-name="사각형 533" width="31.17" height="32" fill="#1740c2"/>
    </clipPath>
  </defs>
  <g id="그룹_839" data-name="그룹 839" transform="translate(0 0)">
    <g id="그룹_838" data-name="그룹 838" transform="translate(0 0)" clip-path="url(#clip-path)">
      <path id="패스_779" data-name="패스 779" d="M25.746,15.08c-.6,6.075-4.176,10.392-11.387,13.768C6.422,25.139,2.872,20.291,2.872,13.2V5.968c.474.032.953.049,1.436.049A20.066,20.066,0,0,0,14.359,3.39,19.844,19.844,0,0,0,22.7,5.94L25.541,3.1c-.375.023-.751.042-1.13.042A17.074,17.074,0,0,1,15.136.5L14.359,0l-.777.5A17.077,17.077,0,0,1,4.308,3.145a17.457,17.457,0,0,1-2.654-.2L0,2.691V13.2C0,24.282,7.859,29.088,13.772,31.737l.587.263.587-.263c5.912-2.655,13.772-7.465,13.772-18.541V12.108Z" transform="translate(0 0)" fill="#1740c2"/>
      <path id="패스_780" data-name="패스 780" d="M12.557,21.218,4.375,14.659,6.17,12.418l6.177,4.95L27.233,2.482l2.03,2.03Z" transform="translate(1.907 1.082)" fill="#1740c2"/>
    </g>
  </g>
</svg>
