<svg id="그룹_644" data-name="그룹 644" xmlns="http://www.w3.org/2000/svg" xmlns:xlink="http://www.w3.org/1999/xlink" width="30" height="30" viewBox="0 0 30 30">
  <defs>
    <clipPath id="clip-path">
      <rect id="사각형_408" data-name="사각형 408" width="30" height="30" fill="#1740c2"/>
    </clipPath>
  </defs>
  <g id="그룹_643" data-name="그룹 643" clip-path="url(#clip-path)">
    <path id="패스_678" data-name="패스 678" d="M13.75,20.059a14.9,14.9,0,0,0-8.1,3.22,12.443,12.443,0,0,1-3.086-7.028l9.9,0v-2.5l-9.9,0A12.435,12.435,0,0,1,5.656,6.726,14.922,14.922,0,0,0,15,10a14.922,14.922,0,0,0,9.344-3.274A12.434,12.434,0,0,1,27.5,15H30A15,15,0,1,0,15,30h1.25V13.75h-2.5Zm2.5-17.5a12.414,12.414,0,0,1,6.227,2.444A12.418,12.418,0,0,1,16.25,7.436Zm-2.5,0V7.436A12.419,12.419,0,0,1,7.522,5.007,12.415,12.415,0,0,1,13.75,2.563m0,24.874A12.426,12.426,0,0,1,7.514,25a12.42,12.42,0,0,1,6.236-2.434ZM22.916,30h2.5V11.25h-2.5Zm-4.582,0h2.5V16.528h-2.5ZM27.5,30H30V21.25H27.5Z" fill="#1740c2"/>
  </g>
</svg>
