<svg id="그룹_612" data-name="그룹 612" xmlns="http://www.w3.org/2000/svg" xmlns:xlink="http://www.w3.org/1999/xlink" width="32" height="32" viewBox="0 0 32 32">
  <defs>
    <clipPath id="clip-path">
      <rect id="사각형_389" data-name="사각형 389" width="32" height="32" fill="#1740c2"/>
    </clipPath>
  </defs>
  <g id="그룹_611" data-name="그룹 611" clip-path="url(#clip-path)">
    <path id="패스_659" data-name="패스 659" d="M16,29.333A13.333,13.333,0,0,1,12,3.282V.527a15.977,15.977,0,0,0,6.086,31.321L17.049,29.28c-.347.027-.7.053-1.049.053M16,0c-.45,0-.893.031-1.333.068l0,9.4a6.66,6.66,0,1,0,2.54,13.076l3.523,8.74A16,16,0,0,0,16,0m1.337,2.734a13.272,13.272,0,0,1,7.091,2.945l-4.757,4.766a6.623,6.623,0,0,0-2.335-.976ZM16,20a4,4,0,1,1,4-4,4,4,0,0,1-4,4m6.2,7.779-2.516-6.231a6.64,6.64,0,0,0,1.872-9.217l4.758-4.767A13.294,13.294,0,0,1,22.2,27.779" fill="#1740c2"/>
  </g>
</svg>
