<svg id="구성_요소_205_1" data-name="구성 요소 205 – 1" xmlns="http://www.w3.org/2000/svg" xmlns:xlink="http://www.w3.org/1999/xlink" width="208.725" height="168.757" viewBox="0 0 208.725 168.757">
  <defs>
    <clipPath id="clip-path">
      <rect id="사각형_4119" data-name="사각형 4119" width="74" height="109" transform="translate(7.391 -1.333)" fill="#fff"/>
    </clipPath>
  </defs>
  <g id="그룹_5459" data-name="그룹 5459" transform="translate(19.609 9.059)">
    <path id="패스_8697" data-name="패스 8697" d="M194.677,157.852c-9.759-21.448.578-26.045,9.608-47.426,9.408-22.277,3.271-37.25-12.811-46.593-21.785-12.657-42.83,5.986-64.965,5.986-36.146,0-32.686-23.482-70.014-21.28-25.9,1.528-45.98,33.2-38.274,54.281,6.581,18,5.6,30.937-9.107,48.216C-8.535,171.764.745,199.7,25.8,199.7H176.191c21.933,0,27.244-22.6,18.486-41.847" transform="translate(-19.609 -57.452)" fill="#eef8f6"/>
    <g id="그룹_5460" data-name="그룹 5460">
      <g id="마스크_그룹_22" data-name="마스크 그룹 22" clip-path="url(#clip-path)">
        <g id="그룹_5462" data-name="그룹 5462" transform="translate(0 109)">
          <path id="패스_8698" data-name="패스 8698" d="M98.421,43.332A4.838,4.838,0,0,1,100.029,48a6.552,6.552,0,0,1-2.111,3.336,10.452,10.452,0,0,1-5.179,2.536l.694-.232a3.248,3.248,0,0,1-2.919-1.786,6.1,6.1,0,0,1-.546-3.52c.234-2.339,1.407-4.767,3.565-5.7a4.839,4.839,0,0,1,4.889.7" transform="translate(-50.75 -23.854)" fill="#d8cdc0"/>
          <path id="패스_8699" data-name="패스 8699" d="M61.2,74.125a7.508,7.508,0,0,1,1.955.312,7.039,7.039,0,0,1,3.862,3.511A20.906,20.906,0,0,1,68.7,83.01l-.246,1a12.6,12.6,0,0,1-8.08-.471,5.491,5.491,0,0,1-1.562-.9,6.528,6.528,0,0,1-1.724-4.023,4.534,4.534,0,0,1,.248-3c.734-1.255,2.413-1.56,3.866-1.494" transform="translate(-32.145 -41.831)" fill="#d8cdc0"/>
          <path id="패스_8700" data-name="패스 8700" d="M92.959,79.637c1.6-.048,3.473.528,3.984,2.046a3.43,3.43,0,0,1-.746,3.078,8.106,8.106,0,0,1-5.591,2.827,24.029,24.029,0,0,1-6.4-.437l-.3-.249a9.923,9.923,0,0,1,9.054-7.266" transform="translate(-47.355 -44.945)" fill="#d8cdc0"/>
          <path id="패스_8701" data-name="패스 8701" d="M89.8,114a6.353,6.353,0,0,1,2.427-.907,4.46,4.46,0,0,1,3.528,1.536,4.913,4.913,0,0,1-.123,7,7.672,7.672,0,0,1-5.256,2.251,14.421,14.421,0,0,1-5.721-1.078l-.169-.688a11.97,11.97,0,0,1,1.934-5.548A10.749,10.749,0,0,1,89.8,114" transform="translate(-47.684 -63.824)" fill="#d8cdc0"/>
          <path id="패스_8702" data-name="패스 8702" d="M56.458,116.128a9.458,9.458,0,0,1,10.084,8.244l.1.05a6.825,6.825,0,0,1-4.528,2.026,11.831,11.831,0,0,1-5.51-1.474c-1.421-.678-2.948-1.6-3.315-3.135a5.65,5.65,0,0,1-.07-1.6c.063-1.242.2-2.635,1.16-3.426a3.669,3.669,0,0,1,2.083-.685" transform="translate(-30.021 -65.528)" fill="#d8cdc0"/>
          <path id="패스_8703" data-name="패스 8703" d="M98.51,147.828a3.455,3.455,0,0,1,1.8,1.8c.508,1.388-.308,2.9-1.253,4.04A16.033,16.033,0,0,1,90.46,159l-.565-.163a17.613,17.613,0,0,1,.437-6.549,8.516,8.516,0,0,1,.957-2.392,5.806,5.806,0,0,1,7.22-2.063" transform="translate(-50.664 -83.136)" fill="#d8cdc0"/>
          <path id="패스_8704" data-name="패스 8704" d="M64.654,152.941a9.409,9.409,0,0,1,2.262.638A7.961,7.961,0,0,1,70.3,157.02c.808,1.421,1.387,2.961,2.177,4.392l-.216.055c-1.224,1.568-3.524,1.675-5.511,1.558-2.423-.143-5.133-.576-6.566-2.536a6.6,6.6,0,0,1-1.082-3.648,4.338,4.338,0,0,1,.739-2.979c1.1-1.324,3.127-1.233,4.816-.922" transform="translate(-33.35 -86.209)" fill="#d8cdc0"/>
          <path id="패스_8705" data-name="패스 8705" d="M94.6,184.109a11.169,11.169,0,0,1,3.31-2.883,6.647,6.647,0,0,1,7.245.935,3.98,3.98,0,0,1,1.5,3.393c-.247,1.68-1.89,2.739-3.387,3.541-2.149,1.15-4.669,2.258-6.94,1.375a8.779,8.779,0,0,1-1.755-1.017l-1.577-1.083-.274-.267a5.733,5.733,0,0,1,.663-2.3,10,10,0,0,1,1.221-1.7" transform="translate(-52.328 -101.903)" fill="#d8cdc0"/>
          <path id="패스_8706" data-name="패스 8706" d="M66.628,186.323a12.831,12.831,0,0,1,8.662,5.822l-1.052-.239a3.934,3.934,0,0,1-2.467,3.023,10.064,10.064,0,0,1-4.016.615c-1.816,0-3.839-.18-5.059-1.525a5.713,5.713,0,0,1-1.106-4.215,4.4,4.4,0,0,1,.589-2.21c.906-1.36,2.839-1.541,4.45-1.27" transform="translate(-34.75 -105.099)" fill="#d8cdc0"/>
          <path id="패스_8707" data-name="패스 8707" d="M62.014,80.168a40.435,40.435,0,0,1,4.544,3.547,24.074,24.074,0,0,0,4.9,2.982.156.156,0,0,1-.1.293,12.466,12.466,0,0,1-4.867-2.7,35.647,35.647,0,0,1-4.659-3.913c-.109-.122.051-.282.182-.206" transform="translate(-34.877 -45.235)" fill="#fff"/>
          <path id="패스_8708" data-name="패스 8708" d="M85.661,90.593c1.6.442,3.7-.794,5.182-1.4,1.221-.5,2.409-1.106,3.665-1.515.175-.057.234.2.1.288a34.7,34.7,0,0,1-5.685,2.48c-1.109.421-2.212.966-3.352.415a.141.141,0,0,1,.093-.265" transform="translate(-48.244 -49.479)" fill="#fff"/>
          <path id="패스_8709" data-name="패스 8709" d="M93.82,121.633c.213-.043.344.3.126.374a15.8,15.8,0,0,0-5.622,2.97c-1.013.884-1.9,2.146-3.247,2.507-.082.022-.111-.084-.065-.135,2.251-2.542,5.412-5.042,8.808-5.716" transform="translate(-47.967 -68.647)" fill="#fff"/>
          <path id="패스_8710" data-name="패스 8710" d="M55.711,125.691a12.069,12.069,0,0,1,5.755,1.142c2.15,1.092,3.641,2.5,6.217,2.466a.152.152,0,0,1,.017.3,6.861,6.861,0,0,1-4.637-1.211,12.978,12.978,0,0,0-3.384-1.721c-1.3-.37-2.666-.423-3.99-.686a.145.145,0,0,1,.024-.289" transform="translate(-31.358 -70.935)" fill="#fff"/>
          <path id="패스_8711" data-name="패스 8711" d="M92.879,157.68a14.219,14.219,0,0,1,4.132-3.47.076.076,0,0,1,.082.125,40.573,40.573,0,0,0-5.318,5.557c-.686.988-1.347,2.766-2.823,2.467a.163.163,0,0,1-.018-.321c1.735-.371,2.827-3.087,3.944-4.359" transform="translate(-50.123 -87.03)" fill="#fff"/>
          <path id="패스_8712" data-name="패스 8712" d="M64.087,160.049a16.778,16.778,0,0,1,4.851,1.724c1.811.963,3.8,3.409,5.918,3.393a.124.124,0,0,1,.013.245c-1.78.186-2.92-1.124-4.288-2.074a20.054,20.054,0,0,0-6.589-2.839c-.25-.065-.164-.5.095-.448" transform="translate(-36.033 -90.329)" fill="#fff"/>
          <path id="패스_8713" data-name="패스 8713" d="M104.07,190.672c.121,0,.132.2.013.212-4.466.554-8.908.176-12.581,3.236-.244.2-.568-.168-.324-.37,3.675-3.033,8.344-3.011,12.892-3.078" transform="translate(-51.412 -107.614)" fill="#fff"/>
          <path id="패스_8714" data-name="패스 8714" d="M67.1,195.171c1.857.13,3.68.47,5.556.562a13.032,13.032,0,0,1,4.947.957.177.177,0,0,1-.118.333,22.769,22.769,0,0,0-6-.775A9.963,9.963,0,0,1,67,195.466c-.145-.082-.049-.305.1-.3" transform="translate(-37.772 -110.153)" fill="#fff"/>
          <path id="패스_8715" data-name="패스 8715" d="M91.847,53.784a46.593,46.593,0,0,0-7.515,13.97A45.835,45.835,0,0,0,82.6,85.27c.864,11.121,4.347,21.957,4.043,33.184a33.9,33.9,0,0,1-4.023,16.025c-.089.156-.363.022-.284-.143,10.126-21.366-5.649-44.4.941-66.343a39.156,39.156,0,0,1,8-14.709c.287-.323.825.158.566.5" transform="translate(-46.062 -30.013)" fill="#fff"/>
          <path id="패스_8716" data-name="패스 8716" d="M53.079,66.325a4.454,4.454,0,0,1,2.652,3.694,6.036,6.036,0,0,1-.981,3.5,9.62,9.62,0,0,1-3.9,3.6l.551-.388a2.991,2.991,0,0,1-3.047-.805,5.611,5.611,0,0,1-1.411-2.961c-.412-2.124-.019-4.576,1.639-5.968a4.455,4.455,0,0,1,4.5-.677" transform="translate(-26.409 -37.247)" fill="#f2e6d6"/>
          <path id="패스_8717" data-name="패스 8717" d="M27.311,103.674a6.9,6.9,0,0,1,1.807-.241,6.481,6.481,0,0,1,4.333,2.077,19.258,19.258,0,0,1,2.82,4.022l.047.947a11.6,11.6,0,0,1-7.252,1.718,5.05,5.05,0,0,1-1.616-.381,6.011,6.011,0,0,1-2.583-3.093,4.171,4.171,0,0,1-.573-2.71c.316-1.3,1.716-2.014,3.015-2.338" transform="translate(-13.675 -58.376)" fill="#f2e6d6"/>
          <path id="패스_8718" data-name="패스 8718" d="M58.392,98.442c1.4-.466,3.2-.452,4.055.753a3.16,3.16,0,0,1,.155,2.912,7.466,7.466,0,0,1-4.186,3.97,22.112,22.112,0,0,1-5.764,1.306l-.328-.141a9.137,9.137,0,0,1,6.068-8.8" transform="translate(-29.528 -55.399)" fill="#f2e6d6"/>
          <path id="패스_8719" data-name="패스 8719" d="M65.017,130.123a5.85,5.85,0,0,1,1.9-1.441,4.106,4.106,0,0,1,3.518.423,4.525,4.525,0,0,1,1.739,6.2,7.069,7.069,0,0,1-4.042,3.374,13.285,13.285,0,0,1-5.331.56l-.331-.562a11.019,11.019,0,0,1,.24-5.4,9.9,9.9,0,0,1,2.306-3.154" transform="translate(-35.137 -72.498)" fill="#f2e6d6"/>
          <path id="패스_8720" data-name="패스 8720" d="M34.429,141.909A8.709,8.709,0,0,1,45.5,146.519l.1.018a6.286,6.286,0,0,1-3.459,2.983,10.9,10.9,0,0,1-5.25.155c-1.433-.223-3.024-.635-3.751-1.89a5.2,5.2,0,0,1-.484-1.393,4.208,4.208,0,0,1,.118-3.328,3.376,3.376,0,0,1,1.656-1.154" transform="translate(-18.27 -79.773)" fill="#f2e6d6"/>
          <path id="패스_8721" data-name="패스 8721" d="M81.158,158.118a3.181,3.181,0,0,1,2.061,1.115c.815,1.09.494,2.642-.038,3.895a14.764,14.764,0,0,1-6.174,6.967l-.541.006a16.226,16.226,0,0,1-1.344-5.892,7.853,7.853,0,0,1,.212-2.363,5.346,5.346,0,0,1,5.824-3.727" transform="translate(-42.393 -89.206)" fill="#f2e6d6"/>
          <path id="패스_8722" data-name="패스 8722" d="M51.275,172.242a8.653,8.653,0,0,1,2.164-.034,7.33,7.33,0,0,1,3.891,2.143c1.087,1.04,2,2.246,3.08,3.3l-.176.105c-.666,1.707-2.667,2.408-4.45,2.83-2.175.514-4.68.847-6.461-.5a6.081,6.081,0,0,1-1.918-2.932,3.994,3.994,0,0,1-.135-2.823c.616-1.457,2.432-1.913,4-2.085" transform="translate(-26.563 -97.162)" fill="#f2e6d6"/>
          <path id="패스_8723" data-name="패스 8723" d="M87.369,190.516a10.283,10.283,0,0,1,2.158-3.417,6.119,6.119,0,0,1,6.637-1.088,3.664,3.664,0,0,1,2.215,2.6c.226,1.547-.944,2.915-2.053,4.018-1.592,1.582-3.521,3.225-5.759,3.046a8.113,8.113,0,0,1-1.816-.433l-1.678-.54-.312-.163a5.275,5.275,0,0,1-.022-2.2,9.225,9.225,0,0,1,.629-1.819" transform="translate(-48.896 -104.683)" fill="#f2e6d6"/>
          <path id="패스_8724" data-name="패스 8724" d="M61.88,201.245a11.816,11.816,0,0,1,9.179,2.848l-.991.067a3.624,3.624,0,0,1-1.378,3.318,9.271,9.271,0,0,1-3.381,1.6c-1.6.484-3.434.855-4.865-.01a5.261,5.261,0,0,1-2.089-3.426,4.049,4.049,0,0,1-.064-2.1c.44-1.438,2.1-2.109,3.589-2.3" transform="translate(-32.834 -113.533)" fill="#f2e6d6"/>
          <path id="패스_8725" data-name="패스 8725" d="M28.8,110.488a37.213,37.213,0,0,1,4.945,1.929,22.19,22.19,0,0,0,5.112,1.335.143.143,0,0,1-.014.286,11.473,11.473,0,0,1-5.007-1.1,32.792,32.792,0,0,1-5.143-2.221.129.129,0,0,1,.106-.23" transform="translate(-16.162 -62.357)" fill="#fff"/>
          <path id="패스_8726" data-name="패스 8726" d="M53.409,110.385c1.532-.034,3.056-1.678,4.2-2.606.944-.767,1.833-1.612,2.832-2.3.139-.1.26.118.162.228a31.942,31.942,0,0,1-4.359,3.689c-.868.664-1.7,1.436-2.848,1.251a.13.13,0,0,1,.012-.259" transform="translate(-30.07 -59.516)" fill="#fff"/>
          <path id="패스_8727" data-name="패스 8727" d="M69.737,135.679c.176-.094.383.175.21.3a14.56,14.56,0,0,0-4.175,4.1c-.66,1.047-1.11,2.4-2.2,3.069-.067.042-.12-.044-.093-.1,1.315-2.837,3.442-5.877,6.26-7.368" transform="translate(-35.822 -76.565)" fill="#fff"/>
          <path id="패스_8728" data-name="패스 8728" d="M35.265,151.479a11.113,11.113,0,0,1,5.378-.513c2.185.4,3.873,1.247,6.135.534.149-.047.238.2.093.259a6.317,6.317,0,0,1-4.411.156,11.928,11.928,0,0,0-3.439-.625c-1.246.017-2.464.331-3.7.449a.133.133,0,0,1-.055-.261" transform="translate(-19.846 -85.127)" fill="#fff"/>
          <path id="패스_8729" data-name="패스 8729" d="M79.179,167.944a13.1,13.1,0,0,1,2.728-4.152.07.07,0,0,1,.106.088,37.4,37.4,0,0,0-3.223,6.307c-.345,1.052-.458,2.8-1.838,2.922a.15.15,0,0,1-.1-.278c1.433-.786,1.678-3.47,2.328-4.886" transform="translate(-43.33 -92.432)" fill="#fff"/>
          <path id="패스_8730" data-name="패스 8730" d="M51.752,180.269a15.438,15.438,0,0,1,4.734.239c1.852.371,4.257,2,6.116,1.431a.115.115,0,0,1,.076.213c-1.521.634-2.873-.221-4.33-.7a18.456,18.456,0,0,0-6.562-.765c-.238.009-.275-.394-.035-.42" transform="translate(-29.117 -101.695)" fill="#fff"/>
          <path id="패스_8731" data-name="패스 8731" d="M96.14,192.465c.106-.033.168.139.067.184-3.793,1.668-7.811,2.508-10.243,6.176-.161.243-.545,0-.383-.24,2.441-3.646,6.565-4.859,10.559-6.12" transform="translate(-48.279 -108.624)" fill="#fff"/>
          <path id="패스_8732" data-name="패스 8732" d="M63.668,208.628c1.672-.375,3.371-.557,5.049-.972a12,12,0,0,1,4.616-.463.163.163,0,0,1-.016.325,20.96,20.96,0,0,0-5.5.9,9.167,9.167,0,0,1-4.164.5c-.15-.034-.124-.257.013-.288" transform="translate(-35.869 -116.896)" fill="#fff"/>
          <path id="패스_8733" data-name="패스 8733" d="M55.081,75.992A42.9,42.9,0,0,0,52.141,90.3a42.214,42.214,0,0,0,3.1,15.906c3.7,9.582,9.633,18.22,12.33,28.2a31.224,31.224,0,0,1,.683,15.2c-.037.161-.315.115-.289-.051,3.289-21.522-16.708-37.672-16.69-58.768A36.058,36.058,0,0,1,54.449,75.7c.168-.36.77-.078.632.292" transform="translate(-28.94 -42.63)" fill="#fff"/>
          <path id="패스_8734" data-name="패스 8734" d="M174.151,76.9a4.454,4.454,0,0,1-.526,4.516,6.034,6.034,0,0,1-3.082,1.928,9.62,9.62,0,0,1-5.31.041l.668.084a2.991,2.991,0,0,1-1.711-2.646,5.615,5.615,0,0,1,.949-3.139c1.126-1.848,3.067-3.4,5.23-3.31a4.455,4.455,0,0,1,3.781,2.526" transform="translate(-92.666 -41.972)" fill="#f2e6d6"/>
          <path id="패스_8735" data-name="패스 8735" d="M132.532,86.656a6.9,6.9,0,0,1,1.5,1.038,6.483,6.483,0,0,1,1.807,4.452,19.257,19.257,0,0,1-.622,4.872l-.6.733a11.607,11.607,0,0,1-6.52-3.611,5.037,5.037,0,0,1-.938-1.37,6.01,6.01,0,0,1,.172-4.026,4.172,4.172,0,0,1,1.4-2.389c1.11-.75,2.625-.334,3.8.3" transform="translate(-71.604 -48.512)" fill="#f2e6d6"/>
          <path id="패스_8736" data-name="패스 8736" d="M155.718,106.344c1.349.6,2.672,1.822,2.492,3.287a3.16,3.16,0,0,1-1.846,2.257,7.464,7.464,0,0,1-5.768.118,22.117,22.117,0,0,1-5.141-2.914l-.148-.325a9.138,9.138,0,0,1,10.411-2.423" transform="translate(-82.01 -59.616)" fill="#f2e6d6"/>
          <path id="패스_8737" data-name="패스 8737" d="M138.319,133.563a5.851,5.851,0,0,1,2.376.214,4.107,4.107,0,0,1,2.317,2.681,4.524,4.524,0,0,1-2.891,5.76,7.064,7.064,0,0,1-5.26-.226,13.28,13.28,0,0,1-4.319-3.175l.134-.638a11.018,11.018,0,0,1,3.816-3.835,9.9,9.9,0,0,1,3.828-.781" transform="translate(-73.676 -75.367)" fill="#f2e6d6"/>
          <path id="패스_8738" data-name="패스 8738" d="M111.693,119.632a8.708,8.708,0,0,1,5.086,10.861l.06.08a6.286,6.286,0,0,1-4.566-.122,10.894,10.894,0,0,1-3.987-3.42c-.91-1.13-1.808-2.505-1.5-3.923a5.2,5.2,0,0,1,.579-1.356c.548-1.006,1.216-2.107,2.328-2.381a3.376,3.376,0,0,1,2,.261" transform="translate(-60.234 -67.336)" fill="#f2e6d6"/>
          <path id="패스_8739" data-name="패스 8739" d="M131.092,164.01a3.178,3.178,0,0,1,.773,2.212c-.131,1.355-1.413,2.286-2.649,2.855a14.765,14.765,0,0,1-9.255,1l-.4-.36a16.223,16.223,0,0,1,2.972-5.262,7.837,7.837,0,0,1,1.747-1.6,5.347,5.347,0,0,1,6.816,1.164" transform="translate(-67.477 -91.487)" fill="#f2e6d6"/>
          <path id="패스_8740" data-name="패스 8740" d="M103.849,153.45a8.657,8.657,0,0,1,1.624,1.431,7.33,7.33,0,0,1,1.435,4.2c.1,1.5-.029,3.01.057,4.513l-.2-.04c-1.641.814-3.593-.014-5.2-.9-1.954-1.084-4.031-2.523-4.44-4.721a6.075,6.075,0,0,1,.555-3.46,3.991,3.991,0,0,1,1.8-2.178c1.437-.663,3.087.223,4.365,1.154" transform="translate(-54.778 -85.825)" fill="#f2e6d6"/>
          <path id="패스_8741" data-name="패스 8741" d="M115.306,193.37a10.286,10.286,0,0,1,3.9-1.074,6.121,6.121,0,0,1,5.641,3.663,3.666,3.666,0,0,1-.111,3.413c-.874,1.3-2.661,1.521-4.223,1.59-2.242.1-4.775.014-6.308-1.624a8.11,8.11,0,0,1-1.052-1.543l-.878-1.528-.121-.331a5.269,5.269,0,0,1,1.465-1.643,9.213,9.213,0,0,1,1.69-.922" transform="translate(-63.297 -108.53)" fill="#f2e6d6"/>
          <path id="패스_8742" data-name="패스 8742" d="M92.1,182a11.818,11.818,0,0,1,4.871,8.284l-.778-.617a3.623,3.623,0,0,1-3.252,1.526,9.274,9.274,0,0,1-3.579-1.09c-1.509-.72-3.115-1.679-3.592-3.282a5.263,5.263,0,0,1,.762-3.94,4.043,4.043,0,0,1,1.369-1.6c1.294-.768,2.971-.149,4.2.718" transform="translate(-48.33 -102.119)" fill="#f2e6d6"/>
          <path id="패스_8743" data-name="패스 8743" d="M133.488,90.763a37.248,37.248,0,0,1,2.358,4.755,22.191,22.191,0,0,0,2.882,4.429.143.143,0,0,1-.2.2,11.481,11.481,0,0,1-2.964-4.183,32.8,32.8,0,0,1-2.307-5.1.128.128,0,0,1,.233-.1" transform="translate(-75.205 -51.193)" fill="#fff"/>
          <path id="패스_8744" data-name="패스 8744" d="M147.452,111.972c1.156,1.006,3.389.816,4.861.9,1.214.069,2.44.042,3.645.2.169.022.113.263-.034.277a31.907,31.907,0,0,1-5.707-.206c-1.089-.093-2.221-.079-2.948-.991a.129.129,0,0,1,.183-.183" transform="translate(-83.099 -63.176)" fill="#fff"/>
          <path id="패스_8745" data-name="패스 8745" d="M140.456,141.951c.194.049.166.387-.044.361a14.564,14.564,0,0,0-5.85.225c-1.193.33-2.434,1.024-3.694.788-.077-.014-.058-.114,0-.138,2.882-1.213,6.5-2.029,9.589-1.235" transform="translate(-73.832 -79.938)" fill="#fff"/>
          <path id="패스_8746" data-name="패스 8746" d="M110.106,126.046a11.11,11.11,0,0,1,4.322,3.241c1.35,1.762,2.025,3.529,4.177,4.524.142.065.043.308-.105.255a6.315,6.315,0,0,1-3.367-2.854,11.954,11.954,0,0,0-2.123-2.777c-.933-.826-2.045-1.414-3.039-2.159a.134.134,0,0,1,.135-.23" transform="translate(-62.033 -71.131)" fill="#fff"/>
          <path id="패스_8747" data-name="패스 8747" d="M124.165,171.588a13.1,13.1,0,0,1,4.813-1.234.07.07,0,0,1,.019.136,37.391,37.391,0,0,0-6.629,2.494c-.963.546-2.22,1.759-3.326.923a.15.15,0,0,1,.113-.273c1.589.383,3.576-1.436,5.011-2.046" transform="translate(-67.149 -96.146)" fill="#fff"/>
          <path id="패스_8748" data-name="패스 8748" d="M103.308,157.921a15.45,15.45,0,0,1,3.34,3.363c1.119,1.521,1.8,4.346,3.56,5.175.115.054.034.252-.087.209-1.552-.555-1.976-2.1-2.733-3.43a18.473,18.473,0,0,0-4.337-4.982c-.182-.154.061-.477.257-.335" transform="translate(-58.125 -89.11)" fill="#fff"/>
          <path id="패스_8749" data-name="패스 8749" d="M122.746,202.148c.1.047.031.216-.074.181-3.928-1.32-7.465-3.4-11.732-2.327-.283.071-.4-.365-.122-.436,4.259-1.053,8.126.826,11.928,2.582" transform="translate(-62.455 -112.462)" fill="#fff"/>
          <path id="패스_8750" data-name="패스 8750" d="M91.862,188.259c1.489.848,2.868,1.857,4.388,2.68a12,12,0,0,1,3.725,2.765.163.163,0,0,1-.23.23,20.966,20.966,0,0,0-4.673-3.035,9.171,9.171,0,0,1-3.413-2.436c-.088-.126.081-.272.2-.2" transform="translate(-51.718 -106.242)" fill="#fff"/>
          <path id="패스_8751" data-name="패스 8751" d="M128.737,85.765a42.9,42.9,0,0,0-11.805,8.6,42.209,42.209,0,0,0-8.414,13.85c-3.714,9.576-5.141,19.959-9.866,29.156-2.353,4.58-8.35,13.566-8.35,13.566l-.777-.446s6.22-9.011,8.431-13.418c6.878-13.713,7.252-31.132,18.008-42.929a36.049,36.049,0,0,1,12.5-9.021c.366-.154.622.46.271.641" transform="translate(-50.527 -48.03)" fill="#fff"/>
          <path id="패스_8752" data-name="패스 8752" d="M143.675,6.376c1.082-2.994,3.426-5.793,6.569-6.3a6.55,6.55,0,0,1,6.186,2.534,6.549,6.549,0,0,1,.564,6.663,8.868,8.868,0,0,1-3.878,3.679c-2.328,1.24-4.035,1.872-6.651,1.538a4.257,4.257,0,0,1-3.241-3.313,8.26,8.26,0,0,1,.45-4.8" transform="translate(-80.729 0)" fill="#ffe594"/>
          <path id="패스_8753" data-name="패스 8753" d="M98.887,29.915a10.234,10.234,0,0,1,2.463,1.058,9.537,9.537,0,0,1,3.906,5.889,28.326,28.326,0,0,1,.529,7.2l-.654,1.232A17.061,17.061,0,0,1,94.679,42a7.386,7.386,0,0,1-1.752-1.7c-1.145-1.661-1.112-3.843-.93-5.852A6.137,6.137,0,0,1,93.316,30.6c1.38-1.4,3.685-1.248,5.571-.68" transform="translate(-51.869 -16.65)" fill="#ffe594"/>
          <path id="패스_8754" data-name="패스 8754" d="M137.461,49.9c2.118.467,4.384,1.844,4.552,4.007a4.647,4.647,0,0,1-2,3.794,10.974,10.974,0,0,1-8.277,1.858,32.565,32.565,0,0,1-8.261-2.7l-.307-.425A13.433,13.433,0,0,1,137.461,49.9" transform="translate(-69.515 -28.007)" fill="#ffe594"/>
          <path id="패스_8755" data-name="패스 8755" d="M121.157,93.716a8.6,8.6,0,0,1,3.487-.386,6.035,6.035,0,0,1,4.123,3.186,6.653,6.653,0,0,1-2.481,9.145,10.383,10.383,0,0,1-7.646,1.212,19.518,19.518,0,0,1-7.154-3.311l.007-.959c1.084-2.452,2.249-5.011,4.377-6.643a14.555,14.555,0,0,1,5.288-2.245" transform="translate(-62.921 -52.641)" fill="#ffe594"/>
          <path id="패스_8756" data-name="패스 8756" d="M78.266,83.464A12.806,12.806,0,0,1,88.772,97.628l.109.1a9.245,9.245,0,0,1-6.616,1.159,16.021,16.021,0,0,1-6.745-3.761c-1.641-1.361-3.338-3.082-3.311-5.214a7.617,7.617,0,0,1,.437-2.124c.5-1.609,1.136-3.393,2.659-4.112a4.946,4.946,0,0,1,2.96-.209" transform="translate(-40.754 -47.035)" fill="#ffe594"/>
          <path id="패스_8757" data-name="패스 8757" d="M120.534,140.167a4.681,4.681,0,0,1,1.761,2.962c.207,1.991-1.367,3.708-2.983,4.889a21.712,21.712,0,0,1-13.047,4.142l-.687-.4a23.865,23.865,0,0,1,2.745-8.453,11.54,11.54,0,0,1,2.048-2.824,7.863,7.863,0,0,1,10.164-.316" transform="translate(-59.587 -78.144)" fill="#ffe594"/>
          <path id="패스_8758" data-name="패스 8758" d="M77.027,134.488a12.718,12.718,0,0,1,2.758,1.588,10.775,10.775,0,0,1,3.3,5.638c.589,2.133.839,4.348,1.4,6.487h-.3c-2.127,1.653-5.182,1.032-7.75.22-3.135-.991-6.548-2.458-7.779-5.5a8.927,8.927,0,0,1-.212-5.149A5.874,5.874,0,0,1,70.4,134.1c1.877-1.374,4.513-.582,6.628.387" transform="translate(-38.474 -75.27)" fill="#ffe594"/>
          <path id="패스_8759" data-name="패스 8759" d="M104.865,187.18a15.094,15.094,0,0,1,5.3-2.687,9,9,0,0,1,9.2,3.628,5.391,5.391,0,0,1,.84,4.952c-.882,2.123-3.39,2.969-5.621,3.526-3.2.8-6.877,1.417-9.566-.5a11.913,11.913,0,0,1-1.967-1.916l-1.712-1.945-.271-.442A7.759,7.759,0,0,1,102.7,189a13.447,13.447,0,0,1,2.166-1.823" transform="translate(-57.042 -104.013)" fill="#ffe594"/>
          <path id="패스_8760" data-name="패스 8760" d="M68.419,179.024a17.376,17.376,0,0,1,9.442,10.514l-1.3-.661a5.329,5.329,0,0,1-4.24,3.151,13.644,13.644,0,0,1-5.476-.524c-2.386-.6-4.98-1.509-6.137-3.68-.95-1.784-.662-3.973-.054-5.9a5.954,5.954,0,0,1,1.505-2.706c1.639-1.485,4.238-1.082,6.263-.193" transform="translate(-33.915 -100.591)" fill="#ffe594"/>
          <path id="패스_8761" data-name="패스 8761" d="M117.307,28.809a56.905,56.905,0,0,0-8.368,10.4,62.082,62.082,0,0,0-8.074,22.421c-2.551,14.887-1.571,30.266-5.691,44.9-2.052,7.29-3.089,21.289-3.089,21.289l-.6-.283s.693-14.206,2.59-21.188c5.919-21.785,1.348-47.016,13.407-67.176a55.983,55.983,0,0,1,8.838-11.281.905.905,0,0,1,.989.915" transform="translate(-51.632 -15.741)" fill="#fff"/>
          <g id="그룹_5461" data-name="그룹 5461">
            <path id="패스_8835" data-name="패스 8835" d="M77.37,192.049l-1.118-.521,1.36-1.773-1.087-.506-2.466,3.433.885-4.17-.923-.43L71.4,191.433l1.034-4.091-1.086-.506-.483,2.183-1.349-.628-.382.821,1.531.713-.608,2.75,1.1.511,2.51-3.138-.787,3.94,1.1.511,1.714-2.235,1.3.605Z" transform="translate(-39.018 -105.449)" fill="#141414"/>
            <path id="패스_8836" data-name="패스 8836" d="M84.136,147.246l-1.118-.521,1.36-1.773-1.087-.506-2.466,3.433.885-4.17-.923-.43-2.622,3.352,1.034-4.091-1.086-.506-.483,2.183-1.349-.628-.382.821,1.531.713-.608,2.75,1.1.511,2.51-3.138-.787,3.94,1.1.511,1.714-2.235,1.3.605Z" transform="translate(-42.837 -80.163)" fill="#141414"/>
            <path id="패스_8837" data-name="패스 8837" d="M89.732,97.546l-1.043-.658L90.261,95.3l-1.014-.639-2.879,3.095,1.4-4.024-.861-.543-3.025,2.994,1.543-3.928-1.014-.639-.754,2.1L82.4,92.925l-.483.766,1.429.9-.95,2.651,1.024.646,2.886-2.8L85.029,98.9l1.024.646,1.982-2,1.214.765Z" transform="translate(-46.234 -51.707)" fill="#141414"/>
            <path id="패스_8838" data-name="패스 8838" d="M106.089,44.463l-1.043-.658,1.573-1.588-1.014-.639-2.879,3.095,1.4-4.024-.861-.543L100.243,43.1l1.543-3.928-1.014-.639-.754,2.1-1.258-.793-.483.766,1.429.9-.95,2.651,1.024.646,2.886-2.8-1.279,3.81,1.024.646,1.982-2,1.214.765Z" transform="translate(-55.466 -21.747)" fill="#141414"/>
            <path id="패스_8839" data-name="패스 8839" d="M123.322,194l-1.208.25.031-2.235-1.174.243.074,4.226-1.782-3.872-1,.207-.1,4.255-1.615-3.9-1.174.243.917,2.039-1.457.3.184.887,1.654-.343,1.156,2.568,1.186-.246.137-4.016,1.724,3.63,1.186-.246.038-2.815,1.4-.292Z" transform="translate(-64.814 -108.37)" fill="#141414"/>
            <path id="패스_8840" data-name="패스 8840" d="M125.4,146.559l-1.208.25.031-2.235-1.174.243.074,4.226-1.782-3.872-1,.207-.1,4.255-1.615-3.9-1.174.243.917,2.039-1.457.3.184.887,1.654-.343,1.156,2.568,1.186-.246.137-4.016,1.724,3.63,1.186-.246.038-2.815,1.4-.292Z" transform="translate(-65.989 -81.597)" fill="#141414"/>
            <path id="패스_8841" data-name="패스 8841" d="M132.046,105.418l-1.233.041.412-2.2-1.2.04-.648,4.177-1.1-4.12-1.018.034-.825,4.175-.927-4.117-1.2.04.556,2.165-1.487.049.03.905,1.688-.056.7,2.727,1.21-.04.821-3.934,1.079,3.871,1.21-.04.519-2.768,1.434-.047Z" transform="translate(-69.638 -58.28)" fill="#141414"/>
            <path id="패스_8842" data-name="패스 8842" d="M146.164,56.43l-1.233.041.412-2.2-1.2.04-.648,4.177-1.1-4.12-1.018.034-.825,4.175-.927-4.117-1.2.04.556,2.165-1.487.05.03.905,1.688-.056.7,2.727,1.21-.04.821-3.934,1.079,3.871,1.21-.04.519-2.768,1.434-.047Z" transform="translate(-77.607 -30.631)" fill="#141414"/>
            <path id="패스_8843" data-name="패스 8843" d="M159.466,13.242l-.973-.758,1.724-1.423-.945-.737L156.1,13.115l1.8-3.864-.8-.626L153.785,11.3l1.927-3.754-.945-.737-.96,2.018-1.173-.915-.558.714,1.332,1.038-1.21,2.543.954.745,3.151-2.495-1.653,3.663.955.744,2.171-1.793,1.131.882Z" transform="translate(-85.831 -3.843)" fill="#141414"/>
          </g>
        </g>
      </g>
    </g>
    <g id="주머니">
      <path id="패스_8762" data-name="패스 8762" d="M90.047,272.09c-4.082-10.41-12.3-21.154-26.767-20.493-4.045.185-9.136,2.944-15.413,9.875-14.479,15.984-4.642,32.03-10.287,39.936H98.49c-9.26-7.427-2.145-13.254-8.443-29.317" transform="translate(-21.21 -141.983)" fill="#f2e6d6"/>
      <path id="패스_8763" data-name="패스 8763" d="M65.019,251.634c-4.05,0-9.136,2.944-15.413,9.875-12.906,14.248-6.492,28.545-8.944,37.082,3.925.415,29.165-.774,35.051-8.784,4.026-5.479,8.32-16.01,9.766-28.743-3.841-4.287-8.535-9.431-20.459-9.431" transform="translate(-22.949 -142.021)" fill="#fef8ec"/>
      <path id="패스_8764" data-name="패스 8764" d="M98.134,301.327H37.224a.275.275,0,0,1-.224-.435c2.122-2.971,2-7.215,1.855-12.129-.233-7.986-.522-17.925,8.452-27.831,5.8-6.4,11.05-9.757,15.6-9.965,16.182-.731,23.885,12.632,27.036,20.668a44.1,44.1,0,0,1,3.084,16.516c.145,5.208.241,8.649,5.275,12.687a.275.275,0,0,1-.172.489m-60.4-.55H97.373c-4.652-4-4.753-7.644-4.891-12.61a43.619,43.619,0,0,0-3.046-16.332c-3.1-7.9-10.655-21.041-26.5-20.319-4.4.2-9.524,3.494-15.222,9.785-8.825,9.743-8.539,19.559-8.31,27.447.139,4.785.26,8.946-1.667,12.03" transform="translate(-20.854 -141.628)" fill="#1b2e4e"/>
      <path id="패스_8765" data-name="패스 8765" d="M83.394,221.1a14.753,14.753,0,0,0-2.082,1.681A6.9,6.9,0,0,1,78.5,224.5c-3.349,1.022-7.035-1.1-8.417,1.079a12.6,12.6,0,0,1-2.147,2.569,8.765,8.765,0,0,1-1.235.936s4.332,4.762,7.845,4.819c3.58.058,10.592-2.15,10.592-2.15s6.835-8.051,5.372-12.059c0,0-2.848-1.422-7.115,1.4" transform="translate(-37.645 -123.794)" fill="#fef8ec"/>
      <path id="패스_8766" data-name="패스 8766" d="M96.6,225.068a6.9,6.9,0,0,1-2.814,1.72c-.052.259.933,5.113,1.565,5.564s3.332-8.965,3.332-8.965a14.777,14.777,0,0,0-2.082,1.681" transform="translate(-52.928 -126.078)" fill="#f2e6d6"/>
      <path id="패스_8767" data-name="패스 8767" d="M69.534,236.241c.162.081,6.924,3.83,7.594,3.824.686-.006-5.447-6.393-5.447-6.393a12.626,12.626,0,0,1-2.147,2.569" transform="translate(-39.245 -131.883)" fill="#f2e6d6"/>
      <path id="패스_8768" data-name="패스 8768" d="M74.332,233.819h-.147c-3.591-.059-7.864-4.711-8.044-4.909a.274.274,0,0,1-.068-.226.277.277,0,0,1,.133-.2,8.683,8.683,0,0,0,1.191-.9,12.326,12.326,0,0,0,2.1-2.51c.874-1.379,2.564-1.214,4.352-1.042a10.866,10.866,0,0,0,4.216-.153,6.658,6.658,0,0,0,2.7-1.655,15.136,15.136,0,0,1,2.121-1.712h0c4.35-2.882,7.268-1.483,7.39-1.422a.273.273,0,0,1,.135.152c1.5,4.11-5.138,12-5.421,12.331a.274.274,0,0,1-.127.084c-.284.09-6.911,2.163-10.531,2.164m-7.562-5.044c.921.95,4.511,4.446,7.423,4.494,3.293.065,9.658-1.876,10.428-2.114.612-.737,6.48-7.945,5.311-11.615-.523-.2-3.1-.982-6.743,1.429a14.343,14.343,0,0,0-2.043,1.65,7.189,7.189,0,0,1-2.926,1.785,11.274,11.274,0,0,1-4.428.174c-1.755-.17-3.142-.3-3.836.79a12.907,12.907,0,0,1-2.194,2.625,10.544,10.544,0,0,1-.993.783" transform="translate(-37.289 -123.431)" fill="#1b2e4e"/>
      <path id="패스_8769" data-name="패스 8769" d="M94.026,240.862c-1.122.628-4.167,4.6-12.688,4.6-2.935,0-1.248,2.462-1.248,2.462,3.134,1.46,15.15-1.468,15.15-1.468.422-1.955.374-6.481-1.214-5.593" transform="translate(-44.93 -135.876)" fill="#fff"/>
      <path id="패스_8770" data-name="패스 8770" d="M89.363,250.748a24.361,24.361,0,0,1-5.645.265,22.694,22.694,0,0,1-4.068-.359,2.462,2.462,0,0,0,.441,1.665c3.134,1.46,15.15-1.468,15.15-1.468a12.342,12.342,0,0,0,.225-2.313c-.288.179-.583.346-.883.5a21.023,21.023,0,0,1-5.22,1.709" transform="translate(-44.931 -140.273)" fill="#cf7f6e"/>
      <path id="패스_8771" data-name="패스 8771" d="M97.587,297.214H93.322L95,289.67H90.852l-2.717,14.358L84.823,289.67H81.3L77.977,304l-2.73-14.331H71.1l1.674,7.543H67.633v3.132h5.838l2.108,9.5h4.185l3.285-13.5,3.284,13.5h4.185l2.108-9.5h4.959Z" transform="translate(-38.171 -163.488)" fill="#f2e6d6"/>
      <path id="패스_8772" data-name="패스 8772" d="M92.361,301.637H88.1l1.674-7.543H85.626l-2.717,14.358L79.6,294.093h-3.52l-3.326,14.331-2.73-14.331H65.877l1.674,7.543H62.407v3.132h5.838l2.108,9.5h4.185l3.285-13.5,3.284,13.5h4.185l2.108-9.5h4.959Z" transform="translate(-35.222 -165.984)" fill="#ff5168"/>
    </g>
    <g id="사람">
      <path id="패스_8773" data-name="패스 8773" d="M304.427,121.4s3.639-.022,3.851-2.357c.229-2.511,4.093-6.741,4.093-6.741s-2.363-1.242-5.622,1.693-5.2,3.31-5.2,3.31Z" transform="translate(-170.19 -63.233)" fill="#fff"/>
      <path id="패스_8774" data-name="패스 8774" d="M318.927,112.41a57.7,57.7,0,0,1,5.717,3.834c.339.267-.137.9-.562.823-1.654-.311-4.943-3.058-4.943-3.058s2.68,3.124,2.433,3.59a16.865,16.865,0,0,1-2.123,1.962c-.644.541-.768.312-1.427-.21a4.4,4.4,0,0,0-1.743-1c-.3.088-1.662,1.777-2.076,2.032,0,0-1.152-4.079-.512-5.225.736-1.318,5.236-2.748,5.236-2.748" transform="translate(-176.936 -63.443)" fill="#fff"/>
      <path id="패스_8775" data-name="패스 8775" d="M324.348,124.421l-2.752-2.909a10.206,10.206,0,0,1,2.752,2.909" transform="translate(-181.507 -68.581)" fill="#cf7f6e"/>
      <path id="패스_8776" data-name="패스 8776" d="M326.174,121.579l-2.98-3.682a12.554,12.554,0,0,1,2.98,3.682" transform="translate(-182.409 -66.54)" fill="#cf7f6e"/>
      <path id="패스_8777" data-name="패스 8777" d="M272.581,119.547l2.311,4c-3.49,1.253-18.886,3.012-23.571.58a4.439,4.439,0,0,1-2.487-5.067c.793-3,4.291-3.26,7.75-2.882.48.052,16,3.364,16,3.364" transform="translate(-140.371 -65.497)" fill="#fff"/>
      <path id="패스_8778" data-name="패스 8778" d="M249.98,319.821s-1.1,9.821,6.01,14.528,10.375,3.051,10.375,4.521c0,.926-5.461,1.555-11.589.578s-7.016-2.487-7.016-2.487v2.932H243.23l-.71-5.6a9.242,9.242,0,0,1-.178-4.618c.622-2.043,1.658-6.571,1.037-9.5Z" transform="translate(-136.643 -180.505)" fill="#1b2e4e"/>
      <path id="패스_8779" data-name="패스 8779" d="M249.605,338.361c-1.044-1.165-.818-2.479-.556-4a16.341,16.341,0,0,0,.237-1.776,27.456,27.456,0,0,0-.229-4.773l-.353.052a27,27,0,0,1,.227,4.7,15.922,15.922,0,0,1-.233,1.737c-.266,1.546-.517,3.005.642,4.3,1.594,1.779,3.814,2.875,6.672,4.15a18.249,18.249,0,0,1-6.406-4.388" transform="translate(-140.237 -185.015)" fill="#fef8ec"/>
      <path id="패스_8780" data-name="패스 8780" d="M261.1,361.311a49.258,49.258,0,0,0,9.6,1.063,45.24,45.24,0,0,0,6.133-.452c-.1.006-10.524.524-15.737-.611" transform="translate(-147.363 -203.922)" fill="#fef8ec"/>
      <path id="패스_8781" data-name="패스 8781" d="M144.746,307.029s-4.2,6.3-4.966,10.761-.849,7.786-2.165,9.741-1.74,2.82-2.1,3.184h-6.431a10.768,10.768,0,0,1-.159-5.827c.827-3.056,6.709-17.188,7.255-21.378Z" transform="translate(-72.577 -171.3)" fill="#1b2e4e"/>
      <path id="패스_8782" data-name="패스 8782" d="M128.928,362.625l7.538.345.216-.345Z" transform="translate(-72.766 -204.663)" fill="#fef8ec"/>
      <path id="패스_8783" data-name="패스 8783" d="M151.443,323.346l-.3-.2c-.095.14-2.333,3.453-2.76,5.53a12.1,12.1,0,0,0-.116,2.331c.015,2.2.318,5.153-1.45,7.468,1.841-2.412,1.821-5.336,1.806-7.471a11.954,11.954,0,0,1,.109-2.257c.413-2.006,2.683-5.368,2.706-5.4" transform="translate(-82.866 -182.381)" fill="#fef8ec"/>
      <path id="패스_8784" data-name="패스 8784" d="M214.326,20.663c.139-2.119,4.688-4,8.509.175,5.438,5.943,4.458,35.973,5.054,37.616,0,0-10.463,2.125-12.95-2.121,0,0-1.543-21.486-.613-35.67" transform="translate(-120.795 -10.355)" fill="#1b2e4e"/>
      <path id="패스_8785" data-name="패스 8785" d="M236.3,67.755c2.531,2.966,7.137,13.633,9.744,19.782-2.087,1.394-2.544,6.707-6.532,7.712A30.084,30.084,0,0,1,230.3,82.816c-1.933-5.6-.984-23.245,6-15.061" transform="translate(-129.485 -37.038)" fill="#f2e6d6"/>
      <path id="패스_8786" data-name="패스 8786" d="M236.3,67.755c2.531,2.966,7.137,13.633,9.744,19.782-3.011.611-3.047,2.985-6.663,4.086-3.33-2.33-7.553-4.378-9.082-8.806-1.933-5.6-.984-23.245,6-15.061" transform="translate(-129.485 -37.038)" fill="#fef8ec"/>
      <path id="패스_8787" data-name="패스 8787" d="M241.4,93.891a.275.275,0,0,1-.191-.473,12.378,12.378,0,0,0,2.241-3.465,8.683,8.683,0,0,1,1.9-2.872c-3.014-7.1-7.246-16.735-9.615-19.511-1.524-1.786-2.807-2.4-3.816-1.823-2.865,1.638-3.245,12.19-1.716,16.616a.275.275,0,0,1-.519.179c-1.464-4.239-1.334-15.387,1.963-17.273,1.269-.727,2.787-.072,4.507,1.943,2.44,2.86,6.755,12.7,9.788,19.853a.274.274,0,0,1-.1.336,7.446,7.446,0,0,0-1.9,2.8,12.971,12.971,0,0,1-2.351,3.615.275.275,0,0,1-.191.077" transform="translate(-129.129 -36.676)" fill="#1b2e4e"/>
      <path id="패스_8788" data-name="패스 8788" d="M226.3,131.509a77.949,77.949,0,0,1,9.985,22.925c3.788,14.541,2.014,36.511,2.035,45.334s.528,21.519,2.587,25.048a52.168,52.168,0,0,1-24.818,3s-.142-34.389.118-48.4.795-46.712.795-46.712Z" transform="translate(-121.935 -74.223)" fill="#65efe5"/>
      <path id="패스_8789" data-name="패스 8789" d="M219.581,171.171s1.859.96,4.834-2.37c0,0-5.264,16.4-8.937,24.485,0,0,1.743-10.74,4.1-22.115" transform="translate(-121.615 -95.27)" fill="#1b2e4e"/>
      <path id="패스_8790" data-name="패스 8790" d="M163.233,131.166a77.688,77.688,0,0,0-13.61,26.67c-4.025,15.179.582,26.863-4.811,38.074s-4.007,9.2-8.212,20.482c0,0,10.983,9.881,23.31,10.491,0,0,10.489-51.987,13.177-65.432s2.884-21.8,3.727-26.823Z" transform="translate(-77.096 -74.029)" fill="#65efe5"/>
      <path id="패스_8791" data-name="패스 8791" d="M238.318,275.6c-.006-2.406.122-5.791.234-9.734-4.733,13.3-13.382,19.748-22.5,22.554.009,8.611.036,15.227.036,15.227a52.169,52.169,0,0,0,24.818-3c-2.06-3.529-2.567-16.224-2.587-25.048" transform="translate(-121.938 -150.051)" fill="#65efe5"/>
      <path id="패스_8792" data-name="패스 8792" d="M138.46,315.044c-.477,1.357-1.07,3.007-1.859,5.128,0,0,10.982,9.881,23.309,10.491l2.584-12.814a64.94,64.94,0,0,1-24.035-2.8" transform="translate(-77.097 -177.809)" fill="#65efe5"/>
      <path id="패스_8793" data-name="패스 8793" d="M163.982,140.337c-.087.133-8.728,13.464-11.04,26.1a104.281,104.281,0,0,0-1.268,15.709c-.219,7.389-.408,13.77-2.911,17.765-4.245,6.774-8.34,22.023-8.384,22.175.044-.152,4.468-15.254,8.686-21.986,2.555-4.078,2.746-10.5,2.966-17.944a103.932,103.932,0,0,1,1.262-15.655c2.3-12.563,10.9-25.836,10.988-25.968Z" transform="translate(-79.229 -79.205)" fill="#1b2e4e"/>
      <path id="패스_8794" data-name="패스 8794" d="M140.391,318.048a53.3,53.3,0,0,0,22.471,10.34l.067-.351a56.458,56.458,0,0,1-22.538-9.989" transform="translate(-79.236 -179.504)" fill="#1b2e4e"/>
      <path id="패스_8795" data-name="패스 8795" d="M240.029,333.986a49.236,49.236,0,0,1-22.992,3.283,31.633,31.633,0,0,0,5.668.431,48.94,48.94,0,0,0,17.391-3.305Z" transform="translate(-122.495 -188.5)" fill="#1b2e4e"/>
      <path id="패스_8796" data-name="패스 8796" d="M226.191,156.223s-2.191,1.794-3.568.592-1.054-9.968-1.054-9.968l1.854-3.031h4.412Z" transform="translate(-125.034 -81.169)" fill="#65efe5"/>
      <path id="패스_8797" data-name="패스 8797" d="M215.241,71.5l-15.906-5.523c-7.239,2.07-6.794,7.234-6.443,12.876a63.554,63.554,0,0,1-1.612,19.759s13.092,3.819,24.138,1.184c0,0-4.83-8.475.617-16.61,2.926-4.371.885-8.415-.795-11.686" transform="translate(-107.958 -37.234)" fill="#f2e6d6"/>
      <path id="패스_8798" data-name="패스 8798" d="M215.921,71.5l-15.906-5.523c-7.239,2.07-6.794,7.234-6.443,12.876a68.6,68.6,0,0,1-1.087,17.511c2.662,1.069,17.813,1.522,21.789-2.418a15.3,15.3,0,0,1,2.441-10.76c2.926-4.371.885-8.415-.795-11.686" transform="translate(-108.637 -37.234)" fill="#fef8ec"/>
      <path id="패스_8799" data-name="패스 8799" d="M191.823,107.608c-1.541,1.259,4.929,1.33,4.929,1.33l3.413-13.859s-6.693,11.182-8.341,12.529" transform="translate(-108.129 -53.662)" fill="#f2e6d6"/>
      <path id="패스_8800" data-name="패스 8800" d="M224.161,67.351c-.444-2.389-5.262-2.335-6.382-2.306-2.118.054-6.414-.055-8.006.4l15.906,5.523a14.85,14.85,0,0,1-1.517-3.617" transform="translate(-118.394 -36.707)" fill="#fef8ec"/>
      <path id="패스_8801" data-name="패스 8801" d="M206.462,111.172a63.242,63.242,0,0,1-15.616-2.114.275.275,0,0,1-.187-.341c0-.006.184-.638.426-1.778a.275.275,0,1,1,.538.115c-.156.736-.287,1.258-.363,1.549,1.873.5,13.471,3.425,23.4,1.188-.81-1.647-4.083-9.289.795-16.575,2.251-3.362,1.414-6.476.434-8.814a.275.275,0,1,1,.507-.213c1.034,2.464,1.912,5.752-.484,9.332-5.286,7.894-.654,16.238-.607,16.322a.275.275,0,0,1-.175.4,37.674,37.674,0,0,1-8.663.926" transform="translate(-107.601 -47.421)" fill="#1b2e4e"/>
      <path id="패스_8802" data-name="패스 8802" d="M206.409,55.056c.463-.074.916-.137,1.358-.192l-.495-8.234a59.794,59.794,0,0,0,6.765,2.087l.352,5.855s1.38.262,2.238.414c2.148.38,2.112,1.822,1.686,3.275-1.288,4.4-9.9,3.742-14.5-2.167a7.9,7.9,0,0,1,2.6-1.039" transform="translate(-115.031 -26.317)" fill="#fff"/>
      <path id="패스_8803" data-name="패스 8803" d="M165.778,95.662c.151-3.639,5.55-16.579,12.593-23.44,6.7-6.526,9.583,4.292,7.226,8.8-1.587,3.039-9.863,15.678-12.207,17.393-3.363,2.459-7.695-.792-7.613-2.758" transform="translate(-93.563 -39.609)" fill="#fef8ec"/>
      <path id="패스_8804" data-name="패스 8804" d="M170.378,99.226a5.9,5.9,0,0,1-2.7-.707c-1.509-.806-2.573-2.161-2.529-3.224.162-3.92,5.757-16.886,12.677-23.626,1.485-1.447,2.894-2.163,4.176-2.117a.275.275,0,0,1,.266.284.269.269,0,0,1-.284.266c-1.133-.039-2.4.623-3.774,1.962C170.97,79.112,165.834,91.99,165.7,95.317c-.035.849.927,2.016,2.238,2.716a4.583,4.583,0,0,0,4.938-.192c2.223-1.627,10.481-14.151,12.126-17.3a.275.275,0,1,1,.487.254c-1.477,2.828-9.843,15.7-12.288,17.488a4.689,4.689,0,0,1-2.82.94" transform="translate(-93.208 -39.253)" fill="#1b2e4e"/>
      <path id="패스_8805" data-name="패스 8805" d="M201.812,125.208c.036-.485-1.655-.924-2.618-3.2s-1.578-1.078-3.657-1.694-2.464-1.078-4.157.539-2.31,1.694-3.426,1.386-12.475-3.557-16.31-4.132-8.208,6.73-2.783,8.4c5.646,1.742,23.635,0,23.635,0a3.073,3.073,0,0,0,2.464-1.944c.462-1.674,2.406-.828,2.791-.019s0,1.867.847,1.829.847-1.328.847-1.328,2.307.964,2.368.154" transform="translate(-93.87 -66.644)" fill="#fff"/>
      <path id="패스_8806" data-name="패스 8806" d="M218.637,50.686l.106,1.775a9.213,9.213,0,0,1-6.835-3.248s-.155-2.334-.139-2.323c4.179,2.169,6.868,3.8,6.868,3.8" transform="translate(-119.521 -26.464)" fill="#fff"/>
      <path id="패스_8807" data-name="패스 8807" d="M218.114,40.612c-1.9.1-5.532-2.283-6.406-3.978a11.1,11.1,0,0,1-.312-3.055,5.4,5.4,0,0,1,3.243-5.658,13.361,13.361,0,0,1,4.178-.325c2.507.37,2.567,2.555,2.735,5.081.188,2.834-.08,7.756-3.437,7.935" transform="translate(-119.302 -15.551)" fill="#fff"/>
      <path id="패스_8808" data-name="패스 8808" d="M205.278,21.284c-2.567,0-4.049,2.255-4.946,4.467-3.7,9.1-.189,22.664-1.116,23.4a9.814,9.814,0,0,0,2.48,1.286,18.13,18.13,0,0,0,.372-3.257s1.114,3.648,1.592,3.686a5.722,5.722,0,0,0,3.683-.917s-4.537-18.152-2.284-21.249c1.046-1.439,4.233-7.4.219-7.412" transform="translate(-112.087 -12.012)" fill="#1b2e4e"/>
      <path id="패스_8809" data-name="패스 8809" d="M229,41.611c.181-.061,1.088-.387,1.206-.834a.416.416,0,0,0-.106-.4,3.063,3.063,0,0,1-.635-2.215,1.291,1.291,0,0,1,1.36-.393l.093-.344a1.638,1.638,0,0,0-1.77.564l-.024.035-.007.043a3.422,3.422,0,0,0,.717,2.549c.034.038.03.056.027.068-.045.169-.54.44-.974.587Z" transform="translate(-129.184 -21.085)" fill="#1b2e4e"/>
      <path id="패스_8810" data-name="패스 8810" d="M224.3,27.727c.385-.93-.041-2.762-2.495-3.918-3.007-1.418-4.9.308-5.2,2.322,1.963-.937,5.664,2,7.691,1.6" transform="translate(-122.253 -13.145)" fill="#1b2e4e"/>
      <path id="패스_8811" data-name="패스 8811" d="M210.451,39.587a1.782,1.782,0,1,1-1.886-1.672,1.781,1.781,0,0,1,1.886,1.672" transform="translate(-116.768 -21.397)" fill="#fff"/>
      <path id="패스_8812" data-name="패스 8812" d="M210.013,41.463a.6.6,0,0,0,.19-.028.475.475,0,0,0,.287-.257.453.453,0,0,0-.147-.571.406.406,0,0,1-.166-.4,1.108,1.108,0,0,1,.193-.459c.132-.213.331-.537-.138-.835-.635-.4-1.424.5-1.512.609l.274.229c.17-.2.73-.737,1.047-.537.172.109.17.114.026.346a1.432,1.432,0,0,0-.243.6.749.749,0,0,0,.271.695c.1.1.1.1.074.163a.122.122,0,0,1-.076.071.689.689,0,0,1-.429-.088l-.168.315a1.228,1.228,0,0,0,.518.14" transform="translate(-117.8 -21.905)" fill="#1b2e4e"/>
      <path id="패스_8813" data-name="패스 8813" d="M222.693,40.554a.457.457,0,0,0,0,.073.473.473,0,0,0,.945-.057.465.465,0,0,0-.122-.286,3.163,3.163,0,0,1-.82.27" transform="translate(-125.685 -22.736)" fill="#1b2e4e"/>
      <path id="패스_8814" data-name="패스 8814" d="M231.208,40.042a.459.459,0,0,0,0,.074.473.473,0,0,0,.945-.057.468.468,0,0,0-.122-.287,3.147,3.147,0,0,1-.82.27" transform="translate(-130.491 -22.447)" fill="#1b2e4e"/>
      <path id="패스_8815" data-name="패스 8815" d="M221.12,38.414c1.387-.825,1.83-.26,1.835-.254l.293-.2c-.024-.036-.612-.859-2.31.152Z" transform="translate(-124.696 -21.225)" fill="#1b2e4e"/>
      <path id="패스_8816" data-name="패스 8816" d="M226.742,49.641a8.2,8.2,0,0,1-3.316-.221s.817,1.515,2.044,1.5a1.3,1.3,0,0,0,1.272-1.276" transform="translate(-126.1 -27.892)" fill="#1b2e4e"/>
      <path id="패스_8817" data-name="패스 8817" d="M225.888,99.792a.275.275,0,0,1-.207-.455,7.319,7.319,0,0,0,1.478-6.372.275.275,0,0,1,.528-.152A7.762,7.762,0,0,1,226.1,99.7a.273.273,0,0,1-.207.095" transform="translate(-127.335 -52.271)" fill="#1b2e4e"/>
      <path id="패스_8818" data-name="패스 8818" d="M237.06,107.082h-.111a.275.275,0,0,1-.265-.284.272.272,0,0,1,.284-.265A7.08,7.08,0,0,0,241.45,105a.275.275,0,0,1,.374.4,7.433,7.433,0,0,1-4.764,1.675" transform="translate(-133.583 -59.222)" fill="#1b2e4e"/>
      <path id="패스_8819" data-name="패스 8819" d="M229.626,134.5v.31h-.948V134.4h.844a.1.1,0,0,1,.1.1" transform="translate(-129.064 -75.853)" fill="#1b2e4e"/>
      <path id="패스_8820" data-name="패스 8820" d="M232.15,134.5v.31H231.2V134.4h.844a.1.1,0,0,1,.1.1" transform="translate(-130.49 -75.853)" fill="#1b2e4e"/>
      <path id="패스_8821" data-name="패스 8821" d="M234.672,134.5v.31h-.947V134.4h.844a.1.1,0,0,1,.1.1" transform="translate(-131.913 -75.853)" fill="#1b2e4e"/>
      <path id="패스_8822" data-name="패스 8822" d="M245.186,134.5v.31h-.947V134.4h.844a.1.1,0,0,1,.1.1" transform="translate(-137.847 -75.853)" fill="#1b2e4e"/>
      <path id="패스_8823" data-name="패스 8823" d="M247.711,134.5v.31h-.947V134.4h.844a.1.1,0,0,1,.1.1" transform="translate(-139.272 -75.853)" fill="#1b2e4e"/>
      <path id="패스_8824" data-name="패스 8824" d="M277.331,134.5v.31h-.947V134.4h.844a.1.1,0,0,1,.1.1" transform="translate(-155.99 -75.853)" fill="#1b2e4e"/>
      <path id="패스_8825" data-name="패스 8825" d="M279.854,134.5v.31h-.947V134.4h.844a.1.1,0,0,1,.1.1" transform="translate(-157.414 -75.853)" fill="#1b2e4e"/>
      <path id="패스_8826" data-name="패스 8826" d="M239.594,134.5v.31h-3.257V134.4h3.154a.1.1,0,0,1,.1.1" transform="translate(-133.387 -75.853)" fill="#1b2e4e"/>
      <path id="패스_8827" data-name="패스 8827" d="M285.053,134.5v.31H281.8V134.4h3.153a.1.1,0,0,1,.1.1" transform="translate(-159.044 -75.853)" fill="#1b2e4e"/>
      <path id="패스_8828" data-name="패스 8828" d="M261.144,134.5v.31H249.833V134.4h11.208a.1.1,0,0,1,.1.1" transform="translate(-141.004 -75.853)" fill="#1b2e4e"/>
      <path id="패스_8829" data-name="패스 8829" d="M243.678,135.344l.308,1.238H223.2a.306.306,0,0,1-.308-.305v-.932Z" transform="translate(-125.801 -76.387)" fill="#f84558"/>
      <path id="패스_8830" data-name="패스 8830" d="M276.741,87.351h28.268a.6.6,0,0,1,.588.75L300.1,108.257h-29.5l5.3-20.263a.857.857,0,0,1,.832-.643" transform="translate(-152.728 -49.3)" fill="#ec384a"/>
      <path id="패스_8831" data-name="패스 8831" d="M276.741,87.351h28.268a.6.6,0,0,1,.588.75s-5.947,12.975-9.918,15.6c-5.242,3.467-25.074,4.556-25.074,4.556l5.3-20.263a.857.857,0,0,1,.832-.643" transform="translate(-152.728 -49.3)" fill="#f84558"/>
      <path id="패스_8832" data-name="패스 8832" d="M298.412,136.429a.153.153,0,0,1-.154.153H267.607v-1.238h30.8Z" transform="translate(-151.036 -76.387)" fill="#ec384a"/>
      <path id="패스_8833" data-name="패스 8833" d="M272.77,89.052a2.006,2.006,0,0,1,1.823-1.7l-5.679,20.906h-1.306s3.984-14.71,5.162-19.206" transform="translate(-151.037 -49.301)" fill="#f84558"/>
      <path id="패스_8834" data-name="패스 8834" d="M299.747,108.176h-29.5a.275.275,0,0,1-.266-.345l5.3-20.263a1.131,1.131,0,0,1,1.1-.848h28.268a.878.878,0,0,1,.7.341.868.868,0,0,1,.156.751l-5.494,20.16a.274.274,0,0,1-.265.2m-29.143-.55h28.933l5.438-19.953a.319.319,0,0,0-.059-.274.33.33,0,0,0-.263-.129H276.385a.582.582,0,0,0-.565.436Z" transform="translate(-152.372 -48.945)" fill="#1b2e4e"/>
    </g>
  </g>
</svg>
