<svg id="구성_요소_202_1" data-name="구성 요소 202 – 1" xmlns="http://www.w3.org/2000/svg" width="253.375" height="233.107" viewBox="0 0 253.375 233.107">
  <g id="그룹_5463" data-name="그룹 5463" transform="translate(-26.626 -51.854)">
    <path id="패스_8695" data-name="패스 8695" d="M446.147,43.039c-11.2-.99-32.862,8.045-35.321,27.88s68.374-24.957,35.321-27.88" transform="translate(-355.548 55.205)" fill="#eef8f6"/>
    <path id="패스_8443" data-name="패스 8443" d="M.014,165.412c-.921,50.328,44.823,82.562,102.172,83.611,75.716,1.385,104.586-38.9,105.506-89.227,1.3-71.088-66.107-111.226-102.376-67.723C67.664,137.234,1.235,98.659.014,165.412" transform="translate(2.521 49.473) rotate(-19)" fill="#eef8f6"/>
  </g>
  <g id="그룹_5412" data-name="그룹 5412" transform="translate(-18.88 41.35)">
    <g id="people">
      <path id="패스_8376" data-name="패스 8376" d="M1023.321,1175.994s-1.242,11.135,6.813,16.471,11.764,3.46,11.764,5.126c0,1.049-6.192,1.762-13.14.655s-7.954-2.82-7.954-2.82v3.325h-5.135l-.805-6.345a10.486,10.486,0,0,1-.2-5.236c.7-2.316,1.879-7.451,1.175-10.774Z" transform="translate(-897.167 -1040.09)" fill="#34234d"/>
      <path id="패스_8377" data-name="패스 8377" d="M1049.987,1227.451a21.082,21.082,0,0,1-7.4-5.076c-1.314-1.467-1.03-3.122-.729-4.874a18.081,18.081,0,0,0,.264-1.969,30.651,30.651,0,0,0-.256-5.328l.4-.059a31.142,31.142,0,0,1,.259,5.411,18.4,18.4,0,0,1-.269,2.013c-.3,1.725-.553,3.214.631,4.535a20.688,20.688,0,0,0,7.265,4.976Z" transform="translate(-921.233 -1070.296)" fill="#fff"/>
      <path id="패스_8378" data-name="패스 8378" d="M1105.8,1354.51a58.111,58.111,0,0,1-10.976-.811l.086-.4c5.91,1.287,17.42.639,17.535.633l.024.4c-.058,0-3,.169-6.669.169" transform="translate(-968.301 -1196.91)" fill="#fff"/>
      <path id="패스_8379" data-name="패스 8379" d="M547.589,1110.279s-4.764,7.147-5.631,12.2-.962,8.828-2.455,11.046-1.972,3.2-2.382,3.609H529.83a12.209,12.209,0,0,1-.18-6.605c.939-3.465,7.607-19.487,8.226-24.238Z" transform="translate(-468.11 -978.443)" fill="#34234d"/>
      <rect id="사각형_4094" data-name="사각형 4094" width="9.036" height="0.404" transform="translate(61.126 157.043)" fill="#fff"/>
      <path id="패스_8380" data-name="패스 8380" d="M604.721,1207.581l-.322-.246c2-2.624,1.982-5.728,1.965-8.221a13.732,13.732,0,0,1,.132-2.643c.485-2.353,3.021-6.11,3.129-6.269l.335.227c-.026.038-2.6,3.85-3.068,6.123a13.541,13.541,0,0,0-.123,2.559c.017,2.42.04,5.735-2.048,8.47" transform="translate(-534.553 -1052.656)" fill="#fff"/>
      <path id="패스_8381" data-name="패스 8381" d="M915.519,2.385c.306-2.387,5.586-4.2,9.616.8,5.736,7.108,2.512,41.021,3.071,42.922,0,0-11.989,1.668-14.5-3.311,0,0-.233-24.422,1.818-40.407" transform="translate(-808.104 0)" fill="#34234d"/>
      <path id="패스_8382" data-name="패스 8382" d="M988.536,249.646c-3.582-.573-10.342-9.617-12.135-16.087s3.31-23.573,7.732-16.425c2.045,3.306,10.652,23.8,10.976,27.072.464,4.7-4.639,5.749-6.573,5.44" transform="translate(-863.239 -190.523)" fill="#65efe5"/>
      <path id="패스_8383" data-name="패스 8383" d="M912.462,479.815a43.714,43.714,0,0,1,12.431,25.576c1.839,16.006,3.349,29.261,3.373,39.265s.6,24.4,2.934,28.4a59.15,59.15,0,0,1-28.138,3.4s-.16-38.989.134-54.87.9-40.827.9-40.827Z" transform="translate(-798.662 -424.364)" fill="#65efe5"/>
      <path id="패스_8384" data-name="패스 8384" d="M909.106,638.275s2.107,1.088,5.48-2.687c0,0-5.465,16.2-9.629,25.37,0,0,4.283-19.979,4.149-22.683" transform="translate(-800.377 -562.136)" fill="#34234d"/>
      <path id="패스_8385" data-name="패스 8385" d="M593.694,474.745a92.752,92.752,0,0,0-14.364,30.238c-4.358,17.209-.407,18.323-6.521,31.033s-4.543,10.425-9.31,23.222c0,0,12.452,11.2,26.428,11.895,0,0,11.892-46.808,14.939-62.051s3.271-24.721,4.226-30.411Z" transform="translate(-498.379 -419.88)" fill="#65efe5"/>
      <path id="패스_8386" data-name="패스 8386" d="M576.671,594.545l-.389-.113c.051-.172,5.082-17.349,9.894-25.029,3.216-5.132,3.565-8.431,4.2-14.42.31-2.936.7-6.589,1.537-11.4,2.5-14.322,11.426-29.433,11.516-29.585l.348.207c-.089.15-8.975,15.2-11.465,29.447-.838,4.794-1.223,8.44-1.533,11.37-.64,6.048-.992,9.381-4.257,14.592-4.782,7.632-9.8,24.755-9.848,24.927" transform="translate(-509.685 -454.601)" fill="#34234d"/>
      <path id="패스_8387" data-name="패스 8387" d="M821.012,709.71l-.393-.1c3.408-13.648,9.428-38.057,11.455-48.2.963-4.819,1.738-9.525,2.368-14.387l.4.052c-.632,4.871-1.407,9.586-2.373,14.414-2.029,10.147-8.05,34.563-11.459,48.215" transform="translate(-725.786 -572.254)" fill="#34234d"/>
      <path id="패스_8388" data-name="패스 8388" d="M601.046,1179.743c-15.084-2.891-23.674-10.952-23.759-11.033l.279-.293c.085.08,8.6,8.062,23.556,10.929Z" transform="translate(-510.574 -1033.389)" fill="#34234d"/>
      <path id="패스_8389" data-name="패스 8389" d="M913.677,1241.671a35.8,35.8,0,0,1-6.426-.489l.082-.4c.113.023,11.561,2.287,25.769-3.2l.146.378a54.631,54.631,0,0,1-19.571,3.712" transform="translate(-802.406 -1094.561)" fill="#34234d"/>
      <path id="패스_8390" data-name="패스 8390" d="M972.287,1086.1l-.327-.239a47.055,47.055,0,0,0,7.166-15.923l.4.083a47.494,47.494,0,0,1-7.235,16.079" transform="translate(-859.637 -946.287)" fill="#34234d"/>
      <path id="패스_8391" data-name="패스 8391" d="M818.937,198.587c-2.4-.088-7.253-.514-9.088-.111-8.338,1.832-8.2,7.707-8.2,14.117a72.065,72.065,0,0,1-3.215,22.245s14.546,5.243,27.231,3.04c0,0-4.868-9.931,1.868-18.753,5.111-6.693-1.033-13.345-1.538-17.48-.334-2.734-5.79-3.012-7.06-3.059" transform="translate(-706.167 -175.387)" fill="#65efe5"/>
      <path id="패스_8392" data-name="패스 8392" d="M798.87,240.328c-1.55-.453-2.473-.785-2.483-.789l-.19-.068.068-.19a72.607,72.607,0,0,0,3.2-22.177v-.312c0-5.69,0-11.064,6.229-13.385l.141.379c-5.97,2.223-5.968,7.22-5.966,13.006v.312a74.236,74.236,0,0,1-3.161,22.121c.342.118,1.137.383,2.272.715Z" transform="translate(-704.186 -179.898)" fill="#34234d"/>
      <path id="패스_8393" data-name="패스 8393" d="M1017.986,281.449a17.975,17.975,0,0,1,3.217-14.707c3.571-4.677,1.517-9.376-.134-13.152-.172-.394-.34-.777-.5-1.151l.373-.157c.157.372.324.754.495,1.145,1.693,3.873,3.8,8.693.085,13.56a17.582,17.582,0,0,0-3.142,14.384Z" transform="translate(-899.996 -223.126)" fill="#34234d"/>
      <path id="패스_8394" data-name="패스 8394" d="M1002.461,377.385q-.35,0-.714-.02a.914.914,0,0,1-.1,0v-.4a1.13,1.13,0,0,0,.12.005,7.876,7.876,0,0,0,5.17-1.238l.246.322a7.709,7.709,0,0,1-4.723,1.34" transform="translate(-885.896 -332.302)" fill="#34234d"/>
      <path id="패스_8395" data-name="패스 8395" d="M871.15,199.152a8.951,8.951,0,0,1,3.01-.993,46.63,46.63,0,0,1,11.619.34c2.069.18,2.452,2.1,2.043,4.134-1,4.954-11.878,3.53-16.671-3.481" transform="translate(-770.477 -175.069)" fill="#fff"/>
      <path id="패스_8396" data-name="패스 8396" d="M951.327,328.643l-.282-.29a8.2,8.2,0,0,0,2.09-7.019l.4-.084c.009.043.886,4.385-2.2,7.393" transform="translate(-841.139 -284.124)" fill="#34234d"/>
      <path id="패스_8397" data-name="패스 8397" d="M918.131,120.646l-.015,7.121c-.375.55-2.962,2.1-7.514.034l.021-9.993a67.779,67.779,0,0,0,7.508,2.838" transform="translate(-805.369 -104.192)" fill="#fff"/>
      <path id="패스_8398" data-name="패스 8398" d="M918.215,123.7l0,1.44c-3.983.071-7.208-2.852-7.508-3.58,0,0-.011-2.652.005-2.639,4.576,2.749,6.945,4.839,7.505,4.78" transform="translate(-805.458 -105.172)" fill="#34234d"/>
      <path id="패스_8399" data-name="패스 8399" d="M1186.6,248.293s2.177-3.5,4.56-2.327c2.562,1.267,8.941.036,8.941.036s-.2,3.02-4.967,4.432-6.282,3.069-6.282,3.069Z" transform="translate(-1049.468 -217.326)" fill="#fff"/>
      <path id="패스_8400" data-name="패스 8400" d="M1222.868,188.03a65.487,65.487,0,0,0-.319-7.8c-.057-.486-.955-.4-1.129.055-.679,1.783.028,6.591.028,6.591s-1.432-4.441-2.029-4.479a19.169,19.169,0,0,0-3.154.89c-.9.3-.757.558-.642,1.5a5.008,5.008,0,0,1-.067,2.277c-.262.236-2.7.554-3.194.8,0,0,3.261,3.53,4.747,3.59,1.71.069,5.759-3.434,5.759-3.434" transform="translate(-1072.257 -159.112)" fill="#fff"/>
      <path id="패스_8401" data-name="패스 8401" d="M1250.1,207.754l1.186,4.4a34.335,34.335,0,0,0-1.186-4.4" transform="translate(-1105.632 -183.744)" fill="#34234d"/>
      <path id="패스_8402" data-name="패스 8402" d="M1261.537,204.132l1.8,5.076a41.707,41.707,0,0,0-1.8-5.076" transform="translate(-1115.75 -180.54)" fill="#34234d"/>
      <path id="패스_8403" data-name="패스 8403" d="M1080.173,270.733l-2.5-4.606c-3.278,2.63-14.1,16.472-14.524,22.442a5.033,5.033,0,0,0,3.425,5.406c3.371,1.011,5.693-2.217,7.377-5.785.234-.5,6.224-17.457,6.224-17.457" transform="translate(-940.27 -235.371)" fill="#fff"/>
      <path id="패스_8404" data-name="패스 8404" d="M917.46,54.809c-2.162-.02-6.1-2.973-6.97-4.953a12.61,12.61,0,0,1-.138-3.479A6.12,6.12,0,0,1,914.42,40.2a15.141,15.141,0,0,1,4.751-.073c2.811.595,2.726,3.071,2.737,5.942.013,3.221-.636,8.772-4.448,8.737" transform="translate(-805.106 -35.357)" fill="#fff"/>
      <path id="패스_8405" data-name="패스 8405" d="M873.486,10.43c-2.907.106-4.49,2.73-5.411,5.274-3.793,10.471.764,25.685-.255,26.556a11.114,11.114,0,0,0,2.866,1.351c.22.068.281-3.707.281-3.707s1.42,4.085,1.963,4.108a6.488,6.488,0,0,0,4.133-1.2s-8.09-26.14-3.832-23.839c1.774.959,4.8-8.709.256-8.544" transform="translate(-766.399 -9.221)" fill="#34234d"/>
      <path id="패스_8406" data-name="패스 8406" d="M984.048,88.429l-.105-.391c.5-.136,1.082-.407,1.144-.6,0-.013.011-.033-.025-.079a3.87,3.87,0,0,1-.631-2.934l.01-.048.031-.038a1.857,1.857,0,0,1,2.042-.514l-.129.383a1.471,1.471,0,0,0-1.566.35,3.48,3.48,0,0,0,.562,2.551.47.47,0,0,1,.092.457c-.165.5-1.215.8-1.423.859" transform="translate(-870.235 -74.038)" fill="#34234d"/>
      <path id="패스_8407" data-name="패스 8407" d="M944.543,26.723c.5-1.025.147-3.128-2.547-4.609-3.3-1.816-5.566,0-6.045,2.262,2.287-.922,6.269,2.66,8.591,2.348" transform="translate(-827.79 -18.901)" fill="#34234d"/>
      <path id="패스_8408" data-name="패스 8408" d="M895.271,82.4a2.02,2.02,0,1,1-2.016-2.025,2.02,2.02,0,0,1,2.016,2.025" transform="translate(-788.237 -71.085)" fill="#fff"/>
      <path id="패스_8409" data-name="패스 8409" d="M900.855,87.362a1.345,1.345,0,0,1-.626-.2l.212-.344a.785.785,0,0,0,.479.129.137.137,0,0,0,.091-.075c.037-.068.038-.069-.071-.19a.85.85,0,0,1-.259-.8,1.628,1.628,0,0,1,.318-.667c.179-.253.182-.258,0-.394-.345-.252-1.015.316-1.222.534l-.294-.278c.107-.113,1.064-1.085,1.754-.583.51.371.261.722.1.955a1.253,1.253,0,0,0-.25.506.46.46,0,0,0,.159.46.514.514,0,0,1,.127.656.541.541,0,0,1-.343.271.657.657,0,0,1-.167.021" transform="translate(-795.532 -74.6)" fill="#34234d"/>
      <path id="패스_8410" data-name="패스 8410" d="M959.791,133.8a1.553,1.553,0,0,1-1.042-.506l.273-.3c.586.534.837.438,1.3.262a2.7,2.7,0,0,1,1.71-.17l-.083.4a2.322,2.322,0,0,0-1.482.152,1.862,1.862,0,0,1-.671.166" transform="translate(-847.953 -117.626)" fill="#34234d"/>
      <path id="패스_8411" data-name="패스 8411" d="M958.915,94.387a.6.6,0,0,0-.009.083.537.537,0,1,0,.956-.33,3.6,3.6,0,0,1-.948.247" transform="translate(-848.092 -83.259)" fill="#34234d"/>
      <path id="패스_8412" data-name="패스 8412" d="M995.371,94.466a.58.58,0,0,0-.009.083.537.537,0,1,0,.956-.33,3.6,3.6,0,0,1-.947.247" transform="translate(-880.335 -83.329)" fill="#34234d"/>
      <path id="패스_8413" data-name="패스 8413" d="M952.231,83.455l-.185-.36c1.991-1.022,2.6-.05,2.624-.009l-.348.207.174-.1-.172.107c0-.007-.466-.678-2.094.159" transform="translate(-842.024 -73.078)" fill="#34234d"/>
    </g>
    <path id="패스_8436" data-name="패스 8436" d="M835.485,252.418c-3.524-2.152-13.476-15.153-15.6-21.523-3.349-10.061,3.907-16.931,4.811-15.631,2.219,3.192,17.3,27.857,17.707,31.124.588,4.687-5.019,7.192-6.923,6.029" transform="translate(-724.364 -190.247)" fill="#fff" stroke="#34234d" stroke-width="0.6"/>
    <path id="패스_8441" data-name="패스 8441" d="M835.485,252.418c-3.524-2.152-13.476-15.153-15.6-21.523-3.349-10.061,3.907-16.931,4.811-15.631,2.219,3.192,17.3,27.857,17.707,31.124.588,4.687-5.019,7.192-6.923,6.029" transform="translate(-724.364 -190.247)" fill="#fff"/>
  </g>
</svg>
