<svg xmlns="http://www.w3.org/2000/svg" width="208.725" height="168.757" viewBox="0 0 208.725 168.757">
  <g id="그룹_5459" data-name="그룹 5459" transform="translate(19.609 9.059)">
    <path id="패스_8697" data-name="패스 8697" d="M194.677,157.852c-9.759-21.448.578-26.045,9.608-47.426,9.408-22.277,3.271-37.25-12.811-46.593-21.785-12.657-42.83,5.986-64.965,5.986-36.146,0-32.686-23.482-70.014-21.28-25.9,1.528-45.98,33.2-38.274,54.281,6.581,18,5.6,30.937-9.107,48.216C-8.535,171.764.745,199.7,25.8,199.7H176.191c21.933,0,27.244-22.6,18.486-41.847" transform="translate(-19.609 -57.452)" fill="#fff"/>
    <g id="주머니">
      <path id="패스_8762" data-name="패스 8762" d="M90.047,272.09c-4.082-10.41-12.3-21.154-26.767-20.493-4.045.185-9.136,2.944-15.413,9.875-14.479,15.984-4.642,32.03-10.287,39.936H98.49c-9.26-7.427-2.145-13.254-8.443-29.317" transform="translate(-21.21 -141.983)" fill="#f2e6d6"/>
      <path id="패스_8763" data-name="패스 8763" d="M65.019,251.634c-4.05,0-9.136,2.944-15.413,9.875-12.906,14.248-6.492,28.545-8.944,37.082,3.925.415,29.165-.774,35.051-8.784,4.026-5.479,8.32-16.01,9.766-28.743-3.841-4.287-8.535-9.431-20.459-9.431" transform="translate(-22.949 -142.021)" fill="#fef8ec"/>
      <path id="패스_8764" data-name="패스 8764" d="M98.134,301.327H37.224a.275.275,0,0,1-.224-.435c2.122-2.971,2-7.215,1.855-12.129-.233-7.986-.522-17.925,8.452-27.831,5.8-6.4,11.05-9.757,15.6-9.965,16.182-.731,23.885,12.632,27.036,20.668a44.1,44.1,0,0,1,3.084,16.516c.145,5.208.241,8.649,5.275,12.687a.275.275,0,0,1-.172.489m-60.4-.55H97.373c-4.652-4-4.753-7.644-4.891-12.61a43.619,43.619,0,0,0-3.046-16.332c-3.1-7.9-10.655-21.041-26.5-20.319-4.4.2-9.524,3.494-15.222,9.785-8.825,9.743-8.539,19.559-8.31,27.447.139,4.785.26,8.946-1.667,12.03" transform="translate(-20.854 -141.628)" fill="#1b2e4e"/>
      <path id="패스_8765" data-name="패스 8765" d="M83.394,221.1a14.753,14.753,0,0,0-2.082,1.681A6.9,6.9,0,0,1,78.5,224.5c-3.349,1.022-7.035-1.1-8.417,1.079a12.6,12.6,0,0,1-2.147,2.569,8.765,8.765,0,0,1-1.235.936s4.332,4.762,7.845,4.819c3.58.058,10.592-2.15,10.592-2.15s6.835-8.051,5.372-12.059c0,0-2.848-1.422-7.115,1.4" transform="translate(-37.645 -123.794)" fill="#fef8ec"/>
      <path id="패스_8766" data-name="패스 8766" d="M96.6,225.068a6.9,6.9,0,0,1-2.814,1.72c-.052.259.933,5.113,1.565,5.564s3.332-8.965,3.332-8.965a14.777,14.777,0,0,0-2.082,1.681" transform="translate(-52.928 -126.078)" fill="#f2e6d6"/>
      <path id="패스_8767" data-name="패스 8767" d="M69.534,236.241c.162.081,6.924,3.83,7.594,3.824.686-.006-5.447-6.393-5.447-6.393a12.626,12.626,0,0,1-2.147,2.569" transform="translate(-39.245 -131.883)" fill="#f2e6d6"/>
      <path id="패스_8768" data-name="패스 8768" d="M74.332,233.819h-.147c-3.591-.059-7.864-4.711-8.044-4.909a.274.274,0,0,1-.068-.226.277.277,0,0,1,.133-.2,8.683,8.683,0,0,0,1.191-.9,12.326,12.326,0,0,0,2.1-2.51c.874-1.379,2.564-1.214,4.352-1.042a10.866,10.866,0,0,0,4.216-.153,6.658,6.658,0,0,0,2.7-1.655,15.136,15.136,0,0,1,2.121-1.712h0c4.35-2.882,7.268-1.483,7.39-1.422a.273.273,0,0,1,.135.152c1.5,4.11-5.138,12-5.421,12.331a.274.274,0,0,1-.127.084c-.284.09-6.911,2.163-10.531,2.164m-7.562-5.044c.921.95,4.511,4.446,7.423,4.494,3.293.065,9.658-1.876,10.428-2.114.612-.737,6.48-7.945,5.311-11.615-.523-.2-3.1-.982-6.743,1.429a14.343,14.343,0,0,0-2.043,1.65,7.189,7.189,0,0,1-2.926,1.785,11.274,11.274,0,0,1-4.428.174c-1.755-.17-3.142-.3-3.836.79a12.907,12.907,0,0,1-2.194,2.625,10.544,10.544,0,0,1-.993.783" transform="translate(-37.289 -123.431)" fill="#1b2e4e"/>
      <path id="패스_8769" data-name="패스 8769" d="M94.026,240.862c-1.122.628-4.167,4.6-12.688,4.6-2.935,0-1.248,2.462-1.248,2.462,3.134,1.46,15.15-1.468,15.15-1.468.422-1.955.374-6.481-1.214-5.593" transform="translate(-44.93 -135.876)" fill="#fff"/>
      <path id="패스_8770" data-name="패스 8770" d="M89.363,250.748a24.361,24.361,0,0,1-5.645.265,22.694,22.694,0,0,1-4.068-.359,2.462,2.462,0,0,0,.441,1.665c3.134,1.46,15.15-1.468,15.15-1.468a12.342,12.342,0,0,0,.225-2.313c-.288.179-.583.346-.883.5a21.023,21.023,0,0,1-5.22,1.709" transform="translate(-44.931 -140.273)" fill="#cf7f6e"/>
      <path id="패스_8771" data-name="패스 8771" d="M97.587,297.214H93.322L95,289.67H90.852l-2.717,14.358L84.823,289.67H81.3L77.977,304l-2.73-14.331H71.1l1.674,7.543H67.633v3.132h5.838l2.108,9.5h4.185l3.285-13.5,3.284,13.5h4.185l2.108-9.5h4.959Z" transform="translate(-38.171 -163.488)" fill="#f2e6d6"/>
      <path id="패스_8772" data-name="패스 8772" d="M92.361,301.637H88.1l1.674-7.543H85.626l-2.717,14.358L79.6,294.093h-3.52l-3.326,14.331-2.73-14.331H65.877l1.674,7.543H62.407v3.132h5.838l2.108,9.5h4.185l3.285-13.5,3.284,13.5h4.185l2.108-9.5h4.959Z" transform="translate(-35.222 -165.984)" fill="#ff5168"/>
    </g>
    <g id="사람">
      <path id="패스_8773" data-name="패스 8773" d="M304.427,121.4s3.639-.022,3.851-2.357c.229-2.511,4.093-6.741,4.093-6.741s-2.363-1.242-5.622,1.693-5.2,3.31-5.2,3.31Z" transform="translate(-170.19 -63.233)" fill="#fff"/>
      <path id="패스_8774" data-name="패스 8774" d="M318.927,112.41a57.7,57.7,0,0,1,5.717,3.834c.339.267-.137.9-.562.823-1.654-.311-4.943-3.058-4.943-3.058s2.68,3.124,2.433,3.59a16.865,16.865,0,0,1-2.123,1.962c-.644.541-.768.312-1.427-.21a4.4,4.4,0,0,0-1.743-1c-.3.088-1.662,1.777-2.076,2.032,0,0-1.152-4.079-.512-5.225.736-1.318,5.236-2.748,5.236-2.748" transform="translate(-176.936 -63.443)" fill="#fff"/>
      <path id="패스_8775" data-name="패스 8775" d="M324.348,124.421l-2.752-2.909a10.206,10.206,0,0,1,2.752,2.909" transform="translate(-181.507 -68.581)" fill="#cf7f6e"/>
      <path id="패스_8776" data-name="패스 8776" d="M326.174,121.579l-2.98-3.682a12.554,12.554,0,0,1,2.98,3.682" transform="translate(-182.409 -66.54)" fill="#cf7f6e"/>
      <path id="패스_8777" data-name="패스 8777" d="M272.581,119.547l2.311,4c-3.49,1.253-18.886,3.012-23.571.58a4.439,4.439,0,0,1-2.487-5.067c.793-3,4.291-3.26,7.75-2.882.48.052,16,3.364,16,3.364" transform="translate(-140.371 -65.497)" fill="#fff"/>
      <path id="패스_8778" data-name="패스 8778" d="M249.98,319.821s-1.1,9.821,6.01,14.528,10.375,3.051,10.375,4.521c0,.926-5.461,1.555-11.589.578s-7.016-2.487-7.016-2.487v2.932H243.23l-.71-5.6a9.242,9.242,0,0,1-.178-4.618c.622-2.043,1.658-6.571,1.037-9.5Z" transform="translate(-136.643 -180.505)" fill="#1b2e4e"/>
      <path id="패스_8779" data-name="패스 8779" d="M249.605,338.361c-1.044-1.165-.818-2.479-.556-4a16.341,16.341,0,0,0,.237-1.776,27.456,27.456,0,0,0-.229-4.773l-.353.052a27,27,0,0,1,.227,4.7,15.922,15.922,0,0,1-.233,1.737c-.266,1.546-.517,3.005.642,4.3,1.594,1.779,3.814,2.875,6.672,4.15a18.249,18.249,0,0,1-6.406-4.388" transform="translate(-140.237 -185.015)" fill="#fef8ec"/>
      <path id="패스_8780" data-name="패스 8780" d="M261.1,361.311a49.258,49.258,0,0,0,9.6,1.063,45.24,45.24,0,0,0,6.133-.452c-.1.006-10.524.524-15.737-.611" transform="translate(-147.363 -203.922)" fill="#fef8ec"/>
      <path id="패스_8781" data-name="패스 8781" d="M144.746,307.029s-4.2,6.3-4.966,10.761-.849,7.786-2.165,9.741-1.74,2.82-2.1,3.184h-6.431a10.768,10.768,0,0,1-.159-5.827c.827-3.056,6.709-17.188,7.255-21.378Z" transform="translate(-72.577 -171.3)" fill="#1b2e4e"/>
      <path id="패스_8782" data-name="패스 8782" d="M128.928,362.625l7.538.345.216-.345Z" transform="translate(-72.766 -204.663)" fill="#fef8ec"/>
      <path id="패스_8783" data-name="패스 8783" d="M151.443,323.346l-.3-.2c-.095.14-2.333,3.453-2.76,5.53a12.1,12.1,0,0,0-.116,2.331c.015,2.2.318,5.153-1.45,7.468,1.841-2.412,1.821-5.336,1.806-7.471a11.954,11.954,0,0,1,.109-2.257c.413-2.006,2.683-5.368,2.706-5.4" transform="translate(-82.866 -182.381)" fill="#fef8ec"/>
      <path id="패스_8784" data-name="패스 8784" d="M214.326,20.663c.139-2.119,4.688-4,8.509.175,5.438,5.943,4.458,35.973,5.054,37.616,0,0-10.463,2.125-12.95-2.121,0,0-1.543-21.486-.613-35.67" transform="translate(-120.795 -10.355)" fill="#1b2e4e"/>
      <path id="패스_8785" data-name="패스 8785" d="M236.3,67.755c2.531,2.966,7.137,13.633,9.744,19.782-2.087,1.394-2.544,6.707-6.532,7.712A30.084,30.084,0,0,1,230.3,82.816c-1.933-5.6-.984-23.245,6-15.061" transform="translate(-129.485 -37.038)" fill="#f2e6d6"/>
      <path id="패스_8786" data-name="패스 8786" d="M236.3,67.755c2.531,2.966,7.137,13.633,9.744,19.782-3.011.611-3.047,2.985-6.663,4.086-3.33-2.33-7.553-4.378-9.082-8.806-1.933-5.6-.984-23.245,6-15.061" transform="translate(-129.485 -37.038)" fill="#fef8ec"/>
      <path id="패스_8787" data-name="패스 8787" d="M241.4,93.891a.275.275,0,0,1-.191-.473,12.378,12.378,0,0,0,2.241-3.465,8.683,8.683,0,0,1,1.9-2.872c-3.014-7.1-7.246-16.735-9.615-19.511-1.524-1.786-2.807-2.4-3.816-1.823-2.865,1.638-3.245,12.19-1.716,16.616a.275.275,0,0,1-.519.179c-1.464-4.239-1.334-15.387,1.963-17.273,1.269-.727,2.787-.072,4.507,1.943,2.44,2.86,6.755,12.7,9.788,19.853a.274.274,0,0,1-.1.336,7.446,7.446,0,0,0-1.9,2.8,12.971,12.971,0,0,1-2.351,3.615.275.275,0,0,1-.191.077" transform="translate(-129.129 -36.676)" fill="#1b2e4e"/>
      <path id="패스_8788" data-name="패스 8788" d="M226.3,131.509a77.949,77.949,0,0,1,9.985,22.925c3.788,14.541,2.014,36.511,2.035,45.334s.528,21.519,2.587,25.048a52.168,52.168,0,0,1-24.818,3s-.142-34.389.118-48.4.795-46.712.795-46.712Z" transform="translate(-121.935 -74.223)" fill="#65efe5"/>
      <path id="패스_8789" data-name="패스 8789" d="M219.581,171.171s1.859.96,4.834-2.37c0,0-5.264,16.4-8.937,24.485,0,0,1.743-10.74,4.1-22.115" transform="translate(-121.615 -95.27)" fill="#1b2e4e"/>
      <path id="패스_8790" data-name="패스 8790" d="M163.233,131.166a77.688,77.688,0,0,0-13.61,26.67c-4.025,15.179.582,26.863-4.811,38.074s-4.007,9.2-8.212,20.482c0,0,10.983,9.881,23.31,10.491,0,0,10.489-51.987,13.177-65.432s2.884-21.8,3.727-26.823Z" transform="translate(-77.096 -74.029)" fill="#65efe5"/>
      <path id="패스_8791" data-name="패스 8791" d="M238.318,275.6c-.006-2.406.122-5.791.234-9.734-4.733,13.3-13.382,19.748-22.5,22.554.009,8.611.036,15.227.036,15.227a52.169,52.169,0,0,0,24.818-3c-2.06-3.529-2.567-16.224-2.587-25.048" transform="translate(-121.938 -150.051)" fill="#65efe5"/>
      <path id="패스_8792" data-name="패스 8792" d="M138.46,315.044c-.477,1.357-1.07,3.007-1.859,5.128,0,0,10.982,9.881,23.309,10.491l2.584-12.814a64.94,64.94,0,0,1-24.035-2.8" transform="translate(-77.097 -177.809)" fill="#65efe5"/>
      <path id="패스_8793" data-name="패스 8793" d="M163.982,140.337c-.087.133-8.728,13.464-11.04,26.1a104.281,104.281,0,0,0-1.268,15.709c-.219,7.389-.408,13.77-2.911,17.765-4.245,6.774-8.34,22.023-8.384,22.175.044-.152,4.468-15.254,8.686-21.986,2.555-4.078,2.746-10.5,2.966-17.944a103.932,103.932,0,0,1,1.262-15.655c2.3-12.563,10.9-25.836,10.988-25.968Z" transform="translate(-79.229 -79.205)" fill="#1b2e4e"/>
      <path id="패스_8794" data-name="패스 8794" d="M140.391,318.048a53.3,53.3,0,0,0,22.471,10.34l.067-.351a56.458,56.458,0,0,1-22.538-9.989" transform="translate(-79.236 -179.504)" fill="#1b2e4e"/>
      <path id="패스_8795" data-name="패스 8795" d="M240.029,333.986a49.236,49.236,0,0,1-22.992,3.283,31.633,31.633,0,0,0,5.668.431,48.94,48.94,0,0,0,17.391-3.305Z" transform="translate(-122.495 -188.5)" fill="#1b2e4e"/>
      <path id="패스_8796" data-name="패스 8796" d="M226.191,156.223s-2.191,1.794-3.568.592-1.054-9.968-1.054-9.968l1.854-3.031h4.412Z" transform="translate(-125.034 -81.169)" fill="#65efe5"/>
      <path id="패스_8797" data-name="패스 8797" d="M215.241,71.5l-15.906-5.523c-7.239,2.07-6.794,7.234-6.443,12.876a63.554,63.554,0,0,1-1.612,19.759s13.092,3.819,24.138,1.184c0,0-4.83-8.475.617-16.61,2.926-4.371.885-8.415-.795-11.686" transform="translate(-107.958 -37.234)" fill="#f2e6d6"/>
      <path id="패스_8798" data-name="패스 8798" d="M215.921,71.5l-15.906-5.523c-7.239,2.07-6.794,7.234-6.443,12.876a68.6,68.6,0,0,1-1.087,17.511c2.662,1.069,17.813,1.522,21.789-2.418a15.3,15.3,0,0,1,2.441-10.76c2.926-4.371.885-8.415-.795-11.686" transform="translate(-108.637 -37.234)" fill="#fef8ec"/>
      <path id="패스_8799" data-name="패스 8799" d="M191.823,107.608c-1.541,1.259,4.929,1.33,4.929,1.33l3.413-13.859s-6.693,11.182-8.341,12.529" transform="translate(-108.129 -53.662)" fill="#f2e6d6"/>
      <path id="패스_8800" data-name="패스 8800" d="M224.161,67.351c-.444-2.389-5.262-2.335-6.382-2.306-2.118.054-6.414-.055-8.006.4l15.906,5.523a14.85,14.85,0,0,1-1.517-3.617" transform="translate(-118.394 -36.707)" fill="#fef8ec"/>
      <path id="패스_8801" data-name="패스 8801" d="M206.462,111.172a63.242,63.242,0,0,1-15.616-2.114.275.275,0,0,1-.187-.341c0-.006.184-.638.426-1.778a.275.275,0,1,1,.538.115c-.156.736-.287,1.258-.363,1.549,1.873.5,13.471,3.425,23.4,1.188-.81-1.647-4.083-9.289.795-16.575,2.251-3.362,1.414-6.476.434-8.814a.275.275,0,1,1,.507-.213c1.034,2.464,1.912,5.752-.484,9.332-5.286,7.894-.654,16.238-.607,16.322a.275.275,0,0,1-.175.4,37.674,37.674,0,0,1-8.663.926" transform="translate(-107.601 -47.421)" fill="#1b2e4e"/>
      <path id="패스_8802" data-name="패스 8802" d="M206.409,55.056c.463-.074.916-.137,1.358-.192l-.495-8.234a59.794,59.794,0,0,0,6.765,2.087l.352,5.855s1.38.262,2.238.414c2.148.38,2.112,1.822,1.686,3.275-1.288,4.4-9.9,3.742-14.5-2.167a7.9,7.9,0,0,1,2.6-1.039" transform="translate(-115.031 -26.317)" fill="#fff"/>
      <path id="패스_8803" data-name="패스 8803" d="M165.778,95.662c.151-3.639,5.55-16.579,12.593-23.44,6.7-6.526,9.583,4.292,7.226,8.8-1.587,3.039-9.863,15.678-12.207,17.393-3.363,2.459-7.695-.792-7.613-2.758" transform="translate(-93.563 -39.609)" fill="#fef8ec"/>
      <path id="패스_8804" data-name="패스 8804" d="M170.378,99.226a5.9,5.9,0,0,1-2.7-.707c-1.509-.806-2.573-2.161-2.529-3.224.162-3.92,5.757-16.886,12.677-23.626,1.485-1.447,2.894-2.163,4.176-2.117a.275.275,0,0,1,.266.284.269.269,0,0,1-.284.266c-1.133-.039-2.4.623-3.774,1.962C170.97,79.112,165.834,91.99,165.7,95.317c-.035.849.927,2.016,2.238,2.716a4.583,4.583,0,0,0,4.938-.192c2.223-1.627,10.481-14.151,12.126-17.3a.275.275,0,1,1,.487.254c-1.477,2.828-9.843,15.7-12.288,17.488a4.689,4.689,0,0,1-2.82.94" transform="translate(-93.208 -39.253)" fill="#1b2e4e"/>
      <path id="패스_8805" data-name="패스 8805" d="M201.812,125.208c.036-.485-1.655-.924-2.618-3.2s-1.578-1.078-3.657-1.694-2.464-1.078-4.157.539-2.31,1.694-3.426,1.386-12.475-3.557-16.31-4.132-8.208,6.73-2.783,8.4c5.646,1.742,23.635,0,23.635,0a3.073,3.073,0,0,0,2.464-1.944c.462-1.674,2.406-.828,2.791-.019s0,1.867.847,1.829.847-1.328.847-1.328,2.307.964,2.368.154" transform="translate(-93.87 -66.644)" fill="#fff"/>
      <path id="패스_8806" data-name="패스 8806" d="M218.637,50.686l.106,1.775a9.213,9.213,0,0,1-6.835-3.248s-.155-2.334-.139-2.323c4.179,2.169,6.868,3.8,6.868,3.8" transform="translate(-119.521 -26.464)" fill="#fff"/>
      <path id="패스_8807" data-name="패스 8807" d="M218.114,40.612c-1.9.1-5.532-2.283-6.406-3.978a11.1,11.1,0,0,1-.312-3.055,5.4,5.4,0,0,1,3.243-5.658,13.361,13.361,0,0,1,4.178-.325c2.507.37,2.567,2.555,2.735,5.081.188,2.834-.08,7.756-3.437,7.935" transform="translate(-119.302 -15.551)" fill="#fff"/>
      <path id="패스_8808" data-name="패스 8808" d="M205.278,21.284c-2.567,0-4.049,2.255-4.946,4.467-3.7,9.1-.189,22.664-1.116,23.4a9.814,9.814,0,0,0,2.48,1.286,18.13,18.13,0,0,0,.372-3.257s1.114,3.648,1.592,3.686a5.722,5.722,0,0,0,3.683-.917s-4.537-18.152-2.284-21.249c1.046-1.439,4.233-7.4.219-7.412" transform="translate(-112.087 -12.012)" fill="#1b2e4e"/>
      <path id="패스_8809" data-name="패스 8809" d="M229,41.611c.181-.061,1.088-.387,1.206-.834a.416.416,0,0,0-.106-.4,3.063,3.063,0,0,1-.635-2.215,1.291,1.291,0,0,1,1.36-.393l.093-.344a1.638,1.638,0,0,0-1.77.564l-.024.035-.007.043a3.422,3.422,0,0,0,.717,2.549c.034.038.03.056.027.068-.045.169-.54.44-.974.587Z" transform="translate(-129.184 -21.085)" fill="#1b2e4e"/>
      <path id="패스_8810" data-name="패스 8810" d="M224.3,27.727c.385-.93-.041-2.762-2.495-3.918-3.007-1.418-4.9.308-5.2,2.322,1.963-.937,5.664,2,7.691,1.6" transform="translate(-122.253 -13.145)" fill="#1b2e4e"/>
      <path id="패스_8811" data-name="패스 8811" d="M210.451,39.587a1.782,1.782,0,1,1-1.886-1.672,1.781,1.781,0,0,1,1.886,1.672" transform="translate(-116.768 -21.397)" fill="#fff"/>
      <path id="패스_8812" data-name="패스 8812" d="M210.013,41.463a.6.6,0,0,0,.19-.028.475.475,0,0,0,.287-.257.453.453,0,0,0-.147-.571.406.406,0,0,1-.166-.4,1.108,1.108,0,0,1,.193-.459c.132-.213.331-.537-.138-.835-.635-.4-1.424.5-1.512.609l.274.229c.17-.2.73-.737,1.047-.537.172.109.17.114.026.346a1.432,1.432,0,0,0-.243.6.749.749,0,0,0,.271.695c.1.1.1.1.074.163a.122.122,0,0,1-.076.071.689.689,0,0,1-.429-.088l-.168.315a1.228,1.228,0,0,0,.518.14" transform="translate(-117.8 -21.905)" fill="#1b2e4e"/>
      <path id="패스_8813" data-name="패스 8813" d="M222.693,40.554a.457.457,0,0,0,0,.073.473.473,0,0,0,.945-.057.465.465,0,0,0-.122-.286,3.163,3.163,0,0,1-.82.27" transform="translate(-125.685 -22.736)" fill="#1b2e4e"/>
      <path id="패스_8814" data-name="패스 8814" d="M231.208,40.042a.459.459,0,0,0,0,.074.473.473,0,0,0,.945-.057.468.468,0,0,0-.122-.287,3.147,3.147,0,0,1-.82.27" transform="translate(-130.491 -22.447)" fill="#1b2e4e"/>
      <path id="패스_8815" data-name="패스 8815" d="M221.12,38.414c1.387-.825,1.83-.26,1.835-.254l.293-.2c-.024-.036-.612-.859-2.31.152Z" transform="translate(-124.696 -21.225)" fill="#1b2e4e"/>
      <path id="패스_8816" data-name="패스 8816" d="M226.742,49.641a8.2,8.2,0,0,1-3.316-.221s.817,1.515,2.044,1.5a1.3,1.3,0,0,0,1.272-1.276" transform="translate(-126.1 -27.892)" fill="#1b2e4e"/>
      <path id="패스_8817" data-name="패스 8817" d="M225.888,99.792a.275.275,0,0,1-.207-.455,7.319,7.319,0,0,0,1.478-6.372.275.275,0,0,1,.528-.152A7.762,7.762,0,0,1,226.1,99.7a.273.273,0,0,1-.207.095" transform="translate(-127.335 -52.271)" fill="#1b2e4e"/>
      <path id="패스_8818" data-name="패스 8818" d="M237.06,107.082h-.111a.275.275,0,0,1-.265-.284.272.272,0,0,1,.284-.265A7.08,7.08,0,0,0,241.45,105a.275.275,0,0,1,.374.4,7.433,7.433,0,0,1-4.764,1.675" transform="translate(-133.583 -59.222)" fill="#1b2e4e"/>
      <path id="패스_8819" data-name="패스 8819" d="M229.626,134.5v.31h-.948V134.4h.844a.1.1,0,0,1,.1.1" transform="translate(-129.064 -75.853)" fill="#1b2e4e"/>
      <path id="패스_8820" data-name="패스 8820" d="M232.15,134.5v.31H231.2V134.4h.844a.1.1,0,0,1,.1.1" transform="translate(-130.49 -75.853)" fill="#1b2e4e"/>
      <path id="패스_8821" data-name="패스 8821" d="M234.672,134.5v.31h-.947V134.4h.844a.1.1,0,0,1,.1.1" transform="translate(-131.913 -75.853)" fill="#1b2e4e"/>
      <path id="패스_8822" data-name="패스 8822" d="M245.186,134.5v.31h-.947V134.4h.844a.1.1,0,0,1,.1.1" transform="translate(-137.847 -75.853)" fill="#1b2e4e"/>
      <path id="패스_8823" data-name="패스 8823" d="M247.711,134.5v.31h-.947V134.4h.844a.1.1,0,0,1,.1.1" transform="translate(-139.272 -75.853)" fill="#1b2e4e"/>
      <path id="패스_8824" data-name="패스 8824" d="M277.331,134.5v.31h-.947V134.4h.844a.1.1,0,0,1,.1.1" transform="translate(-155.99 -75.853)" fill="#1b2e4e"/>
      <path id="패스_8825" data-name="패스 8825" d="M279.854,134.5v.31h-.947V134.4h.844a.1.1,0,0,1,.1.1" transform="translate(-157.414 -75.853)" fill="#1b2e4e"/>
      <path id="패스_8826" data-name="패스 8826" d="M239.594,134.5v.31h-3.257V134.4h3.154a.1.1,0,0,1,.1.1" transform="translate(-133.387 -75.853)" fill="#1b2e4e"/>
      <path id="패스_8827" data-name="패스 8827" d="M285.053,134.5v.31H281.8V134.4h3.153a.1.1,0,0,1,.1.1" transform="translate(-159.044 -75.853)" fill="#1b2e4e"/>
      <path id="패스_8828" data-name="패스 8828" d="M261.144,134.5v.31H249.833V134.4h11.208a.1.1,0,0,1,.1.1" transform="translate(-141.004 -75.853)" fill="#1b2e4e"/>
      <path id="패스_8829" data-name="패스 8829" d="M243.678,135.344l.308,1.238H223.2a.306.306,0,0,1-.308-.305v-.932Z" transform="translate(-125.801 -76.387)" fill="#f84558"/>
      <path id="패스_8830" data-name="패스 8830" d="M276.741,87.351h28.268a.6.6,0,0,1,.588.75L300.1,108.257h-29.5l5.3-20.263a.857.857,0,0,1,.832-.643" transform="translate(-152.728 -49.3)" fill="#ec384a"/>
      <path id="패스_8831" data-name="패스 8831" d="M276.741,87.351h28.268a.6.6,0,0,1,.588.75s-5.947,12.975-9.918,15.6c-5.242,3.467-25.074,4.556-25.074,4.556l5.3-20.263a.857.857,0,0,1,.832-.643" transform="translate(-152.728 -49.3)" fill="#f84558"/>
      <path id="패스_8832" data-name="패스 8832" d="M298.412,136.429a.153.153,0,0,1-.154.153H267.607v-1.238h30.8Z" transform="translate(-151.036 -76.387)" fill="#ec384a"/>
      <path id="패스_8833" data-name="패스 8833" d="M272.77,89.052a2.006,2.006,0,0,1,1.823-1.7l-5.679,20.906h-1.306s3.984-14.71,5.162-19.206" transform="translate(-151.037 -49.301)" fill="#f84558"/>
      <path id="패스_8834" data-name="패스 8834" d="M299.747,108.176h-29.5a.275.275,0,0,1-.266-.345l5.3-20.263a1.131,1.131,0,0,1,1.1-.848h28.268a.878.878,0,0,1,.7.341.868.868,0,0,1,.156.751l-5.494,20.16a.274.274,0,0,1-.265.2m-29.143-.55h28.933l5.438-19.953a.319.319,0,0,0-.059-.274.33.33,0,0,0-.263-.129H276.385a.582.582,0,0,0-.565.436Z" transform="translate(-152.372 -48.945)" fill="#1b2e4e"/>
    </g>
  </g>
</svg>
