<svg xmlns="http://www.w3.org/2000/svg" width="180.883" height="32.144" viewBox="0 0 180.883 32.144">
  <g id="logo_통합업무플랫폼" transform="translate(-2264 -2715)">
    <path id="합치기_7" data-name="합치기 7" d="M19.679,31.547C10.628,31.547,0,27.738,0,12.954V.4H8.909V12.954c0,6.639,4.281,10.765,11.17,10.765H32.046l6.046-6.994a17.752,17.752,0,0,1,1.328-1.316q-.48-.471-.956-1.016L26.615,0,36.749,0l6.81,8.289c1.855,2.238,2.983,3.2,5.01,3.2s3.154-.96,5.012-3.2L60.389,0H70.524L58.677,14.393q-.455.522-.914.975a17.7,17.7,0,0,1,1.374,1.357L71.928,31.541H61.355l-7.524-8.749c-1.934-2.226-3.108-3.179-5.217-3.179s-3.285.953-5.219,3.179l-6.728,7.8a2.623,2.623,0,0,1-2.337.951Z" transform="translate(2264 2715)" fill="#00b8a3"/>
    <g id="그룹_48012" data-name="그룹 48012" transform="translate(2342.952 2715)">
      <path id="패스_30860" data-name="패스 30860" d="M6.162,8.762a2.474,2.474,0,0,1-.806.832A3.127,3.127,0,0,1,4.3,10a5.894,5.894,0,0,1-1.059.1H0V.4H2.99A4.377,4.377,0,0,1,4,.527a2.756,2.756,0,0,1,.956.422,2.26,2.26,0,0,1,.708.773,2.478,2.478,0,0,1,.293,1.2,2.044,2.044,0,0,1-.481,1.4,2.228,2.228,0,0,1-1.3.7v.026a3.086,3.086,0,0,1,.923.267,2.748,2.748,0,0,1,.741.5,2.319,2.319,0,0,1,.487.709,2.048,2.048,0,0,1,.176.838,2.735,2.735,0,0,1-.338,1.391M4.095,2.49a1.075,1.075,0,0,0-.377-.4,1.559,1.559,0,0,0-.527-.221A2.737,2.737,0,0,0,2.6,1.807H1.716V4.368h.728a3.717,3.717,0,0,0,.6-.052,1.791,1.791,0,0,0,.579-.2,1.226,1.226,0,0,0,.442-.383,1.054,1.054,0,0,0,.169-.618,1.271,1.271,0,0,0-.143-.63m.429,3.952a1.38,1.38,0,0,0-.533-.449,2.331,2.331,0,0,0-.7-.214,4.864,4.864,0,0,0-.734-.059H1.716V8.7h1.17a3.208,3.208,0,0,0,.669-.071,1.761,1.761,0,0,0,.592-.241,1.409,1.409,0,0,0,.422-.468A1.435,1.435,0,0,0,4.732,7.2a1.284,1.284,0,0,0-.208-.76" fill="#8d8d8d"/>
      <path id="패스_30861" data-name="패스 30861" d="M7.566,0H9.23V1.678H7.566Zm.013,2.887H9.217V10.1H7.579Z" fill="#8d8d8d"/>
      <path id="패스_30862" data-name="패스 30862" d="M10.426,9.828v-1.3L13.78,4.213h-3.2V2.887h5.252V4.16L12.493,8.516h3.5V9.828Z" fill="#8d8d8d"/>
      <path id="패스_30863" data-name="패스 30863" d="M17.277,10.1V.4h1.716V8.672h3.575V10.1Z" fill="#8d8d8d"/>
      <path id="패스_30864" data-name="패스 30864" d="M27.43,10.1a1.821,1.821,0,0,1-.032-.273c0-.1-.011-.186-.02-.273s0-.169-.006-.247-.006-.147-.006-.208h-.027a2.158,2.158,0,0,1-.864.845,2.422,2.422,0,0,1-1.2.325,2.667,2.667,0,0,1-1.7-.514,1.907,1.907,0,0,1-.657-1.6,2.357,2.357,0,0,1,.306-1.268,2.083,2.083,0,0,1,.786-.747,3.118,3.118,0,0,1,1.073-.364,7.724,7.724,0,0,1,1.163-.091h1.028A1.874,1.874,0,0,0,26.9,4.414a1.469,1.469,0,0,0-1.164-.423,2.974,2.974,0,0,0-1.092.208,3.958,3.958,0,0,0-.961.533l-.04-1.456a5.582,5.582,0,0,1,1.105-.4,4.828,4.828,0,0,1,1.2-.156,2.72,2.72,0,0,1,2.172.774,3.419,3.419,0,0,1,.663,2.281v2.7c0,.286.012.583.039.891a6.832,6.832,0,0,0,.091.734Zm-.909-3.367a3.981,3.981,0,0,0-.651.059,2.428,2.428,0,0,0-.65.2,1.47,1.47,0,0,0-.513.416,1.047,1.047,0,0,0-.2.663.8.8,0,0,0,.332.709,1.381,1.381,0,0,0,.8.227,1.35,1.35,0,0,0,1.073-.422,2.292,2.292,0,0,0,.5-1.112c.018-.121.033-.243.046-.364a3.532,3.532,0,0,0,.02-.377Z" fill="#8d8d8d"/>
      <path id="패스_30865" data-name="패스 30865" d="M34.775,10.1V6.15q0-.363-.032-.741a2.432,2.432,0,0,0-.15-.676,1.124,1.124,0,0,0-.357-.5,1.019,1.019,0,0,0-.644-.189,1.306,1.306,0,0,0-.805.235,1.836,1.836,0,0,0-.507.585,2.782,2.782,0,0,0-.254.787,4.822,4.822,0,0,0-.071.812V10.1H30.316V2.887h1.561v.975H31.9a2.3,2.3,0,0,1,.936-.871A2.837,2.837,0,0,1,34.1,2.718a2,2,0,0,1,1.762.786,3.4,3.4,0,0,1,.553,2v4.6Z" fill="#8d8d8d"/>
      <path id="패스_30866" data-name="패스 30866" d="M42.51,10.1v-.82h-.025a2.305,2.305,0,0,1-.9.741,2.806,2.806,0,0,1-1.2.248,2.478,2.478,0,0,1-1.313-.326,2.661,2.661,0,0,1-.871-.857,3.917,3.917,0,0,1-.487-1.229,6.552,6.552,0,0,1-.149-1.411A6.35,6.35,0,0,1,37.72,5.07a3.477,3.477,0,0,1,.5-1.2,2.653,2.653,0,0,1,.871-.838,2.488,2.488,0,0,1,1.3-.318,2.523,2.523,0,0,1,1.177.253,2.6,2.6,0,0,1,.864.748h.026V.131H44.1V10.1Zm-.162-4.434a3.168,3.168,0,0,0-.293-.793,1.811,1.811,0,0,0-.507-.6,1.2,1.2,0,0,0-.741-.234,1.1,1.1,0,0,0-.734.247,1.924,1.924,0,0,0-.475.6,3.114,3.114,0,0,0-.24.786,4.705,4.705,0,0,0-.072.787,5,5,0,0,0,.072.812,2.769,2.769,0,0,0,.254.8,1.855,1.855,0,0,0,.473.624,1.121,1.121,0,0,0,.748.247,1.169,1.169,0,0,0,.747-.24,1.872,1.872,0,0,0,.5-.6,2.862,2.862,0,0,0,.28-.793,4.279,4.279,0,0,0,.085-.82,3.766,3.766,0,0,0-.1-.819" fill="#8d8d8d"/>
    </g>
    <g id="그룹_48014" data-name="그룹 48014" transform="translate(2342 2730.773)">
      <path id="패스_30867" data-name="패스 30867" d="M2.142.34h9.979V1.887H4.437v.849h7.634v1.48H4.437v.849h7.889V6.612H8.45v.952h5.694v1.65H0V7.564H6.07V6.612H2.142ZM5.457,16.107a4.434,4.434,0,0,1-1.377-.722,3.221,3.221,0,0,1-.918-1.029,2.519,2.519,0,0,1-.322-1.232,2.618,2.618,0,0,1,.322-1.25,3.338,3.338,0,0,1,.918-1.063,4.578,4.578,0,0,1,1.377-.73,5.333,5.333,0,0,1,1.734-.272,5.2,5.2,0,0,1,1.709.272,4.575,4.575,0,0,1,1.368.73,3.623,3.623,0,0,1,.918,1.063,2.511,2.511,0,0,1,.341,1.25,2.417,2.417,0,0,1-.341,1.232,3.491,3.491,0,0,1-.918,1.029,4.43,4.43,0,0,1-1.368.722,5.36,5.36,0,0,1-1.709.264,5.5,5.5,0,0,1-1.734-.264m.349-1.861a2.044,2.044,0,0,0,1.385.492,2.058,2.058,0,0,0,1.378-.492,1.507,1.507,0,0,0,0-2.372,2.036,2.036,0,0,0-1.378-.5,2.022,2.022,0,0,0-1.385.5,1.521,1.521,0,0,0,0,2.372" fill="#002e56"/>
      <path id="패스_30868" data-name="패스 30868" d="M14.7,2.43h9.129V4.08H22.355a3.28,3.28,0,0,1,.6.858,2.158,2.158,0,0,1,.221.926A2.407,2.407,0,0,1,22.882,7a3.238,3.238,0,0,1-.8.968,3.9,3.9,0,0,1-1.2.672,4.593,4.593,0,0,1-2.966,0,3.918,3.918,0,0,1-1.19-.672A3.225,3.225,0,0,1,15.954,7a2.457,2.457,0,0,1-.28-1.14,2.3,2.3,0,0,1,.2-.926,2.935,2.935,0,0,1,.578-.858H14.7ZM16.507,0h5.559V1.563H16.507Zm1.071,15.52V9.553h2.278v1.5h5.168v-1.5h2.3V15.52Zm.833-8.72a1.36,1.36,0,0,0,2.065,0,1.657,1.657,0,0,0,0-2.236,1.343,1.343,0,0,0-2.065,0,1.683,1.683,0,0,0,0,2.236m6.613,5.9H19.856v1.156h5.168Zm4.5-8.126v1.7h-2.21V8.959H25.058V.135h2.261V4.572Z" fill="#002e56"/>
      <path id="패스_30869" data-name="패스 30869" d="M37.6,5.924a3.861,3.861,0,0,1-.918.926,3.919,3.919,0,0,1-1.2.629,4.434,4.434,0,0,1-1.4.222,4.564,4.564,0,0,1-1.666-.3A4.022,4.022,0,0,1,31.11,6.6a3.641,3.641,0,0,1-.867-1.173,3.388,3.388,0,0,1,0-2.814,3.6,3.6,0,0,1,.867-1.181A4.13,4.13,0,0,1,32.419.611,4.444,4.444,0,0,1,34.085.306a4.28,4.28,0,0,1,1.368.22,4.555,4.555,0,0,1,1.182.6,3.939,3.939,0,0,1,.9.884,3.527,3.527,0,0,1,.544,1.088h2.176V.136H42.5V8.551H40.256V4.776H38.131A3.463,3.463,0,0,1,37.6,5.924m-4.769-.519a1.635,1.635,0,0,0,2.525,0,2.056,2.056,0,0,0,.527-1.41,2.069,2.069,0,0,0-.527-1.4,1.621,1.621,0,0,0-2.525,0,2.085,2.085,0,0,0-.518,1.4,2.072,2.072,0,0,0,.518,1.41M32.759,15.52V9.145h2.278v1.7h5.185v-1.7H42.5V15.52Zm7.463-3.025H35.037v1.359h5.185Z" fill="#002e56"/>
      <path id="패스_30870" data-name="패스 30870" d="M52.785,10.437v5.049H50.473V10.437h-6.1V8.755H58.514v1.682Zm3.706-3.314H46.512V.73h9.979ZM54.213,2.431H48.807V5.44h5.406Z" fill="#002e56"/>
      <path id="패스_30871" data-name="패스 30871" d="M59.16,6.426H73.305V8.074H59.16Zm3.417-4.573H61.115V.272h10.37V1.853H70.04L69.9,3.842h2.108V5.423H60.588V3.842h2.125ZM61.3,11.577H69v-.935H61.285V9.078h10V13.09H63.6v.918H71.62v1.581H61.3Zm3.672-7.735h2.669l.136-1.989H64.838Z" fill="#002e56"/>
      <path id="패스_30872" data-name="패스 30872" d="M74.9,2.431V.731h5.305V5.746H77.06V7.463h.969c.453,0,.961-.025,1.521-.077a15.954,15.954,0,0,0,1.624-.229v1.7c-.226.046-.486.085-.782.119l-.9.1c-.307.023-.613.039-.919.051s-.577.017-.816.017H74.9V4.08h3.247V2.431ZM77.23,13.779a7.662,7.662,0,0,0,1.632-.893,4.628,4.628,0,0,0,1.105-1.1,2.117,2.117,0,0,0,.408-1.207v-.85h2.33v.85a2.141,2.141,0,0,0,.4,1.207,4.6,4.6,0,0,0,1.079,1.1,7.759,7.759,0,0,0,1.623.893,10.326,10.326,0,0,0,2,.586l-1.36,1.411A12.012,12.012,0,0,1,83.46,14.7a5.63,5.63,0,0,1-1.929-1.573,6.582,6.582,0,0,1-2.014,1.589,11.149,11.149,0,0,1-2.882,1.063l-1.393-1.411a10.588,10.588,0,0,0,1.988-.586m6.665-9.767h1.087V.136h2.091V10.149H84.982V5.712H83.895V9.35H81.837V.374h2.058Z" fill="#002e56"/>
      <path id="패스_30873" data-name="패스 30873" d="M92.157,2.022H90.695V.374h10.37V2.022H99.619l-.135,2.262h2.107V5.932h-4.4V7.19h5.694v1.7H88.74V7.19h6.069V5.932H90.167V4.284h2.125ZM90.881,9.944h9.979V15.52H90.881Zm7.7,1.7H93.176V13.82h5.406Zm-4.029-7.36h2.669l.137-2.262H94.417Z" fill="#002e56"/>
    </g>
  </g>
</svg>
