<svg id="그룹_827" data-name="그룹 827" xmlns="http://www.w3.org/2000/svg" xmlns:xlink="http://www.w3.org/1999/xlink" width="32" height="29.333" viewBox="0 0 32 29.333">
  <defs>
    <clipPath id="clip-path">
      <rect id="사각형_525" data-name="사각형 525" width="32" height="29.333" fill="#1740c2"/>
    </clipPath>
  </defs>
  <g id="그룹_826" data-name="그룹 826" clip-path="url(#clip-path)">
    <path id="패스_773" data-name="패스 773" d="M28,0H4A4,4,0,0,0,0,4V20a4,4,0,0,0,4,4H23.065a1.342,1.342,0,0,1,.832.292l5.936,4.749A1.334,1.334,0,0,0,32,28V4a4,4,0,0,0-4-4m1.333,25.225-3.769-3.015a4.008,4.008,0,0,0-2.5-.877H4A1.335,1.335,0,0,1,2.667,20V4A1.335,1.335,0,0,1,4,2.667H28A1.335,1.335,0,0,1,29.333,4Zm-20-11.892H12V10.667H9.333Zm10.667,0h2.667V10.667H20Zm-5.333,0h2.667V10.667H14.667Z" fill="#1740c2"/>
  </g>
</svg>
