<svg id="그룹_823" data-name="그룹 823" xmlns="http://www.w3.org/2000/svg" xmlns:xlink="http://www.w3.org/1999/xlink" width="34" height="25.513" viewBox="0 0 34 25.513">
  <defs>
    <clipPath id="clip-path">
      <rect id="사각형_524" data-name="사각형 524" width="34" height="25.513" fill="#1740c2"/>
    </clipPath>
  </defs>
  <g id="그룹_822" data-name="그룹 822" clip-path="url(#clip-path)">
    <path id="패스_771" data-name="패스 771" d="M8.487,8.5H5.652v2.835H8.487Zm-2.835,8.5H8.487V14.174H5.652ZM22.661,2.835V0H19.843V5.67h2.835a8.5,8.5,0,1,1-8.5,8.511,8.412,8.412,0,0,1,2.2-5.677H12.881a11.253,11.253,0,0,0,.955,12.755H2.818V2.835H0V24.094H17.194A11.321,11.321,0,0,0,34,14.181,11.371,11.371,0,0,0,22.661,2.835m-4.252,0H7.07V0H4.252V5.67H18.409ZM21.261,8.5v6.256l4.667,4.666,2-2-3.854-3.837V8.5Z" fill="#1740c2"/>
  </g>
</svg>
