<svg xmlns="http://www.w3.org/2000/svg" xmlns:xlink="http://www.w3.org/1999/xlink" width="31.952" height="32" viewBox="0 0 31.952 32">
  <defs>
    <clipPath id="clip-path">
      <rect id="사각형_508" data-name="사각형 508" width="31.952" height="32" fill="#1740c2"/>
    </clipPath>
  </defs>
  <g id="그룹_793" data-name="그룹 793" transform="translate(0 0)">
    <g id="그룹_792" data-name="그룹 792" transform="translate(0 0)" clip-path="url(#clip-path)">
      <path id="패스_746" data-name="패스 746" d="M29.269,14.2,31.95,11.67,27.713,4.33,23.347,5.64l-2.088-1.2L20.211,0H11.739l-.847,3.584-3.127,1.8L4.236,4.33,0,11.668,2.68,14.2v3.611L0,20.332,4.236,27.67l3.529-1.059,3.127,1.8L11.739,32h8.472l.848-3.584,3.127-1.8,3.527,1.059,4.238-7.339L29.269,17.8Zm-.683,6.631-2.127,3.683-2.609-.783-5.123,2.955L18.1,29.333H13.848l-.625-2.652L8.1,23.726l-2.608.783L3.365,20.825l1.981-1.868V13.045L3.365,11.175,5.493,7.491,8.1,8.275l5.122-2.956.625-2.652H18.1l.827,3.5,4.083,2.357,3.448-1.036,2.127,3.684L26.6,13.043v5.914ZM15.975,9.334A6.667,6.667,0,1,0,22.641,16a6.675,6.675,0,0,0-6.666-6.667m0,10.667a4,4,0,1,1,4-4,4,4,0,0,1-4,4" transform="translate(0 -0.001)" fill="#1740c2"/>
    </g>
  </g>
</svg>
