<svg id="그룹_806" data-name="그룹 806" xmlns="http://www.w3.org/2000/svg" xmlns:xlink="http://www.w3.org/1999/xlink" width="34" height="32.583" viewBox="0 0 34 32.583">
  <defs>
    <clipPath id="clip-path">
      <rect id="사각형_515" data-name="사각형 515" width="34" height="32.583" fill="#1740c2"/>
    </clipPath>
  </defs>
  <g id="그룹_805" data-name="그룹 805" clip-path="url(#clip-path)">
    <path id="패스_756" data-name="패스 756" d="M32.27,11.333H21.294L18.417,7.976V3.061a2.7,2.7,0,0,1,.688.548C20.26,4.735,21.536,5.667,25.5,5.667V2.833c-3.132,0-3.756-.608-4.414-1.251A5.011,5.011,0,0,0,17,0H15.583V7.976l-2.877,3.358H1.72L.041,18.125,0,32.583H34V18.465Zm-2.216,2.833.7,2.833H26.152l-2.428-2.833Zm-26.116,0h6.338L7.848,17H3.239ZM31.167,29.75H18.417v-8.5H15.583v8.5H2.833V19.833H9.152L17,10.677l7.848,9.156h6.318Zm-25.5-5.667H8.5V21.25H5.667Zm0,4.25H8.5V25.5H5.667Zm4.25-4.25H12.75V21.25H9.917Zm0,4.25H12.75V25.5H9.917ZM28.333,21.25H25.5v2.833h2.833Zm0,4.25H25.5v2.833h2.833ZM21.25,24.083h2.833V21.25H21.25Zm0,4.25h2.833V25.5H21.25Zm-5.667-8.5h2.833V17H15.583Z" fill="#1740c2"/>
  </g>
</svg>
