<svg id="그룹_654" data-name="그룹 654" xmlns="http://www.w3.org/2000/svg" xmlns:xlink="http://www.w3.org/1999/xlink" width="32" height="26.667" viewBox="0 0 32 26.667">
  <defs>
    <clipPath id="clip-path">
      <rect id="사각형_412" data-name="사각형 412" width="32" height="26.667" fill="#1740c2"/>
    </clipPath>
  </defs>
  <g id="그룹_653" data-name="그룹 653" clip-path="url(#clip-path)">
    <path id="패스_685" data-name="패스 685" d="M29.333,17.333V20H28V6.667A6.674,6.674,0,0,0,21.333,0H11.917A11.932,11.932,0,0,0,0,11.917v5.416a5.339,5.339,0,0,0,5.333,5.333H6.856a5.333,5.333,0,1,0,0-2.667H5.333a2.671,2.671,0,0,1-2.667-2.667V11.917a9.261,9.261,0,0,1,9.251-9.251h9.416a4,4,0,0,1,4,4V20H20v2.667H32V17.333ZM12,18.667a2.667,2.667,0,1,1-2.667,2.667A2.671,2.671,0,0,1,12,18.667" fill="#1740c2"/>
    <path id="패스_686" data-name="패스 686" d="M18.333,12H9a2,2,0,0,1-2-2V6A2,2,0,0,1,9,4h9.333a2,2,0,0,1,2,2v4a2,2,0,0,1-2,2M9.667,9.333h8V6.667h-8Z" transform="translate(2.333 1.333)" fill="#1740c2"/>
  </g>
</svg>
