<svg id="그룹_829" data-name="그룹 829" xmlns="http://www.w3.org/2000/svg" xmlns:xlink="http://www.w3.org/1999/xlink" width="32" height="32" viewBox="0 0 32 32">
  <defs>
    <clipPath id="clip-path">
      <rect id="사각형_526" data-name="사각형 526" width="32" height="32" fill="#1740c2"/>
    </clipPath>
  </defs>
  <g id="그룹_828" data-name="그룹 828" clip-path="url(#clip-path)">
    <path id="패스_774" data-name="패스 774" d="M14.667,21.4a15.893,15.893,0,0,0-8.639,3.435,13.273,13.273,0,0,1-3.292-7.5l10.56,0V14.672l-10.561,0a13.264,13.264,0,0,1,3.3-7.493A15.917,15.917,0,0,0,16,10.667a15.917,15.917,0,0,0,9.967-3.492A13.263,13.263,0,0,1,29.333,16H32A16,16,0,1,0,16,32h1.333V14.667H14.667ZM17.333,2.734a13.241,13.241,0,0,1,6.642,2.607,13.246,13.246,0,0,1-6.642,2.59Zm-2.667,0v5.2a13.247,13.247,0,0,1-6.643-2.59,13.243,13.243,0,0,1,6.643-2.607m0,26.533a13.255,13.255,0,0,1-6.652-2.6,13.248,13.248,0,0,1,6.652-2.6ZM24.444,32h2.667V12H24.444Zm-4.888,0h2.667V17.63H19.556Zm9.777,0H32V22.667H29.333Z" fill="#1740c2"/>
  </g>
</svg>
