<svg id="그룹_658" data-name="그룹 658" xmlns="http://www.w3.org/2000/svg" xmlns:xlink="http://www.w3.org/1999/xlink" width="24" height="32" viewBox="0 0 24 32">
  <defs>
    <clipPath id="clip-path">
      <rect id="사각형_413" data-name="사각형 413" width="24" height="32" fill="#1740c2"/>
    </clipPath>
  </defs>
  <g id="그룹_657" data-name="그룹 657" clip-path="url(#clip-path)">
    <path id="패스_691" data-name="패스 691" d="M21.333,13.579V9.333a5.333,5.333,0,1,0-10.667,0V22.667a2.667,2.667,0,0,1-5.333,0V18.421A3.993,3.993,0,0,0,8,14.667V5.333H5.333V0H2.667V5.333H0v9.333a3.993,3.993,0,0,0,2.667,3.755v4.245a5.333,5.333,0,0,0,10.667,0V9.333a2.667,2.667,0,1,1,5.333,0v4.245A3.993,3.993,0,0,0,16,17.333v9.333h2.667V32h2.667V26.667H24V17.333a3.993,3.993,0,0,0-2.667-3.755M2.667,8H5.333v6.667a1.333,1.333,0,0,1-2.667,0ZM21.333,24H18.667V17.333a1.333,1.333,0,1,1,2.667,0Z" fill="#1740c2"/>
  </g>
</svg>
