<svg id="그룹_589" data-name="그룹 589" xmlns="http://www.w3.org/2000/svg" xmlns:xlink="http://www.w3.org/1999/xlink" width="35" height="35" viewBox="0 0 35 35">
  <defs>
    <clipPath id="clip-path">
      <rect id="사각형_367" data-name="사각형 367" width="35" height="35" fill="#1740c2"/>
    </clipPath>
  </defs>
  <g id="그룹_588" data-name="그룹 588" clip-path="url(#clip-path)">
    <path id="패스_641" data-name="패스 641" d="M15.667,33.167a4.38,4.38,0,0,1-4.375-4.375v-2.3A11.669,11.669,0,1,1,27.333,15.667a11.588,11.588,0,0,1-7.292,10.821v2.3a4.38,4.38,0,0,1-4.375,4.375m0-26.25a8.752,8.752,0,0,0-2.5,17.137l1.046.311v4.427a1.458,1.458,0,1,0,2.917,0V24.364l1.043-.311a8.751,8.751,0,0,0-2.5-17.137" transform="translate(1.833 1.833)" fill="#1740c2"/>
    <rect id="사각형_360" data-name="사각형 360" width="2.917" height="2.917" transform="translate(0 16.042)" fill="#1740c2"/>
    <rect id="사각형_361" data-name="사각형 361" width="2.917" height="2.917" transform="translate(16.042)" fill="#1740c2"/>
    <rect id="사각형_362" data-name="사각형 362" width="2.917" height="2.917" transform="translate(32.083 16.042)" fill="#1740c2"/>
    <rect id="사각형_363" data-name="사각형 363" width="2.916" height="2.916" transform="translate(4.094 6.156) rotate(-44.98)" fill="#1740c2"/>
    <rect id="사각형_364" data-name="사각형 364" width="2.916" height="2.916" transform="translate(26.781 28.844) rotate(-45)" fill="#1740c2"/>
    <rect id="사각형_365" data-name="사각형 365" width="2.917" height="2.917" transform="translate(26.779 6.158) rotate(-45)" fill="#1740c2"/>
    <rect id="사각형_366" data-name="사각형 366" width="2.916" height="2.916" transform="translate(4.093 28.845) rotate(-45.02)" fill="#1740c2"/>
  </g>
</svg>
