<svg xmlns="http://www.w3.org/2000/svg" width="30" height="30" viewBox="0 0 30 30">
  <path id="패스_751" data-name="패스 751" d="M13.75,16.251h2.5v-2.5h-2.5ZM2.5,25H5v2.5H2.5Zm11.25,0h2.5v2.5h-2.5ZM25,25h2.5v2.5H25ZM2.5,13.751H5v2.5H2.5Zm22.5,0h2.5v2.5H25ZM18.75,7.5V5H22.5V7.5H25v3.75H22.5v7.5H25V22.5H22.5V25H18.75V22.5h-7.5V25H7.5V22.5H5V18.75H7.5v-7.5H5V7.5H7.5V5h3.75V7.5ZM2.5,2.5H5V5H2.5Zm11.25,0h2.5V5h-2.5ZM22.5,0V2.5H18.75V0h-7.5V2.5H7.5V0H0V7.5H2.5v3.75H0v7.5H2.5V22.5H0V30H7.5V27.5h3.75V30h7.5V27.5H22.5V30H30V22.5H27.5V18.75H30v-7.5H27.5V7.5H30V0Z" fill="#1740c2"/>
</svg>
