<svg id="그룹_775" data-name="그룹 775" xmlns="http://www.w3.org/2000/svg" xmlns:xlink="http://www.w3.org/1999/xlink" width="32" height="25.333" viewBox="0 0 32 25.333">
  <defs>
    <clipPath id="clip-path">
      <rect id="사각형_500" data-name="사각형 500" width="32" height="25.333" fill="#1740c2"/>
    </clipPath>
  </defs>
  <g id="그룹_774" data-name="그룹 774" clip-path="url(#clip-path)">
    <path id="패스_737" data-name="패스 737" d="M28,5.333H25.885L20.552,0h-9.1L6.115,5.333H4a4,4,0,0,0-4,4v12a4,4,0,0,0,4,4H5.333a1.333,1.333,0,1,0,0-2.667H4a1.335,1.335,0,0,1-1.333-1.333v-12A1.335,1.335,0,0,1,4,8H7.219l5.333-5.333h6.9L24.781,8H28a1.335,1.335,0,0,1,1.333,1.333v12A1.335,1.335,0,0,1,28,22.667H26.667a1.333,1.333,0,1,0,0,2.667H28a4,4,0,0,0,4-4v-12a4,4,0,0,0-4-4M16,6.667A9.333,9.333,0,1,0,25.333,16,9.344,9.344,0,0,0,16,6.667m0,16A6.667,6.667,0,1,1,22.667,16,6.674,6.674,0,0,1,16,22.667" fill="#1740c2"/>
  </g>
</svg>
