<svg id="그룹_821" data-name="그룹 821" xmlns="http://www.w3.org/2000/svg" xmlns:xlink="http://www.w3.org/1999/xlink" width="32" height="25.333" viewBox="0 0 32 25.333">
  <defs>
    <clipPath id="clip-path">
      <rect id="사각형_523" data-name="사각형 523" width="32" height="25.333" fill="#1740c2"/>
    </clipPath>
  </defs>
  <g id="그룹_820" data-name="그룹 820" clip-path="url(#clip-path)">
    <path id="패스_770" data-name="패스 770" d="M26.56,5.44A6.693,6.693,0,0,0,20,0H2.667A2.666,2.666,0,0,0,0,2.667v20a2.667,2.667,0,0,0,2.667,2.667H29.333A2.667,2.667,0,0,0,32,22.667V12a6.694,6.694,0,0,0-5.44-6.56M20,2.667a3.994,3.994,0,0,1,4,4V8h1.333a3.994,3.994,0,0,1,4,4v7.448l-6.4-6.4-5.309,2.641-6.88-7.239L2.667,15.681V2.667ZM2.667,19.261l7.925-7.1,6.453,6.789L22.4,16.288l6.379,6.379H2.667Z" fill="#1740c2"/>
  </g>
</svg>
