<svg xmlns="http://www.w3.org/2000/svg" xmlns:xlink="http://www.w3.org/1999/xlink" width="32" height="32" viewBox="0 0 32 32">
  <defs>
    <clipPath id="clip-path">
      <rect id="사각형_388" data-name="사각형 388" width="32" height="32" fill="#1740c2"/>
    </clipPath>
  </defs>
  <g id="그룹_609" data-name="그룹 609" clip-path="url(#clip-path)">
    <path id="패스_658" data-name="패스 658" d="M32,16a3.981,3.981,0,0,0-2.667-3.747V4a4,4,0,0,0-7.993-.237C20.5,4.957,14.132,9.341,9.659,9.341L6.667,9.333a6.667,6.667,0,0,0-1.333,13.2V28a4,4,0,0,0,8.007,0V23.013c3.617,1.175,7.452,4.221,8,5.176a4,4,0,0,0,8-.189V19.747A3.981,3.981,0,0,0,32,16M14.163,20.476a2.667,2.667,0,0,0-3.489,2.537V28A1.337,1.337,0,0,1,8,28V20H6.667a4,4,0,1,1,0-8H9.275c.127.005.256.009.384.009,3.512,0,8.6-2.364,11.675-4.705V24.491a25.526,25.526,0,0,0-7.171-4.015M26.667,28A1.333,1.333,0,1,1,24,28V4a1.333,1.333,0,0,1,2.667,0Z" fill="#1740c2"/>
  </g>
</svg>
