<svg id="그룹_667" data-name="그룹 667" xmlns="http://www.w3.org/2000/svg" xmlns:xlink="http://www.w3.org/1999/xlink" width="32" height="32" viewBox="0 0 32 32">
  <defs>
    <clipPath id="clip-path">
      <rect id="사각형_416" data-name="사각형 416" width="32" height="32" fill="#1740c2"/>
    </clipPath>
  </defs>
  <g id="그룹_666" data-name="그룹 666" clip-path="url(#clip-path)">
    <path id="패스_695" data-name="패스 695" d="M25.885,21.333l-4.552-4.552V10.667H15.219L10.667,6.115V0h-8V8H8.781l1.832,1.832c-.068-.017-.132-.043-.2-.059a16.054,16.054,0,0,0-9.307.6H1.093a4.887,4.887,0,0,0-.468.187A1.311,1.311,0,0,0,0,11.68a1.337,1.337,0,0,0,1.333,1.333,1.189,1.189,0,0,0,.48-.093A13.408,13.408,0,0,1,6.667,12a12.97,12.97,0,0,1,3.12.373A13.134,13.134,0,0,1,13.333,13.8v4.869H18.2a13.289,13.289,0,0,1,1.425,9.787,12.876,12.876,0,0,1-.545,1.733c0,.013-.013.027-.013.04a1.335,1.335,0,0,0,.773,1.68,1.225,1.225,0,0,0,.48.093,1.326,1.326,0,0,0,1.227-.8c.013-.013.013-.04.027-.053a.245.245,0,0,0,.025-.093,13.941,13.941,0,0,0,.615-1.973,15.927,15.927,0,0,0-.039-7.687L24,23.219v6.115h8v-8ZM5.333,2.667H8V5.333H5.333ZM16,13.333h2.667V16H16ZM29.333,26.667H26.667V24h2.667Z" fill="#1740c2"/>
  </g>
</svg>
