<svg xmlns="http://www.w3.org/2000/svg" width="15" height="17.072" viewBox="0 0 15 17.072">
  <g id="icon_관리자" data-name="icon / 관리자" transform="translate(-1285.517 -33)">
    <path id="패스_8135" data-name="패스 8135" d="M161.566,66.978v-.954a4.02,4.02,0,1,0-8.041,0v.954a4.02,4.02,0,1,0,8.041,0Zm-6.3,0v-.954a2.279,2.279,0,1,1,4.558,0v.954a2.279,2.279,0,1,1-4.558,0Z" transform="translate(1135.419 -29.003)" fill="#222"/>
    <path id="패스_8136" data-name="패스 8136" d="M148.417,78.33v1.931a.752.752,0,0,0,.759.745h13.482a.752.752,0,0,0,.759-.745V78.33a5.459,5.459,0,0,0-5.5-5.4H153.92A5.46,5.46,0,0,0,148.417,78.33Zm5.5-3.91h3.995a3.952,3.952,0,0,1,3.984,3.91v1.186H149.935V78.33A3.953,3.953,0,0,1,153.92,74.42Z" transform="translate(1137.1 -30.934)" fill="#222"/>
  </g>
</svg>
