<svg xmlns="http://www.w3.org/2000/svg" xmlns:xlink="http://www.w3.org/1999/xlink" width="95" height="95" viewBox="0 0 95 95">
  <defs>
    <clipPath id="clip-path">
      <rect id="사각형_184" data-name="사각형 184" width="59" height="56" fill="none"/>
    </clipPath>
  </defs>
  <g id="img" transform="translate(-1150 -935)">
    <circle id="타원_8" data-name="타원 8" cx="47.5" cy="47.5" r="47.5" transform="translate(1150 935)" fill="#f2f2f2"/>
    <g id="그룹_201" data-name="그룹 201" transform="translate(1168 955)">
      <g id="그룹_200" data-name="그룹 200" clip-path="url(#clip-path)">
        <path id="패스_503" data-name="패스 503" d="M50,1H21a2,2,0,0,0-2,2V55H56a2,2,0,0,0,2-2V9Z" fill="#fff"/>
        <path id="패스_504" data-name="패스 504" d="M58,10H49V1h1l8,8Z" fill="#a3d4ff"/>
        <line id="선_340" data-name="선 340" y1="20" transform="translate(26 30)" fill="none" stroke="#2a5082" stroke-linecap="round" stroke-miterlimit="10" stroke-width="2"/>
        <path id="패스_505" data-name="패스 505" d="M39.1,29.734,35.281,41.076A6.725,6.725,0,0,0,35,43" fill="none" stroke="#2a5082" stroke-linecap="round" stroke-miterlimit="10" stroke-width="2"/>
        <path id="패스_506" data-name="패스 506" d="M46,43a5.4,5.4,0,0,0-.421-2.09L41,30" fill="none" stroke="#2a5082" stroke-linecap="round" stroke-miterlimit="10" stroke-width="2"/>
        <path id="패스_507" data-name="패스 507" d="M24,20a2,2,0,0,1,4,0" fill="none" stroke="#2a5082" stroke-linecap="round" stroke-miterlimit="10" stroke-width="2"/>
        <path id="패스_508" data-name="패스 508" d="M12.9,29.734l3.818,11.342A6.725,6.725,0,0,1,17,43" fill="none" stroke="#2a5082" stroke-linecap="round" stroke-miterlimit="10" stroke-width="2"/>
        <path id="패스_509" data-name="패스 509" d="M6,43a5.4,5.4,0,0,1,.421-2.09L11,30" fill="none" stroke="#2a5082" stroke-linecap="round" stroke-miterlimit="10" stroke-width="2"/>
        <path id="패스_510" data-name="패스 510" d="M41,25c-1.3,0-3.716.834-7-1-3.208-1.792-5.772-2.282-8,0-2.228-2.282-4.792-1.792-8,0-3.284,1.834-5.7,1-7,1a2.752,2.752,0,0,0-3,3c0,.75,1.25,2,3,2a13.788,13.788,0,0,0,3.915-.825A26.192,26.192,0,0,1,21,28c2.011,0,3.044,2,5,2s2.989-2,5-2a26.192,26.192,0,0,1,6.085,1.175A13.788,13.788,0,0,0,41,30c1.75,0,3-1.25,3-2a2.752,2.752,0,0,0-3-3" fill="#fff"/>
        <path id="패스_511" data-name="패스 511" d="M41,25c-1.3,0-3.716.834-7-1-3.208-1.792-5.772-2.282-8,0-2.228-2.282-4.792-1.792-8,0-3.284,1.834-5.7,1-7,1a2.752,2.752,0,0,0-3,3c0,.75,1.25,2,3,2a13.788,13.788,0,0,0,3.915-.825A26.192,26.192,0,0,1,21,28c2.011,0,3.044,2,5,2s2.989-2,5-2a26.192,26.192,0,0,1,6.085,1.175A13.788,13.788,0,0,0,41,30c1.75,0,3-1.25,3-2A2.752,2.752,0,0,0,41,25Z" fill="none" stroke="#2a5082" stroke-linecap="round" stroke-miterlimit="10" stroke-width="2"/>
        <path id="패스_512" data-name="패스 512" d="M29,50H23a5.015,5.015,0,0,0-5,5H34a5.015,5.015,0,0,0-5-5" fill="#a3d4ff"/>
        <path id="패스_513" data-name="패스 513" d="M29,50H23a5.015,5.015,0,0,0-5,5H34A5.015,5.015,0,0,0,29,50Z" fill="none" stroke="#2a5082" stroke-linecap="round" stroke-miterlimit="10" stroke-width="2"/>
        <path id="패스_514" data-name="패스 514" d="M19,20V3a2,2,0,0,1,2-2H50l8,8V53a2,2,0,0,1-2,2H38" fill="none" stroke="#2a5082" stroke-linecap="round" stroke-miterlimit="10" stroke-width="2"/>
        <path id="패스_515" data-name="패스 515" d="M55,10H49V4" fill="none" stroke="#2a5082" stroke-linecap="round" stroke-miterlimit="10" stroke-width="2"/>
        <path id="패스_516" data-name="패스 516" d="M5,43a6.265,6.265,0,0,0,6.5,6A6.265,6.265,0,0,0,18,43Z" fill="#a3d4ff"/>
        <path id="패스_517" data-name="패스 517" d="M5,43a6.265,6.265,0,0,0,6.5,6A6.265,6.265,0,0,0,18,43Z" fill="none" stroke="#2a5082" stroke-linecap="round" stroke-miterlimit="10" stroke-width="2"/>
        <path id="패스_518" data-name="패스 518" d="M34,43a6.265,6.265,0,0,0,6.5,6A6.265,6.265,0,0,0,47,43Z" fill="#a3d4ff"/>
        <path id="패스_519" data-name="패스 519" d="M34,43a6.265,6.265,0,0,0,6.5,6A6.265,6.265,0,0,0,47,43Z" fill="none" stroke="#2a5082" stroke-linecap="round" stroke-miterlimit="10" stroke-width="2"/>
        <line id="선_341" data-name="선 341" x1="2" y2="2" transform="translate(7 10)" fill="none" stroke="#bcc0c4" stroke-miterlimit="10" stroke-width="2"/>
        <line id="선_342" data-name="선 342" x1="2" y2="2" transform="translate(12 5)" fill="none" stroke="#bcc0c4" stroke-miterlimit="10" stroke-width="2"/>
        <line id="선_343" data-name="선 343" x2="2" y2="2" transform="translate(12 10)" fill="none" stroke="#bcc0c4" stroke-miterlimit="10" stroke-width="2"/>
        <line id="선_344" data-name="선 344" x2="2" y2="2" transform="translate(7 5)" fill="none" stroke="#bcc0c4" stroke-miterlimit="10" stroke-width="2"/>
        <line id="선_345" data-name="선 345" y2="6" transform="translate(3 16)" fill="none" stroke="#bcc0c4" stroke-miterlimit="10" stroke-width="2"/>
        <line id="선_346" data-name="선 346" x2="6" transform="translate(0 19)" fill="none" stroke="#bcc0c4" stroke-miterlimit="10" stroke-width="2"/>
      </g>
    </g>
  </g>
</svg>
